<svg width="252" height="184" viewBox="0 0 252 184" fill="none" xmlns="http://www.w3.org/2000/svg">
<path d="M43.1498 157.709C44.8753 157.019 46.2555 156.258 47.2905 155.424C48.2891 154.5 49.1059 153.386 49.7409 152.082C50.3759 150.777 50.8745 149.265 51.2367 147.545C51.6534 145.697 52.0699 143.587 52.4862 141.215L53.9581 141.73C53.6152 145.334 53.3542 149.01 53.175 152.759C53.0502 156.38 53.207 160.047 53.6455 163.759L15.3676 179.049C13.4605 179.811 11.9167 180.428 10.7361 180.899C9.46472 181.407 8.46577 181.806 7.73926 182.097C6.95834 182.514 6.35904 182.858 5.94136 183.13C5.52369 183.402 5.15142 183.656 4.82456 183.891L4.55212 184L3.13378 182.045L3.0246 181.774C4.96498 176.376 7.35042 170.906 10.1809 165.363C12.975 159.729 15.8963 154.15 18.9448 148.625C21.9569 143.009 24.851 137.493 27.6271 132.077C30.3668 126.57 32.6524 121.245 34.4839 116.101C36.2791 110.867 37.3931 105.904 37.8261 101.214C38.3498 96.4872 37.8111 92.1325 36.2097 88.1497C34.1716 83.0806 31.8074 79.2975 29.117 76.8003C26.4266 74.3031 22.9018 73.9251 18.5428 75.6664C15.7276 76.7909 13.8122 78.7117 12.7966 81.4286C11.8718 84.1092 11.3558 86.8892 11.2487 89.7685C11.2324 92.6115 11.4521 95.2552 11.9079 97.6996C12.3273 100.053 12.51 101.556 12.4559 102.208L1.22918 103.383C0.046204 100.179 -0.282892 97.0013 0.241898 93.8501C0.730297 90.6083 1.80933 87.656 3.47899 84.9929C5.11226 82.2394 7.19993 79.8296 9.74202 77.7636C12.2477 75.6071 14.9082 73.9665 17.7234 72.842C24.1711 70.2664 29.912 70.1268 34.9459 72.4233C40.0706 74.6835 43.8885 78.9366 46.3997 85.1823C48.365 90.0703 49.0767 94.9863 48.535 99.9302C48.0476 104.747 46.7245 109.583 44.5658 114.438C42.4978 119.256 39.8577 124.092 36.6452 128.948C33.3963 133.712 30.1021 138.495 26.7624 143.296C23.3864 148.006 20.1647 152.708 17.0975 157.4C14.0847 161.965 11.6895 166.494 9.91208 170.986L43.1498 157.709Z" fill="black"/>
<path d="M73.366 53.0925C78.7131 50.9565 83.6683 50.137 88.2316 50.6338C92.8449 51.014 96.7234 52.2193 99.8669 54.2497C103.01 56.2802 106.088 59.3519 109.099 63.4649C112.077 67.4946 114.428 71.2915 116.152 74.8556C117.842 78.3363 119.708 82.6167 121.751 87.6966C123.626 92.3601 125.108 96.649 126.197 100.563C127.369 104.444 128.149 108.675 128.537 113.257C129.008 117.804 128.751 121.869 127.768 125.452C126.75 128.951 124.797 132.293 121.907 135.477C119.018 138.661 115.109 141.237 110.179 143.206C104.999 145.275 100.136 146.203 95.5897 145.989C91.0934 145.659 87.2652 144.579 84.105 142.748C80.9449 140.918 77.9179 138.212 75.024 134.632C72.1802 130.936 69.8546 127.322 68.0471 123.792C66.2062 120.178 64.3148 115.956 62.3728 111.125C60.6987 106.962 59.3257 103.306 58.2539 100.158C57.2657 96.9764 56.2939 93.3535 55.3386 89.2891C54.4333 85.1081 54.1133 81.4182 54.3786 78.2194C54.6105 74.9372 55.2853 71.6715 56.403 68.4221C57.5207 65.1727 59.4994 62.256 62.3391 59.6719C65.2623 57.0544 68.938 54.8613 73.366 53.0925ZM84.6785 61.3317C82.2715 61.1333 79.7731 61.5514 77.1831 62.586C74.5931 63.6206 72.4964 65.0381 70.893 66.8383C69.2562 68.5554 68.0622 70.2888 67.3113 72.0385C66.5603 73.7883 66.2275 76.0959 66.313 78.9613C66.3649 81.7434 66.5168 84.0507 66.7688 85.8831C67.1042 87.6822 67.7828 90.214 68.8045 93.4786C69.7927 96.66 70.5547 98.9169 71.0904 100.249C71.5926 101.498 72.4464 103.622 73.6518 106.62C74.8237 109.535 75.8365 111.933 76.6901 113.815C77.5438 115.697 78.7571 118.112 80.3302 121.06C81.9032 124.007 83.526 126.355 85.1986 128.104C86.8376 129.768 88.7023 131.392 90.7926 132.973C92.8494 134.471 95.1816 135.327 97.7891 135.542C100.447 135.641 103.238 135.106 106.162 133.938C108.668 132.936 110.698 131.594 112.251 129.91C113.888 128.193 115.082 126.46 115.833 124.71C116.584 122.96 116.925 120.794 116.857 118.212C116.838 115.513 116.703 113.248 116.451 111.415C116.166 109.499 115.538 107.093 114.566 104.194C113.645 101.18 112.916 99.006 112.381 97.6735C111.895 96.2244 111.117 94.1675 110.045 91.5026C108.873 88.5879 108.036 86.506 107.534 85.2568C107.032 84.0077 106.036 81.8925 104.546 78.9114C103.057 75.9303 101.768 73.6904 100.681 72.1917C99.6771 70.6597 98.2302 68.8697 96.3401 66.8218C94.4501 64.7739 92.6274 63.3756 90.8719 62.6271C89.1164 61.8785 87.052 61.4467 84.6785 61.3317Z" fill="black"/>
<path d="M198.294 0L186.711 115.535L178.189 118.939L190.022 3.30401L198.294 0ZM140.522 25.9768C146.871 23.4404 152.538 23.545 157.52 26.2906C162.586 29.0029 166.676 34.2313 169.79 41.9761C173.205 50.4703 174.104 57.6501 172.487 63.5154C170.869 69.3807 166.761 73.6316 160.16 76.2681C146.709 81.6413 136.602 75.9169 129.838 59.095C126.657 51.1837 125.993 44.3453 127.844 38.5798C129.695 32.8143 133.921 28.6133 140.522 25.9768ZM160.592 46.2303C156.005 34.8214 150.119 30.552 142.933 33.4221C135.748 36.2923 134.6 43.8066 139.488 55.965C144.176 67.6238 150.112 72.0181 157.297 69.1479C164.483 66.2778 165.581 58.6386 160.592 46.2303ZM219.255 41.644C225.605 39.1076 231.271 39.2122 236.254 41.9578C241.32 44.6701 245.41 49.8986 248.524 57.6433C251.939 66.1376 252.838 73.3174 251.22 79.1826C249.603 85.0479 245.494 89.2988 238.894 91.9354C225.442 97.3085 215.335 91.5842 208.571 74.7622C205.391 66.8509 204.726 60.0125 206.577 54.2471C208.429 48.4816 212.655 44.2806 219.255 41.644ZM239.325 61.8976C234.738 50.4886 228.852 46.2192 221.667 49.0894C214.482 51.9595 213.333 59.4738 218.222 71.6323C222.909 83.291 228.846 87.6853 236.031 84.8152C243.216 81.945 244.314 74.3058 239.325 61.8976Z" fill="black"/>
</svg>
