<svg width="239" height="217" viewBox="0 0 239 217" fill="none" xmlns="http://www.w3.org/2000/svg">
<path d="M1.69288 45.7151C6.10017 49.4989 11.1106 52.8549 16.7241 55.7833C22.3376 58.7117 28.0282 60.7131 33.7959 61.7874C39.7001 62.8581 45.4672 62.665 51.0973 61.2083C56.7976 59.8182 61.9712 56.6613 66.6183 51.7377C70.1369 48.0098 71.9433 44.1235 72.0375 40.0788C72.2018 36.1007 70.3903 32.314 66.603 28.7187C64.499 26.7214 62.4136 25.4086 60.3471 24.7804C58.3469 24.0819 55.9114 23.7036 53.0407 23.6456L52.6801 21.703C58.8964 19.2025 64.9355 16.4671 70.7974 13.4968C76.7295 10.5931 82.6966 7.72266 88.6988 4.88551C88.9268 3.235 89.5996 1.60649 90.7169 0L102.079 10.7858C101.113 12.9362 100.974 15.3379 101.661 17.9908C102.415 20.5734 103.634 22.6637 105.317 24.2616C108.052 26.8582 110.722 28.3261 113.328 28.6655C115.933 29.0048 119.041 29.022 122.654 28.717L122.727 31.3869C117.628 32.2808 112.776 32.2089 108.17 31.171C103.565 30.1332 99.3334 27.7833 95.476 24.1215C93.4421 22.1907 91.7344 19.7028 90.3531 16.6579C88.9718 13.613 88.4134 10.6825 88.6779 7.86628L66.1115 18.2503C67.7021 18.9601 69.1951 19.8439 70.5903 20.9016C72.0519 21.889 73.4139 22.9819 74.6763 24.1803C77.3415 26.7103 79.3628 29.4293 80.7404 32.3373C82.1843 35.175 82.9807 38.0647 83.1295 41.0066C83.3485 44.015 82.9162 46.9386 81.8326 49.7773C80.8191 52.6826 79.1174 55.4014 76.7275 57.9335C73.2753 61.5911 69.4206 64.2663 65.1632 65.9593C60.9058 67.6522 56.4563 68.5626 51.8145 68.6904C47.2429 68.8848 42.551 68.4316 37.739 67.331C32.9933 66.1599 28.373 64.5744 23.8779 62.5743C19.3828 60.5743 15.0831 58.2263 10.9789 55.5304C6.87836 52.9714 3.21873 50.2975 0 47.5087L1.69288 45.7151Z" fill="black"/>
<path d="M138.387 52.7106C140.775 54.9769 142.613 57.8257 143.901 61.2568C145.189 64.688 145.516 68.6182 144.883 73.0477C144.311 77.4125 142.621 82.2492 139.813 87.558C137.004 92.8667 132.729 98.5625 126.988 104.645C121.247 110.728 115.811 115.321 110.679 118.425C105.548 121.529 100.795 123.519 96.4192 124.396C92.1049 125.208 88.2044 125.063 84.7176 123.962C81.2308 122.86 78.2937 121.176 75.9063 118.91C73.4543 116.582 71.5844 113.703 70.2963 110.272C69.0728 106.902 68.747 103.034 69.3188 98.6696C70.0163 94.3014 71.7692 89.4629 74.5778 84.1542C77.3863 78.8454 81.6611 73.1497 87.4023 67.0668C93.1435 60.984 98.5798 56.3908 103.711 53.2871C108.843 50.1835 113.533 48.195 117.783 47.3216C122.158 46.4448 126.057 46.5266 129.479 47.5669C132.966 48.6684 135.935 50.383 138.387 52.7106ZM135.736 55.7144C133.8 53.8769 131.451 52.9961 128.687 53.0722C125.985 53.0836 122.898 53.9564 119.426 55.6908C116.08 57.4217 112.409 59.9493 108.415 63.2738C104.482 66.5335 100.348 70.4607 96.0112 75.0551C91.6748 79.6496 87.9612 84.0378 84.8704 88.2198C81.7796 92.4018 79.4339 96.2481 77.8331 99.7588C76.3579 103.266 75.6582 106.405 75.7341 109.176C75.81 111.948 76.8158 114.252 78.7515 116.09C80.6872 117.927 83.0045 118.777 85.7032 118.64C88.4664 118.564 91.5212 117.66 94.8676 115.929C98.3396 114.195 102.073 111.666 106.067 108.341C110.061 105.017 114.226 101.057 118.563 96.4629C122.899 91.8684 126.582 87.5126 129.612 83.3953C132.702 79.2133 134.985 75.3687 136.461 71.8615C138.061 68.3508 138.793 65.2422 138.656 62.5357C138.645 59.8258 137.672 57.552 135.736 55.7144Z" fill="black"/>
<path d="M239 136.259L130.297 173.855L123.715 167.607L232.612 130.195L239 136.259ZM191.775 95.109C196.678 99.7642 198.925 104.902 198.513 110.523C198.166 116.205 195.152 122.055 189.472 128.074C183.242 134.674 177.155 138.466 171.212 139.449C165.268 140.432 159.747 138.504 154.65 133.665C144.262 123.803 145.236 112.337 157.573 99.2651C163.376 93.1176 169.252 89.6783 175.203 88.9472C181.153 88.2161 186.677 90.27 191.775 95.109ZM181.846 121.571C190.214 112.706 191.623 105.639 186.074 100.371C180.525 95.1036 173.292 97.1936 164.374 106.641C155.824 115.701 154.323 122.864 159.872 128.132C165.421 133.4 172.746 131.213 181.846 121.571ZM210.2 172.411C215.104 177.066 217.35 182.204 216.938 187.825C216.591 193.508 213.577 199.358 207.897 205.376C201.667 211.976 195.58 215.768 189.637 216.751C183.693 217.734 178.173 215.806 173.075 210.967C162.687 201.105 163.661 189.639 175.999 176.567C181.801 170.42 187.677 166.98 193.628 166.249C199.578 165.518 205.102 167.572 210.2 172.411ZM200.271 198.873C208.639 190.008 210.048 182.941 204.499 177.673C198.95 172.406 191.717 174.496 182.8 183.944C174.249 193.003 172.748 200.167 178.297 205.434C183.846 210.702 191.171 208.515 200.271 198.873Z" fill="black"/>
</svg>
