<svg width="1535" height="287" viewBox="0 0 1535 287" fill="none" xmlns="http://www.w3.org/2000/svg">
<path d="M51.8336 0L89.1645 96H75.0647L64.4563 66.6067H24.3054L13.4284 96H0L37.5995 0H51.8336ZM60.6963 56.4944L44.448 12.1348L27.9311 56.4944H60.6963Z" fill="black"/>
<path d="M213.747 0L173.462 38.5618L215.359 96H199.245L164.6 47.191L148.754 62.2921V96H136.131V0H148.754V47.5955L197.231 0H213.747Z" fill="black"/>
<path d="M265.849 0L303.18 96H289.08L278.471 66.6067H238.32L227.443 96H214.015L251.615 0H265.849ZM274.711 56.4944L258.463 12.1348L241.946 56.4944H274.711Z" fill="black"/>
<path d="M390.389 0L350.103 38.5618L392 96H375.886L341.241 47.191L325.395 62.2921V96H312.772V0H325.395V47.5955L373.872 0H390.389Z" fill="black"/>
<path d="M779.406 287H767.211V263.342H698.195V287H686V252.381H695.381C699.044 245.876 702.037 236.564 704.36 224.446C706.682 212.238 707.844 199.629 707.844 186.619V168.173H768.819V252.381H779.406V287ZM756.222 252.381V179.134H720.173V192.099C720.173 203.594 719.101 215 716.957 226.317C714.902 237.545 712.356 246.233 709.318 252.381H756.222Z" fill="black"/>
<path d="M812.68 266.247C808.407 266.247 804.717 265.521 801.609 264.068C798.599 262.712 796.123 260.775 794.18 258.257C792.238 255.738 790.782 252.784 789.81 249.394C788.839 246.004 788.354 242.275 788.354 238.207C788.354 233.267 789.082 228.037 790.539 222.516C792.093 216.995 794.229 211.571 796.948 206.244C799.667 200.917 802.92 195.832 806.708 190.989C810.495 186.049 814.622 181.739 819.089 178.059C823.653 174.378 828.509 171.472 833.656 169.342C838.802 167.114 844.095 166 849.533 166C853.709 166 857.35 166.726 860.458 168.179C863.566 169.535 866.09 171.472 868.033 173.991C869.975 176.509 871.431 179.463 872.403 182.853C873.374 186.243 873.859 189.972 873.859 194.04C873.859 198.98 873.082 204.21 871.529 209.731C870.072 215.252 867.984 220.676 865.265 226.003C862.546 231.33 859.293 236.464 855.505 241.403C851.718 246.246 847.542 250.508 842.978 254.189C838.511 257.869 833.704 260.823 828.557 263.051C823.411 265.182 818.118 266.247 812.68 266.247ZM818.506 261.598C822.876 261.598 826.955 260.291 830.742 257.675C834.53 254.963 837.928 251.477 840.939 247.215C844.046 242.953 846.765 238.207 849.096 232.977C851.524 227.65 853.563 222.371 855.214 217.141C856.865 211.814 858.079 206.825 858.856 202.176C859.73 197.43 860.167 193.556 860.167 190.553C860.167 187.744 859.875 185.081 859.293 182.563C858.807 180.044 857.933 177.865 856.671 176.025C855.408 174.088 853.66 172.586 851.427 171.521C849.29 170.359 846.571 169.777 843.27 169.777C838.997 169.777 834.967 171.133 831.179 173.845C827.489 176.461 824.09 179.899 820.983 184.161C817.972 188.422 815.253 193.217 812.826 198.544C810.495 203.774 808.504 209.053 806.853 214.38C805.299 219.611 804.086 224.599 803.212 229.345C802.435 233.994 802.046 237.82 802.046 240.822C802.046 243.631 802.289 246.295 802.775 248.813C803.357 251.331 804.231 253.559 805.397 255.496C806.659 257.336 808.358 258.838 810.495 260C812.631 261.065 815.302 261.598 818.506 261.598Z" fill="black"/>
<path d="M899.146 206.668H931.041C940.422 206.668 947.659 209.164 952.751 214.154C957.843 219.144 960.39 226.139 960.39 235.139C960.39 244.05 957.799 251 952.617 255.99C947.525 260.891 940.333 263.342 931.041 263.342H886.549V168.173H951.947V179.134H899.146V206.668ZM947.793 235.139C947.793 223.465 940.824 217.629 926.887 217.629H899.146V252.381H926.887C940.824 252.381 947.793 246.634 947.793 235.139Z" fill="black"/>
<path d="M978.826 168.173H1018.09C1027.83 168.173 1035.56 170.401 1041.28 174.857C1046.99 179.223 1049.85 186.129 1049.85 195.574C1049.85 214.733 1039 224.312 1017.29 224.312H991.423V263.342H978.826V168.173ZM991.423 179V213.753H1015.68C1022.47 213.753 1027.74 212.505 1031.49 210.01C1035.33 207.426 1037.25 202.881 1037.25 196.376C1037.25 192.723 1036.63 189.693 1035.38 187.287C1034.22 184.881 1032.48 183.099 1030.15 181.941C1027.83 180.782 1025.42 180.025 1022.92 179.669C1020.41 179.223 1017.42 179 1013.94 179H991.423Z" fill="black"/>
<path d="M1095.31 168.173L1132.57 263.342H1118.5L1107.91 234.203H1067.84L1056.98 263.342H1043.58L1081.11 168.173H1095.31ZM1104.16 224.178L1087.94 180.203L1071.46 224.178H1104.16Z" fill="black"/>
<path d="M1196.04 168.173V179.134H1164.01V263.342H1151.41V179.134H1119.39V168.173H1196.04Z" fill="black"/>
<path d="M1277.95 235.139C1277.95 244.05 1275.36 251 1270.18 255.99C1265.09 260.891 1257.89 263.342 1248.6 263.342H1206.79V168.173H1219.39V206.802H1248.6C1257.98 206.802 1265.22 209.297 1270.31 214.287C1275.4 219.188 1277.95 226.139 1277.95 235.139ZM1265.22 235.139C1265.22 223.465 1258.25 217.629 1244.31 217.629H1219.39V252.381H1244.31C1258.25 252.381 1265.22 246.634 1265.22 235.139Z" fill="black"/>
<path d="M1374.5 227.386C1373.43 239.416 1369.23 248.817 1361.9 255.589C1354.66 262.272 1345.1 265.614 1333.22 265.614C1319.64 265.614 1308.88 261.158 1300.93 252.248C1292.97 243.248 1289 231.129 1289 215.891C1289 201.634 1292.97 189.782 1300.93 180.337C1308.97 170.802 1320.04 166.035 1334.16 166.035C1344.26 166.035 1353.15 168.753 1360.83 174.188C1368.51 179.624 1372.8 187.154 1373.69 196.777H1361.1C1359.67 190.54 1356.54 185.683 1351.72 182.208C1346.89 178.644 1340.95 176.862 1333.89 176.862C1323.26 176.862 1315.22 180.604 1309.77 188.089C1304.41 195.574 1301.73 204.797 1301.73 215.758C1301.73 227.876 1304.59 237.411 1310.31 244.361C1316.02 251.312 1323.84 254.787 1333.76 254.787C1341.89 254.787 1348.37 252.47 1353.19 247.837C1358.01 243.114 1360.92 236.297 1361.9 227.386H1374.5Z" fill="black"/>
<path d="M1426.32 222.708L1394.82 263.342H1379.28L1411.17 222.307C1403.58 221.327 1397.73 218.564 1393.62 214.02C1389.51 209.475 1387.45 203.282 1387.45 195.441C1387.45 186.619 1390.09 179.891 1395.36 175.258C1400.72 170.535 1408.14 168.173 1417.61 168.173H1458.61V263.342H1446.02V222.708H1426.32ZM1446.02 212.015V178.867H1421.9C1407.42 178.867 1400.19 184.391 1400.19 195.441C1400.19 206.49 1407.42 212.015 1421.9 212.015H1446.02Z" fill="black"/>
<path d="M1476.57 197.98C1476.57 188.713 1479.12 181.139 1484.21 175.258C1489.39 169.376 1496.9 166.436 1506.72 166.436C1515.3 166.436 1522.13 168.753 1527.23 173.386C1532.41 178.02 1535 184.258 1535 192.099C1535 196.822 1534.15 200.921 1532.45 204.396C1530.76 207.782 1528.12 211.124 1524.55 214.421C1524.1 214.866 1522.94 215.936 1521.06 217.629C1519.28 219.233 1518.25 220.213 1517.98 220.569C1517.71 220.926 1516.95 221.772 1515.7 223.109C1514.54 224.446 1513.87 225.515 1513.69 226.317C1513.51 227.03 1513.16 228.144 1512.62 229.659C1512.08 231.173 1511.77 232.777 1511.68 234.47C1511.59 236.074 1511.55 237.99 1511.55 240.218H1500.56V239.416C1500.56 235.406 1500.74 232.109 1501.1 229.525C1501.54 226.941 1502.48 224.446 1503.91 222.04C1505.43 219.545 1506.81 217.584 1508.06 216.159C1509.4 214.733 1511.82 212.282 1515.3 208.807C1518.16 205.956 1520.12 203.416 1521.2 201.188C1522.36 198.871 1522.94 196.287 1522.94 193.436C1522.94 188.268 1521.46 184.168 1518.52 181.139C1515.57 178.109 1511.59 176.594 1506.59 176.594C1494.89 176.594 1488.63 183.723 1487.83 197.98H1476.57ZM1512.89 249.842V263.342H1498.82V249.842H1512.89Z" fill="black"/>
<path d="M586.768 49.7678C587.744 48.7915 587.744 47.2085 586.768 46.2322L570.858 30.3223C569.882 29.346 568.299 29.346 567.322 30.3223C566.346 31.2986 566.346 32.8816 567.322 33.8579L581.464 48L567.322 62.1421C566.346 63.1184 566.346 64.7014 567.322 65.6777C568.299 66.654 569.882 66.654 570.858 65.6777L586.768 49.7678ZM477 50.5L585 50.5V45.5L477 45.5V50.5Z" fill="black"/>
<path d="M475.232 218.232C474.256 219.209 474.256 220.791 475.232 221.768L491.142 237.678C492.118 238.654 493.701 238.654 494.678 237.678C495.654 236.701 495.654 235.118 494.678 234.142L480.536 220L494.678 205.858C495.654 204.882 495.654 203.299 494.678 202.322C493.701 201.346 492.118 201.346 491.142 202.322L475.232 218.232ZM585 217.5L477 217.5L477 222.5L585 222.5L585 217.5Z" fill="black"/>
</svg>
