<svg width="1298" height="245" viewBox="0 0 1298 245" fill="none" xmlns="http://www.w3.org/2000/svg">
<path d="M1191.33 226.479C1190.95 227.805 1191.71 229.191 1193.04 229.575L1214.65 235.834C1215.98 236.218 1217.36 235.454 1217.75 234.128C1218.13 232.802 1217.37 231.415 1216.04 231.031L1196.83 225.468L1202.4 206.257C1202.78 204.931 1202.02 203.545 1200.69 203.161C1199.36 202.777 1197.98 203.54 1197.59 204.867L1191.33 226.479ZM1287.5 172.668L1192.53 224.984L1194.94 229.364L1289.91 177.047L1287.5 172.668Z" fill="black"/>
<path d="M106.596 226.479C106.98 227.805 106.216 229.191 104.89 229.575L83.2778 235.834C81.9515 236.218 80.5651 235.454 80.181 234.128C79.797 232.802 80.5608 231.415 81.887 231.031L101.098 225.468L95.5346 206.257C95.1505 204.931 95.9143 203.545 97.2405 203.161C98.5667 202.777 99.9532 203.54 100.337 204.867L106.596 226.479ZM10.4329 172.668L105.401 224.984L102.988 229.364L8.02027 177.047L10.4329 172.668Z" fill="black"/>
<path d="M827.718 109.748C828.296 111.002 829.781 111.55 831.035 110.972L851.468 101.551C852.722 100.973 853.27 99.4877 852.692 98.2338C852.113 96.98 850.628 96.4322 849.374 97.0103L831.212 105.384L822.838 87.2217C822.26 85.9679 820.775 85.4201 819.521 85.9982C818.267 86.5763 817.719 88.0614 818.297 89.3152L827.718 109.748ZM865.166 6.11137L827.643 107.836L832.334 109.566L869.857 7.84175L865.166 6.11137Z" fill="black"/>
<path d="M455.903 109.748C455.325 111.002 453.84 111.55 452.586 110.972L432.153 101.551C430.899 100.973 430.351 99.4877 430.93 98.2338C431.508 96.98 432.993 96.4322 434.247 97.0103L452.409 105.384L460.783 87.2217C461.361 85.9679 462.846 85.4201 464.1 85.9982C465.354 86.5763 465.902 88.0614 465.324 89.3152L455.903 109.748ZM418.455 6.11137L455.978 107.836L451.287 109.566L413.764 7.84175L418.455 6.11137Z" fill="black"/>
</svg>
