<svg width="583" height="477" viewBox="0 0 583 477" fill="none" xmlns="http://www.w3.org/2000/svg">
<path d="M125.77 330.499L127.872 329.145L125.196 324.99L123.434 329.608L125.77 330.499ZM182.237 418.182L180.136 419.536L184.672 426.581L184.737 418.202L182.237 418.182ZM183.73 225.922L185.709 224.394L181.286 218.669L181.23 225.903L183.73 225.922ZM258.391 322.582L256.412 324.11L260.416 329.293L260.884 322.761L258.391 322.582ZM273.239 115.725L275.56 114.797L270.746 115.546L273.239 115.725ZM361.858 337.313L359.536 338.241L364.357 337.258L361.858 337.313ZM356.229 79.9968L358.608 79.228L353.729 80.0515L356.229 79.9968ZM441.563 344.059L439.184 344.828L444.062 343.983L441.563 344.059ZM431.62 15.9495L433.966 15.0837L429.122 16.0253L431.62 15.9495ZM565.139 382.725C566.393 383.303 567.878 382.754 568.455 381.5L577.871 361.065C578.448 359.811 577.9 358.326 576.646 357.748C575.392 357.171 573.907 357.719 573.329 358.973L564.96 377.138L546.796 368.768C545.542 368.191 544.057 368.739 543.479 369.993C542.901 371.247 543.449 372.732 544.703 373.309L565.139 382.725ZM73.0319 475.78L128.106 331.39L123.434 329.608L68.3602 473.998L73.0319 475.78ZM123.668 331.853L180.136 419.536L184.339 416.829L127.872 329.145L123.668 331.853ZM184.737 418.202L186.23 225.942L181.23 225.903L179.738 418.163L184.737 418.202ZM181.751 227.451L256.412 324.11L260.369 321.054L185.709 224.394L181.751 227.451ZM260.884 322.761L275.733 115.904L270.746 115.546L255.897 322.403L260.884 322.761ZM270.918 116.654L359.536 338.241L364.179 336.385L275.56 114.797L270.918 116.654ZM364.357 337.258L358.728 79.9421L353.729 80.0515L359.358 337.368L364.357 337.258ZM353.85 80.7656L439.184 344.828L443.942 343.29L358.608 79.228L353.85 80.7656ZM444.062 343.983L434.119 15.8738L429.122 16.0253L439.064 344.135L444.062 343.983ZM429.275 16.8153L563.839 381.32L568.53 379.588L433.966 15.0837L429.275 16.8153Z" fill="black"/>
</svg>
