<svg width="545" height="99" viewBox="0 0 545 99" fill="none" xmlns="http://www.w3.org/2000/svg">
<path d="M51.3241 2.25603L88.2881 96.744H74.3269L63.8228 67.8137H24.0665L13.2964 96.744H0L37.2299 2.25603H51.3241ZM60.0998 57.8606L44.0111 14.1997L27.6565 57.8606H60.0998Z" fill="black"/>
<path d="M97.7868 2.25603H138.208C146.895 2.25603 154.075 4.15818 159.748 7.96247C165.51 11.7668 168.391 17.7386 168.391 25.878C168.391 30.567 167.105 34.7694 164.535 38.4853C162.053 42.1126 158.684 44.6783 154.429 46.1823C160.28 47.5094 164.756 50.252 167.859 54.4102C171.05 58.5684 172.646 63.7882 172.646 70.0697C172.646 87.8525 160.679 96.744 136.745 96.744H97.7868V2.25603ZM110.019 12.8727V42.7319H132.49C135.061 42.7319 137.233 42.6877 139.006 42.5992C140.867 42.4223 142.95 42.0684 145.255 41.5375C147.56 41.0067 149.377 40.2547 150.706 39.2815C152.125 38.2198 153.321 36.7158 154.297 34.7694C155.36 32.8231 155.892 30.4786 155.892 27.7359C155.892 24.9933 155.449 22.693 154.562 20.8351C153.676 18.8887 152.612 17.429 151.371 16.4558C150.13 15.3941 148.402 14.5979 146.186 14.067C144.058 13.5362 142.108 13.2265 140.335 13.1381C138.651 12.9611 136.435 12.8727 133.687 12.8727H110.019ZM110.019 52.5523V86.2601H135.017C138.119 86.2601 140.646 86.2158 142.596 86.1273C144.546 85.9504 146.718 85.5523 149.111 84.933C151.593 84.3137 153.543 83.429 154.961 82.2788C156.38 81.0402 157.576 79.315 158.551 77.1032C159.526 74.8029 160.014 72.0603 160.014 68.8753C160.014 66.2212 159.659 63.9209 158.95 61.9745C158.33 60.0282 157.222 58.4799 155.626 57.3298C154.119 56.1796 152.657 55.2507 151.238 54.5429C149.909 53.8351 147.959 53.3485 145.388 53.0831C142.817 52.8177 140.823 52.685 139.405 52.685C137.986 52.5965 135.814 52.5523 132.889 52.5523H110.019Z" fill="black"/>
<path d="M254.494 2.25603V13.1381H222.716V96.744H210.217V13.1381H178.439V2.25603H254.494Z" fill="black"/>
<path d="M302.712 0C317.073 0 328.242 4.51206 336.219 13.5362C344.197 22.4718 348.186 34.1944 348.186 48.7038C348.186 63.3016 344.242 75.3338 336.352 84.8003C328.463 94.2668 317.294 99 302.845 99C295.488 99 288.884 97.6729 283.034 95.0188C277.183 92.3646 272.397 88.693 268.674 84.004C265.039 79.315 262.247 73.9625 260.297 67.9464C258.435 61.9303 257.505 55.4276 257.505 48.4383C257.505 33.6635 261.582 21.8968 269.737 13.1381C277.981 4.37936 288.973 0 302.712 0ZM302.712 10.882C292.164 10.882 284.053 14.5979 278.38 22.0295C272.796 29.3727 270.003 38.4853 270.003 49.3673C270.003 61.2225 272.973 70.689 278.912 77.7668C284.94 84.756 292.962 88.2507 302.978 88.2507C312.906 88.2507 320.84 84.7118 326.779 77.634C332.718 70.5563 335.688 61.1341 335.688 49.3673C335.688 37.689 332.674 28.3552 326.646 21.366C320.707 14.3767 312.729 10.882 302.712 10.882Z" fill="black"/>
<path d="M364.377 2.25603H403.335C412.997 2.25603 420.665 4.46783 426.338 8.89142C432.011 13.2265 434.848 20.0831 434.848 29.4611C434.848 48.4826 424.077 57.9933 402.537 57.9933H376.875V96.744H364.377V2.25603ZM376.875 13.0054V47.5094H400.942C407.679 47.5094 412.909 46.2708 416.632 43.7936C420.443 41.2279 422.349 36.7158 422.349 30.2574C422.349 26.63 421.728 23.622 420.487 21.2332C419.335 18.8445 417.607 17.0751 415.302 15.9249C412.997 14.7748 410.604 14.0228 408.122 13.6689C405.64 13.2265 402.67 13.0054 399.213 13.0054H376.875Z" fill="black"/>
<path d="M532.501 2.25603H545V96.744H532.501V2.25603ZM520.668 68.7426C520.668 77.5898 518.097 84.4906 512.956 89.445C507.903 94.311 500.767 96.744 491.548 96.744H450.064V2.25603H462.562V40.6086H491.548C500.856 40.6086 508.036 43.0858 513.089 48.0402C518.141 52.9062 520.668 59.807 520.668 68.7426ZM508.036 68.7426C508.036 57.1528 501.122 51.3579 487.294 51.3579H462.562V85.8619H487.294C501.122 85.8619 508.036 80.1555 508.036 68.7426Z" fill="black"/>
</svg>
