<svg width="1537" height="266" viewBox="0 0 1537 266" fill="none" xmlns="http://www.w3.org/2000/svg">
<path d="M988.355 221.031C989.334 220.058 989.339 218.475 988.366 217.496L972.504 201.538C971.53 200.559 969.947 200.554 968.968 201.528C967.989 202.501 967.984 204.084 968.958 205.063L983.057 219.248L968.873 233.347C967.894 234.321 967.889 235.904 968.862 236.883C969.836 237.862 971.418 237.867 972.398 236.894L988.355 221.031ZM878.232 221.434L986.585 221.758L986.6 216.758L878.247 216.434L878.232 221.434Z" fill="black"/>
<path d="M1059.23 48.2322C1058.26 49.2085 1058.26 50.7914 1059.23 51.7678L1075.14 67.6777C1076.12 68.654 1077.7 68.654 1078.68 67.6777C1079.65 66.7013 1079.65 65.1184 1078.68 64.1421L1064.54 50L1078.68 35.8579C1079.65 34.8815 1079.65 33.2986 1078.68 32.3223C1077.7 31.346 1076.12 31.346 1075.14 32.3223L1059.23 48.2322ZM1169 47.5L1061 47.5L1061 52.5L1169 52.5L1169 47.5Z" fill="black"/>
<path d="M66.0414 2.28919V13.3311H12.5921V43.3598H62.5585V53.9978H12.5921V87.1236H66.7112V98.1656H0L0 2.28919H66.0414Z" fill="black"/>
<path d="M202.053 98.1656H81.0887V2.28919H93.6807V87.1236H136.012V2.28919H148.604V87.1236H190.934V2.28919H203.526V87.1236H214.377V122H202.053V98.1656Z" fill="black"/>
<path d="M302.389 2.28919V13.3311H248.939V43.3598H298.906V53.9978H248.939V87.1236H303.058V98.1656H236.347V2.28919H302.389Z" fill="black"/>
<path d="M368.115 41.0706H399.997C409.374 41.0706 416.608 43.5843 421.698 48.6115C426.789 53.6387 429.334 60.6858 429.334 69.7528C429.334 78.7299 426.744 85.7322 421.564 90.7594C416.474 95.6968 409.285 98.1656 399.997 98.1656H355.523V2.28919H420.895V13.3311H368.115V41.0706ZM416.742 69.7528C416.742 57.9926 409.776 52.1126 395.844 52.1126H368.115V87.1236H395.844C409.776 87.1236 416.742 81.3333 416.742 69.7528Z" fill="black"/>
<path d="M487.414 0C501.882 0 513.134 4.57837 521.172 13.7351C529.209 22.8021 533.228 34.6968 533.228 49.4194C533.228 64.2318 529.254 76.4408 521.306 86.0464C513.357 95.6519 502.105 100.455 487.548 100.455C480.136 100.455 473.483 99.1082 467.588 96.415C461.694 93.7219 456.872 89.9963 453.121 85.2384C449.459 80.4805 446.646 75.0493 444.682 68.9448C442.806 62.8403 441.868 56.2421 441.868 49.1501C441.868 34.1582 445.977 22.2185 454.193 13.3311C462.498 4.44371 473.572 0 487.414 0ZM487.414 11.0419C476.787 11.0419 468.615 14.8124 462.9 22.3532C457.274 29.8043 454.461 39.0508 454.461 50.0927C454.461 62.1222 457.452 71.7277 463.436 78.9095C469.508 86.0015 477.591 89.5475 487.682 89.5475C497.684 89.5475 505.677 85.9566 511.661 78.7748C517.644 71.5931 520.636 62.0324 520.636 50.0927C520.636 38.2428 517.599 28.7719 511.527 21.6799C505.543 14.5879 497.506 11.0419 487.414 11.0419Z" fill="black"/>
<path d="M619.332 2.28919V98.1656H606.74V13.3311H571.509L569.633 67.3289C569.276 77.3834 567.222 85.3731 563.471 91.298C559.81 97.223 554.496 100.185 547.53 100.185C544.672 100.185 541.636 99.557 538.421 98.3002V87.5276C539.85 88.4253 542.127 88.8742 545.253 88.8742C547.843 88.8742 549.897 88.2907 551.415 87.1236C553.022 85.8668 554.407 83.0839 555.568 78.7748C556.818 74.4658 557.532 68.4511 557.711 60.7307L559.452 2.28919H619.332Z" fill="black"/>
<path d="M711.839 69.7528C711.839 78.7299 709.249 85.7322 704.07 90.7594C698.979 95.6968 691.79 98.1656 682.502 98.1656H640.707V2.28919H653.299V41.2053H682.502C691.879 41.2053 699.113 43.7189 704.204 48.7461C709.294 53.6836 711.839 60.6858 711.839 69.7528ZM699.113 69.7528C699.113 57.9926 692.147 52.1126 678.216 52.1126H653.299V87.1236H678.216C692.147 87.1236 699.113 81.3333 699.113 69.7528Z" fill="black"/>
<path d="M715.969 96.7019C719.269 96.214 721.842 95.7261 723.686 95.2382C725.53 94.7503 727.035 93.8721 728.2 92.6036C729.365 91.3351 730.384 89.5787 731.258 87.3344C732.131 85.0901 733.248 81.9676 734.607 77.9669L755.137 17.9563C755.817 16.0048 756.302 14.2972 756.593 12.8335C756.982 11.3698 757.176 10.5404 757.176 10.3452C757.176 9.1743 756.593 8.2473 755.428 7.56426C754.361 6.78363 753.05 6.19816 751.497 5.80785C750.041 5.31996 748.536 4.97844 746.983 4.78328C745.527 4.58812 744.459 4.49054 743.78 4.49054V2.4414C746.983 2.63656 750.623 2.78293 754.7 2.88051C758.777 2.88051 762.418 2.88051 765.621 2.88051C769.31 2.88051 772.756 2.88051 775.959 2.88051C779.259 2.78293 782.754 2.63656 786.443 2.4414V4.49054C783.628 4.88086 781.249 5.36875 779.308 5.95421C777.464 6.53969 775.862 7.41789 774.503 8.58882C773.144 9.66219 771.979 11.0771 771.008 12.8335C770.038 14.5899 769.067 16.8342 768.096 19.5664L742.033 93.9209C743.877 94.0185 745.284 94.1161 746.255 94.2137C747.323 94.3112 748.391 94.4088 749.459 94.5064C750.623 94.5064 752.031 94.5552 753.681 94.6528C755.331 94.6528 757.71 94.6528 760.816 94.6528C763.243 94.6528 765.184 94.6528 766.64 94.6528C768.193 94.5552 769.504 94.5064 770.571 94.5064C771.736 94.4088 772.804 94.3112 773.775 94.2137C774.746 94.1161 775.959 94.0185 777.415 93.9209L803.333 19.2736C804.11 17.0293 804.692 15.0778 805.08 13.4189C805.566 11.6625 805.808 10.4916 805.808 9.90613C805.808 9.02793 805.274 8.2473 804.207 7.56426C803.236 6.88121 802.071 6.34453 800.712 5.95421C799.353 5.46632 798.043 5.1248 796.781 4.92965C795.519 4.63691 794.597 4.49054 794.014 4.49054V2.4414C797.12 2.63656 800.518 2.78293 804.207 2.88051C807.992 2.88051 811.438 2.88051 814.545 2.88051C818.233 2.88051 821.631 2.88051 824.737 2.88051C827.843 2.78293 831.241 2.63656 834.93 2.4414V4.49054C832.115 4.88086 829.736 5.36875 827.795 5.95421C825.951 6.53969 824.349 7.41789 822.99 8.58882C821.631 9.66219 820.466 11.0771 819.495 12.8335C818.525 14.5899 817.554 16.8342 816.583 19.5664L790.52 93.9209C792.364 94.0185 793.771 94.1161 794.742 94.2137C795.81 94.3112 796.878 94.4088 797.946 94.5064C799.11 94.5064 800.518 94.5552 802.168 94.6528C803.818 94.6528 806.197 94.6528 809.303 94.6528C811.73 94.6528 813.671 94.6528 815.127 94.6528C816.68 94.5552 817.991 94.5064 819.059 94.5064C820.223 94.4088 821.291 94.3112 822.262 94.2137C823.233 94.1161 824.446 94.0185 825.902 93.9209L851.82 19.2736C852.597 17.0293 853.179 15.0778 853.567 13.4189C854.053 11.6625 854.295 10.4916 854.295 9.90613C854.295 9.02793 853.761 8.2473 852.694 7.56426C851.723 6.88121 850.558 6.34453 849.199 5.95421C847.84 5.46632 846.53 5.1248 845.268 4.92965C844.006 4.63691 843.084 4.49054 842.501 4.49054V2.4414C845.608 2.63656 849.102 2.78293 852.985 2.88051C856.868 2.88051 860.362 2.88051 863.469 2.88051C870.069 2.88051 876.67 2.73414 883.271 2.4414V4.49054C880.068 4.97843 877.301 5.71027 874.972 6.68606C872.739 7.66184 871.186 8.58883 870.312 9.46703C869.924 9.85734 869.487 10.5404 869.002 11.5162C868.516 12.3944 867.982 13.4189 867.4 14.5899C866.818 15.7608 866.235 17.0293 865.653 18.3954C865.167 19.6639 864.731 20.8349 864.342 21.9082L843.666 80.8942C841.919 86.0659 841.045 89.1396 841.045 90.1154C841.045 91.0912 841.433 91.9694 842.21 92.75C843.084 93.5306 844.151 94.2137 845.413 94.7991C846.772 95.287 848.228 95.7261 849.782 96.1164C851.335 96.4092 852.839 96.6043 854.295 96.7019V98.751C850.995 98.5559 847.792 98.4095 844.685 98.3119C841.676 98.2144 838.521 98.1656 835.221 98.1656H735.48C732.18 98.1656 728.928 98.2144 725.725 98.3119C722.521 98.4095 719.269 98.5559 715.969 98.751V96.7019Z" fill="black"/>
<path d="M955.33 2.28919V13.3311H901.881V43.3598H951.847V53.9978H901.881V87.1236H956V98.1656H889.289V2.28919H955.33Z" fill="black"/>
<path d="M1064 170H1081.44L1112.15 250.81L1141.8 170H1159.37V265.417H1147.43V185.814L1117.52 265.417H1106.52L1076.07 185.814V265.417H1064V170Z" fill="black"/>
<path d="M1246.84 170V180.989H1193.32V210.874H1243.35V221.461H1193.32V254.428H1247.51V265.417H1180.71V170H1246.84Z" fill="black"/>
<path d="M1263.25 170H1302.55C1312.3 170 1320.03 172.234 1325.75 176.701C1331.48 181.078 1334.34 188.002 1334.34 197.473C1334.34 216.681 1323.47 226.286 1301.74 226.286H1275.86V265.417H1263.25V170ZM1275.86 180.855V215.698H1300.13C1306.93 215.698 1312.21 214.448 1315.96 211.946C1319.81 209.355 1321.73 204.799 1321.73 198.277C1321.73 194.614 1321.1 191.576 1319.85 189.164C1318.69 186.752 1316.95 184.965 1314.62 183.803C1312.3 182.642 1309.88 181.882 1307.38 181.525C1304.87 181.078 1301.88 180.855 1298.39 180.855H1275.86Z" fill="black"/>
<path d="M1363.94 263.961C1366.76 263.572 1369.14 263.184 1371.08 262.795C1373.12 262.31 1374.92 261.581 1376.48 260.61C1378.03 259.542 1379.39 258.134 1380.56 256.386C1381.72 254.541 1382.89 252.065 1384.06 248.957L1394.55 219.824C1383.77 223.514 1374.77 225.359 1367.58 225.359C1361.85 225.359 1357.38 224.194 1354.17 221.863C1351.06 219.532 1349.5 215.939 1349.5 211.084C1349.5 209.53 1349.65 207.879 1349.94 206.131C1350.23 204.383 1350.77 202.489 1351.54 200.45L1353.88 193.749C1355.24 189.671 1356.31 186.223 1357.08 183.407C1357.86 180.591 1358.25 178.794 1358.25 178.017C1358.25 176.075 1357.18 174.764 1355.04 174.084C1352.9 173.405 1350.23 172.773 1347.02 172.191V170.151C1350.33 170.346 1353.59 170.491 1356.79 170.588C1360.1 170.686 1363.4 170.734 1366.71 170.734C1370.21 170.734 1373.66 170.686 1377.06 170.588C1380.56 170.491 1384.06 170.346 1387.56 170.151V172.191C1385.32 172.482 1383.33 172.871 1381.58 173.356C1379.93 173.745 1378.42 174.376 1377.06 175.25C1375.8 176.124 1374.63 177.289 1373.56 178.746C1372.49 180.105 1371.52 181.853 1370.64 183.99C1369.96 185.641 1369.33 187.292 1368.75 188.942C1368.26 190.496 1367.68 192.099 1367 193.749L1364.96 199.722C1363.79 203.218 1363.21 206.18 1363.21 208.607C1363.21 212.686 1364.52 215.599 1367.14 217.347C1369.87 218.998 1373.32 219.824 1377.5 219.824C1380.12 219.824 1382.99 219.581 1386.1 219.095C1389.21 218.513 1392.42 217.687 1395.72 216.619L1396.16 215.308C1396.45 214.434 1396.94 213.026 1397.62 211.084C1398.39 209.044 1399.22 206.762 1400.1 204.237C1401.07 201.713 1401.99 199.091 1402.87 196.371C1403.84 193.652 1404.71 191.079 1405.49 188.651C1406.36 186.223 1407.05 184.135 1407.53 182.387C1408.02 180.542 1408.26 179.28 1408.26 178.6C1408.26 177.338 1407.82 176.318 1406.95 175.541C1406.07 174.764 1405 174.182 1403.74 173.793C1402.57 173.308 1401.31 172.968 1399.95 172.773C1398.69 172.579 1397.57 172.385 1396.6 172.191V170.151C1400.1 170.346 1403.59 170.491 1407.09 170.588C1410.59 170.686 1414.09 170.734 1417.59 170.734C1420.9 170.734 1424.2 170.686 1427.51 170.588C1430.81 170.394 1434.12 170.249 1437.42 170.151V172.191C1434.89 172.579 1432.66 173.162 1430.71 173.939C1428.77 174.619 1426.68 175.687 1424.44 177.143C1423.96 177.532 1423.13 178.94 1421.97 181.368C1420.9 183.796 1419.63 186.903 1418.17 190.69C1416.72 194.381 1415.11 198.556 1413.36 203.218C1411.71 207.879 1410.01 212.638 1408.26 217.493C1406.51 222.252 1404.86 226.961 1403.3 231.623C1401.75 236.187 1400.34 240.363 1399.07 244.15C1397.91 247.84 1396.94 250.899 1396.16 253.327C1395.48 255.658 1395.14 257.017 1395.14 257.406C1395.14 258.474 1395.67 259.445 1396.74 260.319C1397.91 261.096 1399.22 261.776 1400.68 262.358C1402.14 262.844 1403.59 263.232 1405.05 263.524C1406.51 263.815 1407.63 263.961 1408.41 263.961V266C1405.2 265.806 1401.99 265.66 1398.78 265.563C1395.67 265.466 1392.51 265.417 1389.31 265.417C1387.46 265.417 1385.42 265.417 1383.18 265.417C1381.04 265.417 1378.86 265.417 1376.62 265.417C1374.39 265.514 1372.15 265.612 1369.91 265.709C1367.78 265.806 1365.78 265.903 1363.94 266V263.961Z" fill="black"/>
<path d="M1476.31 170L1513.6 265.417H1499.52L1488.92 236.202H1448.81L1437.95 265.417H1424.54L1462.09 170H1476.31ZM1485.17 226.151L1468.93 182.061L1452.44 226.151H1485.17Z" fill="black"/>
<path d="M1536.33 170V199.215L1532.98 241.697H1526.81L1523.72 199.215V170H1536.33ZM1537 251.882V265.417H1522.92V251.882H1537Z" fill="black"/>
</svg>
