<svg width="1379" height="211" viewBox="0 0 1379 211" fill="none" xmlns="http://www.w3.org/2000/svg">
<path d="M1375.87 31.5937C1376.75 30.5299 1376.6 28.954 1375.54 28.0739L1358.2 13.7317C1357.14 12.8516 1355.56 13.0006 1354.68 14.0644C1353.8 15.1283 1353.95 16.7042 1355.01 17.5843L1370.42 30.3328L1357.68 45.743C1356.8 46.8069 1356.94 48.3828 1358.01 49.2629C1359.07 50.143 1360.65 49.994 1361.53 48.9302L1375.87 31.5937ZM1266.24 42.692L1374.18 32.489L1373.71 27.5112L1265.76 37.7142L1266.24 42.692Z" fill="black"/>
<path d="M81.9421 209.82L69.3004 211L65.2708 168.903C55.71 172.028 46.9399 173.963 38.9604 174.708C33.4017 175.227 28.407 175.023 23.9763 174.097C19.6268 173.074 16.1933 171.697 13.6758 169.967C11.2394 168.14 9.17265 165.921 7.47542 163.31C5.7782 160.7 4.59951 158.309 3.93936 156.137C3.27074 153.877 2.81778 151.508 2.5805 149.029L0 122.071L12.6417 120.891L15.1205 146.786C15.2984 148.646 15.5491 150.319 15.8725 151.808C16.2771 153.199 16.9718 154.787 17.9566 156.571C18.9331 158.266 20.1978 159.666 21.751 160.772C23.3042 161.878 25.468 162.748 28.2424 163.382C31.0084 163.928 34.2294 164.029 37.9053 163.686C45.9745 162.933 54.7488 161.042 64.2284 158.013L60.2496 116.447L72.8913 115.267L81.9421 209.82Z" fill="black"/>
<path d="M160.441 107.096L161.483 117.985L129.341 120.985L137.349 204.649L124.708 205.829L116.699 122.165L84.557 125.165L83.5146 114.276L160.441 107.096Z" fill="black"/>
<path d="M208.994 100.286C223.519 98.9305 235.248 102.391 244.181 110.668C253.107 118.857 258.264 130.211 259.654 144.73C261.052 159.338 258.215 171.751 251.142 181.969C244.069 192.187 233.226 197.978 218.612 199.342C211.17 200.036 204.364 199.332 198.192 197.228C192.021 195.124 186.827 191.902 182.613 187.561C178.488 183.212 175.151 178.12 172.602 172.283C170.143 166.439 168.579 160.02 167.909 153.026C166.494 138.241 169.491 126.081 176.9 116.546C184.4 107.003 195.098 101.583 208.994 100.286ZM210.037 111.176C199.368 112.172 191.52 116.656 186.494 124.628C181.549 132.503 179.597 141.886 180.64 152.775C181.775 164.639 185.686 173.831 192.371 180.353C199.137 186.778 207.585 189.518 217.717 188.572C227.758 187.635 235.444 183.345 240.773 175.702C246.102 168.058 248.203 158.349 247.076 146.574C245.957 134.888 242.015 125.832 235.248 119.407C228.572 112.974 220.168 110.23 210.037 111.176Z" fill="black"/>
<path d="M310 89.1557L327.319 87.5016L365.419 165.759L387.268 81.7759L404.72 80.1091L413.686 175.953L401.829 177.086L394.349 97.1258L372.121 179.923L361.197 180.967L323.476 103.895L330.956 183.855L318.966 185L310 89.1557Z" fill="black"/>
<path d="M508.512 70.196L521.034 69L530 164.844L517.477 166.04L508.512 70.196ZM502.964 138.769C503.803 147.744 501.882 154.99 497.201 160.507C492.601 165.926 485.682 169.077 476.445 169.959L434.88 173.929L425.915 78.0848L438.437 76.8888L442.077 115.792L471.119 113.018C480.444 112.127 487.873 113.953 493.406 118.495C498.93 122.947 502.116 129.706 502.964 138.769ZM490.308 139.978C489.208 128.222 481.731 123.006 467.876 124.329L443.097 126.695L446.371 161.695L471.15 159.328C485.005 158.005 491.391 151.555 490.308 139.978Z" fill="black"/>
<path d="M693.375 166.274L681.219 167.413L678.984 143.969L610.191 150.416L612.426 173.861L600.27 175L597 140.694L606.351 139.818C609.387 133.03 611.491 123.522 612.661 111.296C613.824 98.9817 613.79 86.3783 612.561 73.4861L610.819 55.2074L671.597 49.5109L679.552 132.957L690.105 131.968L693.375 166.274ZM666.995 134.134L660.076 61.549L624.144 64.9168L625.368 77.7649C626.454 89.156 626.463 100.559 625.395 111.974C624.407 123.292 622.69 132.139 620.243 138.516L666.995 134.134Z" fill="black"/>
<path d="M760.652 41.1642L761.687 52.0255L708.389 57.0209L711.205 86.5582L761.03 81.8883L762.027 92.3522L712.202 97.0221L715.308 129.606L769.274 124.548L770.31 135.409L703.787 141.644L694.797 47.3365L760.652 41.1642Z" fill="black"/>
<path d="M846.587 33.1099L855.577 127.417L843.02 128.594L835.066 45.148L799.935 48.4407L803.128 101.73C803.714 111.653 802.415 119.704 799.23 125.883C796.135 132.053 791.114 135.464 784.168 136.115C781.318 136.382 778.231 136.048 774.908 135.112L773.898 124.515C775.407 125.265 777.72 125.494 780.836 125.201C783.419 124.959 785.412 124.193 786.817 122.904C788.302 121.517 789.421 118.65 790.175 114.303C791.018 109.948 791.166 103.965 790.62 96.3542L786.877 38.7062L846.587 33.1099Z" fill="black"/>
<path d="M907.842 27.3687L953.967 118.196L939.941 119.51L926.636 91.6243L886.696 95.3677L878.629 125.257L865.271 126.509L893.683 28.6958L907.842 27.3687ZM921.949 82.0407L901.632 39.9782L889.356 85.0956L921.949 82.0407Z" fill="black"/>
<path d="M1020.37 16.8216L1021.41 27.6828L968.112 32.6782L970.927 62.2155L1020.75 57.5457L1021.75 68.0095L971.925 72.6794L975.031 105.263L1029 100.205L1030.03 111.066L963.51 117.301L954.52 22.9938L1020.37 16.8216Z" fill="black"/>
<path d="M1036.31 15.3276L1053.68 13.7L1091.88 90.7029L1113.79 8.06614L1131.29 6.42605L1140.28 100.734L1128.39 101.848L1120.89 23.1699L1098.6 104.64L1087.65 105.666L1049.83 29.8304L1057.33 108.508L1045.3 109.635L1036.31 15.3276Z" fill="black"/>
<path d="M1152.15 34.272C1151.27 25.0885 1153.1 17.3449 1157.62 11.0412C1162.23 4.72907 1169.43 1.11397 1179.23 0.195849C1187.77 -0.605417 1194.81 1.05195 1200.32 5.16794C1205.92 9.27559 1209.09 15.2147 1209.84 22.9854C1210.28 27.6655 1209.82 31.8067 1208.46 35.4091C1207.09 38.9232 1204.78 42.4807 1201.52 46.0818C1201.12 46.5651 1200.06 47.7332 1198.35 49.5862C1196.72 51.3426 1195.79 52.4099 1195.56 52.7882C1195.33 53.1664 1194.65 54.0762 1193.53 55.5176C1192.5 56.9507 1191.93 58.0729 1191.83 58.8843C1191.72 59.6075 1191.47 60.7446 1191.08 62.2959C1190.68 63.8471 1190.52 65.4658 1190.59 67.1519C1190.66 68.7497 1190.79 70.6523 1191 72.8599L1180.05 73.8865L1179.97 73.0918C1179.6 69.1182 1179.46 65.8343 1179.57 63.2401C1179.78 60.6376 1180.48 58.0775 1181.67 55.5598C1182.95 52.9454 1184.15 50.8733 1185.26 49.3437C1186.46 47.8056 1188.63 45.1519 1191.78 41.3826C1194.36 38.2898 1196.08 35.5896 1196.93 33.2818C1197.87 30.8774 1198.21 28.2624 1197.94 25.4367C1197.45 20.3152 1195.59 16.3909 1192.37 13.6641C1189.14 10.9372 1185.04 9.80749 1180.05 10.2749C1168.39 11.3683 1162.83 19.0168 1163.37 33.2204L1152.15 34.272ZM1193.25 82.2714L1194.52 95.6493L1180.5 96.9639L1179.22 83.586L1193.25 82.2714Z" fill="black"/>
</svg>
