<svg width="769" height="432" viewBox="0 0 769 432" fill="none" xmlns="http://www.w3.org/2000/svg">
<rect x="67.7762" y="1.73295" width="734.631" height="216.015" transform="rotate(17.6728 67.7762 1.73295)" fill="white" stroke="black" stroke-width="2"/>
<path d="M171.87 100.356L121.879 124.506L144.409 191.142L129.071 186.293L110.838 129.956L91.195 139.392L81.0142 171.099L69 167.3L97.9947 77L110.009 80.7985L95.6338 125.568L156.149 95.3862L171.87 100.356Z" fill="black"/>
<path d="M250.345 125.167L221.35 215.468L209.336 211.669L234.991 131.769L201.377 121.141L183.257 171.433C179.876 180.795 175.5 187.7 170.129 192.149C164.844 196.625 158.878 197.812 152.232 195.711C149.506 194.849 146.799 193.341 144.111 191.188L147.369 181.041C148.461 182.318 150.498 183.428 153.48 184.371C155.951 185.152 158.087 185.222 159.889 184.581C161.803 183.882 163.965 181.678 166.376 177.97C168.872 174.289 171.373 168.839 173.878 161.622L193.213 107.105L250.345 125.167Z" fill="black"/>
<path d="M241.745 221.916L270.739 131.616L282.754 135.414L258.198 211.89L258.453 211.971L327.615 149.598L342.825 154.406L313.83 244.707L301.816 240.908L326.453 164.178L326.198 164.097L256.826 226.684L241.745 221.916Z" fill="black"/>
<path d="M425.989 180.7L422.65 191.099L371.653 174.976L362.572 203.259L410.245 218.331L407.028 228.35L359.355 213.278L349.337 244.477L400.973 260.802L397.633 271.202L333.983 251.078L362.978 160.778L425.989 180.7Z" fill="black"/>
<path d="M513.198 208.272L484.203 298.572L472.189 294.774L485.75 252.541L437.693 237.347L424.132 279.58L412.118 275.782L441.113 185.481L453.127 189.28L441.032 226.947L489.089 242.141L501.184 204.474L513.198 208.272Z" fill="black"/>
<path d="M596.49 234.606L593.151 245.006L562.604 235.348L536.948 315.248L524.934 311.45L550.59 231.549L520.043 221.892L523.382 211.492L596.49 234.606Z" fill="black"/>
<path d="M685.986 262.901L698 266.7L669.005 357L656.991 353.202L685.986 262.901ZM654.208 322.845C651.494 331.3 646.905 337.114 640.443 340.286C634.093 343.401 626.487 343.557 617.625 340.756L577.748 328.148L606.743 237.847L618.757 241.646L606.988 278.299L634.851 287.108C643.798 289.937 649.939 294.486 653.276 300.757C656.64 306.942 656.95 314.305 654.208 322.845ZM642.066 319.006C645.623 307.93 640.755 300.29 627.463 296.088L603.69 288.572L593.102 321.547L616.875 329.063C630.167 333.265 638.564 329.913 642.066 319.006Z" fill="black"/>
</svg>
