<svg width="1539" height="265" viewBox="0 0 1539 265" fill="none" xmlns="http://www.w3.org/2000/svg">
<path d="M75.6171 2.27436V97.5296H63.0143V13.2448H12.6029V97.5296H0V2.27436H75.6171Z" fill="black"/>
<path d="M136.98 0C151.459 0 162.722 4.54871 170.766 13.6461C178.81 22.6543 182.833 34.4721 182.833 49.0993C182.833 63.8157 178.855 75.9456 170.9 85.4889C162.945 95.0323 151.683 99.804 137.114 99.804C129.695 99.804 123.036 98.4661 117.137 95.7904C111.238 93.1147 106.411 89.4133 102.657 84.6862C98.9923 79.9591 96.1767 74.5631 94.2103 68.4982C92.3333 62.4332 91.3948 55.8777 91.3948 48.8317C91.3948 33.9369 95.5064 22.0746 103.73 13.2448C112.042 4.41492 123.125 0 136.98 0ZM136.98 10.9704C126.343 10.9704 118.165 14.7164 112.444 22.2084C106.813 29.6112 103.998 38.7978 103.998 49.7682C103.998 61.7197 106.992 71.2631 112.981 78.3983C119.059 85.4443 127.148 88.9674 137.248 88.9674C147.259 88.9674 155.258 85.3997 161.247 78.2645C167.235 71.1293 170.23 61.6305 170.23 49.7682C170.23 37.9951 167.191 28.5855 161.113 21.5395C155.124 14.4934 147.08 10.9704 136.98 10.9704Z" fill="black"/>
<path d="M274.239 2.27436V97.5296H261.636V13.2448H211.225V97.5296H198.622V2.27436H274.239Z" fill="black"/>
<path d="M293.969 98.693C290.763 98.693 288.091 97.772 285.954 95.93C283.816 93.9911 282.747 91.519 282.747 88.5137C282.747 86.5747 283.476 84.8782 284.933 83.424C286.391 81.8729 288.334 81.0973 290.763 81.0973C292.706 81.0973 294.406 81.8244 295.863 83.2786C297.418 84.7328 298.195 86.8656 298.195 89.677C298.195 90.6465 298.146 91.3736 298.049 91.8583C298.924 91.8583 299.847 91.7613 300.818 91.5675C301.887 91.2766 303.101 90.7434 304.461 89.9678C305.919 89.1923 307.57 88.0774 309.416 86.6232C311.262 85.169 313.4 83.2301 315.828 80.8064C316.411 80.2248 316.8 79.3038 316.994 78.0435C317.189 76.6862 317.286 75.1836 317.286 73.5355C317.286 70.821 317.14 68.4458 316.849 66.41L309.708 11.4416C309.513 10.1813 308.979 9.16334 308.105 8.38777C307.23 7.6122 306.162 6.98205 304.899 6.49732C303.636 6.01259 302.324 5.62481 300.964 5.33397C299.701 5.04313 298.535 4.75229 297.466 4.46145V2.42559C301.158 2.61948 304.801 2.7649 308.396 2.86185C312.088 2.95879 315.78 3.00726 319.472 3.00726C322.192 3.00726 324.912 2.95879 327.633 2.86185C330.353 2.66795 333.122 2.52253 335.939 2.42559V4.46145C333.996 4.75229 332.199 5.09161 330.547 5.47939C328.993 5.86718 327.584 6.44885 326.321 7.22441C325.058 7.99998 324.087 9.06639 323.407 10.4236C322.726 11.6839 322.386 13.332 322.386 15.3679C322.386 15.7557 322.386 16.1919 322.386 16.6766C322.386 17.0644 322.435 17.5007 322.532 17.9854L328.653 66.2645C330.207 64.3256 331.81 62.2413 333.462 60.0115C335.114 57.6848 336.911 55.2127 338.854 52.5952C342.74 47.1662 346.529 42.028 350.221 37.1807C353.913 32.2365 357.216 27.8739 360.131 24.093C363.045 20.3121 365.377 17.2099 367.126 14.7862C368.972 12.3626 369.895 10.9084 369.895 10.4236C369.895 9.84196 369.361 9.26029 368.292 8.67861C367.32 7.99999 366.009 7.41831 364.357 6.93358C362.803 6.3519 361.054 5.86718 359.111 5.47939C357.168 4.99466 355.322 4.65535 353.573 4.46145V2.42559C356.585 2.52253 359.548 2.66795 362.463 2.86185C365.377 2.95879 368.34 3.00726 371.352 3.00726C373.684 3.00726 376.016 2.95879 378.347 2.86185C380.679 2.66795 383.011 2.52253 385.342 2.42559V4.46145C383.982 5.8187 381.748 8.19388 378.639 11.587C375.53 14.8832 371.935 18.8579 367.855 23.5114C363.774 28.1648 359.451 33.3029 354.884 38.9258C350.318 44.4517 345.946 50.0261 341.769 55.649C334.482 65.4405 328.264 73.1962 323.115 78.916C318.063 84.6358 313.691 88.9499 309.999 91.8583C306.405 94.7667 303.344 96.6571 300.818 97.5296C298.389 98.3052 296.106 98.693 293.969 98.693Z" fill="black"/>
<path d="M452.153 2.27436V97.5296H439.551V13.2448H404.289L402.412 66.8927C402.055 76.8821 399.999 84.82 396.245 90.7066C392.58 96.5931 387.262 99.5364 380.29 99.5364C377.43 99.5364 374.391 98.9121 371.173 97.6634V86.9606C372.604 87.8525 374.883 88.2984 378.011 88.2984C380.603 88.2984 382.659 87.7187 384.178 86.5592C385.787 85.3106 387.173 82.5457 388.335 78.2645C389.586 73.9834 390.301 68.0076 390.48 60.3373L392.223 2.27436H452.153Z" fill="black"/>
<path d="M509.479 56.8588L477.972 97.5296H462.419L494.329 56.4575C486.731 55.4764 480.877 52.7115 476.765 48.1628C472.654 43.6141 470.598 37.4153 470.598 29.5666C470.598 20.7367 473.235 14.0029 478.508 9.36498C483.871 4.6379 491.29 2.27436 500.764 2.27436H541.791V97.5296H529.188V56.8588H509.479ZM529.188 46.156V12.9772H505.055C490.575 12.9772 483.335 18.507 483.335 29.5666C483.335 40.6262 490.575 46.156 505.055 46.156H529.188Z" fill="black"/>
<path d="M563.509 2.27436H602.793C612.535 2.27436 620.267 4.50411 625.987 8.96362C631.708 13.334 634.568 20.2462 634.568 29.7004C634.568 48.8763 623.708 58.4643 601.988 58.4643H576.112V97.5296H563.509V2.27436ZM576.112 13.111V47.8952H600.379C607.172 47.8952 612.446 46.6465 616.2 44.1492C620.044 41.5627 621.965 37.014 621.965 30.5031C621.965 26.8463 621.34 23.8138 620.088 21.4057C618.926 18.9975 617.183 17.2137 614.859 16.0543C612.535 14.8948 610.122 14.1367 607.619 13.7799C605.117 13.334 602.122 13.111 598.637 13.111H576.112Z" fill="black"/>
<path d="M725.528 2.27436V97.5296H712.925V52.9791H662.514V97.5296H649.911V2.27436H662.514V42.0086H712.925V2.27436H725.528Z" fill="black"/>
<path d="M829.794 2.27436H842.397V97.5296H829.794V2.27436ZM817.861 69.3009C817.861 78.2199 815.269 85.1768 810.085 90.1714C804.99 95.0769 797.795 97.5296 788.5 97.5296H746.669V2.27436H759.272V40.9384H788.5C797.885 40.9384 805.125 43.4357 810.219 48.4304C815.314 53.3358 817.861 60.2927 817.861 69.3009ZM805.125 69.3009C805.125 57.617 798.153 51.775 784.209 51.775H759.272V86.5592H784.209C798.153 86.5592 805.125 80.8064 805.125 69.3009Z" fill="black"/>
<path d="M929.557 2.27436V13.2448H876.062V43.0789H926.071V53.648H876.062V86.5592H930.227V97.5296H863.459V2.27436H929.557Z" fill="black"/>
<path d="M599.907 167.47L559.685 205.733L601.516 262.726H585.427L550.837 214.295L535.016 229.279V262.726H522.413V167.47H535.016V214.697L583.416 167.47H599.907Z" fill="black"/>
<path d="M649.704 165.196C664.184 165.196 675.446 169.745 683.49 178.842C691.535 187.85 695.557 199.668 695.557 214.295C695.557 229.012 691.579 241.142 683.624 250.685C675.669 260.228 664.407 265 649.838 265C642.419 265 635.76 263.662 629.861 260.986C623.962 258.311 619.135 254.609 615.381 249.882C611.716 245.155 608.901 239.759 606.935 233.694C605.058 227.629 604.119 221.074 604.119 214.028C604.119 199.133 608.231 187.271 616.454 178.441C624.766 169.611 635.85 165.196 649.704 165.196ZM649.704 176.166C639.067 176.166 630.889 179.912 625.169 187.404C619.537 194.807 616.722 203.994 616.722 214.964C616.722 226.916 619.716 236.459 625.705 243.594C631.783 250.64 639.872 254.163 649.972 254.163C659.983 254.163 667.982 250.596 673.971 243.461C679.96 236.325 682.954 226.827 682.954 214.964C682.954 203.191 679.915 193.782 673.837 186.735C667.848 179.689 659.804 176.166 649.704 176.166Z" fill="black"/>
<path d="M711.48 167.47H728.909L759.612 248.143L789.242 167.47H806.806V262.726H794.873V183.257L764.975 262.726H753.981L723.547 183.257V262.726H711.48V167.47Z" fill="black"/>
<path d="M828.27 167.47H845.7L876.402 248.143L906.032 167.47H923.596V262.726H911.664V183.257L881.765 262.726H870.771L840.337 183.257V262.726H828.27V167.47Z" fill="black"/>
<path d="M927.339 261.708C930.351 260.835 933.12 260.011 935.646 259.236C938.172 258.363 940.018 256.763 941.184 254.437C942.058 252.692 943.321 249.589 944.973 245.13C946.721 240.67 948.616 235.629 950.656 230.006C952.697 224.383 954.737 218.518 956.777 212.411C958.914 206.206 960.809 200.535 962.461 195.397C964.209 190.162 965.618 185.751 966.687 182.163C967.853 178.576 968.435 176.541 968.435 176.056C968.435 175.183 967.901 174.456 966.832 173.875C965.764 173.196 964.501 172.614 963.043 172.13C961.683 171.548 960.275 171.112 958.817 170.821C957.36 170.53 956.291 170.336 955.611 170.239V168.203H1021.77C1021.68 170.433 1021.58 172.614 1021.48 174.747C1021.38 176.783 1021.34 178.916 1021.34 181.146C1021.34 183.375 1021.38 185.605 1021.48 187.835C1021.58 189.968 1021.68 192.149 1021.77 194.379H1020.02C1019.05 193.312 1018.13 191.81 1017.26 189.871C1016.38 187.835 1015.6 185.751 1014.92 183.618C1014.24 181.485 1013.61 179.401 1013.03 177.365C1012.54 175.329 1012.15 173.729 1011.86 172.566C1007.2 171.984 1002.59 171.693 998.019 171.693H984.32L969.747 210.666C975.674 210.666 980.288 210.52 983.592 210.229C986.895 209.939 989.615 209.26 991.753 208.194C993.89 207.03 995.687 205.382 997.145 203.249C998.699 201.02 1000.64 198.014 1002.97 194.233H1006.03C1003.22 200.923 1000.54 207.612 998.019 214.301C995.59 220.99 993.356 227.825 991.315 234.805H988.546C988.838 232.091 989.081 229.425 989.275 226.807C989.469 224.19 989.567 221.524 989.567 218.809C989.567 217.161 989.275 215.998 988.692 215.319C988.109 214.543 987.429 214.156 986.652 214.156H968.727L954.445 257.054C956.583 257.248 959.303 257.539 962.606 257.927C966.007 258.315 969.504 258.702 973.099 259.09C976.791 259.381 980.337 259.672 983.737 259.963C987.235 260.254 990.198 260.399 992.627 260.399C996.124 255.746 999.622 251.383 1003.12 247.311C1006.71 243.143 1010.6 239.362 1014.78 235.969L1015.94 237.423C1013.71 241.591 1011.77 245.857 1010.11 250.22C1008.46 254.582 1006.76 258.945 1005.01 263.307C1003.65 263.21 1001.47 263.113 998.456 263.016C995.542 263.016 992.141 262.968 988.255 262.871C984.369 262.871 980.191 262.823 975.722 262.726C971.35 262.726 966.978 262.726 962.606 262.726H946.284C943.175 262.726 940.018 262.774 936.812 262.871C933.606 262.968 930.448 263.113 927.339 263.307V261.708Z" fill="black"/>
<path d="M1106.93 167.47V262.726H1094.33V218.175H1043.91V262.726H1031.31V167.47H1043.91V207.205H1094.33V167.47H1106.93Z" fill="black"/>
<path d="M1194.3 167.47V178.441H1162.26V262.726H1149.66V178.441H1117.61V167.47H1194.3Z" fill="black"/>
<path d="M1232.84 167.47L1270.11 262.726H1256.03L1245.44 233.56H1205.35L1194.49 262.726H1181.08L1218.63 167.47H1232.84ZM1241.69 223.526L1225.46 179.511L1208.97 223.526H1241.69Z" fill="black"/>
<path d="M1280.22 167.47H1319.51C1329.25 167.47 1336.98 169.7 1342.7 174.16C1348.42 178.53 1351.28 185.442 1351.28 194.896C1351.28 214.072 1340.42 223.66 1318.7 223.66H1292.83V262.726H1280.22V167.47ZM1292.83 178.307V213.091H1317.09C1323.89 213.091 1329.16 211.843 1332.91 209.345C1336.76 206.759 1338.68 202.21 1338.68 195.699C1338.68 192.042 1338.05 189.01 1336.8 186.602C1335.64 184.194 1333.9 182.41 1331.57 181.25C1329.25 180.091 1326.84 179.333 1324.33 178.976C1321.83 178.53 1318.84 178.307 1315.35 178.307H1292.83Z" fill="black"/>
<path d="M1366.63 262.726V167.47H1379.23V248.143H1379.5L1426.29 167.47H1442.24V262.726H1429.64V181.785H1429.37L1382.45 262.726H1366.63Z" fill="black"/>
<path d="M1463.38 262.726V167.47H1475.99V248.143H1476.25L1523.05 167.47H1539V262.726H1526.4V181.785H1526.13L1479.2 262.726H1463.38Z" fill="black"/>
<path d="M1183.77 56.7678C1184.74 55.7915 1184.74 54.2085 1183.77 53.2322L1167.86 37.3223C1166.88 36.346 1165.3 36.346 1164.32 37.3223C1163.35 38.2986 1163.35 39.8816 1164.32 40.8579L1178.46 55L1164.32 69.1421C1163.35 70.1184 1163.35 71.7014 1164.32 72.6777C1165.3 73.654 1166.88 73.654 1167.86 72.6777L1183.77 56.7678ZM1074 57.5L1182 57.5V52.5L1074 52.5V57.5Z" fill="black"/>
</svg>
