<svg width="1541" height="268" viewBox="0 0 1541 268" fill="none" xmlns="http://www.w3.org/2000/svg">
<path d="M77.4962 2.26444L37.2732 40.3602L79.1051 97.1043H63.0159L28.4242 48.8852L12.6032 63.8038V97.1043H0V2.26444H12.6032V49.2848L61.0048 2.26444H77.4962Z" fill="black"/>
<path d="M129.517 2.26444L166.79 97.1043H152.712L142.12 68.0663H102.031L91.1709 97.1043H77.7633L115.305 2.26444H129.517ZM138.366 58.0761L122.143 14.2526L105.651 58.0761H138.366Z" fill="black"/>
<path d="M253.864 2.26444L213.641 40.3602L255.473 97.1043H239.384L204.792 48.8852L188.971 63.8038V97.1043H176.368V2.26444H188.971V49.2848L237.373 2.26444H253.864Z" fill="black"/>
<path d="M330.557 100C325.991 100 321.813 99.2278 318.024 97.6834C314.332 96.1391 311.174 93.9673 308.551 91.1681C305.928 88.369 303.888 85.0872 302.43 81.3228C301.07 77.5584 300.39 73.4078 300.39 68.8713C300.39 60.2807 302.139 51.8832 305.636 43.6787C309.134 35.3777 313.895 28.0419 319.918 21.6714C325.942 15.2043 332.937 9.99209 340.904 6.03464C348.968 2.07718 357.518 0.0984555 366.554 0.0984555C369.663 0.0984555 372.82 0.484546 376.026 1.25673C379.233 2.02892 382.196 3.09067 384.916 4.442C383.75 9.07512 382.682 13.7082 381.71 18.3413C380.739 22.9745 379.816 27.6076 378.941 32.2407H377.484C377.29 28.8624 376.852 25.4841 376.172 22.1058C375.589 18.7274 374.521 15.687 372.966 12.9843C371.509 10.2817 369.517 8.10988 366.991 6.46898C364.465 4.73157 361.21 3.86286 357.227 3.86286C352.855 3.86286 348.725 4.87635 344.839 6.90334C340.953 8.93033 337.407 11.633 334.2 15.0113C330.994 18.3896 328.128 22.2505 325.602 26.5941C323.173 30.9376 321.084 35.426 319.335 40.0591C317.684 44.6922 316.372 49.277 315.401 53.8136C314.526 58.3502 314.089 62.5007 314.089 66.2651C314.089 69.933 314.478 73.4079 315.255 76.6896C316.129 79.8749 317.441 82.7223 319.19 85.2319C320.939 87.645 323.222 89.5755 326.039 91.0233C328.954 92.3747 332.452 93.0503 336.532 93.0503C340.807 93.0503 344.791 92.2299 348.483 90.589C352.174 88.9481 355.575 86.8246 358.684 84.2185C361.89 81.6123 364.805 78.7166 367.428 75.5314C370.051 72.2496 372.432 68.9678 374.569 65.686L376.464 66.9891C374.423 70.9465 371.752 74.904 368.448 78.8614C365.145 82.7223 361.453 86.2454 357.372 89.4307C353.389 92.5194 349.065 95.0773 344.402 97.1043C339.836 99.0348 335.221 100 330.557 100Z" fill="black"/>
<path d="M399.28 2.26444H440.04C448.799 2.26444 456.039 4.17367 461.76 7.99212C467.57 11.8106 470.475 17.8047 470.475 25.9744C470.475 30.6809 469.179 34.8989 466.587 38.6286C464.084 42.2695 460.687 44.8447 456.397 46.3543C462.296 47.6863 466.81 50.4392 469.939 54.6128C473.157 58.7865 474.765 64.0258 474.765 70.3307C474.765 88.1798 462.699 97.1043 438.565 97.1043H399.28V2.26444ZM411.615 12.9206V42.8911H434.274C436.866 42.8911 439.056 42.8467 440.844 42.7579C442.721 42.5803 444.822 42.2251 447.146 41.6922C449.47 41.1594 451.302 40.4046 452.643 39.4278C454.073 38.3622 455.28 36.8526 456.263 34.8989C457.335 32.9453 457.872 30.5921 457.872 27.8392C457.872 25.0864 457.425 22.7776 456.531 20.9127C455.637 18.9591 454.565 17.4939 453.313 16.5171C452.062 15.4514 450.319 14.6522 448.084 14.1194C445.939 13.5866 443.973 13.2758 442.185 13.187C440.487 13.0094 438.252 12.9206 435.481 12.9206H411.615ZM411.615 52.748V86.5813H436.822C439.95 86.5813 442.498 86.5369 444.464 86.4481C446.431 86.2705 448.621 85.8709 451.034 85.2493C453.537 84.6277 455.503 83.7397 456.933 82.5853C458.363 81.3421 459.57 79.6104 460.553 77.3904C461.537 75.0816 462.028 72.3287 462.028 69.1319C462.028 66.4678 461.671 64.159 460.956 62.2054C460.33 60.2517 459.213 58.6977 457.604 57.5433C456.084 56.3889 454.609 55.4565 453.179 54.746C451.838 54.0356 449.872 53.5472 447.28 53.2808C444.688 53.0144 442.676 52.8812 441.246 52.8812C439.816 52.7924 437.626 52.748 434.677 52.748H411.615Z" fill="black"/>
<path d="M526.998 56.6109L495.49 97.1043H479.937L511.847 56.2113C504.249 55.2345 498.395 52.4816 494.283 47.9527C490.171 43.4239 488.115 37.2522 488.115 29.4377C488.115 20.6463 490.752 13.9418 496.026 9.32414C501.389 4.61767 508.808 2.26444 518.283 2.26444H559.31V97.1043H546.707V56.6109H526.998ZM546.707 45.9547V12.9206H522.573C508.093 12.9206 500.853 18.4263 500.853 29.4377C500.853 40.449 508.093 45.9547 522.573 45.9547H546.707Z" fill="black"/>
<path d="M651.554 69.3983C651.554 72.5063 650.838 75.7476 649.408 79.122C647.978 82.4077 645.878 85.6045 643.107 88.7126C640.336 91.8206 636.448 94.3515 631.442 96.3051C626.437 98.2587 620.761 99.2355 614.414 99.2355C602.437 99.2355 592.828 96.4383 585.588 90.8438C578.437 85.1605 574.862 76.8132 574.862 65.8018H587.063C587.331 73.8827 590.057 79.788 595.241 83.5177C600.426 87.1585 607.174 88.979 615.487 88.979C622.191 88.979 627.777 87.1585 632.247 83.5177C636.716 79.8768 638.95 75.0816 638.95 69.1319C638.95 65.8462 638.325 63.049 637.073 60.7401C635.822 58.4313 633.99 56.6997 631.576 55.5453C629.163 54.3908 626.615 53.5916 623.934 53.1476C621.342 52.7036 618.303 52.4816 614.817 52.4816C611.778 52.4816 608.917 52.5704 606.236 52.748V42.3583C607.666 42.5359 610.526 42.6247 614.817 42.6247C628.671 42.6247 635.598 36.9414 635.598 25.5748C635.598 15.4514 628.761 10.3898 615.085 10.3898C600.604 10.3898 592.694 16.8279 591.353 29.7041H579.152C579.51 19.9359 582.996 12.5654 589.61 7.59251C596.225 2.53084 604.85 0 615.487 0C625.23 0 633.096 2.13123 639.084 6.3937C645.163 10.6562 648.202 17.0499 648.202 25.5748C648.202 30.3701 646.637 34.7213 643.509 38.6286C640.38 42.4471 636.671 44.9779 632.381 46.2211V46.6207C638.459 47.7751 643.151 50.4836 646.459 54.746C649.855 59.0085 651.554 63.8926 651.554 69.3983Z" fill="black"/>
<path d="M707.522 2.26444L744.795 97.1043H730.717L720.125 68.0663H680.036L669.176 97.1043H655.769L693.31 2.26444H707.522ZM716.371 58.0761L700.148 14.2526L683.656 58.0761H716.371Z" fill="black"/>
<path d="M808.299 2.26444V13.187H776.255V97.1043H763.652V13.187H731.608V2.26444H808.299Z" fill="black"/>
<path d="M890.249 68.9987C890.249 77.8788 887.657 84.8053 882.473 89.7782C877.378 94.6623 870.183 97.1043 860.887 97.1043H819.055V2.26444H831.658V40.7598H860.887C870.272 40.7598 877.512 43.2463 882.607 48.2191C887.702 53.1032 890.249 60.0297 890.249 68.9987ZM877.512 68.9987C877.512 57.3657 870.54 51.5492 856.596 51.5492H831.658V86.1817H856.596C870.54 86.1817 877.512 80.454 877.512 68.9987Z" fill="black"/>
<path d="M986.843 61.2729C985.77 73.2611 981.569 82.6297 974.24 89.3786C967 96.0387 957.436 99.3687 945.547 99.3687C931.961 99.3687 921.19 94.9287 913.235 86.0485C905.28 77.0796 901.302 65.0026 901.302 49.8176C901.302 35.6093 905.28 23.7988 913.235 14.3858C921.28 4.88407 932.363 0.1332 946.486 0.1332C956.586 0.1332 965.48 2.84164 973.167 8.25852C980.854 13.6754 985.145 21.1791 986.039 30.7697H973.435C972.005 24.5536 968.877 19.7139 964.05 16.2506C959.223 12.6986 953.279 10.9226 946.218 10.9226C935.581 10.9226 927.537 14.6522 922.084 22.1115C916.721 29.5709 914.04 38.7618 914.04 49.6844C914.04 61.7614 916.9 71.2631 922.62 78.1896C928.341 85.1161 936.162 88.5794 946.084 88.5794C954.218 88.5794 960.698 86.2705 965.525 81.6529C970.352 76.9464 973.257 70.1531 974.24 61.2729H986.843Z" fill="black"/>
<path d="M1038.69 56.6109L1007.18 97.1043H991.627L1023.54 56.2113C1015.94 55.2345 1010.08 52.4816 1005.97 47.9527C1001.86 43.4239 999.805 37.2522 999.805 29.4377C999.805 20.6463 1002.44 13.9418 1007.72 9.32414C1013.08 4.61767 1020.5 2.26444 1029.97 2.26444H1071V97.1043H1058.4V56.6109H1038.69ZM1058.4 45.9547V12.9206H1034.26C1019.78 12.9206 1012.54 18.4263 1012.54 29.4377C1012.54 40.449 1019.78 45.9547 1034.26 45.9547H1058.4Z" fill="black"/>
<path d="M1026.59 229.611C1025.51 241.691 1021.31 251.132 1013.98 257.933C1006.73 264.644 997.164 268 985.269 268C971.675 268 960.899 263.526 952.939 254.577C944.98 245.539 941 233.369 941 218.067C941 203.749 944.98 191.848 952.939 182.362C960.988 172.787 972.078 168 986.208 168C996.314 168 1005.21 170.729 1012.9 176.188C1020.59 181.647 1024.89 189.208 1025.78 198.872H1013.17C1011.74 192.609 1008.61 187.732 1003.78 184.242C998.952 180.662 993.005 178.872 985.94 178.872C975.297 178.872 967.248 182.631 961.793 190.148C956.427 197.664 953.744 206.926 953.744 217.933C953.744 230.103 956.606 239.678 962.33 246.658C968.053 253.638 975.879 257.128 985.806 257.128C993.944 257.128 1000.43 254.801 1005.26 250.148C1010.09 245.405 1012.99 238.559 1013.98 229.611H1026.59Z" fill="black"/>
<path d="M1061.52 263.967C1064.24 263.481 1066.43 263.043 1068.08 262.654C1069.73 262.265 1071.04 261.779 1072.02 261.195C1073.09 260.612 1073.96 259.833 1074.64 258.861C1075.32 257.791 1076 256.381 1076.68 254.63C1077.17 253.56 1078.14 251.079 1079.6 247.189C1081.06 243.201 1082.76 238.532 1084.7 233.182C1086.65 227.735 1088.69 221.997 1090.83 215.966C1092.97 209.838 1094.91 204.148 1096.66 198.896C1098.41 193.546 1099.87 188.975 1101.03 185.181C1102.2 181.388 1102.78 179.053 1102.78 178.178C1102.78 176.233 1101.71 174.92 1099.58 174.239C1097.44 173.558 1094.76 172.926 1091.56 172.342V170.299C1094.86 170.494 1098.12 170.64 1101.33 170.737C1104.63 170.834 1107.94 170.883 1111.24 170.883C1114.74 170.883 1118.19 170.834 1121.59 170.737C1125.09 170.64 1128.59 170.494 1132.09 170.299V172.342C1129.86 172.634 1127.86 173.023 1126.11 173.509C1124.46 173.898 1122.95 174.53 1121.59 175.406C1120.33 176.281 1119.16 177.449 1118.09 178.908C1117.02 180.269 1116.05 182.02 1115.18 184.16C1113.04 189.412 1111 194.665 1109.05 199.917C1107.11 205.072 1105.31 210.276 1103.66 215.528H1145.07C1145.36 214.653 1145.85 213.194 1146.53 211.151C1147.21 209.109 1147.99 206.872 1148.86 204.44C1149.83 201.911 1150.8 199.285 1151.78 196.561C1152.75 193.741 1153.62 191.163 1154.4 188.829C1155.18 186.397 1155.81 184.306 1156.3 182.555C1156.88 180.707 1157.17 179.442 1157.17 178.762C1157.17 177.497 1156.73 176.476 1155.86 175.698C1154.98 174.92 1153.92 174.336 1152.65 173.947C1151.49 173.461 1150.22 173.12 1148.86 172.926C1147.6 172.731 1146.48 172.537 1145.51 172.342V170.299C1149.01 170.494 1152.51 170.64 1156.01 170.737C1159.51 170.834 1163 170.883 1166.5 170.883C1169.81 170.883 1173.11 170.834 1176.42 170.737C1179.72 170.543 1183.03 170.397 1186.33 170.299V172.342C1183.81 172.731 1181.57 173.315 1179.63 174.093C1177.68 174.774 1175.59 175.844 1173.36 177.303C1172.87 177.692 1172.05 179.102 1170.88 181.534C1169.81 183.965 1168.55 187.078 1167.09 190.871C1165.63 194.567 1164.03 198.75 1162.28 203.419C1160.62 208.088 1158.92 212.854 1157.17 217.717C1155.42 222.483 1153.77 227.2 1152.21 231.869C1150.66 236.441 1149.25 240.623 1147.99 244.417C1146.82 248.113 1145.85 251.177 1145.07 253.608C1144.39 255.943 1144.05 257.305 1144.05 257.694C1144.05 258.764 1144.58 259.736 1145.65 260.612C1146.82 261.39 1148.13 262.071 1149.59 262.654C1151.05 263.141 1152.51 263.53 1153.96 263.821C1155.42 264.113 1156.54 264.259 1157.32 264.259V266.302C1154.11 266.107 1150.9 265.961 1147.69 265.864C1144.58 265.767 1141.42 265.718 1138.22 265.718C1134.52 265.718 1130.78 265.767 1126.99 265.864C1123.2 265.961 1119.45 266.107 1115.76 266.302V264.259C1118.58 263.87 1120.82 263.481 1122.47 263.092C1124.22 262.606 1125.68 261.876 1126.84 260.903C1128.01 259.833 1129.03 258.423 1129.9 256.672C1130.78 254.824 1131.8 252.344 1132.97 249.231L1143.61 219.614H1102.35C1101.96 220.684 1101.37 222.337 1100.6 224.574C1099.92 226.714 1099.09 229.146 1098.12 231.869C1097.15 234.495 1096.12 237.268 1095.06 240.186C1094.08 243.104 1093.16 245.827 1092.28 248.356C1091.41 250.885 1090.68 253.122 1090.1 255.067C1089.61 256.915 1089.37 258.18 1089.37 258.861C1089.37 259.736 1089.81 260.514 1090.68 261.195C1091.65 261.876 1092.72 262.46 1093.89 262.946C1095.06 263.335 1096.22 263.676 1097.39 263.967C1098.55 264.162 1099.43 264.259 1100.01 264.259V266.302C1096.9 266.107 1093.74 265.961 1090.54 265.864C1087.33 265.767 1084.17 265.718 1081.06 265.718C1077.85 265.718 1074.59 265.767 1071.29 265.864C1068.08 265.961 1064.82 266.107 1061.52 266.302V263.967Z" fill="black"/>
<path d="M1225.19 170.148L1262.48 265.718H1248.39L1237.8 236.456H1197.68L1186.82 265.718H1173.4L1210.97 170.148H1225.19ZM1234.04 226.389L1217.81 182.228L1201.31 226.389H1234.04Z" fill="black"/>
<path d="M1272.2 170.148H1289.64L1320.36 251.087L1350 170.148H1367.58V265.718H1355.64V185.987L1325.72 265.718H1314.72L1284.27 185.987V265.718H1272.2V170.148Z" fill="black"/>
<path d="M1388.92 265.718V170.148H1401.53V251.087H1401.8L1448.61 170.148H1464.58V265.718H1451.97V184.51H1451.7L1404.75 265.718H1388.92Z" fill="black"/>
<path d="M1482.51 200.081C1482.51 190.774 1485.06 183.168 1490.16 177.262C1495.34 171.356 1502.86 168.403 1512.69 168.403C1521.28 168.403 1528.12 170.729 1533.22 175.383C1538.41 180.036 1541 186.3 1541 194.174C1541 198.917 1540.15 203.034 1538.45 206.523C1536.75 209.924 1534.11 213.28 1530.54 216.591C1530.09 217.038 1528.93 218.112 1527.05 219.812C1525.26 221.423 1524.23 222.407 1523.96 222.765C1523.69 223.123 1522.93 223.973 1521.68 225.315C1520.52 226.658 1519.85 227.732 1519.67 228.537C1519.49 229.253 1519.13 230.371 1518.6 231.893C1518.06 233.414 1517.75 235.025 1517.66 236.725C1517.57 238.336 1517.52 240.26 1517.52 242.497H1506.52V241.691C1506.52 237.664 1506.7 234.353 1507.06 231.758C1507.51 229.163 1508.45 226.658 1509.88 224.242C1511.4 221.736 1512.78 219.767 1514.04 218.336C1515.38 216.904 1517.79 214.443 1521.28 210.953C1524.14 208.089 1526.11 205.539 1527.18 203.302C1528.35 200.975 1528.93 198.38 1528.93 195.517C1528.93 190.327 1527.45 186.21 1524.5 183.168C1521.55 180.125 1517.57 178.604 1512.56 178.604C1500.84 178.604 1494.58 185.763 1493.78 200.081H1482.51ZM1518.87 252.161V265.718H1504.78V252.161H1518.87Z" fill="black"/>
<path d="M866.768 221.768C867.744 220.791 867.744 219.209 866.768 218.232L850.858 202.322C849.882 201.346 848.299 201.346 847.322 202.322C846.346 203.299 846.346 204.882 847.322 205.858L861.464 220L847.322 234.142C846.346 235.118 846.346 236.701 847.322 237.678C848.299 238.654 849.882 238.654 850.858 237.678L866.768 221.768ZM757 222.5H865V217.5H757V222.5Z" fill="black"/>
<path d="M683.768 221.768C684.744 220.791 684.744 219.209 683.768 218.232L667.858 202.322C666.882 201.346 665.299 201.346 664.322 202.322C663.346 203.299 663.346 204.882 664.322 205.858L678.464 220L664.322 234.142C663.346 235.118 663.346 236.701 664.322 237.678C665.299 238.654 666.882 238.654 667.858 237.678L683.768 221.768ZM574 222.5H682V217.5H574V222.5Z" fill="black"/>
</svg>
