<svg width="1537" height="265" viewBox="0 0 1537 265" fill="none" xmlns="http://www.w3.org/2000/svg">
<path d="M77.5055 2.27436L37.2778 40.537L79.1147 97.5296H63.0235L28.4276 49.0993L12.6047 64.0833V97.5296H0V2.27436H12.6047V49.5006L61.0122 2.27436H77.5055Z" fill="black"/>
<path d="M127.309 0C141.791 0 153.055 4.54871 161.101 13.6461C169.146 22.6543 173.169 34.4721 173.169 49.0993C173.169 63.8157 169.191 75.9456 161.235 85.4889C153.279 95.0323 142.015 99.804 127.444 99.804C120.024 99.804 113.364 98.4661 107.464 95.7904C101.564 93.1147 96.7363 89.4133 92.9817 84.6862C89.3165 79.9591 86.5006 74.5631 84.5339 68.4982C82.6566 62.4332 81.7179 55.8777 81.7179 48.8317C81.7179 33.9369 85.8301 22.0746 94.0545 13.2448C102.368 4.41492 113.453 0 127.309 0ZM127.309 10.9704C116.671 10.9704 108.492 14.7164 102.77 22.2084C97.1386 29.6112 94.3226 38.7978 94.3226 49.7682C94.3226 61.7197 97.3174 71.2631 103.307 78.3983C109.386 85.4443 117.476 88.9674 127.578 88.9674C137.59 88.9674 145.591 85.3997 151.58 78.2645C157.57 71.1293 160.564 61.6305 160.564 49.7682C160.564 37.9951 157.525 28.5855 151.446 21.5395C145.457 14.4934 137.411 10.9704 127.309 10.9704Z" fill="black"/>
<path d="M264.589 2.27436V97.5296H251.984V52.9791H201.565V97.5296H188.961V2.27436H201.565V42.0086H251.984V2.27436H264.589Z" fill="black"/>
<path d="M366.59 61.5413C365.518 73.582 361.316 82.9916 353.986 89.7701C346.745 96.4593 337.179 99.804 325.29 99.804C311.702 99.804 300.93 95.3445 292.974 86.4254C285.017 77.4172 281.039 65.2873 281.039 50.0358C281.039 35.7653 285.017 23.903 292.974 14.4488C301.019 4.90547 312.104 0.133784 326.229 0.133784C336.33 0.133784 345.225 2.85409 352.913 8.2947C360.601 13.7353 364.892 21.2719 365.786 30.9044H353.181C351.751 24.6611 348.622 19.8003 343.795 16.3218C338.967 12.7542 333.023 10.9704 325.96 10.9704C315.322 10.9704 307.277 14.7164 301.824 22.2084C296.46 29.7004 293.778 38.9316 293.778 49.902C293.778 62.0319 296.639 71.5752 302.36 78.5321C308.081 85.4889 315.903 88.9674 325.826 88.9674C333.961 88.9674 340.442 86.6484 345.27 82.0105C350.097 77.2834 353.002 70.4604 353.986 61.5413H366.59Z" fill="black"/>
<path d="M446.389 2.27436V13.2448H414.341V97.5296H401.736V13.2448H369.688V2.27436H446.389Z" fill="black"/>
<path d="M457.682 2.27436H496.971C506.715 2.27436 514.448 4.50411 520.169 8.96362C525.891 13.334 528.751 20.2462 528.751 29.7004C528.751 48.8763 517.89 58.4643 496.167 58.4643H470.287V97.5296H457.682V2.27436ZM470.287 13.111V47.8952H494.558C501.352 47.8952 506.626 46.6465 510.381 44.1492C514.225 41.5627 516.147 37.014 516.147 30.5031C516.147 26.8463 515.521 23.8138 514.269 21.4057C513.107 18.9975 511.364 17.2137 509.04 16.0543C506.715 14.8948 504.302 14.1367 501.799 13.7799C499.296 13.334 496.301 13.111 492.815 13.111H470.287Z" fill="black"/>
<path d="M568.233 72.6455L533.369 2.27436H547.181L575.072 60.3373L602.427 2.27436H615.97L578.827 78.1307C574.983 85.9795 571.004 91.5539 566.892 94.8539C562.87 98.154 558.4 99.804 553.483 99.804C549.192 99.804 545.259 99.0013 541.683 97.3958V86.693C544.275 88.2984 547.851 89.1011 552.41 89.1011C557.685 89.1011 562.423 84.7308 566.624 75.9902L568.233 72.6455Z" fill="black"/>
<path d="M703.577 2.27436L663.349 40.537L705.186 97.5296H689.095L654.499 49.0993L638.676 64.0833V97.5296H626.071V2.27436H638.676V49.5006L687.083 2.27436H703.577Z" fill="black"/>
<path d="M781.752 2.27436V13.2448H749.704V97.5296H737.099V13.2448H705.051V2.27436H781.752Z" fill="black"/>
<path d="M813.106 100.438C808.831 100.438 805.138 99.7109 802.029 98.2567C799.017 96.8995 796.539 94.9606 794.596 92.44C792.652 89.9194 791.195 86.9625 790.223 83.5694C789.251 80.1763 788.765 76.4439 788.765 72.3721C788.765 67.4279 789.494 62.1928 790.952 56.6669C792.506 51.141 794.644 45.712 797.365 40.38C800.086 35.0479 803.341 29.9583 807.13 25.111C810.92 20.1667 815.05 15.8526 819.519 12.1687C824.086 8.48472 828.945 5.57634 834.095 3.44352C839.245 1.21377 844.54 0.0988868 849.982 0.0988868C854.16 0.0988868 857.804 0.825981 860.913 2.28017C864.023 3.63741 866.549 5.57633 868.492 8.09693C870.436 10.6175 871.893 13.5744 872.865 16.9675C873.837 20.3606 874.322 24.093 874.322 28.1648C874.322 33.109 873.545 38.3441 871.99 43.87C870.533 49.3959 868.444 54.8249 865.723 60.1569C863.002 65.489 859.747 70.6271 855.958 75.5714C852.168 80.4187 847.99 84.6843 843.423 88.3682C838.953 92.0522 834.143 95.009 828.993 97.2388C823.843 99.3716 818.548 100.438 813.106 100.438ZM818.936 95.7846C823.309 95.7846 827.39 94.4758 831.18 91.8583C834.969 89.1438 838.37 85.6537 841.382 81.3881C844.492 77.1225 847.212 72.3721 849.544 67.1371C851.974 61.805 854.014 56.5215 855.666 51.2864C857.318 45.9543 858.532 40.9616 859.31 36.3082C860.184 31.5579 860.622 27.68 860.622 24.6747C860.622 21.8633 860.33 19.1972 859.747 16.6766C859.261 14.1561 858.387 11.9748 857.124 10.1328C855.86 8.19388 854.111 6.69121 851.876 5.62481C849.739 4.46145 847.018 3.87978 843.714 3.87978C839.439 3.87978 835.406 5.23702 831.617 7.95151C827.924 10.5691 824.523 14.0106 821.414 18.2763C818.402 22.5419 815.681 27.3407 813.252 32.6727C810.92 37.9078 808.928 43.1914 807.276 48.5234C805.721 53.7585 804.507 58.7512 803.632 63.5016C802.855 68.155 802.466 71.9844 802.466 74.9897C802.466 77.8011 802.709 80.4671 803.195 82.9877C803.778 85.5083 804.653 87.7381 805.819 89.677C807.082 91.519 808.782 93.0216 810.92 94.185C813.058 95.2514 815.73 95.7846 818.936 95.7846Z" fill="black"/>
<path d="M887.556 2.27436H926.846C936.59 2.27436 944.322 4.50411 950.044 8.96362C955.765 13.334 958.625 20.2462 958.625 29.7004C958.625 48.8763 947.764 58.4643 926.041 58.4643H900.161V97.5296H887.556V2.27436ZM900.161 13.111V47.8952H924.432C931.226 47.8952 936.5 46.6465 940.255 44.1492C944.099 41.5627 946.021 37.014 946.021 30.5031C946.021 26.8463 945.395 23.8138 944.143 21.4057C942.981 18.9975 941.238 17.2137 938.914 16.0543C936.59 14.8948 934.176 14.1367 931.673 13.7799C929.17 13.334 926.175 13.111 922.689 13.111H900.161Z" fill="black"/>
<path d="M896.684 167.47V262.726H884.079V218.175H833.66V262.726H821.055V167.47H833.66V207.205H884.079V167.47H896.684Z" fill="black"/>
<path d="M958.055 165.196C972.537 165.196 983.801 169.745 991.846 178.842C999.892 187.85 1003.91 199.668 1003.91 214.295C1003.91 229.012 999.937 241.142 991.981 250.685C984.025 260.228 972.761 265 958.189 265C950.769 265 944.11 263.662 938.209 260.986C932.309 258.311 927.482 254.609 923.727 249.882C920.062 245.155 917.246 239.759 915.28 233.694C913.402 227.629 912.464 221.074 912.464 214.028C912.464 199.133 916.576 187.271 924.8 178.441C933.114 169.611 944.199 165.196 958.055 165.196ZM958.055 176.166C947.417 176.166 939.238 179.912 933.516 187.404C927.884 194.807 925.068 203.994 925.068 214.964C925.068 226.916 928.063 236.459 934.053 243.594C940.131 250.64 948.222 254.163 958.323 254.163C968.336 254.163 976.336 250.596 982.326 243.461C988.315 236.325 991.31 226.827 991.31 214.964C991.31 203.191 988.271 193.782 982.192 186.735C976.202 179.689 968.157 176.166 958.055 176.166Z" fill="black"/>
<path d="M1003.87 261.271C1006.3 260.787 1008.29 260.35 1009.84 259.963C1011.49 259.478 1012.81 258.945 1013.78 258.363C1014.85 257.684 1015.72 256.812 1016.4 255.746C1017.08 254.582 1017.76 253.08 1018.44 251.238C1019.12 249.589 1020.19 246.681 1021.65 242.512C1023.2 238.247 1024.95 233.448 1026.89 228.116C1028.84 222.784 1030.83 217.209 1032.87 211.393C1034.91 205.479 1036.76 200.002 1038.41 194.96C1040.16 189.919 1041.57 185.654 1042.64 182.163C1043.8 178.576 1044.39 176.444 1044.39 175.765C1044.39 174.602 1043.9 173.681 1042.93 173.002C1042.05 172.323 1040.98 171.79 1039.72 171.402C1038.46 171.015 1037.15 170.772 1035.79 170.675C1034.52 170.482 1033.5 170.336 1032.72 170.239L1033.02 168.203C1038.36 168.203 1043.46 168.106 1048.32 167.912C1053.18 167.719 1058.72 167.622 1064.94 167.622C1068.34 167.622 1071.54 168.009 1074.56 168.785C1077.67 169.561 1080.39 170.772 1082.72 172.42C1085.05 174.068 1086.9 176.201 1088.26 178.819C1089.62 181.436 1090.3 184.539 1090.3 188.126C1090.3 191.422 1089.71 194.233 1088.55 196.56C1087.38 198.79 1085.73 200.729 1083.59 202.377C1081.55 203.928 1079.07 205.237 1076.16 206.303C1073.24 207.369 1070.09 208.29 1066.69 209.066V209.502C1073.1 210.084 1078.2 212.023 1081.99 215.319C1085.78 218.615 1087.67 223.608 1087.67 230.297C1087.67 236.017 1086.31 240.961 1083.59 245.13C1080.87 249.202 1077.47 252.595 1073.39 255.309C1069.31 258.024 1064.84 260.06 1059.98 261.417C1055.22 262.677 1050.75 263.307 1046.57 263.307C1041.32 263.307 1036.95 263.21 1033.45 263.016C1029.96 262.823 1026.55 262.726 1023.25 262.726C1019.95 262.726 1016.64 262.726 1013.34 262.726C1010.13 262.823 1006.88 263.016 1003.57 263.307L1003.87 261.271ZM1044.97 260.399C1048.95 260.399 1052.69 259.623 1056.19 258.072C1059.79 256.424 1062.9 254.194 1065.52 251.383C1068.14 248.572 1070.18 245.324 1071.64 241.64C1073.2 237.859 1073.97 233.787 1073.97 229.425C1073.97 225.741 1073.24 222.735 1071.79 220.409C1070.43 217.985 1068.48 216.095 1065.96 214.737C1063.53 213.283 1060.56 212.314 1057.07 211.829C1053.66 211.247 1049.88 210.956 1045.7 210.956L1030.68 255.746C1034.09 258.848 1038.85 260.399 1044.97 260.399ZM1046.43 208.048C1051.09 208.048 1055.37 207.757 1059.25 207.176C1063.14 206.594 1066.44 205.382 1069.16 203.54C1071.98 201.601 1074.17 198.935 1075.72 195.542C1077.28 192.149 1078.05 187.592 1078.05 181.873C1078.05 178.673 1076.89 176.007 1074.56 173.875C1072.22 171.645 1068.87 170.53 1064.5 170.53C1064.11 170.53 1063.38 170.627 1062.31 170.821C1061.24 170.918 1060.37 171.112 1059.69 171.402L1046.43 208.048Z" fill="black"/>
<path d="M1146.33 165.196C1160.81 165.196 1172.08 169.745 1180.12 178.842C1188.17 187.85 1192.19 199.668 1192.19 214.295C1192.19 229.012 1188.21 241.142 1180.26 250.685C1172.3 260.228 1161.04 265 1146.47 265C1139.05 265 1132.39 263.662 1126.49 260.986C1120.59 258.311 1115.76 254.609 1112 249.882C1108.34 245.155 1105.52 239.759 1103.56 233.694C1101.68 227.629 1100.74 221.074 1100.74 214.028C1100.74 199.133 1104.85 187.271 1113.08 178.441C1121.39 169.611 1132.48 165.196 1146.33 165.196ZM1146.33 176.166C1135.69 176.166 1127.51 179.912 1121.79 187.404C1116.16 194.807 1113.35 203.994 1113.35 214.964C1113.35 226.916 1116.34 236.459 1122.33 243.594C1128.41 250.64 1136.5 254.163 1146.6 254.163C1156.61 254.163 1164.61 250.596 1170.6 243.461C1176.59 236.325 1179.59 226.827 1179.59 214.964C1179.59 203.191 1176.55 193.782 1170.47 186.735C1164.48 179.689 1156.43 176.166 1146.33 176.166Z" fill="black"/>
<path d="M1288.84 226.737C1287.77 238.778 1283.57 248.188 1276.24 254.966C1269 261.655 1259.43 265 1247.54 265C1233.95 265 1223.18 260.54 1215.22 251.621C1207.27 242.613 1203.29 230.483 1203.29 215.232C1203.29 200.961 1207.27 189.099 1215.22 179.645C1223.27 170.101 1234.36 165.33 1248.48 165.33C1258.58 165.33 1267.48 168.05 1275.16 173.491C1282.85 178.931 1287.14 186.468 1288.04 196.1H1275.43C1274 189.857 1270.87 184.996 1266.05 181.518C1261.22 177.95 1255.27 176.166 1248.21 176.166C1237.57 176.166 1229.53 179.912 1224.07 187.404C1218.71 194.896 1216.03 204.128 1216.03 215.098C1216.03 227.228 1218.89 236.771 1224.61 243.728C1230.33 250.685 1238.15 254.163 1248.08 254.163C1256.21 254.163 1262.69 251.844 1267.52 247.207C1272.35 242.479 1275.25 235.656 1276.24 226.737H1288.84Z" fill="black"/>
<path d="M1368.64 167.47V178.441H1336.59V262.726H1323.99V178.441H1291.94V167.47H1368.64Z" fill="black"/>
<path d="M1445.5 167.47V178.441H1392V208.275H1442.02V218.844H1392V251.755H1446.18V262.726H1379.4V167.47H1445.5Z" fill="black"/>
<path d="M1519.3 142.452C1518.41 148.071 1516.22 152.576 1512.73 155.965C1509.33 159.265 1504.82 160.915 1499.19 160.915C1493.73 160.915 1489.13 159.22 1485.37 155.831C1481.71 152.353 1479.52 147.893 1478.8 142.452H1485.64C1487.7 149.409 1492.17 152.888 1499.05 152.888C1505.67 152.888 1510.14 149.409 1512.46 142.452H1519.3ZM1461.37 262.726V167.47H1473.98V248.143H1474.24L1521.04 167.47H1537V262.726H1524.4V181.785H1524.13L1477.19 262.726H1461.37Z" fill="black"/>
<path d="M1196.77 53.7678C1197.74 52.7915 1197.74 51.2085 1196.77 50.2322L1180.86 34.3223C1179.88 33.346 1178.3 33.346 1177.32 34.3223C1176.35 35.2986 1176.35 36.8816 1177.32 37.8579L1191.46 52L1177.32 66.1421C1176.35 67.1184 1176.35 68.7014 1177.32 69.6777C1178.3 70.654 1179.88 70.654 1180.86 69.6777L1196.77 53.7678ZM1084 54.5L1195 54.5V49.5L1084 49.5V54.5Z" fill="black"/>
</svg>
