<svg width="375" height="56" viewBox="0 0 375 56" fill="none" xmlns="http://www.w3.org/2000/svg">
<path d="M14.1911 0V2.30252H3.04493V8.56427H13.4647V10.7825H3.04493V17.6901H14.3307V19.9926H0.419027V0H14.1911Z" fill="black"/>
<path d="M17.0217 19.9926V5.50359H23.6982C24.648 5.50359 25.4581 5.58783 26.1285 5.75631C26.799 5.90607 27.3856 6.25238 27.8885 6.79525C28.3913 7.33812 28.6427 8.07755 28.6427 9.01354C28.6427 10.4362 27.935 11.4752 26.5196 12.1304V12.1584C27.3763 12.3269 28.0468 12.7294 28.531 13.3659C29.0152 13.9836 29.2573 14.7698 29.2573 15.7246C29.2573 16.9601 28.8476 17.9803 28.0281 18.7852C27.2087 19.5902 26.1565 19.9926 24.8715 19.9926H17.0217ZM23.4468 11.3441C24.4338 11.3441 25.1322 11.185 25.5419 10.8668C25.9702 10.5298 26.1844 10.0431 26.1844 9.40665C26.1844 8.77018 25.9796 8.30219 25.5698 8.00267C25.1601 7.70316 24.4524 7.5534 23.4468 7.5534H19.3403V11.3441H23.4468ZM19.3403 13.3659V17.9428H24.4245C25.1694 17.9428 25.7468 17.7182 26.1565 17.2689C26.5848 16.8197 26.799 16.2393 26.799 15.528C26.799 14.0866 25.8678 13.3659 24.0055 13.3659H19.3403Z" fill="black"/>
<path d="M34.3166 5.50359V7.5534C35.3595 5.88735 36.9797 5.05432 39.1773 5.05432C41.1886 5.05432 42.7809 5.73759 43.9542 7.10413C45.1461 8.47067 45.7421 10.3239 45.7421 12.6639C45.7421 15.0038 45.1554 16.8758 43.9822 18.2798C42.8275 19.6651 41.2631 20.3577 39.2891 20.3577C37.2219 20.3577 35.6109 19.5621 34.4563 17.9709V25.5805H32.0818V5.50359H34.3166ZM38.8142 7.04797C37.436 7.04797 36.3465 7.5534 35.5457 8.56427C34.7636 9.55641 34.3725 10.9323 34.3725 12.692C34.3725 14.4516 34.7729 15.8369 35.5737 16.8477C36.3931 17.8399 37.5012 18.336 38.898 18.336C40.2575 18.336 41.3283 17.8305 42.1105 16.8197C42.8927 15.8088 43.2838 14.4329 43.2838 12.692C43.2838 10.9323 42.8834 9.55641 42.0826 8.56427C41.3004 7.5534 40.2109 7.04797 38.8142 7.04797Z" fill="black"/>
<path d="M49.7863 7.16029C51.0527 5.77503 52.7754 5.0824 54.9543 5.0824C57.1333 5.0824 58.828 5.74695 60.0385 7.07605C61.2491 8.40515 61.8543 10.2678 61.8543 12.6639C61.8543 15.1162 61.2491 17.0256 60.0385 18.3921C58.828 19.7586 57.124 20.4419 54.9264 20.4419C52.7288 20.4419 51.0062 19.768 49.7584 18.4202C48.5106 17.0724 47.8868 15.2004 47.8868 12.8043C47.8868 10.4269 48.52 8.54555 49.7863 7.16029ZM58.1948 8.62042C57.394 7.59084 56.2952 7.07605 54.8985 7.07605C53.5017 7.07605 52.3936 7.59084 51.5742 8.62042C50.7548 9.65001 50.345 11.0259 50.345 12.7481C50.345 14.5265 50.7454 15.9211 51.5463 16.932C52.3657 17.9241 53.5017 18.4202 54.9543 18.4202C56.3511 18.4202 57.4406 17.9148 58.2228 16.9039C59.0236 15.893 59.424 14.4984 59.424 12.72C59.424 10.9978 59.0143 9.63129 58.1948 8.62042Z" fill="black"/>
<path d="M77.0851 14.7137C76.8802 16.4546 76.2191 17.8399 75.1017 18.8695C74.0029 19.899 72.5689 20.4138 70.7997 20.4138C68.6208 20.4138 66.9353 19.7399 65.7434 18.3921C64.5515 17.0256 63.9556 15.2098 63.9556 12.9447C63.9556 10.5298 64.5795 8.62042 65.8272 7.21645C67.075 5.79375 68.7604 5.0824 70.8835 5.0824C72.6527 5.0824 74.0681 5.53167 75.1296 6.43022C76.1912 7.31005 76.8151 8.57363 77.0013 10.221H74.543C74.1147 8.12435 72.9041 7.07605 70.9114 7.07605C69.5333 7.07605 68.4438 7.59084 67.643 8.62042C66.8422 9.63129 66.4418 11.0072 66.4418 12.7481C66.4418 14.5078 66.8236 15.893 67.5871 16.9039C68.3507 17.9148 69.4029 18.4202 70.7438 18.4202C71.824 18.4202 72.6993 18.102 73.3697 17.4655C74.0588 16.829 74.4964 15.9117 74.6827 14.7137H77.0851Z" fill="black"/>
<path d="M80.8315 7.16029C82.0979 5.77503 83.8205 5.0824 85.9995 5.0824C88.1784 5.0824 89.8731 5.74695 91.0837 7.07605C92.2942 8.40515 92.8995 10.2678 92.8995 12.6639C92.8995 15.1162 92.2942 17.0256 91.0837 18.3921C89.8731 19.7586 88.1691 20.4419 85.9715 20.4419C83.774 20.4419 82.0513 19.768 80.8035 18.4202C79.5558 17.0724 78.9319 15.2004 78.9319 12.8043C78.9319 10.4269 79.5651 8.54555 80.8315 7.16029ZM89.24 8.62042C88.4391 7.59084 87.3404 7.07605 85.9436 7.07605C84.5468 7.07605 83.4387 7.59084 82.6193 8.62042C81.7999 9.65001 81.3902 11.0259 81.3902 12.7481C81.3902 14.5265 81.7906 15.9211 82.5914 16.932C83.4108 17.9241 84.5468 18.4202 85.9995 18.4202C87.3962 18.4202 88.4857 17.9148 89.2679 16.9039C90.0687 15.893 90.4691 14.4984 90.4691 12.72C90.4691 10.9978 90.0594 9.63129 89.24 8.62042Z" fill="black"/>
<path d="M107.683 5.0824C109.788 5.0824 111.417 5.74695 112.572 7.07605C113.727 8.40515 114.304 10.2678 114.304 12.6639C114.304 15.1162 113.717 17.0256 112.544 18.3921C111.389 19.7586 109.76 20.4419 107.655 20.4419C105.625 20.4419 104.014 19.8242 102.823 18.5887C101.631 17.3344 100.988 15.5935 100.895 13.3659H98.1015V19.9926H95.727V5.50359H98.1015V11.2599H101.007C101.267 9.33177 101.984 7.82484 103.158 6.73909C104.331 5.63463 105.84 5.0824 107.683 5.0824ZM110.728 8.62042C109.965 7.59084 108.931 7.07605 107.627 7.07605C106.324 7.07605 105.281 7.59084 104.499 8.62042C103.735 9.65001 103.353 11.0259 103.353 12.7481C103.353 14.5265 103.735 15.9211 104.499 16.932C105.262 17.9241 106.324 18.4202 107.683 18.4202C108.987 18.4202 110.011 17.9148 110.756 16.9039C111.501 15.893 111.874 14.4984 111.874 12.72C111.874 10.9978 111.492 9.63129 110.728 8.62042Z" fill="black"/>
<path d="M116.305 9.68745C116.416 8.04011 117.04 6.86077 118.176 6.14942C119.312 5.43807 120.719 5.0824 122.395 5.0824C123.978 5.0824 125.272 5.41 126.278 6.06518C127.302 6.72037 127.814 7.6938 127.814 8.98546C127.814 9.77169 127.581 10.4456 127.116 11.0072C126.669 11.5688 126.129 11.9151 125.495 12.0461V12.1023C126.259 12.252 126.911 12.6358 127.451 13.2536C128.01 13.8526 128.289 14.6669 128.289 15.6965C128.289 17.194 127.702 18.364 126.529 19.2064C125.356 20.0301 123.95 20.4419 122.311 20.4419C120.43 20.4419 118.931 20.0114 117.813 19.1503C116.714 18.2704 116.128 17.0443 116.053 15.4718H118.456C118.53 16.4827 118.912 17.2408 119.601 17.7463C120.29 18.2517 121.184 18.5044 122.283 18.5044C123.382 18.5044 124.248 18.2424 124.881 17.7182C125.514 17.1753 125.831 16.5201 125.831 15.7526C125.831 14.1802 124.806 13.3939 122.758 13.3939H120.774V11.4565H122.367C123.279 11.4565 124.015 11.2693 124.574 10.8949C125.132 10.5018 125.412 9.90272 125.412 9.09778C125.412 8.53619 125.132 8.04947 124.574 7.63764C124.033 7.22581 123.298 7.01989 122.367 7.01989C121.417 7.01989 120.588 7.23517 119.88 7.66572C119.191 8.09627 118.8 8.77018 118.707 9.68745H116.305Z" fill="black"/>
<path d="M141.232 19.9926H138.857V5.50359H150.814V19.9926H148.439V7.60956H141.232V19.9926Z" fill="black"/>
<path d="M156.615 5.50359V7.5534C157.658 5.88735 159.278 5.05432 161.475 5.05432C163.487 5.05432 165.079 5.73759 166.252 7.10413C167.444 8.47067 168.04 10.3239 168.04 12.6639C168.04 15.0038 167.454 16.8758 166.28 18.2798C165.126 19.6651 163.561 20.3577 161.587 20.3577C159.52 20.3577 157.909 19.5621 156.754 17.9709V25.5805H154.38V5.50359H156.615ZM161.112 7.04797C159.734 7.04797 158.645 7.5534 157.844 8.56427C157.062 9.55641 156.671 10.9323 156.671 12.692C156.671 14.4516 157.071 15.8369 157.872 16.8477C158.691 17.8399 159.799 18.336 161.196 18.336C162.556 18.336 163.626 17.8305 164.409 16.8197C165.191 15.8088 165.582 14.4329 165.582 12.692C165.582 10.9323 165.182 9.55641 164.381 8.56427C163.599 7.5534 162.509 7.04797 161.112 7.04797Z" fill="black"/>
<path d="M172.084 7.16029C173.351 5.77503 175.074 5.0824 177.252 5.0824C179.431 5.0824 181.126 5.74695 182.337 7.07605C183.547 8.40515 184.152 10.2678 184.152 12.6639C184.152 15.1162 183.547 17.0256 182.337 18.3921C181.126 19.7586 179.422 20.4419 177.225 20.4419C175.027 20.4419 173.304 19.768 172.057 18.4202C170.809 17.0724 170.185 15.2004 170.185 12.8043C170.185 10.4269 170.818 8.54555 172.084 7.16029ZM180.493 8.62042C179.692 7.59084 178.593 7.07605 177.197 7.07605C175.8 7.07605 174.692 7.59084 173.872 8.62042C173.053 9.65001 172.643 11.0259 172.643 12.7481C172.643 14.5265 173.044 15.9211 173.844 16.932C174.664 17.9241 175.8 18.4202 177.252 18.4202C178.649 18.4202 179.739 17.9148 180.521 16.9039C181.322 15.893 181.722 14.4984 181.722 12.72C181.722 10.9978 181.312 9.63129 180.493 8.62042Z" fill="black"/>
<path d="M200.457 24.5977H198.194V19.9926H187.187V24.5977H184.925V17.8867H186.489C186.936 17.0256 187.346 15.6965 187.718 13.8994C188.109 12.0836 188.305 10.3146 188.305 8.59234V5.50359H198.585V17.8867H200.457V24.5977ZM196.21 17.8867V7.60956H190.623V8.81698C190.623 10.5205 190.446 12.252 190.093 14.0117C189.757 15.7526 189.376 17.0443 188.947 17.8867H196.21Z" fill="black"/>
<path d="M214.542 5.50359V19.9926H212.168V7.60956H207.027L206.832 14.0117C206.776 16.2206 206.376 17.8212 205.631 18.8133C204.886 19.8054 203.955 20.3015 202.837 20.3015C202.148 20.3015 201.58 20.1986 201.133 19.9926V18.0552C201.375 18.1862 201.794 18.2517 202.39 18.2517C202.949 18.2517 203.424 17.9522 203.815 17.3532C204.225 16.7354 204.448 15.7058 204.485 14.2644L204.737 5.50359H214.542Z" fill="black"/>
<path d="M221.097 19.9926H218.052V5.50359H220.427V17.3251H220.483L226.964 5.50359H230.009V19.9926H227.634V8.17115H227.578L221.097 19.9926Z" fill="black"/>
<path d="M245.587 5.50359V19.9926H243.213V7.60956H238.073L237.877 14.0117C237.821 16.2206 237.421 17.8212 236.676 18.8133C235.931 19.8054 235 20.3015 233.882 20.3015C233.193 20.3015 232.625 20.1986 232.178 19.9926V18.0552C232.42 18.1862 232.839 18.2517 233.435 18.2517C233.994 18.2517 234.469 17.9522 234.86 17.3532C235.27 16.7354 235.493 15.7058 235.53 14.2644L235.782 5.50359H245.587Z" fill="black"/>
<path d="M269.276 14.7137C269.071 16.4546 268.41 17.8399 267.292 18.8695C266.194 19.899 264.76 20.4138 262.99 20.4138C260.811 20.4138 259.126 19.7399 257.934 18.3921C256.742 17.0256 256.146 15.2098 256.146 12.9447C256.146 10.5298 256.77 8.62042 258.018 7.21645C259.266 5.79375 260.951 5.0824 263.074 5.0824C264.843 5.0824 266.259 5.53167 267.32 6.43022C268.382 7.31005 269.006 8.57363 269.192 10.221H266.734C266.305 8.12435 265.095 7.07605 263.102 7.07605C261.724 7.07605 260.634 7.59084 259.834 8.62042C259.033 9.63129 258.632 11.0072 258.632 12.7481C258.632 14.5078 259.014 15.893 259.778 16.9039C260.541 17.9148 261.594 18.4202 262.934 18.4202C264.015 18.4202 264.89 18.102 265.56 17.4655C266.249 16.829 266.687 15.9117 266.873 14.7137H269.276Z" fill="black"/>
<path d="M284.643 18.0832V19.9365C284.159 20.1237 283.619 20.2173 283.023 20.2173C281.663 20.2173 280.965 19.5059 280.928 18.0832C279.568 19.6183 277.827 20.3858 275.704 20.3858C274.288 20.3858 273.162 20.0207 272.324 19.2907C271.504 18.5606 271.095 17.5591 271.095 16.2861C271.095 13.7028 272.799 12.1959 276.207 11.7653C276.43 11.7279 276.756 11.6905 277.184 11.653C278.805 11.4658 279.801 11.2505 280.173 11.0072C280.602 10.7077 280.816 10.1929 280.816 9.46281C280.816 7.87164 279.727 7.07605 277.548 7.07605C276.43 7.07605 275.583 7.31005 275.005 7.77804C274.428 8.22731 274.084 8.9761 273.972 10.0244H271.653C271.69 8.47067 272.24 7.26325 273.301 6.40214C274.363 5.54103 275.825 5.11048 277.687 5.11048C279.717 5.11048 281.226 5.57847 282.213 6.51446C282.529 6.81397 282.762 7.20709 282.911 7.6938C283.06 8.18051 283.144 8.58298 283.163 8.90122C283.181 9.20074 283.19 9.65937 283.19 10.2771C283.19 10.9885 283.172 12.0649 283.135 13.5063C283.097 14.9477 283.079 16.0241 283.079 16.7354C283.079 17.2596 283.144 17.634 283.274 17.8586C283.423 18.0645 283.684 18.1675 284.056 18.1675C284.205 18.1675 284.401 18.1394 284.643 18.0832ZM280.816 12.4673C280.648 12.5984 280.471 12.7107 280.285 12.8043C280.099 12.8979 279.857 12.9728 279.559 13.0289C279.28 13.0851 279.084 13.1319 278.972 13.1693C278.879 13.188 278.637 13.2255 278.246 13.2816C277.855 13.3191 277.65 13.3378 277.631 13.3378C277.054 13.4127 276.672 13.4688 276.486 13.5063C276.318 13.525 275.983 13.5999 275.48 13.7309C274.996 13.8619 274.652 14.0117 274.447 14.1802C274.242 14.3487 274.037 14.6014 273.832 14.9383C273.646 15.2566 273.553 15.6403 273.553 16.0896C273.553 16.8384 273.804 17.428 274.307 17.8586C274.829 18.2892 275.536 18.5044 276.43 18.5044C277.566 18.5044 278.581 18.1675 279.475 17.4936C280.369 16.8197 280.816 16.0241 280.816 15.1068V12.4673Z" fill="black"/>
<path d="M289.255 19.9926H286.881V5.50359H289.255V11.2599H296.463V5.50359H298.837V19.9926H296.463V13.3659H289.255V19.9926Z" fill="black"/>
<path d="M315.31 19.9926H312.293L307.041 12.8604L304.778 15.0787V19.9926H302.404V5.50359H304.778V12.4112L311.371 5.50359H314.555L308.745 11.2037L315.31 19.9926Z" fill="black"/>
<path d="M328.343 24.5977V19.9926H316.889V5.50359H319.264V17.8867H326.359V5.50359H328.734V17.8867H330.606V24.5977H328.343Z" fill="black"/>
<path d="M335.866 19.9926H332.821V5.50359H335.196V17.3251H335.252L341.733 5.50359H344.777V19.9926H342.403V8.17115H342.347L335.866 19.9926Z" fill="black"/>
<path d="M351.389 19.9926H348.344V5.50359H350.718V17.3251H350.774L357.255 5.50359H360.3V19.9926H357.926V8.17115H357.87L351.389 19.9926Z" fill="black"/>
<path d="M2.37449 50.4122H0V35.9231H11.9562V50.4122H9.58176V38.0291H2.37449V50.4122Z" fill="black"/>
<path d="M17.7574 35.9231V37.9729C18.8003 36.3069 20.4205 35.4738 22.6181 35.4738C24.6294 35.4738 26.2217 36.1571 27.395 37.5236C28.5869 38.8902 29.1829 40.7434 29.1829 43.0834C29.1829 45.4234 28.5962 47.2953 27.4229 48.6993C26.2683 50.0846 24.7039 50.7772 22.7298 50.7772C20.6626 50.7772 19.0517 49.9816 17.8971 48.3904V56H15.5226V35.9231H17.7574ZM22.2549 37.4675C20.8768 37.4675 19.7873 37.9729 18.9865 38.9838C18.2043 39.9759 17.8132 41.3518 17.8132 43.1115C17.8132 44.8711 18.2136 46.2564 19.0145 47.2673C19.8339 48.2594 20.942 48.7555 22.3387 48.7555C23.6983 48.7555 24.7691 48.25 25.5513 47.2392C26.3335 46.2283 26.7246 44.8524 26.7246 43.1115C26.7246 41.3518 26.3242 39.9759 25.5233 38.9838C24.7412 37.9729 23.6517 37.4675 22.2549 37.4675Z" fill="black"/>
<path d="M33.2271 37.5798C34.4935 36.1945 36.2162 35.5019 38.3951 35.5019C40.5741 35.5019 42.2688 36.1665 43.4793 37.4956C44.6898 38.8247 45.2951 40.6873 45.2951 43.0834C45.2951 45.5357 44.6898 47.4451 43.4793 48.8116C42.2688 50.1782 40.5648 50.8614 38.3672 50.8614C36.1696 50.8614 34.447 50.1875 33.1992 48.8397C31.9514 47.4919 31.3275 45.6199 31.3275 43.2238C31.3275 40.8464 31.9607 38.9651 33.2271 37.5798ZM41.6356 39.0399C40.8348 38.0104 39.736 37.4956 38.3393 37.4956C36.9425 37.4956 35.8344 38.0104 35.015 39.0399C34.1955 40.0695 33.7858 41.4454 33.7858 43.1676C33.7858 44.946 34.1862 46.3406 34.987 47.3515C35.8065 48.3436 36.9425 48.8397 38.3951 48.8397C39.7919 48.8397 40.8814 48.3343 41.6635 47.3234C42.4643 46.3126 42.8648 44.9179 42.8648 43.1396C42.8648 41.4174 42.455 40.0508 41.6356 39.0399Z" fill="black"/>
<path d="M58.666 38.0291H53.498V50.4122H51.1235V38.0291H45.9555V35.9231H58.666V38.0291Z" fill="black"/>
<path d="M63.6075 50.4122H60.5625V35.9231H62.937V47.7446H62.9929L69.4739 35.9231H72.5188V50.4122H70.1443V38.5907H70.0884L63.6075 50.4122Z" fill="black"/>
<path d="M76.0292 50.4122V35.9231H82.7057C83.6555 35.9231 84.4657 36.0074 85.1361 36.1758C85.8065 36.3256 86.3932 36.6719 86.896 37.2148C87.3988 37.7576 87.6503 38.4971 87.6503 39.4331C87.6503 40.8558 86.9426 41.8947 85.5272 42.5499V42.578C86.3839 42.7464 87.0543 43.1489 87.5385 43.7854C88.0227 44.4031 88.2648 45.1894 88.2648 46.1441C88.2648 47.3796 87.8551 48.3998 87.0357 49.2047C86.2163 50.0097 85.164 50.4122 83.879 50.4122H76.0292ZM82.4543 41.7637C83.4414 41.7637 84.1397 41.6045 84.5495 41.2863C84.9778 40.9494 85.192 40.4626 85.192 39.8262C85.192 39.1897 84.9871 38.7217 84.5774 38.4222C84.1677 38.1227 83.46 37.9729 82.4543 37.9729H78.3479V41.7637H82.4543ZM78.3479 43.7854V48.3624H83.4321C84.177 48.3624 84.7543 48.1377 85.164 47.6885C85.5924 47.2392 85.8065 46.6589 85.8065 45.9475C85.8065 44.5061 84.8754 43.7854 83.013 43.7854H78.3479Z" fill="black"/>
<path d="M101.099 35.9231V37.9729C102.142 36.3069 103.762 35.4738 105.96 35.4738C107.971 35.4738 109.563 36.1571 110.737 37.5236C111.929 38.8902 112.525 40.7434 112.525 43.0834C112.525 45.4234 111.938 47.2953 110.765 48.6993C109.61 50.0846 108.046 50.7772 106.072 50.7772C104.004 50.7772 102.393 49.9816 101.239 48.3904V56H98.8643V35.9231H101.099ZM105.597 37.4675C104.218 37.4675 103.129 37.9729 102.328 38.9838C101.546 39.9759 101.155 41.3518 101.155 43.1115C101.155 44.8711 101.555 46.2564 102.356 47.2673C103.176 48.2594 104.284 48.7555 105.68 48.7555C107.04 48.7555 108.111 48.25 108.893 47.2392C109.675 46.2283 110.066 44.8524 110.066 43.1115C110.066 41.3518 109.666 39.9759 108.865 38.9838C108.083 37.9729 106.993 37.4675 105.597 37.4675Z" fill="black"/>
<path d="M116.569 37.5798C117.835 36.1945 119.558 35.5019 121.737 35.5019C123.916 35.5019 125.611 36.1665 126.821 37.4956C128.032 38.8247 128.637 40.6873 128.637 43.0834C128.637 45.5357 128.032 47.4451 126.821 48.8116C125.611 50.1782 123.906 50.8614 121.709 50.8614C119.511 50.8614 117.789 50.1875 116.541 48.8397C115.293 47.4919 114.669 45.6199 114.669 43.2238C114.669 40.8464 115.302 38.9651 116.569 37.5798ZM124.977 39.0399C124.176 38.0104 123.078 37.4956 121.681 37.4956C120.284 37.4956 119.176 38.0104 118.357 39.0399C117.537 40.0695 117.128 41.4454 117.128 43.1676C117.128 44.946 117.528 46.3406 118.329 47.3515C119.148 48.3436 120.284 48.8397 121.737 48.8397C123.134 48.8397 124.223 48.3343 125.005 47.3234C125.806 46.3126 126.206 44.9179 126.206 43.1396C126.206 41.4174 125.797 40.0508 124.977 39.0399Z" fill="black"/>
<path d="M143.868 45.1332C143.663 46.8741 143.002 48.2594 141.884 49.289C140.785 50.3186 139.351 50.8334 137.582 50.8334C135.403 50.8334 133.718 50.1595 132.526 48.8116C131.334 47.4451 130.738 45.6293 130.738 43.3642C130.738 40.9494 131.362 39.0399 132.61 37.636C133.857 36.2133 135.543 35.5019 137.666 35.5019C139.435 35.5019 140.851 35.9512 141.912 36.8497C142.974 37.7296 143.598 38.9931 143.784 40.6405H141.325C140.897 38.5439 139.687 37.4956 137.694 37.4956C136.316 37.4956 135.226 38.0104 134.426 39.0399C133.625 40.0508 133.224 41.4267 133.224 43.1676C133.224 44.9273 133.606 46.3126 134.37 47.3234C135.133 48.3343 136.185 48.8397 137.526 48.8397C138.606 48.8397 139.482 48.5215 140.152 47.885C140.841 47.2485 141.279 46.3313 141.465 45.1332H143.868Z" fill="black"/>
<path d="M158.872 45.1332C158.667 46.8741 158.006 48.2594 156.888 49.289C155.79 50.3186 154.356 50.8334 152.586 50.8334C150.407 50.8334 148.722 50.1595 147.53 48.8116C146.338 47.4451 145.742 45.6293 145.742 43.3642C145.742 40.9494 146.366 39.0399 147.614 37.636C148.862 36.2133 150.547 35.5019 152.67 35.5019C154.439 35.5019 155.855 35.9512 156.916 36.8497C157.978 37.7296 158.602 38.9931 158.788 40.6405H156.33C155.901 38.5439 154.691 37.4956 152.698 37.4956C151.32 37.4956 150.231 38.0104 149.43 39.0399C148.629 40.0508 148.229 41.4267 148.229 43.1676C148.229 44.9273 148.61 46.3126 149.374 47.3234C150.137 48.3343 151.19 48.8397 152.531 48.8397C153.611 48.8397 154.486 48.5215 155.156 47.885C155.846 47.2485 156.283 46.3313 156.469 45.1332H158.872Z" fill="black"/>
<path d="M164.518 50.4122H161.473V35.9231H163.847V47.7446H163.903L170.384 35.9231H173.429V50.4122H171.055V38.5907H170.999L164.518 50.4122Z" fill="black"/>
<path d="M187.192 30.4195C187.005 31.5989 186.549 32.5442 185.823 33.2556C185.115 33.9482 184.175 34.2945 183.001 34.2945C181.865 34.2945 180.906 33.9388 180.124 33.2275C179.361 32.4974 178.904 31.5614 178.755 30.4195H180.18C180.608 31.8797 181.54 32.6097 182.974 32.6097C184.352 32.6097 185.283 31.8797 185.767 30.4195H187.192ZM180.04 50.4122H176.995V35.9231H179.37V47.7446H179.426L185.907 35.9231H188.952V50.4122H186.577V38.5907H186.521L180.04 50.4122Z" fill="black"/>
<path d="M204.921 45.1332C204.716 46.8741 204.055 48.2594 202.938 49.289C201.839 50.3186 200.405 50.8334 198.636 50.8334C196.457 50.8334 194.771 50.1595 193.58 48.8116C192.388 47.4451 191.792 45.6293 191.792 43.3642C191.792 40.9494 192.416 39.0399 193.663 37.636C194.911 36.2133 196.597 35.5019 198.72 35.5019C200.489 35.5019 201.904 35.9512 202.966 36.8497C204.027 37.7296 204.651 38.9931 204.837 40.6405H202.379C201.951 38.5439 200.74 37.4956 198.748 37.4956C197.369 37.4956 196.28 38.0104 195.479 39.0399C194.678 40.0508 194.278 41.4267 194.278 43.1676C194.278 44.9273 194.66 46.3126 195.423 47.3234C196.187 48.3343 197.239 48.8397 198.58 48.8397C199.66 48.8397 200.535 48.5215 201.206 47.885C201.895 47.2485 202.333 46.3313 202.519 45.1332H204.921Z" fill="black"/>
<path d="M220.428 50.4122H217.411L212.159 43.28L209.897 45.4982V50.4122H207.522V35.9231H209.897V42.8307L216.489 35.9231H219.674L213.863 41.6233L220.428 50.4122Z" fill="black"/>
<path d="M225.053 50.4122H222.008V35.9231H224.383V47.7446H224.438L230.919 35.9231H233.964V50.4122H231.59V38.5907H231.534L225.053 50.4122Z" fill="black"/>
<path d="M249.375 35.9231L244.347 42.606L249.962 50.4122H246.917L242.866 44.4593L238.872 50.4122H235.994L241.414 42.7745L236.413 35.9231H239.43L242.922 40.8932L246.498 35.9231H249.375Z" fill="black"/>
<path d="M269.709 38.0291H262.195V50.4122H259.82V35.9231H269.709V38.0291Z" fill="black"/>
<path d="M273.73 35.9231V37.9729C274.773 36.3069 276.393 35.4738 278.59 35.4738C280.602 35.4738 282.194 36.1571 283.367 37.5236C284.559 38.8902 285.155 40.7434 285.155 43.0834C285.155 45.4234 284.568 47.2953 283.395 48.6993C282.241 50.0846 280.676 50.7772 278.702 50.7772C276.635 50.7772 275.024 49.9816 273.869 48.3904V56H271.495V35.9231H273.73ZM278.227 37.4675C276.849 37.4675 275.76 37.9729 274.959 38.9838C274.177 39.9759 273.785 41.3518 273.785 43.1115C273.785 44.8711 274.186 46.2564 274.987 47.2673C275.806 48.2594 276.914 48.7555 278.311 48.7555C279.671 48.7555 280.741 48.25 281.524 47.2392C282.306 46.2283 282.697 44.8524 282.697 43.1115C282.697 41.3518 282.296 39.9759 281.496 38.9838C280.713 37.9729 279.624 37.4675 278.227 37.4675Z" fill="black"/>
<path d="M300.82 48.5028V50.356C300.336 50.5432 299.796 50.6368 299.2 50.6368C297.841 50.6368 297.142 49.9255 297.105 48.5028C295.746 50.0378 294.004 50.8053 291.881 50.8053C290.466 50.8053 289.339 50.4402 288.501 49.7102C287.682 48.9801 287.272 47.9786 287.272 46.7057C287.272 44.1223 288.976 42.6154 292.384 42.1849C292.607 42.1474 292.933 42.11 293.362 42.0725C294.982 41.8853 295.978 41.6701 296.351 41.4267C296.779 41.1272 296.993 40.6124 296.993 39.8823C296.993 38.2912 295.904 37.4956 293.725 37.4956C292.607 37.4956 291.76 37.7296 291.183 38.1976C290.605 38.6468 290.261 39.3956 290.149 40.4439H287.831C287.868 38.8902 288.417 37.6828 289.479 36.8217C290.54 35.9606 292.002 35.53 293.865 35.53C295.895 35.53 297.403 35.998 298.39 36.934C298.707 37.2335 298.939 37.6266 299.088 38.1133C299.237 38.6 299.321 39.0025 299.34 39.3207C299.358 39.6203 299.368 40.0789 299.368 40.6966C299.368 41.408 299.349 42.4844 299.312 43.9258C299.275 45.3672 299.256 46.4436 299.256 47.1549C299.256 47.6791 299.321 48.0535 299.452 48.2781C299.601 48.484 299.861 48.587 300.234 48.587C300.383 48.587 300.578 48.5589 300.82 48.5028ZM296.993 42.8868C296.826 43.0179 296.649 43.1302 296.462 43.2238C296.276 43.3174 296.034 43.3923 295.736 43.4484C295.457 43.5046 295.261 43.5514 295.15 43.5888C295.056 43.6076 294.814 43.645 294.423 43.7012C294.032 43.7386 293.827 43.7573 293.809 43.7573C293.231 43.8322 292.85 43.8883 292.663 43.9258C292.496 43.9445 292.16 44.0194 291.658 44.1504C291.173 44.2815 290.829 44.4312 290.624 44.5997C290.419 44.7682 290.214 45.0209 290.009 45.3578C289.823 45.6761 289.73 46.0598 289.73 46.5091C289.73 47.2579 289.982 47.8476 290.484 48.2781C291.006 48.7087 291.714 48.924 292.607 48.924C293.743 48.924 294.758 48.587 295.652 47.9131C296.546 47.2392 296.993 46.4436 296.993 45.5263V42.8868Z" fill="black"/>
<path d="M309.148 43.3923L304.204 50.4122H301.27L307.584 41.876L302.081 35.9231H305.014L310.88 42.578H310.936V35.9231H313.31V42.578H313.366L319.233 35.9231H322.166L316.663 41.876L322.976 50.4122H320.043L315.098 43.3923L313.31 45.2174V50.4122H310.936V45.2174L309.148 43.3923Z" fill="black"/>
<path d="M338.768 55.0172H336.506V50.4122H325.499V55.0172H323.236V48.3062H324.801C325.248 47.4451 325.657 46.116 326.03 44.3189C326.421 42.5031 326.617 40.7341 326.617 39.0119V35.9231H336.897V48.3062H338.768V55.0172ZM334.522 48.3062V38.0291H328.935V39.2365C328.935 40.94 328.758 42.6716 328.404 44.4312C328.069 46.1722 327.687 47.4638 327.259 48.3062H334.522Z" fill="black"/>
<path d="M353.608 48.5028V50.356C353.124 50.5432 352.584 50.6368 351.988 50.6368C350.628 50.6368 349.93 49.9255 349.893 48.5028C348.533 50.0378 346.792 50.8053 344.669 50.8053C343.253 50.8053 342.127 50.4402 341.289 49.7102C340.469 48.9801 340.059 47.9786 340.059 46.7057C340.059 44.1223 341.764 42.6154 345.172 42.1849C345.395 42.1474 345.721 42.11 346.149 42.0725C347.77 41.8853 348.766 41.6701 349.138 41.4267C349.567 41.1272 349.781 40.6124 349.781 39.8823C349.781 38.2912 348.691 37.4956 346.513 37.4956C345.395 37.4956 344.548 37.7296 343.97 38.1976C343.393 38.6468 343.049 39.3956 342.937 40.4439H340.618C340.655 38.8902 341.205 37.6828 342.266 36.8217C343.328 35.9606 344.79 35.53 346.652 35.53C348.682 35.53 350.191 35.998 351.178 36.934C351.494 37.2335 351.727 37.6266 351.876 38.1133C352.025 38.6 352.109 39.0025 352.127 39.3207C352.146 39.6203 352.155 40.0789 352.155 40.6966C352.155 41.408 352.137 42.4844 352.1 43.9258C352.062 45.3672 352.044 46.4436 352.044 47.1549C352.044 47.6791 352.109 48.0535 352.239 48.2781C352.388 48.484 352.649 48.587 353.021 48.587C353.17 48.587 353.366 48.5589 353.608 48.5028ZM349.781 42.8868C349.613 43.0179 349.436 43.1302 349.25 43.2238C349.064 43.3174 348.822 43.3923 348.524 43.4484C348.244 43.5046 348.049 43.5514 347.937 43.5888C347.844 43.6076 347.602 43.645 347.211 43.7012C346.82 43.7386 346.615 43.7573 346.596 43.7573C346.019 43.8322 345.637 43.8883 345.451 43.9258C345.283 43.9445 344.948 44.0194 344.445 44.1504C343.961 44.2815 343.617 44.4312 343.412 44.5997C343.207 44.7682 343.002 45.0209 342.797 45.3578C342.611 45.6761 342.518 46.0598 342.518 46.5091C342.518 47.2579 342.769 47.8476 343.272 48.2781C343.793 48.7087 344.501 48.924 345.395 48.924C346.531 48.924 347.546 48.587 348.44 47.9131C349.334 47.2392 349.781 46.4436 349.781 45.5263V42.8868Z" fill="black"/>
<path d="M358.22 50.4122H355.846V35.9231H358.22V41.6794H365.428V35.9231H367.802V50.4122H365.428V43.7854H358.22V50.4122Z" fill="black"/>
<path d="M375 47.2953V50.4122H371.899V47.2953H375Z" fill="black"/>
</svg>
