<svg width="1442" height="59" viewBox="0 0 1442 59" fill="none" xmlns="http://www.w3.org/2000/svg">
<path d="M69.4922 0.274841V20.2833H66.9031V2.44609H59.8639L59.5133 10.3753C59.3784 13.0321 59.1087 15.0292 58.7042 16.3668C58.3086 17.7044 57.7243 18.6892 56.9511 19.3214C56.178 19.9443 55.1441 20.265 53.8496 20.2833H53V18.1258L53.5394 18.0983C54.3755 18.0342 55.0183 17.7593 55.4678 17.2738C55.9173 16.7791 56.2589 15.9958 56.4926 14.9239C56.7264 13.852 56.8927 12.203 56.9916 9.97674L57.3961 0.274841H69.4922Z" fill="black"/>
<path d="M79.8623 20.5581C77.8844 20.5581 76.2752 19.8985 75.0346 18.5793C73.794 17.2509 73.1737 15.4782 73.1737 13.2611V12.7939C73.1737 11.3189 73.4479 10.0042 73.9963 8.84989C74.5536 7.6864 75.3268 6.77942 76.3157 6.12896C77.3136 5.46934 78.3924 5.13953 79.5521 5.13953C81.449 5.13953 82.9234 5.77625 83.9752 7.04968C85.027 8.32311 85.553 10.1462 85.553 12.519V13.5772H75.6684C75.7044 15.043 76.1224 16.2294 76.9225 17.1364C77.7316 18.0342 78.7565 18.4831 79.9971 18.4831C80.8781 18.4831 81.6243 18.2999 82.2356 17.9334C82.8469 17.5669 83.3819 17.0814 83.8403 16.4767L85.3642 17.686C84.1415 19.6008 82.3075 20.5581 79.8623 20.5581ZM79.5521 7.22833C78.5452 7.22833 77.7001 7.60395 77.0169 8.35518C76.3337 9.09725 75.9111 10.1416 75.7493 11.4884H83.0582V11.296C82.9863 10.0042 82.6447 9.00564 82.0333 8.30021C81.422 7.58562 80.5949 7.22833 79.5521 7.22833Z" fill="black"/>
<path d="M87.7915 12.7114C87.7915 11.2548 88.0702 9.94468 88.6275 8.78118C89.1939 7.61769 89.9761 6.71987 90.9739 6.08774C91.9808 5.4556 93.1271 5.13953 94.4126 5.13953C96.3994 5.13953 98.0042 5.84038 99.2268 7.24207C100.458 8.64376 101.074 10.5081 101.074 12.8351V13.0137C101.074 14.4612 100.8 15.7622 100.252 16.9165C99.7123 18.0617 98.9346 18.9549 97.9188 19.5962C96.9119 20.2375 95.7522 20.5581 94.4396 20.5581C92.4618 20.5581 90.8571 19.8573 89.6254 18.4556C88.4028 17.0539 87.7915 15.1987 87.7915 12.8901V12.7114ZM90.2997 13.0137C90.2997 14.6628 90.6728 15.9866 91.419 16.9852C92.1741 17.9838 93.181 18.4831 94.4396 18.4831C95.7072 18.4831 96.7141 17.9792 97.4603 16.9715C98.2064 15.9545 98.5795 14.5345 98.5795 12.7114C98.5795 11.0807 98.1974 9.76145 97.4333 8.7537C96.6781 7.73679 95.6712 7.22833 94.4126 7.22833C93.181 7.22833 92.1876 7.72762 91.4324 8.72622C90.6773 9.72481 90.2997 11.154 90.2997 13.0137Z" fill="black"/>
<path d="M116.124 20.2833H113.629V13.9345H106.927V20.2833H104.419V5.41438H106.927V11.8594H113.629V5.41438H116.124V20.2833Z" fill="black"/>
<path d="M129.582 5.41438H132.076V20.2833H129.582V9.4408L122.853 20.2833H120.358V5.41438H122.853V16.2706L129.582 5.41438Z" fill="black"/>
<path d="M135.96 18.2082L136.823 17.1226C137.794 15.84 138.347 13.9161 138.482 11.351L138.711 5.41438H148.11V18.2082H149.985V24.6533H147.49V20.2833H137.309V24.6533H134.814L134.827 18.2082H135.96ZM138.913 18.2082H145.615V7.76427H141.125L140.977 11.3097C140.824 14.2689 140.136 16.5684 138.913 18.2082Z" fill="black"/>
<path d="M173.786 11.1586H171.682V20.2833H169.093V11.1586H166.868L161.312 20.2833H158.076L164.683 9.72939L158.588 0.274841H161.649L166.868 8.95983H169.093V0.274841H171.682V8.95983H173.813L179.031 0.274841H182.079L175.984 9.71564L182.591 20.2833H179.369L173.786 11.1586Z" fill="black"/>
<path d="M193.69 20.2833C193.546 19.9901 193.429 19.4679 193.339 18.7167C192.179 19.9443 190.795 20.5581 189.186 20.5581C187.747 20.5581 186.565 20.1459 185.639 19.3214C184.722 18.4877 184.264 17.4341 184.264 16.1607C184.264 14.6124 184.839 13.4123 185.99 12.5603C187.149 11.6991 188.777 11.2685 190.871 11.2685H193.299V10.1004C193.299 9.21177 193.038 8.50634 192.517 7.98414C191.995 7.45278 191.226 7.1871 190.211 7.1871C189.321 7.1871 188.574 7.41614 187.972 7.87421C187.37 8.33228 187.069 8.88654 187.069 9.537H184.56C184.56 8.79493 184.817 8.08034 185.329 7.39323C185.85 6.69697 186.552 6.14729 187.433 5.74419C188.323 5.34108 189.298 5.13953 190.359 5.13953C192.04 5.13953 193.357 5.57012 194.31 6.43129C195.263 7.2833 195.757 8.46054 195.793 9.963V16.8066C195.793 18.1716 195.964 19.2572 196.306 20.0634V20.2833H193.69ZM189.55 18.3457C190.332 18.3457 191.074 18.1395 191.775 17.7273C192.476 17.315 192.984 16.7791 193.299 16.1194V13.0687H191.343C188.287 13.0687 186.758 13.9803 186.758 15.8034C186.758 16.6004 187.019 17.2234 187.541 17.6723C188.062 18.1212 188.732 18.3457 189.55 18.3457Z" fill="black"/>
<path d="M212.029 13.0137C212.029 15.2766 211.521 17.0997 210.506 18.4831C209.49 19.8665 208.114 20.5581 206.379 20.5581C204.608 20.5581 203.215 19.9856 202.199 18.8404V26H199.704V5.41438H201.983L202.104 7.06342C203.12 5.78083 204.532 5.13953 206.339 5.13953C208.092 5.13953 209.476 5.8129 210.492 7.15962C211.517 8.50634 212.029 10.3798 212.029 12.7801V13.0137ZM209.535 12.7252C209.535 11.0486 209.184 9.72481 208.483 8.7537C207.782 7.78259 206.82 7.29704 205.597 7.29704C204.087 7.29704 202.954 7.97956 202.199 9.34461V16.4493C202.945 17.8051 204.087 18.4831 205.624 18.4831C206.82 18.4831 207.768 18.0021 208.469 17.0402C209.18 16.0691 209.535 14.6307 209.535 12.7252Z" fill="black"/>
<path d="M219.756 13.9482H217.936V20.2833H215.428V5.41438H217.936V11.7082H219.568L224.476 5.41438H227.497L221.725 12.5603L227.982 20.2833H224.813L219.756 13.9482Z" fill="black"/>
<path d="M239.566 5.41438H242.061V20.2833H239.566V9.4408L232.837 20.2833H230.342V5.41438H232.837V16.2706L239.566 5.41438Z" fill="black"/>
<path d="M255.505 5.41438H258V20.2833H255.505V9.4408L248.776 20.2833H246.281V5.41438H248.776V16.2706L255.505 5.41438ZM256.18 0C256.18 1.10853 255.806 2.00176 255.06 2.6797C254.323 3.34848 253.352 3.68288 252.147 3.68288C250.943 3.68288 249.967 3.3439 249.221 2.66596C248.475 1.98802 248.102 1.09937 248.102 0H250.138C250.138 0.641297 250.309 1.14517 250.651 1.51163C250.992 1.86892 251.491 2.04757 252.147 2.04757C252.777 2.04757 253.267 1.86892 253.617 1.51163C253.977 1.15433 254.157 0.650458 254.157 0H256.18Z" fill="black"/>
<path d="M4.99616 44.296H2.59963V53.2833H0V33.2748H2.59963V42.0973H4.63059L11.5223 33.2748H14.7583L7.23022 42.9767L15.3134 53.2833H12.1316L4.99616 44.296Z" fill="black"/>
<path d="M16.2612 45.7114C16.2612 44.2548 16.541 42.9447 17.1007 41.7812C17.6693 40.6177 18.4547 39.7199 19.4566 39.0877C20.4676 38.4556 21.6184 38.1395 22.9092 38.1395C24.9041 38.1395 26.5153 38.8404 27.7429 40.2421C28.9795 41.6438 29.5979 43.5081 29.5979 45.8351V46.0137C29.5979 47.4612 29.3225 48.7622 28.7719 49.9165C28.2303 51.0617 27.4495 51.9549 26.4296 52.5962C25.4186 53.2375 24.2542 53.5581 22.9363 53.5581C20.9505 53.5581 19.3392 52.8573 18.1026 51.4556C16.875 50.0539 16.2612 48.1987 16.2612 45.8901V45.7114ZM18.7796 46.0137C18.7796 47.6628 19.1542 48.9866 19.9034 49.9852C20.6616 50.9838 21.6726 51.4831 22.9363 51.4831C24.209 51.4831 25.22 50.9792 25.9692 49.9715C26.7184 48.9545 27.093 47.5345 27.093 45.7114C27.093 44.0807 26.7094 42.7615 25.9421 41.7537C25.1839 40.7368 24.1729 40.2283 22.9092 40.2283C21.6726 40.2283 20.6752 40.7276 19.9169 41.7262C19.1587 42.7248 18.7796 44.154 18.7796 46.0137Z" fill="black"/>
<path d="M45.1144 46.0137C45.1144 48.2766 44.6044 50.0997 43.5844 51.4831C42.5644 52.8665 41.1833 53.5581 39.4412 53.5581C37.663 53.5581 36.2639 52.9856 35.2439 51.8404V59H32.7391V38.4144H35.0273L35.1491 40.0634C36.1691 38.7808 37.5863 38.1395 39.4006 38.1395C41.1608 38.1395 42.5509 38.8129 43.5709 40.1596C44.5999 41.5063 45.1144 43.3798 45.1144 45.7801V46.0137ZM42.6095 45.7252C42.6095 44.0486 42.2575 42.7248 41.5534 41.7537C40.8494 40.7826 39.8835 40.297 38.6559 40.297C37.1395 40.297 36.0021 40.9796 35.2439 42.3446V49.4493C35.9931 50.8051 37.1395 51.4831 38.683 51.4831C39.8835 51.4831 40.8358 51.0021 41.5399 50.0402C42.253 49.0691 42.6095 47.6307 42.6095 45.7252Z" fill="black"/>
<path d="M60.6851 46.0137C60.6851 48.2766 60.1751 50.0997 59.1551 51.4831C58.1351 52.8665 56.754 53.5581 55.0119 53.5581C53.2337 53.5581 51.8346 52.9856 50.8146 51.8404V59H48.3098V38.4144H50.598L50.7198 40.0634C51.7398 38.7808 53.157 38.1395 54.9713 38.1395C56.7315 38.1395 58.1216 38.8129 59.1415 40.1596C60.1706 41.5063 60.6851 43.3798 60.6851 45.7801V46.0137ZM58.1802 45.7252C58.1802 44.0486 57.8282 42.7248 57.1241 41.7537C56.4201 40.7826 55.4542 40.297 54.2266 40.297C52.7102 40.297 51.5728 40.9796 50.8146 42.3446V49.4493C51.5638 50.8051 52.7102 51.4831 54.2537 51.4831C55.4542 51.4831 56.4065 51.0021 57.1106 50.0402C57.8237 49.0691 58.1802 47.6307 58.1802 45.7252Z" fill="black"/>
<path d="M69.9598 53.5581C67.974 53.5581 66.3582 52.8985 65.1126 51.5793C63.8669 50.2509 63.2441 48.4782 63.2441 46.2611V45.7939C63.2441 44.3189 63.5194 43.0042 64.07 41.8499C64.6296 40.6864 65.4059 39.7794 66.3988 39.129C67.4008 38.4693 68.484 38.1395 69.6484 38.1395C71.553 38.1395 73.0333 38.7763 74.0894 40.0497C75.1455 41.3231 75.6736 43.1462 75.6736 45.519V46.5772H65.7489C65.785 48.043 66.2048 49.2294 67.0081 50.1364C67.8205 51.0342 68.8495 51.4831 70.0952 51.4831C70.9798 51.4831 71.729 51.2999 72.3428 50.9334C72.9566 50.5669 73.4937 50.0814 73.954 49.4767L75.484 50.686C74.2564 52.6008 72.415 53.5581 69.9598 53.5581ZM69.6484 40.2283C68.6374 40.2283 67.7889 40.6039 67.1029 41.3552C66.4169 42.0973 65.9926 43.1416 65.8302 44.4884H73.1687V44.296C73.0965 43.0042 72.7535 42.0056 72.1397 41.3002C71.5259 40.5856 70.6954 40.2283 69.6484 40.2283Z" fill="black"/>
<path d="M84.4608 51.4831C85.3545 51.4831 86.1353 51.2082 86.8032 50.6586C87.4712 50.1089 87.8413 49.4218 87.9135 48.5973H90.2829C90.2378 49.4493 89.9489 50.26 89.4164 51.0296C88.8838 51.7992 88.1707 52.413 87.2771 52.871C86.3925 53.3291 85.4538 53.5581 84.4608 53.5581C82.466 53.5581 80.8773 52.8848 79.6949 51.5381C78.5214 50.1822 77.9347 48.3316 77.9347 45.9863V45.5603C77.9347 44.1128 78.1965 42.8256 78.72 41.6987C79.2435 40.5719 79.9927 39.697 80.9676 39.074C81.9515 38.451 83.1114 38.1395 84.4473 38.1395C86.0901 38.1395 87.4531 38.6388 88.5363 39.6374C89.6285 40.636 90.2107 41.9323 90.2829 43.5264H87.9135C87.8413 42.5645 87.4802 41.7766 86.8303 41.1628C86.1894 40.5398 85.3951 40.2283 84.4473 40.2283C83.1746 40.2283 82.1862 40.6956 81.4821 41.63C80.7871 42.5553 80.4395 43.8975 80.4395 45.6564V46.1374C80.4395 47.8506 80.7871 49.1698 81.4821 50.0951C82.1771 51.0204 83.1701 51.4831 84.4608 51.4831Z" fill="black"/>
<path d="M105.082 53.2833H102.577V40.5169H95.8342V53.2833H93.3158V38.4144H105.082V53.2833Z" fill="black"/>
<path d="M108.44 45.7114C108.44 44.2548 108.72 42.9447 109.279 41.7812C109.848 40.6177 110.633 39.7199 111.635 39.0877C112.646 38.4556 113.797 38.1395 115.088 38.1395C117.083 38.1395 118.694 38.8404 119.921 40.2421C121.158 41.6438 121.776 43.5081 121.776 45.8351V46.0137C121.776 47.4612 121.501 48.7622 120.95 49.9165C120.409 51.0617 119.628 51.9549 118.608 52.5962C117.597 53.2375 116.433 53.5581 115.115 53.5581C113.129 53.5581 111.518 52.8573 110.281 51.4556C109.054 50.0539 108.44 48.1987 108.44 45.8901V45.7114ZM110.958 46.0137C110.958 47.6628 111.333 48.9866 112.082 49.9852C112.84 50.9838 113.851 51.4831 115.115 51.4831C116.388 51.4831 117.398 50.9792 118.148 49.9715C118.897 48.9545 119.271 47.5345 119.271 45.7114C119.271 44.0807 118.888 42.7615 118.121 41.7537C117.362 40.7368 116.351 40.2283 115.088 40.2283C113.851 40.2283 112.854 40.7276 112.095 41.7262C111.337 42.7248 110.958 44.154 110.958 46.0137Z" fill="black"/>
<path d="M136.887 53.2833H134.382V46.9345H127.653V53.2833H125.134V38.4144H127.653V44.8594H134.382V38.4144H136.887V53.2833Z" fill="black"/>
<path d="M140.8 51.2082L141.666 50.1226C142.641 48.84 143.196 46.9161 143.332 44.351L143.562 38.4144H152.999V51.2082H154.881V57.6533H152.376V53.2833H142.154V57.6533H139.649L139.662 51.2082H140.8ZM143.765 51.2082H150.494V40.7643H145.985L145.836 44.3097C145.683 47.2689 144.992 49.5684 143.765 51.2082Z" fill="black"/>
<path d="M163.736 53.5581C161.75 53.5581 160.134 52.8985 158.889 51.5793C157.643 50.2509 157.02 48.4782 157.02 46.2611V45.7939C157.02 44.3189 157.296 43.0042 157.846 41.8499C158.406 40.6864 159.182 39.7794 160.175 39.129C161.177 38.4693 162.26 38.1395 163.425 38.1395C165.329 38.1395 166.809 38.7763 167.866 40.0497C168.922 41.3231 169.45 43.1462 169.45 45.519V46.5772H159.525C159.561 48.043 159.981 49.2294 160.784 50.1364C161.597 51.0342 162.626 51.4831 163.871 51.4831C164.756 51.4831 165.505 51.2999 166.119 50.9334C166.733 50.5669 167.27 50.0814 167.73 49.4767L169.26 50.686C168.033 52.6008 166.191 53.5581 163.736 53.5581ZM163.425 40.2283C162.414 40.2283 161.565 40.6039 160.879 41.3552C160.193 42.0973 159.769 43.1416 159.606 44.4884H166.945V44.296C166.873 43.0042 166.53 42.0056 165.916 41.3002C165.302 40.5856 164.472 40.2283 163.425 40.2283Z" fill="black"/>
<path d="M184.33 53.2833H181.825V46.9345H175.096V53.2833H172.577V38.4144H175.096V44.8594H181.825V38.4144H184.33V53.2833Z" fill="black"/>
<path d="M199.251 40.4757H194.336V53.2833H191.831V40.4757H187.011V38.4144H199.251V40.4757Z" fill="black"/>
<path d="M219.831 44.4471H211.558V53.2833H208.959V33.2748H221.172V35.4461H211.558V42.2896H219.831V44.4471Z" fill="black"/>
<path d="M226.614 53.2833H224.11V38.4144H226.614V53.2833ZM223.907 34.4704C223.907 34.0581 224.028 33.71 224.272 33.426C224.525 33.142 224.895 33 225.382 33C225.87 33 226.24 33.142 226.493 33.426C226.745 33.71 226.872 34.0581 226.872 34.4704C226.872 34.8827 226.745 35.2262 226.493 35.5011C226.24 35.7759 225.87 35.9133 225.382 35.9133C224.895 35.9133 224.525 35.7759 224.272 35.5011C224.028 35.2262 223.907 34.8827 223.907 34.4704Z" fill="black"/>
<path d="M237.717 40.6956C237.338 40.6314 236.927 40.5994 236.485 40.5994C234.842 40.5994 233.727 41.3094 233.141 42.7294V53.2833H230.636V38.4144H233.073L233.114 40.1321C233.935 38.8037 235.099 38.1395 236.607 38.1395C237.094 38.1395 237.464 38.2037 237.717 38.3319V40.6956Z" fill="black"/>
<path d="M245.841 53.5581C243.855 53.5581 242.239 52.8985 240.994 51.5793C239.748 50.2509 239.125 48.4782 239.125 46.2611V45.7939C239.125 44.3189 239.4 43.0042 239.951 41.8499C240.511 40.6864 241.287 39.7794 242.28 39.129C243.282 38.4693 244.365 38.1395 245.529 38.1395C247.434 38.1395 248.914 38.7763 249.971 40.0497C251.027 41.3231 251.555 43.1462 251.555 45.519V46.5772H241.63C241.666 48.043 242.086 49.2294 242.889 50.1364C243.702 51.0342 244.731 51.4831 245.976 51.4831C246.861 51.4831 247.61 51.2999 248.224 50.9334C248.838 50.5669 249.375 50.0814 249.835 49.4767L251.365 50.686C250.137 52.6008 248.296 53.5581 245.841 53.5581ZM245.529 40.2283C244.519 40.2283 243.67 40.6039 242.984 41.3552C242.298 42.0973 241.874 43.1416 241.711 44.4884H249.05V44.296C248.978 43.0042 248.635 42.0056 248.021 41.3002C247.407 40.5856 246.577 40.2283 245.529 40.2283Z" fill="black"/>
<path d="M264.336 45.4503V53.2833H261.737V33.2748H269.007C271.165 33.2748 272.853 33.8337 274.071 34.9514C275.299 36.0691 275.913 37.5486 275.913 39.3901C275.913 41.3323 275.312 42.8302 274.112 43.8837C272.92 44.9281 271.21 45.4503 268.98 45.4503H264.336ZM264.336 43.2928H269.007C270.397 43.2928 271.463 42.963 272.203 42.3034C272.943 41.6346 273.313 40.6727 273.313 39.4175C273.313 38.2266 272.943 37.2738 272.203 36.5592C271.463 35.8446 270.447 35.4736 269.156 35.4461H264.336V43.2928Z" fill="black"/>
<path d="M285.918 40.6956C285.539 40.6314 285.129 40.5994 284.686 40.5994C283.044 40.5994 281.929 41.3094 281.342 42.7294V53.2833H278.837V38.4144H281.274L281.315 40.1321C282.136 38.8037 283.301 38.1395 284.808 38.1395C285.296 38.1395 285.666 38.2037 285.918 38.3319V40.6956Z" fill="black"/>
<path d="M294.042 53.5581C292.057 53.5581 290.441 52.8985 289.195 51.5793C287.949 50.2509 287.327 48.4782 287.327 46.2611V45.7939C287.327 44.3189 287.602 43.0042 288.153 41.8499C288.712 40.6864 289.488 39.7794 290.481 39.129C291.483 38.4693 292.566 38.1395 293.731 38.1395C295.636 38.1395 297.116 38.7763 298.172 40.0497C299.228 41.3231 299.756 43.1462 299.756 45.519V46.5772H289.831C289.868 48.043 290.287 49.2294 291.091 50.1364C291.903 51.0342 292.932 51.4831 294.178 51.4831C295.062 51.4831 295.812 51.2999 296.425 50.9334C297.039 50.5669 297.576 50.0814 298.037 49.4767L299.567 50.686C298.339 52.6008 296.498 53.5581 294.042 53.5581ZM293.731 40.2283C292.72 40.2283 291.871 40.6039 291.185 41.3552C290.499 42.0973 290.075 43.1416 289.913 44.4884H297.251V44.296C297.179 43.0042 296.836 42.0056 296.222 41.3002C295.608 40.5856 294.778 40.2283 293.731 40.2283Z" fill="black"/>
<path d="M311.197 49.3393C311.197 48.6522 310.94 48.1209 310.425 47.7452C309.92 47.3605 309.031 47.0307 307.758 46.7558C306.494 46.481 305.488 46.1512 304.739 45.7664C303.999 45.3816 303.448 44.9235 303.087 44.3922C302.735 43.8608 302.559 43.2287 302.559 42.4958C302.559 41.2773 303.064 40.2467 304.075 39.4038C305.095 38.561 306.395 38.1395 307.975 38.1395C309.636 38.1395 310.981 38.5747 312.01 39.445C313.048 40.3154 313.567 41.4285 313.567 42.7844H311.048C311.048 42.0881 310.755 41.488 310.168 40.9841C309.59 40.4803 308.859 40.2283 307.975 40.2283C307.063 40.2283 306.35 40.4299 305.835 40.833C305.321 41.2361 305.064 41.7629 305.064 42.4133C305.064 43.0271 305.303 43.4898 305.781 43.8013C306.26 44.1128 307.122 44.4105 308.367 44.6945C309.622 44.9785 310.638 45.3175 311.414 45.7114C312.19 46.1054 312.763 46.5817 313.133 47.1406C313.512 47.6903 313.702 48.3636 313.702 49.1607C313.702 50.4891 313.178 51.5564 312.131 52.3626C311.084 53.1596 309.726 53.5581 308.056 53.5581C306.883 53.5581 305.844 53.3474 304.942 52.926C304.039 52.5046 303.331 51.9183 302.816 51.167C302.311 50.4066 302.058 49.5867 302.058 48.7072H304.563C304.608 49.5592 304.942 50.2371 305.565 50.741C306.197 51.2357 307.027 51.4831 308.056 51.4831C309.004 51.4831 309.762 51.2907 310.331 50.9059C310.908 50.512 311.197 49.9898 311.197 49.3393Z" fill="black"/>
<path d="M325.495 49.3393C325.495 48.6522 325.238 48.1209 324.723 47.7452C324.218 47.3605 323.329 47.0307 322.056 46.7558C320.792 46.481 319.786 46.1512 319.037 45.7664C318.297 45.3816 317.746 44.9235 317.385 44.3922C317.033 43.8608 316.857 43.2287 316.857 42.4958C316.857 41.2773 317.362 40.2467 318.373 39.4038C319.393 38.561 320.693 38.1395 322.273 38.1395C323.934 38.1395 325.279 38.5747 326.308 39.445C327.346 40.3154 327.865 41.4285 327.865 42.7844H325.346C325.346 42.0881 325.053 41.488 324.466 40.9841C323.888 40.4803 323.157 40.2283 322.273 40.2283C321.361 40.2283 320.648 40.4299 320.133 40.833C319.619 41.2361 319.362 41.7629 319.362 42.4133C319.362 43.0271 319.601 43.4898 320.079 43.8013C320.558 44.1128 321.42 44.4105 322.665 44.6945C323.92 44.9785 324.935 45.3175 325.712 45.7114C326.488 46.1054 327.061 46.5817 327.431 47.1406C327.81 47.6903 328 48.3636 328 49.1607C328 50.4891 327.476 51.5564 326.429 52.3626C325.382 53.1596 324.024 53.5581 322.354 53.5581C321.18 53.5581 320.142 53.3474 319.24 52.926C318.337 52.5046 317.629 51.9183 317.114 51.167C316.609 50.4066 316.356 49.5867 316.356 48.7072H318.861C318.906 49.5592 319.24 50.2371 319.863 50.741C320.494 51.2357 321.325 51.4831 322.354 51.4831C323.302 51.4831 324.06 51.2907 324.629 50.9059C325.206 50.512 325.495 49.9898 325.495 49.3393Z" fill="black"/>
<path d="M438.653 0.274841V20.2833H436.039V2.44609H428.931L428.577 10.3753C428.441 13.0321 428.168 15.0292 427.76 16.3668C427.36 17.7044 426.77 18.6892 425.99 19.3214C425.209 19.9443 424.165 20.265 422.858 20.2833H422V18.1258L422.545 18.0983C423.389 18.0342 424.038 17.7593 424.492 17.2738C424.946 16.7791 425.291 15.9958 425.527 14.9239C425.763 13.852 425.931 12.203 426.031 9.97674L426.439 0.274841H438.653Z" fill="black"/>
<path d="M452.106 20.2833C451.961 19.9901 451.843 19.4679 451.752 18.7167C450.581 19.9443 449.183 20.5581 447.558 20.5581C446.106 20.5581 444.912 20.1459 443.977 19.3214C443.051 18.4877 442.588 17.4341 442.588 16.1607C442.588 14.6124 443.169 13.4123 444.331 12.5603C445.502 11.6991 447.145 11.2685 449.26 11.2685H451.711V10.1004C451.711 9.21177 451.448 8.50634 450.922 7.98414C450.395 7.45278 449.619 7.1871 448.593 7.1871C447.694 7.1871 446.941 7.41614 446.333 7.87421C445.725 8.33228 445.42 8.88654 445.42 9.537H442.888C442.888 8.79493 443.147 8.08034 443.664 7.39323C444.19 6.69697 444.899 6.14729 445.788 5.74419C446.687 5.34108 447.672 5.13953 448.743 5.13953C450.44 5.13953 451.77 5.57012 452.733 6.43129C453.695 7.2833 454.194 8.46054 454.23 9.963V16.8066C454.23 18.1716 454.403 19.2572 454.748 20.0634V20.2833H452.106ZM447.926 18.3457C448.716 18.3457 449.465 18.1395 450.173 17.7273C450.881 17.315 451.394 16.7791 451.711 16.1194V13.0687H449.737C446.651 13.0687 445.107 13.9803 445.107 15.8034C445.107 16.6004 445.371 17.2234 445.897 17.6723C446.424 18.1212 447.1 18.3457 447.926 18.3457Z" fill="black"/>
<path d="M470.625 13.0137C470.625 15.2766 470.112 17.0997 469.086 18.4831C468.06 19.8665 466.671 20.5581 464.919 20.5581C463.131 20.5581 461.724 19.9856 460.698 18.8404V26H458.179V5.41438H460.48L460.603 7.06342C461.629 5.78083 463.054 5.13953 464.879 5.13953C466.649 5.13953 468.047 5.8129 469.072 7.15962C470.107 8.50634 470.625 10.3798 470.625 12.7801V13.0137ZM468.106 12.7252C468.106 11.0486 467.752 9.72481 467.044 8.7537C466.336 7.78259 465.364 7.29704 464.13 7.29704C462.605 7.29704 461.461 7.97956 460.698 9.34461V16.4493C461.452 17.8051 462.605 18.4831 464.157 18.4831C465.364 18.4831 466.322 18.0021 467.03 17.0402C467.747 16.0691 468.106 14.6307 468.106 12.7252Z" fill="black"/>
<path d="M483.37 5.41438H485.889V20.2833H483.37V9.4408L476.575 20.2833H474.056V5.41438H476.575V16.2706L483.37 5.41438Z" fill="black"/>
<path d="M495.843 18.4831C496.741 18.4831 497.527 18.2082 498.198 17.6586C498.87 17.1089 499.242 16.4218 499.315 15.5973H501.698C501.652 16.4493 501.362 17.26 500.826 18.0296C500.291 18.7992 499.574 19.413 498.675 19.871C497.785 20.3291 496.841 20.5581 495.843 20.5581C493.836 20.5581 492.239 19.8848 491.05 18.5381C489.869 17.1822 489.279 15.3316 489.279 12.9863V12.5603C489.279 11.1128 489.543 9.82558 490.069 8.69873C490.596 7.57188 491.349 6.69697 492.33 6.074C493.319 5.45102 494.485 5.13953 495.829 5.13953C497.481 5.13953 498.852 5.63883 499.941 6.63742C501.04 7.63601 501.625 8.93235 501.698 10.5264H499.315C499.242 9.56448 498.879 8.7766 498.225 8.16279C497.581 7.53982 496.782 7.22833 495.829 7.22833C494.549 7.22833 493.555 7.69556 492.847 8.63002C492.148 9.55532 491.798 10.8975 491.798 12.6564V13.1374C491.798 14.8506 492.148 16.1698 492.847 17.0951C493.546 18.0204 494.544 18.4831 495.843 18.4831Z" fill="black"/>
<path d="M513.626 20.2833C513.481 19.9901 513.363 19.4679 513.272 18.7167C512.101 19.9443 510.703 20.5581 509.078 20.5581C507.625 20.5581 506.432 20.1459 505.497 19.3214C504.571 18.4877 504.108 17.4341 504.108 16.1607C504.108 14.6124 504.689 13.4123 505.851 12.5603C507.022 11.6991 508.665 11.2685 510.78 11.2685H513.231V10.1004C513.231 9.21177 512.968 8.50634 512.441 7.98414C511.915 7.45278 511.139 7.1871 510.113 7.1871C509.214 7.1871 508.461 7.41614 507.852 7.87421C507.244 8.33228 506.94 8.88654 506.94 9.537H504.407C504.407 8.79493 504.666 8.08034 505.184 7.39323C505.71 6.69697 506.418 6.14729 507.308 5.74419C508.206 5.34108 509.191 5.13953 510.263 5.13953C511.96 5.13953 513.29 5.57012 514.252 6.43129C515.214 7.2833 515.714 8.46054 515.75 9.963V16.8066C515.75 18.1716 515.922 19.2572 516.267 20.0634V20.2833H513.626ZM509.446 18.3457C510.235 18.3457 510.984 18.1395 511.692 17.7273C512.4 17.315 512.913 16.7791 513.231 16.1194V13.0687H511.257C508.17 13.0687 506.627 13.9803 506.627 15.8034C506.627 16.6004 506.89 17.2234 507.417 17.6723C507.943 18.1212 508.619 18.3457 509.446 18.3457Z" fill="black"/>
<path d="M542.261 10.9249C542.261 12.8855 541.935 14.5987 541.281 16.0645C540.627 17.5211 539.702 18.6342 538.503 19.4038C537.305 20.1734 535.907 20.5581 534.309 20.5581C532.748 20.5581 531.364 20.1734 530.156 19.4038C528.949 18.6251 528.009 17.5211 527.338 16.092C526.675 14.6536 526.335 12.9908 526.316 11.1036V9.66068C526.316 7.73679 526.648 6.03735 527.31 4.56237C527.973 3.08739 528.908 1.96054 530.115 1.18182C531.332 0.393939 532.721 0 534.282 0C535.871 0 537.269 0.389359 538.476 1.16808C539.692 1.93763 540.627 3.0599 541.281 4.53488C541.935 6.0007 542.261 7.7093 542.261 9.66068V10.9249ZM539.661 9.63319C539.661 7.26039 539.189 5.44186 538.245 4.17759C537.3 2.90416 535.98 2.26744 534.282 2.26744C532.63 2.26744 531.327 2.90416 530.374 4.17759C529.43 5.44186 528.944 7.20085 528.917 9.45455V10.9249C528.917 13.2245 529.394 15.0338 530.347 16.3531C531.309 17.6631 532.63 18.3182 534.309 18.3182C535.998 18.3182 537.305 17.6998 538.231 16.463C539.157 15.2171 539.633 13.4352 539.661 11.1173V9.63319Z" fill="black"/>
<path d="M555.306 7.51691H548.511V20.2833H545.979V5.41438H555.306V7.51691Z" fill="black"/>
<path d="M569.535 20.2833H567.016V13.9345H560.249V20.2833H557.716V5.41438H560.249V11.8594H567.016V5.41438H569.535V20.2833Z" fill="black"/>
<path d="M579.707 20.5581C577.71 20.5581 576.085 19.8985 574.832 18.5793C573.58 17.2509 572.953 15.4782 572.953 13.2611V12.7939C572.953 11.3189 573.23 10.0042 573.784 8.84989C574.347 7.6864 575.127 6.77942 576.126 6.12896C577.133 5.46934 578.223 5.13953 579.394 5.13953C581.309 5.13953 582.798 5.77625 583.86 7.04968C584.922 8.32311 585.453 10.1462 585.453 12.519V13.5772H575.472C575.509 15.043 575.931 16.2294 576.739 17.1364C577.556 18.0342 578.59 18.4831 579.843 18.4831C580.733 18.4831 581.486 18.2999 582.103 17.9334C582.721 17.5669 583.261 17.0814 583.724 16.4767L585.263 17.686C584.028 19.6008 582.176 20.5581 579.707 20.5581ZM579.394 7.22833C578.377 7.22833 577.524 7.60395 576.834 8.35518C576.144 9.09725 575.717 10.1416 575.554 11.4884H582.934V11.296C582.861 10.0042 582.517 9.00564 581.899 8.30021C581.282 7.58562 580.447 7.22833 579.394 7.22833Z" fill="black"/>
<path d="M600.418 20.2833H597.899V13.9345H591.131V20.2833H588.599V5.41438H591.131V11.8594H597.899V5.41438H600.418V20.2833Z" fill="black"/>
<path d="M616.513 20.2833H613.993V13.9345H607.226V20.2833H604.693V5.41438H607.226V11.8594H613.993V5.41438H616.513V20.2833Z" fill="black"/>
<path d="M629.666 20.2833C629.521 19.9901 629.403 19.4679 629.312 18.7167C628.141 19.9443 626.743 20.5581 625.118 20.5581C623.666 20.5581 622.472 20.1459 621.537 19.3214C620.611 18.4877 620.148 17.4341 620.148 16.1607C620.148 14.6124 620.729 13.4123 621.891 12.5603C623.062 11.6991 624.705 11.2685 626.82 11.2685H629.271V10.1004C629.271 9.21177 629.008 8.50634 628.481 7.98414C627.955 7.45278 627.179 7.1871 626.153 7.1871C625.254 7.1871 624.501 7.41614 623.893 7.87421C623.285 8.33228 622.98 8.88654 622.98 9.537H620.448C620.448 8.79493 620.706 8.08034 621.224 7.39323C621.75 6.69697 622.458 6.14729 623.348 5.74419C624.247 5.34108 625.232 5.13953 626.303 5.13953C628 5.13953 629.33 5.57012 630.292 6.43129C631.255 7.2833 631.754 8.46054 631.79 9.963V16.8066C631.79 18.1716 631.963 19.2572 632.308 20.0634V20.2833H629.666ZM625.486 18.3457C626.276 18.3457 627.025 18.1395 627.733 17.7273C628.441 17.315 628.954 16.7791 629.271 16.1194V13.0687H627.297C624.21 13.0687 622.667 13.9803 622.667 15.8034C622.667 16.6004 622.93 17.2234 623.457 17.6723C623.983 18.1212 624.66 18.3457 625.486 18.3457Z" fill="black"/>
<path d="M647 5.41438V20.2833H644.467V14.4979H640.668L637.196 20.2833H634.473L638.176 14.1131C637.232 13.765 636.506 13.229 635.998 12.5053C635.499 11.7724 635.249 10.9204 635.249 9.94926C635.249 8.59338 635.753 7.50317 636.76 6.67865C637.768 5.84496 639.116 5.42354 640.804 5.41438H647ZM637.782 9.97674C637.782 10.7005 638.027 11.2868 638.517 11.7357C639.007 12.1755 639.656 12.3999 640.464 12.4091H644.467V7.47569H640.845C639.91 7.47569 639.166 7.7093 638.612 8.17653C638.058 8.6346 637.782 9.23467 637.782 9.97674Z" fill="black"/>
<path d="M416.596 45.4503V53.2833H414V33.2748H421.261C423.415 33.2748 425.101 33.8337 426.318 34.9514C427.543 36.0691 428.156 37.5486 428.156 39.3901C428.156 41.3323 427.557 42.8302 426.358 43.8837C425.168 44.9281 423.46 45.4503 421.234 45.4503H416.596ZM416.596 43.2928H421.261C422.649 43.2928 423.713 42.963 424.452 42.3034C425.191 41.6346 425.56 40.6727 425.56 39.4175C425.56 38.2266 425.191 37.2738 424.452 36.5592C423.713 35.8446 422.698 35.4736 421.409 35.4461H416.596V43.2928Z" fill="black"/>
<path d="M436.959 53.5581C434.975 53.5581 433.362 52.8985 432.118 51.5793C430.874 50.2509 430.252 48.4782 430.252 46.2611V45.7939C430.252 44.3189 430.527 43.0042 431.077 41.8499C431.636 40.6864 432.411 39.7794 433.403 39.129C434.403 38.4693 435.485 38.1395 436.648 38.1395C438.55 38.1395 440.028 38.7763 441.082 40.0497C442.137 41.3231 442.664 43.1462 442.664 45.519V46.5772H432.754C432.79 48.043 433.209 49.2294 434.011 50.1364C434.822 51.0342 435.85 51.4831 437.094 51.4831C437.977 51.4831 438.725 51.2999 439.338 50.9334C439.951 50.5669 440.488 50.0814 440.947 49.4767L442.475 50.686C441.249 52.6008 439.41 53.5581 436.959 53.5581ZM436.648 40.2283C435.638 40.2283 434.791 40.6039 434.106 41.3552C433.421 42.0973 432.997 43.1416 432.835 44.4884H440.163V44.296C440.091 43.0042 439.748 42.0056 439.135 41.3002C438.522 40.5856 437.693 40.2283 436.648 40.2283Z" fill="black"/>
<path d="M445.45 51.2082L446.315 50.1226C447.289 48.84 447.843 46.9161 447.978 44.351L448.208 38.4144H457.632V51.2082H459.511V57.6533H457.01V53.2833H446.802V57.6533H444.3L444.314 51.2082H445.45ZM448.411 51.2082H455.131V40.7643H450.628L450.479 44.3097C450.326 47.2689 449.637 49.5684 448.411 51.2082Z" fill="black"/>
<path d="M471.315 53.2833C471.171 52.9901 471.054 52.4679 470.964 51.7167C469.801 52.9443 468.413 53.5581 466.799 53.5581C465.357 53.5581 464.172 53.1459 463.243 52.3214C462.324 51.4877 461.864 50.4341 461.864 49.1607C461.864 47.6124 462.441 46.4123 463.595 45.5603C464.758 44.6991 466.389 44.2685 468.489 44.2685H470.923V43.1004C470.923 42.2118 470.662 41.5063 470.139 40.9841C469.616 40.4528 468.845 40.1871 467.827 40.1871C466.934 40.1871 466.186 40.4161 465.582 40.8742C464.978 41.3323 464.676 41.8865 464.676 42.537H462.162C462.162 41.7949 462.418 41.0803 462.932 40.3932C463.455 39.697 464.158 39.1473 465.042 38.7442C465.934 38.3411 466.912 38.1395 467.976 38.1395C469.661 38.1395 470.982 38.5701 471.937 39.4313C472.893 40.2833 473.388 41.4605 473.425 42.963V49.8066C473.425 51.1716 473.596 52.2572 473.938 53.0634V53.2833H471.315ZM467.164 51.3457C467.949 51.3457 468.692 51.1395 469.395 50.7273C470.098 50.315 470.608 49.7791 470.923 49.1194V46.0687H468.963C465.898 46.0687 464.366 46.9803 464.366 48.8034C464.366 49.6004 464.627 50.2234 465.15 50.6723C465.673 51.1212 466.344 51.3457 467.164 51.3457Z" fill="black"/>
<path d="M481.902 46.9482H480.077V53.2833H477.562V38.4144H480.077V44.7082H481.713L486.634 38.4144H489.663L483.876 45.5603L490.15 53.2833H486.973L481.902 46.9482Z" fill="black"/>
<path d="M503.171 40.4757H498.263V53.2833H495.761V40.4757H490.948V38.4144H503.171V40.4757Z" fill="black"/>
<path d="M504.374 45.7114C504.374 44.2548 504.653 42.9447 505.212 41.7812C505.78 40.6177 506.564 39.7199 507.565 39.0877C508.574 38.4556 509.724 38.1395 511.013 38.1395C513.005 38.1395 514.614 38.8404 515.84 40.2421C517.075 41.6438 517.692 43.5081 517.692 45.8351V46.0137C517.692 47.4612 517.417 48.7622 516.867 49.9165C516.326 51.0617 515.547 51.9549 514.528 52.5962C513.519 53.2375 512.356 53.5581 511.04 53.5581C509.057 53.5581 507.448 52.8573 506.213 51.4556C504.987 50.0539 504.374 48.1987 504.374 45.8901V45.7114ZM506.889 46.0137C506.889 47.6628 507.263 48.9866 508.011 49.9852C508.768 50.9838 509.778 51.4831 511.04 51.4831C512.311 51.4831 513.32 50.9792 514.068 49.9715C514.817 48.9545 515.191 47.5345 515.191 45.7114C515.191 44.0807 514.808 42.7615 514.041 41.7537C513.284 40.7368 512.275 40.2283 511.013 40.2283C509.778 40.2283 508.782 40.7276 508.025 41.7262C507.267 42.7248 506.889 44.154 506.889 46.0137Z" fill="black"/>
<path d="M533.187 46.0137C533.187 48.2766 532.678 50.0997 531.659 51.4831C530.641 52.8665 529.262 53.5581 527.522 53.5581C525.746 53.5581 524.349 52.9856 523.33 51.8404V59H520.829V38.4144H523.114L523.236 40.0634C524.254 38.7808 525.669 38.1395 527.481 38.1395C529.239 38.1395 530.627 38.8129 531.646 40.1596C532.673 41.5063 533.187 43.3798 533.187 45.7801V46.0137ZM530.686 45.7252C530.686 44.0486 530.334 42.7248 529.631 41.7537C528.928 40.7826 527.964 40.297 526.738 40.297C525.223 40.297 524.088 40.9796 523.33 42.3446V49.4493C524.078 50.8051 525.223 51.4831 526.765 51.4831C527.964 51.4831 528.914 51.0021 529.618 50.0402C530.33 49.0691 530.686 47.6307 530.686 45.7252Z" fill="black"/>
<path d="M555.199 53.2833H552.698V46.9345H545.978V53.2833H543.463V38.4144H545.978V44.8594H552.698V38.4144H555.199V53.2833Z" fill="black"/>
<path d="M558.566 45.7114C558.566 44.2548 558.845 42.9447 559.404 41.7812C559.972 40.6177 560.756 39.7199 561.757 39.0877C562.766 38.4556 563.916 38.1395 565.205 38.1395C567.197 38.1395 568.806 38.8404 570.032 40.2421C571.267 41.6438 571.884 43.5081 571.884 45.8351V46.0137C571.884 47.4612 571.609 48.7622 571.059 49.9165C570.518 51.0617 569.739 51.9549 568.72 52.5962C567.711 53.2375 566.548 53.5581 565.232 53.5581C563.249 53.5581 561.64 52.8573 560.405 51.4556C559.179 50.0539 558.566 48.1987 558.566 45.8901V45.7114ZM561.081 46.0137C561.081 47.6628 561.455 48.9866 562.203 49.9852C562.96 50.9838 563.97 51.4831 565.232 51.4831C566.503 51.4831 567.512 50.9792 568.26 49.9715C569.009 48.9545 569.383 47.5345 569.383 45.7114C569.383 44.0807 569 42.7615 568.233 41.7537C567.476 40.7368 566.467 40.2283 565.205 40.2283C563.97 40.2283 562.974 40.7276 562.217 41.7262C561.459 42.7248 561.081 44.154 561.081 46.0137Z" fill="black"/>
<path d="M575.251 53.2833V38.4144H580.957C582.904 38.4144 584.395 38.7625 585.432 39.4588C586.478 40.1459 587 41.1582 587 42.4958C587 43.1829 586.798 43.8058 586.392 44.3647C585.986 44.9144 585.387 45.3358 584.594 45.629C585.477 45.8397 586.185 46.2519 586.717 46.8658C587.257 47.4796 587.528 48.2125 587.528 49.0645C587.528 50.4295 587.032 51.4739 586.04 52.1977C585.058 52.9214 583.665 53.2833 581.862 53.2833H575.251ZM577.752 46.7558V51.2357H581.89C582.935 51.2357 583.715 51.0388 584.229 50.6448C584.751 50.2509 585.013 49.6966 585.013 48.982C585.013 47.4979 583.94 46.7558 581.795 46.7558H577.752ZM577.752 44.722H580.984C583.327 44.722 584.499 44.0257 584.499 42.6332C584.499 41.2407 583.39 40.5215 581.173 40.4757H577.752V44.722Z" fill="black"/>
<path d="M590.178 45.7114C590.178 44.2548 590.457 42.9447 591.016 41.7812C591.584 40.6177 592.368 39.7199 593.369 39.0877C594.378 38.4556 595.528 38.1395 596.817 38.1395C598.809 38.1395 600.418 38.8404 601.644 40.2421C602.879 41.6438 603.496 43.5081 603.496 45.8351V46.0137C603.496 47.4612 603.221 48.7622 602.671 49.9165C602.13 51.0617 601.351 51.9549 600.332 52.5962C599.323 53.2375 598.16 53.5581 596.844 53.5581C594.861 53.5581 593.252 52.8573 592.017 51.4556C590.791 50.0539 590.178 48.1987 590.178 45.8901V45.7114ZM592.693 46.0137C592.693 47.6628 593.067 48.9866 593.815 49.9852C594.572 50.9838 595.582 51.4831 596.844 51.4831C598.115 51.4831 599.124 50.9792 599.872 49.9715C600.621 48.9545 600.995 47.5345 600.995 45.7114C600.995 44.0807 600.612 42.7615 599.845 41.7537C599.088 40.7368 598.079 40.2283 596.817 40.2283C595.582 40.2283 594.586 40.7276 593.829 41.7262C593.071 42.7248 592.693 44.154 592.693 46.0137Z" fill="black"/>
<path d="M612.501 51.4831C613.393 51.4831 614.173 51.2082 614.84 50.6586C615.507 50.1089 615.877 49.4218 615.949 48.5973H618.315C618.27 49.4493 617.981 50.26 617.45 51.0296C616.918 51.7992 616.206 52.413 615.313 52.871C614.43 53.3291 613.492 53.5581 612.501 53.5581C610.509 53.5581 608.922 52.8848 607.742 51.5381C606.57 50.1822 605.984 48.3316 605.984 45.9863V45.5603C605.984 44.1128 606.245 42.8256 606.768 41.6987C607.291 40.5719 608.039 39.697 609.013 39.074C609.995 38.451 611.153 38.1395 612.487 38.1395C614.128 38.1395 615.489 38.6388 616.571 39.6374C617.661 40.636 618.243 41.9323 618.315 43.5264H615.949C615.877 42.5645 615.516 41.7766 614.867 41.1628C614.227 40.5398 613.434 40.2283 612.487 40.2283C611.216 40.2283 610.229 40.6956 609.526 41.63C608.832 42.5553 608.485 43.8975 608.485 45.6564V46.1374C608.485 47.8506 608.832 49.1698 609.526 50.0951C610.22 51.0204 611.212 51.4831 612.501 51.4831Z" fill="black"/>
<path d="M631.998 40.4757H627.09V53.2833H624.589V40.4757H619.775V38.4144H631.998V40.4757Z" fill="black"/>
<path d="M639.421 53.5581C637.438 53.5581 635.825 52.8985 634.581 51.5793C633.337 50.2509 632.715 48.4782 632.715 46.2611V45.7939C632.715 44.3189 632.99 43.0042 633.54 41.8499C634.098 40.6864 634.874 39.7794 635.865 39.129C636.866 38.4693 637.947 38.1395 639.11 38.1395C641.012 38.1395 642.49 38.7763 643.545 40.0497C644.6 41.3231 645.127 43.1462 645.127 45.519V46.5772H635.216C635.252 48.043 635.671 49.2294 636.474 50.1364C637.285 51.0342 638.312 51.4831 639.556 51.4831C640.44 51.4831 641.188 51.2999 641.801 50.9334C642.414 50.5669 642.95 50.0814 643.41 49.4767L644.938 50.686C643.712 52.6008 641.873 53.5581 639.421 53.5581ZM639.11 40.2283C638.101 40.2283 637.253 40.6039 636.568 41.3552C635.883 42.0973 635.46 43.1416 635.297 44.4884H642.626V44.296C642.553 43.0042 642.211 42.0056 641.598 41.3002C640.985 40.5856 640.156 40.2283 639.11 40.2283Z" fill="black"/>
<path d="M657.499 38.4144H660V53.2833H657.499V42.4408L650.752 53.2833H648.25V38.4144H650.752V49.2706L657.499 38.4144ZM658.175 33C658.175 34.1085 657.801 35.0018 657.052 35.6797C656.313 36.3485 655.34 36.6829 654.132 36.6829C652.924 36.6829 651.946 36.3439 651.198 35.666C650.45 34.988 650.076 34.0994 650.076 33H652.117C652.117 33.6413 652.289 34.1452 652.631 34.5116C652.974 34.8689 653.474 35.0476 654.132 35.0476C654.763 35.0476 655.254 34.8689 655.606 34.5116C655.966 34.1543 656.147 33.6505 656.147 33H658.175Z" fill="black"/>
<path d="M851.987 11.8501H849.595V20.6979H847V1H849.595V9.68546H851.622L858.502 1H861.732L854.217 10.5513L862.286 20.6979H859.11L851.987 11.8501Z" fill="black"/>
<path d="M876.261 6.05975V20.6979H873.747V8.12965H868.774L868.476 13.6088C868.314 16.1251 867.891 17.9245 867.206 19.0068C866.53 20.0891 865.453 20.6528 863.976 20.6979H862.975V18.4927L863.692 18.4386C864.503 18.3484 865.084 17.8794 865.435 17.0316C865.787 16.1838 866.012 14.6144 866.111 12.3236L866.381 6.05975H876.261Z" fill="black"/>
<path d="M889.304 20.6979C889.159 20.4092 889.042 19.8952 888.952 19.1556C887.79 20.3641 886.402 20.9684 884.789 20.9684C883.348 20.9684 882.163 20.5626 881.235 19.7508C880.316 18.9301 879.856 17.8929 879.856 16.6392C879.856 15.115 880.433 13.9335 881.586 13.0947C882.749 12.2469 884.379 11.823 886.479 11.823H888.912V10.6731C888.912 9.7982 888.65 9.10372 888.128 8.58963C887.605 8.06652 886.835 7.80496 885.817 7.80496C884.925 7.80496 884.177 8.03044 883.573 8.4814C882.969 8.93236 882.667 9.47801 882.667 10.1184H880.154C880.154 9.38782 880.41 8.68433 880.924 8.00789C881.447 7.32243 882.149 6.78128 883.032 6.38444C883.924 5.9876 884.902 5.78918 885.965 5.78918C887.65 5.78918 888.97 6.21308 889.925 7.06088C890.88 7.89966 891.376 9.05862 891.412 10.5378V17.2751C891.412 18.6189 891.583 19.6877 891.926 20.4814V20.6979H889.304ZM885.154 18.7903C885.938 18.7903 886.682 18.5874 887.384 18.1815C888.087 17.7756 888.596 17.248 888.912 16.5986V13.5953H886.952C883.888 13.5953 882.357 14.4927 882.357 16.2875C882.357 17.0722 882.618 17.6855 883.141 18.1274C883.663 18.5693 884.334 18.7903 885.154 18.7903Z" fill="black"/>
<path d="M895.561 20.6979V6.05975H901.265C903.211 6.05975 904.702 6.40248 905.738 7.08794C906.784 7.76437 907.306 8.76099 907.306 10.0778C907.306 10.7542 907.104 11.3675 906.698 11.9177C906.293 12.4588 905.693 12.8737 904.901 13.1623C905.784 13.3698 906.491 13.7756 907.022 14.3799C907.563 14.9842 907.833 15.7057 907.833 16.5445C907.833 17.8884 907.338 18.9166 906.347 19.6291C905.365 20.3416 903.972 20.6979 902.17 20.6979H895.561ZM898.062 14.2717V18.6821H902.197C903.243 18.6821 904.022 18.4882 904.536 18.1003C905.058 17.7125 905.32 17.1669 905.32 16.4634C905.32 15.0023 904.247 14.2717 902.103 14.2717H898.062ZM898.062 12.2694H901.292C903.635 12.2694 904.806 11.584 904.806 10.2131C904.806 8.84216 903.698 8.13416 901.481 8.08906H898.062V12.2694Z" fill="black"/>
<path d="M911.023 18.655L911.888 17.5862C912.861 16.3236 913.415 14.4295 913.55 11.9042L913.78 6.05975H923.201V18.655H925.079V25H922.579V20.6979H912.375V25H909.874L909.888 18.655H911.023ZM913.983 18.655H920.7V8.37317H916.2L916.051 11.8636C915.898 14.7768 915.208 17.0406 913.983 18.655Z" fill="black"/>
<path d="M937.311 6.05975H939.811V20.6979H937.311V10.0237L930.567 20.6979H928.066V6.05975H930.567V16.7475L937.311 6.05975Z" fill="black"/>
<path d="M955.003 6.05975V20.6979H952.489V15.0023H948.718L945.271 20.6979H942.568L946.245 14.6234C945.307 14.2807 944.587 13.7531 944.082 13.0406C943.586 12.3191 943.339 11.4803 943.339 10.5242C943.339 9.1894 943.839 8.11612 944.839 7.3044C945.839 6.48365 947.177 6.06877 948.853 6.05975H955.003ZM945.853 10.5513C945.853 11.2638 946.096 11.841 946.582 12.283C947.069 12.7159 947.713 12.9369 948.515 12.9459H952.489V8.08906H948.894C947.966 8.08906 947.227 8.31905 946.677 8.77903C946.127 9.22999 945.853 9.82074 945.853 10.5513Z" fill="black"/>
<path d="M981.155 1V20.6979H978.56V3.13754H971.505L971.154 10.9436C971.019 13.5592 970.748 15.5254 970.343 16.8422C969.946 18.159 969.361 19.1285 968.586 19.7508C967.811 20.3641 966.775 20.6798 965.477 20.6979H964.626V18.5738L965.166 18.5468C966.004 18.4837 966.648 18.2131 967.099 17.7351C967.55 17.248 967.892 16.4769 968.126 15.4216C968.36 14.3664 968.527 12.743 968.626 10.5513L969.032 1H981.155Z" fill="black"/>
<path d="M994.508 20.6979C994.364 20.4092 994.247 19.8952 994.157 19.1556C992.995 20.3641 991.607 20.9684 989.994 20.9684C988.553 20.9684 987.368 20.5626 986.44 19.7508C985.521 18.9301 985.061 17.8929 985.061 16.6392C985.061 15.115 985.638 13.9335 986.791 13.0947C987.953 12.2469 989.584 11.823 991.684 11.823H994.117V10.6731C994.117 9.7982 993.855 9.10372 993.333 8.58963C992.81 8.06652 992.04 7.80496 991.021 7.80496C990.129 7.80496 989.382 8.03044 988.778 8.4814C988.174 8.93236 987.872 9.47801 987.872 10.1184H985.358C985.358 9.38782 985.615 8.68433 986.129 8.00789C986.651 7.32243 987.354 6.78128 988.237 6.38444C989.129 5.9876 990.107 5.78918 991.17 5.78918C992.855 5.78918 994.175 6.21308 995.13 7.06088C996.085 7.89966 996.581 9.05862 996.617 10.5378V17.2751C996.617 18.6189 996.788 19.6877 997.131 20.4814V20.6979H994.508ZM990.359 18.7903C991.143 18.7903 991.886 18.5874 992.589 18.1815C993.292 17.7756 993.801 17.248 994.117 16.5986V13.5953H992.157C989.093 13.5953 987.562 14.4927 987.562 16.2875C987.562 17.0722 987.823 17.6855 988.345 18.1274C988.868 18.5693 989.539 18.7903 990.359 18.7903Z" fill="black"/>
<path d="M1000.77 20.6979V6.05975H1006.47C1008.42 6.05975 1009.91 6.40248 1010.94 7.08794C1011.99 7.76437 1012.51 8.76099 1012.51 10.0778C1012.51 10.7542 1012.31 11.3675 1011.9 11.9177C1011.5 12.4588 1010.9 12.8737 1010.11 13.1623C1010.99 13.3698 1011.7 13.7756 1012.23 14.3799C1012.77 14.9842 1013.04 15.7057 1013.04 16.5445C1013.04 17.8884 1012.54 18.9166 1011.55 19.6291C1010.57 20.3416 1009.18 20.6979 1007.38 20.6979H1000.77ZM1003.27 14.2717V18.6821H1007.4C1008.45 18.6821 1009.23 18.4882 1009.74 18.1003C1010.26 17.7125 1010.52 17.1669 1010.52 16.4634C1010.52 15.0023 1009.45 14.2717 1007.31 14.2717H1003.27ZM1003.27 12.2694H1006.5C1008.84 12.2694 1010.01 11.584 1010.01 10.2131C1010.01 8.84216 1008.9 8.13416 1006.69 8.08906H1003.27V12.2694Z" fill="black"/>
<path d="M1025.38 20.6979C1025.23 20.4092 1025.12 19.8952 1025.03 19.1556C1023.86 20.3641 1022.48 20.9684 1020.86 20.9684C1019.42 20.9684 1018.24 20.5626 1017.31 19.7508C1016.39 18.9301 1015.93 17.8929 1015.93 16.6392C1015.93 15.115 1016.51 13.9335 1017.66 13.0947C1018.82 12.2469 1020.45 11.823 1022.55 11.823H1024.99V10.6731C1024.99 9.7982 1024.72 9.10372 1024.2 8.58963C1023.68 8.06652 1022.91 7.80496 1021.89 7.80496C1021 7.80496 1020.25 8.03044 1019.65 8.4814C1019.04 8.93236 1018.74 9.47801 1018.74 10.1184H1016.23C1016.23 9.38782 1016.48 8.68433 1017 8.00789C1017.52 7.32243 1018.22 6.78128 1019.11 6.38444C1020 5.9876 1020.98 5.78918 1022.04 5.78918C1023.72 5.78918 1025.04 6.21308 1026 7.06088C1026.95 7.89966 1027.45 9.05862 1027.49 10.5378V17.2751C1027.49 18.6189 1027.66 19.6877 1028 20.4814V20.6979H1025.38ZM1021.23 18.7903C1022.01 18.7903 1022.76 18.5874 1023.46 18.1815C1024.16 17.7756 1024.67 17.248 1024.99 16.5986V13.5953H1023.03C1019.96 13.5953 1018.43 14.4927 1018.43 16.2875C1018.43 17.0722 1018.69 17.6855 1019.21 18.1274C1019.74 18.5693 1020.41 18.7903 1021.23 18.7903Z" fill="black"/>
<path d="M817.701 44.0361H815.599V53.0606H813.011V44.0361H810.787L805.235 53.0606H802L808.604 42.6226L802.512 33.2718H805.571L810.787 41.8615H813.011V33.2718H815.599V41.8615H817.728L822.944 33.2718H825.989L819.898 42.609L826.502 53.0606H823.281L817.701 44.0361Z" fill="black"/>
<path d="M832.93 49.3774L836.326 38.3549H838.995L833.132 55.3304C832.225 57.7768 830.783 59 828.806 59L828.334 58.9592L827.405 58.7825V56.7439L828.078 56.7982C828.923 56.7982 829.579 56.6261 830.046 56.2818C830.522 55.9374 830.913 55.3077 831.219 54.3926L831.771 52.8975L826.569 38.3549H829.291L832.93 49.3774Z" fill="black"/>
<path d="M853.55 45.8709C853.55 48.1089 853.043 49.912 852.027 51.2802C851.012 52.6484 849.637 53.3325 847.903 53.3325C846.133 53.3325 844.741 52.7662 843.725 51.6336V58.7146H841.232V38.3549H843.51L843.631 39.9859C844.646 38.7174 846.057 38.0831 847.863 38.0831C849.615 38.0831 850.999 38.7491 852.014 40.081C853.038 41.413 853.55 43.2659 853.55 45.6398V45.8709ZM851.057 45.5855C851.057 43.9273 850.707 42.6181 850.006 41.6576C849.305 40.6972 848.344 40.2169 847.122 40.2169C845.612 40.2169 844.48 40.892 843.725 42.242V49.2687C844.471 50.6097 845.612 51.2802 847.149 51.2802C848.344 51.2802 849.292 50.8045 849.992 49.8531C850.702 48.8927 851.057 47.4701 851.057 45.5855Z" fill="black"/>
<path d="M868.645 53.0606H866.152V46.7815H859.453V53.0606H856.947V38.3549H859.453V44.7292H866.152V38.3549H868.645V53.0606Z" fill="black"/>
<path d="M881.664 53.0606C881.52 52.7707 881.403 52.2542 881.313 51.5112C880.154 52.7254 878.771 53.3325 877.162 53.3325C875.725 53.3325 874.543 52.9247 873.618 52.1093C872.702 51.2847 872.243 50.2427 872.243 48.9833C872.243 47.452 872.818 46.265 873.968 45.4224C875.127 44.5707 876.754 44.1448 878.847 44.1448H881.273V42.9895C881.273 42.1106 881.012 41.413 880.491 40.8965C879.97 40.371 879.202 40.1082 878.187 40.1082C877.297 40.1082 876.552 40.3347 875.95 40.7878C875.348 41.2408 875.047 41.789 875.047 42.4323H872.54C872.54 41.6984 872.796 40.9916 873.308 40.3121C873.829 39.6235 874.53 39.0798 875.41 38.6811C876.3 38.2825 877.275 38.0831 878.335 38.0831C880.015 38.0831 881.331 38.509 882.284 39.3607C883.236 40.2033 883.73 41.3677 883.766 42.8536V49.6221C883.766 50.9721 883.937 52.0458 884.278 52.8432V53.0606H881.664ZM877.526 51.1443C878.308 51.1443 879.049 50.9404 879.75 50.5327C880.451 50.1249 880.959 49.5949 881.273 48.9425V45.9252H879.319C876.264 45.9252 874.737 46.8268 874.737 48.6299C874.737 49.4182 874.997 50.0343 875.518 50.4783C876.039 50.9223 876.709 51.1443 877.526 51.1443Z" fill="black"/>
<path d="M899.629 38.3549V53.0606H897.122V40.4344H892.163L891.866 45.9388C891.704 48.4668 891.282 50.2744 890.599 51.3617C889.925 52.449 888.852 53.0153 887.378 53.0606H886.381V50.8453L887.095 50.7909C887.904 50.7003 888.483 50.2291 888.834 49.3774C889.184 48.5257 889.409 46.9491 889.508 44.6477L889.777 38.3549H899.629Z" fill="black"/>
<path d="M913.066 38.3549H915.559V53.0606H913.066V42.3372L906.341 53.0606H903.847V38.3549H906.341V49.092L913.066 38.3549Z" fill="black"/>
<path d="M925.411 51.2802C926.3 51.2802 927.078 51.0084 927.742 50.4647C928.407 49.9211 928.776 49.2415 928.848 48.426H931.206C931.161 49.2687 930.874 50.0706 930.344 50.8317C929.813 51.5928 929.104 52.1999 928.214 52.6529C927.334 53.1059 926.399 53.3325 925.411 53.3325C923.425 53.3325 921.844 52.6665 920.667 51.3346C919.499 49.9936 918.915 48.1633 918.915 45.8437V45.4224C918.915 43.9908 919.175 42.7177 919.697 41.6032C920.218 40.4888 920.963 39.6235 921.934 39.0073C922.913 38.3912 924.068 38.0831 925.397 38.0831C927.033 38.0831 928.389 38.5769 929.468 39.5646C930.555 40.5522 931.134 41.8343 931.206 43.4109H928.848C928.776 42.4595 928.416 41.6803 927.769 41.0732C927.132 40.457 926.341 40.149 925.397 40.149C924.131 40.149 923.147 40.6111 922.446 41.5353C921.754 42.4504 921.408 43.7778 921.408 45.5175V45.9932C921.408 47.6876 921.754 48.9923 922.446 49.9075C923.138 50.8226 924.126 51.2802 925.411 51.2802Z" fill="black"/>
<path d="M944.845 40.3936H939.953V53.0606H937.46V40.3936H932.662V38.3549H944.845V40.3936Z" fill="black"/>
<path d="M965.33 44.3215H957.096V53.0606H954.508V33.2718H966.665V35.4192H957.096V42.1877H965.33V44.3215Z" fill="black"/>
<path d="M972.083 53.0606H969.589V38.3549H972.083V53.0606ZM969.387 34.4543C969.387 34.0465 969.508 33.7022 969.751 33.4213C970.003 33.1404 970.371 33 970.856 33C971.341 33 971.71 33.1404 971.961 33.4213C972.213 33.7022 972.339 34.0465 972.339 34.4543C972.339 34.862 972.213 35.2018 971.961 35.4736C971.71 35.7454 971.341 35.8813 970.856 35.8813C970.371 35.8813 970.003 35.7454 969.751 35.4736C969.508 35.2018 969.387 34.862 969.387 34.4543Z" fill="black"/>
<path d="M983.134 40.6111C982.757 40.5477 982.348 40.5159 981.907 40.5159C980.272 40.5159 979.163 41.2182 978.579 42.6226V53.0606H976.085V38.3549H978.511L978.552 40.0538C979.369 38.74 980.528 38.0831 982.029 38.0831C982.514 38.0831 982.882 38.1465 983.134 38.2734V40.6111Z" fill="black"/>
<path d="M991.22 53.3325C989.244 53.3325 987.635 52.6801 986.395 51.3753C985.155 50.0615 984.536 48.3082 984.536 46.1155V45.6534C984.536 44.1946 984.81 42.8944 985.358 41.7527C985.915 40.602 986.687 39.705 987.676 39.0617C988.673 38.4093 989.751 38.0831 990.91 38.0831C992.806 38.0831 994.28 38.7128 995.331 39.9723C996.382 41.2317 996.908 43.0348 996.908 45.3816V46.4281H987.029C987.065 47.8779 987.483 49.0512 988.282 49.9482C989.091 50.8362 990.115 51.2802 991.355 51.2802C992.235 51.2802 992.981 51.099 993.592 50.7365C994.203 50.3741 994.738 49.8939 995.196 49.2959L996.719 50.4919C995.497 52.3856 993.664 53.3325 991.22 53.3325ZM990.91 40.149C989.904 40.149 989.059 40.5205 988.377 41.2635C987.694 41.9974 987.271 43.0303 987.11 44.3623H994.414V44.172C994.342 42.8944 994.001 41.9068 993.39 41.2091C992.779 40.5024 991.952 40.149 990.91 40.149Z" fill="black"/>
<path d="M1009.63 45.3136V53.0606H1007.04V33.2718H1014.28C1016.43 33.2718 1018.11 33.8245 1019.32 34.93C1020.54 36.0354 1021.15 37.4987 1021.15 39.3199C1021.15 41.2408 1020.56 42.7223 1019.36 43.7642C1018.17 44.7972 1016.47 45.3136 1014.25 45.3136H1009.63ZM1009.63 43.1798H1014.28C1015.66 43.1798 1016.72 42.8536 1017.46 42.2013C1018.2 41.5398 1018.57 40.5884 1018.57 39.3471C1018.57 38.1692 1018.2 37.2269 1017.46 36.5201C1016.72 35.8134 1015.71 35.4464 1014.43 35.4192H1009.63V43.1798Z" fill="black"/>
<path d="M1031.11 40.6111C1030.74 40.5477 1030.33 40.5159 1029.89 40.5159C1028.25 40.5159 1027.14 41.2182 1026.56 42.6226V53.0606H1024.06V38.3549H1026.49L1026.53 40.0538C1027.35 38.74 1028.51 38.0831 1030.01 38.0831C1030.49 38.0831 1030.86 38.1465 1031.11 38.2734V40.6111Z" fill="black"/>
<path d="M1039.2 53.3325C1037.22 53.3325 1035.61 52.6801 1034.37 51.3753C1033.13 50.0615 1032.51 48.3082 1032.51 46.1155V45.6534C1032.51 44.1946 1032.79 42.8944 1033.34 41.7527C1033.89 40.602 1034.67 39.705 1035.65 39.0617C1036.65 38.4093 1037.73 38.0831 1038.89 38.0831C1040.78 38.0831 1042.26 38.7128 1043.31 39.9723C1044.36 41.2317 1044.89 43.0348 1044.89 45.3816V46.4281H1035.01C1035.04 47.8779 1035.46 49.0512 1036.26 49.9482C1037.07 50.8362 1038.09 51.2802 1039.33 51.2802C1040.21 51.2802 1040.96 51.099 1041.57 50.7365C1042.18 50.3741 1042.72 49.8939 1043.17 49.2959L1044.7 50.4919C1043.48 52.3856 1041.64 53.3325 1039.2 53.3325ZM1038.89 40.149C1037.88 40.149 1037.04 40.5205 1036.36 41.2635C1035.67 41.9974 1035.25 43.0303 1035.09 44.3623H1042.39V44.172C1042.32 42.8944 1041.98 41.9068 1041.37 41.2091C1040.76 40.5024 1039.93 40.149 1038.89 40.149Z" fill="black"/>
<path d="M1056.27 49.16C1056.27 48.4804 1056.02 47.9549 1055.51 47.5834C1055 47.2028 1054.12 46.8766 1052.85 46.6048C1051.59 46.333 1050.59 46.0068 1049.85 45.6262C1049.11 45.2457 1048.56 44.7926 1048.2 44.2671C1047.85 43.7416 1047.68 43.1164 1047.68 42.3915C1047.68 41.1864 1048.18 40.1671 1049.19 39.3335C1050.2 38.4999 1051.49 38.0831 1053.07 38.0831C1054.72 38.0831 1056.06 38.5135 1057.08 39.3743C1058.12 40.2351 1058.63 41.3359 1058.63 42.6769H1056.13C1056.13 41.9883 1055.83 41.3948 1055.25 40.8965C1054.68 40.3982 1053.95 40.149 1053.07 40.149C1052.16 40.149 1051.45 40.3483 1050.94 40.747C1050.43 41.1457 1050.17 41.6667 1050.17 42.31C1050.17 42.9171 1050.41 43.3746 1050.88 43.6827C1051.36 43.9908 1052.22 44.2852 1053.46 44.5661C1054.71 44.847 1055.72 45.1823 1056.49 45.5719C1057.26 45.9615 1057.83 46.4327 1058.2 46.9854C1058.58 47.529 1058.77 48.195 1058.77 48.9833C1058.77 50.2971 1058.25 51.3527 1057.2 52.15C1056.16 52.9383 1054.81 53.3325 1053.15 53.3325C1051.98 53.3325 1050.95 53.1241 1050.05 52.7073C1049.15 52.2905 1048.44 51.7106 1047.93 50.9676C1047.43 50.2155 1047.18 49.4046 1047.18 48.5348H1049.67C1049.72 49.3774 1050.05 50.0479 1050.67 50.5463C1051.3 51.0355 1052.12 51.2802 1053.15 51.2802C1054.09 51.2802 1054.85 51.0899 1055.41 50.7094C1055.99 50.3197 1056.27 49.8033 1056.27 49.16Z" fill="black"/>
<path d="M1070.51 49.16C1070.51 48.4804 1070.25 47.9549 1069.74 47.5834C1069.24 47.2028 1068.35 46.8766 1067.08 46.6048C1065.83 46.333 1064.82 46.0068 1064.08 45.6262C1063.34 45.2457 1062.79 44.7926 1062.43 44.2671C1062.08 43.7416 1061.91 43.1164 1061.91 42.3915C1061.91 41.1864 1062.41 40.1671 1063.42 39.3335C1064.43 38.4999 1065.73 38.0831 1067.3 38.0831C1068.95 38.0831 1070.29 38.5135 1071.32 39.3743C1072.35 40.2351 1072.87 41.3359 1072.87 42.6769H1070.36C1070.36 41.9883 1070.07 41.3948 1069.48 40.8965C1068.91 40.3982 1068.18 40.149 1067.3 40.149C1066.39 40.149 1065.68 40.3483 1065.17 40.747C1064.66 41.1457 1064.4 41.6667 1064.4 42.31C1064.4 42.9171 1064.64 43.3746 1065.12 43.6827C1065.59 43.9908 1066.45 44.2852 1067.69 44.5661C1068.94 44.847 1069.95 45.1823 1070.72 45.5719C1071.5 45.9615 1072.07 46.4327 1072.43 46.9854C1072.81 47.529 1073 48.195 1073 48.9833C1073 50.2971 1072.48 51.3527 1071.44 52.15C1070.39 52.9383 1069.04 53.3325 1067.38 53.3325C1066.21 53.3325 1065.18 53.1241 1064.28 52.7073C1063.38 52.2905 1062.68 51.7106 1062.16 50.9676C1061.66 50.2155 1061.41 49.4046 1061.41 48.5348H1063.9C1063.95 49.3774 1064.28 50.0479 1064.9 50.5463C1065.53 51.0355 1066.36 51.2802 1067.38 51.2802C1068.32 51.2802 1069.08 51.0899 1069.64 50.7094C1070.22 50.3197 1070.51 49.8033 1070.51 49.16Z" fill="black"/>
<path d="M1184.82 11.0361H1182.7V20.0606H1180.09V11.0361H1177.85L1172.26 20.0606H1169L1175.65 9.62258L1169.52 0.271824H1172.6L1177.85 8.86147H1180.09V0.271824H1182.7V8.86147H1184.84L1190.1 0.271824H1193.17L1187.03 9.60899L1193.68 20.0606H1190.44L1184.82 11.0361Z" fill="black"/>
<path d="M1200.16 16.3774L1203.58 5.35494H1206.27L1200.36 22.3304C1199.45 24.7768 1198 26 1196 26L1195.53 25.9592L1194.59 25.7825V23.7439L1195.27 23.7982C1196.12 23.7982 1196.78 23.6261 1197.25 23.2818C1197.73 22.9374 1198.13 22.3077 1198.43 21.3926L1198.99 19.8975L1193.75 5.35494H1196.49L1200.16 16.3774Z" fill="black"/>
<path d="M1220.93 12.8709C1220.93 15.1089 1220.42 16.912 1219.4 18.2802C1218.37 19.6484 1216.99 20.3325 1215.24 20.3325C1213.46 20.3325 1212.06 19.7662 1211.03 18.6336V25.7146H1208.52V5.35494H1210.82L1210.94 6.98589C1211.96 5.71737 1213.38 5.08312 1215.2 5.08312C1216.97 5.08312 1218.36 5.74909 1219.38 7.08102C1220.41 8.41296 1220.93 10.2659 1220.93 12.6398V12.8709ZM1218.42 12.5855C1218.42 10.9273 1218.07 9.61805 1217.36 8.65761C1216.65 7.69716 1215.69 7.21694 1214.45 7.21694C1212.93 7.21694 1211.79 7.89197 1211.03 9.24203V16.2687C1211.78 17.6097 1212.93 18.2802 1214.48 18.2802C1215.69 18.2802 1216.64 17.8045 1217.35 16.8531C1218.06 15.8927 1218.42 14.4701 1218.42 12.5855Z" fill="black"/>
<path d="M1236.14 20.0606H1233.63V13.7815H1226.88V20.0606H1224.35V5.35494H1226.88V11.7292H1233.63V5.35494H1236.14V20.0606Z" fill="black"/>
<path d="M1249.25 20.0606C1249.11 19.7707 1248.99 19.2542 1248.9 18.5112C1247.73 19.7254 1246.34 20.3325 1244.72 20.3325C1243.27 20.3325 1242.08 19.9247 1241.15 19.1093C1240.22 18.2847 1239.76 17.2427 1239.76 15.9833C1239.76 14.452 1240.34 13.265 1241.5 12.4224C1242.67 11.5707 1244.31 11.1448 1246.41 11.1448H1248.86V9.98955C1248.86 9.11065 1248.6 8.41296 1248.07 7.8965C1247.55 7.37097 1246.77 7.10821 1245.75 7.10821C1244.85 7.10821 1244.1 7.33473 1243.5 7.78777C1242.89 8.24081 1242.59 8.78899 1242.59 9.43231H1240.06C1240.06 8.69838 1240.32 7.99164 1240.83 7.31208C1241.36 6.62345 1242.07 6.0798 1242.95 5.68113C1243.85 5.28245 1244.83 5.08312 1245.9 5.08312C1247.59 5.08312 1248.92 5.50897 1249.88 6.36069C1250.84 7.20335 1251.33 8.36766 1251.37 9.85363V16.6221C1251.37 17.9721 1251.54 19.0458 1251.89 19.8432V20.0606H1249.25ZM1245.08 18.1443C1245.87 18.1443 1246.62 17.9404 1247.32 17.5327C1248.03 17.1249 1248.54 16.5949 1248.86 15.9425V12.9252H1246.89C1243.81 12.9252 1242.27 13.8268 1242.27 15.6299C1242.27 16.4182 1242.54 17.0343 1243.06 17.4783C1243.59 17.9223 1244.26 18.1443 1245.08 18.1443Z" fill="black"/>
<path d="M1267.35 5.35494V20.0606H1264.82V7.4344H1259.83L1259.53 12.9388C1259.37 15.4668 1258.94 17.2744 1258.25 18.3617C1257.57 19.449 1256.49 20.0153 1255.01 20.0606H1254V17.8453L1254.72 17.7909C1255.54 17.7003 1256.12 17.2291 1256.47 16.3774C1256.83 15.5257 1257.05 13.9491 1257.15 11.6477L1257.42 5.35494H1267.35Z" fill="black"/>
<path d="M1280.89 5.35494H1283.4V20.0606H1280.89V9.33717L1274.11 20.0606H1271.6V5.35494H1274.11V16.092L1280.89 5.35494Z" fill="black"/>
<path d="M1293.32 18.2802C1294.22 18.2802 1295 18.0084 1295.67 17.4647C1296.34 16.9211 1296.71 16.2415 1296.78 15.426H1299.16C1299.11 16.2687 1298.82 17.0706 1298.29 17.8317C1297.76 18.5928 1297.04 19.1999 1296.15 19.6529C1295.26 20.1059 1294.32 20.3325 1293.32 20.3325C1291.32 20.3325 1289.73 19.6665 1288.54 18.3346C1287.37 16.9936 1286.78 15.1633 1286.78 12.8437V12.4224C1286.78 10.9908 1287.04 9.71772 1287.57 8.60324C1288.09 7.48876 1288.84 6.62345 1289.82 6.00732C1290.81 5.39118 1291.97 5.08312 1293.31 5.08312C1294.96 5.08312 1296.32 5.57693 1297.41 6.56456C1298.5 7.55219 1299.09 8.83429 1299.16 10.4109H1296.78C1296.71 9.45949 1296.35 8.68026 1295.7 8.07318C1295.06 7.45705 1294.26 7.14898 1293.31 7.14898C1292.03 7.14898 1291.04 7.61108 1290.33 8.53528C1289.64 9.45043 1289.29 10.7778 1289.29 12.5175V12.9932C1289.29 14.6876 1289.64 15.9923 1290.33 16.9075C1291.03 17.8226 1292.03 18.2802 1293.32 18.2802Z" fill="black"/>
<path d="M1312.9 7.39362H1307.97V20.0606H1305.46V7.39362H1300.63V5.35494H1312.9V7.39362Z" fill="black"/>
<path d="M1333.54 11.3215H1325.24V20.0606H1322.63V0.271824H1334.88V2.41924H1325.24V9.18766H1333.54V11.3215Z" fill="black"/>
<path d="M1340.34 20.0606H1337.83V5.35494H1340.34V20.0606ZM1337.62 1.45426C1337.62 1.04652 1337.74 0.702213 1337.99 0.421328C1338.24 0.140443 1338.61 0 1339.1 0C1339.59 0 1339.96 0.140443 1340.22 0.421328C1340.47 0.702213 1340.6 1.04652 1340.6 1.45426C1340.6 1.862 1340.47 2.20178 1340.22 2.4736C1339.96 2.74543 1339.59 2.88134 1339.1 2.88134C1338.61 2.88134 1338.24 2.74543 1337.99 2.4736C1337.74 2.20178 1337.62 1.862 1337.62 1.45426Z" fill="black"/>
<path d="M1351.47 7.61108C1351.09 7.54766 1350.68 7.51594 1350.24 7.51594C1348.59 7.51594 1347.47 8.21816 1346.88 9.62258V20.0606H1344.37V5.35494H1346.81L1346.85 7.05384C1347.68 5.74002 1348.85 5.08312 1350.36 5.08312C1350.85 5.08312 1351.22 5.14654 1351.47 5.27339V7.61108Z" fill="black"/>
<path d="M1359.62 20.3325C1357.63 20.3325 1356.01 19.6801 1354.76 18.3753C1353.51 17.0615 1352.88 15.3082 1352.88 13.1155V12.6534C1352.88 11.1946 1353.16 9.89441 1353.71 8.75274C1354.27 7.60202 1355.05 6.705 1356.05 6.06168C1357.05 5.40931 1358.14 5.08312 1359.3 5.08312C1361.21 5.08312 1362.7 5.71284 1363.76 6.97229C1364.82 8.23175 1365.35 10.0348 1365.35 12.3816V13.4281H1355.39C1355.43 14.8779 1355.85 16.0512 1356.66 16.9482C1357.47 17.8362 1358.5 18.2802 1359.75 18.2802C1360.64 18.2802 1361.39 18.099 1362.01 17.7365C1362.62 17.3741 1363.16 16.8939 1363.62 16.2959L1365.16 17.4919C1363.93 19.3856 1362.08 20.3325 1359.62 20.3325ZM1359.3 7.14898C1358.29 7.14898 1357.44 7.52047 1356.75 8.26346C1356.06 8.99739 1355.64 10.0303 1355.48 11.3623H1362.83V11.172C1362.76 9.89441 1362.42 8.90678 1361.8 8.2091C1361.19 7.50235 1360.35 7.14898 1359.3 7.14898Z" fill="black"/>
<path d="M1378.16 12.3136V20.0606H1375.56V0.271824H1382.85C1385.01 0.271824 1386.7 0.824534 1387.92 1.92995C1389.15 3.03537 1389.77 4.49869 1389.77 6.31992C1389.77 8.24081 1389.17 9.72225 1387.96 10.7642C1386.77 11.7972 1385.05 12.3136 1382.82 12.3136H1378.16ZM1378.16 10.1798H1382.85C1384.24 10.1798 1385.31 9.85363 1386.05 9.20125C1386.79 8.53982 1387.16 7.58843 1387.16 6.3471C1387.16 5.16919 1386.79 4.22687 1386.05 3.52013C1385.31 2.81338 1384.29 2.44642 1383 2.41924H1378.16V10.1798Z" fill="black"/>
<path d="M1399.8 7.61108C1399.42 7.54766 1399.01 7.51594 1398.57 7.51594C1396.92 7.51594 1395.8 8.21816 1395.21 9.62258V20.0606H1392.7V5.35494H1395.15L1395.19 7.05384C1396.01 5.74002 1397.18 5.08312 1398.69 5.08312C1399.18 5.08312 1399.55 5.14654 1399.8 5.27339V7.61108Z" fill="black"/>
<path d="M1407.95 20.3325C1405.96 20.3325 1404.34 19.6801 1403.09 18.3753C1401.84 17.0615 1401.22 15.3082 1401.22 13.1155V12.6534C1401.22 11.1946 1401.49 9.89441 1402.04 8.75274C1402.6 7.60202 1403.38 6.705 1404.38 6.06168C1405.38 5.40931 1406.47 5.08312 1407.64 5.08312C1409.55 5.08312 1411.03 5.71284 1412.09 6.97229C1413.15 8.23175 1413.68 10.0348 1413.68 12.3816V13.4281H1403.73C1403.76 14.8779 1404.18 16.0512 1404.99 16.9482C1405.8 17.8362 1406.84 18.2802 1408.09 18.2802C1408.97 18.2802 1409.72 18.099 1410.34 17.7365C1410.95 17.3741 1411.49 16.8939 1411.95 16.2959L1413.49 17.4919C1412.26 19.3856 1410.41 20.3325 1407.95 20.3325ZM1407.64 7.14898C1406.62 7.14898 1405.77 7.52047 1405.08 8.26346C1404.4 8.99739 1403.97 10.0303 1403.81 11.3623H1411.17V11.172C1411.09 9.89441 1410.75 8.90678 1410.14 8.2091C1409.52 7.50235 1408.69 7.14898 1407.64 7.14898Z" fill="black"/>
<path d="M1425.15 16.16C1425.15 15.4804 1424.89 14.9549 1424.38 14.5834C1423.87 14.2028 1422.98 13.8766 1421.7 13.6048C1420.44 13.333 1419.43 13.0068 1418.68 12.6262C1417.93 12.2457 1417.38 11.7926 1417.02 11.2671C1416.67 10.7416 1416.49 10.1164 1416.49 9.39153C1416.49 8.18644 1417 7.1671 1418.01 6.33351C1419.03 5.49991 1420.34 5.08312 1421.92 5.08312C1423.59 5.08312 1424.93 5.5135 1425.97 6.37428C1427.01 7.23506 1427.53 8.33595 1427.53 9.67695H1425C1425 8.98833 1424.71 8.39484 1424.12 7.8965C1423.54 7.39815 1422.81 7.14898 1421.92 7.14898C1421.01 7.14898 1420.29 7.34832 1419.77 7.74699C1419.26 8.14567 1419 8.66667 1419 9.30998C1419 9.91706 1419.24 10.3746 1419.72 10.6827C1420.2 10.9908 1421.06 11.2852 1422.31 11.5661C1423.57 11.847 1424.59 12.1823 1425.37 12.5719C1426.15 12.9615 1426.72 13.4327 1427.09 13.9854C1427.47 14.529 1427.66 15.195 1427.66 15.9833C1427.66 17.2971 1427.14 18.3527 1426.09 19.15C1425.04 19.9383 1423.68 20.3325 1422 20.3325C1420.82 20.3325 1419.78 20.1241 1418.88 19.7073C1417.97 19.2905 1417.26 18.7106 1416.75 17.9676C1416.24 17.2155 1415.99 16.4046 1415.99 15.5348H1418.5C1418.54 16.3774 1418.88 17.0479 1419.5 17.5463C1420.14 18.0355 1420.97 18.2802 1422 18.2802C1422.95 18.2802 1423.71 18.0899 1424.28 17.7094C1424.86 17.3197 1425.15 16.8033 1425.15 16.16Z" fill="black"/>
<path d="M1439.49 16.16C1439.49 15.4804 1439.23 14.9549 1438.71 14.5834C1438.21 14.2028 1437.32 13.8766 1436.04 13.6048C1434.77 13.333 1433.76 13.0068 1433.01 12.6262C1432.27 12.2457 1431.72 11.7926 1431.36 11.2671C1431 10.7416 1430.83 10.1164 1430.83 9.39153C1430.83 8.18644 1431.33 7.1671 1432.35 6.33351C1433.37 5.49991 1434.67 5.08312 1436.26 5.08312C1437.92 5.08312 1439.27 5.5135 1440.3 6.37428C1441.34 7.23506 1441.86 8.33595 1441.86 9.67695H1439.34C1439.34 8.98833 1439.04 8.39484 1438.46 7.8965C1437.88 7.39815 1437.14 7.14898 1436.26 7.14898C1435.34 7.14898 1434.63 7.34832 1434.11 7.74699C1433.6 8.14567 1433.34 8.66667 1433.34 9.30998C1433.34 9.91706 1433.58 10.3746 1434.06 10.6827C1434.54 10.9908 1435.4 11.2852 1436.65 11.5661C1437.91 11.847 1438.93 12.1823 1439.71 12.5719C1440.48 12.9615 1441.06 13.4327 1441.43 13.9854C1441.81 14.529 1442 15.195 1442 15.9833C1442 17.2971 1441.48 18.3527 1440.43 19.15C1439.38 19.9383 1438.01 20.3325 1436.34 20.3325C1435.16 20.3325 1434.12 20.1241 1433.22 19.7073C1432.31 19.2905 1431.6 18.7106 1431.08 17.9676C1430.58 17.2155 1430.32 16.4046 1430.32 15.5348H1432.84C1432.88 16.3774 1433.22 17.0479 1433.84 17.5463C1434.47 18.0355 1435.31 18.2802 1436.34 18.2802C1437.29 18.2802 1438.05 18.0899 1438.62 17.7094C1439.2 17.3197 1439.49 16.8033 1439.49 16.16Z" fill="black"/>
</svg>
