<svg width="69" height="14" viewBox="0 0 69 14" fill="none" xmlns="http://www.w3.org/2000/svg">
<path d="M1.73686 10.9987H2.71686L3.15086 8.52066H5.81086L5.39086 10.9987H6.37086L6.80486 8.52066H8.61086V7.55466H6.95886L7.47686 4.58666H9.15686V3.62066H7.64486L8.05086 1.19866H7.07086L6.65086 3.62066H3.99086L4.39686 1.19866H3.41686L2.99686 3.62066H1.17686V4.58666H2.84286L2.32486 7.55466H0.630859V8.52066H2.15686L1.73686 10.9987ZM3.31886 7.55466L3.82286 4.58666H6.48286L5.97886 7.55466H3.31886Z" fill="#231F20"/>
<path d="M11.4136 10.9987H12.4916V4.71266H14.7736V3.78866H12.4776V3.20066C12.4776 2.16466 12.8976 1.66066 13.7376 1.66066C14.1016 1.66066 14.3956 1.73066 14.7876 1.84266V0.904656C14.4376 0.778656 14.1016 0.722656 13.5976 0.722656C12.9396 0.722656 12.4076 0.918656 12.0436 1.28266C11.6376 1.68866 11.4136 2.31866 11.4136 3.14466V3.77466H10.4196V4.71266H11.4136V10.9987ZM16.2576 10.9987H17.3216V3.76066H16.2576V10.9987ZM16.1736 2.17866H17.4056V0.988656H16.1736V2.17866Z" fill="#231F20"/>
<path d="M19.8396 10.9987H20.9176V8.11466C20.9176 5.93066 22.2056 4.79666 23.7876 4.79666H23.8716V3.63466C22.4996 3.57866 21.4496 4.44666 20.9176 5.65066V3.76066H19.8396V10.9987Z" fill="#231F20"/>
<path d="M25.843 7.82066H31.583C31.597 7.65266 31.597 7.54066 31.597 7.44266C31.597 5.31466 30.365 3.60666 28.223 3.60666C26.221 3.60666 24.751 5.28666 24.751 7.38666C24.751 9.64066 26.375 11.1667 28.363 11.1667C29.735 11.1667 30.617 10.6207 31.345 9.80866L30.673 9.20666C30.085 9.82266 29.385 10.2287 28.391 10.2287C27.117 10.2287 25.997 9.34666 25.843 7.82066ZM25.843 6.95266C25.997 5.55266 26.949 4.51666 28.195 4.51666C29.623 4.51666 30.379 5.63666 30.505 6.95266H25.843Z" fill="#231F20"/>
<path d="M33.4842 13.2387H34.5622V9.61266C35.1222 10.4247 35.9902 11.1527 37.3342 11.1527C39.0842 11.1527 40.7922 9.75266 40.7922 7.38666C40.7922 4.97866 39.0702 3.60666 37.3342 3.60666C36.0042 3.60666 35.1502 4.34866 34.5622 5.21666V3.76066H33.4842V13.2387ZM37.1382 10.1867C35.7942 10.1867 34.5202 9.06666 34.5202 7.38666C34.5202 5.70666 35.7942 4.57266 37.1382 4.57266C38.5102 4.57266 39.6862 5.66466 39.6862 7.37266C39.6862 9.15066 38.5382 10.1867 37.1382 10.1867Z" fill="#231F20"/>
<path d="M42.781 10.9987H43.859V8.11466C43.859 5.93066 45.147 4.79666 46.729 4.79666H46.813V3.63466C45.441 3.57866 44.391 4.44666 43.859 5.65066V3.76066H42.781V10.9987Z" fill="#231F20"/>
<path d="M48.7844 7.82066H54.5244C54.5384 7.65266 54.5384 7.54066 54.5384 7.44266C54.5384 5.31466 53.3064 3.60666 51.1644 3.60666C49.1624 3.60666 47.6924 5.28666 47.6924 7.38666C47.6924 9.64066 49.3164 11.1667 51.3044 11.1667C52.6764 11.1667 53.5584 10.6207 54.2864 9.80866L53.6144 9.20666C53.0264 9.82266 52.3264 10.2287 51.3324 10.2287C50.0584 10.2287 48.9384 9.34666 48.7844 7.82066ZM48.7844 6.95266C48.9384 5.55266 49.8904 4.51666 51.1364 4.51666C52.5644 4.51666 53.3204 5.63666 53.4464 6.95266H48.7844Z" fill="#231F20"/>
<path d="M58.8196 11.1387C60.2616 11.1387 61.3956 10.3407 61.3956 8.96866C61.3956 7.63866 60.1916 7.20466 59.0716 6.86866C58.1056 6.57466 57.2096 6.30866 57.2096 5.62266C57.2096 4.99266 57.7556 4.54466 58.6096 4.54466C59.3096 4.54466 60.0796 4.81066 60.7516 5.24466L61.2416 4.43266C60.4996 3.94266 59.5196 3.63466 58.6376 3.63466C57.2096 3.63466 56.1736 4.46066 56.1736 5.70666C56.1736 7.06466 57.4336 7.45666 58.5676 7.77866C59.5196 8.04466 60.3736 8.32466 60.3736 9.05266C60.3736 9.78066 59.7436 10.2287 58.8756 10.2287C58.0216 10.2287 57.1536 9.89266 56.3696 9.30466L55.8236 10.0747C56.6356 10.7327 57.7836 11.1387 58.8196 11.1387Z" fill="#231F20"/>
<path d="M65.6555 11.1387C67.0975 11.1387 68.2315 10.3407 68.2315 8.96866C68.2315 7.63866 67.0275 7.20466 65.9075 6.86866C64.9415 6.57466 64.0455 6.30866 64.0455 5.62266C64.0455 4.99266 64.5915 4.54466 65.4455 4.54466C66.1455 4.54466 66.9155 4.81066 67.5875 5.24466L68.0775 4.43266C67.3355 3.94266 66.3555 3.63466 65.4735 3.63466C64.0455 3.63466 63.0095 4.46066 63.0095 5.70666C63.0095 7.06466 64.2695 7.45666 65.4035 7.77866C66.3555 8.04466 67.2095 8.32466 67.2095 9.05266C67.2095 9.78066 66.5795 10.2287 65.7115 10.2287C64.8575 10.2287 63.9895 9.89266 63.2055 9.30466L62.6595 10.0747C63.4715 10.7327 64.6195 11.1387 65.6555 11.1387Z" fill="#231F20"/>
</svg>
