<svg width="325" height="281" viewBox="0 0 325 281" fill="none" xmlns="http://www.w3.org/2000/svg">
<path d="M15.3788 0.470672V3.22746H3.08891V10.691H13.9329V13.3469H3.08891V24.4077H0V0.470672H15.3788Z" fill="black"/>
<path d="M22.0567 0.470672V24.4077H18.9678V0.470672H22.0567Z" fill="black"/>
<path d="M27.3404 0.470672H37.6258C42.8616 0.470672 45.4795 2.67835 45.4795 7.09369C45.4795 8.4833 45.1071 9.71601 44.3622 10.7918C43.6393 11.8452 42.6754 12.5512 41.4705 12.9099C42.2591 13.0892 42.8944 13.3469 43.3764 13.6831C43.8583 14.0193 44.2089 14.49 44.4279 15.0951C44.647 15.7003 44.7894 16.2382 44.8551 16.7088C44.9208 17.1795 44.9756 17.8743 45.0194 18.7932C45.0194 18.8829 45.0304 19.107 45.0523 19.4656C45.0742 19.8018 45.0851 20.0372 45.0851 20.1716C45.0851 20.2837 45.0961 20.4966 45.118 20.8104C45.1618 21.1242 45.1947 21.3595 45.2166 21.5164C45.2385 21.6733 45.2714 21.8862 45.3152 22.1552C45.359 22.4241 45.4138 22.6483 45.4795 22.8276C45.5452 22.9845 45.6219 23.175 45.7095 23.3991C45.7971 23.6008 45.8957 23.7913 46.0052 23.9706C46.1148 24.1275 46.2353 24.2732 46.3667 24.4077H42.8178C42.6644 24.1836 42.533 23.9034 42.4234 23.5672C42.3358 23.231 42.2701 22.8388 42.2263 22.3905C42.1824 21.9198 42.1496 21.55 42.1277 21.2811C42.1058 20.9897 42.0839 20.5751 42.062 20.0372C42.0401 19.4993 42.0291 19.1967 42.0291 19.1294C41.9196 17.0899 41.5033 15.7339 40.7804 15.0615C40.0794 14.3891 38.6773 14.0529 36.5742 14.0529H30.4293V24.4077H27.3404V0.470672ZM30.4293 3.16022V11.5315H36.2456C36.9686 11.5315 37.571 11.509 38.053 11.4642C38.5568 11.4194 39.1045 11.3185 39.696 11.1616C40.2875 11.0048 40.7585 10.7806 41.109 10.4893C41.4814 10.1979 41.7881 9.78325 42.0291 9.24533C42.2701 8.70742 42.3906 8.05745 42.3906 7.29541C42.3906 5.68168 41.9086 4.59465 40.9447 4.03433C40.0027 3.45159 38.7102 3.16022 37.0671 3.16022H30.4293Z" fill="black"/>
<path d="M66.0362 0.470672V3.22746H52.9247V10.7246H65.1818V13.3805H52.9247V21.6509H66.2005V24.4077H49.8358V0.470672H66.0362Z" fill="black"/>
<path d="M78.9389 0.470672H82.3235L94.6791 19.9027V0.470672H97.6695V24.4077H94.1862L81.8963 5.21101V24.4077H78.9389V0.470672Z" fill="black"/>
<path d="M118.986 0.470672V3.22746H105.874V10.7246H118.131V13.3805H105.874V21.6509H119.15V24.4077H102.785V0.470672H118.986Z" fill="black"/>
<path d="M120.738 0.470672H123.925L128.559 20.4742L133.849 0.470672H137.234L142.459 20.4742L147.257 0.470672H150.345L144.102 24.4077H140.849L135.46 4.37052L130.005 24.4077H126.751L120.738 0.470672Z" fill="black"/>
<path d="M169.857 7.49713H166.867C166.539 4.24725 164.6 2.62231 161.051 2.62231C159.364 2.62231 158.061 2.96971 157.14 3.66451C156.22 4.35931 155.76 5.33428 155.76 6.5894C155.76 7.03766 155.826 7.42989 155.957 7.76608C156.089 8.10227 156.308 8.40485 156.615 8.67381C156.943 8.92035 157.25 9.13327 157.535 9.31257C157.82 9.49188 158.269 9.67118 158.882 9.85048C159.495 10.0298 159.988 10.1643 160.361 10.2539C160.733 10.3212 161.314 10.4444 162.102 10.6237C163.066 10.8254 163.866 11.016 164.501 11.1953C165.137 11.3522 165.892 11.6211 166.769 12.0021C167.645 12.3831 168.335 12.809 168.839 13.2797C169.365 13.7279 169.814 14.3331 170.186 15.0951C170.58 15.8572 170.778 16.72 170.778 17.6838C170.778 19.3648 170.318 20.7768 169.397 21.9198C168.477 23.0405 167.36 23.8249 166.046 24.2732C164.731 24.7215 163.274 24.9456 161.675 24.9456C158.74 24.9456 156.385 24.2396 154.61 22.8276C152.858 21.3931 151.981 19.2863 151.981 16.5071H154.972C155.037 18.5467 155.705 20.0372 156.976 20.9785C158.247 21.8974 159.901 22.3569 161.938 22.3569C163.537 22.3569 164.906 22.0207 166.046 21.3483C167.185 20.6535 167.754 19.5329 167.754 17.9864C167.754 17.2692 167.601 16.664 167.294 16.1709C166.988 15.6554 166.506 15.2408 165.848 14.927C165.191 14.5908 164.534 14.3219 163.877 14.1201C163.22 13.9184 162.354 13.6943 161.281 13.4478C161.128 13.4253 161.018 13.4029 160.952 13.3805C158.542 12.8202 156.965 12.3719 156.22 12.0357C153.942 11.0272 152.803 9.29016 152.803 6.82474C152.803 4.53862 153.624 2.83524 155.267 1.71459C156.932 0.57153 158.937 0 161.281 0C163.844 0 165.892 0.627562 167.426 1.88269C168.959 3.13781 169.77 5.00929 169.857 7.49713Z" fill="black"/>
<path d="M177.824 0.470672V7.7997L177.003 18.4571H175.491L174.735 7.7997V0.470672H177.824ZM177.988 21.0121V24.4077H174.538V21.0121H177.988Z" fill="black"/>
<path d="M186.328 0.470672V7.7997L185.507 18.4571H183.995L183.239 7.7997V0.470672H186.328ZM186.492 21.0121V24.4077H183.042V21.0121H186.492Z" fill="black"/>
<path d="M194.832 0.470672V7.7997L194.011 18.4571H192.499L191.743 7.7997V0.470672H194.832ZM194.996 21.0121V24.4077H191.546V21.0121H194.996Z" fill="black"/>
<path d="M0 36.4915H4.27189L11.797 56.764L19.0592 36.4915H23.364V60.4285H20.4394V40.4585L13.1114 60.4285H10.4168L2.95746 40.4585V60.4285H0V36.4915Z" fill="black"/>
<path d="M38.4172 36.4915L47.5525 60.4285H44.1021L41.5062 53.0994H31.6808L29.0191 60.4285H25.733L34.934 36.4915H38.4172ZM40.5861 50.578L36.6099 39.5172L32.568 50.578H40.5861Z" fill="black"/>
<path d="M50.0315 36.4915H59.6596C62.0475 36.4915 63.9425 37.0518 65.3445 38.1724C66.7466 39.2707 67.4476 41.0077 67.4476 43.3834C67.4476 48.2022 64.7859 50.6116 59.4625 50.6116H53.1204V60.4285H50.0315V36.4915ZM53.1204 39.2146V47.9557H59.0681C60.7331 47.9557 62.0256 47.6419 62.9457 47.0143C63.8877 46.3644 64.3587 45.2213 64.3587 43.5852C64.3587 42.6662 64.2054 41.9042 63.8987 41.299C63.6139 40.6939 63.1867 40.2456 62.6171 39.9543C62.0475 39.6629 61.456 39.4724 60.8426 39.3827C60.2292 39.2707 59.4953 39.2146 58.641 39.2146H53.1204Z" fill="black"/>
<path d="M91.0231 51.3849C90.7602 54.4106 89.7306 56.7752 87.9342 58.4785C86.1597 60.1595 83.8157 61 80.902 61C77.5722 61 74.9323 59.8794 72.9826 57.6381C71.0329 55.3744 70.058 52.3262 70.058 48.4936C70.058 44.9075 71.0329 41.9266 72.9826 39.5508C74.9542 37.1526 77.6707 35.9535 81.1321 35.9535C83.6076 35.9535 85.7873 36.6371 87.6713 38.0043C89.5554 39.3715 90.6069 41.2654 90.826 43.686H87.7371C87.3865 42.1171 86.6198 40.8956 85.4368 40.0215C84.2538 39.125 82.797 38.6767 81.0663 38.6767C78.4594 38.6767 76.4877 39.6181 75.1514 41.5007C73.837 43.3834 73.1798 45.7032 73.1798 48.46C73.1798 51.5081 73.8808 53.9063 75.2829 55.6545C76.6849 57.4027 78.6018 58.2768 81.0335 58.2768C83.027 58.2768 84.6153 57.6941 85.7983 56.5286C86.9813 55.3407 87.6932 53.6261 87.9342 51.3849H91.0231Z" fill="black"/>
<path d="M107.158 46.1738H114.979C117.279 46.1738 119.053 46.8014 120.302 48.0565C121.551 49.3117 122.175 51.0711 122.175 53.3348C122.175 55.5761 121.54 57.3243 120.269 58.5794C119.02 59.8121 117.257 60.4285 114.979 60.4285H104.069V36.4915H120.105V39.2482H107.158V46.1738ZM119.086 53.3348C119.086 50.3987 117.377 48.9306 113.96 48.9306H107.158V57.6717H113.96C117.377 57.6717 119.086 56.226 119.086 53.3348Z" fill="black"/>
<path d="M143.816 36.4915V60.4285H140.727V39.2482H132.085L131.625 52.7296C131.537 55.2399 131.033 57.2346 130.113 58.7139C129.215 60.1931 127.912 60.9328 126.203 60.9328C125.502 60.9328 124.757 60.7759 123.968 60.4621V57.7725C124.319 57.9967 124.877 58.1087 125.644 58.1087C126.28 58.1087 126.783 57.9631 127.156 57.6717C127.55 57.3579 127.89 56.6631 128.174 55.5873C128.481 54.5115 128.656 53.0098 128.7 51.0823L129.127 36.4915H143.816Z" fill="black"/>
<path d="M149.06 60.4285V36.4915H152.149V56.764H152.214L163.683 36.4915H167.593V60.4285H164.504V40.0887H164.439L152.937 60.4285H149.06Z" fill="black"/>
<path d="M203.302 60.4285H199.425L190.881 48.5272L188.121 51.4857V60.4285H185.097V51.4857L182.337 48.5272L173.793 60.4285H169.916L180.3 46.3083L170.967 36.4915H174.845L185.097 47.6195V36.4915H188.121V47.6195L198.373 36.4915H202.251L192.918 46.3083L203.302 60.4285Z" fill="black"/>
<path d="M221.836 36.4915V39.2482H208.724V46.7454H220.981V49.4013H208.724V57.6717H222V60.4285H205.635V36.4915H221.836Z" fill="black"/>
<path d="M2.63756 213.337H9.01984C10.3915 213.337 11.5252 213.64 12.4209 214.244C13.3307 214.848 13.7856 215.797 13.7856 217.09C13.7856 217.835 13.5826 218.503 13.1767 219.093C12.7848 219.669 12.253 220.077 11.5812 220.316C12.5049 220.527 13.2117 220.962 13.7016 221.623C14.2055 222.284 14.4574 223.113 14.4574 224.111C14.4574 226.936 12.5679 228.348 8.78891 228.348H2.63756V213.337ZM4.56904 215.024V219.768H8.11709C8.52298 219.768 8.86589 219.761 9.14581 219.747C9.43973 219.718 9.76864 219.662 10.1325 219.578C10.4964 219.494 10.7834 219.374 10.9933 219.22C11.2173 219.051 11.4062 218.812 11.5602 218.503C11.7281 218.193 11.8121 217.821 11.8121 217.385C11.8121 216.95 11.7421 216.584 11.6022 216.289C11.4622 215.98 11.2942 215.748 11.0983 215.593C10.9023 215.425 10.6294 215.298 10.2795 215.214C9.9436 215.129 9.63568 215.08 9.35575 215.066C9.08983 215.038 8.73992 215.024 8.30604 215.024H4.56904ZM4.56904 221.328V226.683H8.51598C9.00585 226.683 9.40474 226.676 9.71266 226.662C10.0206 226.634 10.3635 226.57 10.7414 226.472C11.1333 226.374 11.4412 226.233 11.6651 226.05C11.8891 225.854 12.078 225.58 12.232 225.228C12.3859 224.863 12.4629 224.427 12.4629 223.921C12.4629 223.499 12.4069 223.134 12.295 222.825C12.197 222.516 12.022 222.27 11.7701 222.087C11.5322 221.904 11.3012 221.757 11.0773 221.644C10.8673 221.532 10.5594 221.454 10.1535 221.412C9.74765 221.37 9.43273 221.349 9.20879 221.349C8.98485 221.335 8.64195 221.328 8.18007 221.328H4.56904Z" fill="black"/>
<path d="M31.4185 226.725V228.348H21.7191C21.7611 227.519 21.8871 226.795 22.097 226.177C22.307 225.558 22.6289 225.003 23.0628 224.511C23.5107 224.005 23.9445 223.591 24.3644 223.267C24.7843 222.944 25.3791 222.544 26.1489 222.066C27.3526 221.307 28.1434 220.737 28.5213 220.358C29.3051 219.585 29.697 218.728 29.697 217.786C29.697 216.957 29.4311 216.282 28.8992 215.762C28.3673 215.228 27.6745 214.961 26.8208 214.961C25.799 214.961 25.0642 215.319 24.6164 216.036C24.1825 216.739 23.9515 217.631 23.9235 218.714H22.118V218.313C22.118 216.837 22.5519 215.649 23.4197 214.75C24.3014 213.85 25.4631 213.401 26.9047 213.401C28.3184 213.401 29.4451 213.794 30.2848 214.581C31.1246 215.368 31.5445 216.422 31.5445 217.744C31.5445 218.306 31.4465 218.84 31.2506 219.346C31.0686 219.838 30.8587 220.253 30.6207 220.59C30.3968 220.927 30.0469 221.286 29.571 221.665C29.1091 222.045 28.7242 222.34 28.4163 222.551C28.1084 222.747 27.6675 223.021 27.0937 223.373C25.946 224.062 25.1832 224.596 24.8053 224.975C24.2734 225.509 23.9305 226.093 23.7766 226.725H31.4185Z" fill="black"/>
<path d="M38.6755 213.401C39.5713 213.401 40.3341 213.569 40.9639 213.907C41.6077 214.23 42.0976 214.63 42.4335 215.108C42.7694 215.586 43.0353 216.212 43.2313 216.985C43.4272 217.744 43.5462 218.432 43.5882 219.051C43.6302 219.655 43.6512 220.386 43.6512 221.243C43.6512 222.031 43.6162 222.74 43.5462 223.373C43.4902 224.005 43.3573 224.666 43.1473 225.355C42.9514 226.043 42.6784 226.62 42.3285 227.084C41.9786 227.533 41.5028 227.906 40.9009 228.201C40.2991 228.496 39.5853 228.644 38.7595 228.644C37.8917 228.644 37.1359 228.496 36.4921 228.201C35.8623 227.892 35.3724 227.512 35.0225 227.062C34.6726 226.613 34.3927 226.043 34.1827 225.355C33.9868 224.652 33.8608 223.991 33.8048 223.373C33.7488 222.74 33.7209 222.017 33.7209 221.201C33.7209 220.499 33.7348 219.887 33.7628 219.367C33.8048 218.847 33.8748 218.264 33.9728 217.617C34.0848 216.957 34.2527 216.401 34.4767 215.952C34.7006 215.488 34.9875 215.052 35.3374 214.644C35.6873 214.237 36.1422 213.928 36.7021 213.717C37.2759 213.506 37.9337 213.401 38.6755 213.401ZM39.8302 215.256C39.4943 215.087 39.1094 215.003 38.6755 215.003C38.2416 215.003 37.8567 215.087 37.5208 215.256C37.1849 215.411 36.912 215.593 36.7021 215.804C36.4921 216.015 36.3102 216.331 36.1562 216.753C36.0022 217.16 35.8903 217.505 35.8203 217.786C35.7643 218.067 35.7153 218.475 35.6733 219.009C35.6313 219.529 35.6103 219.901 35.6103 220.126C35.6103 220.337 35.6103 220.695 35.6103 221.201C35.6103 221.693 35.6173 222.101 35.6313 222.424C35.6453 222.747 35.6803 223.169 35.7363 223.689C35.7923 224.209 35.8903 224.645 36.0302 224.996C36.1702 225.334 36.3451 225.678 36.5551 226.029C36.765 226.367 37.052 226.627 37.4159 226.809C37.7938 226.978 38.2276 227.062 38.7175 227.062C39.1374 227.062 39.5083 226.985 39.8302 226.831C40.1661 226.676 40.439 226.493 40.649 226.282C40.8589 226.072 41.0339 225.776 41.1738 225.397C41.3278 225.003 41.4398 224.666 41.5098 224.385C41.5797 224.09 41.6287 223.703 41.6567 223.225C41.6987 222.733 41.7197 222.375 41.7197 222.15C41.7337 221.911 41.7407 221.567 41.7407 221.117C41.7407 220.625 41.7407 220.274 41.7407 220.063C41.7407 219.852 41.7197 219.487 41.6777 218.967C41.6357 218.446 41.5797 218.046 41.5098 217.765C41.4538 217.484 41.3488 217.139 41.1948 216.732C41.0409 216.324 40.8589 216.015 40.649 215.804C40.439 215.593 40.1661 215.411 39.8302 215.256Z" fill="black"/>
<path d="M54.7501 226.725V228.348H45.0508C45.0927 227.519 45.2187 226.795 45.4286 226.177C45.6386 225.558 45.9605 225.003 46.3944 224.511C46.8423 224.005 47.2762 223.591 47.696 223.267C48.1159 222.944 48.7108 222.544 49.4806 222.066C50.6842 221.307 51.475 220.737 51.8529 220.358C52.6367 219.585 53.0286 218.728 53.0286 217.786C53.0286 216.957 52.7627 216.282 52.2308 215.762C51.699 215.228 51.0061 214.961 50.1524 214.961C49.1307 214.961 48.3959 215.319 47.948 216.036C47.5141 216.739 47.2831 217.631 47.2552 218.714H45.4496V218.313C45.4496 216.837 45.8835 215.649 46.7513 214.75C47.6331 213.85 48.7947 213.401 50.2364 213.401C51.65 213.401 52.7767 213.794 53.6165 214.581C54.4562 215.368 54.8761 216.422 54.8761 217.744C54.8761 218.306 54.7781 218.84 54.5822 219.346C54.4002 219.838 54.1903 220.253 53.9524 220.59C53.7284 220.927 53.3785 221.286 52.9026 221.665C52.4408 222.045 52.0559 222.34 51.748 222.551C51.44 222.747 50.9992 223.021 50.4253 223.373C49.2776 224.062 48.5148 224.596 48.1369 224.975C47.6051 225.509 47.2622 226.093 47.1082 226.725H54.7501Z" fill="black"/>
<path d="M63.7077 213.422V228.348H61.7552V217.533H58.0182V216.184C59.2219 216.184 60.1736 215.987 60.8734 215.593C61.5872 215.2 62.0631 214.476 62.3011 213.422H63.7077Z" fill="black"/>
<path d="M82.5183 219.051H76.8708V228.348H75.0863V217.47H82.5183V219.051Z" fill="black"/>
<path d="M83.8217 226.008V228.348H81.4914V226.008H83.8217Z" fill="black"/>
<path d="M103.276 231.806H101.575V228.348H93.3036V231.806H91.6031V226.767H92.7788C93.1147 226.121 93.4226 225.123 93.7026 223.773C93.9965 222.41 94.1434 221.082 94.1434 219.789V217.47H101.869V226.767H103.276V231.806ZM100.085 226.767V219.051H95.886V219.957C95.886 221.236 95.753 222.537 95.4871 223.858C95.2351 225.165 94.9482 226.135 94.6263 226.767H100.085Z" fill="black"/>
<path d="M113.862 217.47V228.348H112.077V219.051H108.214L108.067 223.858C108.025 225.516 107.724 226.718 107.165 227.463C106.605 228.208 105.905 228.58 105.065 228.58C104.547 228.58 104.12 228.503 103.784 228.348V226.894C103.966 226.992 104.281 227.041 104.729 227.041C105.149 227.041 105.506 226.816 105.8 226.367C106.108 225.903 106.276 225.13 106.304 224.048L106.493 217.47H113.862Z" fill="black"/>
<path d="M125.066 228.348H123.281V223.9H120.909L117.487 228.348H115.114L118.851 223.837C118.054 223.71 117.403 223.373 116.899 222.825C116.409 222.263 116.164 221.546 116.164 220.674C116.164 219.662 116.465 218.875 117.067 218.313C117.669 217.751 118.501 217.47 119.565 217.47H125.066V228.348ZM123.281 219.051H120.132C118.704 219.051 117.991 219.592 117.991 220.674C117.991 221.771 118.704 222.319 120.132 222.319H123.281V219.051Z" fill="black"/>
<path d="M138.196 223.078L134.48 228.348H132.276L137.02 221.939L132.885 217.47H135.089L139.498 222.466H139.54V217.47H141.324V222.466H141.366L145.775 217.47H147.98L143.844 221.939L148.588 228.348H146.384L142.668 223.078L141.324 224.448V228.348H139.54V224.448L138.196 223.078Z" fill="black"/>
<path d="M152.248 228.348H149.96V217.47H151.744V226.346H151.786L156.657 217.47H158.945V228.348H157.161V219.473H157.119L152.248 228.348Z" fill="black"/>
<path d="M169.918 219.051H166.034V228.348H164.25V219.051H160.366V217.47H169.918V219.051Z" fill="black"/>
<path d="M180.233 224.912C179.687 227.442 178.113 228.707 175.509 228.707C173.914 228.707 172.661 228.208 171.751 227.21C170.856 226.212 170.408 224.828 170.408 223.057C170.408 221.3 170.87 219.88 171.793 218.798C172.731 217.702 173.949 217.153 175.446 217.153C177.112 217.153 178.344 217.723 179.141 218.861C179.953 219.986 180.359 221.412 180.359 223.141V223.394H172.213L172.192 223.52C172.192 224.673 172.493 225.58 173.095 226.24C173.697 226.901 174.523 227.231 175.572 227.231C176.356 227.231 176.972 227.048 177.42 226.683C177.882 226.317 178.239 225.727 178.491 224.912H180.233ZM178.512 221.939C178.428 220.899 178.113 220.091 177.567 219.515C177.021 218.924 176.3 218.629 175.404 218.629C174.537 218.629 173.816 218.924 173.242 219.515C172.668 220.105 172.325 220.913 172.213 221.939H178.512Z" fill="black"/>
<path d="M190.909 217.47V228.348H189.125V219.051H185.262L185.115 223.858C185.073 225.516 184.772 226.718 184.212 227.463C183.652 228.208 182.952 228.58 182.113 228.58C181.595 228.58 181.168 228.503 180.832 228.348V226.894C181.014 226.992 181.329 227.041 181.777 227.041C182.197 227.041 182.554 226.816 182.848 226.367C183.155 225.903 183.323 225.13 183.351 224.048L183.54 217.47H190.909Z" fill="black"/>
<path d="M202.806 224.912C202.26 227.442 200.686 228.707 198.082 228.707C196.487 228.707 195.234 228.208 194.324 227.21C193.429 226.212 192.981 224.828 192.981 223.057C192.981 221.3 193.443 219.88 194.366 218.798C195.304 217.702 196.522 217.153 198.019 217.153C199.685 217.153 200.917 217.723 201.714 218.861C202.526 219.986 202.932 221.412 202.932 223.141V223.394H194.786L194.765 223.52C194.765 224.673 195.066 225.58 195.668 226.24C196.27 226.901 197.096 227.231 198.145 227.231C198.929 227.231 199.545 227.048 199.993 226.683C200.455 226.317 200.812 225.727 201.064 224.912H202.806ZM201.085 221.939C201.001 220.899 200.686 220.091 200.14 219.515C199.594 218.924 198.873 218.629 197.977 218.629C197.11 218.629 196.389 218.924 195.815 219.515C195.241 220.105 194.898 220.913 194.786 221.939H201.085Z" fill="black"/>
<path d="M212.487 213.337C212.347 214.223 212.004 214.933 211.458 215.467C210.926 215.987 210.219 216.247 209.338 216.247C208.484 216.247 207.763 215.98 207.175 215.446C206.601 214.897 206.258 214.195 206.147 213.337H207.217C207.539 214.434 208.239 214.982 209.317 214.982C210.352 214.982 211.052 214.434 211.416 213.337H212.487ZM207.112 228.348H204.824V217.47H206.608V226.346H206.65L211.521 217.47H213.809V228.348H212.025V219.473H211.983L207.112 228.348Z" fill="black"/>
<path d="M231.654 224.385C231.5 225.692 231.004 226.732 230.164 227.505C229.338 228.278 228.26 228.665 226.931 228.665C225.293 228.665 224.026 228.159 223.131 227.147C222.235 226.121 221.787 224.757 221.787 223.057C221.787 221.243 222.256 219.81 223.194 218.756C224.131 217.687 225.398 217.153 226.994 217.153C228.323 217.153 229.387 217.491 230.185 218.165C230.982 218.826 231.451 219.775 231.591 221.012H229.744C229.422 219.437 228.512 218.65 227.015 218.65C225.979 218.65 225.16 219.037 224.558 219.81C223.956 220.569 223.655 221.602 223.655 222.909C223.655 224.23 223.942 225.27 224.516 226.029C225.09 226.788 225.881 227.168 226.889 227.168C227.7 227.168 228.358 226.929 228.862 226.451C229.38 225.973 229.709 225.284 229.849 224.385H231.654Z" fill="black"/>
<path d="M241.902 219.051H238.018V228.348H236.233V219.051H232.349V217.47H241.902V219.051Z" fill="black"/>
<path d="M245.007 217.47V219.009C245.791 217.758 247.008 217.132 248.66 217.132C250.171 217.132 251.368 217.645 252.25 218.671C253.146 219.697 253.593 221.089 253.593 222.846C253.593 224.603 253.153 226.008 252.271 227.062C251.403 228.103 250.227 228.623 248.744 228.623C247.19 228.623 245.979 228.025 245.112 226.831V232.544H243.327V217.47H245.007ZM248.387 218.629C247.351 218.629 246.532 219.009 245.93 219.768C245.343 220.513 245.049 221.546 245.049 222.867C245.049 224.188 245.35 225.228 245.951 225.987C246.567 226.732 247.4 227.105 248.45 227.105C249.472 227.105 250.276 226.725 250.864 225.966C251.452 225.207 251.746 224.174 251.746 222.867C251.746 221.546 251.445 220.513 250.843 219.768C250.255 219.009 249.437 218.629 248.387 218.629Z" fill="black"/>
<path d="M265.367 226.915V228.306C265.003 228.447 264.597 228.517 264.149 228.517C263.127 228.517 262.602 227.983 262.574 226.915C261.553 228.067 260.244 228.644 258.648 228.644C257.585 228.644 256.738 228.37 256.108 227.821C255.492 227.273 255.184 226.521 255.184 225.566C255.184 223.626 256.465 222.494 259.026 222.171C259.194 222.143 259.439 222.115 259.761 222.087C260.979 221.946 261.727 221.785 262.007 221.602C262.329 221.377 262.49 220.99 262.49 220.442C262.49 219.248 261.671 218.65 260.034 218.65C259.194 218.65 258.557 218.826 258.123 219.177C257.69 219.515 257.431 220.077 257.347 220.864H255.604C255.632 219.697 256.045 218.791 256.843 218.144C257.641 217.498 258.739 217.174 260.139 217.174C261.665 217.174 262.798 217.526 263.54 218.229C263.778 218.453 263.953 218.749 264.065 219.114C264.177 219.48 264.24 219.782 264.254 220.021C264.268 220.246 264.275 220.59 264.275 221.054C264.275 221.588 264.261 222.396 264.233 223.478C264.205 224.561 264.191 225.369 264.191 225.903C264.191 226.296 264.24 226.578 264.338 226.746C264.45 226.901 264.646 226.978 264.926 226.978C265.038 226.978 265.185 226.957 265.367 226.915ZM262.49 222.698C262.364 222.797 262.231 222.881 262.091 222.951C261.951 223.021 261.769 223.078 261.546 223.12C261.336 223.162 261.189 223.197 261.105 223.225C261.035 223.239 260.853 223.267 260.559 223.31C260.265 223.338 260.111 223.352 260.097 223.352C259.663 223.408 259.376 223.45 259.236 223.478C259.11 223.492 258.858 223.549 258.48 223.647C258.116 223.745 257.858 223.858 257.704 223.984C257.55 224.111 257.396 224.301 257.242 224.554C257.102 224.792 257.032 225.081 257.032 225.418C257.032 225.98 257.221 226.423 257.599 226.746C257.99 227.069 258.522 227.231 259.194 227.231C260.048 227.231 260.811 226.978 261.483 226.472C262.154 225.966 262.49 225.369 262.49 224.68V222.698Z" fill="black"/>
<path d="M268.833 228.348H267.048V217.47H268.833V221.792H274.249V217.47H276.034V228.348H274.249V223.373H268.833V228.348Z" fill="black"/>
<path d="M297.532 222.677C297.364 224.575 296.706 226.057 295.558 227.126C294.425 228.18 292.927 228.707 291.066 228.707C288.938 228.707 287.252 228.004 286.006 226.599C284.76 225.179 284.137 223.267 284.137 220.864C284.137 218.615 284.76 216.746 286.006 215.256C287.266 213.752 289.001 213 291.213 213C292.794 213 294.187 213.429 295.39 214.286C296.594 215.143 297.266 216.331 297.406 217.849H295.432C295.208 216.865 294.719 216.099 293.963 215.551C293.207 214.989 292.276 214.708 291.171 214.708C289.505 214.708 288.245 215.298 287.392 216.479C286.552 217.659 286.132 219.114 286.132 220.843C286.132 222.754 286.58 224.258 287.476 225.355C288.371 226.451 289.596 226.999 291.15 226.999C292.423 226.999 293.438 226.634 294.194 225.903C294.95 225.158 295.404 224.083 295.558 222.677H297.532Z" fill="black"/>
<path d="M311.864 213.337V228.348H309.891V221.328H301.997V228.348H300.023V213.337H301.997V219.599H309.891V213.337H311.864Z" fill="black"/>
<path d="M317.148 228.348H315.175V213.337H325V215.066H317.148V228.348Z" fill="black"/>
<path d="M13.0088 237.934V239.663H7.99112V252.945H6.01765V239.663H1V237.934H13.0088Z" fill="black"/>
<path d="M21.2992 249.509C20.7534 252.039 19.1788 253.304 16.5755 253.304C14.9799 253.304 13.7273 252.805 12.8175 251.807C11.9218 250.809 11.4739 249.425 11.4739 247.654C11.4739 245.897 11.9358 244.477 12.8595 243.395C13.7973 242.298 15.0149 241.75 16.5125 241.75C18.1781 241.75 19.4098 242.32 20.2075 243.458C21.0193 244.582 21.4252 246.009 21.4252 247.738V247.991H13.2794L13.2584 248.117C13.2584 249.27 13.5593 250.177 14.1612 250.837C14.763 251.498 15.5888 251.828 16.6385 251.828C17.4223 251.828 18.0381 251.645 18.486 251.28C18.9479 250.914 19.3048 250.324 19.5567 249.509H21.2992ZM19.5777 246.536C19.4937 245.496 19.1788 244.688 18.633 244.112C18.0871 243.521 17.3663 243.226 16.4705 243.226C15.6028 243.226 14.882 243.521 14.3081 244.112C13.7343 244.702 13.3914 245.51 13.2794 246.536H19.5777Z" fill="black"/>
<path d="M31.3578 245.229H29.5733C29.4613 243.908 28.5796 243.247 26.928 243.247C26.2422 243.247 25.7034 243.381 25.3115 243.648C24.9196 243.915 24.7236 244.273 24.7236 244.723C24.7236 244.85 24.7376 244.976 24.7656 245.103C24.7936 245.215 24.8426 245.32 24.9126 245.419C24.9965 245.503 25.0665 245.58 25.1225 245.651C25.1925 245.721 25.2975 245.791 25.4374 245.862C25.5914 245.918 25.7034 245.967 25.7733 246.009C25.8573 246.051 25.9973 246.1 26.1932 246.157C26.4032 246.199 26.5501 246.234 26.6341 246.262C26.7181 246.276 26.879 246.311 27.117 246.368C27.3689 246.424 27.5299 246.459 27.5998 246.473C28.1177 246.585 28.5026 246.677 28.7545 246.747C29.0205 246.817 29.3774 246.951 29.8253 247.148C30.2871 247.33 30.637 247.527 30.875 247.738C31.1129 247.935 31.3228 248.216 31.5048 248.581C31.7007 248.933 31.7987 249.333 31.7987 249.783C31.7987 250.837 31.3858 251.687 30.5601 252.334C29.7483 252.967 28.6636 253.283 27.3059 253.283C25.8363 253.283 24.7026 252.959 23.9048 252.313C23.1211 251.666 22.7012 250.732 22.6452 249.509H24.4087C24.5067 251.041 25.4864 251.807 27.3479 251.807C28.1457 251.807 28.7825 251.645 29.2584 251.322C29.7483 250.985 29.9932 250.542 29.9932 249.994C29.9932 249.628 29.8672 249.326 29.6153 249.087C29.3634 248.848 29.0834 248.68 28.7755 248.581C28.4676 248.469 28.0267 248.342 27.4529 248.202C27.3689 248.188 27.3059 248.174 27.2639 248.16C27.138 248.131 26.865 248.075 26.4452 247.991C26.0393 247.893 25.7453 247.815 25.5634 247.759C25.3814 247.703 25.1155 247.618 24.7656 247.506C24.4297 247.379 24.1778 247.253 24.0098 247.126C23.8419 246.986 23.6529 246.817 23.443 246.621C23.247 246.41 23.1071 246.171 23.0231 245.904C22.9391 245.623 22.8971 245.306 22.8971 244.955C22.8971 243.971 23.268 243.191 24.0098 242.615C24.7656 242.038 25.7733 241.75 27.033 241.75C28.3067 241.75 29.3424 242.052 30.1402 242.657C30.9519 243.261 31.3578 244.119 31.3578 245.229Z" fill="black"/>
<path d="M35.7037 237.934V252.945H33.8982V237.934H35.7037Z" fill="black"/>
<path d="M48.0626 251.512V252.903C47.6987 253.044 47.2928 253.114 46.845 253.114C45.8232 253.114 45.2984 252.58 45.2704 251.512C44.2486 252.664 42.94 253.241 41.3444 253.241C40.2807 253.241 39.4339 252.967 38.8041 252.418C38.1883 251.87 37.8804 251.118 37.8804 250.162C37.8804 248.223 39.161 247.091 41.7223 246.768C41.8903 246.74 42.1352 246.712 42.4571 246.684C43.6748 246.543 44.4236 246.382 44.7035 246.199C45.0254 245.974 45.1864 245.587 45.1864 245.039C45.1864 243.845 44.3676 243.247 42.7301 243.247C41.8903 243.247 41.2535 243.423 40.8196 243.774C40.3857 244.112 40.1268 244.674 40.0428 245.461H38.3002C38.3282 244.294 38.7411 243.388 39.5389 242.741C40.3367 242.095 41.4354 241.771 42.835 241.771C44.3606 241.771 45.4943 242.123 46.2361 242.826C46.474 243.05 46.649 243.346 46.761 243.711C46.8729 244.076 46.9359 244.379 46.9499 244.618C46.9639 244.842 46.9709 245.187 46.9709 245.651C46.9709 246.185 46.9569 246.993 46.9289 248.075C46.9009 249.158 46.8869 249.966 46.8869 250.5C46.8869 250.893 46.9359 251.174 47.0339 251.343C47.1459 251.498 47.3418 251.575 47.6217 251.575C47.7337 251.575 47.8807 251.554 48.0626 251.512ZM45.1864 247.295C45.0604 247.394 44.9275 247.478 44.7875 247.548C44.6475 247.618 44.4656 247.675 44.2416 247.717C44.0317 247.759 43.8847 247.794 43.8008 247.822C43.7308 247.836 43.5488 247.864 43.2549 247.907C42.961 247.935 42.807 247.949 42.793 247.949C42.3592 248.005 42.0722 248.047 41.9323 248.075C41.8063 248.089 41.5544 248.146 41.1765 248.244C40.8126 248.342 40.5536 248.455 40.3997 248.581C40.2457 248.708 40.0918 248.897 39.9378 249.15C39.7978 249.389 39.7279 249.678 39.7279 250.015C39.7279 250.577 39.9168 251.02 40.2947 251.343C40.6866 251.666 41.2185 251.828 41.8903 251.828C42.7441 251.828 43.5068 251.575 44.1787 251.069C44.8505 250.563 45.1864 249.966 45.1864 249.277V247.295Z" fill="black"/>
<path d="M55.5456 252.945V242.067H60.5633C61.2771 242.067 61.8859 242.13 62.3898 242.256C62.8937 242.369 63.3345 242.629 63.7124 243.036C64.0903 243.444 64.2793 243.999 64.2793 244.702C64.2793 245.77 63.7474 246.55 62.6837 247.042V247.063C63.3275 247.19 63.8314 247.492 64.1953 247.97C64.5592 248.434 64.7412 249.024 64.7412 249.741C64.7412 250.668 64.4332 251.434 63.8174 252.039C63.2016 252.643 62.4108 252.945 61.445 252.945H55.5456ZM60.3743 246.452C61.1161 246.452 61.641 246.332 61.9489 246.093C62.2708 245.84 62.4318 245.475 62.4318 244.997C62.4318 244.519 62.2778 244.168 61.9699 243.943C61.662 243.718 61.1301 243.606 60.3743 243.606H57.2882V246.452H60.3743ZM57.2882 247.97V251.406H61.1091C61.669 251.406 62.1029 251.238 62.4108 250.9C62.7327 250.563 62.8937 250.127 62.8937 249.593C62.8937 248.511 62.1938 247.97 60.7942 247.97H57.2882Z" fill="black"/>
<path d="M77.1931 242.067H78.9776V252.945H77.1931V242.067ZM74.5058 247.126C75.1497 247.717 75.4716 248.525 75.4716 249.551C75.4716 250.577 75.1567 251.399 74.5268 252.018C73.911 252.636 73.0782 252.945 72.0285 252.945H66.8009V242.067H68.5854V246.22H71.9445C73.0082 246.22 73.862 246.522 74.5058 247.126ZM71.3777 247.759H68.5854V251.364H71.3777C72.1055 251.364 72.6583 251.21 73.0362 250.9C73.4281 250.577 73.6241 250.127 73.6241 249.551C73.6241 248.356 72.8753 247.759 71.3777 247.759Z" fill="black"/>
<path d="M83.4306 252.945H81.646V242.067H90.6316V252.945H88.8471V243.648H83.4306V252.945Z" fill="black"/>
<path d="M102.276 242.067L97.6367 254.337C97.4547 254.829 97.2938 255.208 97.1538 255.475C97.0279 255.757 96.8389 256.059 96.587 256.382C96.349 256.719 96.0551 256.958 95.7052 257.099C95.3693 257.253 94.9704 257.331 94.5085 257.331C94.1586 257.331 93.7178 257.267 93.1859 257.141V255.539C93.7038 255.693 94.0886 255.771 94.3406 255.771C94.9284 255.771 95.3483 255.468 95.6002 254.864L96.44 252.882L92.1362 242.067H94.1516L97.3638 250.732L100.408 242.067H102.276Z" fill="black"/>
<path d="M112.884 248.982C112.731 250.289 112.234 251.329 111.394 252.102C110.568 252.875 109.49 253.262 108.161 253.262C106.523 253.262 105.257 252.756 104.361 251.744C103.465 250.718 103.017 249.354 103.017 247.654C103.017 245.84 103.486 244.407 104.424 243.353C105.362 242.284 106.628 241.75 108.224 241.75C109.553 241.75 110.617 242.088 111.415 242.762C112.213 243.423 112.682 244.372 112.822 245.609H110.974C110.652 244.034 109.742 243.247 108.245 243.247C107.209 243.247 106.39 243.634 105.788 244.407C105.187 245.166 104.886 246.199 104.886 247.506C104.886 248.827 105.173 249.867 105.746 250.626C106.32 251.385 107.111 251.765 108.119 251.765C108.931 251.765 109.588 251.526 110.092 251.048C110.61 250.57 110.939 249.881 111.079 248.982H112.884Z" fill="black"/>
<path d="M123.132 243.648H119.248V252.945H117.464V243.648H113.58V242.067H123.132V243.648Z" fill="black"/>
<path d="M126.846 252.945H124.557V242.067H126.342V250.943H126.384L131.255 242.067H133.543V252.945H131.758V244.069H131.716L126.846 252.945Z" fill="black"/>
<path d="M144.516 243.648H140.632V252.945H138.847V243.648H134.964V242.067H144.516V243.648Z" fill="black"/>
<path d="M152.792 240.549C153.268 239.804 153.842 239.255 154.514 238.904C155.186 238.539 156.039 238.321 157.075 238.251C158.237 238.166 158.943 238.054 159.195 237.913C159.363 237.829 159.489 237.716 159.573 237.576H161.358C161.316 237.801 161.253 238.005 161.169 238.187C161.099 238.37 161.015 238.532 160.917 238.672C160.833 238.799 160.707 238.918 160.539 239.031C160.385 239.143 160.252 239.241 160.14 239.326C160.028 239.396 159.86 239.466 159.636 239.537C159.426 239.593 159.258 239.642 159.132 239.684C159.006 239.712 158.811 239.74 158.545 239.768C158.293 239.797 158.111 239.818 157.999 239.832C157.887 239.846 157.684 239.86 157.39 239.874C157.096 239.888 156.907 239.902 156.823 239.916C155.675 240 154.78 240.45 154.136 241.265C153.492 242.067 153.086 243.142 152.918 244.491H152.981C153.289 243.746 153.779 243.149 154.451 242.699C155.123 242.249 155.899 242.024 156.781 242.024C158.321 242.024 159.524 242.516 160.392 243.5C161.274 244.47 161.715 245.833 161.715 247.59C161.715 249.403 161.267 250.809 160.371 251.807C159.489 252.805 158.244 253.304 156.634 253.304C155.318 253.304 154.206 252.917 153.296 252.144C152.386 251.357 151.826 250.233 151.616 248.771C151.532 248.181 151.49 247.52 151.49 246.789C151.49 243.964 151.924 241.884 152.792 240.549ZM153.317 247.654C153.317 248.89 153.611 249.888 154.199 250.647C154.801 251.406 155.619 251.786 156.655 251.786C157.663 251.786 158.454 251.42 159.027 250.69C159.601 249.959 159.888 248.94 159.888 247.632C159.888 246.353 159.594 245.348 159.006 244.618C158.419 243.887 157.621 243.521 156.613 243.521C155.605 243.521 154.801 243.894 154.199 244.639C153.611 245.37 153.317 246.375 153.317 247.654Z" fill="black"/>
<path d="M172.825 241.75C174.407 241.75 175.632 242.249 176.499 243.247C177.367 244.245 177.801 245.644 177.801 247.443C177.801 249.284 177.36 250.718 176.478 251.744C175.611 252.77 174.386 253.283 172.804 253.283C171.279 253.283 170.068 252.819 169.172 251.891C168.277 250.95 167.794 249.642 167.724 247.97H165.624V252.945H163.84V242.067H165.624V246.389H167.808C168.004 244.941 168.542 243.809 169.424 242.994C170.306 242.165 171.44 241.75 172.825 241.75ZM175.114 244.407C174.54 243.634 173.763 243.247 172.783 243.247C171.804 243.247 171.02 243.634 170.432 244.407C169.858 245.18 169.571 246.213 169.571 247.506C169.571 248.841 169.858 249.888 170.432 250.647C171.006 251.392 171.804 251.765 172.825 251.765C173.805 251.765 174.575 251.385 175.135 250.626C175.695 249.867 175.975 248.82 175.975 247.485C175.975 246.192 175.688 245.166 175.114 244.407Z" fill="black"/>
<path d="M190.042 256.403H188.341V252.945H180.069V256.403H178.369V251.364H179.545C179.88 250.718 180.188 249.72 180.468 248.37C180.762 247.007 180.909 245.679 180.909 244.386V242.067H188.635V251.364H190.042V256.403ZM186.851 251.364V243.648H182.652V244.554C182.652 245.833 182.519 247.134 182.253 248.455C182.001 249.762 181.714 250.732 181.392 251.364H186.851Z" fill="black"/>
<path d="M196.177 247.675L192.461 252.945H190.256L195.001 246.536L190.865 242.067H193.069L197.478 247.063H197.52V242.067H199.305V247.063H199.347L203.756 242.067H205.96L201.824 246.536L206.569 252.945H204.364L200.648 247.675L199.305 249.045V252.945H197.52V249.045L196.177 247.675Z" fill="black"/>
<path d="M216.83 249.509C216.284 252.039 214.709 253.304 212.106 253.304C210.51 253.304 209.258 252.805 208.348 251.807C207.452 250.809 207.004 249.425 207.004 247.654C207.004 245.897 207.466 244.477 208.39 243.395C209.328 242.298 210.545 241.75 212.043 241.75C213.709 241.75 214.94 242.32 215.738 243.458C216.55 244.582 216.956 246.009 216.956 247.738V247.991H208.81L208.789 248.117C208.789 249.27 209.09 250.177 209.692 250.837C210.293 251.498 211.119 251.828 212.169 251.828C212.953 251.828 213.569 251.645 214.016 251.28C214.478 250.914 214.835 250.324 215.087 249.509H216.83ZM215.108 246.536C215.024 245.496 214.709 244.688 214.163 244.112C213.618 243.521 212.897 243.226 212.001 243.226C211.133 243.226 210.412 243.521 209.839 244.112C209.265 244.702 208.922 245.51 208.81 246.536H215.108Z" fill="black"/>
<path d="M226.771 243.648H222.887V252.945H221.103V243.648H217.219V242.067H226.771V243.648Z" fill="black"/>
<path d="M229.981 252.945H228.196V242.067H229.981V246.389H235.398V242.067H237.182V252.945H235.398V247.97H229.981V252.945Z" fill="black"/>
<path d="M250.192 242.067H251.976V252.945H250.192V242.067ZM247.504 247.126C248.148 247.717 248.47 248.525 248.47 249.551C248.47 250.577 248.155 251.399 247.525 252.018C246.909 252.636 246.077 252.945 245.027 252.945H239.799V242.067H241.584V246.22H244.943C246.007 246.22 246.86 246.522 247.504 247.126ZM244.376 247.759H241.584V251.364H244.376C245.104 251.364 245.657 251.21 246.035 250.9C246.427 250.577 246.622 250.127 246.622 249.551C246.622 248.356 245.874 247.759 244.376 247.759Z" fill="black"/>
<path d="M263.903 249.509C263.357 252.039 261.783 253.304 259.179 253.304C257.584 253.304 256.331 252.805 255.421 251.807C254.525 250.809 254.078 249.425 254.078 247.654C254.078 245.897 254.539 244.477 255.463 243.395C256.401 242.298 257.619 241.75 259.116 241.75C260.782 241.75 262.013 242.32 262.811 243.458C263.623 244.582 264.029 246.009 264.029 247.738V247.991H255.883L255.862 248.117C255.862 249.27 256.163 250.177 256.765 250.837C257.367 251.498 258.193 251.828 259.242 251.828C260.026 251.828 260.642 251.645 261.09 251.28C261.552 250.914 261.909 250.324 262.16 249.509H263.903ZM262.181 246.536C262.097 245.496 261.783 244.688 261.237 244.112C260.691 243.521 259.97 243.226 259.074 243.226C258.207 243.226 257.486 243.521 256.912 244.112C256.338 244.702 255.995 245.51 255.883 246.536H262.181Z" fill="black"/>
<path d="M11.4552 272.251C11.4552 273.951 11.0073 275.315 10.1116 276.341C9.21579 277.353 7.94913 277.859 6.31157 277.859C5.02392 277.859 3.9672 277.5 3.14142 276.783C2.32964 276.053 1.82578 275.069 1.62983 273.832H3.43535C3.6033 274.647 3.93921 275.272 4.44307 275.708C4.94694 276.144 5.58377 276.362 6.35356 276.362C7.29131 276.362 8.04011 276.031 8.59996 275.371C9.1738 274.696 9.49572 273.769 9.5657 272.588H5.03092V271.133H9.52371C9.36975 270.107 9.00585 269.306 8.432 268.73C7.85816 268.139 7.12335 267.844 6.22759 267.844C4.86996 267.844 3.9952 268.505 3.6033 269.826H1.71381C1.90976 268.716 2.39962 267.858 3.18341 267.254C3.9812 266.649 5.00292 266.347 6.24859 266.347C7.84416 266.347 9.11082 266.881 10.0486 267.95C10.9863 269.004 11.4552 270.437 11.4552 272.251Z" fill="black"/>
<path d="M23.2983 277.542H21.0309L17.084 272.187L15.3834 273.853V277.542H13.5989V266.663H15.3834V271.85L20.3381 266.663H22.7315L18.3646 270.943L23.2983 277.542Z" fill="black"/>
<path d="M25.3464 267.907C26.2981 266.867 27.5928 266.347 29.2304 266.347C30.8679 266.347 32.1416 266.846 33.0513 267.844C33.9611 268.842 34.416 270.241 34.416 272.04C34.416 273.881 33.9611 275.315 33.0513 276.341C32.1416 277.367 30.8609 277.88 29.2094 277.88C27.5578 277.88 26.2632 277.374 25.3254 276.362C24.3877 275.35 23.9188 273.944 23.9188 272.145C23.9188 270.36 24.3947 268.948 25.3464 267.907ZM31.6657 269.004C31.0639 268.231 30.2381 267.844 29.1884 267.844C28.1386 267.844 27.3059 268.231 26.69 269.004C26.0742 269.777 25.7663 270.81 25.7663 272.103C25.7663 273.438 26.0672 274.485 26.669 275.244C27.2849 275.989 28.1386 276.362 29.2304 276.362C30.2801 276.362 31.0989 275.982 31.6867 275.223C32.2885 274.464 32.5895 273.417 32.5895 272.082C32.5895 270.789 32.2815 269.763 31.6657 269.004Z" fill="black"/>
<path d="M46.1354 276.109V277.5C45.7715 277.641 45.3656 277.711 44.9177 277.711C43.896 277.711 43.3711 277.177 43.3432 276.109C42.3214 277.261 41.0128 277.838 39.4172 277.838C38.3535 277.838 37.5067 277.563 36.8769 277.015C36.2611 276.467 35.9531 275.715 35.9531 274.759C35.9531 272.82 37.2338 271.688 39.7951 271.365C39.9631 271.337 40.208 271.309 40.5299 271.281C41.7476 271.14 42.4964 270.979 42.7763 270.796C43.0982 270.571 43.2592 270.184 43.2592 269.636C43.2592 268.442 42.4404 267.844 40.8028 267.844C39.9631 267.844 39.3262 268.02 38.8924 268.371C38.4585 268.709 38.1995 269.271 38.1156 270.058H36.373C36.401 268.891 36.8139 267.985 37.6117 267.338C38.4095 266.692 39.5082 266.368 40.9078 266.368C42.4334 266.368 43.5671 266.72 44.3089 267.422C44.5468 267.647 44.7218 267.943 44.8338 268.308C44.9457 268.673 45.0087 268.976 45.0227 269.215C45.0367 269.439 45.0437 269.784 45.0437 270.248C45.0437 270.782 45.0297 271.59 45.0017 272.672C44.9737 273.754 44.9597 274.563 44.9597 275.097C44.9597 275.49 45.0087 275.771 45.1067 275.94C45.2187 276.095 45.4146 276.172 45.6945 276.172C45.8065 276.172 45.9535 276.151 46.1354 276.109ZM43.2592 271.892C43.1332 271.99 43.0003 272.075 42.8603 272.145C42.7203 272.215 42.5384 272.272 42.3144 272.314C42.1045 272.356 41.9575 272.391 41.8736 272.419C41.8036 272.433 41.6216 272.461 41.3277 272.504C41.0338 272.532 40.8798 272.546 40.8658 272.546C40.4319 272.602 40.145 272.644 40.0051 272.672C39.8791 272.686 39.6272 272.742 39.2493 272.841C38.8854 272.939 38.6264 273.052 38.4725 273.178C38.3185 273.305 38.1646 273.494 38.0106 273.747C37.8706 273.986 37.8006 274.274 37.8006 274.612C37.8006 275.174 37.9896 275.617 38.3675 275.94C38.7594 276.263 39.2912 276.425 39.9631 276.425C40.8168 276.425 41.5796 276.172 42.2514 275.666C42.9233 275.16 43.2592 274.563 43.2592 273.874V271.892Z" fill="black"/>
<path d="M47.7753 277.542V266.663H52.7929C53.5067 266.663 54.1156 266.727 54.6194 266.853C55.1233 266.966 55.5642 267.226 55.9421 267.633C56.32 268.041 56.5089 268.596 56.5089 269.299C56.5089 270.367 55.9771 271.147 54.9133 271.639V271.66C55.5572 271.787 56.061 272.089 56.4249 272.567C56.7888 273.031 56.9708 273.621 56.9708 274.338C56.9708 275.265 56.6629 276.031 56.047 276.636C55.4312 277.24 54.6404 277.542 53.6747 277.542H47.7753ZM52.604 271.049C53.3458 271.049 53.8706 270.929 54.1785 270.69C54.5005 270.437 54.6614 270.072 54.6614 269.594C54.6614 269.116 54.5075 268.765 54.1995 268.54C53.8916 268.315 53.3598 268.203 52.604 268.203H49.5178V271.049H52.604ZM49.5178 272.567V276.003H53.3388C53.8986 276.003 54.3325 275.835 54.6404 275.497C54.9623 275.16 55.1233 274.724 55.1233 274.19C55.1233 273.108 54.4235 272.567 53.0238 272.567H49.5178Z" fill="black"/>
<path d="M67.3863 268.245H63.5023V277.542H61.7178V268.245H57.8339V266.663H67.3863V268.245Z" fill="black"/>
<path d="M69.3033 267.907C70.2551 266.867 71.5497 266.347 73.1873 266.347C74.8248 266.347 76.0985 266.846 77.0083 267.844C77.918 268.842 78.3729 270.241 78.3729 272.04C78.3729 273.881 77.918 275.315 77.0083 276.341C76.0985 277.367 74.8179 277.88 73.1663 277.88C71.5147 277.88 70.2201 277.374 69.2823 276.362C68.3446 275.35 67.8757 273.944 67.8757 272.145C67.8757 270.36 68.3516 268.948 69.3033 267.907ZM75.6226 269.004C75.0208 268.231 74.195 267.844 73.1453 267.844C72.0956 267.844 71.2628 268.231 70.647 269.004C70.0311 269.777 69.7232 270.81 69.7232 272.103C69.7232 273.438 70.0241 274.485 70.626 275.244C71.2418 275.989 72.0956 276.362 73.1873 276.362C74.237 276.362 75.0558 275.982 75.6436 275.223C76.2455 274.464 76.5464 273.417 76.5464 272.082C76.5464 270.789 76.2385 269.763 75.6226 269.004Z" fill="black"/>
<path d="M92.2338 277.542H90.4492V268.962H90.3863L87.1741 277.542H85.5366L82.3244 268.962H82.2614V277.542H80.4769V266.663H83.0382L86.3344 275.476H86.3763L89.6724 266.663H92.2338V277.542Z" fill="black"/>
<path d="M95.7308 267.907C96.6825 266.867 97.9772 266.347 99.6148 266.347C101.252 266.347 102.526 266.846 103.436 267.844C104.345 268.842 104.8 270.241 104.8 272.04C104.8 273.881 104.345 275.315 103.436 276.341C102.526 277.367 101.245 277.88 99.5938 277.88C97.9422 277.88 96.6475 277.374 95.7098 276.362C94.772 275.35 94.3032 273.944 94.3032 272.145C94.3032 270.36 94.7791 268.948 95.7308 267.907ZM102.05 269.004C101.448 268.231 100.622 267.844 99.5728 267.844C98.523 267.844 97.6903 268.231 97.0744 269.004C96.4586 269.777 96.1507 270.81 96.1507 272.103C96.1507 273.438 96.4516 274.485 97.0534 275.244C97.6693 275.989 98.523 276.362 99.6148 276.362C100.664 276.362 101.483 275.982 102.071 275.223C102.673 274.464 102.974 273.417 102.974 272.082C102.974 270.789 102.666 269.763 102.05 269.004Z" fill="black"/>
<path d="M107.933 265.146C108.409 264.401 108.983 263.852 109.655 263.501C110.326 263.136 111.18 262.918 112.216 262.847C113.378 262.763 114.084 262.651 114.336 262.51C114.504 262.426 114.63 262.313 114.714 262.173H116.499C116.457 262.398 116.394 262.601 116.31 262.784C116.24 262.967 116.156 263.129 116.058 263.269C115.974 263.396 115.848 263.515 115.68 263.628C115.526 263.74 115.393 263.838 115.281 263.923C115.169 263.993 115.001 264.063 114.777 264.134C114.567 264.19 114.399 264.239 114.273 264.281C114.147 264.309 113.951 264.337 113.686 264.365C113.434 264.394 113.252 264.415 113.14 264.429C113.028 264.443 112.825 264.457 112.531 264.471C112.237 264.485 112.048 264.499 111.964 264.513C110.816 264.597 109.921 265.047 109.277 265.862C108.633 266.663 108.227 267.739 108.059 269.088H108.122C108.43 268.343 108.92 267.746 109.592 267.296C110.263 266.846 111.04 266.621 111.922 266.621C113.462 266.621 114.665 267.113 115.533 268.097C116.415 269.067 116.856 270.43 116.856 272.187C116.856 274 116.408 275.406 115.512 276.404C114.63 277.402 113.385 277.901 111.775 277.901C110.459 277.901 109.347 277.514 108.437 276.741C107.527 275.954 106.967 274.83 106.757 273.368C106.673 272.778 106.631 272.117 106.631 271.386C106.631 268.561 107.065 266.481 107.933 265.146ZM108.458 272.251C108.458 273.487 108.752 274.485 109.34 275.244C109.942 276.003 110.76 276.383 111.796 276.383C112.804 276.383 113.595 276.017 114.168 275.286C114.742 274.556 115.029 273.537 115.029 272.229C115.029 270.95 114.735 269.945 114.147 269.215C113.56 268.484 112.762 268.118 111.754 268.118C110.746 268.118 109.942 268.491 109.34 269.236C108.752 269.967 108.458 270.971 108.458 272.251Z" fill="black"/>
<path d="M121.269 277.542H118.981V266.663H120.765V275.539H120.807L125.678 266.663H127.966V277.542H126.182V268.666H126.14L121.269 277.542Z" fill="black"/>
<path d="M139.674 266.663V277.542H137.89V268.245H134.027L133.88 273.052C133.838 274.71 133.537 275.912 132.977 276.657C132.417 277.402 131.717 277.774 130.877 277.774C130.36 277.774 129.933 277.697 129.597 277.542V276.088C129.779 276.186 130.094 276.235 130.542 276.235C130.961 276.235 131.318 276.01 131.612 275.561C131.92 275.097 132.088 274.324 132.116 273.241L132.305 266.663H139.674Z" fill="black"/>
<path d="M144.601 277.542H142.312V266.663H144.097V275.539H144.139L149.01 266.663H151.298V277.542H149.513V268.666H149.471L144.601 277.542Z" fill="black"/>
<path d="M169.143 273.579C168.989 274.886 168.492 275.926 167.652 276.699C166.826 277.472 165.749 277.859 164.419 277.859C162.782 277.859 161.515 277.353 160.619 276.341C159.723 275.315 159.275 273.951 159.275 272.251C159.275 270.437 159.744 269.004 160.682 267.95C161.62 266.881 162.887 266.347 164.482 266.347C165.812 266.347 166.875 266.685 167.673 267.359C168.471 268.02 168.94 268.969 169.08 270.205H167.232C166.91 268.631 166.001 267.844 164.503 267.844C163.467 267.844 162.649 268.231 162.047 269.004C161.445 269.763 161.144 270.796 161.144 272.103C161.144 273.424 161.431 274.464 162.005 275.223C162.579 275.982 163.369 276.362 164.377 276.362C165.189 276.362 165.847 276.123 166.351 275.645C166.868 275.167 167.197 274.478 167.337 273.579H169.143Z" fill="black"/>
<path d="M178.725 277.542H176.941V266.663H185.926V277.542H184.142V268.245H178.725V277.542Z" fill="black"/>
<path d="M197.865 274.106C197.319 276.636 195.745 277.901 193.141 277.901C191.546 277.901 190.293 277.402 189.383 276.404C188.488 275.406 188.04 274.021 188.04 272.251C188.04 270.494 188.502 269.074 189.425 267.992C190.363 266.895 191.581 266.347 193.078 266.347C194.744 266.347 195.976 266.916 196.773 268.055C197.585 269.179 197.991 270.606 197.991 272.335V272.588H189.845L189.824 272.714C189.824 273.867 190.125 274.773 190.727 275.434C191.329 276.095 192.155 276.425 193.204 276.425C193.988 276.425 194.604 276.242 195.052 275.877C195.514 275.511 195.871 274.921 196.123 274.106H197.865ZM196.144 271.133C196.06 270.093 195.745 269.285 195.199 268.709C194.653 268.118 193.932 267.823 193.036 267.823C192.169 267.823 191.448 268.118 190.874 268.709C190.3 269.299 189.957 270.107 189.845 271.133H196.144Z" fill="black"/>
<path d="M210.011 281H208.31V277.542H200.039V281H198.338V275.961H199.514C199.85 275.315 200.158 274.317 200.438 272.967C200.731 271.604 200.878 270.276 200.878 268.983V266.663H208.604V275.961H210.011V281ZM206.82 275.961V268.245H202.621V269.151C202.621 270.43 202.488 271.73 202.222 273.052C201.97 274.359 201.683 275.329 201.361 275.961H206.82Z" fill="black"/>
<path d="M221.164 276.109V277.5C220.8 277.641 220.394 277.711 219.946 277.711C218.924 277.711 218.399 277.177 218.371 276.109C217.35 277.261 216.041 277.838 214.445 277.838C213.382 277.838 212.535 277.563 211.905 277.015C211.289 276.467 210.981 275.715 210.981 274.759C210.981 272.82 212.262 271.688 214.823 271.365C214.991 271.337 215.236 271.309 215.558 271.281C216.776 271.14 217.525 270.979 217.804 270.796C218.126 270.571 218.287 270.184 218.287 269.636C218.287 268.442 217.469 267.844 215.831 267.844C214.991 267.844 214.354 268.02 213.92 268.371C213.487 268.709 213.228 269.271 213.144 270.058H211.401C211.429 268.891 211.842 267.985 212.64 267.338C213.438 266.692 214.536 266.368 215.936 266.368C217.462 266.368 218.595 266.72 219.337 267.422C219.575 267.647 219.75 267.943 219.862 268.308C219.974 268.673 220.037 268.976 220.051 269.215C220.065 269.439 220.072 269.784 220.072 270.248C220.072 270.782 220.058 271.59 220.03 272.672C220.002 273.754 219.988 274.563 219.988 275.097C219.988 275.49 220.037 275.771 220.135 275.94C220.247 276.095 220.443 276.172 220.723 276.172C220.835 276.172 220.982 276.151 221.164 276.109ZM218.287 271.892C218.161 271.99 218.028 272.075 217.888 272.145C217.748 272.215 217.567 272.272 217.343 272.314C217.133 272.356 216.986 272.391 216.902 272.419C216.832 272.433 216.65 272.461 216.356 272.504C216.062 272.532 215.908 272.546 215.894 272.546C215.46 272.602 215.173 272.644 215.033 272.672C214.907 272.686 214.655 272.742 214.277 272.841C213.913 272.939 213.655 273.052 213.501 273.178C213.347 273.305 213.193 273.494 213.039 273.747C212.899 273.986 212.829 274.274 212.829 274.612C212.829 275.174 213.018 275.617 213.396 275.94C213.788 276.263 214.319 276.425 214.991 276.425C215.845 276.425 216.608 276.172 217.28 275.666C217.951 275.16 218.287 274.563 218.287 273.874V271.892Z" fill="black"/>
<path d="M231.873 266.663V277.542H230.088V268.245H226.225L226.079 273.052C226.037 274.71 225.736 275.912 225.176 276.657C224.616 277.402 223.916 277.774 223.076 277.774C222.558 277.774 222.132 277.697 221.796 277.542V276.088C221.978 276.186 222.293 276.235 222.74 276.235C223.16 276.235 223.517 276.01 223.811 275.561C224.119 275.097 224.287 274.324 224.315 273.241L224.504 266.663H231.873Z" fill="black"/>
<path d="M243.077 277.542H241.292V273.094H238.92L235.498 277.542H233.126L236.863 273.031C236.065 272.904 235.414 272.567 234.91 272.019C234.42 271.456 234.175 270.74 234.175 269.868C234.175 268.856 234.476 268.069 235.078 267.507C235.68 266.945 236.513 266.663 237.576 266.663H243.077V277.542ZM241.292 268.245H238.143C236.716 268.245 236.002 268.786 236.002 269.868C236.002 270.964 236.716 271.513 238.143 271.513H241.292V268.245Z" fill="black"/>
<path d="M257.523 277.542H255.739V268.962H255.676L252.464 277.542H250.826L247.614 268.962H247.551V277.542H245.766V266.663H248.328L251.624 275.476H251.666L254.962 266.663H257.523V277.542Z" fill="black"/>
<path d="M262.448 277.542H260.16V266.663H261.944V275.539H261.986L266.857 266.663H269.145V277.542H267.361V268.666H267.319L262.448 277.542Z" fill="black"/>
<path d="M274.555 275.202V277.542H272.224V275.202H274.555Z" fill="black"/>
</svg>
