<svg width="1451" height="100" viewBox="0 0 1451 100" fill="none" xmlns="http://www.w3.org/2000/svg">
<path d="M1246.45 86.7912V97.1217H1185C1185.27 91.8446 1186.06 87.2384 1187.39 83.3029C1188.72 79.3675 1190.76 75.8345 1193.51 72.704C1196.35 69.4841 1199.1 66.8456 1201.76 64.7884C1204.42 62.7312 1208.19 60.1821 1213.06 57.1411C1220.69 52.3112 1225.7 48.6888 1228.09 46.2739C1233.06 41.3545 1235.54 35.8986 1235.54 29.9059C1235.54 24.6289 1233.86 20.3356 1230.49 17.0263C1227.12 13.6275 1222.73 11.9281 1217.32 11.9281C1210.85 11.9281 1206.19 14.2089 1203.35 18.7704C1200.61 23.2425 1199.14 28.9221 1198.97 35.8091H1187.53V33.26C1187.53 23.8686 1190.28 16.3107 1195.77 10.5864C1201.36 4.86215 1208.72 2 1217.85 2C1226.81 2 1233.94 4.50438 1239.26 9.51314C1244.58 14.5219 1247.24 21.2301 1247.24 29.6376C1247.24 33.2153 1246.62 36.6141 1245.38 39.834C1244.23 42.9645 1242.9 45.603 1241.39 47.7497C1239.97 49.8963 1237.76 52.177 1234.74 54.592C1231.82 57.0069 1229.38 58.8852 1227.43 60.2268C1225.48 61.479 1222.68 63.2231 1219.05 65.4592C1211.78 69.8419 1206.95 73.2407 1204.55 75.6556C1201.18 79.0544 1199.01 82.7663 1198.03 86.7912H1246.45Z" fill="black"/>
<path d="M1292.42 2C1298.09 2 1302.93 3.07331 1306.92 5.21992C1311 7.27708 1314.1 9.82619 1316.23 12.8672C1318.35 15.9083 1320.04 19.8884 1321.28 24.8077C1322.52 29.6376 1323.28 34.0203 1323.54 37.9557C1323.81 41.8018 1323.94 46.4527 1323.94 51.9087C1323.94 56.9175 1323.72 61.4343 1323.28 65.4592C1322.92 69.4841 1322.08 73.6879 1320.75 78.0705C1319.51 82.4532 1317.78 86.1203 1315.56 89.0719C1313.35 91.9341 1310.33 94.3043 1306.52 96.1826C1302.71 98.0609 1298.18 99 1292.95 99C1287.45 99 1282.67 98.0609 1278.59 96.1826C1274.6 94.2148 1271.49 91.7999 1269.28 88.9378C1267.06 86.0756 1265.29 82.4532 1263.96 78.0705C1262.72 73.5984 1261.92 69.3947 1261.56 65.4592C1261.21 61.4343 1261.03 56.828 1261.03 51.6404C1261.03 47.1683 1261.12 43.2775 1261.3 39.9682C1261.56 36.6588 1262.01 32.947 1262.63 28.8326C1263.34 24.6289 1264.4 21.0959 1265.82 18.2338C1267.24 15.2822 1269.06 12.5095 1271.27 9.91563C1273.49 7.32181 1276.37 5.35408 1279.92 4.01245C1283.55 2.67082 1287.72 2 1292.42 2ZM1299.73 13.8064C1297.61 12.7331 1295.17 12.1964 1292.42 12.1964C1289.67 12.1964 1287.23 12.7331 1285.1 13.8064C1282.98 14.7902 1281.25 15.953 1279.92 17.2946C1278.59 18.6362 1277.44 20.6487 1276.46 23.332C1275.48 25.9258 1274.78 28.1171 1274.33 29.9059C1273.98 31.6948 1273.67 34.2886 1273.4 37.6874C1273.13 40.9968 1273 43.367 1273 44.7981C1273 46.1397 1273 48.4205 1273 51.6404C1273 54.7709 1273.05 57.3647 1273.13 59.4219C1273.22 61.479 1273.44 64.1623 1273.8 67.4716C1274.15 70.781 1274.77 73.5537 1275.66 75.7898C1276.55 77.9364 1277.66 80.1277 1278.99 82.3638C1280.32 84.5104 1282.13 86.1651 1284.44 87.3278C1286.83 88.4011 1289.58 88.9378 1292.69 88.9378C1295.35 88.9378 1297.7 88.4458 1299.73 87.462C1301.86 86.4781 1303.59 85.3154 1304.92 83.9737C1306.25 82.6321 1307.36 80.7538 1308.25 78.3389C1309.22 75.8345 1309.93 73.6879 1310.37 71.899C1310.82 70.0208 1311.13 67.5611 1311.31 64.5201C1311.57 61.3896 1311.7 59.1088 1311.7 57.6777C1311.79 56.1572 1311.84 53.9659 1311.84 51.1037C1311.84 47.9733 1311.84 45.7372 1311.84 44.3956C1311.84 43.0539 1311.7 40.7284 1311.44 37.4191C1311.17 34.1097 1310.82 31.5606 1310.37 29.7718C1310.02 27.9829 1309.36 25.7916 1308.38 23.1978C1307.4 20.604 1306.25 18.6362 1304.92 17.2946C1303.59 15.953 1301.86 14.7902 1299.73 13.8064Z" fill="black"/>
<path d="M1394.25 86.7912V97.1217H1332.81C1333.07 91.8446 1333.87 87.2384 1335.2 83.3029C1336.53 79.3675 1338.57 75.8345 1341.32 72.704C1344.16 69.4841 1346.91 66.8456 1349.57 64.7884C1352.23 62.7312 1355.99 60.1821 1360.87 57.1411C1368.5 52.3112 1373.51 48.6888 1375.9 46.2739C1380.86 41.3545 1383.35 35.8986 1383.35 29.9059C1383.35 24.6289 1381.66 20.3356 1378.29 17.0263C1374.92 13.6275 1370.54 11.9281 1365.13 11.9281C1358.65 11.9281 1354 14.2089 1351.16 18.7704C1348.41 23.2425 1346.95 28.9221 1346.77 35.8091H1335.33V33.26C1335.33 23.8686 1338.08 16.3107 1343.58 10.5864C1349.17 4.86215 1356.53 2 1365.66 2C1374.61 2 1381.75 4.50438 1387.07 9.51314C1392.39 14.5219 1395.05 21.2301 1395.05 29.6376C1395.05 33.2153 1394.43 36.6141 1393.19 39.834C1392.04 42.9645 1390.71 45.603 1389.2 47.7497C1387.78 49.8963 1385.56 52.177 1382.55 54.592C1379.62 57.0069 1377.19 58.8852 1375.23 60.2268C1373.28 61.479 1370.49 63.2231 1366.86 65.4592C1359.58 69.8419 1354.75 73.2407 1352.36 75.6556C1348.99 79.0544 1346.82 82.7663 1345.84 86.7912H1394.25Z" fill="black"/>
<path d="M1451 2.13417V97.1217H1438.63V28.296H1414.96V19.7095C1422.58 19.7095 1428.61 18.4574 1433.04 15.953C1437.57 13.4486 1440.58 8.84233 1442.09 2.13417H1451Z" fill="black"/>
<path d="M633 1.88679H671.869C681.509 1.88679 689.159 4.13297 694.819 8.62533C700.479 13.0278 703.309 19.991 703.309 29.5148C703.309 48.832 692.564 58.4906 671.073 58.4906H645.47V97.8437H633V1.88679ZM645.47 12.8032V47.8437H669.481C676.203 47.8437 681.421 46.5858 685.135 44.0701C688.938 41.4645 690.84 36.8823 690.84 30.3234C690.84 26.6397 690.22 23.5849 688.982 21.159C687.833 18.7332 686.108 16.9362 683.809 15.7682C681.509 14.6002 679.121 13.8365 676.645 13.4771C674.169 13.0278 671.206 12.8032 667.757 12.8032H645.47Z" fill="black"/>
<path d="M718.491 1.88679H760.013C781.15 1.88679 791.719 10.7367 791.719 28.4367C791.719 34.0072 790.215 38.9488 787.208 43.2615C784.29 47.4843 780.398 50.3145 775.534 51.752C778.718 52.4708 781.283 53.504 783.229 54.8518C785.174 56.1995 786.589 58.0863 787.474 60.5121C788.358 62.938 788.933 65.0943 789.198 66.9811C789.463 68.8679 789.685 71.6532 789.861 75.3369C789.861 75.6963 789.906 76.5948 789.994 78.0323C790.083 79.3801 790.127 80.3235 790.127 80.8625C790.127 81.3118 790.171 82.1653 790.259 83.4232C790.436 84.681 790.569 85.6244 790.657 86.2534C790.746 86.8823 790.879 87.7359 791.055 88.814C791.232 89.8922 791.453 90.7907 791.719 91.5094C791.984 92.1384 792.294 92.9021 792.647 93.8005C793.001 94.6092 793.399 95.3729 793.841 96.0916C794.283 96.7206 794.77 97.3046 795.301 97.8437H780.973C780.354 96.9452 779.824 95.8221 779.381 94.4744C779.028 93.1267 778.762 91.5544 778.585 89.7574C778.409 87.8706 778.276 86.3881 778.187 85.31C778.099 84.142 778.011 82.4798 777.922 80.3235C777.834 78.1671 777.789 76.9542 777.789 76.6846C777.347 68.5085 775.667 63.0728 772.748 60.3774C769.918 57.6819 764.258 56.3342 755.768 56.3342H730.961V97.8437H718.491V1.88679ZM730.961 12.6685V46.2264H754.441C757.36 46.2264 759.792 46.1366 761.738 45.9569C763.772 45.7772 765.983 45.3729 768.371 44.7439C770.759 44.115 772.66 43.2165 774.075 42.0485C775.578 40.8805 776.817 39.2183 777.789 37.062C778.762 34.9057 779.249 32.3001 779.249 29.2453C779.249 22.7763 777.303 18.4187 773.412 16.1725C769.609 13.8365 764.391 12.6685 757.758 12.6685H730.961Z" fill="black"/>
<path d="M874.706 1.88679V12.938H821.775V42.9919H871.257V53.6388H821.775V86.7924H875.37V97.8437H809.305V1.88679H874.706Z" fill="black"/>
<path d="M957.264 30.0539H945.192C943.866 17.0261 936.039 10.5121 921.711 10.5121C914.902 10.5121 909.639 11.9048 905.925 14.69C902.211 17.4753 900.353 21.3836 900.353 26.4151C900.353 28.212 900.619 29.7844 901.149 31.1321C901.68 32.4798 902.564 33.6927 903.802 34.7709C905.129 35.7592 906.367 36.6128 907.517 37.3315C908.667 38.0503 910.48 38.7691 912.956 39.4879C915.432 40.2066 917.422 40.7457 918.926 41.1051C920.429 41.3747 922.773 41.8688 925.957 42.5876C929.848 43.3962 933.076 44.1599 935.641 44.8787C938.205 45.5076 941.257 46.5858 944.794 48.1132C948.332 49.6406 951.118 51.3477 953.152 53.2345C955.274 55.0314 957.087 57.4573 958.591 60.5121C960.183 63.5669 960.979 67.0261 960.979 70.8895C960.979 77.628 959.121 83.2884 955.407 87.8706C951.693 92.363 947.182 95.5076 941.876 97.3046C936.569 99.1015 930.688 100 924.232 100C912.381 100 902.874 97.1698 895.71 91.5094C888.635 85.7592 885.097 77.3136 885.097 66.1725H897.169C897.435 74.3486 900.132 80.3235 905.262 84.097C910.391 87.7808 917.068 89.6226 925.293 89.6226C931.749 89.6226 937.277 88.2749 941.876 85.5795C946.475 82.7943 948.774 78.3019 948.774 72.1024C948.774 69.2273 948.155 66.8014 946.917 64.8248C945.679 62.7583 943.733 61.0961 941.08 59.8383C938.427 58.4906 935.773 57.4124 933.12 56.6038C930.467 55.7951 926.974 54.8967 922.64 53.9084C922.021 53.8185 921.579 53.7287 921.313 53.6388C911.585 51.3926 905.217 49.5957 902.211 48.248C893.013 44.2049 888.414 37.2417 888.414 27.3585C888.414 18.1941 891.73 11.3657 898.363 6.87332C905.085 2.29111 913.177 0 922.64 0C932.988 0 941.257 2.51572 947.447 7.54717C953.638 12.5786 956.91 20.0809 957.264 30.0539Z" fill="black"/>
<path d="M1043.29 30.0539H1031.21C1029.89 17.0261 1022.06 10.5121 1007.73 10.5121C1000.92 10.5121 995.661 11.9048 991.946 14.69C988.232 17.4753 986.375 21.3836 986.375 26.4151C986.375 28.212 986.64 29.7844 987.171 31.1321C987.701 32.4798 988.586 33.6927 989.824 34.7709C991.15 35.7592 992.389 36.6128 993.538 37.3315C994.688 38.0503 996.501 38.7691 998.977 39.4879C1001.45 40.2066 1003.44 40.7457 1004.95 41.1051C1006.45 41.3747 1008.79 41.8688 1011.98 42.5876C1015.87 43.3962 1019.1 44.1599 1021.66 44.8787C1024.23 45.5076 1027.28 46.5858 1030.82 48.1132C1034.35 49.6406 1037.14 51.3477 1039.17 53.2345C1041.3 55.0314 1043.11 57.4573 1044.61 60.5121C1046.2 63.5669 1047 67.0261 1047 70.8895C1047 77.628 1045.14 83.2884 1041.43 87.8706C1037.71 92.363 1033.2 95.5076 1027.9 97.3046C1022.59 99.1015 1016.71 100 1010.25 100C998.402 100 988.895 97.1698 981.732 91.5094C974.656 85.7592 971.119 77.3136 971.119 66.1725H983.191C983.456 74.3486 986.154 80.3235 991.283 84.097C996.413 87.7808 1003.09 89.6226 1011.31 89.6226C1017.77 89.6226 1023.3 88.2749 1027.9 85.5795C1032.5 82.7943 1034.8 78.3019 1034.8 72.1024C1034.8 69.2273 1034.18 66.8014 1032.94 64.8248C1031.7 62.7583 1029.75 61.0961 1027.1 59.8383C1024.45 58.4906 1021.79 57.4124 1019.14 56.6038C1016.49 55.7951 1012.99 54.8967 1008.66 53.9084C1008.04 53.8185 1007.6 53.7287 1007.33 53.6388C997.606 51.3926 991.239 49.5957 988.232 48.248C979.034 44.2049 974.435 37.2417 974.435 27.3585C974.435 18.1941 977.752 11.3657 984.385 6.87332C991.106 2.29111 999.198 0 1008.66 0C1019.01 0 1027.28 2.51572 1033.47 7.54717C1039.66 12.5786 1042.93 20.0809 1043.29 30.0539Z" fill="black"/>
<path d="M62.4905 2V12.941H12.5515V42.5618H56.6153V53.1025H12.5515V97H0V2H62.4905Z" fill="black"/>
<path d="M89.6256 2V97H77.0741V2H89.6256Z" fill="black"/>
<path d="M111.095 2H152.889C174.164 2 184.802 10.7617 184.802 28.2851C184.802 33.8001 183.289 38.6924 180.262 42.9621C177.325 47.1428 173.408 49.9448 168.512 51.368C171.716 52.0796 174.298 53.1025 176.256 54.4368C178.215 55.7711 179.639 57.639 180.529 60.0407C181.419 62.4424 181.998 64.5772 182.265 66.4452C182.532 68.3132 182.755 71.0707 182.933 74.7177C182.933 75.0735 182.977 75.963 183.066 77.3862C183.155 78.7205 183.2 79.6545 183.2 80.1882C183.2 80.633 183.244 81.478 183.333 82.7233C183.511 83.9686 183.645 84.9026 183.734 85.5253C183.823 86.1479 183.956 86.993 184.134 88.0604C184.312 89.1278 184.535 90.0173 184.802 90.7289C185.069 91.3516 185.381 92.1077 185.737 92.9972C186.093 93.7978 186.493 94.5538 186.938 95.2654C187.384 95.8881 187.873 96.4663 188.407 97H173.986C173.363 96.1105 172.829 94.9986 172.384 93.6643C172.028 92.3301 171.761 90.7734 171.583 88.9944C171.405 87.1264 171.271 85.6587 171.182 84.5913C171.093 83.4349 171.004 81.7893 170.915 79.6545C170.826 77.5197 170.782 76.3188 170.782 76.052C170.337 67.9574 168.645 62.5758 165.708 59.9073C162.859 57.2388 157.162 55.9045 148.616 55.9045H123.647V97H111.095V2ZM123.647 12.6742V45.8975H147.281C150.219 45.8975 152.667 45.8085 154.625 45.6306C156.672 45.4527 158.898 45.0524 161.301 44.4298C163.705 43.8071 165.619 42.9176 167.043 41.7612C168.556 40.6049 169.803 38.9593 170.782 36.8244C171.761 34.6896 172.251 32.11 172.251 29.0857C172.251 22.6812 170.292 18.367 166.375 16.1433C162.548 13.8305 157.296 12.6742 150.619 12.6742H123.647Z" fill="black"/>
<path d="M268.332 2V12.941H215.055V42.6952H264.861V53.236H215.055V86.059H269V97H202.504V2H268.332Z" fill="black"/>
</svg>
