<svg width="1610" height="99" viewBox="0 0 1610 99" fill="none" xmlns="http://www.w3.org/2000/svg">
<rect x="1163" y="5" width="111" height="91" fill="#EBFF00"/>
<path d="M62.7836 1.84906V12.6792H12.6104V42H56.8809V52.434H12.6104V95.8868H0V1.84906H62.7836Z" fill="black"/>
<path d="M90.046 1.84906V95.8868H77.4356V1.84906H90.046Z" fill="black"/>
<path d="M111.616 1.84906H153.606C174.981 1.84906 185.669 10.522 185.669 27.8679C185.669 33.327 184.148 38.1698 181.108 42.3962C178.156 46.5346 174.221 49.3082 169.302 50.717C172.522 51.4214 175.115 52.434 177.083 53.7547C179.051 55.0755 180.481 56.9245 181.376 59.3019C182.27 61.6792 182.852 63.7925 183.12 65.6415C183.388 67.4906 183.612 70.2201 183.791 73.8302C183.791 74.1824 183.835 75.0629 183.925 76.4717C184.014 77.7924 184.059 78.717 184.059 79.2453C184.059 79.6855 184.104 80.522 184.193 81.7547C184.372 82.9874 184.506 83.9119 184.596 84.5283C184.685 85.1446 184.819 85.9811 184.998 87.0377C185.177 88.0943 185.4 88.9748 185.669 89.6792C185.937 90.2956 186.25 91.044 186.608 91.9245C186.966 92.717 187.368 93.4654 187.815 94.1698C188.262 94.7862 188.754 95.3585 189.291 95.8868H174.802C174.176 95.0063 173.64 93.9057 173.193 92.5849C172.835 91.2641 172.566 89.7233 172.388 87.9623C172.209 86.1132 172.075 84.6604 171.985 83.6038C171.896 82.4591 171.806 80.8302 171.717 78.717C171.627 76.6038 171.583 75.4151 171.583 75.1509C171.136 67.1384 169.436 61.8113 166.485 59.1698C163.623 56.5283 157.899 55.2075 149.313 55.2075H124.227V95.8868H111.616V1.84906ZM124.227 12.4151V45.3019H147.972C150.923 45.3019 153.383 45.2138 155.35 45.0377C157.407 44.8616 159.643 44.4654 162.058 43.8491C164.473 43.2327 166.395 42.3522 167.826 41.2075C169.347 40.0629 170.599 38.434 171.583 36.3208C172.566 34.2075 173.058 31.6541 173.058 28.6604C173.058 22.3208 171.091 18.0503 167.156 15.8491C163.31 13.5597 158.033 12.4151 151.326 12.4151H124.227Z" fill="black"/>
<path d="M269.591 1.84906V12.6792H216.064V42.1321H266.103V52.566H216.064V85.0566H270.262V95.8868H203.453V1.84906H269.591Z" fill="black"/>
<path d="M323.339 1.84906H362.646C372.394 1.84906 380.13 4.05031 385.854 8.45282C391.578 12.7673 394.44 19.5912 394.44 28.9245C394.44 47.8553 383.574 57.3208 361.841 57.3208H335.949V95.8868H323.339V1.84906ZM335.949 12.5472V46.8868H360.231C367.028 46.8868 372.305 45.6541 376.061 43.1887C379.907 40.6352 381.83 36.1446 381.83 29.717C381.83 26.1069 381.204 23.1132 379.952 20.7358C378.789 18.3585 377.045 16.5975 374.72 15.4528C372.394 14.3082 369.98 13.5597 367.475 13.2075C364.971 12.7673 361.975 12.5472 358.487 12.5472H335.949Z" fill="black"/>
<path d="M409.792 1.84906H451.782C473.157 1.84906 483.845 10.522 483.845 27.8679C483.845 33.327 482.324 38.1698 479.283 42.3962C476.332 46.5346 472.397 49.3082 467.478 50.717C470.698 51.4214 473.291 52.434 475.259 53.7547C477.226 55.0755 478.657 56.9245 479.552 59.3019C480.446 61.6792 481.027 63.7925 481.296 65.6415C481.564 67.4906 481.788 70.2201 481.966 73.8302C481.966 74.1824 482.011 75.0629 482.101 76.4717C482.19 77.7924 482.235 78.717 482.235 79.2453C482.235 79.6855 482.28 80.522 482.369 81.7547C482.548 82.9874 482.682 83.9119 482.771 84.5283C482.861 85.1446 482.995 85.9811 483.174 87.0377C483.353 88.0943 483.576 88.9748 483.845 89.6792C484.113 90.2956 484.426 91.044 484.784 91.9245C485.141 92.717 485.544 93.4654 485.991 94.1698C486.438 94.7862 486.93 95.3585 487.467 95.8868H472.978C472.352 95.0063 471.816 93.9057 471.368 92.5849C471.011 91.2641 470.742 89.7233 470.564 87.9623C470.385 86.1132 470.25 84.6604 470.161 83.6038C470.072 82.4591 469.982 80.8302 469.893 78.717C469.803 76.6038 469.759 75.4151 469.759 75.1509C469.311 67.1384 467.612 61.8113 464.661 59.1698C461.799 56.5283 456.075 55.2075 447.489 55.2075H422.403V95.8868H409.792V1.84906ZM422.403 12.4151V45.3019H446.148C449.099 45.3019 451.558 45.2138 453.526 45.0377C455.583 44.8616 457.819 44.4654 460.234 43.8491C462.648 43.2327 464.571 42.3522 466.002 41.2075C467.523 40.0629 468.775 38.434 469.759 36.3208C470.742 34.2075 471.234 31.6541 471.234 28.6604C471.234 22.3208 469.267 18.0503 465.332 15.8491C461.486 13.5597 456.209 12.4151 449.501 12.4151H422.403Z" fill="black"/>
<path d="M567.767 1.84906V12.6792H514.24V42.1321H564.279V52.566H514.24V85.0566H568.438V95.8868H501.629V1.84906H567.767Z" fill="black"/>
<path d="M651.254 29.4528H639.046C637.704 16.6855 629.789 10.3019 615.301 10.3019C608.414 10.3019 603.093 11.6667 599.337 14.3962C595.58 17.1258 593.702 20.956 593.702 25.8868C593.702 27.6478 593.971 29.1887 594.507 30.5094C595.044 31.8302 595.938 33.0189 597.19 34.0755C598.532 35.044 599.784 35.8805 600.947 36.5849C602.109 37.2893 603.943 37.9937 606.447 38.6981C608.951 39.4025 610.963 39.9308 612.484 40.283C614.004 40.5472 616.374 41.0314 619.594 41.7358C623.529 42.5283 626.793 43.2767 629.387 43.9811C631.981 44.5975 635.066 45.6541 638.643 47.1509C642.221 48.6478 645.038 50.3208 647.095 52.1698C649.242 53.9308 651.075 56.3082 652.595 59.3019C654.205 62.2956 655.01 65.6855 655.01 69.4717C655.01 76.0755 653.132 81.6226 649.376 86.1132C645.619 90.5157 641.058 93.5975 635.692 95.3585C630.326 97.1195 624.379 98 617.85 98C605.866 98 596.251 95.2264 589.007 89.6792C581.852 84.044 578.275 75.7673 578.275 64.8491H590.483C590.751 72.8616 593.479 78.717 598.666 82.4151C603.853 86.0252 610.606 87.8302 618.923 87.8302C625.452 87.8302 631.042 86.5094 635.692 83.8679C640.343 81.1384 642.668 76.7358 642.668 70.6604C642.668 67.8428 642.042 65.4654 640.79 63.5283C639.538 61.5031 637.57 59.8742 634.887 58.6415C632.204 57.3208 629.521 56.2641 626.838 55.4717C624.155 54.6792 620.622 53.7987 616.24 52.8302C615.614 52.7421 615.167 52.6541 614.898 52.566C605.061 50.3648 598.621 48.6038 595.58 47.283C586.279 43.3208 581.629 36.4969 581.629 26.8113C581.629 17.8302 584.982 11.1384 591.69 6.73585C598.487 2.24528 606.67 0 616.24 0C626.704 0 635.066 2.46541 641.327 7.39623C647.587 12.327 650.896 19.6792 651.254 29.4528Z" fill="black"/>
<path d="M738.244 29.4528H726.036C724.694 16.6855 716.779 10.3019 702.291 10.3019C695.404 10.3019 690.083 11.6667 686.327 14.3962C682.57 17.1258 680.692 20.956 680.692 25.8868C680.692 27.6478 680.96 29.1887 681.497 30.5094C682.034 31.8302 682.928 33.0189 684.18 34.0755C685.522 35.044 686.774 35.8805 687.936 36.5849C689.099 37.2893 690.932 37.9937 693.437 38.6981C695.941 39.4025 697.953 39.9308 699.473 40.283C700.994 40.5472 703.364 41.0314 706.584 41.7358C710.519 42.5283 713.783 43.2767 716.377 43.9811C718.97 44.5975 722.056 45.6541 725.633 47.1509C729.211 48.6478 732.028 50.3208 734.085 52.1698C736.231 53.9308 738.065 56.3082 739.585 59.3019C741.195 62.2956 742 65.6855 742 69.4717C742 76.0755 740.122 81.6226 736.366 86.1132C732.609 90.5157 728.048 93.5975 722.682 95.3585C717.316 97.1195 711.368 98 704.84 98C692.855 98 683.241 95.2264 675.997 89.6792C668.842 84.044 665.264 75.7673 665.264 64.8491H677.472C677.741 72.8616 680.469 78.717 685.656 82.4151C690.843 86.0252 697.595 87.8302 705.913 87.8302C712.442 87.8302 718.031 86.5094 722.682 83.8679C727.333 81.1384 729.658 76.7358 729.658 70.6604C729.658 67.8428 729.032 65.4654 727.78 63.5283C726.528 61.5031 724.56 59.8742 721.877 58.6415C719.194 57.3208 716.511 56.2641 713.828 55.4717C711.145 54.6792 707.612 53.7987 703.23 52.8302C702.604 52.7421 702.157 52.6541 701.888 52.566C692.05 50.3648 685.611 48.6038 682.57 47.283C673.269 43.3208 668.618 36.4969 668.618 26.8113C668.618 17.8302 671.972 11.1384 678.68 6.73585C685.477 2.24528 693.66 0 703.23 0C713.694 0 722.056 2.46541 728.316 7.39623C734.577 12.327 737.886 19.6792 738.244 29.4528Z" fill="black"/>
<path d="M1359.82 2V12.8258H1309.62V42.1348H1353.91V52.5646H1309.62V96H1297V2H1359.82Z" fill="black"/>
<path d="M1406.73 2L1444.04 96H1429.95L1419.35 67.2191H1379.22L1368.34 96H1354.92L1392.5 2H1406.73ZM1415.59 57.3174L1399.35 13.882L1382.84 57.3174H1415.59Z" fill="black"/>
<path d="M1531.21 2L1490.95 39.7584L1532.82 96H1516.72L1482.09 48.2079L1466.25 62.9944V96H1453.63V2H1466.25V48.6039L1514.7 2H1531.21Z" fill="black"/>
<path d="M1609.33 2V12.8258H1555.77V42.2669H1605.84V52.6966H1555.77V85.1742H1610V96H1543.16V2H1609.33Z" fill="black"/>
<path d="M867.038 96.7739C864.045 96.5884 861.005 96.4493 857.918 96.3565C854.832 96.2638 851.792 96.2174 848.799 96.2174C845.713 96.2174 842.58 96.2638 839.4 96.3565C836.313 96.4493 833.18 96.5884 830 96.7739V94.5478C832.619 94.0841 834.723 93.6667 836.313 93.2957C837.903 92.9246 839.166 92.4609 840.101 91.9043C841.13 91.3478 841.972 90.6058 842.626 89.6783C843.281 88.658 843.936 87.313 844.591 85.6435C845.058 84.6232 845.993 82.2116 847.396 78.4087C848.799 74.6058 850.436 70.1536 852.307 65.0522C854.177 59.9507 856.141 54.5246 858.199 48.7739C860.257 42.9304 862.127 37.5043 863.811 32.4956C865.494 27.3942 866.897 23.0348 868.02 19.4174C869.142 15.8 869.703 13.5739 869.703 12.7391C869.703 10.8841 868.674 9.63188 866.617 8.98261C864.559 8.33333 861.987 7.73043 858.9 7.17391V5.22608C862.08 5.41159 865.214 5.55072 868.3 5.64348C871.48 5.73623 874.66 5.78261 877.84 5.78261C881.207 5.78261 884.527 5.73623 887.801 5.64348C891.168 5.55072 894.535 5.41159 897.902 5.22608V7.17391C895.751 7.45217 893.834 7.82319 892.15 8.28695C890.56 8.65797 889.11 9.26087 887.801 10.0957C886.585 10.9304 885.463 11.9971 884.434 13.2957C883.405 14.5942 882.47 16.3101 881.628 18.4435C879.57 23.4522 877.606 28.4609 875.736 33.4696C873.865 38.3855 872.135 43.3478 870.545 48.3565H910.388C910.669 47.429 911.136 46.0377 911.791 44.1826C912.446 42.2348 913.194 40.1014 914.036 37.7826C914.878 35.371 915.766 32.8667 916.701 30.2696C917.637 27.5797 918.478 25.1217 919.227 22.8957C920.068 20.5768 920.723 18.5826 921.191 16.913C921.752 15.1507 922.033 13.9449 922.033 13.2957C922.033 11.9971 921.612 11.0232 920.77 10.3739C919.928 9.63188 918.899 9.07536 917.683 8.70435C916.561 8.24058 915.345 7.91594 914.036 7.73043C912.82 7.54493 911.744 7.35942 910.809 7.17391V5.22608C914.176 5.41159 917.543 5.55072 920.91 5.64348C924.277 5.73623 927.644 5.78261 931.011 5.78261C934.191 5.78261 937.371 5.73623 940.551 5.64348C943.731 5.45797 946.911 5.31884 950.091 5.22608V7.17391C947.66 7.54492 945.508 8.10145 943.638 8.84348C941.767 9.49275 939.756 10.513 937.605 11.9043C937.138 12.2754 936.343 13.6203 935.22 15.9391C934.191 18.1652 932.929 21.087 931.432 24.7043C930.029 28.229 928.486 32.2174 926.803 36.6696C925.213 41.1217 923.576 45.6667 921.892 50.3043C920.302 54.942 918.759 59.487 917.263 63.9391C915.766 68.3913 914.41 72.3797 913.194 75.9043C912.072 79.429 911.136 82.3507 910.388 84.6696C909.734 86.9884 909.406 88.287 909.406 88.5652C909.406 89.5855 909.921 90.513 910.949 91.3478C912.072 92.0899 913.334 92.7391 914.737 93.2957C916.14 93.7594 917.543 94.1304 918.946 94.4087C920.349 94.687 921.425 94.8261 922.173 94.8261V96.7739C919.086 96.5884 916 96.4493 912.914 96.3565C909.921 96.2638 906.881 96.2174 903.794 96.2174C900.24 96.2174 896.639 96.2638 892.992 96.3565C889.344 96.4493 885.743 96.5884 882.189 96.7739V94.8261C884.902 94.4551 887.053 94.0841 888.643 93.713C890.326 93.2493 891.729 92.5536 892.852 91.6261C893.974 90.6058 894.956 89.2609 895.798 87.5913C896.639 85.829 897.622 83.4638 898.744 80.4957L908.985 52.2522H869.142C868.955 53.2725 868.487 54.8029 867.739 56.8435C867.084 58.8841 866.289 61.2029 865.354 63.8C864.419 66.3043 863.437 68.9942 862.408 71.8696C861.473 74.6522 860.584 77.2493 859.742 79.6609C858.9 82.0725 858.199 84.2058 857.638 86.0609C857.077 87.8232 856.796 89.029 856.796 89.6783C856.796 90.513 857.217 91.2551 858.059 91.9043C858.994 92.5536 860.023 93.1101 861.145 93.5739C862.268 93.9449 863.39 94.2696 864.512 94.5478C865.635 94.7333 866.476 94.8261 867.038 94.8261V96.7739Z" fill="black"/>
<path d="M1004.2 3C1008.31 3 1011.82 3.69565 1014.72 5.08695C1017.71 6.38551 1020.15 8.24058 1022.02 10.6522C1023.89 13.0638 1025.29 15.8928 1026.23 19.1391C1027.16 22.3855 1027.63 25.9565 1027.63 29.8522C1027.63 34.5826 1026.88 39.5913 1025.38 44.8783C1023.98 50.1652 1021.97 55.3594 1019.35 60.4609C1016.73 65.5623 1013.6 70.4783 1009.95 75.2087C1006.3 79.8464 1002.28 83.9275 997.886 87.4522C993.584 90.9768 988.954 93.8058 983.997 95.9391C979.04 97.9797 973.943 99 968.705 99C964.684 99 961.176 98.3043 958.183 96.913C955.19 95.6145 952.759 93.7594 950.888 91.3478C949.018 88.9362 947.615 86.1072 946.679 82.8609C945.744 79.6145 945.276 76.0435 945.276 72.1478C945.276 67.4174 945.978 62.4087 947.381 57.1217C948.877 51.8348 950.935 46.6406 953.554 41.5391C956.173 36.4377 959.306 31.5681 962.953 26.9304C966.601 22.2 970.576 18.0725 974.878 14.5478C979.274 11.0232 983.951 8.24058 988.908 6.2C993.865 4.06667 998.962 3 1004.2 3ZM1014.44 26.513C1014.44 23.8232 1014.16 21.2725 1013.6 18.8609C1013.13 16.4493 1012.29 14.3623 1011.07 12.6C1009.86 10.7449 1008.17 9.30724 1006.02 8.28695C1003.97 7.17391 1001.35 6.61739 998.167 6.61739C994.052 6.61739 990.17 7.91594 986.523 10.513C982.969 13.0174 979.695 16.3101 976.702 20.3913C973.803 24.4725 971.184 29.0638 968.846 34.1652C966.601 39.1739 964.684 44.229 963.094 49.3304C961.597 54.3391 960.428 59.1159 959.586 63.6609C958.838 68.113 958.464 71.7768 958.464 74.6522C958.464 77.342 958.698 79.8928 959.165 82.3043C959.727 84.7159 960.568 86.8493 961.691 88.7043C962.907 90.4667 964.543 91.9043 966.601 93.0174C968.659 94.0377 971.231 94.5478 974.317 94.5478C978.526 94.5478 982.454 93.2957 986.102 90.7913C989.749 88.1942 993.023 84.8551 995.922 80.7739C998.915 76.6928 1001.53 72.1478 1003.78 67.1391C1006.12 62.0377 1008.08 56.9826 1009.67 51.9739C1011.26 46.8725 1012.43 42.0956 1013.18 37.6435C1014.02 33.0985 1014.44 29.3884 1014.44 26.513Z" fill="black"/>
<path d="M1063.46 9.4C1060.75 12.9246 1057.76 16.171 1054.49 19.1391C1051.31 22.0145 1047.94 24.7507 1044.39 27.3478L1042.98 26.3739C1044.85 22.8493 1046.63 19.3246 1048.31 15.8C1050.09 12.2754 1051.87 8.75072 1053.64 5.22608C1059.91 5.50435 1066.18 5.68985 1072.44 5.78261C1078.71 5.78261 1085.02 5.78261 1091.38 5.78261C1097.56 5.78261 1103.64 5.78261 1109.62 5.78261C1115.7 5.68985 1121.83 5.50435 1128 5.22608C1127.53 9.30725 1127.11 13.3884 1126.74 17.4696C1126.36 21.458 1126.08 25.5391 1125.9 29.713H1123.93C1122.06 26.4667 1120.52 23.1739 1119.3 19.8348C1118.09 16.4029 1117.06 12.9246 1116.22 9.4H1097.14C1096.85 10.3275 1096.25 12.1826 1095.31 14.9652C1094.38 17.6551 1093.25 20.9014 1091.94 24.7043C1090.64 28.5072 1089.14 32.6812 1087.46 37.2261C1085.87 41.6783 1084.28 46.2232 1082.69 50.8609C1081.1 55.4986 1079.51 59.9971 1077.92 64.3565C1076.42 68.7159 1075.06 72.6116 1073.85 76.0435C1072.72 79.3826 1071.79 82.1652 1071.04 84.3913C1070.39 86.5246 1070.06 87.6841 1070.06 87.8696C1070.06 88.8899 1070.9 89.8174 1072.58 90.6522C1074.36 91.3942 1076.37 92.0899 1078.62 92.7391C1080.86 93.2957 1083.06 93.7594 1085.21 94.1304C1087.36 94.5014 1088.86 94.7333 1089.7 94.8261V96.7739C1088.67 96.6812 1087.03 96.5884 1084.79 96.4956C1082.64 96.4029 1080.21 96.3101 1077.49 96.2174C1074.78 96.2174 1071.98 96.2174 1069.08 96.2174C1066.27 96.2174 1063.65 96.2174 1061.22 96.2174C1057.29 96.2174 1053.41 96.2638 1049.58 96.3565C1045.83 96.4493 1042 96.5884 1038.07 96.7739V94.8261C1040.88 94.2696 1043.73 93.713 1046.63 93.1565C1049.62 92.5072 1052.33 91.487 1054.77 90.0957C1055.23 89.8174 1055.98 88.5652 1057.01 86.3391C1058.04 84.113 1059.21 81.2377 1060.52 77.713C1061.92 74.1884 1063.42 70.2 1065.01 65.7478C1066.6 61.2956 1068.19 56.7043 1069.78 51.9739C1071.46 47.2435 1073.1 42.5594 1074.69 37.9217C1076.28 33.2841 1077.68 29.0174 1078.9 25.1217C1080.21 21.2261 1081.33 17.887 1082.26 15.1043C1083.2 12.3217 1083.81 10.4203 1084.09 9.4H1063.46Z" fill="black"/>
</svg>
