<svg width="1611" height="99" viewBox="0 0 1611 99" fill="none" xmlns="http://www.w3.org/2000/svg">
<path d="M62.4905 0V11.1713H12.5515V41.4157H56.6153V52.1784H12.5515V97H0V0H62.4905Z" fill="black"/>
<path d="M89.6256 0V97H77.0741V0H89.6256Z" fill="black"/>
<path d="M111.095 0H152.889C174.164 0 184.802 8.94616 184.802 26.8385C184.802 32.4696 183.289 37.4649 180.262 41.8244C177.325 46.0932 173.408 48.9541 168.512 50.4073C171.716 51.1339 174.298 52.1784 176.256 53.5407C178.215 54.9031 179.639 56.8104 180.529 59.2626C181.419 61.7149 181.998 63.8947 182.265 65.802C182.532 67.7093 182.755 70.5248 182.933 74.2486C182.933 74.6119 182.977 75.5201 183.066 76.9733C183.155 78.3357 183.2 79.2893 183.2 79.8343C183.2 80.2884 183.244 81.1512 183.333 82.4227C183.511 83.6943 183.645 84.6479 183.734 85.2837C183.823 85.9195 183.956 86.7823 184.134 87.8722C184.312 88.9621 184.535 89.8703 184.802 90.5969C185.069 91.2327 185.381 92.0047 185.737 92.9129C186.093 93.7303 186.493 94.5023 186.938 95.2289C187.384 95.8647 187.873 96.4551 188.407 97H173.986C173.363 96.0918 172.829 94.9565 172.384 93.5941C172.028 92.2317 171.761 90.6423 171.583 88.8258C171.405 86.9185 171.271 85.4199 171.182 84.3301C171.093 83.1493 171.004 81.4691 170.915 79.2893C170.826 77.1095 170.782 75.8834 170.782 75.611C170.337 67.346 168.645 61.8511 165.708 59.1264C162.859 56.4017 157.162 55.0393 148.616 55.0393H123.647V97H111.095V0ZM123.647 10.8989V44.8216H147.281C150.219 44.8216 152.667 44.7308 154.625 44.5492C156.672 44.3675 158.898 43.9588 161.301 43.323C163.705 42.6873 165.619 41.779 167.043 40.5983C168.556 39.4176 169.803 37.7374 170.782 35.5576C171.761 33.3778 172.251 30.7439 172.251 27.6559C172.251 21.1166 170.292 16.7116 166.375 14.441C162.548 12.0796 157.296 10.8989 150.619 10.8989H123.647Z" fill="black"/>
<path d="M268.332 0V11.1713H215.055V41.552H264.861V52.3146H215.055V85.8287H269V97H202.504V0H268.332Z" fill="black"/>
<path d="M1265.14 96.7971C1264.34 96.7053 1262.91 96.6135 1260.85 96.5217C1258.79 96.43 1256.47 96.3382 1253.88 96.2464C1251.28 96.2464 1248.6 96.2464 1245.83 96.2464C1243.05 96.2464 1240.51 96.2464 1238.18 96.2464C1234.96 96.2464 1231.74 96.2923 1228.52 96.3841C1225.3 96.4758 1222.13 96.6135 1219 96.7971V94.8696C1222.04 94.4106 1224.41 93.8599 1226.11 93.2174C1227.9 92.4831 1229.28 91.7029 1230.27 90.8768C1231.34 90.0507 1232.1 89.1788 1232.55 88.2609C1233.08 87.2512 1233.62 86.1498 1234.16 84.9565C1234.69 83.7633 1235.59 81.3309 1236.84 77.6594C1238.18 73.9879 1239.66 69.7198 1241.27 64.8551C1242.97 59.8986 1244.71 54.7126 1246.5 49.2971C1248.29 43.8816 1249.9 38.7874 1251.33 34.0145C1252.85 29.2415 1254.05 25.157 1254.95 21.7609C1255.93 18.2729 1256.42 16.1159 1256.42 15.2899C1256.42 14.2802 1255.89 13.4082 1254.81 12.6739C1253.74 11.8478 1252.44 11.1594 1250.92 10.6087C1249.49 10.058 1248.06 9.59903 1246.63 9.23188C1245.2 8.77295 1244.13 8.4058 1243.41 8.13043V6.20289C1246.63 6.38647 1249.81 6.52415 1252.94 6.61594C1256.16 6.70773 1259.37 6.75362 1262.59 6.75362C1264.92 6.75362 1267.29 6.66183 1269.7 6.47826C1272.12 6.29468 1274.49 6.20289 1276.81 6.20289C1279.94 6.20289 1283.07 6.61594 1286.2 7.44203C1289.42 8.17633 1292.28 9.36956 1294.79 11.0217C1297.29 12.6739 1299.3 14.785 1300.82 17.3551C1302.43 19.8333 1303.24 22.8164 1303.24 26.3043C1303.24 33.1884 1301.76 38.6957 1298.81 42.8261C1295.86 46.9565 1292.06 50.1691 1287.41 52.4638C1282.76 54.6667 1277.57 56.1353 1271.85 56.8696C1266.13 57.6039 1260.54 57.971 1255.08 57.971C1254.81 59.1643 1254.19 61.2295 1253.2 64.1667C1252.22 67.1039 1251.19 70.2246 1250.12 73.529C1249.14 76.7415 1248.2 79.7246 1247.3 82.4783C1246.5 85.1401 1246.1 86.8841 1246.1 87.7101C1246.1 88.9952 1246.9 90.0966 1248.51 91.0145C1250.21 91.8406 1252.13 92.529 1254.28 93.0797C1256.42 93.6304 1258.53 94.0435 1260.58 94.3188C1262.73 94.5942 1264.25 94.7778 1265.14 94.8696V96.7971ZM1255.75 55.7681C1260.49 55.6763 1264.96 55.0338 1269.17 53.8406C1273.46 52.6473 1277.21 50.8575 1280.43 48.471C1283.74 46.0845 1286.34 43.0556 1288.21 39.3841C1290.18 35.7126 1291.16 31.3527 1291.16 26.3043C1291.16 20.3382 1289.55 16.1159 1286.34 13.6377C1283.21 11.0676 1279 9.78261 1273.73 9.78261C1273.28 9.78261 1272.79 9.8285 1272.25 9.92029C1271.72 10.0121 1271.22 10.1039 1270.78 10.1957C1268.18 17.7222 1265.68 25.2947 1263.26 32.913C1260.85 40.4396 1258.35 48.058 1255.75 55.7681Z" fill="black"/>
<path d="M1379.92 96.2464C1378.13 96.2464 1376.3 96.3382 1374.42 96.5217C1372.63 96.7053 1370.84 96.7971 1369.05 96.7971C1365.74 96.7971 1362.97 96.4758 1360.74 95.8333C1358.59 95.1908 1356.85 94.1353 1355.5 92.6667C1354.16 91.1981 1353.13 89.3164 1352.42 87.0217C1351.79 84.6353 1351.35 81.7899 1351.08 78.4855C1350.72 74.3551 1350.32 70.6836 1349.87 67.471C1349.51 64.2585 1348.71 61.5966 1347.46 59.4855C1346.2 57.2826 1344.33 55.6304 1341.82 54.529C1339.32 53.4275 1335.7 52.8768 1330.96 52.8768C1330.69 53.8865 1330.24 55.4469 1329.62 57.558C1328.99 59.5773 1328.23 61.8261 1327.34 64.3044C1326.53 66.7826 1325.68 69.3527 1324.79 72.0145C1323.89 74.6763 1323.04 77.2005 1322.24 79.587C1321.52 81.9734 1320.9 84.0845 1320.36 85.9203C1319.91 87.756 1319.69 89.0411 1319.69 89.7754C1319.69 90.5097 1320.14 91.1522 1321.03 91.7029C1322.02 92.2536 1323.09 92.7585 1324.25 93.2174C1325.5 93.5845 1326.71 93.9058 1327.87 94.1812C1329.04 94.4565 1329.88 94.686 1330.42 94.8696V96.7971C1327.47 96.5217 1324.47 96.3382 1321.43 96.2464C1318.48 96.2464 1315.53 96.2464 1312.58 96.2464C1309.45 96.2464 1306.32 96.2464 1303.19 96.2464C1300.15 96.3382 1297.07 96.5217 1293.94 96.7971L1294.2 94.8696C1297.16 94.2271 1299.44 93.6763 1301.05 93.2174C1302.74 92.6667 1304.04 91.9324 1304.94 91.0145C1305.92 90.0966 1306.72 88.8575 1307.35 87.2971C1308.07 85.7367 1308.87 83.5797 1309.76 80.8261C1310.21 79.4493 1311.06 76.9251 1312.31 73.2536C1313.56 69.5821 1315 65.3599 1316.61 60.587C1318.3 55.814 1320 50.8116 1321.7 45.5797C1323.49 40.3478 1325.1 35.4831 1326.53 30.9855C1328.05 26.4879 1329.26 22.6787 1330.15 19.558C1331.14 16.4372 1331.63 14.6014 1331.63 14.0507C1331.63 13.0411 1331.18 12.215 1330.29 11.5725C1329.39 10.9299 1328.32 10.4251 1327.07 10.058C1325.91 9.59903 1324.7 9.23188 1323.45 8.95652C1322.28 8.68116 1321.39 8.4058 1320.76 8.13043V6.20289C1323.27 6.38647 1325.73 6.52415 1328.14 6.61594C1330.56 6.70773 1333.01 6.75362 1335.52 6.75362C1338.11 6.75362 1340.75 6.66183 1343.43 6.47826C1346.11 6.29468 1348.75 6.20289 1351.35 6.20289C1354.39 6.20289 1357.47 6.47826 1360.6 7.02899C1363.82 7.48792 1366.73 8.4058 1369.32 9.78261C1371.91 11.1594 1374.01 13.0411 1375.62 15.4275C1377.32 17.814 1378.17 20.9348 1378.17 24.7899C1378.17 29.1957 1377.19 33.0048 1375.22 36.2174C1373.25 39.43 1370.71 42.0918 1367.58 44.2029C1364.54 46.314 1361.09 47.9662 1357.25 49.1594C1353.49 50.2609 1349.78 50.9952 1346.11 51.3623V51.6377C1350.05 52.8309 1353.13 54.2995 1355.37 56.0435C1357.61 57.7874 1359.26 59.8986 1360.33 62.3768C1361.5 64.7633 1362.3 67.5169 1362.75 70.6377C1363.19 73.6667 1363.6 77.1087 1363.95 80.9638C1364.22 83.8092 1364.67 86.1498 1365.3 87.9855C1366.01 89.7295 1367 91.1063 1368.25 92.1159C1369.5 93.1256 1371.06 93.814 1372.94 94.1812C1374.91 94.5483 1377.28 94.7778 1380.05 94.8696L1379.92 96.2464ZM1331.76 50.3986C1332.39 50.3986 1333.19 50.3986 1334.18 50.3986C1335.16 50.3068 1336.19 50.2609 1337.26 50.2609C1338.42 50.1691 1339.54 50.0773 1340.62 49.9855C1341.69 49.8019 1342.63 49.6184 1343.43 49.4348C1346.29 48.7005 1349.02 47.599 1351.61 46.1304C1354.21 44.6618 1356.53 42.8261 1358.59 40.6232C1360.65 38.4203 1362.26 35.8961 1363.42 33.0507C1364.67 30.2053 1365.3 26.9928 1365.3 23.413C1365.3 18.6401 1363.82 15.0604 1360.87 12.6739C1358.01 10.2874 1354.48 9.0942 1350.27 9.0942C1348.48 9.0942 1346.96 9.23188 1345.71 9.50724L1331.76 50.3986Z" fill="black"/>
<path d="M1375.53 95.2826C1378.31 94.4565 1380.86 93.6763 1383.18 92.942C1385.51 92.1159 1387.2 90.6015 1388.28 88.3986C1389.08 86.7464 1390.24 83.8092 1391.76 79.587C1393.37 75.3647 1395.12 70.5918 1397 65.2681C1398.87 59.9444 1400.75 54.3913 1402.63 48.6087C1404.6 42.7343 1406.34 37.3647 1407.86 32.5C1409.47 27.5435 1410.77 23.3671 1411.75 19.971C1412.82 16.5749 1413.36 14.6473 1413.36 14.1884C1413.36 13.3623 1412.87 12.6739 1411.89 12.1232C1410.9 11.4807 1409.74 10.9299 1408.4 10.471C1407.15 9.92029 1405.85 9.50725 1404.51 9.23188C1403.26 8.95652 1402.27 8.77294 1401.56 8.68116V6.75362H1462.45C1462.36 8.86473 1462.28 10.93 1462.19 12.9493C1462.1 14.8768 1462.05 16.8961 1462.05 19.0072C1462.05 21.1184 1462.1 23.2295 1462.19 25.3406C1462.28 27.3599 1462.36 29.4251 1462.45 31.5362H1460.84C1459.95 30.5266 1459.1 29.1039 1458.3 27.2681C1457.49 25.4324 1456.73 23.5048 1456.02 21.4855C1455.39 19.3744 1454.85 17.3551 1454.41 15.4275C1453.96 13.5 1453.6 11.9855 1453.33 10.8841C1449.04 10.3333 1444.79 10.058 1440.59 10.058C1436.48 10.058 1432.27 10.058 1427.98 10.058L1414.57 46.9565C1420.02 46.9565 1424.27 46.8188 1427.31 46.5435C1430.35 46.1763 1432.85 45.4879 1434.82 44.4783C1436.79 43.4686 1438.44 41.9541 1439.79 39.9348C1441.22 37.8237 1443 34.9783 1445.15 31.3986H1447.97C1445.37 37.7319 1442.91 44.0652 1440.59 50.3986C1438.35 56.7319 1436.3 63.2029 1434.42 69.8116H1431.87C1432.14 67.2415 1432.36 64.7174 1432.54 62.2391C1432.72 59.7609 1432.81 57.2367 1432.81 54.6667C1432.81 53.1063 1432.54 52.0048 1432.01 51.3623C1431.47 50.628 1430.84 50.2609 1430.13 50.2609H1413.63L1400.48 90.8768C1402.45 91.0604 1404.95 91.3358 1408 91.7029C1411.12 92.0701 1414.34 92.4372 1417.65 92.8044C1421.05 93.0797 1424.31 93.3551 1427.44 93.6304C1430.66 93.9058 1433.39 94.0435 1435.63 94.0435C1438.85 89.7295 1442.07 85.599 1445.28 81.6522C1448.59 77.7053 1452.17 74.1256 1456.02 70.913L1457.09 72.2899C1455.03 76.2367 1453.24 80.2754 1451.72 84.4058C1450.2 88.5362 1448.64 92.6667 1447.03 96.7971C1445.33 96.7053 1442.38 96.6135 1438.18 96.5217C1434.06 96.43 1429.37 96.3382 1424.09 96.2464C1418.9 96.2464 1413.54 96.2464 1408 96.2464C1402.45 96.2464 1397.44 96.2464 1392.97 96.2464C1390.11 96.2464 1387.2 96.2923 1384.25 96.3841C1381.3 96.4758 1378.4 96.6135 1375.53 96.7971V95.2826Z" fill="black"/>
<path d="M1468.73 62.7899H1470.34C1470.34 67.1957 1470.65 71.372 1471.28 75.3188C1471.9 79.2657 1473.06 82.7077 1474.76 85.6449C1476.55 88.5821 1479.01 90.9227 1482.14 92.6667C1485.27 94.3188 1489.38 95.1449 1494.48 95.1449C1496.9 95.1449 1499.22 94.7319 1501.46 93.9058C1503.78 92.9879 1505.84 91.7488 1507.63 90.1884C1509.42 88.628 1510.85 86.7464 1511.92 84.5435C1512.99 82.3406 1513.53 79.9082 1513.53 77.2464C1513.53 73.2995 1512.77 69.9034 1511.25 67.058C1509.82 64.1208 1507.98 61.5048 1505.75 59.2101C1503.51 56.9155 1501.05 54.8043 1498.37 52.8768C1495.78 50.8575 1493.36 48.7923 1491.13 46.6812C1488.89 44.5701 1487.01 42.2754 1485.49 39.7971C1484.06 37.2271 1483.35 34.2899 1483.35 30.9855C1483.35 26.3961 1484.38 22.4034 1486.43 19.0072C1488.58 15.6111 1491.26 12.8116 1494.48 10.6087C1497.79 8.4058 1501.46 6.75362 1505.48 5.65217C1509.59 4.55072 1513.57 4 1517.42 4C1520.55 4 1523.81 4.50483 1527.21 5.51449C1530.7 6.52415 1533.78 7.76329 1536.47 9.23188C1535.21 13.087 1534.19 16.942 1533.38 20.7971C1532.58 24.6522 1531.86 28.599 1531.23 32.6377H1529.63C1529.45 29.4251 1528.95 26.3502 1528.15 23.413C1527.43 20.4758 1526.32 17.8599 1524.8 15.5652C1523.28 13.1787 1521.31 11.2971 1518.89 9.92029C1516.48 8.54348 1513.48 7.85507 1509.91 7.85507C1507.58 7.85507 1505.48 8.31401 1503.6 9.23188C1501.73 10.058 1500.12 11.2512 1498.77 12.8116C1497.43 14.2802 1496.4 16.0242 1495.69 18.0435C1494.97 20.0628 1494.62 22.2198 1494.62 24.5145C1494.62 27.8188 1495.33 30.7101 1496.76 33.1884C1498.28 35.6667 1500.16 37.9614 1502.4 40.0725C1504.63 42.0918 1507.05 44.0652 1509.64 45.9928C1512.32 47.9203 1514.78 50.0314 1517.02 52.3261C1519.25 54.529 1521.09 57.0531 1522.52 59.8986C1524.04 62.744 1524.8 66.0942 1524.8 69.9493C1524.8 74.0797 1523.77 77.9348 1521.71 81.5145C1519.65 85.0942 1517.02 88.1691 1513.8 90.7391C1510.58 93.3092 1507 95.3285 1503.07 96.7971C1499.22 98.2657 1495.42 99 1491.66 99C1486.48 99 1481.52 98.2198 1476.78 96.6594C1472.04 95.099 1467.3 93.4469 1462.56 91.7029L1468.73 62.7899Z" fill="black"/>
<path d="M1543.26 62.7899H1544.87C1544.87 67.1957 1545.18 71.372 1545.81 75.3188C1546.44 79.2657 1547.6 82.7077 1549.3 85.6449C1551.09 88.5821 1553.55 90.9227 1556.68 92.6667C1559.81 94.3188 1563.92 95.1449 1569.02 95.1449C1571.43 95.1449 1573.76 94.7319 1575.99 93.9058C1578.32 92.9879 1580.37 91.7488 1582.16 90.1884C1583.95 88.628 1585.38 86.7464 1586.45 84.5435C1587.53 82.3406 1588.06 79.9082 1588.06 77.2464C1588.06 73.2995 1587.3 69.9034 1585.78 67.058C1584.35 64.1208 1582.52 61.5048 1580.28 59.2101C1578.05 56.9155 1575.59 54.8043 1572.91 52.8768C1570.31 50.8575 1567.9 48.7923 1565.66 46.6812C1563.43 44.5701 1561.55 42.2754 1560.03 39.7971C1558.6 37.2271 1557.88 34.2899 1557.88 30.9855C1557.88 26.3961 1558.91 22.4034 1560.97 19.0072C1563.11 15.6111 1565.8 12.8116 1569.02 10.6087C1572.32 8.4058 1575.99 6.75362 1580.01 5.65217C1584.13 4.55072 1588.11 4 1591.95 4C1595.08 4 1598.35 4.50483 1601.74 5.51449C1605.23 6.52415 1608.32 7.76329 1611 9.23188C1609.75 13.087 1608.72 16.942 1607.91 20.7971C1607.11 24.6522 1606.39 28.599 1605.77 32.6377H1604.16C1603.98 29.4251 1603.49 26.3502 1602.68 23.413C1601.97 20.4758 1600.85 17.8599 1599.33 15.5652C1597.81 13.1787 1595.84 11.2971 1593.43 9.92029C1591.01 8.54348 1588.02 7.85507 1584.44 7.85507C1582.12 7.85507 1580.01 8.31401 1578.14 9.23188C1576.26 10.058 1574.65 11.2512 1573.31 12.8116C1571.97 14.2802 1570.94 16.0242 1570.22 18.0435C1569.51 20.0628 1569.15 22.2198 1569.15 24.5145C1569.15 27.8188 1569.87 30.7101 1571.3 33.1884C1572.82 35.6667 1574.69 37.9614 1576.93 40.0725C1579.17 42.0918 1581.58 44.0652 1584.17 45.9928C1586.86 47.9203 1589.31 50.0314 1591.55 52.3261C1593.79 54.529 1595.62 57.0531 1597.05 59.8986C1598.57 62.744 1599.33 66.0942 1599.33 69.9493C1599.33 74.0797 1598.3 77.9348 1596.25 81.5145C1594.19 85.0942 1591.55 88.1691 1588.33 90.7391C1585.11 93.3092 1581.54 95.3285 1577.6 96.7971C1573.76 98.2657 1569.95 99 1566.2 99C1561.01 99 1556.05 98.2198 1551.31 96.6594C1546.57 95.099 1541.83 93.4469 1537.09 91.7029L1543.26 62.7899Z" fill="black"/>
<path d="M856.139 85.7912V96.1217H794C794.269 90.8446 795.076 86.2384 796.421 82.3029C797.766 78.3675 799.828 74.8345 802.608 71.704C805.477 68.4841 808.257 65.8456 810.947 63.7884C813.637 61.7312 817.448 59.1821 822.38 56.1411C830.091 51.3112 835.157 47.6888 837.578 45.2739C842.6 40.3545 845.11 34.8986 845.11 28.9059C845.11 23.6289 843.407 19.3356 839.999 16.0263C836.592 12.6275 832.153 10.9281 826.684 10.9281C820.138 10.9281 815.43 13.2089 812.561 17.7704C809.781 22.2425 808.302 27.9221 808.123 34.8091H796.556V32.26C796.556 22.8686 799.335 15.3107 804.895 9.58645C810.544 3.86215 817.986 1 827.222 1C836.278 1 843.496 3.50438 848.876 8.51314C854.256 13.5219 856.946 20.2301 856.946 28.6376C856.946 32.2153 856.319 35.6141 855.063 38.834C853.898 41.9645 852.553 44.603 851.028 46.7497C849.594 48.8963 847.352 51.177 844.303 53.592C841.344 56.0069 838.878 57.8852 836.906 59.2268C834.933 60.479 832.108 62.2231 828.432 64.4592C821.079 68.8419 816.193 72.2407 813.772 74.6556C810.364 78.0544 808.167 81.7663 807.181 85.7912H856.139Z" fill="black"/>
<path d="M902.631 1C908.37 1 913.257 2.07331 917.292 4.21992C921.416 6.27708 924.555 8.82619 926.707 11.8672C928.859 14.9083 930.563 18.8884 931.818 23.8077C933.073 28.6376 933.835 33.0203 934.104 36.9557C934.373 40.8018 934.508 45.4527 934.508 50.9087C934.508 55.9175 934.284 60.4343 933.835 64.4592C933.477 68.4841 932.625 72.6879 931.28 77.0705C930.025 81.4532 928.276 85.1203 926.034 88.0719C923.793 90.9341 920.744 93.3043 916.888 95.1826C913.033 97.0609 908.46 98 903.169 98C897.61 98 892.768 97.0609 888.643 95.1826C884.608 93.2148 881.47 90.7999 879.228 87.9378C876.986 85.0756 875.193 81.4532 873.848 77.0705C872.593 72.5984 871.786 68.3947 871.427 64.4592C871.068 60.4343 870.889 55.828 870.889 50.6404C870.889 46.1683 870.979 42.2775 871.158 38.9682C871.427 35.6588 871.875 31.947 872.503 27.8326C873.22 23.6289 874.296 20.0959 875.731 17.2338C877.166 14.2822 879.004 11.5095 881.246 8.91563C883.487 6.32181 886.402 4.35408 889.988 3.01245C893.665 1.67082 897.879 1 902.631 1ZM910.029 12.8064C907.877 11.7331 905.411 11.1964 902.631 11.1964C899.852 11.1964 897.386 11.7331 895.234 12.8064C893.082 13.7902 891.333 14.953 889.988 16.2946C888.643 17.6362 887.478 19.6487 886.491 22.332C885.505 24.9258 884.788 27.1171 884.339 28.9059C883.981 30.6948 883.667 33.2886 883.398 36.6874C883.129 39.9968 882.994 42.367 882.994 43.7981C882.994 45.1397 882.994 47.4205 882.994 50.6404C882.994 53.7709 883.039 56.3647 883.129 58.4219C883.218 60.479 883.443 63.1623 883.801 66.4716C884.16 69.781 884.788 72.5537 885.684 74.7898C886.581 76.9364 887.702 79.1277 889.047 81.3638C890.392 83.5104 892.23 85.1651 894.561 86.3278C896.982 87.4011 899.762 87.9378 902.9 87.9378C905.59 87.9378 907.966 87.4458 910.029 86.462C912.181 85.4781 913.929 84.3154 915.274 82.9737C916.619 81.6321 917.74 79.7538 918.637 77.3389C919.623 74.8345 920.34 72.6879 920.789 70.899C921.237 69.0208 921.551 66.5611 921.73 63.5201C921.999 60.3896 922.134 58.1088 922.134 56.6777C922.223 55.1572 922.268 52.9659 922.268 50.1037C922.268 46.9733 922.268 44.7372 922.268 43.3956C922.268 42.0539 922.134 39.7284 921.865 36.4191C921.596 33.1097 921.237 30.5606 920.789 28.7718C920.43 26.9829 919.758 24.7916 918.771 22.1978C917.785 19.604 916.619 17.6362 915.274 16.2946C913.929 14.953 912.181 13.7902 910.029 12.8064Z" fill="black"/>
<path d="M1005.61 85.7912V96.1217H943.474C943.743 90.8446 944.55 86.2384 945.895 82.3029C947.24 78.3675 949.303 74.8345 952.082 71.704C954.952 68.4841 957.731 65.8456 960.421 63.7884C963.111 61.7312 966.922 59.1821 971.854 56.1411C979.565 51.3112 984.631 47.6888 987.052 45.2739C992.074 40.3545 994.584 34.8986 994.584 28.9059C994.584 23.6289 992.881 19.3356 989.473 16.0263C986.066 12.6275 981.628 10.9281 976.158 10.9281C969.612 10.9281 964.905 13.2089 962.035 17.7704C959.256 22.2425 957.776 27.9221 957.597 34.8091H946.03V32.26C946.03 22.8686 948.809 15.3107 954.369 9.58645C960.018 3.86215 967.46 1 976.696 1C985.752 1 992.97 3.50438 998.35 8.51314C1003.73 13.5219 1006.42 20.2301 1006.42 28.6376C1006.42 32.2153 1005.79 35.6141 1004.54 38.834C1003.37 41.9645 1002.03 44.603 1000.5 46.7497C999.068 48.8963 996.826 51.177 993.777 53.592C990.818 56.0069 988.353 57.8852 986.38 59.2268C984.407 60.479 981.583 62.2231 977.906 64.4592C970.554 68.8419 965.667 72.2407 963.246 74.6556C959.838 78.0544 957.642 81.7663 956.655 85.7912H1005.61Z" fill="black"/>
<path d="M1063 1.13417V96.1217H1050.49V27.296H1026.55V18.7095C1034.26 18.7095 1040.36 17.4574 1044.84 14.953C1049.42 12.4486 1052.46 7.84233 1053.99 1.13417H1063Z" fill="black"/>
<path d="M470.768 53.7678C471.744 52.7915 471.744 51.2085 470.768 50.2322L454.858 34.3223C453.882 33.346 452.299 33.346 451.322 34.3223C450.346 35.2986 450.346 36.8816 451.322 37.8579L465.464 52L451.322 66.1421C450.346 67.1184 450.346 68.7014 451.322 69.6777C452.299 70.654 453.882 70.654 454.858 69.6777L470.768 53.7678ZM362 54.5L469 54.5V49.5L362 49.5V54.5Z" fill="black"/>
<path d="M638.768 51.7678C639.744 50.7915 639.744 49.2085 638.768 48.2322L622.858 32.3223C621.882 31.346 620.299 31.346 619.322 32.3223C618.346 33.2986 618.346 34.8816 619.322 35.8579L633.464 50L619.322 64.1421C618.346 65.1184 618.346 66.7014 619.322 67.6777C620.299 68.654 621.882 68.654 622.858 67.6777L638.768 51.7678ZM528 52.5L637 52.5V47.5L528 47.5V52.5Z" fill="black"/>
</svg>
