<svg width="150" height="39" viewBox="0 0 150 39" fill="none" xmlns="http://www.w3.org/2000/svg">
<path d="M12.276 12.1564C12.132 13.7764 11.568 15.0424 10.584 15.9544C9.61199 16.8544 8.32799 17.3044 6.73199 17.3044C4.90799 17.3044 3.46199 16.7044 2.39399 15.5044C1.32599 14.2924 0.791992 12.6604 0.791992 10.6084C0.791992 8.68841 1.32599 7.09241 2.39399 5.82041C3.47399 4.53641 4.96199 3.89441 6.85799 3.89441C8.21399 3.89441 9.40799 4.26041 10.44 4.99241C11.472 5.72441 12.048 6.73841 12.168 8.03441H10.476C10.284 7.19441 9.86399 6.54041 9.21599 6.07241C8.56799 5.59241 7.76999 5.35241 6.82199 5.35241C5.39399 5.35241 4.31399 5.85641 3.58199 6.86441C2.86199 7.87241 2.50199 9.11441 2.50199 10.5904C2.50199 12.2224 2.88599 13.5064 3.65399 14.4424C4.42199 15.3784 5.47199 15.8464 6.80399 15.8464C7.89599 15.8464 8.76599 15.5344 9.41399 14.9104C10.062 14.2744 10.452 13.3564 10.584 12.1564H12.276Z" fill="black"/>
<path d="M24.8162 4.18241L19.4162 9.33041L25.0322 16.9984H22.8722L18.2282 10.4824L16.1042 12.4984V16.9984H14.4122V4.18241H16.1042V10.5364L22.6022 4.18241H24.8162Z" fill="black"/>
<path d="M31.5017 3.87641C33.4457 3.87641 34.9577 4.48841 36.0377 5.71241C37.1177 6.92441 37.6577 8.51441 37.6577 10.4824C37.6577 12.4624 37.1237 14.0944 36.0557 15.3784C34.9877 16.6624 33.4757 17.3044 31.5197 17.3044C30.5237 17.3044 29.6297 17.1244 28.8377 16.7644C28.0457 16.4044 27.3977 15.9064 26.8937 15.2704C26.4017 14.6344 26.0237 13.9084 25.7597 13.0924C25.5077 12.2764 25.3817 11.3944 25.3817 10.4464C25.3817 8.44241 25.9337 6.84641 27.0377 5.65841C28.1537 4.47041 29.6417 3.87641 31.5017 3.87641ZM31.5017 5.35241C30.0737 5.35241 28.9757 5.85641 28.2077 6.86441C27.4517 7.86041 27.0737 9.09641 27.0737 10.5724C27.0737 12.1804 27.4757 13.4644 28.2797 14.4244C29.0957 15.3724 30.1817 15.8464 31.5377 15.8464C32.8817 15.8464 33.9557 15.3664 34.7597 14.4064C35.5637 13.4464 35.9657 12.1684 35.9657 10.5724C35.9657 8.98841 35.5577 7.72241 34.7417 6.77441C33.9377 5.82641 32.8577 5.35241 31.5017 5.35241Z" fill="black"/>
<path d="M48.3531 4.18241V5.65841H44.0511V16.9984H42.3591V5.65841H38.0571V4.18241H48.3531Z" fill="black"/>
<path d="M58.977 16.9984H57.285V11.2924C55.977 11.5924 54.789 11.7424 53.721 11.7424C52.977 11.7424 52.317 11.6524 51.741 11.4724C51.177 11.2804 50.739 11.0524 50.427 10.7884C50.127 10.5124 49.881 10.1884 49.689 9.81641C49.497 9.44441 49.371 9.10841 49.311 8.80841C49.251 8.49641 49.221 8.17241 49.221 7.83641V4.18241H50.913V7.69241C50.913 7.94441 50.925 8.17241 50.949 8.37641C50.985 8.56841 51.057 8.79041 51.165 9.04241C51.273 9.28241 51.423 9.48641 51.615 9.65441C51.807 9.82241 52.083 9.96641 52.443 10.0864C52.803 10.1944 53.229 10.2484 53.721 10.2484C54.801 10.2484 55.989 10.1044 57.285 9.81641V4.18241H58.977V16.9984Z" fill="black"/>
<path d="M68.5046 16.9984H66.8126V4.18241H75.2366V5.65841H68.5046V16.9984Z" fill="black"/>
<path d="M82.0564 3.87641C84.0004 3.87641 85.5124 4.48841 86.5924 5.71241C87.6724 6.92441 88.2124 8.51441 88.2124 10.4824C88.2124 12.4624 87.6784 14.0944 86.6104 15.3784C85.5424 16.6624 84.0304 17.3044 82.0744 17.3044C81.0784 17.3044 80.1844 17.1244 79.3924 16.7644C78.6004 16.4044 77.9524 15.9064 77.4484 15.2704C76.9564 14.6344 76.5784 13.9084 76.3144 13.0924C76.0624 12.2764 75.9364 11.3944 75.9364 10.4464C75.9364 8.44241 76.4884 6.84641 77.5924 5.65841C78.7084 4.47041 80.1964 3.87641 82.0564 3.87641ZM82.0564 5.35241C80.6284 5.35241 79.5304 5.85641 78.7624 6.86441C78.0064 7.86041 77.6284 9.09641 77.6284 10.5724C77.6284 12.1804 78.0304 13.4644 78.8344 14.4244C79.6504 15.3724 80.7364 15.8464 82.0924 15.8464C83.4364 15.8464 84.5104 15.3664 85.3144 14.4064C86.1184 13.4464 86.5204 12.1684 86.5204 10.5724C86.5204 8.98841 86.1124 7.72241 85.2964 6.77441C84.4924 5.82641 83.4124 5.35241 82.0564 5.35241Z" fill="black"/>
<path d="M90.4042 4.18241H95.6781C96.9861 4.18241 98.0242 4.48241 98.7922 5.08241C99.5602 5.67041 99.9441 6.60041 99.9441 7.87241C99.9441 10.4524 98.4861 11.7424 95.5701 11.7424H92.0961V16.9984H90.4042V4.18241ZM92.0961 5.64041V10.3204H95.3541C96.2662 10.3204 96.9742 10.1524 97.4781 9.81641C97.9941 9.46841 98.2522 8.85641 98.2522 7.98041C98.2522 7.48841 98.1681 7.08041 98.0001 6.75641C97.8441 6.43241 97.6101 6.19241 97.2981 6.03641C96.9862 5.88041 96.6621 5.77841 96.3261 5.73041C95.9902 5.67041 95.5882 5.64041 95.1201 5.64041H92.0961Z" fill="black"/>
<path d="M106.828 11.5264L102.598 16.9984H100.51L104.794 11.4724C103.774 11.3404 102.988 10.9684 102.436 10.3564C101.884 9.74441 101.608 8.91041 101.608 7.85441C101.608 6.66641 101.962 5.76041 102.67 5.13641C103.39 4.50041 104.386 4.18241 105.658 4.18241H111.166V16.9984H109.474V11.5264H106.828ZM109.474 10.0864V5.62241H106.234C104.29 5.62241 103.318 6.36641 103.318 7.85441C103.318 9.34241 104.29 10.0864 106.234 10.0864H109.474Z" fill="black"/>
<path d="M123.19 16.9984H121.498V11.2924C120.19 11.5924 119.002 11.7424 117.934 11.7424C117.19 11.7424 116.53 11.6524 115.954 11.4724C115.39 11.2804 114.952 11.0524 114.64 10.7884C114.34 10.5124 114.094 10.1884 113.902 9.81641C113.71 9.44441 113.584 9.10841 113.524 8.80841C113.464 8.49641 113.434 8.17241 113.434 7.83641V4.18241H115.126V7.69241C115.126 7.94441 115.138 8.17241 115.162 8.37641C115.198 8.56841 115.27 8.79041 115.378 9.04241C115.486 9.28241 115.636 9.48641 115.828 9.65441C116.02 9.82241 116.296 9.96641 116.656 10.0864C117.016 10.1944 117.442 10.2484 117.934 10.2484C119.014 10.2484 120.202 10.1044 121.498 9.81641V4.18241H123.19V16.9984Z" fill="black"/>
<path d="M126.016 16.9984V4.18241H127.708V15.0364H127.744L134.026 4.18241H136.168V16.9984H134.476V6.10841H134.44L128.14 16.9984H126.016Z" fill="black"/>
<path d="M146.782 0.816406C146.662 1.57241 146.368 2.17841 145.9 2.63441C145.444 3.07841 144.838 3.30041 144.082 3.30041C143.35 3.30041 142.732 3.07241 142.228 2.61641C141.736 2.14841 141.442 1.54841 141.346 0.816406H142.264C142.54 1.75241 143.14 2.22041 144.064 2.22041C144.952 2.22041 145.552 1.75241 145.864 0.816406H146.782ZM139.006 16.9984V4.18241H140.698V15.0364H140.734L147.016 4.18241H149.158V16.9984H147.466V6.10841H147.43L141.13 16.9984H139.006Z" fill="black"/>
<path d="M6.44399 25.1824V26.6404C6.44399 28.2844 5.79599 29.2924 4.49999 29.6644V28.8004C5.12399 28.5364 5.45399 27.9484 5.48999 27.0364H4.49999V25.1824H6.44399ZM3.16799 25.1824V26.6404C3.16799 28.2844 2.51999 29.2924 1.22399 29.6644V28.8004C1.84799 28.5364 2.17799 27.9484 2.21399 27.0364H1.22399V25.1824H3.16799Z" fill="black"/>
<path d="M17.5281 25.1824V26.6584H10.7961V30.6544H16.7361V32.0764H10.7961V37.9984H9.10405V25.1824H17.5281Z" fill="black"/>
<path d="M21.186 25.1824V37.9984H19.494V25.1824H21.186Z" fill="black"/>
<path d="M24.0802 25.1824H29.7142C32.5822 25.1824 34.0162 26.3644 34.0162 28.7284C34.0162 29.4724 33.8122 30.1324 33.4042 30.7084C33.0082 31.2724 32.4802 31.6504 31.8202 31.8424C32.2522 31.9384 32.6002 32.0764 32.8642 32.2564C33.1282 32.4364 33.3202 32.6884 33.4402 33.0124C33.5602 33.3364 33.6382 33.6244 33.6742 33.8764C33.7102 34.1284 33.7402 34.5004 33.7642 34.9924C33.7642 35.0404 33.7702 35.1604 33.7822 35.3524C33.7942 35.5324 33.8002 35.6584 33.8002 35.7304C33.8002 35.7904 33.8062 35.9044 33.8182 36.0724C33.8422 36.2404 33.8602 36.3664 33.8722 36.4504C33.8842 36.5344 33.9022 36.6484 33.9262 36.7924C33.9502 36.9364 33.9802 37.0564 34.0162 37.1524C34.0522 37.2364 34.0942 37.3384 34.1422 37.4584C34.1902 37.5664 34.2442 37.6684 34.3042 37.7644C34.3642 37.8484 34.4302 37.9264 34.5022 37.9984H32.5582C32.4742 37.8784 32.4022 37.7284 32.3422 37.5484C32.2942 37.3684 32.2582 37.1584 32.2342 36.9184C32.2102 36.6664 32.1922 36.4684 32.1802 36.3244C32.1682 36.1684 32.1562 35.9464 32.1442 35.6584C32.1322 35.3704 32.1262 35.2084 32.1262 35.1724C32.0662 34.0804 31.8382 33.3544 31.4422 32.9944C31.0582 32.6344 30.2902 32.4544 29.1382 32.4544H25.7722V37.9984H24.0802V25.1824ZM25.7722 26.6224V31.1044H28.9582C29.3542 31.1044 29.6842 31.0924 29.9482 31.0684C30.2242 31.0444 30.5242 30.9904 30.8482 30.9064C31.1722 30.8224 31.4302 30.7024 31.6222 30.5464C31.8262 30.3904 31.9942 30.1684 32.1262 29.8804C32.2582 29.5924 32.3242 29.2444 32.3242 28.8364C32.3242 27.9724 32.0602 27.3904 31.5322 27.0904C31.0162 26.7784 30.3082 26.6224 29.4082 26.6224H25.7722Z" fill="black"/>
<path d="M45.2765 25.1824V26.6584H38.0945V30.6724H44.8085V32.0944H38.0945V36.5224H45.3665V37.9984H36.4025V25.1824H45.2765Z" fill="black"/>
<path d="M52.4881 25.1824H57.7621C59.0701 25.1824 60.1081 25.4824 60.8761 26.0824C61.6441 26.6704 62.0281 27.6004 62.0281 28.8724C62.0281 31.4524 60.5701 32.7424 57.6541 32.7424H54.1801V37.9984H52.4881V25.1824ZM54.1801 26.6404V31.3204H57.4381C58.3501 31.3204 59.0581 31.1524 59.5621 30.8164C60.0781 30.4684 60.3361 29.8564 60.3361 28.9804C60.3361 28.4884 60.2521 28.0804 60.0841 27.7564C59.9281 27.4324 59.6941 27.1924 59.3821 27.0364C59.0701 26.8804 58.7461 26.7784 58.4101 26.7304C58.0741 26.6704 57.6721 26.6404 57.2041 26.6404H54.1801Z" fill="black"/>
<path d="M64.088 25.1824H69.722C72.59 25.1824 74.024 26.3644 74.024 28.7284C74.024 29.4724 73.82 30.1324 73.412 30.7084C73.016 31.2724 72.488 31.6504 71.828 31.8424C72.26 31.9384 72.608 32.0764 72.872 32.2564C73.136 32.4364 73.328 32.6884 73.448 33.0124C73.568 33.3364 73.646 33.6244 73.682 33.8764C73.718 34.1284 73.748 34.5004 73.772 34.9924C73.772 35.0404 73.778 35.1604 73.79 35.3524C73.802 35.5324 73.808 35.6584 73.808 35.7304C73.808 35.7904 73.814 35.9044 73.826 36.0724C73.85 36.2404 73.868 36.3664 73.88 36.4504C73.892 36.5344 73.91 36.6484 73.934 36.7924C73.958 36.9364 73.988 37.0564 74.024 37.1524C74.06 37.2364 74.102 37.3384 74.15 37.4584C74.198 37.5664 74.252 37.6684 74.312 37.7644C74.372 37.8484 74.438 37.9264 74.51 37.9984H72.566C72.482 37.8784 72.41 37.7284 72.35 37.5484C72.302 37.3684 72.266 37.1584 72.242 36.9184C72.218 36.6664 72.2 36.4684 72.188 36.3244C72.176 36.1684 72.164 35.9464 72.152 35.6584C72.14 35.3704 72.134 35.2084 72.134 35.1724C72.074 34.0804 71.846 33.3544 71.45 32.9944C71.066 32.6344 70.298 32.4544 69.146 32.4544H65.78V37.9984H64.088V25.1824ZM65.78 26.6224V31.1044H68.966C69.362 31.1044 69.692 31.0924 69.956 31.0684C70.232 31.0444 70.532 30.9904 70.856 30.9064C71.18 30.8224 71.438 30.7024 71.63 30.5464C71.834 30.3904 72.002 30.1684 72.134 29.8804C72.266 29.5924 72.332 29.2444 72.332 28.8364C72.332 27.9724 72.068 27.3904 71.54 27.0904C71.024 26.7784 70.316 26.6224 69.416 26.6224H65.78Z" fill="black"/>
<path d="M85.2843 25.1824V26.6584H78.1023V30.6724H84.8163V32.0944H78.1023V36.5224H85.3743V37.9984H76.4103V25.1824H85.2843Z" fill="black"/>
<path d="M96.4862 28.9444H94.8482C94.6682 27.2044 93.6062 26.3344 91.6622 26.3344C90.7382 26.3344 90.0242 26.5204 89.5202 26.8924C89.0162 27.2644 88.7642 27.7864 88.7642 28.4584C88.7642 28.6984 88.8002 28.9084 88.8722 29.0884C88.9442 29.2684 89.0642 29.4304 89.2322 29.5744C89.4122 29.7064 89.5802 29.8204 89.7362 29.9164C89.8922 30.0124 90.1382 30.1084 90.4742 30.2044C90.8102 30.3004 91.0802 30.3724 91.2842 30.4204C91.4882 30.4564 91.8062 30.5224 92.2382 30.6184C92.7662 30.7264 93.2042 30.8284 93.5522 30.9244C93.9002 31.0084 94.3142 31.1524 94.7942 31.3564C95.2742 31.5604 95.6522 31.7884 95.9282 32.0404C96.2162 32.2804 96.4622 32.6044 96.6662 33.0124C96.8822 33.4204 96.9902 33.8824 96.9902 34.3984C96.9902 35.2984 96.7382 36.0544 96.2342 36.6664C95.7302 37.2664 95.1182 37.6864 94.3982 37.9264C93.6782 38.1664 92.8802 38.2864 92.0042 38.2864C90.3962 38.2864 89.1062 37.9084 88.1342 37.1524C87.1742 36.3844 86.6942 35.2564 86.6942 33.7684H88.3322C88.3682 34.8604 88.7342 35.6584 89.4302 36.1624C90.1262 36.6544 91.0322 36.9004 92.1482 36.9004C93.0242 36.9004 93.7742 36.7204 94.3982 36.3604C95.0222 35.9884 95.3342 35.3884 95.3342 34.5604C95.3342 34.1764 95.2502 33.8524 95.0822 33.5884C94.9142 33.3124 94.6502 33.0904 94.2902 32.9224C93.9302 32.7424 93.5702 32.5984 93.2102 32.4904C92.8502 32.3824 92.3762 32.2624 91.7882 32.1304C91.7042 32.1184 91.6442 32.1064 91.6082 32.0944C90.2882 31.7944 89.4242 31.5544 89.0162 31.3744C87.7682 30.8344 87.1442 29.9044 87.1442 28.5844C87.1442 27.3604 87.5942 26.4484 88.4942 25.8484C89.4062 25.2364 90.5042 24.9304 91.7882 24.9304C93.1922 24.9304 94.3142 25.2664 95.1542 25.9384C95.9942 26.6104 96.4382 27.6124 96.4862 28.9444Z" fill="black"/>
<path d="M108.158 28.9444H106.52C106.34 27.2044 105.278 26.3344 103.334 26.3344C102.41 26.3344 101.696 26.5204 101.192 26.8924C100.688 27.2644 100.436 27.7864 100.436 28.4584C100.436 28.6984 100.472 28.9084 100.544 29.0884C100.616 29.2684 100.736 29.4304 100.904 29.5744C101.084 29.7064 101.252 29.8204 101.408 29.9164C101.564 30.0124 101.81 30.1084 102.146 30.2044C102.482 30.3004 102.752 30.3724 102.956 30.4204C103.16 30.4564 103.478 30.5224 103.91 30.6184C104.438 30.7264 104.876 30.8284 105.224 30.9244C105.572 31.0084 105.986 31.1524 106.466 31.3564C106.946 31.5604 107.324 31.7884 107.6 32.0404C107.888 32.2804 108.134 32.6044 108.338 33.0124C108.554 33.4204 108.662 33.8824 108.662 34.3984C108.662 35.2984 108.41 36.0544 107.906 36.6664C107.402 37.2664 106.79 37.6864 106.07 37.9264C105.35 38.1664 104.552 38.2864 103.676 38.2864C102.068 38.2864 100.778 37.9084 99.8061 37.1524C98.8461 36.3844 98.3661 35.2564 98.3661 33.7684H100.004C100.04 34.8604 100.406 35.6584 101.102 36.1624C101.798 36.6544 102.704 36.9004 103.82 36.9004C104.696 36.9004 105.446 36.7204 106.07 36.3604C106.694 35.9884 107.006 35.3884 107.006 34.5604C107.006 34.1764 106.922 33.8524 106.754 33.5884C106.586 33.3124 106.322 33.0904 105.962 32.9224C105.602 32.7424 105.242 32.5984 104.882 32.4904C104.522 32.3824 104.048 32.2624 103.46 32.1304C103.376 32.1184 103.316 32.1064 103.28 32.0944C101.96 31.7944 101.096 31.5544 100.688 31.3744C99.4401 30.8344 98.8161 29.9044 98.8161 28.5844C98.8161 27.3604 99.2661 26.4484 100.166 25.8484C101.078 25.2364 102.176 24.9304 103.46 24.9304C104.864 24.9304 105.986 25.2664 106.826 25.9384C107.666 26.6104 108.11 27.6124 108.158 28.9444Z" fill="black"/>
<path d="M115.78 25.1824V26.6404C115.78 28.2844 115.132 29.2924 113.836 29.6644V28.8004C114.46 28.5364 114.79 27.9484 114.826 27.0364H113.836V25.1824H115.78ZM112.504 25.1824V26.6404C112.504 28.2844 111.856 29.2924 110.56 29.6644V28.8004C111.184 28.5364 111.514 27.9484 111.55 27.0364H110.56V25.1824H112.504Z" fill="black"/>
</svg>
