<svg width="1680" height="5630" viewBox="0 0 1680 5630" fill="none" xmlns="http://www.w3.org/2000/svg">
<g clip-path="url(#clip0)">
<path d="M101.392 1058.28H0.195312V1159.47H101.392V1058.28Z" fill="black"/>
<path d="M303.784 1058.28H202.588V1159.47H303.784V1058.28Z" fill="black"/>
<path d="M0.19677 1159.47H-101V1260.67H0.19677V1159.47Z" fill="black"/>
<path d="M202.587 1159.47H101.391V1260.67H202.587V1159.47Z" fill="black"/>
<path d="M404.978 1159.47H303.781V1260.67H404.978V1159.47Z" fill="black"/>
<path d="M101.392 1260.69H0.195312V1361.88H101.392V1260.69Z" fill="black"/>
<path d="M303.784 1260.69H202.588V1361.88H303.784V1260.69Z" fill="black"/>
<path d="M0.19677 1361.87H-101V1463.07H0.19677V1361.87Z" fill="black"/>
<path d="M202.587 1361.87H101.391V1463.07H202.587V1361.87Z" fill="black"/>
<path d="M404.978 1361.87H303.781V1463.07H404.978V1361.87Z" fill="black"/>
<path d="M506.388 1058.28H405.191V1159.47H506.388V1058.28Z" fill="black"/>
<path d="M708.779 1058.28H607.582V1159.47H708.779V1058.28Z" fill="black"/>
<path d="M607.583 1159.49H506.387V1260.68H607.583V1159.49Z" fill="black"/>
<path d="M809.978 1159.49H708.781V1260.68H809.978V1159.49Z" fill="black"/>
<path d="M506.388 1260.67H405.191V1361.87H506.388V1260.67Z" fill="black"/>
<path d="M708.781 1260.67H607.584V1361.87H708.781V1260.67Z" fill="black"/>
<path d="M607.583 1361.87H506.387V1463.07H607.583V1361.87Z" fill="black"/>
<path d="M809.988 1361.87H708.791V1463.07H809.988V1361.87Z" fill="black"/>
<path d="M101.392 1463.07H0.195312V1564.26H101.392V1463.07Z" fill="black"/>
<path d="M303.784 1463.07H202.588V1564.26H303.784V1463.07Z" fill="black"/>
<path d="M0.19677 1564.26H-101V1665.46H0.19677V1564.26Z" fill="black"/>
<path d="M202.587 1564.26H101.391V1665.46H202.587V1564.26Z" fill="black"/>
<path d="M404.978 1564.26H303.781V1665.46H404.978V1564.26Z" fill="black"/>
<path d="M101.392 1665.48H0.195312V1766.67H101.392V1665.48Z" fill="black"/>
<path d="M303.784 1665.48H202.588V1766.67H303.784V1665.48Z" fill="black"/>
<path d="M0.19677 1766.66H-101V1867.86H0.19677V1766.66Z" fill="black"/>
<path d="M202.587 1766.66H101.391V1867.86H202.587V1766.66Z" fill="black"/>
<path d="M404.978 1766.66H303.781V1867.86H404.978V1766.66Z" fill="black"/>
<path d="M506.388 1463.07H405.191V1564.26H506.388V1463.07Z" fill="black"/>
<path d="M708.779 1463.07H607.582V1564.26H708.779V1463.07Z" fill="black"/>
<path d="M607.583 1564.27H506.387V1665.47H607.583V1564.27Z" fill="black"/>
<path d="M809.978 1564.27H708.781V1665.47H809.978V1564.27Z" fill="black"/>
<path d="M506.388 1665.46H405.191V1766.66H506.388V1665.46Z" fill="black"/>
<path d="M708.781 1665.46H607.584V1766.66H708.781V1665.46Z" fill="black"/>
<path d="M607.583 1766.66H506.387V1867.86H607.583V1766.66Z" fill="black"/>
<path d="M809.988 1766.66H708.791V1867.86H809.988V1766.66Z" fill="black"/>
<path d="M35 71H1645" stroke="black" stroke-width="2"/>
<path d="M35 213H1645" stroke="black" stroke-width="2"/>
<path d="M117 1868H1561" stroke="black" stroke-width="2"/>
<line x1="70" y1="1869" x2="70" y2="2961" stroke="black" stroke-width="2"/>
<line x1="1610" y1="1867" x2="1610" y2="2961" stroke="black" stroke-width="2"/>
<line x1="1482" y1="1867" x2="1482" y2="2961" stroke="black" stroke-width="2"/>
<line y1="-1" x2="1089.46" y2="-1" transform="matrix(0.00113136 0.999999 -1 0.000998285 1352.38 1870.12)" stroke="black" stroke-width="2"/>
<line x1="1096" y1="1869" x2="1096" y2="2961" stroke="black" stroke-width="2"/>
<line x1="1224" y1="1869" x2="1224" y2="2961" stroke="black" stroke-width="2"/>
<line x1="712" y1="1869" x2="712" y2="2961" stroke="black" stroke-width="2"/>
<line x1="840" y1="1867" x2="840" y2="2959" stroke="black" stroke-width="2"/>
<line x1="968" y1="1868" x2="968" y2="2960" stroke="black" stroke-width="2"/>
<line x1="584" y1="1869" x2="584" y2="2961" stroke="black" stroke-width="2"/>
<line x1="455" y1="1868" x2="455" y2="2960" stroke="black" stroke-width="2"/>
<path d="M327 1869L327 2960" stroke="black" stroke-width="2"/>
<line x1="198" y1="1867" x2="198" y2="2959" stroke="black" stroke-width="2"/>
<path d="M71 2960L1609 2960" stroke="black" stroke-width="2"/>
<line x1="69" y1="3163" x2="1610" y2="3163" stroke="black" stroke-width="2"/>
<path d="M35 354L1645 354" stroke="black" stroke-width="2"/>
<path d="M35 495L1645 495" stroke="black" stroke-width="2"/>
<path d="M35 636H1645" stroke="black" stroke-width="2"/>
<path d="M35 918L1645 918" stroke="black" stroke-width="2"/>
<path d="M37 1059L1645 1059" stroke="black" stroke-width="2"/>
<path d="M0 1868L1684 1868" stroke="black" stroke-width="2"/>
<path d="M35 777L1645 777" stroke="black" stroke-width="2"/>
<rect y="5152" width="1680" height="478" fill="black"/>
<rect x="629" y="3232" width="423" height="468" stroke="black" stroke-width="2"/>
<rect x="1139" y="3232" width="423" height="468" stroke="black" stroke-width="2"/>
<rect x="118" y="3232" width="423" height="468" stroke="black" stroke-width="2"/>
</g>
<defs>
<clipPath id="clip0">
<rect width="1680" height="5630" fill="white"/>
</clipPath>
</defs>
</svg>
