<svg width="1680" height="5630" viewBox="0 0 1680 5630" fill="none" xmlns="http://www.w3.org/2000/svg">
<g clip-path="url(#clip0)">
<rect y="5153" width="1680" height="477" fill="black"/>
<path d="M80.8409 5537V5538.74H72.9934V5543.44H79.9176V5545.11H72.9934V5552.08H71.021V5537H80.8409Z" fill="white"/>
<path d="M84.6223 5537V5539.2H82.8178V5537H84.6223ZM84.6223 5541.15V5552.08H82.8178V5541.15H84.6223Z" fill="white"/>
<path d="M93.0297 5540.9V5542.76C92.9038 5542.75 92.7499 5542.74 92.5681 5542.74C91.9945 5542.74 91.4979 5542.83 91.0783 5543.01C90.6586 5543.18 90.3229 5543.41 90.0711 5543.69C89.8333 5543.97 89.6375 5544.33 89.4836 5544.75C89.3297 5545.17 89.2248 5545.6 89.1689 5546.02C89.1269 5546.45 89.1059 5546.93 89.1059 5547.46V5552.08H87.3224V5541.15H89.022V5543.5C89.7354 5541.76 91.0713 5540.9 93.0297 5540.9Z" fill="white"/>
<path d="M103.257 5548.63C102.712 5551.17 101.138 5552.44 98.5361 5552.44C96.9415 5552.44 95.6895 5551.94 94.7803 5550.93C93.885 5549.93 93.4374 5548.54 93.4374 5546.76C93.4374 5545 93.899 5543.57 94.8222 5542.48C95.7594 5541.38 96.9764 5540.83 98.4732 5540.83C100.138 5540.83 101.369 5541.4 102.166 5542.55C102.977 5543.68 103.383 5545.11 103.383 5546.85V5547.1H95.2419L95.2209 5547.23C95.2209 5548.39 95.5216 5549.3 96.1231 5549.96C96.7246 5550.62 97.55 5550.96 98.5991 5550.96C99.3825 5550.96 99.9979 5550.77 100.446 5550.41C100.907 5550.04 101.264 5549.45 101.516 5548.63H103.257ZM101.537 5545.64C101.453 5544.6 101.138 5543.78 100.592 5543.21C100.047 5542.61 99.3265 5542.32 98.4312 5542.32C97.564 5542.32 96.8435 5542.61 96.27 5543.21C95.6965 5543.8 95.3538 5544.61 95.2419 5545.64H101.537Z" fill="white"/>
<path d="M111.512 5537H117.66C119.185 5537 120.395 5537.35 121.29 5538.06C122.186 5538.75 122.633 5539.84 122.633 5541.34C122.633 5544.38 120.934 5545.89 117.534 5545.89H113.485V5552.08H111.512V5537ZM113.485 5538.72V5544.22H117.283C118.346 5544.22 119.171 5544.02 119.759 5543.63C120.36 5543.22 120.661 5542.5 120.661 5541.47C120.661 5540.89 120.563 5540.41 120.367 5540.03C120.185 5539.65 119.913 5539.36 119.549 5539.18C119.185 5539 118.807 5538.88 118.416 5538.82C118.024 5538.75 117.555 5538.72 117.01 5538.72H113.485Z" fill="white"/>
<path d="M130.364 5540.9V5542.76C130.238 5542.75 130.084 5542.74 129.902 5542.74C129.329 5542.74 128.832 5542.83 128.413 5543.01C127.993 5543.18 127.657 5543.41 127.406 5543.69C127.168 5543.97 126.972 5544.33 126.818 5544.75C126.664 5545.17 126.559 5545.6 126.503 5546.02C126.461 5546.45 126.44 5546.93 126.44 5547.46V5552.08H124.657V5541.15H126.356V5543.5C127.07 5541.76 128.406 5540.9 130.364 5540.9Z" fill="white"/>
<path d="M140.592 5548.63C140.046 5551.17 138.472 5552.44 135.871 5552.44C134.276 5552.44 133.024 5551.94 132.115 5550.93C131.219 5549.93 130.772 5548.54 130.772 5546.76C130.772 5545 131.233 5543.57 132.157 5542.48C133.094 5541.38 134.311 5540.83 135.808 5540.83C137.472 5540.83 138.703 5541.4 139.501 5542.55C140.312 5543.68 140.718 5545.11 140.718 5546.85V5547.1H132.576L132.555 5547.23C132.555 5548.39 132.856 5549.3 133.458 5549.96C134.059 5550.62 134.884 5550.96 135.934 5550.96C136.717 5550.96 137.332 5550.77 137.78 5550.41C138.242 5550.04 138.598 5549.45 138.85 5548.63H140.592ZM138.871 5545.64C138.787 5544.6 138.472 5543.78 137.927 5543.21C137.381 5542.61 136.661 5542.32 135.766 5542.32C134.898 5542.32 134.178 5542.61 133.604 5543.21C133.031 5543.8 132.688 5544.61 132.576 5545.64H138.871Z" fill="white"/>
<path d="M150.645 5544.33H148.861C148.749 5543 147.868 5542.34 146.217 5542.34C145.532 5542.34 144.993 5542.47 144.602 5542.74C144.21 5543.01 144.014 5543.37 144.014 5543.82C144.014 5543.95 144.028 5544.07 144.056 5544.2C144.084 5544.31 144.133 5544.42 144.203 5544.52C144.287 5544.6 144.357 5544.68 144.413 5544.75C144.483 5544.82 144.588 5544.89 144.728 5544.96C144.881 5545.02 144.993 5545.07 145.063 5545.11C145.147 5545.15 145.287 5545.2 145.483 5545.26C145.693 5545.3 145.84 5545.34 145.924 5545.37C146.007 5545.38 146.168 5545.41 146.406 5545.47C146.658 5545.53 146.819 5545.56 146.889 5545.58C147.406 5545.69 147.791 5545.78 148.043 5545.85C148.309 5545.92 148.665 5546.06 149.113 5546.25C149.575 5546.44 149.924 5546.64 150.162 5546.85C150.4 5547.05 150.61 5547.33 150.792 5547.69C150.987 5548.05 151.085 5548.45 151.085 5548.9C151.085 5549.96 150.673 5550.81 149.847 5551.46C149.036 5552.1 147.952 5552.42 146.595 5552.42C145.126 5552.42 143.993 5552.09 143.196 5551.44C142.412 5550.79 141.993 5549.85 141.937 5548.63H143.699C143.797 5550.17 144.776 5550.93 146.637 5550.93C147.434 5550.93 148.071 5550.77 148.546 5550.45C149.036 5550.11 149.281 5549.66 149.281 5549.11C149.281 5548.75 149.155 5548.44 148.903 5548.2C148.651 5547.96 148.372 5547.79 148.064 5547.69C147.756 5547.58 147.315 5547.45 146.742 5547.31C146.658 5547.3 146.595 5547.29 146.553 5547.27C146.427 5547.24 146.154 5547.19 145.735 5547.1C145.329 5547 145.035 5546.93 144.853 5546.87C144.672 5546.81 144.406 5546.73 144.056 5546.61C143.72 5546.49 143.469 5546.36 143.301 5546.23C143.133 5546.09 142.944 5545.92 142.734 5545.73C142.538 5545.51 142.398 5545.27 142.315 5545.01C142.231 5544.72 142.189 5544.41 142.189 5544.05C142.189 5543.06 142.559 5542.28 143.301 5541.7C144.056 5541.12 145.063 5540.83 146.322 5540.83C147.595 5540.83 148.63 5541.14 149.428 5541.74C150.239 5542.35 150.645 5543.21 150.645 5544.33Z" fill="white"/>
<path d="M161.136 5544.33H159.352C159.241 5543 158.359 5542.34 156.709 5542.34C156.023 5542.34 155.485 5542.47 155.093 5542.74C154.701 5543.01 154.505 5543.37 154.505 5543.82C154.505 5543.95 154.519 5544.07 154.547 5544.2C154.575 5544.31 154.624 5544.42 154.694 5544.52C154.778 5544.6 154.848 5544.68 154.904 5544.75C154.974 5544.82 155.079 5544.89 155.219 5544.96C155.373 5545.02 155.485 5545.07 155.555 5545.11C155.639 5545.15 155.778 5545.2 155.974 5545.26C156.184 5545.3 156.331 5545.34 156.415 5545.37C156.499 5545.38 156.66 5545.41 156.897 5545.47C157.149 5545.53 157.31 5545.56 157.38 5545.58C157.898 5545.69 158.282 5545.78 158.534 5545.85C158.8 5545.92 159.157 5546.06 159.604 5546.25C160.066 5546.44 160.416 5546.64 160.653 5546.85C160.891 5547.05 161.101 5547.33 161.283 5547.69C161.479 5548.05 161.577 5548.45 161.577 5548.9C161.577 5549.96 161.164 5550.81 160.339 5551.46C159.527 5552.1 158.443 5552.42 157.086 5552.42C155.618 5552.42 154.484 5552.09 153.687 5551.44C152.904 5550.79 152.484 5549.85 152.428 5548.63H154.191C154.289 5550.17 155.268 5550.93 157.128 5550.93C157.926 5550.93 158.562 5550.77 159.038 5550.45C159.527 5550.11 159.772 5549.66 159.772 5549.11C159.772 5548.75 159.646 5548.44 159.394 5548.2C159.143 5547.96 158.863 5547.79 158.555 5547.69C158.247 5547.58 157.807 5547.45 157.233 5547.31C157.149 5547.3 157.086 5547.29 157.044 5547.27C156.918 5547.24 156.646 5547.19 156.226 5547.1C155.82 5547 155.527 5546.93 155.345 5546.87C155.163 5546.81 154.897 5546.73 154.547 5546.61C154.212 5546.49 153.96 5546.36 153.792 5546.23C153.624 5546.09 153.435 5545.92 153.226 5545.73C153.03 5545.51 152.89 5545.27 152.806 5545.01C152.722 5544.72 152.68 5544.41 152.68 5544.05C152.68 5543.06 153.051 5542.28 153.792 5541.7C154.547 5541.12 155.555 5540.83 156.814 5540.83C158.087 5540.83 159.122 5541.14 159.919 5541.74C160.73 5542.35 161.136 5543.21 161.136 5544.33Z" fill="white"/>
<path d="M166.319 5549.73V5551.17C166.319 5551.7 166.291 5552.16 166.235 5552.52C166.193 5552.9 166.095 5553.29 165.941 5553.67C165.787 5554.05 165.549 5554.37 165.228 5554.62C164.906 5554.89 164.493 5555.09 163.99 5555.21V5554.15C164.745 5553.9 165.13 5553.21 165.144 5552.08H163.99V5549.73H166.319Z" fill="white"/>
<path d="M182.741 5542.74H177.096V5552.08H175.313V5541.15H182.741V5542.74Z" fill="white"/>
<path d="M184.043 5549.73V5552.08H181.714V5549.73H184.043Z" fill="white"/>
<path d="M187.491 5537H190.219L195.024 5549.77L199.661 5537H202.41V5552.08H200.542V5539.5L195.863 5552.08H194.143L189.38 5539.5V5552.08H187.491V5537Z" fill="white"/>
<path d="M206.294 5542.4C207.245 5541.36 208.539 5540.83 210.175 5540.83C211.812 5540.83 213.085 5541.33 213.994 5542.34C214.904 5543.34 215.358 5544.74 215.358 5546.55C215.358 5548.4 214.904 5549.84 213.994 5550.87C213.085 5551.9 211.805 5552.42 210.154 5552.42C208.504 5552.42 207.21 5551.91 206.273 5550.89C205.335 5549.88 204.867 5548.46 204.867 5546.66C204.867 5544.86 205.342 5543.45 206.294 5542.4ZM212.609 5543.5C212.008 5542.73 211.183 5542.34 210.133 5542.34C209.084 5542.34 208.252 5542.73 207.637 5543.5C207.021 5544.28 206.713 5545.32 206.713 5546.61C206.713 5547.96 207.014 5549.01 207.616 5549.77C208.231 5550.52 209.084 5550.89 210.175 5550.89C211.225 5550.89 212.043 5550.51 212.63 5549.75C213.232 5548.99 213.533 5547.93 213.533 5546.59C213.533 5545.29 213.225 5544.26 212.609 5543.5Z" fill="white"/>
<path d="M226.798 5548.1C226.644 5549.41 226.148 5550.45 225.309 5551.23C224.483 5552.01 223.406 5552.4 222.077 5552.4C220.441 5552.4 219.175 5551.89 218.279 5550.87C217.384 5549.84 216.936 5548.47 216.936 5546.76C216.936 5544.94 217.405 5543.5 218.342 5542.44C219.28 5541.37 220.545 5540.83 222.14 5540.83C223.469 5540.83 224.532 5541.17 225.33 5541.85C226.127 5542.51 226.595 5543.47 226.735 5544.71H224.889C224.567 5543.13 223.658 5542.34 222.161 5542.34C221.126 5542.34 220.308 5542.73 219.706 5543.5C219.105 5544.26 218.804 5545.3 218.804 5546.61C218.804 5547.94 219.091 5548.99 219.664 5549.75C220.238 5550.51 221.028 5550.89 222.035 5550.89C222.847 5550.89 223.504 5550.65 224.008 5550.17C224.525 5549.69 224.854 5549 224.994 5548.1H226.798Z" fill="white"/>
<path d="M238.446 5552.08H236.18L232.235 5546.7L230.536 5548.37V5552.08H228.752V5541.15H230.536V5546.36L235.487 5541.15H237.879L233.515 5545.45L238.446 5552.08Z" fill="white"/>
<path d="M239.591 5552.08V5541.15H244.606C245.319 5541.15 245.927 5541.21 246.431 5541.34C246.935 5541.45 247.375 5541.72 247.753 5542.12C248.131 5542.53 248.319 5543.09 248.319 5543.8C248.319 5544.87 247.788 5545.65 246.725 5546.15V5546.17C247.368 5546.3 247.872 5546.6 248.236 5547.08C248.599 5547.55 248.781 5548.14 248.781 5548.86C248.781 5549.79 248.473 5550.56 247.858 5551.17C247.242 5551.77 246.452 5552.08 245.487 5552.08H239.591ZM244.417 5545.56C245.158 5545.56 245.683 5545.44 245.99 5545.2C246.312 5544.94 246.473 5544.57 246.473 5544.09C246.473 5543.61 246.319 5543.26 246.011 5543.04C245.704 5542.81 245.172 5542.7 244.417 5542.7H241.332V5545.56H244.417ZM241.332 5547.08V5550.53H245.151C245.711 5550.53 246.144 5550.36 246.452 5550.02C246.774 5549.69 246.935 5549.25 246.935 5548.71C246.935 5547.62 246.235 5547.08 244.836 5547.08H241.332Z" fill="white"/>
<path d="M260.492 5550.64V5552.04C260.128 5552.18 259.722 5552.25 259.275 5552.25C258.254 5552.25 257.729 5551.71 257.701 5550.64C256.68 5551.8 255.372 5552.37 253.777 5552.37C252.714 5552.37 251.868 5552.1 251.238 5551.55C250.623 5551 250.315 5550.24 250.315 5549.28C250.315 5547.33 251.595 5546.2 254.155 5545.87C254.323 5545.85 254.568 5545.82 254.889 5545.79C256.106 5545.65 256.855 5545.49 257.135 5545.3C257.456 5545.08 257.617 5544.69 257.617 5544.14C257.617 5542.94 256.799 5542.34 255.162 5542.34C254.323 5542.34 253.686 5542.51 253.253 5542.87C252.819 5543.21 252.56 5543.77 252.476 5544.56H250.735C250.763 5543.39 251.175 5542.48 251.973 5541.83C252.77 5541.18 253.868 5540.85 255.267 5540.85C256.792 5540.85 257.925 5541.21 258.666 5541.91C258.904 5542.14 259.079 5542.44 259.191 5542.8C259.303 5543.17 259.366 5543.47 259.38 5543.71C259.394 5543.94 259.401 5544.29 259.401 5544.75C259.401 5545.29 259.387 5546.1 259.359 5547.19C259.331 5548.27 259.317 5549.09 259.317 5549.62C259.317 5550.02 259.366 5550.3 259.464 5550.47C259.575 5550.62 259.771 5550.7 260.051 5550.7C260.163 5550.7 260.31 5550.68 260.492 5550.64ZM257.617 5546.4C257.491 5546.5 257.358 5546.59 257.218 5546.66C257.079 5546.73 256.897 5546.78 256.673 5546.83C256.463 5546.87 256.316 5546.9 256.232 5546.93C256.162 5546.95 255.98 5546.97 255.687 5547.02C255.393 5547.05 255.239 5547.06 255.225 5547.06C254.791 5547.12 254.505 5547.16 254.365 5547.19C254.239 5547.2 253.987 5547.26 253.609 5547.36C253.246 5547.45 252.987 5547.57 252.833 5547.69C252.679 5547.82 252.525 5548.01 252.371 5548.27C252.232 5548.51 252.162 5548.8 252.162 5549.13C252.162 5549.7 252.35 5550.14 252.728 5550.47C253.12 5550.79 253.651 5550.96 254.323 5550.96C255.176 5550.96 255.938 5550.7 256.61 5550.19C257.281 5549.69 257.617 5549.09 257.617 5548.39V5546.4Z" fill="white"/>
<path d="M264.9 5549.73V5551.17C264.9 5551.7 264.872 5552.16 264.816 5552.52C264.774 5552.9 264.677 5553.29 264.523 5553.67C264.369 5554.05 264.131 5554.37 263.809 5554.62C263.488 5554.89 263.075 5555.09 262.571 5555.21V5554.15C263.327 5553.9 263.711 5553.21 263.725 5552.08H262.571V5549.73H264.9Z" fill="white"/>
<path d="M282.812 5541.15L278.175 5553.48C277.993 5553.97 277.832 5554.35 277.692 5554.62C277.566 5554.9 277.378 5555.21 277.126 5555.53C276.888 5555.87 276.594 5556.11 276.244 5556.25C275.909 5556.41 275.51 5556.48 275.048 5556.48C274.699 5556.48 274.258 5556.42 273.727 5556.29V5554.68C274.244 5554.84 274.629 5554.92 274.881 5554.92C275.468 5554.92 275.888 5554.61 276.14 5554.01L276.979 5552.01L272.677 5541.15H274.692L277.902 5549.85L280.945 5541.15H282.812Z" fill="white"/>
<path d="M292.485 5541.15V5552.08H290.702V5542.74H286.841L286.694 5547.57C286.652 5549.23 286.351 5550.44 285.792 5551.19C285.232 5551.94 284.533 5552.31 283.693 5552.31C283.176 5552.31 282.749 5552.23 282.414 5552.08V5550.62C282.595 5550.72 282.91 5550.77 283.358 5550.77C283.777 5550.77 284.134 5550.54 284.428 5550.09C284.736 5549.62 284.903 5548.85 284.931 5547.76L285.12 5541.15H292.485Z" fill="white"/>
<path d="M297.85 5549.73V5552.08H295.521V5549.73H297.85Z" fill="white"/>
<path d="M301.298 5537H304.025L308.83 5549.77L313.468 5537H316.216V5552.08H314.349V5539.5L309.67 5552.08H307.949L303.186 5539.5V5552.08H301.298V5537Z" fill="white"/>
<path d="M328.829 5550.64V5552.04C328.465 5552.18 328.059 5552.25 327.612 5552.25C326.591 5552.25 326.066 5551.71 326.038 5550.64C325.017 5551.8 323.709 5552.37 322.114 5552.37C321.051 5552.37 320.205 5552.1 319.576 5551.55C318.96 5551 318.652 5550.24 318.652 5549.28C318.652 5547.33 319.932 5546.2 322.492 5545.87C322.66 5545.85 322.905 5545.82 323.226 5545.79C324.443 5545.65 325.192 5545.49 325.472 5545.3C325.793 5545.08 325.954 5544.69 325.954 5544.14C325.954 5542.94 325.136 5542.34 323.499 5542.34C322.66 5542.34 322.023 5542.51 321.59 5542.87C321.156 5543.21 320.897 5543.77 320.813 5544.56H319.072C319.1 5543.39 319.513 5542.48 320.31 5541.83C321.107 5541.18 322.205 5540.85 323.604 5540.85C325.129 5540.85 326.262 5541.21 327.003 5541.91C327.241 5542.14 327.416 5542.44 327.528 5542.8C327.64 5543.17 327.703 5543.47 327.717 5543.71C327.731 5543.94 327.738 5544.29 327.738 5544.75C327.738 5545.29 327.724 5546.1 327.696 5547.19C327.668 5548.27 327.654 5549.09 327.654 5549.62C327.654 5550.02 327.703 5550.3 327.801 5550.47C327.913 5550.62 328.108 5550.7 328.388 5550.7C328.5 5550.7 328.647 5550.68 328.829 5550.64ZM325.954 5546.4C325.828 5546.5 325.695 5546.59 325.556 5546.66C325.416 5546.73 325.234 5546.78 325.01 5546.83C324.8 5546.87 324.653 5546.9 324.569 5546.93C324.499 5546.95 324.318 5546.97 324.024 5547.02C323.73 5547.05 323.576 5547.06 323.562 5547.06C323.129 5547.12 322.842 5547.16 322.702 5547.19C322.576 5547.2 322.324 5547.26 321.947 5547.36C321.583 5547.45 321.324 5547.57 321.17 5547.69C321.016 5547.82 320.862 5548.01 320.709 5548.27C320.569 5548.51 320.499 5548.8 320.499 5549.13C320.499 5549.7 320.688 5550.14 321.065 5550.47C321.457 5550.79 321.988 5550.96 322.66 5550.96C323.513 5550.96 324.276 5550.7 324.947 5550.19C325.618 5549.69 325.954 5549.09 325.954 5548.39V5546.4Z" fill="white"/>
<path d="M339.532 5541.15V5552.08H337.749V5542.74H333.888L333.741 5547.57C333.699 5549.23 333.398 5550.44 332.839 5551.19C332.279 5551.94 331.58 5552.31 330.741 5552.31C330.223 5552.31 329.796 5552.23 329.461 5552.08V5550.62C329.642 5550.72 329.957 5550.77 330.405 5550.77C330.824 5550.77 331.181 5550.54 331.475 5550.09C331.783 5549.62 331.951 5548.85 331.979 5547.76L332.167 5541.15H339.532Z" fill="white"/>
<path d="M351.758 5550.64V5552.04C351.394 5552.18 350.989 5552.25 350.541 5552.25C349.52 5552.25 348.995 5551.71 348.967 5550.64C347.946 5551.8 346.638 5552.37 345.044 5552.37C343.981 5552.37 343.134 5552.1 342.505 5551.55C341.889 5551 341.582 5550.24 341.582 5549.28C341.582 5547.33 342.862 5546.2 345.421 5545.87C345.589 5545.85 345.834 5545.82 346.156 5545.79C347.373 5545.65 348.121 5545.49 348.401 5545.3C348.723 5545.08 348.884 5544.69 348.884 5544.14C348.884 5542.94 348.065 5542.34 346.429 5542.34C345.589 5542.34 344.953 5542.51 344.519 5542.87C344.085 5543.21 343.827 5543.77 343.743 5544.56H342.001C342.029 5543.39 342.442 5542.48 343.239 5541.83C344.037 5541.18 345.135 5540.85 346.533 5540.85C348.058 5540.85 349.191 5541.21 349.933 5541.91C350.17 5542.14 350.345 5542.44 350.457 5542.8C350.569 5543.17 350.632 5543.47 350.646 5543.71C350.66 5543.94 350.667 5544.29 350.667 5544.75C350.667 5545.29 350.653 5546.1 350.625 5547.19C350.597 5548.27 350.583 5549.09 350.583 5549.62C350.583 5550.02 350.632 5550.3 350.73 5550.47C350.842 5550.62 351.038 5550.7 351.318 5550.7C351.429 5550.7 351.576 5550.68 351.758 5550.64ZM348.884 5546.4C348.758 5546.5 348.625 5546.59 348.485 5546.66C348.345 5546.73 348.163 5546.78 347.939 5546.83C347.729 5546.87 347.583 5546.9 347.499 5546.93C347.429 5546.95 347.247 5546.97 346.953 5547.02C346.659 5547.05 346.505 5547.06 346.492 5547.06C346.058 5547.12 345.771 5547.16 345.631 5547.19C345.505 5547.2 345.254 5547.26 344.876 5547.36C344.512 5547.45 344.253 5547.57 344.099 5547.69C343.946 5547.82 343.792 5548.01 343.638 5548.27C343.498 5548.51 343.428 5548.8 343.428 5549.13C343.428 5549.7 343.617 5550.14 343.995 5550.47C344.386 5550.79 344.918 5550.96 345.589 5550.96C346.443 5550.96 347.205 5550.7 347.876 5550.19C348.548 5549.69 348.884 5549.09 348.884 5548.39V5546.4Z" fill="white"/>
<path d="M362 5552.08H360.216V5547.61H357.845L354.425 5552.08H352.054L355.789 5547.55C354.992 5547.42 354.341 5547.08 353.838 5546.53C353.348 5545.97 353.103 5545.25 353.103 5544.37C353.103 5543.35 353.404 5542.56 354.006 5542C354.607 5541.43 355.439 5541.15 356.503 5541.15H362V5552.08ZM360.216 5542.74H357.069C355.642 5542.74 354.929 5543.28 354.929 5544.37C354.929 5545.47 355.642 5546.02 357.069 5546.02H360.216V5542.74Z" fill="white"/>
<path d="M82.8342 5561.71V5576.79H80.8619V5563.44H72.9724V5576.79H71V5561.71H82.8342Z" fill="white"/>
<path d="M88.1151 5576.79H85.828V5565.86H87.6116V5574.77H87.6535L92.5215 5565.86H94.8086V5576.79H93.0251V5567.87H92.9831L88.1151 5576.79Z" fill="white"/>
<path d="M98.3476 5567.11C99.2988 5566.06 100.593 5565.54 102.229 5565.54C103.866 5565.54 105.139 5566.04 106.048 5567.04C106.958 5568.05 107.412 5569.45 107.412 5571.26C107.412 5573.11 106.958 5574.55 106.048 5575.58C105.139 5576.61 103.859 5577.12 102.208 5577.12C100.558 5577.12 99.2639 5576.62 98.3267 5575.6C97.3894 5574.58 96.9208 5573.17 96.9208 5571.36C96.9208 5569.57 97.3964 5568.15 98.3476 5567.11ZM104.663 5568.21C104.062 5567.43 103.237 5567.04 102.187 5567.04C101.138 5567.04 100.306 5567.43 99.6905 5568.21C99.075 5568.99 98.7673 5570.02 98.7673 5571.32C98.7673 5572.66 99.068 5573.71 99.6695 5574.48C100.285 5575.23 101.138 5575.6 102.229 5575.6C103.279 5575.6 104.097 5575.22 104.684 5574.46C105.286 5573.69 105.587 5572.64 105.587 5571.3C105.587 5570 105.279 5568.97 104.663 5568.21Z" fill="white"/>
<path d="M111.32 5576.79H109.536V5565.86H111.32V5570.2H116.733V5565.86H118.517V5576.79H116.733V5571.79H111.32V5576.79Z" fill="white"/>
<path d="M130.449 5573.33C129.903 5575.88 128.329 5577.15 125.728 5577.15C124.133 5577.15 122.881 5576.64 121.972 5575.64C121.076 5574.64 120.629 5573.25 120.629 5571.47C120.629 5569.71 121.09 5568.28 122.014 5567.19C122.951 5566.09 124.168 5565.54 125.665 5565.54C127.329 5565.54 128.56 5566.11 129.358 5567.26C130.169 5568.39 130.575 5569.82 130.575 5571.55V5571.81H122.433L122.412 5571.94C122.412 5573.09 122.713 5574 123.315 5574.67C123.916 5575.33 124.741 5575.66 125.791 5575.66C126.574 5575.66 127.189 5575.48 127.637 5575.11C128.099 5574.75 128.455 5574.15 128.707 5573.33H130.449ZM128.728 5570.35C128.644 5569.3 128.329 5568.49 127.784 5567.91C127.238 5567.32 126.518 5567.02 125.623 5567.02C124.755 5567.02 124.035 5567.32 123.461 5567.91C122.888 5568.51 122.545 5569.32 122.433 5570.35H128.728Z" fill="white"/>
<path d="M134.144 5565.86V5567.4C134.927 5566.15 136.144 5565.52 137.795 5565.52C139.306 5565.52 140.502 5566.03 141.383 5567.07C142.278 5568.1 142.726 5569.49 142.726 5571.26C142.726 5573.02 142.285 5574.43 141.404 5575.49C140.537 5576.54 139.362 5577.06 137.879 5577.06C136.326 5577.06 135.116 5576.46 134.249 5575.26V5581H132.465V5565.86H134.144ZM137.522 5567.02C136.487 5567.02 135.669 5567.4 135.067 5568.17C134.48 5568.91 134.186 5569.95 134.186 5571.28C134.186 5572.61 134.487 5573.65 135.088 5574.41C135.704 5575.16 136.536 5575.54 137.585 5575.54C138.606 5575.54 139.411 5575.15 139.998 5574.39C140.586 5573.63 140.879 5572.59 140.879 5571.28C140.879 5569.95 140.579 5568.91 139.977 5568.17C139.39 5567.4 138.571 5567.02 137.522 5567.02Z" fill="white"/>
<path d="M154.22 5572.8C154.066 5574.12 153.569 5575.16 152.73 5575.94C151.904 5576.72 150.827 5577.1 149.498 5577.1C147.862 5577.1 146.596 5576.6 145.701 5575.58C144.805 5574.55 144.358 5573.18 144.358 5571.47C144.358 5569.65 144.826 5568.21 145.764 5567.15C146.701 5566.08 147.967 5565.54 149.561 5565.54C150.89 5565.54 151.953 5565.88 152.751 5566.56C153.548 5567.22 154.017 5568.17 154.157 5569.42H152.31C151.988 5567.83 151.079 5567.04 149.582 5567.04C148.547 5567.04 147.729 5567.43 147.127 5568.21C146.526 5568.97 146.225 5570.01 146.225 5571.32C146.225 5572.65 146.512 5573.69 147.085 5574.46C147.659 5575.22 148.449 5575.6 149.457 5575.6C150.268 5575.6 150.925 5575.36 151.429 5574.88C151.946 5574.4 152.275 5573.71 152.415 5572.8H154.22Z" fill="white"/>
<path d="M165.867 5576.79H163.601L159.656 5571.41L157.957 5573.08V5576.79H156.173V5565.86H157.957V5571.07L162.909 5565.86H165.301L160.936 5570.16L165.867 5576.79Z" fill="white"/>
<path d="M176.643 5575.35V5576.74C176.279 5576.88 175.874 5576.96 175.426 5576.96C174.405 5576.96 173.88 5576.42 173.852 5575.35C172.831 5576.5 171.523 5577.08 169.929 5577.08C168.865 5577.08 168.019 5576.81 167.39 5576.26C166.774 5575.71 166.466 5574.95 166.466 5573.99C166.466 5572.04 167.746 5570.91 170.306 5570.58C170.474 5570.55 170.719 5570.52 171.041 5570.5C172.258 5570.35 173.006 5570.19 173.286 5570.01C173.608 5569.78 173.768 5569.39 173.768 5568.84C173.768 5567.64 172.95 5567.04 171.313 5567.04C170.474 5567.04 169.838 5567.22 169.404 5567.57C168.97 5567.91 168.712 5568.48 168.628 5569.27H166.886C166.914 5568.1 167.327 5567.19 168.124 5566.54C168.921 5565.89 170.019 5565.56 171.418 5565.56C172.943 5565.56 174.076 5565.91 174.818 5566.62C175.055 5566.85 175.23 5567.14 175.342 5567.51C175.454 5567.88 175.517 5568.18 175.531 5568.42C175.545 5568.65 175.552 5568.99 175.552 5569.46C175.552 5569.99 175.538 5570.81 175.51 5571.89C175.482 5572.98 175.468 5573.79 175.468 5574.33C175.468 5574.72 175.517 5575.01 175.615 5575.18C175.727 5575.33 175.923 5575.41 176.202 5575.41C176.314 5575.41 176.461 5575.39 176.643 5575.35ZM173.768 5571.11C173.642 5571.21 173.51 5571.29 173.37 5571.36C173.23 5571.43 173.048 5571.49 172.824 5571.53C172.614 5571.58 172.467 5571.61 172.384 5571.64C172.314 5571.65 172.132 5571.68 171.838 5571.72C171.544 5571.75 171.39 5571.77 171.376 5571.77C170.943 5571.82 170.656 5571.87 170.516 5571.89C170.39 5571.91 170.138 5571.96 169.761 5572.06C169.397 5572.16 169.138 5572.27 168.984 5572.4C168.83 5572.53 168.677 5572.72 168.523 5572.97C168.383 5573.21 168.313 5573.5 168.313 5573.84C168.313 5574.41 168.502 5574.85 168.879 5575.18C169.271 5575.5 169.803 5575.66 170.474 5575.66C171.327 5575.66 172.09 5575.41 172.761 5574.9C173.433 5574.39 173.768 5573.79 173.768 5573.1V5571.11Z" fill="white"/>
<path d="M186.885 5576.79H185.101V5572.32H182.73L179.31 5576.79H176.939L180.674 5572.25C179.877 5572.13 179.226 5571.79 178.723 5571.24C178.233 5570.67 177.988 5569.95 177.988 5569.08C177.988 5568.06 178.289 5567.27 178.89 5566.71C179.492 5566.14 180.324 5565.86 181.387 5565.86H186.885V5576.79ZM185.101 5567.45H181.954C180.527 5567.45 179.814 5567.99 179.814 5569.08C179.814 5570.18 180.527 5570.73 181.954 5570.73H185.101V5567.45Z" fill="white"/>
<path d="M192.322 5574.43V5575.88C192.322 5576.41 192.294 5576.86 192.238 5577.23C192.196 5577.61 192.098 5577.99 191.944 5578.37C191.79 5578.76 191.552 5579.07 191.231 5579.33C190.909 5579.6 190.496 5579.79 189.993 5579.92V5578.86C190.748 5578.61 191.133 5577.92 191.147 5576.79H189.993V5574.43H192.322Z" fill="white"/>
<path d="M211.765 5580.26H210.065V5576.79H201.798V5580.26H200.099V5575.2H201.274C201.609 5574.55 201.917 5573.55 202.197 5572.19C202.491 5570.82 202.638 5569.49 202.638 5568.19V5565.86H210.359V5575.2H211.765V5580.26ZM208.576 5575.2V5567.45H204.379V5568.36C204.379 5569.64 204.246 5570.95 203.98 5572.27C203.729 5573.59 203.442 5574.56 203.12 5575.2H208.576Z" fill="white"/>
<path d="M216.05 5574.43V5576.79H213.721V5574.43H216.05Z" fill="white"/>
<path d="M225.331 5561.79V5576.79H223.38V5565.92H219.645V5564.57C220.848 5564.57 221.799 5564.37 222.498 5563.97C223.212 5563.58 223.688 5562.85 223.925 5561.79H225.331Z" fill="white"/>
<path d="M240.285 5571.64V5573.16H238.27V5576.79H236.592V5573.16H230.066V5571.47L236.823 5561.77H238.27V5571.64H240.285ZM236.592 5571.64V5564.42L231.64 5571.64H236.592Z" fill="white"/>
<path d="M245.209 5574.43V5576.79H242.88V5574.43H245.209Z" fill="white"/>
<path d="M1374.68 5545V5560.21H1372.7V5553.1H1364.8V5560.21H1362.83V5545H1364.8V5551.35H1372.7V5545H1374.68Z" fill="white"/>
<path d="M1385.72 5552.39H1383.94C1383.83 5551.05 1382.94 5550.38 1381.29 5550.38C1380.6 5550.38 1380.06 5550.52 1379.67 5550.79C1379.28 5551.06 1379.08 5551.42 1379.08 5551.88C1379.08 5552.01 1379.1 5552.14 1379.13 5552.26C1379.15 5552.38 1379.2 5552.49 1379.27 5552.58C1379.36 5552.67 1379.43 5552.75 1379.48 5552.82C1379.55 5552.89 1379.66 5552.96 1379.8 5553.03C1379.95 5553.09 1380.06 5553.14 1380.14 5553.18C1380.22 5553.23 1380.36 5553.28 1380.56 5553.33C1380.77 5553.38 1380.91 5553.41 1381 5553.44C1381.08 5553.45 1381.24 5553.49 1381.48 5553.55C1381.73 5553.6 1381.89 5553.64 1381.96 5553.65C1382.48 5553.77 1382.87 5553.86 1383.12 5553.93C1383.38 5554 1383.74 5554.14 1384.19 5554.34C1384.65 5554.52 1385 5554.72 1385.24 5554.94C1385.48 5555.13 1385.69 5555.42 1385.87 5555.79C1386.07 5556.15 1386.17 5556.55 1386.17 5557.01C1386.17 5558.08 1385.75 5558.94 1384.93 5559.59C1384.11 5560.23 1383.03 5560.55 1381.67 5560.55C1380.2 5560.55 1379.06 5560.23 1378.26 5559.57C1377.48 5558.92 1377.06 5557.97 1377 5556.73H1378.77C1378.87 5558.28 1379.85 5559.06 1381.71 5559.06C1382.51 5559.06 1383.15 5558.89 1383.62 5558.57C1384.11 5558.23 1384.36 5557.78 1384.36 5557.22C1384.36 5556.85 1384.23 5556.54 1383.98 5556.3C1383.73 5556.06 1383.45 5555.89 1383.14 5555.79C1382.83 5555.68 1382.39 5555.55 1381.82 5555.41C1381.73 5555.39 1381.67 5555.38 1381.63 5555.36C1381.5 5555.33 1381.23 5555.28 1380.81 5555.19C1380.4 5555.09 1380.11 5555.01 1379.92 5554.96C1379.74 5554.9 1379.48 5554.81 1379.13 5554.7C1378.79 5554.57 1378.54 5554.44 1378.37 5554.32C1378.2 5554.17 1378.01 5554 1377.8 5553.8C1377.61 5553.59 1377.47 5553.35 1377.38 5553.08C1377.3 5552.79 1377.26 5552.47 1377.26 5552.11C1377.26 5551.12 1377.63 5550.33 1378.37 5549.74C1379.13 5549.16 1380.14 5548.87 1381.4 5548.87C1382.67 5548.87 1383.71 5549.17 1384.51 5549.79C1385.32 5550.4 1385.72 5551.27 1385.72 5552.39Z" fill="white"/>
<path d="M1397.45 5556.73C1396.9 5559.29 1395.33 5560.58 1392.72 5560.58C1391.12 5560.58 1389.87 5560.07 1388.96 5559.06C1388.06 5558.05 1387.62 5556.64 1387.62 5554.85C1387.62 5553.07 1388.08 5551.63 1389 5550.53C1389.94 5549.42 1391.16 5548.87 1392.66 5548.87C1394.33 5548.87 1395.56 5549.44 1396.36 5550.6C1397.17 5551.74 1397.57 5553.18 1397.57 5554.94V5555.19H1389.42L1389.4 5555.32C1389.4 5556.49 1389.7 5557.41 1390.3 5558.08C1390.91 5558.75 1391.73 5559.08 1392.78 5559.08C1393.57 5559.08 1394.18 5558.89 1394.63 5558.52C1395.1 5558.15 1395.45 5557.56 1395.7 5556.73H1397.45ZM1395.73 5553.72C1395.64 5552.66 1395.33 5551.84 1394.78 5551.26C1394.23 5550.66 1393.51 5550.36 1392.62 5550.36C1391.75 5550.36 1391.03 5550.66 1390.45 5551.26C1389.88 5551.86 1389.53 5552.68 1389.42 5553.72H1395.73Z" fill="white"/>
<path d="M1411.91 5545L1417.76 5560.21H1415.55L1413.89 5555.55H1407.61L1405.9 5560.21H1403.8L1409.69 5545H1411.91ZM1413.3 5553.95L1410.76 5546.92L1408.17 5553.95H1413.3Z" fill="white"/>
<path d="M1424.59 5548.93V5550.81C1424.47 5550.8 1424.31 5550.79 1424.13 5550.79C1423.56 5550.79 1423.06 5550.88 1422.64 5551.07C1422.22 5551.24 1421.88 5551.47 1421.63 5551.75C1421.39 5552.04 1421.2 5552.39 1421.04 5552.82C1420.89 5553.25 1420.78 5553.67 1420.73 5554.1C1420.69 5554.53 1420.66 5555.01 1420.66 5555.55V5560.21H1418.88V5549.19H1420.58V5551.56C1421.29 5549.81 1422.63 5548.93 1424.59 5548.93Z" fill="white"/>
<path d="M1430.58 5549.19V5550.68H1428.42V5557.11C1428.42 5557.47 1428.42 5557.71 1428.42 5557.82C1428.43 5557.93 1428.47 5558.09 1428.54 5558.29C1428.61 5558.47 1428.73 5558.6 1428.9 5558.65C1429.07 5558.71 1429.31 5558.74 1429.62 5558.74C1429.88 5558.74 1430.2 5558.72 1430.58 5558.67V5560.23C1430.08 5560.29 1429.62 5560.32 1429.22 5560.32C1428.71 5560.32 1428.29 5560.26 1427.96 5560.15C1427.62 5560.03 1427.36 5559.91 1427.18 5559.76C1427.01 5559.62 1426.88 5559.37 1426.8 5559.02C1426.72 5558.65 1426.67 5558.34 1426.65 5558.1C1426.64 5557.84 1426.63 5557.42 1426.63 5556.84C1426.63 5556.79 1426.63 5556.77 1426.63 5556.75C1426.63 5556.72 1426.63 5556.69 1426.63 5556.64C1426.63 5556.6 1426.63 5556.57 1426.63 5556.54V5550.68H1424.8V5549.19H1426.63V5545.92H1428.42V5549.19H1430.58Z" fill="white"/>
<path d="M1448.02 5558.76V5560.17C1447.65 5560.31 1447.25 5560.38 1446.8 5560.38C1445.78 5560.38 1445.25 5559.84 1445.22 5558.76C1444.2 5559.93 1442.89 5560.51 1441.29 5560.51C1440.23 5560.51 1439.38 5560.23 1438.75 5559.68C1438.13 5559.12 1437.83 5558.36 1437.83 5557.39C1437.83 5555.43 1439.11 5554.28 1441.67 5553.95C1441.84 5553.92 1442.08 5553.9 1442.41 5553.87C1443.62 5553.72 1444.37 5553.56 1444.65 5553.38C1444.98 5553.15 1445.14 5552.76 1445.14 5552.2C1445.14 5550.99 1444.32 5550.38 1442.68 5550.38C1441.84 5550.38 1441.2 5550.56 1440.77 5550.92C1440.33 5551.26 1440.07 5551.83 1439.99 5552.63H1438.25C1438.27 5551.45 1438.69 5550.53 1439.49 5549.87C1440.28 5549.22 1441.38 5548.89 1442.78 5548.89C1444.31 5548.89 1445.45 5549.24 1446.19 5549.96C1446.43 5550.18 1446.6 5550.48 1446.71 5550.85C1446.83 5551.22 1446.89 5551.53 1446.9 5551.77C1446.92 5552 1446.92 5552.35 1446.92 5552.82C1446.92 5553.36 1446.91 5554.18 1446.88 5555.28C1446.85 5556.37 1446.84 5557.19 1446.84 5557.73C1446.84 5558.13 1446.89 5558.42 1446.99 5558.59C1447.1 5558.75 1447.29 5558.82 1447.58 5558.82C1447.69 5558.82 1447.83 5558.8 1448.02 5558.76ZM1445.14 5554.49C1445.01 5554.59 1444.88 5554.67 1444.74 5554.74C1444.6 5554.81 1444.42 5554.87 1444.19 5554.91C1443.98 5554.96 1443.83 5554.99 1443.75 5555.02C1443.68 5555.03 1443.5 5555.06 1443.2 5555.11C1442.91 5555.13 1442.76 5555.15 1442.74 5555.15C1442.31 5555.21 1442.02 5555.25 1441.88 5555.28C1441.75 5555.29 1441.5 5555.35 1441.12 5555.45C1440.76 5555.55 1440.5 5555.66 1440.35 5555.79C1440.19 5555.92 1440.04 5556.11 1439.88 5556.37C1439.74 5556.61 1439.67 5556.9 1439.67 5557.24C1439.67 5557.81 1439.86 5558.26 1440.24 5558.59C1440.63 5558.92 1441.17 5559.08 1441.84 5559.08C1442.69 5559.08 1443.46 5558.82 1444.13 5558.31C1444.8 5557.8 1445.14 5557.19 1445.14 5556.49V5554.49Z" fill="white"/>
<path d="M1451.38 5549.19V5550.9C1452.28 5549.56 1453.51 5548.89 1455.08 5548.89C1456.35 5548.89 1457.27 5549.23 1457.83 5549.91C1458.41 5550.58 1458.69 5551.57 1458.69 5552.88V5560.21H1456.91V5553.72C1456.91 5553.18 1456.89 5552.76 1456.84 5552.46C1456.82 5552.14 1456.73 5551.82 1456.59 5551.47C1456.45 5551.12 1456.21 5550.86 1455.88 5550.7C1455.54 5550.55 1455.11 5550.47 1454.57 5550.47C1452.52 5550.47 1451.49 5551.79 1451.49 5554.44V5560.21H1449.7V5549.19H1451.38Z" fill="white"/>
<path d="M1471.15 5545V5560.21H1469.46V5558.59C1468.78 5559.87 1467.59 5560.51 1465.89 5560.51C1464.35 5560.51 1463.13 5559.99 1462.22 5558.95C1461.32 5557.9 1460.87 5556.47 1460.87 5554.68C1460.87 5553.01 1461.29 5551.63 1462.13 5550.53C1462.99 5549.42 1464.21 5548.87 1465.81 5548.87C1467.36 5548.87 1468.55 5549.47 1469.36 5550.66V5545H1471.15ZM1466.04 5550.43C1465.02 5550.43 1464.2 5550.8 1463.6 5551.56C1463.01 5552.31 1462.72 5553.34 1462.72 5554.64C1462.72 5555.97 1463.02 5557.04 1463.62 5557.84C1464.24 5558.62 1465.06 5559.02 1466.08 5559.02C1467.12 5559.02 1467.93 5558.64 1468.52 5557.88C1469.11 5557.11 1469.4 5556.05 1469.4 5554.7C1469.4 5553.49 1469.12 5552.48 1468.56 5551.67C1468.01 5550.84 1467.17 5550.43 1466.04 5550.43Z" fill="white"/>
<path d="M1479.99 5545H1484.87C1487.4 5545 1489.27 5545.6 1490.48 5546.79C1491.68 5547.99 1492.29 5549.89 1492.29 5552.48C1492.29 5555.03 1491.73 5556.96 1490.6 5558.27C1489.48 5559.56 1487.69 5560.21 1485.23 5560.21H1479.99V5545ZM1481.97 5546.73V5558.48H1484.97C1486.85 5558.48 1488.21 5558.02 1489.05 5557.09C1489.9 5556.15 1490.33 5554.69 1490.33 5552.71C1490.33 5550.63 1489.92 5549.12 1489.09 5548.16C1488.27 5547.21 1486.86 5546.73 1484.89 5546.73H1481.97Z" fill="white"/>
<path d="M1503.74 5556.73C1503.19 5559.29 1501.62 5560.58 1499.01 5560.58C1497.41 5560.58 1496.16 5560.07 1495.25 5559.06C1494.35 5558.05 1493.91 5556.64 1493.91 5554.85C1493.91 5553.07 1494.37 5551.63 1495.29 5550.53C1496.23 5549.42 1497.45 5548.87 1498.95 5548.87C1500.62 5548.87 1501.85 5549.44 1502.65 5550.6C1503.46 5551.74 1503.87 5553.18 1503.87 5554.94V5555.19H1495.71L1495.69 5555.32C1495.69 5556.49 1495.99 5557.41 1496.59 5558.08C1497.2 5558.75 1498.02 5559.08 1499.07 5559.08C1499.86 5559.08 1500.48 5558.89 1500.92 5558.52C1501.39 5558.15 1501.74 5557.56 1502 5556.73H1503.74ZM1502.02 5553.72C1501.93 5552.66 1501.62 5551.84 1501.07 5551.26C1500.52 5550.66 1499.8 5550.36 1498.91 5550.36C1498.04 5550.36 1497.32 5550.66 1496.74 5551.26C1496.17 5551.86 1495.82 5552.68 1495.71 5553.72H1502.02Z" fill="white"/>
<path d="M1513.81 5552.39H1512.02C1511.91 5551.05 1511.03 5550.38 1509.37 5550.38C1508.69 5550.38 1508.15 5550.52 1507.75 5550.79C1507.36 5551.06 1507.17 5551.42 1507.17 5551.88C1507.17 5552.01 1507.18 5552.14 1507.21 5552.26C1507.24 5552.38 1507.29 5552.49 1507.36 5552.58C1507.44 5552.67 1507.51 5552.75 1507.57 5552.82C1507.64 5552.89 1507.74 5552.96 1507.88 5553.03C1508.03 5553.09 1508.15 5553.14 1508.22 5553.18C1508.3 5553.23 1508.44 5553.28 1508.64 5553.33C1508.85 5553.38 1508.99 5553.41 1509.08 5553.44C1509.16 5553.45 1509.32 5553.49 1509.56 5553.55C1509.81 5553.6 1509.97 5553.64 1510.04 5553.65C1510.56 5553.77 1510.95 5553.86 1511.2 5553.93C1511.47 5554 1511.82 5554.14 1512.27 5554.34C1512.73 5554.52 1513.08 5554.72 1513.32 5554.94C1513.56 5555.13 1513.77 5555.42 1513.95 5555.79C1514.15 5556.15 1514.25 5556.55 1514.25 5557.01C1514.25 5558.08 1513.83 5558.94 1513.01 5559.59C1512.2 5560.23 1511.11 5560.55 1509.75 5560.55C1508.28 5560.55 1507.15 5560.23 1506.35 5559.57C1505.56 5558.92 1505.14 5557.97 1505.09 5556.73H1506.85C1506.95 5558.28 1507.93 5559.06 1509.79 5559.06C1510.59 5559.06 1511.23 5558.89 1511.7 5558.57C1512.2 5558.23 1512.44 5557.78 1512.44 5557.22C1512.44 5556.85 1512.31 5556.54 1512.06 5556.3C1511.81 5556.06 1511.53 5555.89 1511.22 5555.79C1510.91 5555.68 1510.47 5555.55 1509.9 5555.41C1509.81 5555.39 1509.75 5555.38 1509.71 5555.36C1509.58 5555.33 1509.31 5555.28 1508.89 5555.19C1508.48 5555.09 1508.19 5555.01 1508.01 5554.96C1507.82 5554.9 1507.56 5554.81 1507.21 5554.7C1506.87 5554.57 1506.62 5554.44 1506.45 5554.32C1506.28 5554.17 1506.09 5554 1505.88 5553.8C1505.69 5553.59 1505.55 5553.35 1505.46 5553.08C1505.38 5552.79 1505.34 5552.47 1505.34 5552.11C1505.34 5551.12 1505.71 5550.33 1506.45 5549.74C1507.21 5549.16 1508.22 5548.87 1509.48 5548.87C1510.75 5548.87 1511.79 5549.17 1512.59 5549.79C1513.4 5550.4 1513.81 5551.27 1513.81 5552.39Z" fill="white"/>
<path d="M1518.16 5545V5547.22H1516.35V5545H1518.16ZM1518.16 5549.19V5560.21H1516.35V5549.19H1518.16Z" fill="white"/>
<path d="M1530.31 5549.19V5559.02C1530.31 5559.97 1530.27 5560.7 1530.17 5561.22C1530.07 5561.74 1529.89 5562.24 1529.62 5562.69C1528.82 5564.03 1527.39 5564.7 1525.33 5564.7C1524.12 5564.7 1523.09 5564.44 1522.25 5563.93C1521.41 5563.43 1520.92 5562.61 1520.78 5561.45H1522.6C1522.81 5562.68 1523.74 5563.29 1525.4 5563.29C1526.5 5563.29 1527.3 5563 1527.79 5562.43C1528.3 5561.86 1528.56 5560.95 1528.59 5559.68L1528.61 5558.33C1527.93 5559.67 1526.78 5560.34 1525.17 5560.34C1523.71 5560.34 1522.55 5559.83 1521.68 5558.82C1520.82 5557.81 1520.4 5556.45 1520.4 5554.74C1520.4 5553.13 1520.82 5551.76 1521.68 5550.62C1522.53 5549.47 1523.72 5548.89 1525.25 5548.89C1526.01 5548.89 1526.68 5549.05 1527.27 5549.38C1527.87 5549.71 1528.34 5550.18 1528.68 5550.79V5549.19H1530.31ZM1525.33 5550.47C1524.37 5550.47 1523.6 5550.85 1523.04 5551.62C1522.5 5552.38 1522.22 5553.43 1522.22 5554.76C1522.22 5555.97 1522.51 5556.95 1523.09 5557.69C1523.66 5558.42 1524.42 5558.78 1525.38 5558.78C1526.37 5558.78 1527.15 5558.4 1527.71 5557.63C1528.28 5556.86 1528.57 5555.8 1528.57 5554.47C1528.57 5553.21 1528.28 5552.24 1527.71 5551.54C1527.15 5550.83 1526.36 5550.47 1525.33 5550.47Z" fill="white"/>
<path d="M1534.67 5549.19V5550.9C1535.57 5549.56 1536.8 5548.89 1538.37 5548.89C1539.64 5548.89 1540.56 5549.23 1541.12 5549.91C1541.69 5550.58 1541.98 5551.57 1541.98 5552.88V5560.21H1540.19V5553.72C1540.19 5553.18 1540.17 5552.76 1540.13 5552.46C1540.1 5552.14 1540.02 5551.82 1539.88 5551.47C1539.74 5551.12 1539.5 5550.86 1539.17 5550.7C1538.83 5550.55 1538.39 5550.47 1537.86 5550.47C1535.8 5550.47 1534.77 5551.79 1534.77 5554.44V5560.21H1532.99V5549.19H1534.67Z" fill="white"/>
<path d="M1558.56 5552.39H1556.77C1556.66 5551.05 1555.78 5550.38 1554.13 5550.38C1553.44 5550.38 1552.9 5550.52 1552.51 5550.79C1552.12 5551.06 1551.92 5551.42 1551.92 5551.88C1551.92 5552.01 1551.93 5552.14 1551.96 5552.26C1551.99 5552.38 1552.04 5552.49 1552.11 5552.58C1552.19 5552.67 1552.26 5552.75 1552.32 5552.82C1552.39 5552.89 1552.49 5552.96 1552.63 5553.03C1552.79 5553.09 1552.9 5553.14 1552.97 5553.18C1553.05 5553.23 1553.19 5553.28 1553.39 5553.33C1553.6 5553.38 1553.75 5553.41 1553.83 5553.44C1553.92 5553.45 1554.08 5553.49 1554.31 5553.55C1554.57 5553.6 1554.73 5553.64 1554.8 5553.65C1555.32 5553.77 1555.7 5553.86 1555.95 5553.93C1556.22 5554 1556.58 5554.14 1557.02 5554.34C1557.49 5554.52 1557.84 5554.72 1558.08 5554.94C1558.31 5555.13 1558.52 5555.42 1558.71 5555.79C1558.9 5556.15 1559 5556.55 1559 5557.01C1559 5558.08 1558.59 5558.94 1557.76 5559.59C1556.95 5560.23 1555.86 5560.55 1554.5 5560.55C1553.03 5560.55 1551.9 5560.23 1551.1 5559.57C1550.32 5558.92 1549.89 5557.97 1549.84 5556.73H1551.6C1551.7 5558.28 1552.68 5559.06 1554.55 5559.06C1555.34 5559.06 1555.98 5558.89 1556.46 5558.57C1556.95 5558.23 1557.19 5557.78 1557.19 5557.22C1557.19 5556.85 1557.07 5556.54 1556.81 5556.3C1556.56 5556.06 1556.28 5555.89 1555.97 5555.79C1555.67 5555.68 1555.22 5555.55 1554.65 5555.41C1554.57 5555.39 1554.5 5555.38 1554.46 5555.36C1554.34 5555.33 1554.06 5555.28 1553.64 5555.19C1553.24 5555.09 1552.94 5555.01 1552.76 5554.96C1552.58 5554.9 1552.31 5554.81 1551.96 5554.7C1551.62 5554.57 1551.37 5554.44 1551.2 5554.32C1551.04 5554.17 1550.85 5554 1550.64 5553.8C1550.44 5553.59 1550.3 5553.35 1550.22 5553.08C1550.13 5552.79 1550.09 5552.47 1550.09 5552.11C1550.09 5551.12 1550.46 5550.33 1551.2 5549.74C1551.96 5549.16 1552.97 5548.87 1554.23 5548.87C1555.5 5548.87 1556.54 5549.17 1557.34 5549.79C1558.15 5550.4 1558.56 5551.27 1558.56 5552.39Z" fill="white"/>
<path d="M1570.35 5556.2C1570.19 5557.52 1569.69 5558.57 1568.85 5559.36C1568.03 5560.14 1566.95 5560.53 1565.62 5560.53C1563.98 5560.53 1562.71 5560.02 1561.82 5558.99C1560.92 5557.95 1560.47 5556.57 1560.47 5554.85C1560.47 5553.01 1560.94 5551.56 1561.88 5550.49C1562.82 5549.41 1564.08 5548.87 1565.68 5548.87C1567.01 5548.87 1568.08 5549.21 1568.88 5549.89C1569.67 5550.56 1570.14 5551.52 1570.28 5552.78H1568.43C1568.11 5551.18 1567.2 5550.38 1565.7 5550.38C1564.67 5550.38 1563.85 5550.78 1563.24 5551.56C1562.64 5552.33 1562.34 5553.38 1562.34 5554.7C1562.34 5556.04 1562.63 5557.09 1563.2 5557.86C1563.78 5558.63 1564.57 5559.02 1565.58 5559.02C1566.39 5559.02 1567.05 5558.77 1567.55 5558.29C1568.07 5557.81 1568.4 5557.11 1568.54 5556.2H1570.35Z" fill="white"/>
<path d="M1574.09 5545V5550.75C1574.89 5549.52 1576.07 5548.91 1577.64 5548.91C1580.08 5548.91 1581.3 5550.16 1581.3 5552.67V5560.21H1579.51V5553.1C1579.51 5552.26 1579.33 5551.62 1578.98 5551.17C1578.65 5550.72 1578.03 5550.49 1577.14 5550.49C1576.04 5550.49 1575.26 5550.85 1574.78 5551.56C1574.32 5552.27 1574.09 5553.29 1574.09 5554.61V5560.21H1572.3V5545H1574.09Z" fill="white"/>
<path d="M1584.84 5550.45C1585.79 5549.39 1587.09 5548.87 1588.73 5548.87C1590.37 5548.87 1591.64 5549.37 1592.55 5550.38C1593.46 5551.4 1593.92 5552.81 1593.92 5554.64C1593.92 5556.5 1593.46 5557.95 1592.55 5558.99C1591.64 5560.03 1590.36 5560.55 1588.71 5560.55C1587.05 5560.55 1585.76 5560.04 1584.82 5559.02C1583.88 5557.99 1583.41 5556.57 1583.41 5554.74C1583.41 5552.93 1583.89 5551.5 1584.84 5550.45ZM1591.16 5551.56C1590.56 5550.78 1589.74 5550.38 1588.68 5550.38C1587.63 5550.38 1586.8 5550.78 1586.18 5551.56C1585.57 5552.34 1585.26 5553.39 1585.26 5554.7C1585.26 5556.05 1585.56 5557.11 1586.16 5557.88C1586.78 5558.64 1587.63 5559.02 1588.73 5559.02C1589.78 5559.02 1590.6 5558.63 1591.19 5557.86C1591.79 5557.09 1592.09 5556.03 1592.09 5554.68C1592.09 5553.37 1591.78 5552.33 1591.16 5551.56Z" fill="white"/>
<path d="M1596.91 5550.45C1597.86 5549.39 1599.15 5548.87 1600.79 5548.87C1602.43 5548.87 1603.71 5549.37 1604.62 5550.38C1605.53 5551.4 1605.98 5552.81 1605.98 5554.64C1605.98 5556.5 1605.53 5557.95 1604.62 5558.99C1603.71 5560.03 1602.42 5560.55 1600.77 5560.55C1599.12 5560.55 1597.82 5560.04 1596.88 5559.02C1595.95 5557.99 1595.48 5556.57 1595.48 5554.74C1595.48 5552.93 1595.95 5551.5 1596.91 5550.45ZM1603.23 5551.56C1602.63 5550.78 1601.8 5550.38 1600.75 5550.38C1599.7 5550.38 1598.87 5550.78 1598.25 5551.56C1597.63 5552.34 1597.33 5553.39 1597.33 5554.7C1597.33 5556.05 1597.63 5557.11 1598.23 5557.88C1598.85 5558.64 1599.7 5559.02 1600.79 5559.02C1601.84 5559.02 1602.66 5558.63 1603.25 5557.86C1603.85 5557.09 1604.15 5556.03 1604.15 5554.68C1604.15 5553.37 1603.85 5552.33 1603.23 5551.56Z" fill="white"/>
<path d="M1610 5545V5560.21H1608.19V5545H1610Z" fill="white"/>
<path d="M1369.11 5572.3L1374.95 5587.51H1372.75L1371.09 5582.86H1364.8L1363.1 5587.51H1361L1366.88 5572.3H1369.11ZM1370.5 5581.25L1367.95 5574.22L1365.37 5581.25H1370.5Z" fill="white"/>
<path d="M1378.03 5572.3V5587.51H1376.22V5572.3H1378.03Z" fill="white"/>
<path d="M1389.79 5576.49V5587.51H1388.13V5585.78C1387.2 5587.14 1385.96 5587.81 1384.39 5587.81C1383.24 5587.81 1382.35 5587.49 1381.72 5586.85C1381.09 5586.21 1380.77 5585.28 1380.77 5584.07V5576.49H1382.56V5583.58C1382.56 5584.45 1382.72 5585.11 1383.04 5585.57C1383.38 5586.01 1383.98 5586.23 1384.83 5586.23C1386.95 5586.23 1388 5584.91 1388 5582.26V5576.49H1389.79Z" fill="white"/>
<path d="M1393.33 5577.75C1394.29 5576.69 1395.58 5576.17 1397.22 5576.17C1398.86 5576.17 1400.13 5576.67 1401.04 5577.68C1401.95 5578.7 1402.41 5580.11 1402.41 5581.94C1402.41 5583.8 1401.95 5585.26 1401.04 5586.3C1400.13 5587.34 1398.85 5587.86 1397.2 5587.86C1395.55 5587.86 1394.25 5587.34 1393.31 5586.32C1392.37 5585.29 1391.9 5583.87 1391.9 5582.04C1391.9 5580.23 1392.38 5578.8 1393.33 5577.75ZM1399.66 5578.86C1399.05 5578.08 1398.23 5577.68 1397.18 5577.68C1396.13 5577.68 1395.29 5578.08 1394.68 5578.86C1394.06 5579.64 1393.75 5580.69 1393.75 5582C1393.75 5583.35 1394.05 5584.42 1394.66 5585.18C1395.27 5585.94 1396.13 5586.32 1397.22 5586.32C1398.27 5586.32 1399.09 5585.93 1399.68 5585.16C1400.28 5584.39 1400.58 5583.33 1400.58 5581.98C1400.58 5580.67 1400.27 5579.63 1399.66 5578.86Z" fill="white"/>
<path d="M1406.22 5576.49V5578.2C1407.11 5576.86 1408.35 5576.19 1409.92 5576.19C1411.19 5576.19 1412.11 5576.53 1412.67 5577.21C1413.24 5577.88 1413.53 5578.87 1413.53 5580.18V5587.51H1411.74V5581.02C1411.74 5580.48 1411.72 5580.06 1411.68 5579.76C1411.65 5579.44 1411.57 5579.12 1411.43 5578.77C1411.29 5578.42 1411.05 5578.16 1410.71 5578.01C1410.38 5577.85 1409.94 5577.77 1409.41 5577.77C1407.35 5577.77 1406.32 5579.1 1406.32 5581.74V5587.51H1404.54V5576.49H1406.22Z" fill="white"/>
<path d="M1425.81 5586.06V5587.47C1425.45 5587.61 1425.04 5587.68 1424.6 5587.68C1423.57 5587.68 1423.05 5587.14 1423.02 5586.06C1422 5587.23 1420.69 5587.81 1419.09 5587.81C1418.03 5587.81 1417.18 5587.53 1416.55 5586.98C1415.93 5586.42 1415.62 5585.66 1415.62 5584.69C1415.62 5582.73 1416.91 5581.58 1419.47 5581.25C1419.64 5581.22 1419.88 5581.2 1420.2 5581.17C1421.42 5581.03 1422.17 5580.86 1422.45 5580.68C1422.77 5580.45 1422.94 5580.06 1422.94 5579.5C1422.94 5578.29 1422.12 5577.68 1420.48 5577.68C1419.64 5577.68 1419 5577.86 1418.57 5578.22C1418.13 5578.56 1417.87 5579.13 1417.79 5579.93H1416.04C1416.07 5578.75 1416.49 5577.83 1417.28 5577.17C1418.08 5576.52 1419.18 5576.19 1420.58 5576.19C1422.11 5576.19 1423.24 5576.55 1423.99 5577.26C1424.22 5577.49 1424.4 5577.78 1424.51 5578.15C1424.62 5578.53 1424.69 5578.83 1424.7 5579.07C1424.71 5579.3 1424.72 5579.65 1424.72 5580.12C1424.72 5580.66 1424.71 5581.48 1424.68 5582.58C1424.65 5583.67 1424.64 5584.49 1424.64 5585.03C1424.64 5585.43 1424.69 5585.72 1424.78 5585.89C1424.9 5586.05 1425.09 5586.12 1425.37 5586.12C1425.49 5586.12 1425.63 5586.1 1425.81 5586.06ZM1422.94 5581.79C1422.81 5581.89 1422.68 5581.97 1422.54 5582.04C1422.4 5582.11 1422.21 5582.17 1421.99 5582.21C1421.78 5582.26 1421.63 5582.29 1421.55 5582.32C1421.48 5582.34 1421.3 5582.36 1421 5582.41C1420.71 5582.44 1420.55 5582.45 1420.54 5582.45C1420.11 5582.51 1419.82 5582.55 1419.68 5582.58C1419.55 5582.59 1419.3 5582.65 1418.92 5582.75C1418.56 5582.85 1418.3 5582.96 1418.15 5583.09C1417.99 5583.22 1417.84 5583.41 1417.68 5583.67C1417.54 5583.91 1417.47 5584.2 1417.47 5584.54C1417.47 5585.11 1417.66 5585.56 1418.04 5585.89C1418.43 5586.22 1418.96 5586.38 1419.64 5586.38C1420.49 5586.38 1421.25 5586.12 1421.93 5585.61C1422.6 5585.1 1422.94 5584.49 1422.94 5583.8V5581.79Z" fill="white"/>
<path d="M1444.25 5576.77H1442.34C1442.13 5574.7 1440.89 5573.67 1438.62 5573.67C1437.54 5573.67 1436.71 5573.89 1436.12 5574.33C1435.53 5574.77 1435.24 5575.39 1435.24 5576.19C1435.24 5576.47 1435.28 5576.72 1435.36 5576.94C1435.45 5577.15 1435.59 5577.34 1435.78 5577.51C1435.99 5577.67 1436.19 5577.81 1436.37 5577.92C1436.55 5578.03 1436.84 5578.15 1437.23 5578.26C1437.63 5578.38 1437.94 5578.46 1438.18 5578.52C1438.42 5578.56 1438.79 5578.64 1439.29 5578.75C1439.91 5578.88 1440.42 5579 1440.83 5579.12C1441.23 5579.22 1441.72 5579.39 1442.28 5579.63C1442.84 5579.87 1443.28 5580.14 1443.6 5580.44C1443.94 5580.73 1444.22 5581.11 1444.46 5581.59C1444.71 5582.08 1444.84 5582.63 1444.84 5583.24C1444.84 5584.31 1444.54 5585.21 1443.96 5585.93C1443.37 5586.64 1442.65 5587.14 1441.81 5587.43C1440.97 5587.71 1440.04 5587.86 1439.02 5587.86C1437.14 5587.86 1435.64 5587.41 1434.5 5586.51C1433.38 5585.6 1432.82 5584.26 1432.82 5582.49H1434.73C1434.77 5583.79 1435.2 5584.74 1436.01 5585.33C1436.83 5585.92 1437.88 5586.21 1439.19 5586.21C1440.21 5586.21 1441.08 5586 1441.81 5585.57C1442.54 5585.13 1442.91 5584.42 1442.91 5583.43C1442.91 5582.98 1442.81 5582.59 1442.61 5582.28C1442.42 5581.95 1442.11 5581.69 1441.69 5581.49C1441.27 5581.27 1440.85 5581.1 1440.43 5580.98C1440.01 5580.85 1439.45 5580.7 1438.77 5580.55C1438.67 5580.53 1438.6 5580.52 1438.56 5580.51C1437.02 5580.15 1436.01 5579.86 1435.53 5579.65C1434.07 5579.01 1433.35 5577.91 1433.35 5576.34C1433.35 5574.89 1433.87 5573.8 1434.92 5573.09C1435.99 5572.36 1437.27 5572 1438.77 5572C1440.41 5572 1441.72 5572.4 1442.7 5573.2C1443.68 5574 1444.19 5575.19 1444.25 5576.77Z" fill="white"/>
<path d="M1456.24 5584.03C1455.69 5586.59 1454.11 5587.88 1451.51 5587.88C1449.91 5587.88 1448.66 5587.37 1447.75 5586.36C1446.85 5585.35 1446.4 5583.95 1446.4 5582.15C1446.4 5580.37 1446.87 5578.93 1447.79 5577.83C1448.73 5576.72 1449.95 5576.17 1451.45 5576.17C1453.11 5576.17 1454.35 5576.74 1455.14 5577.9C1455.96 5579.04 1456.36 5580.48 1456.36 5582.24V5582.49H1448.21L1448.19 5582.62C1448.19 5583.79 1448.49 5584.71 1449.09 5585.38C1449.7 5586.05 1450.52 5586.38 1451.57 5586.38C1452.36 5586.38 1452.97 5586.2 1453.42 5585.83C1453.88 5585.45 1454.24 5584.86 1454.49 5584.03H1456.24ZM1454.51 5581.02C1454.43 5579.96 1454.11 5579.14 1453.57 5578.56C1453.02 5577.96 1452.3 5577.66 1451.4 5577.66C1450.54 5577.66 1449.81 5577.96 1449.24 5578.56C1448.67 5579.16 1448.32 5579.98 1448.21 5581.02H1454.51Z" fill="white"/>
<path d="M1467.65 5576.49V5586.32C1467.65 5587.27 1467.6 5588 1467.5 5588.52C1467.4 5589.04 1467.22 5589.54 1466.96 5589.99C1466.16 5591.33 1464.73 5592 1462.67 5592C1461.45 5592 1460.42 5591.74 1459.58 5591.23C1458.74 5590.73 1458.25 5589.91 1458.11 5588.75H1459.94C1460.15 5589.98 1461.08 5590.59 1462.73 5590.59C1463.84 5590.59 1464.64 5590.3 1465.13 5589.74C1465.63 5589.17 1465.9 5588.25 1465.93 5586.98L1465.95 5585.63C1465.26 5586.97 1464.11 5587.64 1462.5 5587.64C1461.04 5587.64 1459.88 5587.14 1459.01 5586.12C1458.16 5585.11 1457.73 5583.75 1457.73 5582.04C1457.73 5580.43 1458.16 5579.06 1459.01 5577.92C1459.87 5576.77 1461.06 5576.19 1462.58 5576.19C1463.34 5576.19 1464.01 5576.35 1464.6 5576.68C1465.2 5577.01 1465.67 5577.48 1466.01 5578.09V5576.49H1467.65ZM1462.67 5577.77C1461.7 5577.77 1460.94 5578.15 1460.38 5578.92C1459.83 5579.68 1459.56 5580.73 1459.56 5582.06C1459.56 5583.28 1459.85 5584.25 1460.42 5584.99C1460.99 5585.72 1461.76 5586.08 1462.71 5586.08C1463.71 5586.08 1464.48 5585.7 1465.04 5584.93C1465.62 5584.16 1465.9 5583.1 1465.9 5581.77C1465.9 5580.51 1465.62 5579.54 1465.04 5578.84C1464.48 5578.13 1463.69 5577.77 1462.67 5577.77Z" fill="white"/>
<path d="M1472.21 5572.3V5574.52H1470.41V5572.3H1472.21ZM1472.21 5576.49V5587.51H1470.41V5576.49H1472.21Z" fill="white"/>
<path d="M1476.66 5576.49V5578.09C1477.14 5577.44 1477.65 5576.96 1478.19 5576.66C1478.74 5576.36 1479.41 5576.21 1480.19 5576.21C1481.68 5576.21 1482.68 5576.84 1483.2 5578.11C1484.13 5576.83 1485.33 5576.19 1486.79 5576.19C1487.91 5576.19 1488.76 5576.51 1489.33 5577.15C1489.92 5577.78 1490.21 5578.66 1490.21 5579.8V5587.51H1488.43V5580.57C1488.43 5579.66 1488.29 5578.97 1488.01 5578.52C1487.73 5578.05 1487.15 5577.81 1486.26 5577.81C1484.41 5577.81 1483.49 5578.96 1483.49 5581.25V5587.51H1481.7V5580.44C1481.7 5579.6 1481.56 5578.96 1481.28 5578.52C1481.02 5578.06 1480.49 5577.83 1479.71 5577.83C1478.6 5577.83 1477.83 5578.18 1477.4 5578.88C1476.98 5579.57 1476.77 5580.5 1476.77 5581.68V5587.51H1474.98V5576.49H1476.66Z" fill="white"/>
<path d="M1493.75 5577.75C1494.71 5576.69 1496 5576.17 1497.64 5576.17C1499.28 5576.17 1500.56 5576.67 1501.47 5577.68C1502.38 5578.7 1502.83 5580.11 1502.83 5581.94C1502.83 5583.8 1502.38 5585.26 1501.47 5586.3C1500.56 5587.34 1499.27 5587.86 1497.62 5587.86C1495.97 5587.86 1494.67 5587.34 1493.73 5586.32C1492.79 5585.29 1492.33 5583.87 1492.33 5582.04C1492.33 5580.23 1492.8 5578.8 1493.75 5577.75ZM1500.08 5578.86C1499.48 5578.08 1498.65 5577.68 1497.6 5577.68C1496.55 5577.68 1495.72 5578.08 1495.1 5578.86C1494.48 5579.64 1494.17 5580.69 1494.17 5582C1494.17 5583.35 1494.48 5584.42 1495.08 5585.18C1495.69 5585.94 1496.55 5586.32 1497.64 5586.32C1498.69 5586.32 1499.51 5585.93 1500.1 5585.16C1500.7 5584.39 1501 5583.33 1501 5581.98C1501 5580.67 1500.7 5579.63 1500.08 5578.86Z" fill="white"/>
<path d="M1503.91 5576.49H1505.9L1508.97 5585.74L1511.96 5576.49H1513.83L1509.85 5587.51H1507.94L1503.91 5576.49Z" fill="white"/>
<path d="M1525.07 5586.06V5587.47C1524.7 5587.61 1524.3 5587.68 1523.85 5587.68C1522.83 5587.68 1522.3 5587.14 1522.27 5586.06C1521.25 5587.23 1519.94 5587.81 1518.34 5587.81C1517.28 5587.81 1516.43 5587.53 1515.8 5586.98C1515.18 5586.42 1514.88 5585.66 1514.88 5584.69C1514.88 5582.73 1516.16 5581.58 1518.72 5581.25C1518.89 5581.22 1519.13 5581.2 1519.46 5581.17C1520.68 5581.03 1521.42 5580.86 1521.7 5580.68C1522.03 5580.45 1522.19 5580.06 1522.19 5579.5C1522.19 5578.29 1521.37 5577.68 1519.73 5577.68C1518.89 5577.68 1518.25 5577.86 1517.82 5578.22C1517.38 5578.56 1517.12 5579.13 1517.04 5579.93H1515.3C1515.32 5578.75 1515.74 5577.83 1516.54 5577.17C1517.33 5576.52 1518.43 5576.19 1519.83 5576.19C1521.36 5576.19 1522.5 5576.55 1523.24 5577.26C1523.48 5577.49 1523.65 5577.78 1523.76 5578.15C1523.88 5578.53 1523.94 5578.83 1523.95 5579.07C1523.97 5579.3 1523.97 5579.65 1523.97 5580.12C1523.97 5580.66 1523.96 5581.48 1523.93 5582.58C1523.9 5583.67 1523.89 5584.49 1523.89 5585.03C1523.89 5585.43 1523.94 5585.72 1524.04 5585.89C1524.15 5586.05 1524.35 5586.12 1524.63 5586.12C1524.74 5586.12 1524.88 5586.1 1525.07 5586.06ZM1522.19 5581.79C1522.06 5581.89 1521.93 5581.97 1521.79 5582.04C1521.65 5582.11 1521.47 5582.17 1521.24 5582.21C1521.03 5582.26 1520.89 5582.29 1520.8 5582.32C1520.73 5582.34 1520.55 5582.36 1520.25 5582.41C1519.96 5582.44 1519.81 5582.45 1519.79 5582.45C1519.36 5582.51 1519.07 5582.55 1518.93 5582.58C1518.8 5582.59 1518.55 5582.65 1518.17 5582.75C1517.81 5582.85 1517.55 5582.96 1517.4 5583.09C1517.24 5583.22 1517.09 5583.41 1516.93 5583.67C1516.79 5583.91 1516.72 5584.2 1516.72 5584.54C1516.72 5585.11 1516.91 5585.56 1517.29 5585.89C1517.68 5586.22 1518.22 5586.38 1518.89 5586.38C1519.74 5586.38 1520.51 5586.12 1521.18 5585.61C1521.85 5585.1 1522.19 5584.49 1522.19 5583.8V5581.79Z" fill="white"/>
<path d="M1541.49 5585.87V5587.51H1531.78C1531.82 5586.67 1531.95 5585.94 1532.16 5585.31C1532.37 5584.69 1532.69 5584.12 1533.12 5583.62C1533.57 5583.11 1534.01 5582.69 1534.43 5582.36C1534.85 5582.04 1535.44 5581.63 1536.21 5581.15C1537.42 5580.38 1538.21 5579.8 1538.59 5579.42C1539.37 5578.63 1539.76 5577.76 1539.76 5576.81C1539.76 5575.97 1539.5 5575.28 1538.96 5574.76C1538.43 5574.22 1537.74 5573.95 1536.88 5573.95C1535.86 5573.95 1535.13 5574.31 1534.68 5575.04C1534.24 5575.75 1534.01 5576.65 1533.98 5577.75H1532.18V5577.34C1532.18 5575.85 1532.61 5574.64 1533.48 5573.73C1534.36 5572.82 1535.53 5572.36 1536.97 5572.36C1538.38 5572.36 1539.51 5572.76 1540.35 5573.56C1541.19 5574.36 1541.61 5575.43 1541.61 5576.77C1541.61 5577.34 1541.51 5577.88 1541.32 5578.39C1541.14 5578.89 1540.93 5579.31 1540.69 5579.65C1540.46 5579.99 1540.11 5580.36 1539.64 5580.74C1539.17 5581.12 1538.79 5581.42 1538.48 5581.64C1538.17 5581.84 1537.73 5582.11 1537.16 5582.47C1536.01 5583.17 1535.25 5583.71 1534.87 5584.09C1534.33 5584.64 1533.99 5585.23 1533.84 5585.87H1541.49Z" fill="white"/>
<path d="M1548.75 5572.36C1549.65 5572.36 1550.41 5572.54 1551.04 5572.88C1551.68 5573.21 1552.17 5573.61 1552.51 5574.1C1552.85 5574.58 1553.11 5575.21 1553.31 5576C1553.5 5576.77 1553.62 5577.46 1553.67 5578.09C1553.71 5578.7 1553.73 5579.44 1553.73 5580.31C1553.73 5581.11 1553.69 5581.83 1553.62 5582.47C1553.57 5583.11 1553.43 5583.78 1553.22 5584.48C1553.03 5585.18 1552.76 5585.76 1552.4 5586.23C1552.05 5586.69 1551.58 5587.06 1550.98 5587.36C1550.37 5587.66 1549.66 5587.81 1548.83 5587.81C1547.96 5587.81 1547.21 5587.66 1546.56 5587.36C1545.93 5587.05 1545.44 5586.67 1545.09 5586.21C1544.74 5585.75 1544.46 5585.18 1544.25 5584.48C1544.06 5583.77 1543.93 5583.1 1543.87 5582.47C1543.82 5581.83 1543.79 5581.1 1543.79 5580.27C1543.79 5579.56 1543.8 5578.94 1543.83 5578.41C1543.87 5577.88 1543.94 5577.29 1544.04 5576.64C1544.15 5575.97 1544.32 5575.41 1544.55 5574.95C1544.77 5574.48 1545.06 5574.04 1545.41 5573.63C1545.76 5573.21 1546.21 5572.9 1546.77 5572.69C1547.35 5572.47 1548.01 5572.36 1548.75 5572.36ZM1549.9 5574.25C1549.57 5574.07 1549.18 5573.99 1548.75 5573.99C1548.31 5573.99 1547.93 5574.07 1547.59 5574.25C1547.26 5574.4 1546.98 5574.59 1546.77 5574.8C1546.56 5575.01 1546.38 5575.33 1546.23 5575.76C1546.07 5576.18 1545.96 5576.52 1545.89 5576.81C1545.84 5577.09 1545.79 5577.51 1545.74 5578.05C1545.7 5578.58 1545.68 5578.95 1545.68 5579.18C1545.68 5579.39 1545.68 5579.76 1545.68 5580.27C1545.68 5580.77 1545.69 5581.18 1545.7 5581.51C1545.72 5581.84 1545.75 5582.26 1545.81 5582.79C1545.86 5583.32 1545.96 5583.76 1546.1 5584.12C1546.24 5584.46 1546.42 5584.81 1546.63 5585.16C1546.84 5585.5 1547.12 5585.77 1547.49 5585.95C1547.87 5586.12 1548.3 5586.21 1548.79 5586.21C1549.21 5586.21 1549.58 5586.13 1549.9 5585.97C1550.24 5585.82 1550.51 5585.63 1550.72 5585.42C1550.93 5585.21 1551.11 5584.91 1551.25 5584.52C1551.4 5584.12 1551.52 5583.78 1551.59 5583.5C1551.66 5583.2 1551.7 5582.81 1551.73 5582.32C1551.77 5581.82 1551.8 5581.46 1551.8 5581.23C1551.81 5580.99 1551.82 5580.64 1551.82 5580.18C1551.82 5579.69 1551.82 5579.33 1551.82 5579.12C1551.82 5578.9 1551.8 5578.53 1551.75 5578.01C1551.71 5577.48 1551.66 5577.07 1551.59 5576.79C1551.53 5576.5 1551.42 5576.15 1551.27 5575.74C1551.12 5575.33 1550.93 5575.01 1550.72 5574.8C1550.51 5574.59 1550.24 5574.4 1549.9 5574.25Z" fill="white"/>
<path d="M1564.84 5585.87V5587.51H1555.13C1555.17 5586.67 1555.3 5585.94 1555.51 5585.31C1555.72 5584.69 1556.04 5584.12 1556.47 5583.62C1556.92 5583.11 1557.36 5582.69 1557.78 5582.36C1558.2 5582.04 1558.79 5581.63 1559.56 5581.15C1560.77 5580.38 1561.56 5579.8 1561.94 5579.42C1562.72 5578.63 1563.11 5577.76 1563.11 5576.81C1563.11 5575.97 1562.85 5575.28 1562.32 5574.76C1561.78 5574.22 1561.09 5573.95 1560.24 5573.95C1559.21 5573.95 1558.48 5574.31 1558.03 5575.04C1557.59 5575.75 1557.36 5576.65 1557.34 5577.75H1555.53V5577.34C1555.53 5575.85 1555.96 5574.64 1556.83 5573.73C1557.71 5572.82 1558.88 5572.36 1560.32 5572.36C1561.73 5572.36 1562.86 5572.76 1563.7 5573.56C1564.54 5574.36 1564.96 5575.43 1564.96 5576.77C1564.96 5577.34 1564.86 5577.88 1564.67 5578.39C1564.49 5578.89 1564.28 5579.31 1564.04 5579.65C1563.81 5579.99 1563.46 5580.36 1562.99 5580.74C1562.53 5581.12 1562.14 5581.42 1561.83 5581.64C1561.52 5581.84 1561.08 5582.11 1560.51 5582.47C1559.36 5583.17 1558.6 5583.71 1558.22 5584.09C1557.69 5584.64 1557.34 5585.23 1557.19 5585.87H1564.84Z" fill="white"/>
<path d="M1573.8 5572.39V5587.51H1571.85V5576.55H1568.11V5575.19C1569.31 5575.19 1570.26 5574.99 1570.97 5574.59C1571.68 5574.19 1572.16 5573.45 1572.39 5572.39H1573.8Z" fill="white"/>
<path d="M75.5725 5452.54V5447.8H71V5446.54H75.5725V5441.8H76.9569V5446.54H81.5294V5447.8H76.9569V5452.54H75.5725Z" fill="white"/>
<path d="M93.1204 5437.62V5439.19C89.8763 5442.97 87.9816 5447.42 87.4362 5452.54H85.4646C85.6324 5450.2 86.2336 5447.87 87.2684 5445.57C88.3172 5443.27 89.6596 5441.2 91.2956 5439.36H83.5139V5437.62H93.1204Z" fill="white"/>
<path d="M99.8464 5437C97.9866 5439.93 97.0567 5443.22 97.0567 5446.88C97.0567 5450.37 97.9866 5453.61 99.8464 5456.61H98.483C97.3503 5454.81 96.5183 5453.19 95.987 5451.75C95.4696 5450.29 95.2109 5448.67 95.2109 5446.9C95.2109 5443.29 96.3016 5439.99 98.483 5437H99.8464Z" fill="white"/>
<path d="M100.681 5448.87H102.443C102.541 5449.62 102.827 5450.2 103.303 5450.63C103.792 5451.05 104.414 5451.25 105.17 5451.25C107.113 5451.25 108.218 5449.6 108.484 5446.3C108.512 5446 108.526 5445.67 108.526 5445.29C107.687 5446.68 106.477 5447.37 104.897 5447.37C103.541 5447.37 102.443 5446.92 101.604 5446.02C100.765 5445.11 100.345 5443.92 100.345 5442.44C100.345 5440.93 100.8 5439.7 101.709 5438.76C102.618 5437.81 103.799 5437.34 105.253 5437.34C108.665 5437.34 110.371 5439.81 110.371 5444.76C110.371 5445.52 110.322 5446.25 110.225 5446.95C110.141 5447.63 109.98 5448.35 109.742 5449.09C109.504 5449.82 109.197 5450.45 108.819 5451C108.442 5451.54 107.931 5451.98 107.288 5452.33C106.659 5452.67 105.932 5452.84 105.107 5452.84C103.848 5452.84 102.813 5452.49 102.002 5451.79C101.205 5451.09 100.765 5450.12 100.681 5448.87ZM105.17 5438.97C104.289 5438.97 103.575 5439.29 103.03 5439.92C102.499 5440.53 102.233 5441.35 102.233 5442.38C102.233 5443.35 102.485 5444.16 102.988 5444.8C103.506 5445.43 104.233 5445.75 105.17 5445.75C106.078 5445.75 106.813 5445.44 107.372 5444.84C107.931 5444.23 108.211 5443.42 108.211 5442.42C108.211 5441.38 107.931 5440.54 107.372 5439.92C106.813 5439.29 106.078 5438.97 105.17 5438.97Z" fill="white"/>
<path d="M121.502 5450.89V5452.54H111.812C111.854 5451.7 111.979 5450.96 112.189 5450.33C112.399 5449.7 112.721 5449.14 113.154 5448.64C113.601 5448.12 114.035 5447.7 114.454 5447.37C114.874 5447.05 115.468 5446.64 116.237 5446.15C117.44 5445.38 118.23 5444.8 118.607 5444.42C119.391 5443.63 119.782 5442.76 119.782 5441.8C119.782 5440.96 119.516 5440.27 118.985 5439.74C118.454 5439.2 117.762 5438.93 116.909 5438.93C115.888 5438.93 115.154 5439.29 114.706 5440.02C114.273 5440.74 114.042 5441.64 114.014 5442.74H112.21V5442.34C112.21 5440.84 112.644 5439.63 113.511 5438.71C114.392 5437.8 115.552 5437.34 116.992 5437.34C118.405 5437.34 119.53 5437.74 120.369 5438.54C121.208 5439.34 121.628 5440.42 121.628 5441.76C121.628 5442.33 121.53 5442.87 121.334 5443.39C121.152 5443.89 120.943 5444.31 120.705 5444.65C120.481 5444.99 120.132 5445.36 119.656 5445.75C119.195 5446.13 118.81 5446.43 118.503 5446.65C118.195 5446.85 117.755 5447.12 117.181 5447.48C116.035 5448.18 115.272 5448.72 114.895 5449.11C114.364 5449.65 114.021 5450.25 113.867 5450.89H121.502Z" fill="white"/>
<path d="M133.157 5450.89V5452.54H123.467C123.509 5451.7 123.634 5450.96 123.844 5450.33C124.054 5449.7 124.376 5449.14 124.809 5448.64C125.257 5448.12 125.69 5447.7 126.109 5447.37C126.529 5447.05 127.123 5446.64 127.892 5446.15C129.095 5445.38 129.885 5444.8 130.263 5444.42C131.046 5443.63 131.437 5442.76 131.437 5441.8C131.437 5440.96 131.171 5440.27 130.64 5439.74C130.109 5439.2 129.417 5438.93 128.564 5438.93C127.543 5438.93 126.809 5439.29 126.361 5440.02C125.928 5440.74 125.697 5441.64 125.669 5442.74H123.865V5442.34C123.865 5440.84 124.299 5439.63 125.166 5438.71C126.047 5437.8 127.207 5437.34 128.647 5437.34C130.06 5437.34 131.185 5437.74 132.024 5438.54C132.863 5439.34 133.283 5440.42 133.283 5441.76C133.283 5442.33 133.185 5442.87 132.989 5443.39C132.808 5443.89 132.598 5444.31 132.36 5444.65C132.136 5444.99 131.787 5445.36 131.311 5445.75C130.85 5446.13 130.465 5446.43 130.158 5446.65C129.85 5446.85 129.41 5447.12 128.836 5447.48C127.69 5448.18 126.928 5448.72 126.55 5449.11C126.019 5449.65 125.676 5450.25 125.522 5450.89H133.157Z" fill="white"/>
<path d="M138.981 5446.9C138.981 5448.67 138.715 5450.29 138.184 5451.75C137.667 5453.19 136.842 5454.81 135.709 5456.61H134.346C136.205 5453.61 137.135 5450.37 137.135 5446.88C137.135 5443.22 136.205 5439.93 134.346 5437H135.709C137.89 5439.99 138.981 5443.29 138.981 5446.9Z" fill="white"/>
<path d="M150.24 5450.89V5452.54H140.55C140.592 5451.7 140.718 5450.96 140.927 5450.33C141.137 5449.7 141.459 5449.14 141.892 5448.64C142.34 5448.12 142.773 5447.7 143.193 5447.37C143.612 5447.05 144.206 5446.64 144.976 5446.15C146.178 5445.38 146.968 5444.8 147.346 5444.42C148.129 5443.63 148.52 5442.76 148.52 5441.8C148.52 5440.96 148.255 5440.27 147.723 5439.74C147.192 5439.2 146.5 5438.93 145.647 5438.93C144.626 5438.93 143.892 5439.29 143.444 5440.02C143.011 5440.74 142.78 5441.64 142.752 5442.74H140.948V5442.34C140.948 5440.84 141.382 5439.63 142.249 5438.71C143.13 5437.8 144.29 5437.34 145.731 5437.34C147.143 5437.34 148.269 5437.74 149.108 5438.54C149.947 5439.34 150.366 5440.42 150.366 5441.76C150.366 5442.33 150.268 5442.87 150.072 5443.39C149.891 5443.89 149.681 5444.31 149.443 5444.65C149.219 5444.99 148.87 5445.36 148.394 5445.75C147.933 5446.13 147.548 5446.43 147.241 5446.65C146.933 5446.85 146.493 5447.12 145.919 5447.48C144.773 5448.18 144.011 5448.72 143.633 5449.11C143.102 5449.65 142.759 5450.25 142.605 5450.89H150.24Z" fill="white"/>
<path d="M157.491 5437.34C158.385 5437.34 159.148 5437.51 159.777 5437.86C160.42 5438.19 160.909 5438.59 161.245 5439.08C161.581 5439.56 161.846 5440.2 162.042 5440.99C162.238 5441.76 162.357 5442.46 162.399 5443.09C162.441 5443.7 162.462 5444.44 162.462 5445.32C162.462 5446.12 162.427 5446.84 162.357 5447.48C162.301 5448.12 162.168 5448.8 161.958 5449.5C161.762 5450.2 161.49 5450.78 161.14 5451.25C160.791 5451.71 160.315 5452.09 159.714 5452.39C159.113 5452.69 158.399 5452.84 157.574 5452.84C156.707 5452.84 155.952 5452.69 155.309 5452.39C154.68 5452.08 154.19 5451.69 153.841 5451.23C153.491 5450.77 153.212 5450.2 153.002 5449.5C152.806 5448.78 152.68 5448.11 152.624 5447.48C152.568 5446.84 152.54 5446.1 152.54 5445.27C152.54 5444.56 152.554 5443.94 152.582 5443.41C152.624 5442.88 152.694 5442.29 152.792 5441.63C152.904 5440.96 153.072 5440.39 153.296 5439.94C153.519 5439.46 153.806 5439.02 154.156 5438.61C154.505 5438.19 154.96 5437.88 155.519 5437.66C156.092 5437.45 156.749 5437.34 157.491 5437.34ZM158.644 5439.23C158.309 5439.06 157.924 5438.97 157.491 5438.97C157.057 5438.97 156.673 5439.06 156.337 5439.23C156.001 5439.39 155.729 5439.57 155.519 5439.79C155.309 5440 155.127 5440.32 154.974 5440.75C154.82 5441.17 154.708 5441.52 154.638 5441.8C154.582 5442.09 154.533 5442.5 154.491 5443.04C154.449 5443.57 154.428 5443.95 154.428 5444.18C154.428 5444.39 154.428 5444.76 154.428 5445.27C154.428 5445.77 154.435 5446.19 154.449 5446.52C154.463 5446.85 154.498 5447.27 154.554 5447.8C154.61 5448.33 154.708 5448.77 154.848 5449.13C154.988 5449.47 155.162 5449.82 155.372 5450.18C155.582 5450.52 155.868 5450.79 156.232 5450.97C156.61 5451.15 157.043 5451.23 157.532 5451.23C157.952 5451.23 158.323 5451.15 158.644 5451C158.98 5450.84 159.252 5450.65 159.462 5450.44C159.672 5450.22 159.847 5449.92 159.987 5449.54C160.14 5449.14 160.252 5448.8 160.322 5448.51C160.392 5448.21 160.441 5447.82 160.469 5447.33C160.511 5446.83 160.532 5446.47 160.532 5446.24C160.546 5446 160.553 5445.65 160.553 5445.19C160.553 5444.69 160.553 5444.33 160.553 5444.12C160.553 5443.9 160.532 5443.53 160.49 5443C160.448 5442.47 160.392 5442.07 160.322 5441.78C160.266 5441.49 160.161 5441.14 160.008 5440.73C159.854 5440.32 159.672 5440 159.462 5439.79C159.252 5439.57 158.98 5439.39 158.644 5439.23Z" fill="white"/>
<path d="M173.907 5437.62V5439.19C170.663 5442.97 168.768 5447.42 168.223 5452.54H166.251C166.419 5450.2 167.02 5447.87 168.055 5445.57C169.104 5443.27 170.446 5441.2 172.082 5439.36H164.3V5437.62H173.907Z" fill="white"/>
<path d="M182.122 5445.68V5447.48H176.018V5445.68H182.122Z" fill="white"/>
<path d="M193.714 5437.62V5439.19C190.47 5442.97 188.575 5447.42 188.03 5452.54H186.058C186.226 5450.2 186.828 5447.87 187.862 5445.57C188.911 5443.27 190.253 5441.2 191.89 5439.36H184.108V5437.62H193.714Z" fill="white"/>
<path d="M204.677 5437.62V5439.23H198.657L197.776 5443.75C198.504 5442.95 199.503 5442.55 200.776 5442.55C202.174 5442.55 203.307 5443.02 204.174 5443.94C205.041 5444.86 205.474 5446.05 205.474 5447.52C205.474 5449.07 204.999 5450.34 204.048 5451.34C203.097 5452.34 201.86 5452.84 200.335 5452.84C198.923 5452.84 197.776 5452.44 196.896 5451.64C196.029 5450.84 195.574 5449.77 195.532 5448.45H197.336C197.406 5449.29 197.721 5449.97 198.28 5450.5C198.839 5451.03 199.531 5451.3 200.356 5451.3C201.279 5451.3 202.048 5450.95 202.664 5450.27C203.279 5449.58 203.587 5448.73 203.587 5447.72C203.587 5446.66 203.286 5445.8 202.685 5445.14C202.083 5444.47 201.3 5444.14 200.335 5444.14C199.105 5444.14 198.154 5444.63 197.483 5445.62L195.952 5445.51L197.336 5437.62H204.677Z" fill="white"/>
<path d="M213.585 5445.68V5447.48H207.481V5445.68H213.585Z" fill="white"/>
<path d="M224.485 5437.62V5439.23H218.465L217.584 5443.75C218.311 5442.95 219.311 5442.55 220.583 5442.55C221.982 5442.55 223.114 5443.02 223.981 5443.94C224.848 5444.86 225.282 5446.05 225.282 5447.52C225.282 5449.07 224.806 5450.34 223.855 5451.34C222.905 5452.34 221.667 5452.84 220.143 5452.84C218.731 5452.84 217.584 5452.44 216.703 5451.64C215.836 5450.84 215.382 5449.77 215.34 5448.45H217.143C217.213 5449.29 217.528 5449.97 218.087 5450.5C218.647 5451.03 219.339 5451.3 220.164 5451.3C221.087 5451.3 221.856 5450.95 222.471 5450.27C223.086 5449.58 223.394 5448.73 223.394 5447.72C223.394 5446.66 223.093 5445.8 222.492 5445.14C221.891 5444.47 221.108 5444.14 220.143 5444.14C218.912 5444.14 217.961 5444.63 217.29 5445.62L215.759 5445.51L217.143 5437.62H224.485Z" fill="white"/>
<path d="M236.475 5450.89V5452.54H226.785C226.827 5451.7 226.953 5450.96 227.162 5450.33C227.372 5449.7 227.694 5449.14 228.127 5448.64C228.575 5448.12 229.008 5447.7 229.428 5447.37C229.847 5447.05 230.442 5446.64 231.211 5446.15C232.413 5445.38 233.203 5444.8 233.581 5444.42C234.364 5443.63 234.755 5442.76 234.755 5441.8C234.755 5440.96 234.49 5440.27 233.958 5439.74C233.427 5439.2 232.735 5438.93 231.882 5438.93C230.861 5438.93 230.127 5439.29 229.679 5440.02C229.246 5440.74 229.015 5441.64 228.987 5442.74H227.183V5442.34C227.183 5440.84 227.617 5439.63 228.484 5438.71C229.365 5437.8 230.525 5437.34 231.966 5437.34C233.378 5437.34 234.504 5437.74 235.343 5438.54C236.182 5439.34 236.601 5440.42 236.601 5441.76C236.601 5442.33 236.503 5442.87 236.308 5443.39C236.126 5443.89 235.916 5444.31 235.678 5444.65C235.455 5444.99 235.105 5445.36 234.63 5445.75C234.168 5446.13 233.784 5446.43 233.476 5446.65C233.168 5446.85 232.728 5447.12 232.154 5447.48C231.008 5448.18 230.246 5448.72 229.868 5449.11C229.337 5449.65 228.994 5450.25 228.84 5450.89H236.475Z" fill="white"/>
<path d="M75.5725 5483.93V5479.19H71V5477.93H75.5725V5473.19H76.9569V5477.93H81.5294V5479.19H76.9569V5483.93H75.5725Z" fill="white"/>
<path d="M93.1204 5469.01V5470.57C89.8763 5474.36 87.9816 5478.81 87.4362 5483.93H85.4646C85.6324 5481.58 86.2336 5479.26 87.2684 5476.96C88.3172 5474.66 89.6596 5472.59 91.2956 5470.75H83.5139V5469.01H93.1204Z" fill="white"/>
<path d="M99.8464 5468.39C97.9866 5471.32 97.0567 5474.61 97.0567 5478.27C97.0567 5481.76 97.9866 5485 99.8464 5488H98.483C97.3503 5486.2 96.5183 5484.58 95.987 5483.13C95.4696 5481.68 95.2109 5480.06 95.2109 5478.29C95.2109 5474.68 96.3016 5471.37 98.483 5468.39H99.8464Z" fill="white"/>
<path d="M100.597 5473.66C100.639 5472.09 101.065 5470.87 101.877 5470.02C102.702 5469.16 103.848 5468.73 105.316 5468.73C106.631 5468.73 107.687 5469.1 108.484 5469.82C109.281 5470.55 109.679 5471.51 109.679 5472.7C109.679 5473.41 109.497 5474.05 109.134 5474.63C108.784 5475.18 108.288 5475.6 107.645 5475.87C108.484 5476.07 109.148 5476.5 109.637 5477.15C110.127 5477.81 110.371 5478.6 110.371 5479.53C110.385 5480.93 109.91 5482.07 108.945 5482.94C107.994 5483.8 106.757 5484.23 105.232 5484.23C103.722 5484.23 102.513 5483.81 101.604 5482.96C100.709 5482.11 100.261 5480.96 100.261 5479.51V5479.23H102.023C102.065 5480.32 102.366 5481.16 102.925 5481.74C103.485 5482.33 104.261 5482.62 105.253 5482.62C106.204 5482.62 106.973 5482.35 107.561 5481.81C108.162 5481.25 108.463 5480.53 108.463 5479.66C108.463 5478.78 108.162 5478.07 107.561 5477.54C106.973 5477.01 106.176 5476.75 105.17 5476.75C104.918 5476.75 104.596 5476.78 104.205 5476.83V5475.29C104.4 5475.3 104.603 5475.31 104.813 5475.31C105.736 5475.31 106.463 5475.09 106.994 5474.65C107.54 5474.19 107.812 5473.57 107.812 5472.8C107.812 5472.06 107.575 5471.46 107.099 5471C106.638 5470.55 106.016 5470.32 105.232 5470.32C104.338 5470.32 103.638 5470.61 103.135 5471.2C102.632 5471.77 102.366 5472.59 102.338 5473.66H100.597Z" fill="white"/>
<path d="M122.089 5478.72V5480.26H120.076V5483.93H118.398V5480.26H111.875V5478.55L118.628 5468.73H120.076V5478.72H122.089ZM118.398 5478.72V5471.41L113.448 5478.72H118.398Z" fill="white"/>
<path d="M123.907 5473.66C123.949 5472.09 124.376 5470.87 125.187 5470.02C126.012 5469.16 127.158 5468.73 128.626 5468.73C129.941 5468.73 130.997 5469.1 131.794 5469.82C132.591 5470.55 132.989 5471.51 132.989 5472.7C132.989 5473.41 132.808 5474.05 132.444 5474.63C132.094 5475.18 131.598 5475.6 130.955 5475.87C131.794 5476.07 132.458 5476.5 132.947 5477.15C133.437 5477.81 133.681 5478.6 133.681 5479.53C133.695 5480.93 133.22 5482.07 132.255 5482.94C131.304 5483.8 130.067 5484.23 128.543 5484.23C127.032 5484.23 125.823 5483.81 124.914 5482.96C124.019 5482.11 123.572 5480.96 123.572 5479.51V5479.23H125.333C125.375 5480.32 125.676 5481.16 126.235 5481.74C126.795 5482.33 127.571 5482.62 128.564 5482.62C129.514 5482.62 130.284 5482.35 130.871 5481.81C131.472 5481.25 131.773 5480.53 131.773 5479.66C131.773 5478.78 131.472 5478.07 130.871 5477.54C130.284 5477.01 129.486 5476.75 128.48 5476.75C128.228 5476.75 127.906 5476.78 127.515 5476.83V5475.29C127.711 5475.3 127.913 5475.31 128.123 5475.31C129.046 5475.31 129.773 5475.09 130.304 5474.65C130.85 5474.19 131.123 5473.57 131.123 5472.8C131.123 5472.06 130.885 5471.46 130.409 5471C129.948 5470.55 129.326 5470.32 128.543 5470.32C127.648 5470.32 126.948 5470.61 126.445 5471.2C125.942 5471.77 125.676 5472.59 125.648 5473.66H123.907Z" fill="white"/>
<path d="M138.981 5478.29C138.981 5480.06 138.715 5481.68 138.184 5483.13C137.667 5484.58 136.842 5486.2 135.709 5488H134.346C136.205 5485 137.135 5481.76 137.135 5478.27C137.135 5474.61 136.205 5471.32 134.346 5468.39H135.709C137.89 5471.37 138.981 5474.68 138.981 5478.29Z" fill="white"/>
<path d="M140.99 5473.66C141.032 5472.09 141.459 5470.87 142.27 5470.02C143.095 5469.16 144.241 5468.73 145.71 5468.73C147.024 5468.73 148.08 5469.1 148.877 5469.82C149.674 5470.55 150.072 5471.51 150.072 5472.7C150.072 5473.41 149.891 5474.05 149.527 5474.63C149.178 5475.18 148.681 5475.6 148.038 5475.87C148.877 5476.07 149.541 5476.5 150.03 5477.15C150.52 5477.81 150.765 5478.6 150.765 5479.53C150.779 5480.93 150.303 5482.07 149.338 5482.94C148.387 5483.8 147.15 5484.23 145.626 5484.23C144.116 5484.23 142.906 5483.81 141.997 5482.96C141.102 5482.11 140.655 5480.96 140.655 5479.51V5479.23H142.417C142.459 5480.32 142.759 5481.16 143.318 5481.74C143.878 5482.33 144.654 5482.62 145.647 5482.62C146.598 5482.62 147.367 5482.35 147.954 5481.81C148.555 5481.25 148.856 5480.53 148.856 5479.66C148.856 5478.78 148.555 5478.07 147.954 5477.54C147.367 5477.01 146.57 5476.75 145.563 5476.75C145.311 5476.75 144.99 5476.78 144.598 5476.83V5475.29C144.794 5475.3 144.996 5475.31 145.206 5475.31C146.129 5475.31 146.856 5475.09 147.388 5474.65C147.933 5474.19 148.206 5473.57 148.206 5472.8C148.206 5472.06 147.968 5471.46 147.493 5471C147.031 5470.55 146.409 5470.32 145.626 5470.32C144.731 5470.32 144.032 5470.61 143.528 5471.2C143.025 5471.77 142.759 5472.59 142.731 5473.66H140.99Z" fill="white"/>
<path d="M155.141 5475.8C154.484 5475.52 153.974 5475.1 153.61 5474.56C153.261 5474 153.086 5473.35 153.086 5472.61C153.086 5471.47 153.498 5470.54 154.323 5469.82C155.148 5469.1 156.211 5468.73 157.512 5468.73C158.798 5468.73 159.847 5469.09 160.658 5469.8C161.483 5470.5 161.895 5471.41 161.895 5472.52C161.895 5474.07 161.217 5475.16 159.861 5475.8C161.609 5476.43 162.483 5477.67 162.483 5479.51C162.483 5480.96 162.028 5482.11 161.119 5482.96C160.21 5483.81 158.987 5484.23 157.449 5484.23C155.966 5484.23 154.771 5483.81 153.862 5482.98C152.967 5482.14 152.519 5481.03 152.519 5479.64C152.519 5478.73 152.743 5477.94 153.191 5477.28C153.652 5476.61 154.302 5476.12 155.141 5475.8ZM159.378 5471C158.917 5470.57 158.295 5470.36 157.512 5470.36C156.728 5470.36 156.099 5470.58 155.624 5471.02C155.148 5471.45 154.911 5472.02 154.911 5472.74C154.911 5473.45 155.148 5474.03 155.624 5474.48C156.099 5474.9 156.728 5475.12 157.512 5475.12C158.281 5475.12 158.896 5474.9 159.357 5474.48C159.833 5474.03 160.07 5473.45 160.07 5472.74C160.07 5472.01 159.84 5471.43 159.378 5471ZM157.449 5476.6C156.554 5476.6 155.82 5476.88 155.246 5477.45C154.673 5478.01 154.386 5478.73 154.386 5479.6C154.386 5480.5 154.673 5481.24 155.246 5481.83C155.834 5482.4 156.582 5482.68 157.491 5482.68C158.413 5482.68 159.162 5482.4 159.735 5481.83C160.322 5481.26 160.616 5480.52 160.616 5479.62C160.616 5478.72 160.322 5477.99 159.735 5477.43C159.148 5476.88 158.385 5476.6 157.449 5476.6Z" fill="white"/>
<path d="M173.215 5469.01V5470.62H167.195L166.314 5475.14C167.041 5474.34 168.041 5473.94 169.313 5473.94C170.712 5473.94 171.844 5474.4 172.711 5475.33C173.578 5476.25 174.012 5477.44 174.012 5478.91C174.012 5480.46 173.536 5481.73 172.585 5482.73C171.635 5483.73 170.397 5484.23 168.873 5484.23C167.461 5484.23 166.314 5483.83 165.433 5483.03C164.566 5482.23 164.112 5481.16 164.07 5479.83H165.873C165.943 5480.68 166.258 5481.36 166.817 5481.89C167.377 5482.42 168.069 5482.68 168.894 5482.68C169.817 5482.68 170.586 5482.34 171.201 5481.66C171.816 5480.97 172.124 5480.12 172.124 5479.1C172.124 5478.05 171.823 5477.19 171.222 5476.53C170.621 5475.86 169.838 5475.53 168.873 5475.53C167.642 5475.53 166.692 5476.02 166.02 5477L164.489 5476.9L165.873 5469.01H173.215Z" fill="white"/>
<path d="M182.122 5477.07V5478.87H176.018V5477.07H182.122Z" fill="white"/>
<path d="M193.358 5482.28V5483.93H183.667C183.709 5483.08 183.835 5482.35 184.045 5481.72C184.255 5481.09 184.576 5480.53 185.01 5480.03C185.457 5479.51 185.891 5479.09 186.31 5478.76C186.73 5478.43 187.324 5478.03 188.093 5477.54C189.296 5476.77 190.086 5476.19 190.463 5475.8C191.246 5475.02 191.638 5474.15 191.638 5473.19C191.638 5472.35 191.372 5471.66 190.841 5471.13C190.309 5470.59 189.617 5470.32 188.764 5470.32C187.743 5470.32 187.009 5470.68 186.562 5471.41C186.128 5472.12 185.898 5473.03 185.87 5474.13H184.066V5473.72C184.066 5472.22 184.499 5471.02 185.366 5470.1C186.247 5469.19 187.408 5468.73 188.848 5468.73C190.26 5468.73 191.386 5469.13 192.225 5469.93C193.064 5470.73 193.484 5471.8 193.484 5473.15C193.484 5473.72 193.386 5474.26 193.19 5474.78C193.008 5475.28 192.798 5475.7 192.561 5476.04C192.337 5476.38 191.987 5476.75 191.512 5477.13C191.051 5477.52 190.666 5477.82 190.358 5478.03C190.051 5478.23 189.61 5478.51 189.037 5478.87C187.89 5479.57 187.128 5480.11 186.751 5480.5C186.219 5481.04 185.877 5481.63 185.723 5482.28H193.358Z" fill="white"/>
<path d="M198.259 5475.8C197.602 5475.52 197.091 5475.1 196.728 5474.56C196.378 5474 196.203 5473.35 196.203 5472.61C196.203 5471.47 196.616 5470.54 197.441 5469.82C198.266 5469.1 199.329 5468.73 200.629 5468.73C201.916 5468.73 202.964 5469.09 203.775 5469.8C204.6 5470.5 205.013 5471.41 205.013 5472.52C205.013 5474.07 204.335 5475.16 202.978 5475.8C204.726 5476.43 205.6 5477.67 205.6 5479.51C205.6 5480.96 205.146 5482.11 204.237 5482.96C203.328 5483.81 202.104 5484.23 200.566 5484.23C199.084 5484.23 197.888 5483.81 196.979 5482.98C196.084 5482.14 195.637 5481.03 195.637 5479.64C195.637 5478.73 195.861 5477.94 196.308 5477.28C196.77 5476.61 197.42 5476.12 198.259 5475.8ZM202.496 5471C202.034 5470.57 201.412 5470.36 200.629 5470.36C199.846 5470.36 199.217 5470.58 198.741 5471.02C198.266 5471.45 198.028 5472.02 198.028 5472.74C198.028 5473.45 198.266 5474.03 198.741 5474.48C199.217 5474.9 199.846 5475.12 200.629 5475.12C201.398 5475.12 202.013 5474.9 202.475 5474.48C202.95 5474.03 203.188 5473.45 203.188 5472.74C203.188 5472.01 202.957 5471.43 202.496 5471ZM200.566 5476.6C199.671 5476.6 198.937 5476.88 198.364 5477.45C197.79 5478.01 197.504 5478.73 197.504 5479.6C197.504 5480.5 197.79 5481.24 198.364 5481.83C198.951 5482.4 199.699 5482.68 200.608 5482.68C201.531 5482.68 202.279 5482.4 202.852 5481.83C203.44 5481.26 203.733 5480.52 203.733 5479.62C203.733 5478.72 203.44 5477.99 202.852 5477.43C202.265 5476.88 201.503 5476.6 200.566 5476.6Z" fill="white"/>
<path d="M213.585 5477.07V5478.87H207.481V5477.07H213.585Z" fill="white"/>
<path d="M220.416 5468.73C221.31 5468.73 222.073 5468.9 222.702 5469.25C223.345 5469.57 223.834 5469.98 224.17 5470.47C224.506 5470.95 224.771 5471.59 224.967 5472.37C225.163 5473.15 225.282 5473.85 225.324 5474.48C225.366 5475.09 225.387 5475.83 225.387 5476.7C225.387 5477.5 225.352 5478.23 225.282 5478.87C225.226 5479.51 225.093 5480.18 224.883 5480.88C224.687 5481.58 224.415 5482.17 224.065 5482.64C223.716 5483.1 223.24 5483.48 222.639 5483.78C222.038 5484.08 221.324 5484.23 220.499 5484.23C219.632 5484.23 218.877 5484.08 218.234 5483.78C217.605 5483.46 217.115 5483.08 216.766 5482.62C216.416 5482.16 216.137 5481.58 215.927 5480.88C215.731 5480.17 215.605 5479.5 215.549 5478.87C215.493 5478.23 215.465 5477.49 215.465 5476.66C215.465 5475.95 215.479 5475.33 215.507 5474.8C215.549 5474.27 215.619 5473.67 215.717 5473.02C215.829 5472.35 215.997 5471.78 216.221 5471.32C216.444 5470.85 216.731 5470.41 217.08 5470C217.43 5469.58 217.885 5469.27 218.444 5469.05C219.017 5468.84 219.674 5468.73 220.416 5468.73ZM221.569 5470.62C221.234 5470.45 220.849 5470.36 220.416 5470.36C219.982 5470.36 219.598 5470.45 219.262 5470.62C218.926 5470.77 218.654 5470.96 218.444 5471.17C218.234 5471.39 218.052 5471.71 217.899 5472.14C217.745 5472.55 217.633 5472.9 217.563 5473.19C217.507 5473.47 217.458 5473.89 217.416 5474.43C217.374 5474.96 217.353 5475.34 217.353 5475.57C217.353 5475.78 217.353 5476.15 217.353 5476.66C217.353 5477.16 217.36 5477.58 217.374 5477.9C217.388 5478.23 217.423 5478.66 217.479 5479.19C217.535 5479.72 217.633 5480.16 217.773 5480.52C217.913 5480.86 218.087 5481.21 218.297 5481.57C218.507 5481.91 218.793 5482.18 219.157 5482.36C219.535 5482.53 219.968 5482.62 220.457 5482.62C220.877 5482.62 221.248 5482.54 221.569 5482.38C221.905 5482.23 222.177 5482.04 222.387 5481.83C222.597 5481.61 222.772 5481.31 222.912 5480.93C223.065 5480.53 223.177 5480.18 223.247 5479.9C223.317 5479.6 223.366 5479.2 223.394 5478.72C223.436 5478.22 223.457 5477.85 223.457 5477.63C223.471 5477.38 223.478 5477.03 223.478 5476.58C223.478 5476.08 223.478 5475.72 223.478 5475.5C223.478 5475.29 223.457 5474.92 223.415 5474.39C223.373 5473.86 223.317 5473.45 223.247 5473.17C223.191 5472.88 223.086 5472.53 222.933 5472.12C222.779 5471.7 222.597 5471.39 222.387 5471.17C222.177 5470.96 221.905 5470.77 221.569 5470.62Z" fill="white"/>
<path d="M227.225 5473.66C227.267 5472.09 227.694 5470.87 228.505 5470.02C229.33 5469.16 230.476 5468.73 231.945 5468.73C233.259 5468.73 234.315 5469.1 235.112 5469.82C235.909 5470.55 236.308 5471.51 236.308 5472.7C236.308 5473.41 236.126 5474.05 235.762 5474.63C235.413 5475.18 234.916 5475.6 234.273 5475.87C235.112 5476.07 235.776 5476.5 236.266 5477.15C236.755 5477.81 237 5478.6 237 5479.53C237.014 5480.93 236.538 5482.07 235.573 5482.94C234.623 5483.8 233.385 5484.23 231.861 5484.23C230.351 5484.23 229.141 5483.81 228.232 5482.96C227.337 5482.11 226.89 5480.96 226.89 5479.51V5479.23H228.652C228.694 5480.32 228.994 5481.16 229.554 5481.74C230.113 5482.33 230.889 5482.62 231.882 5482.62C232.833 5482.62 233.602 5482.35 234.189 5481.81C234.79 5481.25 235.091 5480.53 235.091 5479.66C235.091 5478.78 234.79 5478.07 234.189 5477.54C233.602 5477.01 232.805 5476.75 231.798 5476.75C231.546 5476.75 231.225 5476.78 230.833 5476.83V5475.29C231.029 5475.3 231.232 5475.31 231.441 5475.31C232.364 5475.31 233.091 5475.09 233.623 5474.65C234.168 5474.19 234.441 5473.57 234.441 5472.8C234.441 5472.06 234.203 5471.46 233.728 5471C233.266 5470.55 232.644 5470.32 231.861 5470.32C230.966 5470.32 230.267 5470.61 229.763 5471.2C229.26 5471.77 228.994 5472.59 228.966 5473.66H227.225Z" fill="white"/>
<path d="M70 5216.52V5196.48H72.6398V5214.21H81.5139V5196.48H84.1537V5214.21H93.0279V5196.48H95.6677V5216.52H70Z" fill="#818181"/>
<path d="M108.564 5196C111.597 5196 113.956 5196.96 115.641 5198.87C117.326 5200.77 118.169 5203.25 118.169 5206.33C118.169 5209.43 117.336 5211.98 115.669 5213.99C114.003 5216 111.644 5217 108.593 5217C107.039 5217 105.644 5216.72 104.408 5216.16C103.173 5215.59 102.162 5214.81 101.375 5213.82C100.608 5212.82 100.018 5211.69 99.6061 5210.41C99.2129 5209.14 99.0163 5207.76 99.0163 5206.27C99.0163 5203.14 99.8775 5200.64 101.6 5198.79C103.341 5196.93 105.663 5196 108.564 5196ZM108.564 5198.31C106.337 5198.31 104.624 5199.1 103.425 5200.67C102.246 5202.23 101.656 5204.16 101.656 5206.47C101.656 5208.99 102.283 5210.99 103.538 5212.5C104.811 5213.98 106.505 5214.72 108.621 5214.72C110.717 5214.72 112.393 5213.97 113.647 5212.47C114.902 5210.97 115.529 5208.97 115.529 5206.47C115.529 5203.99 114.892 5202.01 113.619 5200.53C112.365 5199.05 110.68 5198.31 108.564 5198.31Z" fill="#818181"/>
<path d="M137.708 5196.48L129.283 5204.53L138.045 5216.52H134.675L127.43 5206.33L124.116 5209.48V5216.52H121.476V5196.48H124.116V5206.42L134.254 5196.48H137.708Z" fill="#818181"/>
<path d="M164.957 5208.95C164.732 5211.48 163.852 5213.46 162.317 5214.89C160.801 5216.3 158.797 5217 156.307 5217C153.462 5217 151.206 5216.06 149.539 5214.18C147.873 5212.29 147.04 5209.74 147.04 5206.53C147.04 5203.53 147.873 5201.03 149.539 5199.04C151.224 5197.03 153.546 5196.03 156.504 5196.03C158.62 5196.03 160.482 5196.6 162.092 5197.75C163.703 5198.89 164.601 5200.48 164.788 5202.5H162.149C161.849 5201.19 161.194 5200.17 160.183 5199.43C159.172 5198.68 157.927 5198.31 156.448 5198.31C154.22 5198.31 152.535 5199.1 151.393 5200.67C150.27 5202.25 149.708 5204.19 149.708 5206.5C149.708 5209.05 150.307 5211.06 151.505 5212.52C152.703 5213.99 154.342 5214.72 156.42 5214.72C158.123 5214.72 159.481 5214.23 160.492 5213.26C161.503 5212.26 162.111 5210.83 162.317 5208.95H164.957Z" fill="#818181"/>
<path d="M176.715 5196C179.747 5196 182.106 5196.96 183.791 5198.87C185.476 5200.77 186.319 5203.25 186.319 5206.33C186.319 5209.43 185.486 5211.98 183.82 5213.99C182.153 5216 179.794 5217 176.743 5217C175.189 5217 173.794 5216.72 172.558 5216.16C171.323 5215.59 170.312 5214.81 169.525 5213.82C168.758 5212.82 168.168 5211.69 167.756 5210.41C167.363 5209.14 167.166 5207.76 167.166 5206.27C167.166 5203.14 168.028 5200.64 169.75 5198.79C171.491 5196.93 173.813 5196 176.715 5196ZM176.715 5198.31C174.487 5198.31 172.774 5199.1 171.575 5200.67C170.396 5202.23 169.806 5204.16 169.806 5206.47C169.806 5208.99 170.433 5210.99 171.688 5212.5C172.961 5213.98 174.655 5214.72 176.771 5214.72C178.868 5214.72 180.543 5213.97 181.798 5212.47C183.052 5210.97 183.679 5208.97 183.679 5206.47C183.679 5203.99 183.043 5202.01 181.769 5200.53C180.515 5199.05 178.83 5198.31 176.715 5198.31Z" fill="#818181"/>
<path d="M192.266 5204.59H198.95C200.915 5204.59 202.432 5205.11 203.499 5206.16C204.566 5207.21 205.1 5208.69 205.1 5210.58C205.1 5212.46 204.557 5213.92 203.471 5214.97C202.404 5216.01 200.897 5216.52 198.95 5216.52H189.626V5196.48H203.33V5198.79H192.266V5204.59ZM202.46 5210.58C202.46 5208.12 201 5206.89 198.079 5206.89H192.266V5214.21H198.079C201 5214.21 202.46 5213 202.46 5210.58Z" fill="#818181"/>
<path d="M226.262 5196.48H228.902V5216.52H226.262V5196.48ZM223.763 5210.58C223.763 5212.46 223.22 5213.92 222.134 5214.97C221.067 5216.01 219.56 5216.52 217.613 5216.52H208.851V5196.48H211.49V5204.61H217.613C219.578 5204.61 221.095 5205.14 222.162 5206.19C223.229 5207.22 223.763 5208.69 223.763 5210.58ZM221.095 5210.58C221.095 5208.12 219.634 5206.89 216.714 5206.89H211.49V5214.21H216.714C219.634 5214.21 221.095 5213 221.095 5210.58Z" fill="#818181"/>
<path d="M247.186 5196.48V5198.79H240.475V5216.52H237.835V5198.79H231.123V5196.48H247.186Z" fill="#818181"/>
<path d="M249.439 5216.52V5196.48H252.079V5213.45H252.135L261.936 5196.48H265.278V5216.52H262.638V5199.49H262.582L252.753 5216.52H249.439Z" fill="#818181"/>
<path d="M277.232 5207.96L270.633 5216.52H267.375L274.059 5207.88C272.467 5207.67 271.241 5207.09 270.38 5206.13C269.519 5205.18 269.088 5203.87 269.088 5202.22C269.088 5200.36 269.64 5198.95 270.745 5197.97C271.868 5196.98 273.422 5196.48 275.407 5196.48H284V5216.52H281.36V5207.96H277.232ZM281.36 5205.71V5198.73H276.305C273.272 5198.73 271.756 5199.89 271.756 5202.22C271.756 5204.55 273.272 5205.71 276.305 5205.71H281.36Z" fill="#818181"/>
<path d="M351 5196.48H354.639L361.05 5213.48L367.237 5196.48H370.904V5216.55H368.412V5199.81L362.17 5216.55H359.874L353.519 5199.81V5216.55H351V5196.48Z" fill="#818181"/>
<path d="M383.728 5196.48L391.51 5216.55H388.571L386.359 5210.4H377.989L375.722 5216.55H372.922L380.761 5196.48H383.728ZM385.576 5208.29L382.188 5199.02L378.745 5208.29H385.576Z" fill="#818181"/>
<path d="M396.142 5216.55H393.51V5196.48H406.612V5198.79H396.142V5216.55Z" fill="#818181"/>
<path d="M414.073 5196.48L421.856 5216.55H418.916L416.705 5210.4H408.335L406.067 5216.55H403.268L411.106 5196.48H414.073ZM415.921 5208.29L412.534 5199.02L409.09 5208.29H415.921Z" fill="#818181"/>
<path d="M438.693 5210.69C438.693 5211.34 438.543 5212.03 438.245 5212.74C437.946 5213.44 437.508 5214.12 436.929 5214.77C436.35 5215.43 435.539 5215.97 434.494 5216.38C433.448 5216.79 432.263 5217 430.938 5217C428.437 5217 426.431 5216.41 424.919 5215.22C423.426 5214.02 422.68 5212.26 422.68 5209.92H425.227C425.283 5211.63 425.853 5212.88 426.935 5213.67C428.018 5214.44 429.427 5214.83 431.162 5214.83C432.562 5214.83 433.728 5214.44 434.661 5213.67C435.595 5212.9 436.061 5211.89 436.061 5210.63C436.061 5209.93 435.931 5209.34 435.669 5208.85C435.408 5208.37 435.025 5208 434.522 5207.75C434.018 5207.51 433.486 5207.34 432.926 5207.25C432.385 5207.15 431.75 5207.11 431.022 5207.11C430.388 5207.11 429.79 5207.12 429.231 5207.16V5204.96C429.529 5205 430.126 5205.02 431.022 5205.02C433.915 5205.02 435.361 5203.82 435.361 5201.41C435.361 5199.27 433.934 5198.2 431.078 5198.2C428.055 5198.2 426.403 5199.56 426.123 5202.29H423.576C423.65 5200.22 424.378 5198.66 425.759 5197.61C427.14 5196.54 428.941 5196 431.162 5196C433.196 5196 434.839 5196.45 436.089 5197.35C437.358 5198.26 437.993 5199.61 437.993 5201.41C437.993 5202.43 437.666 5203.35 437.013 5204.17C436.36 5204.98 435.585 5205.52 434.689 5205.78V5205.87C435.959 5206.11 436.938 5206.68 437.629 5207.59C438.338 5208.49 438.693 5209.52 438.693 5210.69Z" fill="#818181"/>
<path d="M442.008 5216.55V5196.48H444.64V5213.48H444.696L454.466 5196.48H457.797V5216.55H455.166V5199.5H455.11L445.312 5216.55H442.008Z" fill="#818181"/>
<path d="M478 5196.48V5216.55H475.369V5207.16H464.843V5216.55H462.211V5196.48H464.843V5204.85H475.369V5196.48H478Z" fill="#818181"/>
<path d="M1494.25 5196L1485.82 5203.87L1494.59 5215.59H1491.22L1483.96 5205.63L1480.64 5208.71V5215.59H1478V5196H1480.64V5205.71L1490.79 5196H1494.25Z" fill="#818181"/>
<path d="M1511.52 5196V5215.59H1508.87V5198.26H1501.48L1501.08 5209.29C1501.01 5211.34 1500.58 5212.97 1499.79 5214.18C1499.02 5215.39 1497.91 5216 1496.45 5216C1495.85 5216 1495.21 5215.87 1494.53 5215.61V5213.41C1494.83 5213.6 1495.31 5213.69 1495.97 5213.69C1496.51 5213.69 1496.94 5213.57 1497.26 5213.33C1497.6 5213.07 1497.89 5212.51 1498.13 5211.63C1498.39 5210.75 1498.54 5209.52 1498.58 5207.94L1498.95 5196H1511.52Z" fill="#818181"/>
<path d="M1516 5215.59V5196H1518.65V5212.59H1518.7L1528.52 5196H1531.86V5215.59H1529.22V5198.94H1529.16L1519.32 5215.59H1516Z" fill="#818181"/>
<path d="M1550.16 5196V5198.26H1538.94V5204.39H1549.43V5206.56H1538.94V5213.33H1550.3V5215.59H1536.3V5196H1550.16Z" fill="#818181"/>
<path d="M1569.34 5196V5215.59H1566.7V5206.43H1556.13V5215.59H1553.49V5196H1556.13V5204.17H1566.7V5196H1569.34Z" fill="#818181"/>
<path d="M1587.67 5196V5198.26H1580.95V5215.59H1578.3V5198.26H1571.58V5196H1587.67Z" fill="#818181"/>
<path d="M1607.36 5196H1610V5215.59H1607.36V5196ZM1604.85 5209.78C1604.85 5211.62 1604.31 5213.05 1603.22 5214.07C1602.16 5215.08 1600.65 5215.59 1598.7 5215.59H1589.92V5196H1592.57V5203.95H1598.7C1600.66 5203.95 1602.18 5204.46 1603.25 5205.49C1604.32 5206.5 1604.85 5207.93 1604.85 5209.78ZM1602.18 5209.78C1602.18 5207.38 1600.72 5206.18 1597.8 5206.18H1592.57V5213.33H1597.8C1600.72 5213.33 1602.18 5212.15 1602.18 5209.78Z" fill="#818181"/>
<path d="M101.392 1058.28H0.195312V1159.47H101.392V1058.28Z" fill="black"/>
<path d="M303.784 1058.28H202.588V1159.47H303.784V1058.28Z" fill="black"/>
<path d="M0.19677 1159.47H-101V1260.67H0.19677V1159.47Z" fill="black"/>
<path d="M202.587 1159.47H101.391V1260.67H202.587V1159.47Z" fill="black"/>
<path d="M404.978 1159.47H303.781V1260.67H404.978V1159.47Z" fill="black"/>
<path d="M101.392 1260.69H0.195312V1361.88H101.392V1260.69Z" fill="black"/>
<path d="M303.784 1260.69H202.588V1361.88H303.784V1260.69Z" fill="black"/>
<path d="M0.19677 1361.87H-101V1463.07H0.19677V1361.87Z" fill="black"/>
<path d="M202.587 1361.87H101.391V1463.07H202.587V1361.87Z" fill="black"/>
<path d="M404.978 1361.87H303.781V1463.07H404.978V1361.87Z" fill="black"/>
<path d="M506.388 1058.28H405.191V1159.47H506.388V1058.28Z" fill="black"/>
<path d="M708.779 1058.28H607.582V1159.47H708.779V1058.28Z" fill="black"/>
<path d="M607.583 1159.49H506.387V1260.68H607.583V1159.49Z" fill="black"/>
<path d="M809.978 1159.49H708.781V1260.68H809.978V1159.49Z" fill="black"/>
<path d="M506.388 1260.67H405.191V1361.87H506.388V1260.67Z" fill="black"/>
<path d="M708.781 1260.67H607.584V1361.87H708.781V1260.67Z" fill="black"/>
<path d="M607.583 1361.87H506.387V1463.07H607.583V1361.87Z" fill="black"/>
<path d="M809.988 1361.87H708.791V1463.07H809.988V1361.87Z" fill="black"/>
<path d="M101.392 1463.07H0.195312V1564.26H101.392V1463.07Z" fill="black"/>
<path d="M303.784 1463.07H202.588V1564.26H303.784V1463.07Z" fill="black"/>
<path d="M0.19677 1564.26H-101V1665.46H0.19677V1564.26Z" fill="black"/>
<path d="M202.587 1564.26H101.391V1665.46H202.587V1564.26Z" fill="black"/>
<path d="M404.978 1564.26H303.781V1665.46H404.978V1564.26Z" fill="black"/>
<path d="M101.392 1665.48H0.195312V1766.67H101.392V1665.48Z" fill="black"/>
<path d="M303.784 1665.48H202.588V1766.67H303.784V1665.48Z" fill="black"/>
<path d="M0.19677 1766.66H-101V1867.86H0.19677V1766.66Z" fill="black"/>
<path d="M202.587 1766.66H101.391V1867.86H202.587V1766.66Z" fill="black"/>
<path d="M404.978 1766.66H303.781V1867.86H404.978V1766.66Z" fill="black"/>
<path d="M506.388 1463.07H405.191V1564.26H506.388V1463.07Z" fill="black"/>
<path d="M708.779 1463.07H607.582V1564.26H708.779V1463.07Z" fill="black"/>
<path d="M607.583 1564.27H506.387V1665.47H607.583V1564.27Z" fill="black"/>
<path d="M809.978 1564.27H708.781V1665.47H809.978V1564.27Z" fill="black"/>
<path d="M506.388 1665.46H405.191V1766.66H506.388V1665.46Z" fill="black"/>
<path d="M708.781 1665.46H607.584V1766.66H708.781V1665.46Z" fill="black"/>
<path d="M607.583 1766.66H506.387V1867.86H607.583V1766.66Z" fill="black"/>
<path d="M809.988 1766.66H708.791V1867.86H809.988V1766.66Z" fill="black"/>
<path d="M35 71H1645" stroke="black" stroke-width="2"/>
<path d="M35 213H1645" stroke="black" stroke-width="2"/>
<path d="M117 1868H1561" stroke="black" stroke-width="2"/>
<line x1="70" y1="1869" x2="70" y2="2961" stroke="black" stroke-width="2"/>
<line x1="1610" y1="1867" x2="1610" y2="2961" stroke="black" stroke-width="2"/>
<line x1="1482" y1="1867" x2="1482" y2="2961" stroke="black" stroke-width="2"/>
<line y1="-1" x2="1089.46" y2="-1" transform="matrix(0.00113136 0.999999 -1 0.000998285 1352.38 1870.12)" stroke="black" stroke-width="2"/>
<line x1="1096" y1="1869" x2="1096" y2="2961" stroke="black" stroke-width="2"/>
<line x1="1224" y1="1869" x2="1224" y2="2961" stroke="black" stroke-width="2"/>
<line x1="712" y1="1869" x2="712" y2="2961" stroke="black" stroke-width="2"/>
<line x1="840" y1="1867" x2="840" y2="2959" stroke="black" stroke-width="2"/>
<line x1="968" y1="1868" x2="968" y2="2960" stroke="black" stroke-width="2"/>
<line x1="584" y1="1869" x2="584" y2="2961" stroke="black" stroke-width="2"/>
<line x1="455" y1="1868" x2="455" y2="2960" stroke="black" stroke-width="2"/>
<path d="M327 1869L327 2960" stroke="black" stroke-width="2"/>
<line x1="198" y1="1867" x2="198" y2="2959" stroke="black" stroke-width="2"/>
<path d="M71 2960L1609 2960" stroke="black" stroke-width="2"/>
<line x1="69" y1="3163" x2="1610" y2="3163" stroke="black" stroke-width="2"/>
<path d="M35 354L1645 354" stroke="black" stroke-width="2"/>
<path d="M35 495L1645 495" stroke="black" stroke-width="2"/>
<path d="M35 636H1645" stroke="black" stroke-width="2"/>
<path d="M35 918L1645 918" stroke="black" stroke-width="2"/>
<path d="M37 1059L1645 1059" stroke="black" stroke-width="2"/>
<path d="M0 1868L1684 1868" stroke="black" stroke-width="2"/>
<path d="M35 777L1645 777" stroke="black" stroke-width="2"/>
<path d="M1480.17 1722V1803.42H1469.47V1744.42H1449V1737.06C1455.59 1737.06 1460.81 1735.99 1464.64 1733.84C1468.55 1731.7 1471.16 1727.75 1472.46 1722H1480.17Z" fill="black"/>
<path d="M1525.21 1790.65V1803.42H1512.44V1790.65H1525.21Z" fill="black"/>
</g>
<defs>
<clipPath id="clip0">
<rect width="1680" height="5630" fill="white"/>
</clipPath>
</defs>
</svg>
