<svg width="842" height="409" viewBox="0 0 842 409" fill="none" xmlns="http://www.w3.org/2000/svg">
<rect x="1" y="1" width="840" height="407" fill="white" stroke="black" stroke-width="2"/>
<rect x="282" y="287" width="278" height="77" fill="#D597C3" stroke="black" stroke-width="2"/>
<line x1="117" y1="98" x2="724" y2="98" stroke="black" stroke-width="2"/>
<line x1="117" y1="162" x2="724" y2="162" stroke="black" stroke-width="2"/>
<line x1="117" y1="232" x2="724" y2="232" stroke="black" stroke-width="2"/>
<path d="M127.75 67.3646V82.6354H125.792V69.1233H117.958V82.6354H116V67.3646H127.75Z" fill="black"/>
<path d="M137.285 67C139.535 67 141.285 67.7292 142.535 69.1877C143.785 70.6318 144.411 72.5264 144.411 74.8713C144.411 77.2306 143.792 79.1752 142.556 80.7051C141.32 82.235 139.57 83 137.306 83C136.153 83 135.119 82.7855 134.202 82.3566C133.285 81.9276 132.535 81.3342 131.952 80.5764C131.382 79.8186 130.945 78.9535 130.639 77.9812C130.348 77.0089 130.202 75.958 130.202 74.8284C130.202 72.4406 130.841 70.5389 132.119 69.1233C133.41 67.7078 135.133 67 137.285 67ZM137.285 68.7587C135.633 68.7587 134.362 69.3592 133.473 70.5603C132.598 71.7471 132.16 73.2198 132.16 74.9786C132.16 76.8945 132.626 78.4245 133.556 79.5684C134.501 80.6979 135.758 81.2627 137.327 81.2627C138.883 81.2627 140.126 80.6908 141.056 79.5469C141.987 78.403 142.452 76.8803 142.452 74.9786C142.452 73.0912 141.98 71.5827 141.035 70.4531C140.105 69.3235 138.855 68.7587 137.285 68.7587Z" fill="black"/>
<path d="M157.802 67.3646V82.6354H155.843V69.1233H150.364L150.072 77.7239C150.017 79.3253 149.697 80.5979 149.114 81.5416C148.545 82.4853 147.718 82.9571 146.635 82.9571C146.19 82.9571 145.718 82.857 145.218 82.6568V80.941C145.44 81.084 145.795 81.1555 146.281 81.1555C146.683 81.1555 147.003 81.0626 147.239 80.8767C147.489 80.6765 147.704 80.2332 147.885 79.5469C148.079 78.8606 148.19 77.9026 148.218 76.6729L148.489 67.3646H157.802Z" fill="black"/>
<path d="M172.876 67.3646V82.6354H170.918V75.4933H163.085V82.6354H161.126V67.3646H163.085V73.7346H170.918V67.3646H172.876Z" fill="black"/>
<path d="M182.412 67C184.662 67 186.412 67.7292 187.662 69.1877C188.912 70.6318 189.537 72.5264 189.537 74.8713C189.537 77.2306 188.919 79.1752 187.682 80.7051C186.446 82.235 184.696 83 182.432 83C181.28 83 180.245 82.7855 179.328 82.3566C178.411 81.9276 177.661 81.3342 177.078 80.5764C176.509 79.8186 176.071 78.9535 175.766 77.9812C175.474 77.0089 175.328 75.958 175.328 74.8284C175.328 72.4406 175.967 70.5389 177.245 69.1233C178.536 67.7078 180.259 67 182.412 67ZM182.412 68.7587C180.759 68.7587 179.488 69.3592 178.599 70.5603C177.724 71.7471 177.286 73.2198 177.286 74.9786C177.286 76.8945 177.752 78.4245 178.682 79.5684C179.627 80.6979 180.884 81.2627 182.453 81.2627C184.009 81.2627 185.252 80.6908 186.182 79.5469C187.113 78.403 187.578 76.8803 187.578 74.9786C187.578 73.0912 187.106 71.5827 186.162 70.4531C185.231 69.3235 183.981 68.7587 182.412 68.7587Z" fill="black"/>
<path d="M202.261 67.3646V69.1233H193.949V73.9062H201.719V75.6005H193.949V80.8767H202.365V82.6354H191.99V67.3646H202.261Z" fill="black"/>
<path d="M210.525 82.6354V67.3646H212.483V80.2976H212.525L219.796 67.3646H222.275V82.6354H220.317V69.6595H220.275L212.983 82.6354H210.525Z" fill="black"/>
<path d="M225.581 67.3646H228.289L233.06 80.2976L237.664 67.3646H240.394V82.6354H238.539V69.8954L233.894 82.6354H232.185L227.456 69.8954V82.6354H225.581V67.3646Z" fill="black"/>
<path d="M249.292 76.1153L244.396 82.6354H241.979L246.937 76.0509C245.757 75.8937 244.847 75.4504 244.208 74.7212C243.569 73.992 243.25 72.9982 243.25 71.7399C243.25 70.3244 243.66 69.2449 244.479 68.5013C245.312 67.7435 246.465 67.3646 247.937 67.3646H254.313V82.6354H252.354V76.1153H249.292ZM252.354 74.3995V69.0804H248.604C246.354 69.0804 245.229 69.9669 245.229 71.7399C245.229 73.513 246.354 74.3995 248.604 74.3995H252.354Z" fill="black"/>
<path d="M260 80.2547V82.6354H257.687V80.2547H260ZM260 71.5684V73.9491H257.687V71.5684H260Z" fill="black"/>
<path d="M128.826 132.342V146.658H126.855V139.962H118.971V146.658H117V132.342H118.971V138.314H126.855V132.342H128.826Z" fill="black"/>
<path d="M138.423 132C140.687 132 142.448 132.684 143.707 134.051C144.965 135.405 145.594 137.181 145.594 139.379C145.594 141.591 144.972 143.414 143.727 144.849C142.483 146.283 140.722 147 138.444 147C137.283 147 136.242 146.799 135.319 146.397C134.397 145.995 133.642 145.438 133.055 144.728C132.482 144.017 132.041 143.206 131.734 142.295C131.44 141.383 131.293 140.398 131.293 139.339C131.293 137.101 131.936 135.318 133.223 133.991C134.523 132.664 136.256 132 138.423 132ZM138.423 133.649C136.759 133.649 135.48 134.212 134.585 135.338C133.705 136.45 133.264 137.831 133.264 139.48C133.264 141.276 133.733 142.71 134.669 143.783C135.62 144.842 136.885 145.371 138.465 145.371C140.03 145.371 141.281 144.835 142.218 143.763C143.154 142.69 143.623 141.263 143.623 139.48C143.623 137.71 143.147 136.296 142.197 135.237C141.26 134.178 140.002 133.649 138.423 133.649Z" fill="black"/>
<path d="M148.084 132.342H150.81L155.611 144.466L160.245 132.342H162.992V146.658H161.126V134.714L156.45 146.658H154.731L149.971 134.714V146.658H148.084V132.342Z" fill="black"/>
<path d="M176.665 132.342V133.991H168.299V138.475H176.12V140.063H168.299V145.009H176.77V146.658H166.328V132.342H176.665Z" fill="black"/>
<path d="M179.23 132.342H185.374C186.898 132.342 188.107 132.677 189.001 133.347C189.896 134.004 190.343 135.043 190.343 136.464C190.343 139.346 188.645 140.787 185.248 140.787H181.201V146.658H179.23V132.342ZM181.201 133.971V139.198H184.996C186.059 139.198 186.884 139.011 187.471 138.635C188.072 138.247 188.372 137.563 188.372 136.584C188.372 136.035 188.274 135.579 188.079 135.217C187.897 134.855 187.624 134.587 187.261 134.413C186.897 134.239 186.52 134.125 186.129 134.071C185.737 134.004 185.269 133.971 184.724 133.971H181.201Z" fill="black"/>
<path d="M208.937 132.342V133.991H203.925V146.658H201.954V133.991H196.943V132.342H208.937Z" fill="black"/>
<path d="M220.956 132.342V133.991H212.59V138.475H220.411V140.063H212.59V145.009H221.061V146.658H210.619V132.342H220.956Z" fill="black"/>
<path d="M234.445 132.342V146.658H232.474V133.991H226.96L226.666 142.054C226.61 143.555 226.289 144.748 225.702 145.633C225.129 146.517 224.297 146.96 223.206 146.96C222.759 146.96 222.284 146.866 221.781 146.678V145.07C222.004 145.204 222.361 145.271 222.85 145.271C223.255 145.271 223.577 145.184 223.815 145.009C224.066 144.822 224.283 144.406 224.465 143.763C224.66 143.119 224.772 142.221 224.8 141.068L225.073 132.342H234.445Z" fill="black"/>
<path d="M248.128 132.342V133.991H239.762V138.475H247.583V140.063H239.762V145.009H248.233V146.658H237.791V132.342H248.128Z" fill="black"/>
<path d="M264.595 139.44C264.595 141.209 263.966 142.57 262.708 143.521C261.45 144.46 259.905 144.929 258.074 144.929V146.658H256.103V144.929C254.286 144.929 252.741 144.446 251.469 143.481C250.211 142.516 249.582 141.169 249.582 139.44C249.582 137.71 250.218 136.35 251.49 135.358C252.762 134.353 254.3 133.85 256.103 133.85V132.342H258.074V133.85C259.905 133.85 261.45 134.346 262.708 135.338C263.966 136.33 264.595 137.697 264.595 139.44ZM262.603 139.44C262.603 138.166 262.184 137.194 261.345 136.524C260.52 135.84 259.43 135.465 258.074 135.398V143.381C259.458 143.287 260.555 142.925 261.366 142.295C262.191 141.651 262.603 140.7 262.603 139.44ZM256.103 143.381V135.398C254.747 135.465 253.65 135.84 252.811 136.524C251.986 137.194 251.574 138.166 251.574 139.44C251.574 140.7 251.979 141.651 252.79 142.295C253.615 142.925 254.719 143.287 256.103 143.381Z" fill="black"/>
<path d="M273.22 132C275.484 132 277.246 132.684 278.504 134.051C279.762 135.405 280.391 137.181 280.391 139.379C280.391 141.591 279.769 143.414 278.525 144.849C277.281 146.283 275.519 147 273.241 147C272.08 147 271.039 146.799 270.116 146.397C269.194 145.995 268.439 145.438 267.852 144.728C267.279 144.017 266.838 143.206 266.531 142.295C266.237 141.383 266.091 140.398 266.091 139.339C266.091 137.101 266.734 135.318 268.02 133.991C269.32 132.664 271.053 132 273.22 132ZM273.22 133.649C271.556 133.649 270.277 134.212 269.383 135.338C268.502 136.45 268.062 137.831 268.062 139.48C268.062 141.276 268.53 142.71 269.466 143.783C270.417 144.842 271.682 145.371 273.262 145.371C274.827 145.371 276.078 144.835 277.015 143.763C277.951 142.69 278.42 141.263 278.42 139.48C278.42 137.71 277.944 136.296 276.994 135.237C276.057 134.178 274.799 133.649 273.22 133.649Z" fill="black"/>
<path d="M294.686 132.342V146.658H292.715V139.962H284.831V146.658H282.86V132.342H284.831V138.314H292.715V132.342H294.686Z" fill="black"/>
<path d="M304.262 132.342L310.091 146.658H307.889L306.233 142.275H299.963L298.265 146.658H296.168L302.039 132.342H304.262ZM305.646 140.767L303.108 134.151L300.529 140.767H305.646Z" fill="black"/>
<path d="M314 144.426V146.658H311.673V144.426H314ZM314 136.283V138.515H311.673V136.283H314Z" fill="black"/>
<path d="M343.945 316C347.103 316 349.56 316.957 351.315 318.871C353.07 320.767 353.948 323.253 353.948 326.331C353.948 329.428 353.08 331.98 351.345 333.988C349.609 335.996 347.152 337 343.974 337C342.355 337 340.903 336.718 339.616 336.155C338.329 335.592 337.276 334.814 336.457 333.819C335.657 332.824 335.043 331.689 334.614 330.413C334.205 329.137 334 327.757 334 326.275C334 323.141 334.897 320.645 336.691 318.787C338.504 316.929 340.922 316 343.945 316ZM343.945 318.308C341.624 318.308 339.84 319.097 338.592 320.673C337.364 322.231 336.749 324.164 336.749 326.472C336.749 328.987 337.403 330.995 338.709 332.496C340.035 333.979 341.8 334.72 344.003 334.72C346.187 334.72 347.932 333.969 349.239 332.468C350.545 330.966 351.198 328.968 351.198 326.472C351.198 323.995 350.535 322.015 349.209 320.532C347.903 319.05 346.148 318.308 343.945 318.308Z" fill="black"/>
<path d="M371.327 316.479V318.787H364.336V336.521H361.587V318.787H354.597V316.479H371.327Z" fill="black"/>
<path d="M390.17 316.479V336.521H387.42V318.787H376.423V336.521H373.673V316.479H390.17Z" fill="black"/>
<path d="M394.898 316.479H403.468C405.594 316.479 407.28 316.948 408.528 317.886C409.776 318.806 410.4 320.26 410.4 322.249C410.4 326.284 408.031 328.302 403.293 328.302H397.648V336.521H394.898V316.479ZM397.648 318.759V326.078H402.942C404.424 326.078 405.574 325.815 406.393 325.29C407.232 324.745 407.651 323.788 407.651 322.418C407.651 321.649 407.514 321.011 407.241 320.504C406.988 319.997 406.608 319.622 406.101 319.378C405.594 319.134 405.067 318.975 404.521 318.899C403.975 318.806 403.322 318.759 402.562 318.759H397.648Z" fill="black"/>
<path d="M420.322 316.479L428.453 336.521H425.382L423.071 330.385H414.326L411.957 336.521H409.032L417.222 316.479H420.322ZM422.252 328.273L418.713 319.012L415.116 328.273H422.252Z" fill="black"/>
<path d="M430.543 316.479H439.434C441.345 316.479 442.925 316.882 444.173 317.689C445.44 318.496 446.074 319.763 446.074 321.489C446.074 322.484 445.791 323.375 445.226 324.164C444.68 324.933 443.939 325.477 443.003 325.796C444.29 326.078 445.274 326.66 445.957 327.542C446.659 328.424 447.01 329.531 447.01 330.863C447.01 334.635 444.377 336.521 439.113 336.521H430.543V316.479ZM433.234 318.731V325.064H438.177C438.742 325.064 439.22 325.055 439.61 325.036C440.019 324.999 440.477 324.924 440.984 324.811C441.491 324.698 441.891 324.539 442.184 324.332C442.496 324.107 442.759 323.788 442.973 323.375C443.207 322.962 443.324 322.465 443.324 321.883C443.324 321.302 443.227 320.814 443.032 320.42C442.837 320.007 442.603 319.697 442.33 319.491C442.057 319.265 441.677 319.097 441.189 318.984C440.721 318.871 440.292 318.806 439.902 318.787C439.532 318.749 439.044 318.731 438.44 318.731H433.234ZM433.234 327.147V334.298H438.732C439.415 334.298 439.97 334.288 440.399 334.269C440.828 334.232 441.306 334.147 441.833 334.016C442.379 333.885 442.808 333.697 443.12 333.453C443.432 333.19 443.695 332.824 443.909 332.355C444.124 331.867 444.231 331.286 444.231 330.61C444.231 330.047 444.153 329.559 443.997 329.146C443.861 328.733 443.617 328.405 443.266 328.161C442.934 327.917 442.613 327.72 442.301 327.57C442.008 327.42 441.579 327.316 441.014 327.26C440.448 327.204 440.009 327.176 439.698 327.176C439.386 327.157 438.908 327.147 438.264 327.147H433.234Z" fill="black"/>
<path d="M450.565 336.521V316.479H453.315V333.453H453.373L463.581 316.479H467.062V336.521H464.312V319.491H464.254L454.017 336.521H450.565Z" fill="black"/>
<path d="M486.123 316.479V318.787H479.132V336.521H476.383V318.787H469.392V316.479H486.123Z" fill="black"/>
<path d="M504 330.582C504 332.458 503.435 333.922 502.304 334.973C501.192 336.005 499.622 336.521 497.595 336.521H488.469V316.479H491.218V324.614H497.595C499.642 324.614 501.221 325.139 502.333 326.19C503.444 327.223 504 328.686 504 330.582ZM501.221 330.582C501.221 328.123 499.7 326.894 496.659 326.894H491.218V334.213H496.659C499.7 334.213 501.221 333.003 501.221 330.582Z" fill="black"/>
<path d="M128.964 202.342V216.658H126.97V203.991H118.994V216.658H117V202.342H128.964Z" fill="black"/>
<path d="M138.672 202C140.963 202 142.745 202.684 144.017 204.051C145.29 205.405 145.926 207.181 145.926 209.379C145.926 211.591 145.297 213.414 144.039 214.849C142.78 216.283 140.998 217 138.693 217C137.519 217 136.466 216.799 135.533 216.397C134.599 215.995 133.836 215.438 133.242 214.728C132.662 214.017 132.216 213.206 131.905 212.295C131.608 211.383 131.46 210.398 131.46 209.339C131.46 207.101 132.11 205.318 133.411 203.991C134.726 202.664 136.48 202 138.672 202ZM138.672 203.649C136.989 203.649 135.695 204.212 134.79 205.338C133.899 206.45 133.454 207.831 133.454 209.48C133.454 211.276 133.927 212.71 134.875 213.783C135.837 214.842 137.116 215.371 138.714 215.371C140.298 215.371 141.564 214.835 142.511 213.763C143.459 212.69 143.933 211.263 143.933 209.48C143.933 207.71 143.452 206.296 142.49 205.237C141.543 204.178 140.27 203.649 138.672 203.649Z" fill="black"/>
<path d="M159.243 216.658H157.249V210.284C155.707 210.619 154.307 210.787 153.049 210.787C152.172 210.787 151.394 210.686 150.715 210.485C150.051 210.271 149.535 210.016 149.167 209.721C148.813 209.413 148.523 209.051 148.297 208.635C148.071 208.22 147.922 207.845 147.852 207.509C147.781 207.161 147.746 206.799 147.746 206.424V202.342H149.74V206.263C149.74 206.544 149.754 206.799 149.782 207.027C149.824 207.241 149.909 207.489 150.037 207.771C150.164 208.039 150.341 208.267 150.567 208.454C150.793 208.642 151.118 208.803 151.543 208.937C151.967 209.058 152.469 209.118 153.049 209.118C154.321 209.118 155.721 208.957 157.249 208.635V202.342H159.243V216.658Z" fill="black"/>
<path d="M173.052 202.342V203.991H167.982V216.658H165.988V203.991H160.918V202.342H173.052Z" fill="black"/>
<path d="M179.148 202.342L185.045 216.658H182.818L181.142 212.275H174.8L173.082 216.658H170.96L176.9 202.342H179.148ZM180.548 210.767L177.982 204.151L175.373 210.767H180.548Z" fill="black"/>
<path d="M189 214.426V216.658H186.645V214.426H189ZM189 206.283V208.515H186.645V206.283H189Z" fill="black"/>
</svg>
