<svg width="843" height="327" viewBox="0 0 843 327" fill="none" xmlns="http://www.w3.org/2000/svg">
<rect x="1" y="1" width="841" height="325" fill="white" stroke="black" stroke-width="2"/>
<rect x="283" y="200" width="276" height="77" fill="#D597C3" stroke="black" stroke-width="2"/>
<line x1="117" y1="93" x2="724" y2="93" stroke="black" stroke-width="2"/>
<line x1="117" y1="144" x2="724" y2="144" stroke="black" stroke-width="2"/>
<path d="M129.832 61.3874V77.6126H127.86V63.256H119.972V77.6126H118V61.3874H129.832Z" fill="black"/>
<path d="M139.433 61C141.699 61 143.461 61.7748 144.72 63.3244C145.978 64.8588 146.608 66.8718 146.608 69.3633C146.608 71.87 145.985 73.9361 144.741 75.5617C143.496 77.1872 141.734 78 139.454 78C138.293 78 137.251 77.7721 136.328 77.3164C135.405 76.8606 134.65 76.2301 134.063 75.4249C133.489 74.6198 133.049 73.7006 132.741 72.6676C132.447 71.6345 132.301 70.5179 132.301 69.3177C132.301 66.7806 132.944 64.7601 134.231 63.256C135.531 61.752 137.265 61 139.433 61ZM139.433 62.8686C137.769 62.8686 136.489 63.5067 135.594 64.7828C134.713 66.0438 134.273 67.6086 134.273 69.4772C134.273 71.513 134.741 73.1385 135.678 74.3539C136.629 75.5541 137.895 76.1542 139.475 76.1542C141.042 76.1542 142.293 75.5465 143.23 74.3311C144.167 73.1157 144.636 71.4978 144.636 69.4772C144.636 67.4718 144.16 65.8691 143.209 64.6689C142.272 63.4687 141.014 62.8686 139.433 62.8686Z" fill="black"/>
<path d="M160.092 61.3874V77.6126H158.12V63.256H152.603L152.309 72.3941C152.253 74.0956 151.931 75.4477 151.344 76.4504C150.771 77.4531 149.938 77.9544 148.848 77.9544C148.4 77.9544 147.925 77.8481 147.421 77.6354V75.8123C147.645 75.9643 148.001 76.0402 148.491 76.0402C148.897 76.0402 149.218 75.9415 149.456 75.744C149.708 75.5313 149.924 75.0603 150.106 74.3311C150.302 73.6019 150.414 72.584 150.442 71.2775L150.715 61.3874H160.092Z" fill="black"/>
<path d="M175.271 61.3874V77.6126H173.299V70.0241H165.411V77.6126H163.44V61.3874H165.411V68.1555H173.299V61.3874H175.271Z" fill="black"/>
<path d="M184.873 61C187.138 61 188.901 61.7748 190.159 63.3244C191.418 64.8588 192.047 66.8718 192.047 69.3633C192.047 71.87 191.425 73.9361 190.18 75.5617C188.936 77.1872 187.173 78 184.894 78C183.733 78 182.691 77.7721 181.768 77.3164C180.845 76.8606 180.09 76.2301 179.502 75.4249C178.929 74.6198 178.488 73.7006 178.181 72.6676C177.887 71.6345 177.74 70.5179 177.74 69.3177C177.74 66.7806 178.383 64.7601 179.67 63.256C180.971 61.752 182.705 61 184.873 61ZM184.873 62.8686C183.208 62.8686 181.929 63.5067 181.034 64.7828C180.153 66.0438 179.712 67.6086 179.712 69.4772C179.712 71.513 180.181 73.1385 181.118 74.3539C182.069 75.5541 183.334 76.1542 184.915 76.1542C186.481 76.1542 187.733 75.5465 188.67 74.3311C189.607 73.1157 190.075 71.4978 190.075 69.4772C190.075 67.4718 189.6 65.8691 188.649 64.6689C187.712 63.4687 186.453 62.8686 184.873 62.8686Z" fill="black"/>
<path d="M204.86 61.3874V63.256H196.49V68.3378H204.315V70.1381H196.49V75.744H204.965V77.6126H194.518V61.3874H204.86Z" fill="black"/>
<path d="M213.181 77.6126V61.3874H215.153V75.1287H215.195L222.517 61.3874H225.013V77.6126H223.041V63.8257H222.999L215.657 77.6126H213.181Z" fill="black"/>
<path d="M228.342 61.3874H231.069L235.873 75.1287L240.509 61.3874H243.258V77.6126H241.39V64.0764L236.712 77.6126H234.992L230.23 64.0764V77.6126H228.342V61.3874Z" fill="black"/>
<path d="M252.217 70.685L247.287 77.6126H244.854L249.847 70.6166C248.658 70.4495 247.742 69.9786 247.099 69.2038C246.455 68.429 246.134 67.3731 246.134 66.0362C246.134 64.5322 246.546 63.3852 247.371 62.5952C248.21 61.79 249.371 61.3874 250.854 61.3874H257.273V77.6126H255.301V70.685H252.217ZM255.301 68.8619V63.2105H251.525C249.259 63.2105 248.126 64.1524 248.126 66.0362C248.126 67.92 249.259 68.8619 251.525 68.8619H255.301Z" fill="black"/>
<path d="M263 75.0831V77.6126H260.671V75.0831H263ZM263 65.8539V68.3834H260.671V65.8539H263Z" fill="black"/>
<path d="M344.869 226C348.004 226 350.443 227.003 352.184 229.008C353.926 230.994 354.797 233.599 354.797 236.823C354.797 240.067 353.936 242.741 352.213 244.845C350.491 246.948 348.053 248 344.898 248C343.292 248 341.85 247.705 340.573 247.115C339.296 246.525 338.251 245.71 337.438 244.668C336.645 243.626 336.035 242.436 335.61 241.099C335.203 239.762 335 238.317 335 236.764C335 233.481 335.89 230.866 337.671 228.92C339.47 226.973 341.87 226 344.869 226ZM344.869 228.418C342.566 228.418 340.796 229.244 339.557 230.895C338.338 232.527 337.729 234.552 337.729 236.971C337.729 239.605 338.377 241.709 339.673 243.281C340.989 244.835 342.741 245.611 344.927 245.611C347.095 245.611 348.827 244.825 350.123 243.252C351.42 241.679 352.068 239.585 352.068 236.971C352.068 234.375 351.41 232.301 350.094 230.748C348.798 229.195 347.056 228.418 344.869 228.418Z" fill="black"/>
<path d="M377.576 236.912C377.576 239.507 376.706 241.502 374.964 242.898C373.222 244.274 371.084 244.962 368.549 244.962V247.499H365.82V244.962C363.305 244.962 361.166 244.255 359.405 242.839C357.664 241.424 356.793 239.448 356.793 236.912C356.793 234.375 357.673 232.38 359.434 230.925C361.195 229.45 363.324 228.713 365.82 228.713V226.501H368.549V228.713C371.084 228.713 373.222 229.441 374.964 230.895C376.706 232.35 377.576 234.356 377.576 236.912ZM374.819 236.912C374.819 235.044 374.238 233.618 373.077 232.635C371.935 231.633 370.426 231.082 368.549 230.984V242.692C370.465 242.554 371.984 242.023 373.106 241.099C374.248 240.155 374.819 238.76 374.819 236.912ZM365.82 242.692V230.984C363.943 231.082 362.424 231.633 361.263 232.635C360.121 233.618 359.55 235.044 359.55 236.912C359.55 238.76 360.112 240.155 361.234 241.099C362.376 242.023 363.905 242.554 365.82 242.692Z" fill="black"/>
<path d="M389.516 226C392.651 226 395.089 227.003 396.831 229.008C398.573 230.994 399.443 233.599 399.443 236.823C399.443 240.067 398.582 242.741 396.86 244.845C395.138 246.948 392.699 248 389.545 248C387.939 248 386.497 247.705 385.22 247.115C383.943 246.525 382.898 245.71 382.085 244.668C381.292 243.626 380.682 242.436 380.256 241.099C379.85 239.762 379.647 238.317 379.647 236.764C379.647 233.481 380.537 230.866 382.317 228.92C384.117 226.973 386.516 226 389.516 226ZM389.516 228.418C387.213 228.418 385.442 229.244 384.204 230.895C382.985 232.527 382.375 234.552 382.375 236.971C382.375 239.605 383.024 241.709 384.32 243.281C385.636 244.835 387.387 245.611 389.574 245.611C391.741 245.611 393.473 244.825 394.77 243.252C396.067 241.679 396.715 239.585 396.715 236.971C396.715 234.375 396.057 232.301 394.741 230.748C393.444 229.195 391.703 228.418 389.516 228.418Z" fill="black"/>
<path d="M402.978 226.501H411.483C413.592 226.501 415.266 226.993 416.505 227.976C417.743 228.939 418.362 230.463 418.362 232.547C418.362 236.774 416.011 238.887 411.309 238.887H405.706V247.499H402.978V226.501ZM405.706 228.89V236.558H410.96C412.431 236.558 413.573 236.282 414.386 235.732C415.218 235.162 415.634 234.159 415.634 232.724C415.634 231.918 415.498 231.249 415.227 230.718C414.976 230.188 414.599 229.794 414.095 229.539C413.592 229.283 413.07 229.116 412.528 229.038C411.986 228.939 411.338 228.89 410.583 228.89H405.706Z" fill="black"/>
<path d="M421.713 226.501H425.487L432.134 244.284L438.549 226.501H442.352V247.499H439.768V229.981L433.295 247.499H430.915L424.326 229.981V247.499H421.713V226.501Z" fill="black"/>
<path d="M446.97 247.499V226.501H449.698V244.284H449.756L459.887 226.501H463.341V247.499H460.613V229.657H460.555L450.395 247.499H446.97Z" fill="black"/>
<path d="M482.258 226.501V228.92H475.32V247.499H472.592V228.92H465.654V226.501H482.258Z" fill="black"/>
<path d="M500 241.276C500 243.242 499.439 244.776 498.316 245.877C497.213 246.958 495.656 247.499 493.643 247.499H484.586V226.501H487.315V235.024H493.643C495.675 235.024 497.242 235.575 498.345 236.676C499.448 237.757 500 239.29 500 241.276ZM497.242 241.276C497.242 238.701 495.733 237.413 492.714 237.413H487.315V245.08H492.714C495.733 245.08 497.242 243.812 497.242 241.276Z" fill="black"/>
<path d="M129.631 116.365V131.635H127.693V118.123H119.939V131.635H118V116.365H129.631Z" fill="black"/>
<path d="M139.07 116C141.297 116 143.03 116.729 144.267 118.188C145.504 119.632 146.123 121.526 146.123 123.871C146.123 126.231 145.511 128.175 144.287 129.705C143.064 131.235 141.332 132 139.091 132C137.949 132 136.925 131.786 136.018 131.357C135.11 130.928 134.368 130.334 133.79 129.576C133.227 128.819 132.794 127.954 132.491 126.981C132.203 126.009 132.058 124.958 132.058 123.828C132.058 121.441 132.691 119.539 133.955 118.123C135.234 116.708 136.939 116 139.07 116ZM139.07 117.759C137.434 117.759 136.176 118.359 135.296 119.56C134.43 120.747 133.997 122.22 133.997 123.979C133.997 125.895 134.457 127.424 135.378 128.568C136.313 129.698 137.558 130.263 139.111 130.263C140.651 130.263 141.882 129.691 142.803 128.547C143.724 127.403 144.184 125.88 144.184 123.979C144.184 122.091 143.717 120.583 142.782 119.453C141.861 118.324 140.624 117.759 139.07 117.759Z" fill="black"/>
<path d="M159.069 131.635H157.131V124.836C155.632 125.194 154.271 125.373 153.047 125.373C152.195 125.373 151.439 125.265 150.779 125.051C150.133 124.822 149.631 124.55 149.273 124.236C148.93 123.907 148.648 123.521 148.428 123.078C148.208 122.634 148.064 122.234 147.995 121.877C147.926 121.505 147.892 121.119 147.892 120.718V116.365H149.83V120.547C149.83 120.847 149.844 121.119 149.871 121.362C149.913 121.591 149.995 121.855 150.119 122.155C150.243 122.441 150.415 122.685 150.634 122.885C150.854 123.085 151.171 123.256 151.583 123.399C151.996 123.528 152.484 123.592 153.047 123.592C154.285 123.592 155.646 123.421 157.131 123.078V116.365H159.069V131.635Z" fill="black"/>
<path d="M172.495 116.365V118.123H167.566V131.635H165.627V118.123H160.698V116.365H172.495Z" fill="black"/>
<path d="M178.422 116.365L184.155 131.635H181.99L180.361 126.96H174.194L172.524 131.635H170.462L176.236 116.365H178.422ZM179.783 125.351L177.288 118.295L174.751 125.351H179.783Z" fill="black"/>
<path d="M188 129.255V131.635H185.711V129.255H188ZM188 120.568V122.949H185.711V120.568H188Z" fill="black"/>
</svg>
