<svg width="1524" height="265" viewBox="0 0 1524 265" fill="none" xmlns="http://www.w3.org/2000/svg">
<path d="M12.448 96.5563H0V2.25166H61.9751V13.1126H12.448V96.5563Z" fill="black"/>
<path d="M72.4201 96.5563V2.25166H84.8681V82.1192H85.133L131.349 2.25166H147.108V96.5563H134.66V16.4238H134.395L88.0463 96.5563H72.4201Z" fill="black"/>
<path d="M251.02 120H238.969V96.5563H170.77V120H158.719V85.6954H167.989C171.608 79.2495 174.566 70.0221 176.861 58.0132C179.157 45.9161 180.304 33.4216 180.304 20.5298V2.25166H240.558V85.6954H251.02V120ZM228.11 85.6954V13.1126H192.488V25.9603C192.488 37.351 191.428 48.6534 189.309 59.8676C187.279 70.9934 184.763 79.6027 181.761 85.6954H228.11Z" fill="black"/>
<path d="M375.102 2.25166V96.5563H362.654V13.1126H312.862V96.5563H300.414V2.25166H375.102Z" fill="black"/>
<path d="M435.711 0C450.012 0 461.136 4.50331 469.082 13.5099C477.027 22.4283 481 34.128 481 48.6093C481 63.1788 477.071 75.1876 469.214 84.6358C461.357 94.0839 450.233 98.8079 435.843 98.8079C428.515 98.8079 421.938 97.4834 416.112 94.8344C410.285 92.1854 405.518 88.521 401.81 83.8411C398.19 79.1612 395.409 73.819 393.467 67.8146C391.613 61.8102 390.686 55.3201 390.686 48.3444C390.686 33.5982 394.747 21.8543 402.869 13.1126C411.079 4.37086 422.027 0 435.711 0ZM435.711 10.8609C425.205 10.8609 417.127 14.5695 411.477 21.9868C405.915 29.3157 403.134 38.4106 403.134 49.2715C403.134 61.1038 406.091 70.5519 412.006 77.6159C418.01 84.5916 425.999 88.0795 435.975 88.0795C445.863 88.0795 453.765 84.5475 459.68 77.4834C465.595 70.4194 468.552 61.0155 468.552 49.2715C468.552 37.6159 465.55 28.3002 459.547 21.3245C453.632 14.3488 445.687 10.8609 435.711 10.8609Z" fill="black"/>
<path d="M851.191 168.849V179.679H801.491V209H845.344V219.434H801.491V262.887H789V168.849H851.191Z" fill="black"/>
<path d="M878.196 168.849V262.887H865.705V168.849H878.196Z" fill="black"/>
<path d="M899.563 168.849H941.157C962.33 168.849 972.917 177.522 972.917 194.868C972.917 200.327 971.411 205.17 968.399 209.396C965.475 213.535 961.577 216.308 956.705 217.717C959.894 218.421 962.463 219.434 964.412 220.755C966.361 222.075 967.779 223.925 968.665 226.302C969.551 228.679 970.127 230.792 970.392 232.642C970.658 234.491 970.88 237.22 971.057 240.83C971.057 241.182 971.101 242.063 971.19 243.472C971.278 244.792 971.322 245.717 971.322 246.245C971.322 246.686 971.367 247.522 971.455 248.755C971.633 249.987 971.765 250.912 971.854 251.528C971.943 252.145 972.076 252.981 972.253 254.038C972.43 255.094 972.651 255.975 972.917 256.679C973.183 257.296 973.493 258.044 973.847 258.925C974.202 259.717 974.6 260.465 975.043 261.17C975.486 261.786 975.974 262.358 976.505 262.887H962.153C961.533 262.006 961.002 260.906 960.559 259.585C960.204 258.264 959.938 256.723 959.761 254.962C959.584 253.113 959.451 251.66 959.363 250.604C959.274 249.459 959.185 247.83 959.097 245.717C959.008 243.604 958.964 242.415 958.964 242.151C958.521 234.138 956.838 228.811 953.914 226.17C951.079 223.528 945.409 222.208 936.905 222.208H912.055V262.887H899.563V168.849ZM912.055 179.415V212.302H935.576C938.499 212.302 940.936 212.214 942.885 212.038C944.922 211.862 947.137 211.465 949.529 210.849C951.921 210.233 953.826 209.352 955.243 208.208C956.749 207.063 957.989 205.434 958.964 203.321C959.938 201.208 960.426 198.654 960.426 195.66C960.426 189.321 958.477 185.05 954.579 182.849C950.769 180.56 945.542 179.415 938.898 179.415H912.055Z" fill="black"/>
<path d="M1056.05 168.849V179.679H1003.03V209.132H1052.59V219.566H1003.03V252.057H1056.71V262.887H990.534V168.849H1056.05Z" fill="black"/>
<path d="M1109.29 168.849H1148.22C1157.88 168.849 1165.54 171.05 1171.21 175.453C1176.88 179.767 1179.72 186.591 1179.72 195.925C1179.72 214.855 1168.96 224.321 1147.43 224.321H1121.78V262.887H1109.29V168.849ZM1121.78 179.547V213.887H1145.83C1152.57 213.887 1157.79 212.654 1161.51 210.189C1165.32 207.635 1167.23 203.145 1167.23 196.717C1167.23 193.107 1166.61 190.113 1165.37 187.736C1164.22 185.358 1162.49 183.597 1160.18 182.453C1157.88 181.308 1155.49 180.56 1153.01 180.208C1150.53 179.767 1147.56 179.547 1144.11 179.547H1121.78Z" fill="black"/>
<path d="M1194.93 168.849H1236.52C1257.69 168.849 1268.28 177.522 1268.28 194.868C1268.28 200.327 1266.77 205.17 1263.76 209.396C1260.84 213.535 1256.94 216.308 1252.07 217.717C1255.26 218.421 1257.83 219.434 1259.78 220.755C1261.72 222.075 1263.14 223.925 1264.03 226.302C1264.91 228.679 1265.49 230.792 1265.76 232.642C1266.02 234.491 1266.24 237.22 1266.42 240.83C1266.42 241.182 1266.46 242.063 1266.55 243.472C1266.64 244.792 1266.69 245.717 1266.69 246.245C1266.69 246.686 1266.73 247.522 1266.82 248.755C1267 249.987 1267.13 250.912 1267.22 251.528C1267.31 252.145 1267.44 252.981 1267.62 254.038C1267.79 255.094 1268.01 255.975 1268.28 256.679C1268.55 257.296 1268.86 258.044 1269.21 258.925C1269.56 259.717 1269.96 260.465 1270.41 261.17C1270.85 261.786 1271.34 262.358 1271.87 262.887H1257.52C1256.9 262.006 1256.36 260.906 1255.92 259.585C1255.57 258.264 1255.3 256.723 1255.12 254.962C1254.95 253.113 1254.81 251.66 1254.73 250.604C1254.64 249.459 1254.55 247.83 1254.46 245.717C1254.37 243.604 1254.33 242.415 1254.33 242.151C1253.88 234.138 1252.2 228.811 1249.28 226.17C1246.44 223.528 1240.77 222.208 1232.27 222.208H1207.42V262.887H1194.93V168.849ZM1207.42 179.415V212.302H1230.94C1233.86 212.302 1236.3 212.214 1238.25 212.038C1240.29 211.862 1242.5 211.465 1244.89 210.849C1247.28 210.233 1249.19 209.352 1250.61 208.208C1252.11 207.063 1253.35 205.434 1254.33 203.321C1255.3 201.208 1255.79 198.654 1255.79 195.66C1255.79 189.321 1253.84 185.05 1249.94 182.849C1246.13 180.56 1240.91 179.415 1234.26 179.415H1207.42Z" fill="black"/>
<path d="M1351.41 168.849V179.679H1298.39V209.132H1347.96V219.566H1298.39V252.057H1352.07V262.887H1285.9V168.849H1351.41Z" fill="black"/>
<path d="M1434.11 196.453H1422.02C1420.69 183.686 1412.85 177.302 1398.5 177.302C1391.67 177.302 1386.4 178.667 1382.68 181.396C1378.96 184.126 1377.1 187.956 1377.1 192.887C1377.1 194.648 1377.37 196.189 1377.9 197.509C1378.43 198.83 1379.32 200.019 1380.56 201.075C1381.89 202.044 1383.13 202.881 1384.28 203.585C1385.43 204.289 1387.25 204.994 1389.73 205.698C1392.21 206.403 1394.2 206.931 1395.71 207.283C1397.21 207.547 1399.56 208.031 1402.75 208.736C1406.65 209.528 1409.88 210.277 1412.45 210.981C1415.02 211.597 1418.07 212.654 1421.62 214.151C1425.16 215.648 1427.95 217.321 1429.99 219.17C1432.12 220.931 1433.93 223.308 1435.44 226.302C1437.03 229.296 1437.83 232.686 1437.83 236.472C1437.83 243.075 1435.97 248.623 1432.25 253.113C1428.53 257.516 1424.01 260.597 1418.7 262.358C1413.38 264.119 1407.49 265 1401.02 265C1389.15 265 1379.63 262.226 1372.45 256.679C1365.36 251.044 1361.82 242.767 1361.82 231.849H1373.91C1374.18 239.862 1376.88 245.717 1382.02 249.415C1387.16 253.025 1393.85 254.83 1402.08 254.83C1408.55 254.83 1414.09 253.509 1418.7 250.868C1423.3 248.138 1425.61 243.736 1425.61 237.66C1425.61 234.843 1424.99 232.465 1423.74 230.528C1422.5 228.503 1420.56 226.874 1417.9 225.642C1415.24 224.321 1412.58 223.264 1409.92 222.472C1407.27 221.679 1403.77 220.799 1399.43 219.83C1398.81 219.742 1398.36 219.654 1398.1 219.566C1388.35 217.365 1381.97 215.604 1378.96 214.283C1369.75 210.321 1365.14 203.497 1365.14 193.811C1365.14 184.83 1368.46 178.138 1375.11 173.736C1381.84 169.245 1389.95 167 1399.43 167C1409.79 167 1418.07 169.465 1424.28 174.396C1430.48 179.327 1433.76 186.679 1434.11 196.453Z" fill="black"/>
<path d="M1520.28 196.453H1508.19C1506.86 183.686 1499.02 177.302 1484.67 177.302C1477.84 177.302 1472.57 178.667 1468.85 181.396C1465.13 184.126 1463.27 187.956 1463.27 192.887C1463.27 194.648 1463.54 196.189 1464.07 197.509C1464.6 198.83 1465.49 200.019 1466.73 201.075C1468.05 202.044 1469.29 202.881 1470.45 203.585C1471.6 204.289 1473.41 204.994 1475.89 205.698C1478.38 206.403 1480.37 206.931 1481.87 207.283C1483.38 207.547 1485.73 208.031 1488.92 208.736C1492.82 209.528 1496.05 210.277 1498.62 210.981C1501.19 211.597 1504.24 212.654 1507.79 214.151C1511.33 215.648 1514.12 217.321 1516.16 219.17C1518.29 220.931 1520.1 223.308 1521.61 226.302C1523.2 229.296 1524 232.686 1524 236.472C1524 243.075 1522.14 248.623 1518.42 253.113C1514.7 257.516 1510.18 260.597 1504.86 262.358C1499.55 264.119 1493.66 265 1487.19 265C1475.32 265 1465.8 262.226 1458.62 256.679C1451.53 251.044 1447.99 242.767 1447.99 231.849H1460.08C1460.35 239.862 1463.05 245.717 1468.19 249.415C1473.33 253.025 1480.01 254.83 1488.25 254.83C1494.72 254.83 1500.26 253.509 1504.86 250.868C1509.47 248.138 1511.77 243.736 1511.77 237.66C1511.77 234.843 1511.15 232.465 1509.91 230.528C1508.67 228.503 1506.72 226.874 1504.07 225.642C1501.41 224.321 1498.75 223.264 1496.09 222.472C1493.44 221.679 1489.94 220.799 1485.6 219.83C1484.98 219.742 1484.53 219.654 1484.27 219.566C1474.52 217.365 1468.14 215.604 1465.13 214.283C1455.92 210.321 1451.31 203.497 1451.31 193.811C1451.31 184.83 1454.63 178.138 1461.28 173.736C1468.01 169.245 1476.12 167 1485.6 167C1495.96 167 1504.24 169.465 1510.45 174.396C1516.65 179.327 1519.92 186.679 1520.28 196.453Z" fill="black"/>
</svg>
