<svg width="372" height="388" viewBox="0 0 372 388" fill="none" xmlns="http://www.w3.org/2000/svg">
<path d="M59.3125 165.547C52.9723 148.111 49.0255 128.98 53.2576 110.894C57.9335 90.9387 72.1513 74.7079 87.9542 62.4079C141.988 20.3885 220.892 17.155 277.969 54.6095C285.109 59.1178 291.873 64.1959 298.194 69.7943C306.795 77.7498 313.917 87.1682 319.228 97.6117C324.442 107.899 327.422 128.377 315.503 153.374C332.108 188.577 350.928 222.692 371.851 255.514L310.859 281.524C310.859 281.524 311.033 346.765 292.964 371.539C281.868 386.708 260.803 390.67 243.177 385.661C225.552 380.653 210.763 368.321 197.132 355.641C167.809 328.331 147.996 296.661 122.397 266.403C96.7987 236.144 72.9914 203.588 59.3125 165.547Z" fill="#2FAD74"/>
<path d="M286.369 263.075C282.906 262.033 279.677 260.333 276.859 258.067C273.227 254.753 270.935 250.222 270.418 245.333C269.901 240.443 271.194 235.533 274.053 231.533C277.575 227.27 282.378 224.258 287.748 222.942C294.062 221.253 300.702 221.207 307.038 222.808C313.375 224.409 319.196 227.603 323.95 232.088C328.366 236.099 331.298 241.483 332.272 247.368C332.703 250.301 332.343 253.297 331.228 256.044C330.113 258.792 328.285 261.192 325.932 262.996C316.628 269.336 296.228 266.309 286.369 263.075Z" fill="#ED603C"/>
<path d="M306.04 261.949C303.323 261.568 300.685 260.754 298.225 259.54C295.748 258.312 293.811 256.212 292.789 253.643C292.58 253.206 292.483 252.724 292.505 252.241C292.527 251.757 292.668 251.286 292.915 250.87C293.401 250.368 294.045 250.049 294.738 249.966C297.668 249.591 300.646 250.007 303.361 251.171C306.593 252.347 309.7 253.845 312.633 255.641C315.138 257.226 318.577 259.524 315.407 261.695C312.839 263.471 308.861 262.44 306.04 261.949Z" fill="black"/>
<path d="M291.453 179.074C294.046 165.506 274.534 150.376 247.87 145.28C221.207 140.184 197.49 147.052 194.897 160.62C192.303 174.188 211.816 189.319 238.48 194.415C265.143 199.511 288.86 192.642 291.453 179.074Z" fill="black"/>
<path d="M274.078 175.753C275.738 167.068 263.248 157.384 246.18 154.122C229.112 150.86 213.931 155.255 212.271 163.94C210.611 172.624 223.102 182.308 240.169 185.57C257.237 188.832 272.419 184.437 274.078 175.753Z" fill="white"/>
<path d="M245.031 186.34C249.741 186.34 253.559 182.522 253.559 177.813C253.559 173.103 249.741 169.285 245.031 169.285C240.322 169.285 236.504 173.103 236.504 177.813C236.504 182.522 240.322 186.34 245.031 186.34Z" fill="black"/>
<path d="M58.2185 109.003C44.7298 92.5185 32.2714 65.6679 35.489 43.6992C40.8623 44.3332 46.8696 47.8837 52.0368 49.8016C58.1234 52.0841 64.4636 54.2081 70.8037 56.0626C76.5891 57.6476 82.4379 59.0424 88.1441 60.9445C95.0707 63.2745 102.409 61.5627 109.479 62.7039C116.265 63.6656 122.678 66.3991 128.071 70.6291C129.621 71.9017 131.02 73.3483 132.24 74.9404C133.283 76.3751 134.236 77.8732 135.093 79.4261C137.55 83.674 140.007 87.5732 140.704 92.5185C141.338 97.1469 140.387 101.601 140.387 106.213C139.783 113.055 137.514 119.645 133.777 125.408C130.465 130.575 125.551 136.678 119.512 138.58C114.662 140.165 109.637 141.639 104.581 141.148C101.736 140.755 98.9447 140.042 96.2595 139.024C92.6064 137.551 89.1294 135.674 85.8933 133.428C82.3675 131.273 78.9746 128.907 75.7332 126.343C69.2658 121.235 63.3909 115.419 58.2185 109.003Z" fill="#ED603C"/>
<path d="M53.2726 50.2649C54.8576 33.3208 58.4874 24.714 59.6128 7.75409C55.0795 14.7441 50.1025 20.6246 45.5693 27.5671C43.6514 19.8321 38.5634 0.0507812 38.5634 0.0507812L36.8674 10.5913C35.9639 16.5828 35.2824 22.0829 34.3155 28.0268C28.3874 20.6722 14.0904 8.2613 14.0904 8.2613C14.0904 8.2613 17.2604 18.0727 23.6006 33.8439C15.6965 30.6949 7.84528 27.3452 0.046875 23.7947C7.24297 31.7199 15.5169 39.6451 22.9824 47.4277C22.9824 47.4277 2.97921 51.1684 0.791847 51.4537C0.791847 51.4537 24.8369 59.0302 35.5677 61.2017C35.9652 61.2761 36.368 61.3185 36.7723 61.3285C39.7204 61.4125 42.6589 60.9559 45.4425 59.9812C47.3373 59.3947 49.0984 58.4414 50.6256 57.1757C51.1322 56.5585 51.6032 55.9128 52.0363 55.242C52.6039 54.2693 52.9654 53.1902 53.0982 52.0719L53.2726 50.2649Z" fill="black"/>
<path d="M359.979 42.1647H360.787L357.221 105.994C347.044 91.402 338.115 75.9778 330.529 59.8855C329.356 79.0011 328.172 98.1167 326.978 117.232C315.902 102.101 305.988 86.152 297.322 69.5225C295.325 88.4479 293.296 107.564 294.976 126.584L270.027 80.0314C266.358 95.05 264.234 110.404 263.687 125.855C255.547 113.874 248.818 100.992 243.637 87.4652C239.991 101.635 237.043 115.964 234.792 130.452C224.789 114.505 217.003 97.2704 211.65 79.223C230.243 67.3035 249.533 60.5512 270.646 53.8623C270.646 53.8623 331.765 32.5593 360.755 42.1488" fill="black"/>
<path d="M294.299 350.434C323.309 339.588 342.729 319.834 337.673 306.313C332.618 292.792 305.002 290.624 275.992 301.47C246.982 312.317 227.563 332.07 232.618 345.592C237.674 359.113 265.289 361.281 294.299 350.434Z" fill="black"/>
<path d="M335.616 303.792C316.661 302.963 297.754 306.3 280.227 313.568C262.7 320.837 246.98 331.859 234.174 345.859C252.919 349.098 272.205 346.641 289.539 338.805C307.434 330.706 323.649 319.341 335.616 303.792Z" fill="white"/>
<path d="M301.982 303.729C303.995 312.621 302.965 321.64 296.783 326.87C290.601 332.101 279.855 334.066 273.007 331.483C270.982 330.791 269.109 329.715 267.492 328.313C265.563 326.292 263.916 324.021 262.594 321.56C262.991 319.19 263.882 316.929 265.209 314.924C266.536 312.92 268.269 311.217 270.297 309.926C277.473 305.157 286.192 303.293 294.691 304.711C295.271 304.88 295.886 304.88 296.466 304.711C296.901 304.488 297.305 304.211 297.671 303.887C299.05 302.825 300.429 303.602 301.982 303.729Z" fill="black"/>
<path d="M139.963 355.216C168.907 333.667 223.978 293.842 223.978 293.842L200.962 265.224L173.924 232.305L124.147 167.82C100.464 202.319 75.0054 236.654 51.3223 271.153C77.2368 297.507 104.308 328.39 130.239 354.744C131.264 356.008 132.65 356.929 134.213 357.383C136.314 357.839 138.285 356.471 139.963 355.216Z" fill="#EBFF00"/>
<path d="M77.613 178.451C81.0692 179.937 84.6095 181.217 88.2156 182.285C92.8163 183.603 96.9805 186.137 100.273 189.622C110.238 200.063 119.578 209.384 125.904 223.001C129.052 229.802 131.844 236.991 131.977 244.478C132.111 251.965 129.319 259.899 123.216 264.195C117.751 268.043 110.639 268.505 104.669 271.473C87.9186 279.825 86.597 302.794 78.7712 319.766C76.6774 324.33 73.5442 328.983 68.7032 330.311C63.8622 331.638 59.051 329.371 54.8188 326.895C38.6757 317.431 25.2547 303.92 15.8683 287.685C11.7698 280.571 8.44348 272.771 8.20588 264.568C7.6416 245.328 23.7089 223.821 32.4701 207.207C43.0876 186.923 55.3386 174.067 77.613 178.451Z" stroke="black" stroke-width="2" stroke-miterlimit="10"/>
<path d="M161.882 263.414C173.516 260.052 185.825 265.961 189.587 277.501C191.394 283.045 190.926 289.079 188.285 294.277C185.644 299.476 181.046 303.411 175.504 305.219C163.941 308.983 151.176 302.796 147.794 291.132C144.299 279.067 150.587 266.668 161.882 263.414Z" fill="black"/>
<path d="M164.726 302.417C171.847 302.478 177.667 297.043 177.725 290.278C177.782 283.513 172.056 277.979 164.935 277.919C157.814 277.858 151.994 283.293 151.937 290.058C151.879 296.823 157.605 302.357 164.726 302.417Z" fill="white"/>
<path d="M166.78 288.252C169.272 288.273 171.31 286.27 171.331 283.777C171.352 281.285 169.349 279.247 166.857 279.226C164.364 279.205 162.327 281.208 162.305 283.7C162.284 286.193 164.287 288.231 166.78 288.252Z" fill="black"/>
</svg>
