<svg width="565" height="485" viewBox="0 0 565 485" fill="none" xmlns="http://www.w3.org/2000/svg">
<path d="M465.184 160.135L548.991 200.311L496.465 262.003L496.011 262.537L496.358 263.147L536.456 333.552L446.627 357.394L446.059 357.544L445.914 358.114L427.101 432.154L334.057 408.831L333.616 408.721L333.243 408.981L262.359 458.327L201.923 396.627L201.604 396.302L201.15 396.328L105.389 401.889L100.715 325.639L100.679 325.053L100.149 324.799L16.3419 284.622L68.867 222.931L69.3216 222.397L68.9746 221.787L28.8764 151.382L118.706 127.54L119.274 127.39L119.419 126.82L138.231 52.7799L231.275 76.1025L231.717 76.2131L232.09 75.9532L302.973 26.6074L363.41 88.3071L363.728 88.632L364.182 88.6057L459.944 83.0448L464.618 159.294L464.654 159.881L465.184 160.135Z" fill="#2FAD74" stroke="black" stroke-width="2"/>
</svg>
