<svg width="43" height="38" viewBox="0 0 43 38" fill="none" xmlns="http://www.w3.org/2000/svg">
<path d="M21.1593 6.38805L21.9949 7.66281L22.8315 6.38876C26.2358 1.2048 31.0038 0.163859 34.8758 1.63296C38.807 3.1245 42 7.27114 42 12.8765C42 14.8313 40.949 17.2097 39.1527 19.8025C37.3776 22.3648 34.9734 24.998 32.4829 27.4352C29.9968 29.8681 27.4494 32.0818 25.4029 33.8076C24.6677 34.4276 24.0005 34.9818 23.4222 35.4622C23.1946 35.6512 22.9807 35.8288 22.7819 35.9945C22.4891 36.2386 22.2213 36.463 21.9896 36.6612C21.7463 36.4587 21.4641 36.2304 21.1563 35.9831C20.8691 35.7524 20.5541 35.501 20.2129 35.2287C19.6783 34.8022 19.0793 34.3242 18.4221 33.7938C16.2822 32.067 13.6106 29.8524 10.9999 27.4185C8.38455 24.9802 5.85694 22.3461 3.9902 19.7832C2.09897 17.1868 1 14.8156 1 12.8765C1 7.26422 4.40589 3.10199 8.60577 1.60563C12.7623 0.124718 17.7763 1.22684 21.1593 6.38805Z" fill="black" stroke="black" stroke-width="2"/>
</svg>
