<svg width="327" height="282" viewBox="0 0 327 282" fill="none" xmlns="http://www.w3.org/2000/svg">
<path d="M13.693 189V203.981H11.7158V196.974H3.80712V203.981H1.82994V189H3.80712V195.249H11.7158V189H13.693Z" fill="black"/>
<path d="M17.5565 194.365C18.51 193.327 19.8071 192.808 21.4477 192.808C23.0884 192.808 24.3644 193.306 25.2759 194.302C26.1874 195.298 26.6431 196.694 26.6431 198.489C26.6431 200.327 26.1874 201.758 25.2759 202.782C24.3644 203.806 23.0814 204.318 21.4267 204.318C19.772 204.318 18.475 203.813 17.5355 202.803C16.5959 201.793 16.1262 200.39 16.1262 198.595C16.1262 196.813 16.603 195.403 17.5565 194.365ZM23.8877 195.46C23.2847 194.688 22.4574 194.302 21.4057 194.302C20.354 194.302 19.5196 194.688 18.9027 195.46C18.2857 196.231 17.9772 197.262 17.9772 198.552C17.9772 199.885 18.2786 200.93 18.8816 201.688C19.4986 202.431 20.354 202.803 21.4477 202.803C22.4994 202.803 23.3197 202.424 23.9087 201.667C24.5117 200.909 24.8131 199.864 24.8131 198.531C24.8131 197.241 24.5047 196.217 23.8877 195.46Z" fill="black"/>
<path d="M28.73 203.981V193.124H33.7571C34.4723 193.124 35.0822 193.187 35.5871 193.313C36.0919 193.426 36.5336 193.685 36.9122 194.092C37.2908 194.499 37.4801 195.053 37.4801 195.754C37.4801 196.82 36.9472 197.599 35.8815 198.09V198.111C36.5266 198.237 37.0314 198.538 37.396 199.015C37.7606 199.478 37.9428 200.067 37.9428 200.783C37.9428 201.709 37.6343 202.473 37.0174 203.076C36.4004 203.679 35.6081 203.981 34.6405 203.981H28.73ZM33.5678 197.5C34.311 197.5 34.8368 197.381 35.1453 197.143C35.4679 196.89 35.6291 196.526 35.6291 196.049C35.6291 195.572 35.4749 195.221 35.1664 194.997C34.8579 194.772 34.325 194.66 33.5678 194.66H30.4758V197.5H33.5678ZM30.4758 199.015V202.445H34.304C34.8649 202.445 35.2996 202.277 35.6081 201.94C35.9306 201.603 36.0919 201.169 36.0919 200.636C36.0919 199.555 35.3907 199.015 33.9885 199.015H30.4758Z" fill="black"/>
<path d="M49.682 202.55V203.939C49.3174 204.079 48.9108 204.149 48.462 204.149C47.4384 204.149 46.9126 203.616 46.8845 202.55C45.8609 203.7 44.5498 204.276 42.9512 204.276C41.8855 204.276 41.0371 204.002 40.4061 203.455C39.7891 202.908 39.4806 202.157 39.4806 201.204C39.4806 199.268 40.7637 198.139 43.3298 197.816C43.4981 197.788 43.7435 197.76 44.066 197.732C45.2859 197.592 46.0361 197.43 46.3166 197.248C46.6391 197.024 46.8004 196.638 46.8004 196.091C46.8004 194.898 45.9801 194.302 44.3394 194.302C43.4981 194.302 42.86 194.478 42.4253 194.828C41.9906 195.165 41.7312 195.726 41.6471 196.512H39.9013C39.9293 195.347 40.343 194.443 41.1423 193.797C41.9416 193.152 43.0423 192.829 44.4446 192.829C45.973 192.829 47.1089 193.18 47.8521 193.881C48.0904 194.106 48.2657 194.4 48.3779 194.765C48.4901 195.13 48.5532 195.431 48.5672 195.67C48.5812 195.894 48.5882 196.238 48.5882 196.701C48.5882 197.234 48.5742 198.04 48.5462 199.121C48.5181 200.201 48.5041 201.007 48.5041 201.54C48.5041 201.933 48.5532 202.214 48.6513 202.382C48.7635 202.536 48.9598 202.613 49.2403 202.613C49.3525 202.613 49.4997 202.592 49.682 202.55ZM46.8004 198.342C46.6742 198.44 46.541 198.524 46.4007 198.595C46.2605 198.665 46.0782 198.721 45.8539 198.763C45.6435 198.805 45.4963 198.84 45.4121 198.868C45.342 198.882 45.1597 198.91 44.8653 198.952C44.5708 198.98 44.4165 198.994 44.4025 198.994C43.9678 199.05 43.6804 199.093 43.5401 199.121C43.4139 199.135 43.1615 199.191 42.7829 199.289C42.4183 199.387 42.1589 199.499 42.0047 199.626C41.8504 199.752 41.6962 199.941 41.5419 200.194C41.4017 200.432 41.3316 200.72 41.3316 201.056C41.3316 201.617 41.5209 202.059 41.8995 202.382C42.2921 202.705 42.825 202.866 43.4981 202.866C44.3534 202.866 45.1177 202.613 45.7908 202.108C46.4638 201.603 46.8004 201.007 46.8004 200.32V198.342Z" fill="black"/>
<path d="M59.9488 203.981H58.1609V199.541H55.7841L52.3556 203.981H49.9788L53.7228 199.478C52.9235 199.352 52.2715 199.015 51.7667 198.468C51.2759 197.907 51.0305 197.192 51.0305 196.322C51.0305 195.312 51.332 194.527 51.9349 193.966C52.5379 193.405 53.3722 193.124 54.4379 193.124H59.9488V203.981ZM58.1609 194.702H55.0059C53.5756 194.702 52.8604 195.242 52.8604 196.322C52.8604 197.416 53.5756 197.963 55.0059 197.963H58.1609V194.702Z" fill="black"/>
<path d="M76.9111 203.981H75.1232V199.184C74.8287 199.268 74.3099 199.373 73.5667 199.499C72.8375 199.612 72.2346 199.668 71.7578 199.668C70.65 199.668 69.7806 199.408 69.1496 198.889C68.5326 198.356 68.2241 197.578 68.2241 196.554V193.124H70.012V196.259C70.012 197.521 70.7061 198.153 72.0943 198.153C73.0899 198.153 74.0996 197.991 75.1232 197.669V193.124H76.9111V203.981Z" fill="black"/>
<path d="M89.2231 202.55V203.939C88.8585 204.079 88.4518 204.149 88.0031 204.149C86.9795 204.149 86.4536 203.616 86.4256 202.55C85.4019 203.7 84.0908 204.276 82.4923 204.276C81.4266 204.276 80.5782 204.002 79.9472 203.455C79.3302 202.908 79.0217 202.157 79.0217 201.204C79.0217 199.268 80.3047 198.139 82.8709 197.816C83.0391 197.788 83.2845 197.76 83.6071 197.732C84.827 197.592 85.5772 197.43 85.8577 197.248C86.1802 197.024 86.3415 196.638 86.3415 196.091C86.3415 194.898 85.5211 194.302 83.8805 194.302C83.0391 194.302 82.4011 194.478 81.9664 194.828C81.5317 195.165 81.2723 195.726 81.1882 196.512H79.4424C79.4704 195.347 79.8841 194.443 80.6834 193.797C81.4826 193.152 82.5834 192.829 83.9857 192.829C85.5141 192.829 86.65 193.18 87.3931 193.881C87.6315 194.106 87.8068 194.4 87.919 194.765C88.0312 195.13 88.0943 195.431 88.1083 195.67C88.1223 195.894 88.1293 196.238 88.1293 196.701C88.1293 197.234 88.1153 198.04 88.0873 199.121C88.0592 200.201 88.0452 201.007 88.0452 201.54C88.0452 201.933 88.0943 202.214 88.1924 202.382C88.3046 202.536 88.5009 202.613 88.7814 202.613C88.8936 202.613 89.0408 202.592 89.2231 202.55ZM86.3415 198.342C86.2153 198.44 86.082 198.524 85.9418 198.595C85.8016 198.665 85.6193 198.721 85.3949 198.763C85.1846 198.805 85.0374 198.84 84.9532 198.868C84.8831 198.882 84.7008 198.91 84.4063 198.952C84.1119 198.98 83.9576 198.994 83.9436 198.994C83.5089 199.05 83.2214 199.093 83.0812 199.121C82.955 199.135 82.7026 199.191 82.324 199.289C81.9594 199.387 81.7 199.499 81.5458 199.626C81.3915 199.752 81.2373 199.941 81.083 200.194C80.9428 200.432 80.8727 200.72 80.8727 201.056C80.8727 201.617 81.062 202.059 81.4406 202.382C81.8332 202.705 82.3661 202.866 83.0392 202.866C83.8945 202.866 84.6588 202.613 85.3318 202.108C86.0049 201.603 86.3415 201.007 86.3415 200.32V198.342Z" fill="black"/>
<path d="M100.247 200.025C100.093 201.33 99.5951 202.368 98.7537 203.139C97.9264 203.911 96.8466 204.297 95.5145 204.297C93.8739 204.297 92.6048 203.792 91.7074 202.782C90.8099 201.758 90.3612 200.397 90.3612 198.7C90.3612 196.89 90.831 195.46 91.7705 194.407C92.71 193.341 93.979 192.808 95.5776 192.808C96.9097 192.808 97.9754 193.145 98.7747 193.818C99.574 194.478 100.044 195.424 100.184 196.659H98.333C98.0105 195.088 97.099 194.302 95.5986 194.302C94.561 194.302 93.7406 194.688 93.1377 195.46C92.5347 196.217 92.2332 197.248 92.2332 198.552C92.2332 199.871 92.5207 200.909 93.0956 201.667C93.6705 202.424 94.4628 202.803 95.4724 202.803C96.2857 202.803 96.9448 202.564 97.4496 202.087C97.9684 201.61 98.298 200.923 98.4382 200.025H100.247Z" fill="black"/>
<path d="M110.514 194.702H106.623V203.981H104.835V194.702H100.944V193.124H110.514V194.702Z" fill="black"/>
<path d="M120.103 198.174C120.748 198.763 121.071 199.569 121.071 200.593C121.071 201.617 120.755 202.438 120.124 203.055C119.507 203.672 118.673 203.981 117.621 203.981H111.879V193.124H113.667V197.269H117.537C118.603 197.269 119.458 197.571 120.103 198.174ZM116.969 198.805H113.667V202.403H116.969C117.698 202.403 118.252 202.249 118.631 201.94C119.023 201.617 119.22 201.169 119.22 200.593C119.22 199.401 118.469 198.805 116.969 198.805Z" fill="black"/>
<path d="M143.343 198.384C143.343 199.464 143.21 200.425 142.943 201.267C142.677 202.108 142.2 202.817 141.513 203.392C140.84 203.953 139.991 204.233 138.968 204.233C138.575 204.233 138.154 204.121 137.706 203.897C137.257 203.672 136.92 203.427 136.696 203.16H136.654V208.168H134.887V203.16H134.845C134.621 203.427 134.284 203.672 133.835 203.897C133.387 204.121 132.966 204.233 132.573 204.233C131.55 204.233 130.694 203.953 130.007 203.392C129.334 202.817 128.864 202.108 128.598 201.267C128.332 200.425 128.198 199.464 128.198 198.384C128.198 196.673 128.577 195.326 129.334 194.344C130.091 193.348 131.122 192.85 132.426 192.85C132.875 192.85 133.331 192.977 133.793 193.229C134.27 193.468 134.614 193.734 134.824 194.029H134.887V189H136.654V194.029H136.717C136.927 193.734 137.264 193.468 137.727 193.229C138.203 192.977 138.666 192.85 139.115 192.85C140.419 192.85 141.45 193.348 142.207 194.344C142.964 195.326 143.343 196.673 143.343 198.384ZM141.492 198.426C141.492 197.178 141.274 196.189 140.84 195.46C140.405 194.716 139.746 194.344 138.863 194.344C138.4 194.344 137.951 194.464 137.516 194.702C137.096 194.94 136.808 195.326 136.654 195.859V201.33C136.724 201.723 136.955 202.059 137.348 202.34C137.755 202.606 138.225 202.74 138.757 202.74C139.276 202.74 139.718 202.613 140.082 202.361C140.461 202.108 140.749 201.765 140.945 201.33C141.141 200.881 141.281 200.425 141.366 199.962C141.45 199.485 141.492 198.973 141.492 198.426ZM134.887 201.33V195.859C134.733 195.326 134.438 194.94 134.004 194.702C133.583 194.464 133.141 194.344 132.679 194.344C131.795 194.344 131.136 194.716 130.701 195.46C130.267 196.189 130.049 197.178 130.049 198.426C130.049 198.973 130.091 199.485 130.176 199.962C130.26 200.425 130.4 200.881 130.596 201.33C130.793 201.765 131.073 202.108 131.438 202.361C131.816 202.613 132.265 202.74 132.784 202.74C133.317 202.74 133.779 202.606 134.172 202.34C134.579 202.059 134.817 201.723 134.887 201.33Z" fill="black"/>
<path d="M147.819 203.981H145.526V193.124H147.314V201.982H147.356L152.236 193.124H154.529V203.981H152.741V195.123H152.699L147.819 203.981Z" fill="black"/>
<path d="M166.258 193.124V203.981H164.471V194.702H160.6L160.453 199.499C160.411 201.155 160.11 202.354 159.549 203.097C158.988 203.841 158.287 204.212 157.445 204.212C156.926 204.212 156.499 204.135 156.162 203.981V202.529C156.344 202.627 156.66 202.676 157.109 202.676C157.529 202.676 157.887 202.452 158.181 202.003C158.49 201.54 158.658 200.769 158.686 199.689L158.876 193.124H166.258Z" fill="black"/>
<path d="M177.063 198.174C177.708 198.763 178.03 199.569 178.03 200.593C178.03 201.617 177.715 202.438 177.084 203.055C176.467 203.672 175.632 203.981 174.581 203.981H168.839V193.124H170.626V197.269H174.497C175.562 197.269 176.418 197.571 177.063 198.174ZM173.929 198.805H170.626V202.403H173.929C174.658 202.403 175.212 202.249 175.59 201.94C175.983 201.617 176.179 201.169 176.179 200.593C176.179 199.401 175.429 198.805 173.929 198.805Z" fill="black"/>
<path d="M191.567 203.981H189.779V195.417H189.716L186.498 203.981H184.857L181.639 195.417H181.576V203.981H179.788V193.124H182.354L185.656 201.919H185.698L189.001 193.124H191.567V203.981Z" fill="black"/>
<path d="M203.82 202.55V203.939C203.456 204.079 203.049 204.149 202.6 204.149C201.577 204.149 201.051 203.616 201.023 202.55C199.999 203.7 198.688 204.276 197.09 204.276C196.024 204.276 195.175 204.002 194.544 203.455C193.927 202.908 193.619 202.157 193.619 201.204C193.619 199.268 194.902 198.139 197.468 197.816C197.636 197.788 197.882 197.76 198.204 197.732C199.424 197.592 200.174 197.43 200.455 197.248C200.777 197.024 200.939 196.638 200.939 196.091C200.939 194.898 200.118 194.302 198.478 194.302C197.636 194.302 196.998 194.478 196.564 194.828C196.129 195.165 195.87 195.726 195.785 196.512H194.04C194.068 195.347 194.481 194.443 195.281 193.797C196.08 193.152 197.181 192.829 198.583 192.829C200.111 192.829 201.247 193.18 201.99 193.881C202.229 194.106 202.404 194.4 202.516 194.765C202.628 195.13 202.692 195.431 202.706 195.67C202.72 195.894 202.727 196.238 202.727 196.701C202.727 197.234 202.713 198.04 202.685 199.121C202.656 200.201 202.642 201.007 202.642 201.54C202.642 201.933 202.692 202.214 202.79 202.382C202.902 202.536 203.098 202.613 203.379 202.613C203.491 202.613 203.638 202.592 203.82 202.55ZM200.939 198.342C200.812 198.44 200.679 198.524 200.539 198.595C200.399 198.665 200.217 198.721 199.992 198.763C199.782 198.805 199.635 198.84 199.55 198.868C199.48 198.882 199.298 198.91 199.004 198.952C198.709 198.98 198.555 198.994 198.541 198.994C198.106 199.05 197.819 199.093 197.678 199.121C197.552 199.135 197.3 199.191 196.921 199.289C196.557 199.387 196.297 199.499 196.143 199.626C195.989 199.752 195.835 199.941 195.68 200.194C195.54 200.432 195.47 200.72 195.47 201.056C195.47 201.617 195.659 202.059 196.038 202.382C196.43 202.705 196.963 202.866 197.636 202.866C198.492 202.866 199.256 202.613 199.929 202.108C200.602 201.603 200.939 201.007 200.939 200.32V198.342Z" fill="black"/>
<path d="M218.406 194.997V196.827L216.302 198.426L218.406 200.067V201.856L215.209 199.331V197.5L218.406 194.997ZM214.325 194.997V196.785L212.159 198.405L214.325 200.046V201.877L211.065 199.289V197.5L214.325 194.997Z" fill="black"/>
<path d="M233.569 189L227.259 195.018L233.821 203.981H231.297L225.87 196.364L223.389 198.721V203.981H221.411V189H223.389V196.427L230.982 189H233.569Z" fill="black"/>
<path d="M244.738 202.55V203.939C244.373 204.079 243.966 204.149 243.518 204.149C242.494 204.149 241.968 203.616 241.94 202.55C240.917 203.7 239.605 204.276 238.007 204.276C236.941 204.276 236.093 204.002 235.462 203.455C234.845 202.908 234.536 202.157 234.536 201.204C234.536 199.268 235.819 198.139 238.385 197.816C238.554 197.788 238.799 197.76 239.122 197.732C240.342 197.592 241.092 197.43 241.372 197.248C241.695 197.024 241.856 196.638 241.856 196.091C241.856 194.898 241.036 194.302 239.395 194.302C238.554 194.302 237.916 194.478 237.481 194.828C237.046 195.165 236.787 195.726 236.703 196.512H234.957C234.985 195.347 235.399 194.443 236.198 193.797C236.997 193.152 238.098 192.829 239.5 192.829C241.029 192.829 242.165 193.18 242.908 193.881C243.146 194.106 243.321 194.4 243.434 194.765C243.546 195.13 243.609 195.431 243.623 195.67C243.637 195.894 243.644 196.238 243.644 196.701C243.644 197.234 243.63 198.04 243.602 199.121C243.574 200.201 243.56 201.007 243.56 201.54C243.56 201.933 243.609 202.214 243.707 202.382C243.819 202.536 244.015 202.613 244.296 202.613C244.408 202.613 244.555 202.592 244.738 202.55ZM241.856 198.342C241.73 198.44 241.597 198.524 241.456 198.595C241.316 198.665 241.134 198.721 240.91 198.763C240.699 198.805 240.552 198.84 240.468 198.868C240.398 198.882 240.215 198.91 239.921 198.952C239.626 198.98 239.472 198.994 239.458 198.994C239.023 199.05 238.736 199.093 238.596 199.121C238.47 199.135 238.217 199.191 237.839 199.289C237.474 199.387 237.215 199.499 237.06 199.626C236.906 199.752 236.752 199.941 236.598 200.194C236.457 200.432 236.387 200.72 236.387 201.056C236.387 201.617 236.577 202.059 236.955 202.382C237.348 202.705 237.881 202.866 238.554 202.866C239.409 202.866 240.173 202.613 240.846 202.108C241.519 201.603 241.856 201.007 241.856 200.32V198.342Z" fill="black"/>
<path d="M248.211 203.981H246.423V193.124H255.425V203.981H253.637V194.702H248.211V203.981Z" fill="black"/>
<path d="M260.403 203.981H258.11V193.124H259.898V201.982H259.94L264.82 193.124H267.113V203.981H265.325V195.123H265.283L260.403 203.981Z" fill="black"/>
<path d="M278.106 194.702H274.215V203.981H272.427V194.702H268.536V193.124H278.106V194.702Z" fill="black"/>
<path d="M288.777 202.55V203.939C288.413 204.079 288.006 204.149 287.557 204.149C286.534 204.149 286.008 203.616 285.98 202.55C284.956 203.7 283.645 204.276 282.046 204.276C280.981 204.276 280.132 204.002 279.501 203.455C278.884 202.908 278.576 202.157 278.576 201.204C278.576 199.268 279.859 198.139 282.425 197.816C282.593 197.788 282.839 197.76 283.161 197.732C284.381 197.592 285.131 197.43 285.412 197.248C285.734 197.024 285.896 196.638 285.896 196.091C285.896 194.898 285.075 194.302 283.435 194.302C282.593 194.302 281.955 194.478 281.521 194.828C281.086 195.165 280.826 195.726 280.742 196.512H278.996C279.024 195.347 279.438 194.443 280.237 193.797C281.037 193.152 282.137 192.829 283.54 192.829C285.068 192.829 286.204 193.18 286.947 193.881C287.186 194.106 287.361 194.4 287.473 194.765C287.585 195.13 287.648 195.431 287.662 195.67C287.676 195.894 287.683 196.238 287.683 196.701C287.683 197.234 287.669 198.04 287.641 199.121C287.613 200.201 287.599 201.007 287.599 201.54C287.599 201.933 287.648 202.214 287.747 202.382C287.859 202.536 288.055 202.613 288.335 202.613C288.448 202.613 288.595 202.592 288.777 202.55ZM285.896 198.342C285.769 198.44 285.636 198.524 285.496 198.595C285.356 198.665 285.173 198.721 284.949 198.763C284.739 198.805 284.591 198.84 284.507 198.868C284.437 198.882 284.255 198.91 283.96 198.952C283.666 198.98 283.512 198.994 283.498 198.994C283.063 199.05 282.776 199.093 282.635 199.121C282.509 199.135 282.257 199.191 281.878 199.289C281.513 199.387 281.254 199.499 281.1 199.626C280.946 199.752 280.791 199.941 280.637 200.194C280.497 200.432 280.427 200.72 280.427 201.056C280.427 201.617 280.616 202.059 280.995 202.382C281.387 202.705 281.92 202.866 282.593 202.866C283.449 202.866 284.213 202.613 284.886 202.108C285.559 201.603 285.896 201.007 285.896 200.32V198.342Z" fill="black"/>
<path d="M292.25 203.981H290.462V193.124H292.25V197.437H297.677V193.124H299.465V203.981H297.677V199.015H292.25V203.981Z" fill="black"/>
<path d="M8.11905 213.548L13.9664 228.529H11.7579L10.0962 223.942H3.80712L2.10338 228.529H0L5.88946 213.548H8.11905ZM9.50728 222.364L6.96219 215.441L4.37503 222.364H9.50728Z" fill="black"/>
<path d="M26.9114 228.529H25.1236V219.965H25.0605L21.8423 228.529H20.2017L16.9835 219.965H16.9204V228.529H15.1325V217.671H17.6986L21.0009 226.467H21.043L24.3453 217.671H26.9114V228.529Z" fill="black"/>
<path d="M38.8286 225.099C38.2817 227.624 36.7041 228.886 34.096 228.886C32.4974 228.886 31.2424 228.388 30.3309 227.392C29.4335 226.396 28.9847 225.015 28.9847 223.247C28.9847 221.494 29.4475 220.077 30.373 218.997C31.3125 217.903 32.5324 217.356 34.0329 217.356C35.7015 217.356 36.9355 217.924 37.7348 219.06C38.5481 220.182 38.9548 221.606 38.9548 223.331V223.584H30.7936L30.7726 223.71C30.7726 224.86 31.0741 225.765 31.6771 226.424C32.28 227.084 33.1074 227.413 34.1591 227.413C34.9443 227.413 35.5613 227.231 36.01 226.866C36.4728 226.502 36.8303 225.912 37.0828 225.099H38.8286ZM37.1038 222.132C37.0197 221.094 36.7041 220.288 36.1573 219.712C35.6104 219.123 34.8882 218.829 33.9908 218.829C33.1214 218.829 32.3992 219.123 31.8243 219.712C31.2494 220.302 30.9058 221.108 30.7936 222.132H37.1038Z" fill="black"/>
<path d="M42.5328 217.671V219.207C43.3181 217.959 44.538 217.335 46.1927 217.335C47.7071 217.335 48.9061 217.847 49.7895 218.871C50.6869 219.895 51.1356 221.283 51.1356 223.037C51.1356 224.79 50.6939 226.193 49.8105 227.245C48.9411 228.283 47.7632 228.802 46.2768 228.802C44.7203 228.802 43.5074 228.206 42.638 227.014V232.716H40.8501V217.671H42.5328ZM45.9193 218.829C44.8816 218.829 44.0613 219.207 43.4583 219.965C42.8694 220.708 42.5749 221.739 42.5749 223.058C42.5749 224.376 42.8764 225.414 43.4793 226.172C44.0963 226.915 44.9307 227.287 45.9824 227.287C47.006 227.287 47.8123 226.908 48.4012 226.151C48.9902 225.393 49.2847 224.362 49.2847 223.058C49.2847 221.739 48.9832 220.708 48.3802 219.965C47.7913 219.207 46.9709 218.829 45.9193 218.829Z" fill="black"/>
<path d="M55.6111 228.529H53.3184V217.671H55.1063V226.53H55.1483L60.0282 217.671H62.3209V228.529H60.533V219.67H60.4909L55.6111 228.529Z" fill="black"/>
<path d="M74.7237 228.529H72.4521L68.4977 223.184L66.794 224.846V228.529H65.0061V217.671H66.794V222.848L71.758 217.671H74.1558L69.7808 221.943L74.7237 228.529Z" fill="black"/>
<path d="M85.5257 227.098V228.486C85.1612 228.627 84.7545 228.697 84.3058 228.697C83.2821 228.697 82.7563 228.164 82.7282 227.098C81.7046 228.248 80.3935 228.823 78.7949 228.823C77.7292 228.823 76.8808 228.55 76.2498 228.002C75.6328 227.455 75.3243 226.705 75.3243 225.751C75.3243 223.815 76.6074 222.686 79.1735 222.364C79.3418 222.336 79.5872 222.307 79.9097 222.279C81.1297 222.139 81.8799 221.978 82.1603 221.795C82.4828 221.571 82.6441 221.185 82.6441 220.638C82.6441 219.446 81.8238 218.85 80.1832 218.85C79.3418 218.85 78.7038 219.025 78.2691 219.376C77.8344 219.712 77.575 220.274 77.4908 221.059H75.745C75.7731 219.895 76.1867 218.99 76.986 218.345C77.7853 217.7 78.8861 217.377 80.2883 217.377C81.8168 217.377 82.9526 217.728 83.6958 218.429C83.9342 218.653 84.1095 218.948 84.2216 219.313C84.3338 219.677 84.3969 219.979 84.4109 220.217C84.425 220.442 84.432 220.786 84.432 221.248C84.432 221.781 84.418 222.588 84.3899 223.668C84.3619 224.748 84.3478 225.555 84.3478 226.088C84.3478 226.481 84.3969 226.761 84.4951 226.929C84.6073 227.084 84.8036 227.161 85.084 227.161C85.1962 227.161 85.3434 227.14 85.5257 227.098ZM82.6441 222.89C82.5179 222.988 82.3847 223.072 82.2445 223.142C82.1042 223.212 81.922 223.268 81.6976 223.31C81.4873 223.352 81.34 223.388 81.2559 223.416C81.1858 223.43 81.0035 223.458 80.709 223.5C80.4145 223.528 80.2603 223.542 80.2463 223.542C79.8116 223.598 79.5241 223.64 79.3839 223.668C79.2577 223.682 79.0053 223.738 78.6267 223.836C78.2621 223.935 78.0027 224.047 77.8484 224.173C77.6942 224.299 77.5399 224.489 77.3857 224.741C77.2454 224.98 77.1753 225.267 77.1753 225.604C77.1753 226.165 77.3646 226.607 77.7432 226.929C78.1359 227.252 78.6687 227.413 79.3418 227.413C80.1972 227.413 80.9614 227.161 81.6345 226.656C82.3076 226.151 82.6441 225.555 82.6441 224.867V222.89Z" fill="black"/>
<path d="M91.2913 219.502L94.5515 222.111V223.9L91.2913 226.403V224.615L93.4367 223.016L91.2913 221.354V219.502ZM87.1897 219.544L90.3868 222.09V223.879L87.1897 226.361V224.573L89.2931 222.995L87.1897 221.354V219.544Z" fill="black"/>
<path d="M102.759 228.529V217.671H107.786C108.501 217.671 109.111 217.735 109.616 217.861C110.121 217.973 110.563 218.233 110.941 218.639C111.32 219.046 111.509 219.6 111.509 220.302C111.509 221.368 110.976 222.146 109.911 222.637V222.658C110.556 222.784 111.061 223.086 111.425 223.563C111.79 224.026 111.972 224.615 111.972 225.33C111.972 226.256 111.663 227.021 111.046 227.624C110.429 228.227 109.637 228.529 108.67 228.529H102.759ZM107.597 222.048C108.34 222.048 108.866 221.929 109.174 221.69C109.497 221.438 109.658 221.073 109.658 220.596C109.658 220.119 109.504 219.769 109.195 219.544C108.887 219.32 108.354 219.207 107.597 219.207H104.505V222.048H107.597ZM104.505 223.563V226.993H108.333C108.894 226.993 109.329 226.824 109.637 226.488C109.96 226.151 110.121 225.716 110.121 225.183C110.121 224.103 109.42 223.563 108.018 223.563H104.505Z" fill="black"/>
<path d="M124.447 217.671H126.235V228.529H124.447V217.671ZM121.755 222.721C122.4 223.31 122.723 224.117 122.723 225.141C122.723 226.165 122.407 226.986 121.776 227.603C121.159 228.22 120.325 228.529 119.273 228.529H114.036V217.671H115.823V221.817H119.189C120.255 221.817 121.11 222.118 121.755 222.721ZM118.621 223.352H115.823V226.95H118.621C119.35 226.95 119.904 226.796 120.283 226.488C120.675 226.165 120.872 225.716 120.872 225.141C120.872 223.949 120.121 223.352 118.621 223.352Z" fill="black"/>
<path d="M136.586 213.548C136.446 214.431 136.102 215.14 135.555 215.673C135.022 216.192 134.314 216.451 133.431 216.451C132.576 216.451 131.853 216.185 131.264 215.652C130.689 215.105 130.346 214.403 130.234 213.548H131.306C131.629 214.642 132.33 215.189 133.41 215.189C134.448 215.189 135.149 214.642 135.513 213.548H136.586ZM131.201 228.529H128.909V217.671H130.696V226.53H130.739L135.618 217.671H137.911V228.529H136.123V219.67H136.081L131.201 228.529Z" fill="black"/>
<path d="M151.113 231.979H149.41V228.529H141.122V231.979H139.418V226.95H140.596C140.933 226.305 141.241 225.309 141.522 223.963C141.816 222.602 141.964 221.276 141.964 219.986V217.671H149.704V226.95H151.113V231.979ZM147.916 226.95V219.25H143.709V220.154C143.709 221.431 143.576 222.728 143.31 224.047C143.057 225.351 142.77 226.319 142.447 226.95H147.916Z" fill="black"/>
<path d="M161.95 225.099C161.403 227.624 159.826 228.886 157.218 228.886C155.619 228.886 154.364 228.388 153.453 227.392C152.555 226.396 152.106 225.015 152.106 223.247C152.106 221.494 152.569 220.077 153.495 218.997C154.434 217.903 155.654 217.356 157.155 217.356C158.823 217.356 160.057 217.924 160.856 219.06C161.67 220.182 162.076 221.606 162.076 223.331V223.584H153.915L153.894 223.71C153.894 224.86 154.196 225.765 154.799 226.424C155.402 227.084 156.229 227.413 157.281 227.413C158.066 227.413 158.683 227.231 159.132 226.866C159.594 226.502 159.952 225.912 160.204 225.099H161.95ZM160.225 222.132C160.141 221.094 159.826 220.288 159.279 219.712C158.732 219.123 158.01 218.829 157.112 218.829C156.243 218.829 155.521 219.123 154.946 219.712C154.371 220.302 154.028 221.108 153.915 222.132H160.225Z" fill="black"/>
<path d="M171.91 219.25H168.019V228.529H166.231V219.25H162.34V217.671H171.91V219.25Z" fill="black"/>
<path d="M179.15 228.529V217.671H184.178C184.893 217.671 185.503 217.735 186.008 217.861C186.512 217.973 186.954 218.233 187.333 218.639C187.711 219.046 187.901 219.6 187.901 220.302C187.901 221.368 187.368 222.146 186.302 222.637V222.658C186.947 222.784 187.452 223.086 187.816 223.563C188.181 224.026 188.363 224.615 188.363 225.33C188.363 226.256 188.055 227.021 187.438 227.624C186.821 228.227 186.029 228.529 185.061 228.529H179.15ZM183.988 222.048C184.731 222.048 185.257 221.929 185.566 221.69C185.888 221.438 186.05 221.073 186.05 220.596C186.05 220.119 185.895 219.769 185.587 219.544C185.278 219.32 184.745 219.207 183.988 219.207H180.896V222.048H183.988ZM180.896 223.563V226.993H184.724C185.285 226.993 185.72 226.824 186.029 226.488C186.351 226.151 186.512 225.716 186.512 225.183C186.512 224.103 185.811 223.563 184.409 223.563H180.896Z" fill="black"/>
<path d="M198.027 217.671V219.207C198.812 217.959 200.032 217.335 201.687 217.335C203.201 217.335 204.4 217.847 205.283 218.871C206.181 219.895 206.63 221.283 206.63 223.037C206.63 224.79 206.188 226.193 205.305 227.245C204.435 228.283 203.257 228.802 201.771 228.802C200.214 228.802 199.001 228.206 198.132 227.014V232.716H196.344V217.671H198.027ZM201.413 218.829C200.376 218.829 199.555 219.207 198.952 219.965C198.363 220.708 198.069 221.739 198.069 223.058C198.069 224.376 198.37 225.414 198.973 226.172C199.59 226.915 200.425 227.287 201.476 227.287C202.5 227.287 203.306 226.908 203.895 226.151C204.484 225.393 204.779 224.362 204.779 223.058C204.779 221.739 204.477 220.708 203.874 219.965C203.285 219.207 202.465 218.829 201.413 218.829Z" fill="black"/>
<path d="M209.675 218.913C210.628 217.875 211.925 217.356 213.566 217.356C215.207 217.356 216.483 217.854 217.394 218.85C218.306 219.846 218.761 221.241 218.761 223.037C218.761 224.874 218.306 226.305 217.394 227.329C216.483 228.353 215.2 228.865 213.545 228.865C211.89 228.865 210.593 228.36 209.654 227.35C208.714 226.34 208.244 224.938 208.244 223.142C208.244 221.361 208.721 219.951 209.675 218.913ZM216.006 220.007C215.403 219.236 214.576 218.85 213.524 218.85C212.472 218.85 211.638 219.236 211.021 220.007C210.404 220.779 210.095 221.81 210.095 223.1C210.095 224.433 210.397 225.478 211 226.235C211.617 226.979 212.472 227.35 213.566 227.35C214.618 227.35 215.438 226.971 216.027 226.214C216.63 225.457 216.931 224.412 216.931 223.079C216.931 221.788 216.623 220.764 216.006 220.007Z" fill="black"/>
<path d="M230.229 224.573C230.075 225.877 229.577 226.915 228.736 227.687C227.909 228.458 226.829 228.844 225.497 228.844C223.856 228.844 222.587 228.339 221.69 227.329C220.792 226.305 220.344 224.945 220.344 223.247C220.344 221.438 220.813 220.007 221.753 218.955C222.692 217.889 223.961 217.356 225.56 217.356C226.892 217.356 227.958 217.693 228.757 218.366C229.556 219.025 230.026 219.972 230.166 221.206H228.315C227.993 219.635 227.081 218.85 225.581 218.85C224.543 218.85 223.723 219.236 223.12 220.007C222.517 220.764 222.216 221.795 222.216 223.1C222.216 224.419 222.503 225.457 223.078 226.214C223.653 226.971 224.445 227.35 225.455 227.35C226.268 227.35 226.927 227.112 227.432 226.635C227.951 226.158 228.28 225.471 228.421 224.573H230.229Z" fill="black"/>
<path d="M241.527 224.573C241.373 225.877 240.875 226.915 240.033 227.687C239.206 228.458 238.126 228.844 236.794 228.844C235.154 228.844 233.885 228.339 232.987 227.329C232.09 226.305 231.641 224.945 231.641 223.247C231.641 221.438 232.111 220.007 233.05 218.955C233.99 217.889 235.259 217.356 236.857 217.356C238.19 217.356 239.255 217.693 240.055 218.366C240.854 219.025 241.324 219.972 241.464 221.206H239.613C239.29 219.635 238.379 218.85 236.878 218.85C235.841 218.85 235.02 219.236 234.417 220.007C233.814 220.764 233.513 221.795 233.513 223.1C233.513 224.419 233.8 225.457 234.375 226.214C234.95 226.971 235.743 227.35 236.752 227.35C237.566 227.35 238.225 227.112 238.729 226.635C239.248 226.158 239.578 225.471 239.718 224.573H241.527Z" fill="black"/>
<path d="M245.778 228.529H243.485V217.671H245.273V226.53H245.315L250.195 217.671H252.488V228.529H250.7V219.67H250.658L245.778 228.529Z" fill="black"/>
<path d="M262.85 213.548C262.71 214.431 262.367 215.14 261.82 215.673C261.287 216.192 260.579 216.451 259.695 216.451C258.84 216.451 258.118 216.185 257.529 215.652C256.954 215.105 256.61 214.403 256.498 213.548H257.571C257.893 214.642 258.595 215.189 259.674 215.189C260.712 215.189 261.413 214.642 261.778 213.548H262.85ZM257.466 228.529H255.173V217.671H256.961V226.53H257.003L261.883 217.671H264.176V228.529H262.388V219.67H262.346L257.466 228.529Z" fill="black"/>
<path d="M276.2 224.573C276.046 225.877 275.548 226.915 274.706 227.687C273.879 228.458 272.799 228.844 271.467 228.844C269.827 228.844 268.557 228.339 267.66 227.329C266.763 226.305 266.314 224.945 266.314 223.247C266.314 221.438 266.784 220.007 267.723 218.955C268.663 217.889 269.932 217.356 271.53 217.356C272.862 217.356 273.928 217.693 274.727 218.366C275.527 219.025 275.996 219.972 276.137 221.206H274.286C273.963 219.635 273.052 218.85 271.551 218.85C270.514 218.85 269.693 219.236 269.09 220.007C268.487 220.764 268.186 221.795 268.186 223.1C268.186 224.419 268.473 225.457 269.048 226.214C269.623 226.971 270.415 227.35 271.425 227.35C272.238 227.35 272.897 227.112 273.402 226.635C273.921 226.158 274.251 225.471 274.391 224.573H276.2Z" fill="black"/>
<path d="M287.876 228.529H285.604L281.65 223.184L279.946 224.846V228.529H278.158V217.671H279.946V222.848L284.91 217.671H287.308L282.933 221.943L287.876 228.529Z" fill="black"/>
<path d="M291.358 228.529H289.065V217.671H290.853V226.53H290.895L295.775 217.671H298.068V228.529H296.28V219.67H296.238L291.358 228.529Z" fill="black"/>
<path d="M308.43 213.548C308.29 214.431 307.947 215.14 307.4 215.673C306.867 216.192 306.159 216.451 305.275 216.451C304.42 216.451 303.698 216.185 303.109 215.652C302.534 215.105 302.19 214.403 302.078 213.548H303.151C303.473 214.642 304.175 215.189 305.254 215.189C306.292 215.189 306.993 214.642 307.358 213.548H308.43ZM303.046 228.529H300.753V217.671H302.541V226.53H302.583L307.463 217.671H309.756V228.529H307.968V219.67H307.926L303.046 228.529Z" fill="black"/>
<path d="M3.30231 253.076H1.51443V242.219H10.5169V253.076H8.72903V243.797H3.30231V253.076Z" fill="black"/>
<path d="M14.8849 242.219V243.755C15.6701 242.507 16.8901 241.882 18.5447 241.882C20.0592 241.882 21.2581 242.394 22.1415 243.418C23.039 244.442 23.4877 245.831 23.4877 247.584C23.4877 249.338 23.046 250.74 22.1626 251.793C21.2932 252.831 20.1153 253.35 18.6289 253.35C17.0724 253.35 15.8594 252.753 14.99 251.561V257.263H13.2022V242.219H14.8849ZM18.2713 243.376C17.2336 243.376 16.4133 243.755 15.8104 244.512C15.2214 245.256 14.9269 246.287 14.9269 247.605C14.9269 248.924 15.2284 249.962 15.8314 250.719C16.4484 251.463 17.2827 251.835 18.3344 251.835C19.3581 251.835 20.1643 251.456 20.7533 250.698C21.3422 249.941 21.6367 248.91 21.6367 247.605C21.6367 246.287 21.3352 245.256 20.7323 244.512C20.1433 243.755 19.323 243.376 18.2713 243.376Z" fill="black"/>
<path d="M26.5328 243.46C27.4864 242.422 28.7834 241.903 30.4241 241.903C32.0647 241.903 33.3408 242.401 34.2522 243.397C35.1637 244.393 35.6194 245.789 35.6194 247.584C35.6194 249.422 35.1637 250.853 34.2522 251.877C33.3408 252.901 32.0577 253.413 30.403 253.413C28.7484 253.413 27.4513 252.908 26.5118 251.898C25.5723 250.888 25.1025 249.485 25.1025 247.69C25.1025 245.908 25.5793 244.498 26.5328 243.46ZM32.864 244.555C32.261 243.783 31.4337 243.397 30.382 243.397C29.3303 243.397 28.496 243.783 27.879 244.555C27.262 245.326 26.9535 246.357 26.9535 247.648C26.9535 248.98 27.255 250.025 27.858 250.783C28.4749 251.526 29.3303 251.898 30.4241 251.898C31.4758 251.898 32.2961 251.519 32.885 250.762C33.488 250.004 33.7895 248.959 33.7895 247.626C33.7895 246.336 33.481 245.312 32.864 244.555Z" fill="black"/>
<path d="M47.4661 253.076H45.1944L41.2401 247.732L39.5363 249.394V253.076H37.7484V242.219H39.5363V247.395L44.5003 242.219H46.8981L42.5231 246.49L47.4661 253.076Z" fill="black"/>
<path d="M58.2681 251.645V253.034C57.9035 253.174 57.4968 253.244 57.0481 253.244C56.0245 253.244 55.4986 252.711 55.4706 251.645C54.4469 252.795 53.1358 253.371 51.5373 253.371C50.4715 253.371 49.6232 253.097 48.9922 252.55C48.3752 252.003 48.0667 251.252 48.0667 250.299C48.0667 248.363 49.3497 247.234 51.9159 246.911C52.0841 246.883 52.3295 246.855 52.652 246.827C53.872 246.687 54.6222 246.525 54.9027 246.343C55.2252 246.119 55.3864 245.733 55.3864 245.186C55.3864 243.993 54.5661 243.397 52.9255 243.397C52.0841 243.397 51.4461 243.573 51.0114 243.923C50.5767 244.26 50.3173 244.821 50.2332 245.607H48.4874C48.5154 244.442 48.9291 243.538 49.7283 242.892C50.5276 242.247 51.6284 241.924 53.0307 241.924C54.5591 241.924 55.6949 242.275 56.4381 242.976C56.6765 243.201 56.8518 243.495 56.964 243.86C57.0762 244.225 57.1393 244.526 57.1533 244.765C57.1673 244.989 57.1743 245.333 57.1743 245.796C57.1743 246.329 57.1603 247.136 57.1322 248.216C57.1042 249.296 57.0902 250.102 57.0902 250.635C57.0902 251.028 57.1393 251.309 57.2374 251.477C57.3496 251.631 57.5459 251.708 57.8264 251.708C57.9385 251.708 58.0858 251.687 58.2681 251.645ZM55.3864 247.437C55.2602 247.535 55.127 247.619 54.9868 247.69C54.8466 247.76 54.6643 247.816 54.4399 247.858C54.2296 247.9 54.0823 247.935 53.9982 247.963C53.9281 247.977 53.7458 248.005 53.4513 248.047C53.1569 248.075 53.0026 248.089 52.9886 248.089C52.5539 248.145 52.2664 248.188 52.1262 248.216C52 248.23 51.7476 248.286 51.369 248.384C51.0044 248.482 50.745 248.594 50.5907 248.721C50.4365 248.847 50.2822 249.036 50.128 249.289C49.9878 249.527 49.9176 249.815 49.9176 250.151C49.9176 250.712 50.107 251.154 50.4856 251.477C50.8782 251.8 51.411 251.961 52.0841 251.961C52.9395 251.961 53.7037 251.708 54.3768 251.203C55.0499 250.698 55.3864 250.102 55.3864 249.415V247.437Z" fill="black"/>
<path d="M68.2614 243.797H64.3702V253.076H62.5823V243.797H58.691V242.219H68.2614V243.797Z" fill="black"/>
<path d="M77.3314 253.076H75.5436V242.219H84.546V253.076H82.7581V243.797H77.3314V253.076Z" fill="black"/>
<path d="M88.0937 243.46C89.0472 242.422 90.3443 241.903 91.9849 241.903C93.6256 241.903 94.9016 242.401 95.8131 243.397C96.7245 244.393 97.1803 245.789 97.1803 247.584C97.1803 249.422 96.7245 250.853 95.8131 251.877C94.9016 252.901 93.6185 253.413 91.9639 253.413C90.3092 253.413 89.0121 252.908 88.0726 251.898C87.1331 250.888 86.6634 249.485 86.6634 247.69C86.6634 245.908 87.1401 244.498 88.0937 243.46ZM94.4249 244.555C93.8219 243.783 92.9945 243.397 91.9429 243.397C90.8912 243.397 90.0568 243.783 89.4398 244.555C88.8228 245.326 88.5143 246.357 88.5143 247.648C88.5143 248.98 88.8158 250.025 89.4188 250.783C90.0358 251.526 90.8912 251.898 91.9849 251.898C93.0366 251.898 93.8569 251.519 94.4459 250.762C95.0489 250.004 95.3503 248.959 95.3503 247.626C95.3503 246.336 95.0418 245.312 94.4249 244.555Z" fill="black"/>
<path d="M109.456 256.527H107.753V253.076H99.4654V256.527H97.7617V251.498H98.9396C99.2761 250.853 99.5846 249.857 99.865 248.51C100.16 247.15 100.307 245.824 100.307 244.533V242.219H108.047V251.498H109.456V256.527ZM106.259 251.498V243.797H102.053V244.702C102.053 245.978 101.919 247.276 101.653 248.594C101.401 249.899 101.113 250.867 100.791 251.498H106.259Z" fill="black"/>
<path d="M118.66 253.076H116.872V242.219H118.66V246.532H124.086V242.219H125.874V253.076H124.086V248.11H118.66V253.076Z" fill="black"/>
<path d="M138.172 251.645V253.034C137.807 253.174 137.401 253.244 136.952 253.244C135.928 253.244 135.402 252.711 135.374 251.645C134.351 252.795 133.04 253.371 131.441 253.371C130.375 253.371 129.527 253.097 128.896 252.55C128.279 252.003 127.97 251.252 127.97 250.299C127.97 248.363 129.254 247.234 131.82 246.911C131.988 246.883 132.233 246.855 132.556 246.827C133.776 246.687 134.526 246.525 134.806 246.343C135.129 246.119 135.29 245.733 135.29 245.186C135.29 243.993 134.47 243.397 132.829 243.397C131.988 243.397 131.35 243.573 130.915 243.923C130.48 244.26 130.221 244.821 130.137 245.607H128.391C128.419 244.442 128.833 243.538 129.632 242.892C130.431 242.247 131.532 241.924 132.934 241.924C134.463 241.924 135.599 242.275 136.342 242.976C136.58 243.201 136.756 243.495 136.868 243.86C136.98 244.225 137.043 244.526 137.057 244.765C137.071 244.989 137.078 245.333 137.078 245.796C137.078 246.329 137.064 247.136 137.036 248.216C137.008 249.296 136.994 250.102 136.994 250.635C136.994 251.028 137.043 251.309 137.141 251.477C137.253 251.631 137.45 251.708 137.73 251.708C137.842 251.708 137.99 251.687 138.172 251.645ZM135.29 247.437C135.164 247.535 135.031 247.619 134.891 247.69C134.75 247.76 134.568 247.816 134.344 247.858C134.133 247.9 133.986 247.935 133.902 247.963C133.832 247.977 133.65 248.005 133.355 248.047C133.061 248.075 132.906 248.089 132.892 248.089C132.458 248.145 132.17 248.188 132.03 248.216C131.904 248.23 131.651 248.286 131.273 248.384C130.908 248.482 130.649 248.594 130.495 248.721C130.34 248.847 130.186 249.036 130.032 249.289C129.892 249.527 129.821 249.815 129.821 250.151C129.821 250.712 130.011 251.154 130.389 251.477C130.782 251.8 131.315 251.961 131.988 251.961C132.843 251.961 133.608 251.708 134.281 251.203C134.954 250.698 135.29 250.102 135.29 249.415V247.437Z" fill="black"/>
<path d="M139.247 245.354C139.331 244.12 139.801 243.236 140.656 242.703C141.512 242.17 142.57 241.903 143.832 241.903C145.024 241.903 145.999 242.149 146.756 242.64C147.527 243.131 147.913 243.86 147.913 244.828C147.913 245.417 147.738 245.922 147.387 246.343C147.05 246.764 146.644 247.023 146.167 247.121V247.164C146.742 247.276 147.233 247.563 147.639 248.026C148.06 248.475 148.27 249.085 148.27 249.857C148.27 250.979 147.829 251.856 146.945 252.487C146.062 253.104 145.003 253.413 143.769 253.413C142.353 253.413 141.224 253.09 140.383 252.445C139.555 251.786 139.114 250.867 139.058 249.688H140.867C140.923 250.446 141.21 251.014 141.729 251.393C142.248 251.771 142.921 251.961 143.748 251.961C144.575 251.961 145.228 251.764 145.704 251.372C146.181 250.965 146.419 250.474 146.419 249.899C146.419 248.721 145.648 248.131 144.106 248.131H142.612V246.68H143.811C144.498 246.68 145.052 246.539 145.473 246.259C145.894 245.964 146.104 245.515 146.104 244.912C146.104 244.491 145.894 244.127 145.473 243.818C145.066 243.51 144.512 243.355 143.811 243.355C143.096 243.355 142.472 243.517 141.939 243.839C141.42 244.162 141.126 244.667 141.056 245.354H139.247Z" fill="black"/>
<path d="M150.332 253.076V242.219H155.359C156.074 242.219 156.684 242.282 157.189 242.408C157.694 242.521 158.135 242.78 158.514 243.187C158.892 243.594 159.082 244.148 159.082 244.849C159.082 245.915 158.549 246.694 157.483 247.185V247.206C158.128 247.332 158.633 247.633 158.998 248.11C159.362 248.573 159.545 249.162 159.545 249.878C159.545 250.804 159.236 251.568 158.619 252.171C158.002 252.774 157.21 253.076 156.242 253.076H150.332ZM155.169 246.595C155.913 246.595 156.439 246.476 156.747 246.238C157.07 245.985 157.231 245.621 157.231 245.144C157.231 244.667 157.077 244.316 156.768 244.092C156.46 243.867 155.927 243.755 155.169 243.755H152.077V246.595H155.169ZM152.077 248.11V251.54H155.906C156.467 251.54 156.901 251.372 157.21 251.035C157.532 250.698 157.694 250.264 157.694 249.731C157.694 248.65 156.992 248.11 155.59 248.11H152.077Z" fill="black"/>
<path d="M171.284 251.645V253.034C170.919 253.174 170.512 253.244 170.064 253.244C169.04 253.244 168.514 252.711 168.486 251.645C167.463 252.795 166.151 253.371 164.553 253.371C163.487 253.371 162.639 253.097 162.008 252.55C161.391 252.003 161.082 251.252 161.082 250.299C161.082 248.363 162.365 247.234 164.931 246.911C165.1 246.883 165.345 246.855 165.668 246.827C166.888 246.687 167.638 246.525 167.918 246.343C168.241 246.119 168.402 245.733 168.402 245.186C168.402 243.993 167.582 243.397 165.941 243.397C165.1 243.397 164.462 243.573 164.027 243.923C163.592 244.26 163.333 244.821 163.249 245.607H161.503C161.531 244.442 161.945 243.538 162.744 242.892C163.543 242.247 164.644 241.924 166.046 241.924C167.575 241.924 168.711 242.275 169.454 242.976C169.692 243.201 169.867 243.495 169.98 243.86C170.092 244.225 170.155 244.526 170.169 244.765C170.183 244.989 170.19 245.333 170.19 245.796C170.19 246.329 170.176 247.136 170.148 248.216C170.12 249.296 170.106 250.102 170.106 250.635C170.106 251.028 170.155 251.309 170.253 251.477C170.365 251.631 170.562 251.708 170.842 251.708C170.954 251.708 171.101 251.687 171.284 251.645ZM168.402 247.437C168.276 247.535 168.143 247.619 168.002 247.69C167.862 247.76 167.68 247.816 167.456 247.858C167.245 247.9 167.098 247.935 167.014 247.963C166.944 247.977 166.761 248.005 166.467 248.047C166.172 248.075 166.018 248.089 166.004 248.089C165.569 248.145 165.282 248.188 165.142 248.216C165.016 248.23 164.763 248.286 164.385 248.384C164.02 248.482 163.761 248.594 163.606 248.721C163.452 248.847 163.298 249.036 163.144 249.289C163.003 249.527 162.933 249.815 162.933 250.151C162.933 250.712 163.123 251.154 163.501 251.477C163.894 251.8 164.427 251.961 165.1 251.961C165.955 251.961 166.719 251.708 167.392 251.203C168.066 250.698 168.402 250.102 168.402 249.415V247.437Z" fill="black"/>
<path d="M174.757 253.076H172.969V242.219H174.757V246.532H180.183V242.219H181.971V253.076H180.183V248.11H174.757V253.076Z" fill="black"/>
<path d="M186.949 253.076H184.656V242.219H186.444V251.077H186.486L191.366 242.219H193.659V253.076H191.871V244.218H191.829L186.949 253.076Z" fill="black"/>
<path d="M205.62 249.646C205.073 252.171 203.496 253.434 200.887 253.434C199.289 253.434 198.034 252.936 197.122 251.94C196.225 250.944 195.776 249.562 195.776 247.795C195.776 246.041 196.239 244.625 197.164 243.545C198.104 242.45 199.324 241.903 200.824 241.903C202.493 241.903 203.727 242.471 204.526 243.608C205.34 244.73 205.746 246.154 205.746 247.879V248.131H197.585L197.564 248.258C197.564 249.408 197.866 250.313 198.469 250.972C199.072 251.631 199.899 251.961 200.951 251.961C201.736 251.961 202.353 251.779 202.802 251.414C203.264 251.049 203.622 250.46 203.874 249.646H205.62ZM203.895 246.68C203.811 245.642 203.496 244.835 202.949 244.26C202.402 243.671 201.68 243.376 200.782 243.376C199.913 243.376 199.191 243.671 198.616 244.26C198.041 244.849 197.697 245.656 197.585 246.68H203.895Z" fill="black"/>
<path d="M219.399 253.076H217.612V244.512H217.549L214.33 253.076H212.69L209.472 244.512H209.408V253.076H207.621V242.219H210.187L213.489 251.014H213.531L216.833 242.219H219.399V253.076Z" fill="black"/>
<path d="M234.941 244.092V245.922L232.838 247.521L234.941 249.162V250.951L231.744 248.426V246.595L234.941 244.092ZM230.861 244.092V245.88L228.694 247.5L230.861 249.141V250.972L227.6 248.384V246.595L230.861 244.092Z" fill="black"/>
<path d="M250.104 238.095L243.794 244.113L250.357 253.076H247.833L242.406 245.459L239.924 247.816V253.076H237.947V238.095H239.924V245.522L247.517 238.095H250.104Z" fill="black"/>
<path d="M261.273 251.645V253.034C260.908 253.174 260.502 253.244 260.053 253.244C259.029 253.244 258.504 252.711 258.476 251.645C257.452 252.795 256.141 253.371 254.542 253.371C253.476 253.371 252.628 253.097 251.997 252.55C251.38 252.003 251.072 251.252 251.072 250.299C251.072 248.363 252.355 247.234 254.921 246.911C255.089 246.883 255.334 246.855 255.657 246.827C256.877 246.687 257.627 246.525 257.908 246.343C258.23 246.119 258.391 245.733 258.391 245.186C258.391 243.993 257.571 243.397 255.93 243.397C255.089 243.397 254.451 243.573 254.016 243.923C253.582 244.26 253.322 244.821 253.238 245.607H251.492C251.52 244.442 251.934 243.538 252.733 242.892C253.533 242.247 254.633 241.924 256.036 241.924C257.564 241.924 258.7 242.275 259.443 242.976C259.681 243.201 259.857 243.495 259.969 243.86C260.081 244.225 260.144 244.526 260.158 244.765C260.172 244.989 260.179 245.333 260.179 245.796C260.179 246.329 260.165 247.136 260.137 248.216C260.109 249.296 260.095 250.102 260.095 250.635C260.095 251.028 260.144 251.309 260.242 251.477C260.355 251.631 260.551 251.708 260.831 251.708C260.943 251.708 261.091 251.687 261.273 251.645ZM258.391 247.437C258.265 247.535 258.132 247.619 257.992 247.69C257.852 247.76 257.669 247.816 257.445 247.858C257.235 247.9 257.087 247.935 257.003 247.963C256.933 247.977 256.751 248.005 256.456 248.047C256.162 248.075 256.008 248.089 255.994 248.089C255.559 248.145 255.271 248.188 255.131 248.216C255.005 248.23 254.753 248.286 254.374 248.384C254.009 248.482 253.75 248.594 253.596 248.721C253.441 248.847 253.287 249.036 253.133 249.289C252.993 249.527 252.923 249.815 252.923 250.151C252.923 250.712 253.112 251.154 253.491 251.477C253.883 251.8 254.416 251.961 255.089 251.961C255.944 251.961 256.709 251.708 257.382 251.203C258.055 250.698 258.391 250.102 258.391 249.415V247.437Z" fill="black"/>
<path d="M264.746 253.076H262.958V242.219H271.96V253.076H270.173V243.797H264.746V253.076Z" fill="black"/>
<path d="M276.938 253.076H274.646V242.219H276.434V251.077H276.476L281.356 242.219H283.648V253.076H281.86V244.218H281.818L276.938 253.076Z" fill="black"/>
<path d="M294.642 243.797H290.751V253.076H288.963V243.797H285.071V242.219H294.642V243.797Z" fill="black"/>
<path d="M305.313 251.645V253.034C304.948 253.174 304.541 253.244 304.093 253.244C303.069 253.244 302.543 252.711 302.515 251.645C301.491 252.795 300.18 253.371 298.582 253.371C297.516 253.371 296.668 253.097 296.037 252.55C295.42 252.003 295.111 251.252 295.111 250.299C295.111 248.363 296.394 247.234 298.96 246.911C299.129 246.883 299.374 246.855 299.697 246.827C300.916 246.687 301.667 246.525 301.947 246.343C302.27 246.119 302.431 245.733 302.431 245.186C302.431 243.993 301.611 243.397 299.97 243.397C299.129 243.397 298.491 243.573 298.056 243.923C297.621 244.26 297.362 244.821 297.278 245.607H295.532C295.56 244.442 295.974 243.538 296.773 242.892C297.572 242.247 298.673 241.924 300.075 241.924C301.604 241.924 302.739 242.275 303.483 242.976C303.721 243.201 303.896 243.495 304.008 243.86C304.121 244.225 304.184 244.526 304.198 244.765C304.212 244.989 304.219 245.333 304.219 245.796C304.219 246.329 304.205 247.136 304.177 248.216C304.149 249.296 304.135 250.102 304.135 250.635C304.135 251.028 304.184 251.309 304.282 251.477C304.394 251.631 304.59 251.708 304.871 251.708C304.983 251.708 305.13 251.687 305.313 251.645ZM302.431 247.437C302.305 247.535 302.171 247.619 302.031 247.69C301.891 247.76 301.709 247.816 301.484 247.858C301.274 247.9 301.127 247.935 301.043 247.963C300.973 247.977 300.79 248.005 300.496 248.047C300.201 248.075 300.047 248.089 300.033 248.089C299.598 248.145 299.311 248.188 299.171 248.216C299.044 248.23 298.792 248.286 298.413 248.384C298.049 248.482 297.789 248.594 297.635 248.721C297.481 248.847 297.327 249.036 297.172 249.289C297.032 249.527 296.962 249.815 296.962 250.151C296.962 250.712 297.151 251.154 297.53 251.477C297.923 251.8 298.456 251.961 299.129 251.961C299.984 251.961 300.748 251.708 301.421 251.203C302.094 250.698 302.431 250.102 302.431 249.415V247.437Z" fill="black"/>
<path d="M308.785 253.076H306.998V242.219H308.785V246.532H314.212V242.219H316V253.076H314.212V248.11H308.785V253.076Z" fill="black"/>
<path d="M3.30231 277.624H1.51443V266.767H3.30231V271.08H8.72903V266.767H10.5169V277.624H8.72903V272.658H3.30231V277.624Z" fill="black"/>
<path d="M22.4781 274.194C21.9312 276.719 20.3537 277.981 17.7455 277.981C16.1469 277.981 14.8919 277.483 13.9804 276.487C13.083 275.491 12.6342 274.11 12.6342 272.342C12.6342 270.589 13.097 269.172 14.0225 268.092C14.962 266.998 16.1819 266.451 17.6824 266.451C19.351 266.451 20.585 267.019 21.3843 268.155C22.1976 269.277 22.6043 270.701 22.6043 272.426V272.679H14.4432L14.4221 272.805C14.4221 273.955 14.7236 274.86 15.3266 275.519C15.9295 276.179 16.7569 276.508 17.8086 276.508C18.5938 276.508 19.2108 276.326 19.6595 275.961C20.1223 275.597 20.4799 275.007 20.7323 274.194H22.4781ZM20.7533 271.227C20.6692 270.189 20.3537 269.383 19.8068 268.807C19.2599 268.218 18.5377 267.924 17.6403 267.924C16.7709 267.924 16.0487 268.218 15.4738 268.807C14.8989 269.397 14.5553 270.203 14.4432 271.227H20.7533Z" fill="black"/>
<path d="M34.6468 281.074H32.943V277.624H24.6557V281.074H22.952V276.045H24.1299C24.4664 275.4 24.7749 274.404 25.0554 273.058C25.3498 271.697 25.4971 270.371 25.4971 269.081V266.767H33.2375V276.045H34.6468V281.074ZM31.4496 276.045V268.345H27.2429V269.249C27.2429 270.526 27.1097 271.823 26.8432 273.142C26.5908 274.446 26.3034 275.414 25.9809 276.045H31.4496Z" fill="black"/>
<path d="M37.8906 266.767V268.302C38.6758 267.054 39.8958 266.43 41.5505 266.43C43.0649 266.43 44.2638 266.942 45.1472 267.966C46.0447 268.99 46.4934 270.379 46.4934 272.132C46.4934 273.885 46.0517 275.288 45.1683 276.34C44.2989 277.378 43.121 277.897 41.6346 277.897C40.0781 277.897 38.8652 277.301 37.9958 276.109V281.811H36.2079V266.767H37.8906ZM41.277 267.924C40.2394 267.924 39.419 268.302 38.8161 269.06C38.2271 269.803 37.9327 270.834 37.9327 272.153C37.9327 273.471 38.2341 274.51 38.8371 275.267C39.4541 276.01 40.2884 276.382 41.3401 276.382C42.3638 276.382 43.1701 276.003 43.759 275.246C44.348 274.488 44.6424 273.457 44.6424 272.153C44.6424 270.834 44.341 269.803 43.738 269.06C43.149 268.302 42.3287 267.924 41.277 267.924Z" fill="black"/>
<path d="M57.4111 266.767L52.7626 279.012C52.5803 279.503 52.4191 279.882 52.2789 280.148C52.1527 280.429 51.9633 280.731 51.7109 281.053C51.4726 281.39 51.1781 281.628 50.8275 281.769C50.491 281.923 50.0913 282 49.6286 282C49.278 282 48.8363 281.937 48.3035 281.811V280.212C48.8223 280.366 49.2079 280.443 49.4603 280.443C50.0493 280.443 50.4699 280.141 50.7224 279.538L51.5637 277.56L47.2518 266.767H49.271L52.4892 275.414L55.5391 266.767H57.4111Z" fill="black"/>
<path d="M63.5319 272.363L59.809 277.624H57.6004L62.354 271.227L58.2104 266.767H60.4189L64.836 271.753H64.8781V266.767H66.666V271.753H66.708L71.1251 266.767H73.3337L69.19 271.227L73.9437 277.624H71.7351L68.0121 272.363L66.666 273.731V277.624H64.8781V273.731L63.5319 272.363Z" fill="black"/>
<path d="M84.2238 274.194C83.6769 276.719 82.0994 277.981 79.4912 277.981C77.8926 277.981 76.6376 277.483 75.7261 276.487C74.8287 275.491 74.38 274.11 74.38 272.342C74.38 270.589 74.8427 269.172 75.7682 268.092C76.7077 266.998 77.9277 266.451 79.4281 266.451C81.0967 266.451 82.3307 267.019 83.13 268.155C83.9433 269.277 84.35 270.701 84.35 272.426V272.679H76.1889L76.1678 272.805C76.1678 273.955 76.4693 274.86 77.0723 275.519C77.6753 276.179 78.5026 276.508 79.5543 276.508C80.3395 276.508 80.9565 276.326 81.4053 275.961C81.868 275.597 82.2256 275.007 82.478 274.194H84.2238ZM82.499 271.227C82.4149 270.189 82.0994 269.383 81.5525 268.807C81.0056 268.218 80.2834 267.924 79.386 267.924C78.5166 267.924 77.7944 268.218 77.2195 268.807C76.6446 269.397 76.301 270.203 76.1889 271.227H82.499Z" fill="black"/>
<path d="M95.5843 273.668C95.4301 274.972 94.9323 276.01 94.0909 276.782C93.2636 277.553 92.1839 277.939 90.8517 277.939C89.2111 277.939 87.9421 277.434 87.0446 276.424C86.1472 275.4 85.6984 274.04 85.6984 272.342C85.6984 270.533 86.1682 269.102 87.1077 268.05C88.0472 266.984 89.3163 266.451 90.9148 266.451C92.247 266.451 93.3127 266.788 94.112 267.461C94.9112 268.12 95.381 269.067 95.5212 270.301H93.6703C93.3477 268.73 92.4363 267.945 90.9359 267.945C89.8982 267.945 89.0779 268.331 88.4749 269.102C87.8719 269.86 87.5704 270.89 87.5704 272.195C87.5704 273.514 87.8579 274.552 88.4328 275.309C89.0078 276.067 89.8 276.445 90.8097 276.445C91.623 276.445 92.282 276.207 92.7868 275.73C93.3057 275.253 93.6352 274.566 93.7754 273.668H95.5843Z" fill="black"/>
<path d="M105.851 268.345H101.96V277.624H100.172V268.345H96.2808V266.767H105.851V268.345Z" fill="black"/>
<path d="M107.237 277.624V266.767H112.264C112.979 266.767 113.589 266.83 114.094 266.956C114.599 267.068 115.041 267.328 115.419 267.734C115.798 268.141 115.987 268.695 115.987 269.397C115.987 270.463 115.454 271.241 114.389 271.732V271.753C115.034 271.879 115.538 272.181 115.903 272.658C116.268 273.121 116.45 273.71 116.45 274.425C116.45 275.351 116.141 276.116 115.524 276.719C114.907 277.322 114.115 277.624 113.148 277.624H107.237ZM112.075 271.143C112.818 271.143 113.344 271.024 113.652 270.785C113.975 270.533 114.136 270.168 114.136 269.691C114.136 269.214 113.982 268.864 113.673 268.639C113.365 268.415 112.832 268.302 112.075 268.302H108.983V271.143H112.075ZM108.983 272.658V276.088H112.811C113.372 276.088 113.807 275.919 114.115 275.583C114.438 275.246 114.599 274.811 114.599 274.278C114.599 273.198 113.898 272.658 112.496 272.658H108.983Z" fill="black"/>
<path d="M127.852 274.194C127.306 276.719 125.728 277.981 123.12 277.981C121.521 277.981 120.266 277.483 119.355 276.487C118.457 275.491 118.009 274.11 118.009 272.342C118.009 270.589 118.471 269.172 119.397 268.092C120.336 266.998 121.556 266.451 123.057 266.451C124.725 266.451 125.959 267.019 126.759 268.155C127.572 269.277 127.979 270.701 127.979 272.426V272.679H119.818L119.797 272.805C119.797 273.955 120.098 274.86 120.701 275.519C121.304 276.179 122.131 276.508 123.183 276.508C123.968 276.508 124.585 276.326 125.034 275.961C125.497 275.597 125.854 275.007 126.107 274.194H127.852ZM126.128 271.227C126.044 270.189 125.728 269.383 125.181 268.807C124.634 268.218 123.912 267.924 123.015 267.924C122.145 267.924 121.423 268.218 120.848 268.807C120.273 269.397 119.93 270.203 119.818 271.227H126.128Z" fill="black"/>
<path d="M131.662 277.624H129.874V266.767H131.662V271.08H137.089V266.767H138.876V277.624H137.089V272.658H131.662V277.624Z" fill="black"/>
<path d="M143.35 277.624H141.562V266.767H143.35V271.08H148.776V266.767H150.564V277.624H148.776V272.658H143.35V277.624Z" fill="black"/>
<path d="M154.112 268.008C155.065 266.97 156.362 266.451 158.003 266.451C159.644 266.451 160.92 266.949 161.831 267.945C162.743 268.941 163.198 270.336 163.198 272.132C163.198 273.969 162.743 275.4 161.831 276.424C160.92 277.448 159.637 277.96 157.982 277.96C156.327 277.96 155.03 277.455 154.091 276.445C153.151 275.435 152.682 274.033 152.682 272.237C152.682 270.456 153.158 269.046 154.112 268.008ZM160.443 269.102C159.84 268.331 159.013 267.945 157.961 267.945C156.909 267.945 156.075 268.331 155.458 269.102C154.841 269.874 154.533 270.905 154.533 272.195C154.533 273.528 154.834 274.573 155.437 275.33C156.054 276.074 156.909 276.445 158.003 276.445C159.055 276.445 159.875 276.067 160.464 275.309C161.067 274.552 161.369 273.507 161.369 272.174C161.369 270.883 161.06 269.86 160.443 269.102Z" fill="black"/>
<path d="M173.005 262.643C172.865 263.526 172.521 264.235 171.974 264.768C171.441 265.287 170.733 265.546 169.85 265.546C168.994 265.546 168.272 265.28 167.683 264.747C167.108 264.2 166.765 263.498 166.653 262.643H167.725C168.048 263.737 168.749 264.284 169.829 264.284C170.866 264.284 171.568 263.737 171.932 262.643H173.005ZM167.62 277.624H165.327V266.767H167.115V275.625H167.157L172.037 266.767H174.33V277.624H172.542V268.765H172.5L167.62 277.624Z" fill="black"/>
<path d="M193.386 281.074H191.683V277.624H183.395V281.074H181.691V276.045H182.869C183.206 275.4 183.514 274.404 183.795 273.058C184.089 271.697 184.237 270.371 184.237 269.081V266.767H191.977V276.045H193.386V281.074ZM190.189 276.045V268.345H185.982V269.249C185.982 270.526 185.849 271.823 185.583 273.142C185.33 274.446 185.043 275.414 184.72 276.045H190.189Z" fill="black"/>
<path d="M204.223 274.194C203.676 276.719 202.099 277.981 199.491 277.981C197.892 277.981 196.637 277.483 195.726 276.487C194.828 275.491 194.379 274.11 194.379 272.342C194.379 270.589 194.842 269.172 195.768 268.092C196.707 266.998 197.927 266.451 199.428 266.451C201.096 266.451 202.33 267.019 203.13 268.155C203.943 269.277 204.349 270.701 204.349 272.426V272.679H196.188L196.167 272.805C196.167 273.955 196.469 274.86 197.072 275.519C197.675 276.179 198.502 276.508 199.554 276.508C200.339 276.508 200.956 276.326 201.405 275.961C201.867 275.597 202.225 275.007 202.477 274.194H204.223ZM202.498 271.227C202.414 270.189 202.099 269.383 201.552 268.807C201.005 268.218 200.283 267.924 199.385 267.924C198.516 267.924 197.794 268.218 197.219 268.807C196.644 269.397 196.301 270.203 196.188 271.227H202.498Z" fill="black"/>
<path d="M207.928 266.767V268.302C208.713 267.054 209.933 266.43 211.587 266.43C213.102 266.43 214.301 266.942 215.184 267.966C216.082 268.99 216.53 270.379 216.53 272.132C216.53 273.885 216.089 275.288 215.205 276.34C214.336 277.378 213.158 277.897 211.672 277.897C210.115 277.897 208.902 277.301 208.033 276.109V281.811H206.245V266.767H207.928ZM211.314 267.924C210.276 267.924 209.456 268.302 208.853 269.06C208.264 269.803 207.97 270.834 207.97 272.153C207.97 273.471 208.271 274.51 208.874 275.267C209.491 276.01 210.325 276.382 211.377 276.382C212.401 276.382 213.207 276.003 213.796 275.246C214.385 274.488 214.679 273.457 214.679 272.153C214.679 270.834 214.378 269.803 213.775 269.06C213.186 268.302 212.366 267.924 211.314 267.924Z" fill="black"/>
<path d="M222.929 272.363L219.206 277.624H216.997L221.751 271.227L217.607 266.767H219.816L224.233 271.753H224.275V266.767H226.063V271.753H226.105L230.522 266.767H232.73L228.587 271.227L233.34 277.624H231.132L227.409 272.363L226.063 273.731V277.624H224.275V273.731L222.929 272.363Z" fill="black"/>
<path d="M244.327 276.193V277.581C243.962 277.722 243.556 277.792 243.107 277.792C242.083 277.792 241.557 277.259 241.529 276.193C240.506 277.343 239.195 277.918 237.596 277.918C236.53 277.918 235.682 277.645 235.051 277.098C234.434 276.55 234.125 275.8 234.125 274.846C234.125 272.91 235.408 271.781 237.975 271.459C238.143 271.431 238.388 271.402 238.711 271.374C239.931 271.234 240.681 271.073 240.961 270.89C241.284 270.666 241.445 270.28 241.445 269.733C241.445 268.541 240.625 267.945 238.984 267.945C238.143 267.945 237.505 268.12 237.07 268.471C236.635 268.807 236.376 269.369 236.292 270.154H234.546C234.574 268.99 234.988 268.085 235.787 267.44C236.586 266.795 237.687 266.472 239.089 266.472C240.618 266.472 241.754 266.823 242.497 267.524C242.735 267.748 242.911 268.043 243.023 268.408C243.135 268.772 243.198 269.074 243.212 269.312C243.226 269.537 243.233 269.881 243.233 270.343C243.233 270.876 243.219 271.683 243.191 272.763C243.163 273.843 243.149 274.65 243.149 275.183C243.149 275.576 243.198 275.856 243.296 276.024C243.408 276.179 243.605 276.256 243.885 276.256C243.997 276.256 244.145 276.235 244.327 276.193ZM241.445 271.985C241.319 272.083 241.186 272.167 241.046 272.237C240.905 272.307 240.723 272.363 240.499 272.405C240.288 272.448 240.141 272.483 240.057 272.511C239.987 272.525 239.805 272.553 239.51 272.595C239.216 272.623 239.061 272.637 239.047 272.637C238.613 272.693 238.325 272.735 238.185 272.763C238.059 272.777 237.806 272.833 237.428 272.931C237.063 273.03 236.804 273.142 236.649 273.268C236.495 273.394 236.341 273.584 236.187 273.836C236.047 274.075 235.976 274.362 235.976 274.699C235.976 275.26 236.166 275.702 236.544 276.024C236.937 276.347 237.47 276.508 238.143 276.508C238.998 276.508 239.762 276.256 240.436 275.751C241.109 275.246 241.445 274.65 241.445 273.962V271.985Z" fill="black"/>
<path d="M245.97 277.624V266.767H250.997C251.712 266.767 252.322 266.83 252.827 266.956C253.332 267.068 253.773 267.328 254.152 267.734C254.531 268.141 254.72 268.695 254.72 269.397C254.72 270.463 254.187 271.241 253.121 271.732V271.753C253.766 271.879 254.271 272.181 254.636 272.658C255 273.121 255.183 273.71 255.183 274.425C255.183 275.351 254.874 276.116 254.257 276.719C253.64 277.322 252.848 277.624 251.88 277.624H245.97ZM250.808 271.143C251.551 271.143 252.077 271.024 252.385 270.785C252.708 270.533 252.869 270.168 252.869 269.691C252.869 269.214 252.715 268.864 252.406 268.639C252.098 268.415 251.565 268.302 250.808 268.302H247.716V271.143H250.808ZM247.716 272.658V276.088H251.544C252.105 276.088 252.539 275.919 252.848 275.583C253.17 275.246 253.332 274.811 253.332 274.278C253.332 273.198 252.63 272.658 251.228 272.658H247.716Z" fill="black"/>
<path d="M267.658 266.767H269.446V277.624H267.658V266.767ZM264.966 271.816C265.611 272.405 265.933 273.212 265.933 274.236C265.933 275.26 265.618 276.081 264.987 276.698C264.37 277.315 263.535 277.624 262.484 277.624H257.246V266.767H259.034V270.912H262.399C263.465 270.912 264.321 271.213 264.966 271.816ZM261.832 272.448H259.034V276.045H261.832C262.561 276.045 263.115 275.891 263.493 275.583C263.886 275.26 264.082 274.811 264.082 274.236C264.082 273.044 263.332 272.448 261.832 272.448Z" fill="black"/>
<path d="M276.2 268.597L279.46 271.206V272.995L276.2 275.498V273.71L278.345 272.111L276.2 270.449V268.597ZM272.098 268.639L275.295 271.185V272.974L272.098 275.456V273.668L274.202 272.09L272.098 270.449V268.639Z" fill="black"/>
<path d="M284.59 275.288V277.624H282.255V275.288H284.59Z" fill="black"/>
<path d="M4.84776 24.3316H1.76878V0.567404H17.0982V3.30429H4.84776V24.3316Z" fill="black"/>
<path d="M29.5083 0C33.0458 0 35.7973 1.13481 37.7626 3.40442C39.7279 5.65178 40.7105 8.60006 40.7105 12.2492C40.7105 15.9207 39.7388 18.9468 37.7953 21.3277C35.8518 23.7086 33.1004 24.899 29.541 24.899C27.7286 24.899 26.1017 24.5652 24.6605 23.8977C23.2193 23.2302 22.0401 22.3067 21.123 21.1274C20.2277 19.9481 19.5398 18.6019 19.0594 17.0889C18.6008 15.5758 18.3715 13.9403 18.3715 12.1825C18.3715 8.46655 19.376 5.50715 21.385 3.30429C23.4158 1.10143 26.1236 0 29.5083 0ZM29.5083 2.73689C26.9097 2.73689 24.9116 3.67144 23.5141 5.54053C22.1384 7.38737 21.4505 9.67924 21.4505 12.4161C21.4505 15.3978 22.182 17.7786 23.6451 19.5587C25.13 21.3166 27.1062 22.1955 29.5738 22.1955C32.0195 22.1955 33.9739 21.3054 35.4369 19.5254C36.9 17.7453 37.6315 15.3755 37.6315 12.4161C37.6315 9.47898 36.8891 7.13148 35.4042 5.37365C33.9411 3.61581 31.9758 2.73689 29.5083 2.73689Z" fill="black"/>
<path d="M44.699 0.567404H54.2962C56.6764 0.567404 58.5653 1.12368 59.9629 2.23624C61.3604 3.32654 62.0592 5.051 62.0592 7.40962C62.0592 12.1936 59.406 14.5856 54.0997 14.5856H47.778V24.3316H44.699V0.567404ZM47.778 3.27091V11.9489H53.7066C55.3662 11.9489 56.6546 11.6373 57.5717 11.0143C58.5107 10.369 58.9802 9.23421 58.9802 7.60988C58.9802 6.69759 58.8273 5.94105 58.5216 5.34027C58.2378 4.73949 57.8119 4.29447 57.2442 4.0052C56.6764 3.71594 56.0868 3.5268 55.4754 3.4378C54.864 3.32654 54.1324 3.27091 53.2808 3.27091H47.778Z" fill="black"/>
<path d="M74.586 14.1851L66.8885 24.3316H63.0889L70.8846 14.085C69.0285 13.8402 67.5982 13.1504 66.5937 12.0156C65.5892 10.8808 65.087 9.33434 65.087 7.37625C65.087 5.17339 65.7312 3.49343 67.0195 2.33637C68.3297 1.15706 70.1422 0.567404 72.4569 0.567404H82.48V24.3316H79.401V14.1851H74.586ZM79.401 11.515V3.23754H73.5051C69.9675 3.23754 68.1987 4.61711 68.1987 7.37625C68.1987 10.1354 69.9675 11.515 73.5051 11.515H79.401Z" fill="black"/>
<path d="M104.36 24.3316H101.281V13.7512C98.9009 14.3075 96.7391 14.5856 94.7956 14.5856C93.4417 14.5856 92.2407 14.4187 91.1926 14.085C90.1662 13.7289 89.3692 13.3062 88.8014 12.8166C88.2555 12.3049 87.8079 11.7041 87.4585 11.0143C87.1091 10.3245 86.8798 9.70149 86.7706 9.14521C86.6614 8.56668 86.6068 7.9659 86.6068 7.34287V0.567404H89.6858V7.07586C89.6858 7.54313 89.7077 7.9659 89.7513 8.34417C89.8168 8.70019 89.9479 9.11183 90.1444 9.57911C90.3409 10.0241 90.6139 10.4024 90.9633 10.7139C91.3127 11.0254 91.8149 11.2924 92.47 11.515C93.1251 11.7152 93.9003 11.8153 94.7956 11.8153C96.7609 11.8153 98.9228 11.5483 101.281 11.0143V0.567404H104.36V24.3316Z" fill="black"/>
<path d="M109.502 24.3316V0.567404H112.581V20.6935H112.647L124.078 0.567404H127.976V24.3316H124.897V4.13871H124.832L113.368 24.3316H109.502Z" fill="black"/>
<path d="M149.289 0.567404V3.30429H136.22V10.7473H148.438V13.384H136.22V21.5947H149.453V24.3316H133.141V0.567404H149.289Z" fill="black"/>
<path d="M180.756 0.567404V24.3316H177.677V13.2172H165.361V24.3316H162.282V0.567404H165.361V10.4803H177.677V0.567404H180.756Z" fill="black"/>
<path d="M195.747 0C199.284 0 202.036 1.13481 204.001 3.40442C205.967 5.65178 206.949 8.60006 206.949 12.2492C206.949 15.9207 205.977 18.9468 204.034 21.3277C202.09 23.7086 199.339 24.899 195.78 24.899C193.967 24.899 192.34 24.5652 190.899 23.8977C189.458 23.2302 188.279 22.3067 187.362 21.1274C186.466 19.9481 185.778 18.6019 185.298 17.0889C184.839 15.5758 184.61 13.9403 184.61 12.1825C184.61 8.46655 185.615 5.50715 187.624 3.30429C189.654 1.10143 192.362 0 195.747 0ZM195.747 2.73689C193.148 2.73689 191.15 3.67144 189.753 5.54053C188.377 7.38737 187.689 9.67924 187.689 12.4161C187.689 15.3978 188.421 17.7786 189.884 19.5587C191.369 21.3166 193.345 22.1955 195.812 22.1955C198.258 22.1955 200.213 21.3054 201.676 19.5254C203.139 17.7453 203.87 15.3755 203.87 12.4161C203.87 9.47898 203.128 7.13148 201.643 5.37365C200.18 3.61581 198.214 2.73689 195.747 2.73689Z" fill="black"/>
<path d="M210.807 0.567404H220.764C222.904 0.567404 224.673 1.0458 226.07 2.0026C227.49 2.9594 228.2 4.46135 228.2 6.50845C228.2 7.68776 227.883 8.74469 227.25 9.67924C226.638 10.5915 225.808 11.2368 224.76 11.6151C226.202 11.9489 227.304 12.6386 228.069 13.6844C228.855 14.7302 229.248 16.0431 229.248 17.6229C229.248 22.0954 226.3 24.3316 220.404 24.3316H210.807V0.567404ZM213.82 3.23754V10.7473H219.356C219.989 10.7473 220.524 10.7362 220.961 10.7139C221.419 10.6694 221.932 10.5804 222.5 10.4469C223.068 10.3134 223.516 10.1243 223.843 9.8795C224.193 9.61248 224.487 9.23421 224.728 8.74469C224.99 8.25517 225.121 7.66551 225.121 6.97573C225.121 6.28594 225.011 5.70741 224.793 5.24014C224.575 4.75061 224.313 4.38347 224.007 4.13871C223.701 3.87169 223.275 3.67143 222.729 3.53793C222.205 3.40442 221.725 3.32654 221.288 3.30429C220.873 3.25979 220.327 3.23754 219.65 3.23754H213.82ZM213.82 13.2172V21.6948H219.978C220.742 21.6948 221.365 21.6837 221.845 21.6615C222.325 21.617 222.86 21.5168 223.45 21.3611C224.062 21.2053 224.542 20.9828 224.891 20.6935C225.241 20.382 225.535 19.9481 225.776 19.3919C226.016 18.8133 226.136 18.1235 226.136 17.3225C226.136 16.655 226.049 16.0764 225.874 15.5869C225.721 15.0974 225.448 14.708 225.055 14.4187C224.684 14.1295 224.324 13.8958 223.974 13.7178C223.647 13.5398 223.166 13.4174 222.533 13.3507C221.9 13.2839 221.408 13.2505 221.059 13.2505C220.71 13.2283 220.175 13.2172 219.454 13.2172H213.82Z" fill="black"/>
<path d="M243.056 0C246.594 0 249.345 1.13481 251.311 3.40442C253.276 5.65178 254.259 8.60006 254.259 12.2492C254.259 15.9207 253.287 18.9468 251.343 21.3277C249.4 23.7086 246.648 24.899 243.089 24.899C241.277 24.899 239.65 24.5652 238.209 23.8977C236.767 23.2302 235.588 22.3067 234.671 21.1274C233.776 19.9481 233.088 18.6019 232.607 17.0889C232.149 15.5758 231.92 13.9403 231.92 12.1825C231.92 8.46655 232.924 5.50715 234.933 3.30429C236.964 1.10143 239.672 0 243.056 0ZM243.056 2.73689C240.458 2.73689 238.46 3.67144 237.062 5.54053C235.686 7.38737 234.999 9.67924 234.999 12.4161C234.999 15.3978 235.73 17.7786 237.193 19.5587C238.678 21.3166 240.654 22.1955 243.122 22.1955C245.568 22.1955 247.522 21.3054 248.985 19.5254C250.448 17.7453 251.18 15.3755 251.18 12.4161C251.18 9.47898 250.437 7.13148 248.952 5.37365C247.489 3.61581 245.524 2.73689 243.056 2.73689Z" fill="black"/>
<path d="M277.867 15.3533C277.605 18.3572 276.579 20.7047 274.788 22.3958C273.02 24.0646 270.683 24.899 267.779 24.899C264.46 24.899 261.828 23.7864 259.885 21.5613C257.941 19.314 256.97 16.2878 256.97 12.4829C256.97 8.9227 257.941 5.9633 259.885 3.60468C261.85 1.22381 264.558 0.0333763 268.008 0.0333763C270.476 0.0333763 272.648 0.712035 274.526 2.06935C276.404 3.42667 277.452 5.30689 277.671 7.71001H274.592C274.242 6.15244 273.478 4.93975 272.299 4.07195C271.12 3.18191 269.668 2.73689 267.943 2.73689C265.344 2.73689 263.379 3.67144 262.047 5.54053C260.736 7.40962 260.081 9.71261 260.081 12.4495C260.081 15.4757 260.78 17.8565 262.178 19.5921C263.575 21.3277 265.486 22.1955 267.91 22.1955C269.897 22.1955 271.48 21.617 272.659 20.4599C273.838 19.2806 274.548 17.5784 274.788 15.3533H277.867Z" fill="black"/>
<path d="M297.36 0.567404V3.30429H289.531V24.3316H286.453V3.30429H278.624V0.567404H297.36Z" fill="black"/>
<path d="M299.988 24.3316V0.567404H303.067V20.6935H303.132L314.564 0.567404H318.461V24.3316H315.382V4.13871H315.317L303.853 24.3316H299.988Z" fill="black"/>
<path d="M326.836 0.567404V7.84352L326.017 18.4239H324.511L323.757 7.84352V0.567404H326.836ZM327 20.9606V24.3316H323.561V20.9606H327Z" fill="black"/>
<path d="M15.1329 57.5223V60.0923H0C0.0655103 58.7795 0.262041 57.6336 0.589592 56.6545C0.917143 55.6755 1.41939 54.7966 2.09633 54.0178C2.7951 53.2167 3.47204 52.5603 4.12715 52.0485C4.78225 51.5368 5.71031 50.9026 6.91133 50.1461C8.78929 48.9445 10.0231 48.0433 10.6127 47.4426C11.8355 46.2188 12.4469 44.8614 12.4469 43.3706C12.4469 42.0578 12.032 40.9897 11.2023 40.1664C10.3725 39.3209 9.29154 38.8981 7.9595 38.8981C6.36541 38.8981 5.21898 39.4655 4.52021 40.6003C3.84327 41.7129 3.48296 43.1258 3.43929 44.8392H0.622347V44.205C0.622347 41.8687 1.29929 39.9884 2.65317 38.5644C4.02888 37.1403 5.84133 36.4283 8.09052 36.4283C10.296 36.4283 12.0539 37.0513 13.3641 38.2974C14.6743 39.5434 15.3294 41.2122 15.3294 43.3039C15.3294 44.1939 15.1765 45.0394 14.8708 45.8405C14.5869 46.6193 14.2594 47.2757 13.8882 47.8097C13.5388 48.3437 12.9929 48.9111 12.2504 49.5119C11.5298 50.1127 10.9293 50.58 10.4489 50.9137C9.96848 51.2253 9.28062 51.6592 8.38531 52.2154C6.5947 53.3057 5.4046 54.1513 4.815 54.7521C3.98521 55.5976 3.45021 56.521 3.21 57.5223H15.1329Z" fill="black"/>
<path d="M26.4551 36.4283C27.8527 36.4283 29.0428 36.6953 30.0254 37.2293C31.0299 37.7411 31.7942 38.3752 32.3183 39.1318C32.8424 39.8883 33.2573 40.8785 33.563 42.1023C33.8687 43.3039 34.0543 44.3942 34.1198 45.3732C34.1853 46.33 34.2181 47.4871 34.2181 48.8444C34.2181 50.0905 34.1635 51.2141 34.0543 52.2154C33.967 53.2167 33.7595 54.2625 33.432 55.3528C33.1263 56.4431 32.7004 57.3554 32.1545 58.0897C31.6086 58.8018 30.8662 59.3914 29.9272 59.8587C28.9882 60.326 27.8745 60.5596 26.5862 60.5596C25.2323 60.5596 24.0531 60.326 23.0486 59.8587C22.066 59.3692 21.3017 58.7684 20.7557 58.0564C20.2098 57.3443 19.7731 56.4431 19.4455 55.3528C19.1398 54.2403 18.9433 53.1945 18.8559 52.2154C18.7686 51.2141 18.7249 50.0682 18.7249 48.7776C18.7249 47.6651 18.7468 46.6972 18.7904 45.8739C18.8559 45.0506 18.9651 44.1271 19.118 43.1036C19.2927 42.0578 19.5547 41.1789 19.9041 40.4668C20.2535 39.7326 20.7012 39.0428 21.2471 38.3975C21.793 37.7522 22.5027 37.2627 23.3762 36.9289C24.2715 36.5951 25.2978 36.4283 26.4551 36.4283ZM28.2567 39.3654C27.7326 39.0984 27.1321 38.9649 26.4551 38.9649C25.7782 38.9649 25.1777 39.0984 24.6536 39.3654C24.1295 39.6102 23.7037 39.8994 23.3762 40.2332C23.0486 40.567 22.7647 41.0676 22.5245 41.7352C22.2843 42.3804 22.1096 42.9256 22.0004 43.3706C21.9131 43.8156 21.8367 44.4609 21.7712 45.3065C21.7056 46.1297 21.6729 46.7194 21.6729 47.0754C21.6729 47.4092 21.6729 47.9766 21.6729 48.7776C21.6729 49.5564 21.6838 50.2017 21.7056 50.7135C21.7275 51.2253 21.7821 51.8928 21.8694 52.7161C21.9568 53.5394 22.1096 54.2292 22.328 54.7854C22.5464 55.3195 22.8193 55.8646 23.1469 56.4209C23.4744 56.9549 23.9221 57.3666 24.4898 57.6558C25.0794 57.9228 25.7564 58.0564 26.5206 58.0564C27.1757 58.0564 27.7544 57.934 28.2567 57.6892C28.7807 57.4444 29.2066 57.1552 29.5341 56.8214C29.8617 56.4876 30.1346 56.0204 30.353 55.4196C30.5932 54.7966 30.7679 54.2625 30.8771 53.8175C30.9863 53.3502 31.0627 52.7383 31.1064 51.9818C31.1719 51.203 31.2046 50.6356 31.2046 50.2796C31.2265 49.9013 31.2374 49.3562 31.2374 48.6441C31.2374 47.8653 31.2374 47.3091 31.2374 46.9753C31.2374 46.6415 31.2046 46.063 31.1391 45.2397C31.0736 44.4164 30.9863 43.7823 30.8771 43.3372C30.7897 42.8922 30.626 42.3471 30.3857 41.7018C30.1455 41.0565 29.8617 40.567 29.5341 40.2332C29.2066 39.8994 28.7807 39.6102 28.2567 39.3654Z" fill="black"/>
<path d="M51.5346 57.5223V60.0923H36.4017C36.4672 58.7795 36.6637 57.6336 36.9913 56.6545C37.3188 55.6755 37.8211 54.7966 38.498 54.0178C39.1968 53.2167 39.8737 52.5603 40.5288 52.0485C41.1839 51.5368 42.112 50.9026 43.313 50.1461C45.191 48.9445 46.4248 48.0433 47.0143 47.4426C48.2372 46.2188 48.8486 44.8614 48.8486 43.3706C48.8486 42.0578 48.4337 40.9897 47.6039 40.1664C46.7741 39.3209 45.6932 38.8981 44.3612 38.8981C42.7671 38.8981 41.6207 39.4655 40.9219 40.6003C40.245 41.7129 39.8846 43.1258 39.841 44.8392H37.024V44.205C37.024 41.8687 37.701 39.9884 39.0549 38.5644C40.4306 37.1403 42.243 36.4283 44.4922 36.4283C46.6977 36.4283 48.4556 37.0513 49.7658 38.2974C51.076 39.5434 51.7311 41.2122 51.7311 43.3039C51.7311 44.1939 51.5782 45.0394 51.2725 45.8405C50.9886 46.6193 50.6611 47.2757 50.2899 47.8097C49.9405 48.3437 49.3946 48.9111 48.6521 49.5119C47.9315 50.1127 47.331 50.58 46.8506 50.9137C46.3702 51.2253 45.6823 51.6592 44.787 52.2154C42.9964 53.3057 41.8063 54.1513 41.2167 54.7521C40.3869 55.5976 39.8519 56.521 39.6117 57.5223H51.5346Z" fill="black"/>
<path d="M65.51 36.4616V60.0923H62.4638V42.9701H56.6334V40.834C58.5113 40.834 59.9962 40.5225 61.088 39.8994C62.2017 39.2764 62.9442 38.1305 63.3154 36.4616H65.51Z" fill="black"/>
<path d="M86.7675 45.9406H94.5633C96.8561 45.9406 98.6249 46.5636 99.8696 47.8097C101.114 49.0558 101.737 50.8025 101.737 53.0498C101.737 55.275 101.103 57.0105 99.8368 58.2566C98.5922 59.4804 96.8343 60.0923 94.5633 60.0923H83.6886V36.3281H99.6731V39.065H86.7675V45.9406ZM98.6577 53.0498C98.6577 50.135 96.9544 48.6775 93.5479 48.6775H86.7675V57.3554H93.5479C96.9544 57.3554 98.6577 55.9202 98.6577 53.0498Z" fill="black"/>
<path d="M111.432 53.8843L102.916 36.3281H106.289L113.102 50.8136L119.784 36.3281H123.093L114.02 55.2527C113.081 57.2108 112.109 58.6015 111.104 59.4248C110.122 60.2481 109.03 60.6597 107.829 60.6597C106.781 60.6597 105.82 60.4595 104.946 60.059V57.3888C105.58 57.7893 106.453 57.9896 107.567 57.9896C108.855 57.9896 110.013 56.8993 111.039 54.7187L111.432 53.8843Z" fill="black"/>
<path d="M144.69 66H141.709V60.0923H124.841V66H121.86V57.3554H124.153C125.048 55.7311 125.779 53.4059 126.347 50.3797C126.915 47.3313 127.199 44.1828 127.199 40.9341V36.3281H142.102V57.3554H144.69V66ZM139.023 57.3554V39.065H130.212V42.3026C130.212 45.173 129.95 48.0211 129.426 50.847C128.924 53.6506 128.302 55.8201 127.559 57.3554H139.023Z" fill="black"/>
<path d="M163.94 36.3281V39.065H150.87V46.508H163.088V49.1448H150.87V57.3554H164.103V60.0923H147.791V36.3281H163.94Z" fill="black"/>
<path d="M183.997 36.3281V39.065H176.168V60.0923H173.089V39.065H165.261V36.3281H183.997Z" fill="black"/>
<path d="M186.744 56.3875V60.0923H183.109V56.3875H186.744Z" fill="black"/>
<path d="M195.861 56.3875V60.0923H192.225V56.3875H195.861Z" fill="black"/>
<path d="M204.977 56.3875V60.0923H201.341V56.3875H204.977Z" fill="black"/>
<path d="M214.094 56.3875V60.0923H210.458V56.3875H214.094Z" fill="black"/>
</svg>
