<svg width="1447" height="890" viewBox="0 0 1447 890" fill="none" xmlns="http://www.w3.org/2000/svg">
<rect x="3" y="0.542969" width="1442" height="888" fill="white"/>
<rect x="181" y="180.543" width="363" height="175" fill="#EBFF00"/>
<rect x="181" y="708.543" width="363" height="180" fill="#2FAD74"/>
<rect x="906" y="706.543" width="175" height="182" fill="black"/>
<rect x="544" y="354.543" width="362" height="177" fill="#D597C3"/>
<rect x="1266" y="0.542969" width="179" height="182" fill="black"/>
<rect x="1268" y="354.543" width="176" height="175" fill="black"/>
<rect x="1081" y="182.543" width="185" height="172" fill="black"/>
<rect x="2" y="1.54297" width="178" height="179" fill="#2FAD74"/>
<line y1="-1" x2="887.441" y2="-1" transform="matrix(0.000968737 1 -0.999999 0.00116587 358.098 0.160156)" stroke="black" stroke-width="2"/>
<path d="M1444.55 355.747L1.55912 356.914" stroke="black" stroke-width="2"/>
<line y1="-1" x2="887.441" y2="-1" transform="matrix(0.000968737 1 -0.999999 0.00116587 1080.75 0.160156)" stroke="black" stroke-width="2"/>
<line y1="-1" x2="887.441" y2="-1" transform="matrix(0.000968737 1 -0.999999 0.00116587 719.426 0.160156)" stroke="black" stroke-width="2"/>
<line y1="-1" x2="1442.16" y2="-1" transform="matrix(-1 0.000717439 -0.00157411 -0.999999 1444.31 705.506)" stroke="black" stroke-width="2"/>
<path d="M1445.17 0.15625L1444.31 889.124" stroke="black" stroke-width="2"/>
<line x1="181" y1="0.542969" x2="181" y2="888.543" stroke="black" stroke-width="2"/>
<line x1="1444" y1="181.543" x2="2" y2="181.543" stroke="black" stroke-width="2"/>
<line x1="906" y1="0.542969" x2="906" y2="888.543" stroke="black" stroke-width="2"/>
<path d="M1445 888.543L4.76837e-05 888.543" stroke="black" stroke-width="2"/>
<line x1="545" y1="0.542969" x2="545" y2="888.543" stroke="black" stroke-width="2"/>
<line x1="1444" y1="530.543" x2="2" y2="530.543" stroke="black" stroke-width="2"/>
<line x1="1267" y1="0.542969" x2="1267" y2="888.543" stroke="black" stroke-width="2"/>
<line x1="1" y1="0.542969" x2="1.00004" y2="888.543" stroke="black" stroke-width="2"/>
<line x1="1443" y1="1.54297" x2="2" y2="1.54297" stroke="black" stroke-width="2"/>
<path d="M1168.01 144.688V153.543H1114.88C1115.11 149.02 1115.8 145.071 1116.95 141.698C1118.1 138.325 1119.86 135.296 1122.24 132.613C1124.69 129.853 1127.07 127.591 1129.37 125.828C1131.67 124.065 1134.92 121.88 1139.14 119.273C1145.73 115.133 1150.07 112.028 1152.14 109.958C1156.43 105.741 1158.58 101.065 1158.58 95.928C1158.58 91.4046 1157.12 87.7246 1154.21 84.888C1151.29 81.9746 1147.5 80.518 1142.82 80.518C1137.22 80.518 1133.2 82.473 1130.75 86.383C1128.37 90.2163 1127.1 95.0846 1126.95 100.988H1117.06V98.803C1117.06 90.753 1119.44 84.2746 1124.19 79.368C1129.02 74.4613 1135.38 72.008 1143.28 72.008C1151.02 72.008 1157.2 74.1546 1161.8 78.448C1166.4 82.7413 1168.7 88.4913 1168.7 95.698C1168.7 98.7646 1168.16 101.678 1167.09 104.438C1166.09 107.121 1164.94 109.383 1163.64 111.223C1162.41 113.063 1160.49 115.018 1157.89 117.088C1155.36 119.158 1153.25 120.768 1151.56 121.918C1149.87 122.991 1147.46 124.486 1144.32 126.403C1138.03 130.16 1133.85 133.073 1131.78 135.143C1128.87 138.056 1126.99 141.238 1126.15 144.688H1168.01ZM1198.21 140.778V153.543H1185.45V140.778H1198.21Z" fill="black"/>
<path d="M206.185 852.716H204.245V846.109C202.745 846.456 201.383 846.63 200.159 846.63C199.306 846.63 198.549 846.526 197.889 846.317C197.242 846.095 196.74 845.831 196.383 845.525C196.039 845.206 195.757 844.831 195.537 844.4C195.316 843.969 195.172 843.58 195.103 843.233C195.034 842.871 195 842.496 195 842.107V837.876H196.94V841.941C196.94 842.232 196.954 842.496 196.981 842.733C197.022 842.955 197.105 843.212 197.229 843.504C197.353 843.782 197.525 844.018 197.745 844.212C197.965 844.407 198.281 844.574 198.694 844.712C199.107 844.838 199.595 844.9 200.159 844.9C201.397 844.9 202.759 844.733 204.245 844.4V837.876H206.185V852.716Z" fill="black"/>
<path d="M215.595 837.876L221.332 852.716H219.165L217.535 848.172H211.364L209.693 852.716H207.629L213.407 837.876H215.595ZM216.957 846.609L214.46 839.752L211.922 846.609H216.957Z" fill="black"/>
<path d="M235.25 847.109C235.085 848.985 234.438 850.451 233.31 851.507C232.195 852.549 230.723 853.07 228.894 853.07C226.803 853.07 225.145 852.375 223.92 850.986C222.696 849.582 222.084 847.693 222.084 845.317C222.084 843.094 222.696 841.246 223.92 839.773C225.159 838.286 226.864 837.543 229.038 837.543C230.593 837.543 231.962 837.967 233.145 838.814C234.328 839.662 234.988 840.836 235.126 842.337H233.186C232.966 841.364 232.484 840.607 231.741 840.065C230.999 839.509 230.084 839.231 228.997 839.231C227.36 839.231 226.122 839.815 225.282 840.982C224.457 842.149 224.044 843.587 224.044 845.296C224.044 847.186 224.484 848.672 225.365 849.756C226.245 850.84 227.449 851.382 228.976 851.382C230.228 851.382 231.226 851.021 231.968 850.298C232.711 849.562 233.159 848.499 233.31 847.109H235.25Z" fill="black"/>
<path d="M247.53 837.876V839.585H242.598V852.716H240.658V839.585H235.726V837.876H247.53Z" fill="black"/>
<path d="M260.825 837.876V852.716H258.885V845.775H251.126V852.716H249.186V837.876H251.126V844.066H258.885V837.876H260.825Z" fill="black"/>
<path d="M276.873 837.876H278.813V852.716H276.873V837.876ZM275.036 848.318C275.036 849.707 274.637 850.791 273.84 851.569C273.055 852.334 271.948 852.716 270.517 852.716H264.079V837.876H266.018V843.9H270.517C271.962 843.9 273.076 844.289 273.86 845.067C274.644 845.831 275.036 846.915 275.036 848.318ZM273.076 848.318C273.076 846.498 272.003 845.588 269.857 845.588H266.018V851.007H269.857C272.003 851.007 273.076 850.11 273.076 848.318Z" fill="black"/>
<path d="M292.228 837.876V839.585H283.995V844.233H291.692V845.88H283.995V851.007H292.332V852.716H282.055V837.876H292.228Z" fill="black"/>
<path d="M195.66 878.189V863.349H197.6V875.917H197.641L204.844 863.349H207.299V878.189H205.359V865.58H205.318L198.095 878.189H195.66Z" fill="black"/>
<path d="M222.192 863.349V878.189H220.252V871.248H212.493V878.189H210.553V863.349H212.493V869.539H220.252V863.349H222.192Z" fill="black"/>
<path d="M225.446 863.349H231.719C233.068 863.349 234.182 863.648 235.062 864.246C235.957 864.843 236.404 865.781 236.404 867.059C236.404 867.796 236.204 868.456 235.805 869.039C235.42 869.609 234.897 870.012 234.237 870.248C235.145 870.456 235.84 870.887 236.321 871.54C236.817 872.193 237.064 873.013 237.064 874C237.064 876.792 235.207 878.189 231.492 878.189H225.446V863.349ZM227.345 865.017V869.706H230.832C231.231 869.706 231.568 869.699 231.843 869.685C232.132 869.658 232.455 869.602 232.813 869.519C233.171 869.435 233.453 869.317 233.659 869.164C233.879 868.998 234.065 868.761 234.216 868.456C234.381 868.15 234.464 867.782 234.464 867.351C234.464 866.92 234.395 866.559 234.258 866.267C234.12 865.962 233.955 865.732 233.762 865.58C233.57 865.413 233.302 865.288 232.958 865.204C232.627 865.121 232.325 865.072 232.05 865.058C231.788 865.031 231.444 865.017 231.018 865.017H227.345ZM227.345 871.248V876.542H231.224C231.706 876.542 232.098 876.535 232.4 876.521C232.703 876.494 233.04 876.431 233.412 876.334C233.797 876.236 234.099 876.098 234.32 875.917C234.54 875.722 234.725 875.451 234.877 875.104C235.028 874.743 235.104 874.312 235.104 873.812C235.104 873.395 235.049 873.034 234.939 872.728C234.842 872.422 234.67 872.179 234.423 871.999C234.189 871.818 233.962 871.672 233.742 871.561C233.535 871.45 233.233 871.373 232.834 871.332C232.435 871.29 232.125 871.269 231.905 871.269C231.685 871.255 231.348 871.248 230.894 871.248H227.345Z" fill="black"/>
<path d="M249.747 863.349V865.058H241.513V869.706H249.21V871.353H241.513V876.48H249.85V878.189H239.573V863.349H249.747Z" fill="black"/>
<path d="M264.632 872.582C264.467 874.458 263.821 875.924 262.692 876.98C261.578 878.022 260.106 878.543 258.276 878.543C256.185 878.543 254.527 877.848 253.303 876.459C252.078 875.055 251.466 873.166 251.466 870.79C251.466 868.567 252.078 866.719 253.303 865.246C254.541 863.759 256.247 863.016 258.421 863.016C259.975 863.016 261.344 863.44 262.527 864.287C263.71 865.135 264.371 866.309 264.508 867.81H262.569C262.348 866.837 261.867 866.08 261.124 865.538C260.381 864.982 259.466 864.704 258.379 864.704C256.742 864.704 255.504 865.288 254.665 866.455C253.839 867.622 253.427 869.06 253.427 870.769C253.427 872.659 253.867 874.145 254.747 875.229C255.628 876.313 256.832 876.855 258.359 876.855C259.611 876.855 260.608 876.494 261.351 875.771C262.094 875.035 262.541 873.972 262.692 872.582H264.632Z" fill="black"/>
<path d="M276.913 863.349V865.058H271.981V878.189H270.041V865.058H265.109V863.349H276.913Z" fill="black"/>
<path d="M284.396 862.995C286.625 862.995 288.359 863.704 289.597 865.121C290.835 866.524 291.454 868.365 291.454 870.644C291.454 872.937 290.842 874.826 289.617 876.313C288.393 877.8 286.66 878.543 284.417 878.543C283.275 878.543 282.25 878.335 281.342 877.918C280.434 877.501 279.691 876.924 279.114 876.188C278.55 875.451 278.116 874.611 277.813 873.666C277.525 872.721 277.38 871.7 277.38 870.602C277.38 868.282 278.013 866.434 279.279 865.058C280.558 863.683 282.264 862.995 284.396 862.995ZM284.396 864.704C282.759 864.704 281.501 865.288 280.62 866.455C279.753 867.608 279.32 869.039 279.32 870.748C279.32 872.61 279.781 874.097 280.703 875.208C281.638 876.306 282.883 876.855 284.438 876.855C285.979 876.855 287.21 876.299 288.132 875.187C289.053 874.076 289.514 872.596 289.514 870.748C289.514 868.914 289.047 867.448 288.111 866.351C287.189 865.253 285.951 864.704 284.396 864.704Z" fill="black"/>
<path d="M293.967 863.349H300.013C301.513 863.349 302.703 863.697 303.583 864.392C304.464 865.072 304.904 866.149 304.904 867.622C304.904 870.609 303.233 872.103 299.889 872.103H295.907V878.189H293.967V863.349ZM295.907 865.038V870.456H299.642C300.687 870.456 301.499 870.262 302.077 869.873C302.669 869.47 302.964 868.761 302.964 867.747C302.964 867.177 302.868 866.705 302.675 866.33C302.497 865.955 302.228 865.677 301.871 865.496C301.513 865.316 301.141 865.197 300.756 865.142C300.371 865.072 299.91 865.038 299.374 865.038H295.907Z" fill="black"/>
<path d="M320.06 863.349H322V878.189H320.06V863.349ZM318.224 873.791C318.224 875.181 317.825 876.264 317.027 877.042C316.242 877.807 315.135 878.189 313.704 878.189H307.266V863.349H309.205V869.373H313.704C315.149 869.373 316.263 869.762 317.047 870.54C317.831 871.304 318.224 872.388 318.224 873.791ZM316.263 873.791C316.263 871.971 315.19 871.061 313.044 871.061H309.205V876.48H313.044C315.19 876.48 316.263 875.583 316.263 873.791Z" fill="black"/>
<path d="M19.1458 101.543C21.4157 101.543 23.1811 102.243 24.4421 103.644C25.7032 105.03 26.3337 106.849 26.3337 109.101C26.3337 111.366 25.7102 113.234 24.4632 114.703C23.2161 116.172 21.4507 116.906 19.1668 116.906C18.0039 116.906 16.96 116.7 16.0353 116.288C15.1105 115.877 14.3539 115.307 13.7654 114.579C13.191 113.851 12.7496 113.021 12.4414 112.087C12.1471 111.154 12 110.145 12 109.06C12 106.767 12.6445 104.941 13.9336 103.582C15.2366 102.223 16.9741 101.543 19.1458 101.543ZM19.1458 103.232C17.4785 103.232 16.1964 103.808 15.2997 104.962C14.417 106.101 13.9756 107.515 13.9756 109.204C13.9756 111.044 14.445 112.513 15.3838 113.611C16.3365 114.696 17.6046 115.238 19.1879 115.238C20.7571 115.238 22.0112 114.689 22.9499 113.591C23.8887 112.492 24.3581 111.03 24.3581 109.204C24.3581 107.392 23.8817 105.943 22.9289 104.859C21.9901 103.774 20.7291 103.232 19.1458 103.232Z" fill="black"/>
<path d="M30.7844 107.824H35.7865C37.2576 107.824 38.3926 108.209 39.1912 108.978C39.9899 109.746 40.3892 110.824 40.3892 112.211C40.3892 113.584 39.9829 114.655 39.1702 115.424C38.3716 116.179 37.2436 116.556 35.7865 116.556H28.8088V101.893H39.0651V103.582H30.7844V107.824ZM38.4136 112.211C38.4136 110.412 37.3207 109.513 35.1349 109.513H30.7844V114.867H35.1349C37.3207 114.867 38.4136 113.982 38.4136 112.211Z" fill="black"/>
<path d="M62.0488 116.556H43.0704V101.893H45.046V114.867H51.6874V101.893H53.663V114.867H60.3044V101.893H62.28V114.867H63.9824V120.201H62.0488V116.556Z" fill="black"/>
<path d="M76.3196 101.893V103.582H67.9338V108.174H75.7732V109.801H67.9338V114.867H76.4247V116.556H65.9582V101.893H76.3196Z" fill="black"/>
<path d="M91.4798 111.016C91.3117 112.87 90.6532 114.318 89.5042 115.362C88.3693 116.391 86.8701 116.906 85.0066 116.906C82.8768 116.906 81.1885 116.22 79.9414 114.847C78.6944 113.46 78.0709 111.593 78.0709 109.245C78.0709 107.049 78.6944 105.222 79.9414 103.767C81.2025 102.298 82.9399 101.564 85.1537 101.564C86.737 101.564 88.1311 101.982 89.3361 102.82C90.5411 103.657 91.2136 104.817 91.3537 106.3H89.3781C89.1539 105.339 88.6635 104.591 87.9069 104.055C87.1503 103.506 86.2186 103.232 85.1116 103.232C83.4443 103.232 82.1833 103.808 81.3286 104.962C80.4879 106.115 80.0675 107.536 80.0675 109.225C80.0675 111.092 80.5159 112.561 81.4126 113.632C82.3094 114.703 83.5354 115.238 85.0906 115.238C86.3657 115.238 87.3815 114.881 88.1381 114.167C88.8947 113.44 89.3501 112.389 89.5042 111.016H91.4798Z" fill="black"/>
<path d="M103.987 101.893V103.582H98.9641V116.556H96.9885V103.582H91.9654V101.893H103.987Z" fill="black"/>
<path d="M105.673 101.893H112.062C113.435 101.893 114.57 102.188 115.467 102.779C116.378 103.369 116.833 104.296 116.833 105.559C116.833 106.287 116.63 106.939 116.224 107.515C115.831 108.078 115.299 108.476 114.626 108.71C115.551 108.916 116.259 109.341 116.749 109.987C117.254 110.632 117.506 111.442 117.506 112.417C117.506 115.176 115.614 116.556 111.831 116.556H105.673V101.893ZM107.607 103.541V108.174H111.159C111.565 108.174 111.908 108.167 112.188 108.154C112.483 108.126 112.812 108.071 113.176 107.989C113.541 107.907 113.828 107.79 114.038 107.639C114.262 107.474 114.451 107.241 114.605 106.939C114.774 106.637 114.858 106.273 114.858 105.847C114.858 105.422 114.788 105.065 114.647 104.776C114.507 104.474 114.339 104.248 114.143 104.097C113.947 103.932 113.674 103.808 113.323 103.726C112.987 103.644 112.679 103.596 112.399 103.582C112.132 103.554 111.782 103.541 111.348 103.541H107.607ZM107.607 109.698V114.929H111.558C112.048 114.929 112.448 114.922 112.756 114.909C113.064 114.881 113.407 114.819 113.786 114.723C114.178 114.627 114.486 114.49 114.71 114.311C114.935 114.119 115.124 113.851 115.278 113.508C115.432 113.151 115.509 112.726 115.509 112.231C115.509 111.82 115.453 111.463 115.341 111.16C115.243 110.858 115.068 110.618 114.816 110.44C114.577 110.261 114.346 110.117 114.122 110.007C113.912 109.897 113.604 109.822 113.197 109.781C112.791 109.739 112.476 109.719 112.251 109.719C112.027 109.705 111.684 109.698 111.222 109.698H107.607Z" fill="black"/>
<path d="M130.422 101.893V103.582H122.036V108.174H129.876V109.801H122.036V114.867H130.527V116.556H120.061V101.893H130.422Z" fill="black"/>
<path d="M144.763 101.893V116.556H142.787V109.698H134.885V116.556H132.909V101.893H134.885V108.01H142.787V101.893H144.763Z" fill="black"/>
<path d="M153.562 109.966V111.696H147.446V109.966H153.562Z" fill="black"/>
<path d="M24.6943 127.064V141.727H22.7187V134.869H14.8163V141.727H12.8407V127.064H14.8163V133.18H22.7187V127.064H24.6943Z" fill="black"/>
<path d="M41.0389 127.064H43.0145V141.727H41.0389V127.064ZM39.1684 137.382C39.1684 138.755 38.7621 139.825 37.9494 140.594C37.1508 141.349 36.0228 141.727 34.5657 141.727H28.0083V127.064H29.9839V133.016H34.5657C36.0368 133.016 37.1718 133.4 37.9704 134.169C38.7691 134.924 39.1684 135.995 39.1684 137.382ZM37.1718 137.382C37.1718 135.583 36.0789 134.684 33.8931 134.684H29.9839V140.038H33.8931C36.0789 140.038 37.1718 139.153 37.1718 137.382Z" fill="black"/>
<path d="M56.6776 127.064V128.753H48.2918V133.345H56.1312V134.972H48.2918V140.038H56.7827V141.727H46.3162V127.064H56.6776Z" fill="black"/>
<path d="M19.1458 151.885C21.4157 151.885 23.1811 152.585 24.4421 153.985C25.7032 155.372 26.3337 157.191 26.3337 159.443C26.3337 161.708 25.7102 163.575 24.4632 165.044C23.2161 166.513 21.4507 167.248 19.1668 167.248C18.0039 167.248 16.96 167.042 16.0353 166.63C15.1105 166.218 14.3539 165.648 13.7654 164.921C13.191 164.193 12.7496 163.362 12.4414 162.429C12.1471 161.495 12 160.486 12 159.401C12 157.109 12.6445 155.283 13.9336 153.923C15.2366 152.564 16.9741 151.885 19.1458 151.885ZM19.1458 153.573C17.4785 153.573 16.1964 154.15 15.2997 155.303C14.417 156.443 13.9756 157.857 13.9756 159.546C13.9756 161.385 14.445 162.854 15.3838 163.953C16.3365 165.037 17.6046 165.58 19.1879 165.58C20.7571 165.58 22.0112 165.031 22.9499 163.932C23.8887 162.834 24.3581 161.372 24.3581 159.546C24.3581 157.733 23.8817 156.285 22.9289 155.2C21.9901 154.116 20.7291 153.573 19.1458 153.573Z" fill="black"/>
<path d="M28.8928 152.235H35.0508C36.5781 152.235 37.7901 152.578 38.6868 153.264C39.5835 153.937 40.0319 155.001 40.0319 156.456C40.0319 159.408 38.3295 160.884 34.9247 160.884H30.8684V166.898H28.8928V152.235ZM30.8684 153.903V159.257H34.6725C35.7374 159.257 36.5641 159.065 37.1526 158.681C37.7551 158.283 38.0563 157.582 38.0563 156.58C38.0563 156.017 37.9582 155.55 37.7621 155.18C37.5799 154.809 37.3067 154.534 36.9424 154.356C36.5781 154.177 36.1998 154.061 35.8075 154.006C35.4151 153.937 34.9458 153.903 34.3993 153.903H30.8684Z" fill="black"/>
<path d="M44.4127 166.898H42.4371V152.235H52.2731V153.923H44.4127V166.898Z" fill="black"/>
<path d="M57.8751 152.235L63.7179 166.898H61.5111L59.8507 162.408H53.5666L51.8642 166.898H49.7625L55.6473 152.235H57.8751ZM59.2622 160.864L56.7192 154.088L54.1341 160.864H59.2622Z" fill="black"/>
<path d="M77.0729 152.235V166.898H75.0973V160.04H67.1949V166.898H65.2193V152.235H67.1949V158.351H75.0973V152.235H77.0729Z" fill="black"/>
<path d="M80.3869 166.898V152.235H82.3625V164.653H82.4045L89.7395 152.235H92.2406V166.898H90.2649V154.438H90.2229L82.8669 166.898H80.3869Z" fill="black"/>
<path d="M106.694 162.614C106.694 163.095 106.582 163.596 106.357 164.118C106.133 164.626 105.804 165.12 105.37 165.6C104.935 166.081 104.326 166.472 103.541 166.774C102.756 167.076 101.867 167.227 100.872 167.227C98.9943 167.227 97.4881 166.795 96.3532 165.93C95.2323 165.051 94.6718 163.761 94.6718 162.058H96.5844C96.6264 163.308 97.0537 164.221 97.8664 164.797C98.6791 165.36 99.7369 165.642 101.04 165.642C102.091 165.642 102.967 165.36 103.667 164.797C104.368 164.234 104.718 163.493 104.718 162.573C104.718 162.065 104.62 161.633 104.424 161.276C104.228 160.919 103.94 160.651 103.562 160.472C103.184 160.294 102.784 160.17 102.364 160.102C101.958 160.033 101.481 159.999 100.935 159.999C100.459 159.999 100.01 160.012 99.5898 160.04V158.434C99.814 158.461 100.262 158.475 100.935 158.475C103.107 158.475 104.193 157.596 104.193 155.839C104.193 154.273 103.121 153.491 100.977 153.491C98.7071 153.491 97.4671 154.486 97.2569 156.477H95.3444C95.4004 154.967 95.9469 153.827 96.9837 153.058C98.0205 152.276 99.3726 151.885 101.04 151.885C102.567 151.885 103.8 152.214 104.739 152.873C105.692 153.532 106.168 154.521 106.168 155.839C106.168 156.58 105.923 157.253 105.433 157.857C104.942 158.447 104.361 158.839 103.688 159.031V159.093C104.641 159.271 105.377 159.69 105.895 160.349C106.427 161.008 106.694 161.763 106.694 162.614Z" fill="black"/>
<path d="M115.467 152.235L121.31 166.898H119.103L117.443 162.408H111.158L109.456 166.898H107.354L113.239 152.235H115.467ZM116.854 160.864L114.311 154.088L111.726 160.864H116.854Z" fill="black"/>
<path d="M134.097 170.543V166.898H122.685V152.235H124.661V165.209H132.395V152.235H134.371V165.209H136.01V170.543H134.097Z" fill="black"/>
<path d="M137.979 166.898V152.235H139.954V164.653H139.996L147.331 152.235H149.832V166.898H147.857V154.438H147.815L140.459 166.898H137.979Z" fill="black"/>
<path d="M153.146 166.898V152.235H155.122V164.653H155.164L162.499 152.235H165V166.898H163.024V154.438H162.982L155.626 166.898H153.146Z" fill="black"/>
<path d="M930.694 450.903V465.991H928.719V452.641H920.816V465.991H918.841V450.903H930.694Z" fill="black"/>
<path d="M940.313 450.543C942.583 450.543 944.349 451.263 945.61 452.704C946.871 454.131 947.501 456.003 947.501 458.32C947.501 460.651 946.878 462.573 945.631 464.084C944.384 465.596 942.618 466.352 940.334 466.352C939.172 466.352 938.128 466.14 937.203 465.716C936.278 465.292 935.522 464.706 934.933 463.957C934.359 463.208 933.917 462.354 933.609 461.393C933.315 460.432 933.168 459.394 933.168 458.278C933.168 455.918 933.812 454.04 935.101 452.641C936.404 451.242 938.142 450.543 940.313 450.543ZM940.313 452.281C938.646 452.281 937.364 452.874 936.467 454.061C935.585 455.233 935.143 456.688 935.143 458.426C935.143 460.319 935.613 461.831 936.551 462.961C937.504 464.077 938.772 464.635 940.355 464.635C941.925 464.635 943.179 464.07 944.118 462.94C945.056 461.81 945.526 460.305 945.526 458.426C945.526 456.561 945.049 455.071 944.097 453.955C943.158 452.839 941.897 452.281 940.313 452.281Z" fill="black"/>
<path d="M961.01 450.903V465.991H959.035V452.641H953.507L953.213 461.139C953.157 462.721 952.835 463.978 952.246 464.911C951.672 465.843 950.838 466.309 949.745 466.309C949.297 466.309 948.82 466.21 948.316 466.013V464.317C948.54 464.459 948.898 464.529 949.388 464.529C949.794 464.529 950.117 464.437 950.355 464.254C950.607 464.056 950.824 463.618 951.006 462.94C951.202 462.262 951.314 461.315 951.343 460.1L951.616 450.903H961.01Z" fill="black"/>
<path d="M964.364 465.991V450.903H966.34V463.682H966.382L973.717 450.903H976.218V465.991H974.242V453.171H974.2L966.844 465.991H964.364Z" fill="black"/>
<path d="M989.914 450.903V452.641H984.891V465.991H982.915V452.641H977.892V450.903H989.914Z" fill="black"/>
<path d="M991.6 465.991V450.903H993.576V463.682H993.618L1000.95 450.903H1003.45V465.991H1001.48V453.171H1001.44L994.08 465.991H991.6Z" fill="black"/>
<path d="M1012.25 459.21V460.99H1006.14V459.21H1012.25Z" fill="black"/>
<path d="M929.559 491.892H927.584V485.174C926.057 485.527 924.669 485.704 923.422 485.704C922.554 485.704 921.783 485.598 921.111 485.386C920.452 485.16 919.941 484.892 919.576 484.581C919.226 484.256 918.939 483.874 918.715 483.436C918.49 482.998 918.343 482.603 918.273 482.25C918.203 481.882 918.168 481.501 918.168 481.105V476.804H920.144V480.936C920.144 481.233 920.158 481.501 920.186 481.741C920.228 481.967 920.312 482.229 920.438 482.525C920.564 482.808 920.739 483.048 920.963 483.246C921.188 483.444 921.51 483.613 921.93 483.754C922.351 483.881 922.848 483.945 923.422 483.945C924.683 483.945 926.071 483.776 927.584 483.436V476.804H929.559V491.892Z" fill="black"/>
<path d="M943.22 476.804V478.541H934.835V483.267H942.674V484.941H934.835V490.154H943.325V491.892H932.859V476.804H943.22Z" fill="black"/>
<path d="M958.381 486.191C958.212 488.099 957.554 489.589 956.405 490.663C955.27 491.722 953.771 492.252 951.907 492.252C949.778 492.252 948.089 491.546 946.842 490.133C945.595 488.706 944.972 486.785 944.972 484.369C944.972 482.108 945.595 480.23 946.842 478.732C948.103 477.22 949.841 476.465 952.054 476.465C953.638 476.465 955.032 476.895 956.237 477.757C957.442 478.619 958.114 479.813 958.255 481.339H956.279C956.055 480.35 955.564 479.58 954.808 479.029C954.051 478.464 953.119 478.181 952.012 478.181C950.345 478.181 949.084 478.774 948.229 479.961C947.389 481.148 946.968 482.61 946.968 484.348C946.968 486.269 947.417 487.781 948.313 488.883C949.21 489.985 950.436 490.536 951.991 490.536C953.266 490.536 954.282 490.168 955.039 489.434C955.796 488.685 956.251 487.604 956.405 486.191H958.381Z" fill="black"/>
<path d="M973.023 476.804L966.718 482.864L973.275 491.892H970.753L965.331 484.221L962.851 486.594V491.892H960.875V476.804H962.851V484.284L970.438 476.804H973.023Z" fill="black"/>
<path d="M974.893 491.892V476.804H976.869V489.582H976.911L984.246 476.804H986.747V491.892H984.771V479.071H984.729L977.373 491.892H974.893Z" fill="black"/>
<path d="M1000.42 476.804V478.541H992.036V483.267H999.876V484.941H992.036V490.154H1000.53V491.892H990.061V476.804H1000.42Z" fill="black"/>
<path d="M925.146 502.344C927.416 502.344 929.181 503.064 930.442 504.505C931.703 505.932 932.334 507.804 932.334 510.121C932.334 512.452 931.71 514.373 930.463 515.885C929.216 517.397 927.451 518.152 925.167 518.152C924.004 518.152 922.96 517.94 922.035 517.517C921.111 517.093 920.354 516.507 919.765 515.758C919.191 515.009 918.75 514.154 918.441 513.194C918.147 512.233 918 511.195 918 510.079C918 507.719 918.645 505.84 919.934 504.442C921.237 503.043 922.974 502.344 925.146 502.344ZM925.146 504.081C923.478 504.081 922.196 504.675 921.3 505.861C920.417 507.034 919.976 508.489 919.976 510.227C919.976 512.12 920.445 513.632 921.384 514.762C922.337 515.878 923.605 516.436 925.188 516.436C926.757 516.436 928.011 515.871 928.95 514.741C929.889 513.61 930.358 512.106 930.358 510.227C930.358 508.362 929.882 506.872 928.929 505.756C927.99 504.639 926.729 504.081 925.146 504.081Z" fill="black"/>
<path d="M934.893 502.704H941.051C942.578 502.704 943.79 503.057 944.687 503.764C945.584 504.456 946.032 505.551 946.032 507.048C946.032 510.086 944.33 511.604 940.925 511.604H936.868V517.792H934.893V502.704ZM936.868 504.42V509.93H940.673C941.737 509.93 942.564 509.732 943.153 509.337C943.755 508.927 944.056 508.207 944.056 507.175C944.056 506.596 943.958 506.116 943.762 505.734C943.58 505.353 943.307 505.07 942.942 504.887C942.578 504.703 942.2 504.583 941.807 504.526C941.415 504.456 940.946 504.42 940.399 504.42H936.868Z" fill="black"/>
<path d="M950.413 517.792H948.437V502.704H958.273V504.442H950.413V517.792Z" fill="black"/>
<path d="M963.875 502.704L969.718 517.792H967.511L965.851 513.172H959.567L957.864 517.792H955.763L961.647 502.704H963.875ZM965.262 511.583L962.719 504.611L960.134 511.583H965.262Z" fill="black"/>
<path d="M983.073 502.704V517.792H981.097V510.735H973.195V517.792H971.219V502.704H973.195V508.998H981.097V502.704H983.073Z" fill="black"/>
<path d="M986.387 517.792V502.704H988.363V515.482H988.405L995.74 502.704H998.241V517.792H996.265V504.971H996.223L988.867 517.792H986.387Z" fill="black"/>
<path d="M1012.69 513.384C1012.69 513.879 1012.58 514.394 1012.36 514.931C1012.13 515.454 1011.8 515.963 1011.37 516.457C1010.94 516.952 1010.33 517.354 1009.54 517.665C1008.76 517.976 1007.87 518.131 1006.87 518.131C1004.99 518.131 1003.49 517.686 1002.35 516.796C1001.23 515.892 1000.67 514.564 1000.67 512.812H1002.58C1002.63 514.098 1003.05 515.037 1003.87 515.631C1004.68 516.21 1005.74 516.499 1007.04 516.499C1008.09 516.499 1008.97 516.21 1009.67 515.631C1010.37 515.051 1010.72 514.289 1010.72 513.342C1010.72 512.819 1010.62 512.374 1010.42 512.007C1010.23 511.64 1009.94 511.364 1009.56 511.18C1009.18 510.997 1008.78 510.87 1008.36 510.799C1007.96 510.728 1007.48 510.693 1006.93 510.693C1006.46 510.693 1006.01 510.707 1005.59 510.735V509.083C1005.81 509.111 1006.26 509.125 1006.93 509.125C1009.11 509.125 1010.19 508.221 1010.19 506.412C1010.19 504.802 1009.12 503.997 1006.98 503.997C1004.71 503.997 1003.47 505.021 1003.26 507.069H1001.34C1001.4 505.515 1001.95 504.343 1002.98 503.552C1004.02 502.746 1005.37 502.344 1007.04 502.344C1008.57 502.344 1009.8 502.683 1010.74 503.361C1011.69 504.039 1012.17 505.056 1012.17 506.412C1012.17 507.175 1011.92 507.868 1011.43 508.489C1010.94 509.097 1010.36 509.499 1009.69 509.697V509.761C1010.64 509.944 1011.38 510.375 1011.89 511.053C1012.43 511.731 1012.69 512.508 1012.69 513.384Z" fill="black"/>
<path d="M1021.47 502.704L1027.31 517.792H1025.1L1023.44 513.172H1017.16L1015.46 517.792H1013.35L1019.24 502.704H1021.47ZM1022.85 511.583L1020.31 504.611L1017.73 511.583H1022.85Z" fill="black"/>
<path d="M1040.1 521.543V517.792H1028.68V502.704H1030.66V516.054H1038.39V502.704H1040.37V516.054H1042.01V521.543H1040.1Z" fill="black"/>
<path d="M1043.98 517.792V502.704H1045.95V515.482H1046L1053.33 502.704H1055.83V517.792H1053.86V504.971H1053.81L1046.46 517.792H1043.98Z" fill="black"/>
<path d="M1059.15 517.792V502.704H1061.12V515.482H1061.16L1068.5 502.704H1071V517.792H1069.02V504.971H1068.98L1061.63 517.792H1059.15Z" fill="black"/>
<path d="M575.756 161.713C575.534 164.492 574.662 166.663 573.14 168.228C571.637 169.771 569.652 170.543 567.184 170.543C564.364 170.543 562.128 169.514 560.477 167.456C558.826 165.377 558 162.578 558 159.058C558 155.765 558.826 153.028 560.477 150.846C562.147 148.644 564.448 147.543 567.379 147.543C569.476 147.543 571.322 148.171 572.918 149.426C574.513 150.682 575.404 152.421 575.589 154.644H572.973C572.676 153.203 572.027 152.081 571.025 151.279C570.023 150.455 568.789 150.044 567.324 150.044C565.116 150.044 563.446 150.908 562.314 152.637C561.201 154.366 560.644 156.496 560.644 159.028C560.644 161.827 561.238 164.029 562.425 165.634C563.613 167.24 565.236 168.042 567.296 168.042C568.984 168.042 570.329 167.507 571.331 166.437C572.333 165.346 572.936 163.772 573.14 161.713H575.756Z" fill="black"/>
<path d="M579.087 148.037H582.705L589.079 166.653L595.229 148.037H598.875V170.018H596.398V151.68L590.192 170.018H587.91L581.592 151.68V170.018H579.087V148.037Z" fill="black"/>
<path d="M603.303 170.018V148.037H605.919V166.653H605.975L615.688 148.037H619V170.018H616.384V151.34H616.328L606.587 170.018H603.303Z" fill="black"/>
<path d="M1107.21 723.881L1100.87 729.563L1107.46 738.026H1104.93L1099.48 730.834L1096.99 733.06V738.026H1095V723.881H1096.99V730.894L1104.61 723.881H1107.21Z" fill="black"/>
<path d="M1115.06 723.543C1117.34 723.543 1119.11 724.218 1120.38 725.569C1121.65 726.907 1122.28 728.662 1122.28 730.834C1122.28 733.02 1121.66 734.821 1120.4 736.238C1119.15 737.656 1117.37 738.364 1115.08 738.364C1113.91 738.364 1112.86 738.165 1111.93 737.768C1111 737.371 1110.24 736.821 1109.65 736.119C1109.07 735.417 1108.63 734.616 1108.32 733.715C1108.02 732.814 1107.87 731.841 1107.87 730.795C1107.87 728.583 1108.52 726.821 1109.82 725.51C1111.13 724.199 1112.87 723.543 1115.06 723.543ZM1115.06 725.172C1113.38 725.172 1112.09 725.728 1111.19 726.841C1110.3 727.94 1109.86 729.305 1109.86 730.934C1109.86 732.709 1110.33 734.126 1111.28 735.185C1112.23 736.232 1113.51 736.755 1115.1 736.755C1116.68 736.755 1117.94 736.225 1118.88 735.165C1119.82 734.106 1120.3 732.695 1120.3 730.934C1120.3 729.185 1119.82 727.788 1118.86 726.742C1117.92 725.695 1116.65 725.172 1115.06 725.172Z" fill="black"/>
<path d="M1124.85 723.881H1131.04C1132.58 723.881 1133.8 724.212 1134.7 724.874C1135.6 725.523 1136.05 726.55 1136.05 727.954C1136.05 730.801 1134.34 732.225 1130.92 732.225H1126.84V738.026H1124.85V723.881ZM1126.84 725.49V730.656H1130.66C1131.73 730.656 1132.56 730.47 1133.16 730.099C1133.76 729.715 1134.06 729.04 1134.06 728.073C1134.06 727.53 1133.97 727.079 1133.77 726.722C1133.59 726.364 1133.31 726.099 1132.95 725.927C1132.58 725.755 1132.2 725.642 1131.8 725.589C1131.41 725.523 1130.94 725.49 1130.39 725.49H1126.84Z" fill="black"/>
<path d="M1150.38 723.881V738.026H1148.4V725.51H1140.45V738.026H1138.47V723.881H1150.38Z" fill="black"/>
<path d="M1160.05 723.543C1162.33 723.543 1164.11 724.218 1165.38 725.569C1166.64 726.907 1167.28 728.662 1167.28 730.834C1167.28 733.02 1166.65 734.821 1165.4 736.238C1164.14 737.656 1162.37 738.364 1160.07 738.364C1158.9 738.364 1157.85 738.165 1156.93 737.768C1156 737.371 1155.24 736.821 1154.64 736.119C1154.07 735.417 1153.62 734.616 1153.31 733.715C1153.02 732.814 1152.87 731.841 1152.87 730.795C1152.87 728.583 1153.52 726.821 1154.81 725.51C1156.12 724.199 1157.87 723.543 1160.05 723.543ZM1160.05 725.172C1158.38 725.172 1157.09 725.728 1156.19 726.841C1155.3 727.94 1154.85 729.305 1154.85 730.934C1154.85 732.709 1155.33 734.126 1156.27 735.185C1157.23 736.232 1158.5 736.755 1160.09 736.755C1161.67 736.755 1162.93 736.225 1163.88 735.165C1164.82 734.106 1165.29 732.695 1165.29 730.934C1165.29 729.185 1164.81 727.788 1163.85 726.742C1162.91 725.695 1161.64 725.172 1160.05 725.172Z" fill="black"/>
<path d="M1169.85 723.881H1176.04C1177.57 723.881 1178.79 724.212 1179.69 724.874C1180.59 725.523 1181.05 726.55 1181.05 727.954C1181.05 730.801 1179.33 732.225 1175.91 732.225H1171.83V738.026H1169.85V723.881ZM1171.83 725.49V730.656H1175.66C1176.73 730.656 1177.56 730.47 1178.15 730.099C1178.76 729.715 1179.06 729.04 1179.06 728.073C1179.06 727.53 1178.96 727.079 1178.76 726.722C1178.58 726.364 1178.31 726.099 1177.94 725.927C1177.57 725.755 1177.19 725.642 1176.8 725.589C1176.4 725.523 1175.93 725.49 1175.38 725.49H1171.83Z" fill="black"/>
<path d="M1188.21 723.881L1194.08 738.026H1191.87L1190.2 733.695H1183.88L1182.17 738.026H1180.06L1185.97 723.881H1188.21ZM1189.61 732.205L1187.05 725.669L1184.45 732.205H1189.61Z" fill="black"/>
<path d="M1206.94 741.543V738.026H1195.47V723.881H1197.45V736.397H1205.23V723.881H1207.21V736.397H1208.86V741.543H1206.94Z" fill="black"/>
<path d="M1210.84 738.026V723.881H1212.83V735.861H1212.87L1220.24 723.881H1222.75V738.026H1220.77V726.007H1220.73L1213.33 738.026H1210.84Z" fill="black"/>
<path d="M1226.09 738.026V723.881H1228.07V735.861H1228.11L1235.49 723.881H1238V738.026H1236.01V726.007H1235.97L1228.58 738.026H1226.09Z" fill="black"/>
<path d="M1286.24 861.865L1292.17 876.201H1289.93L1288.24 871.811H1281.86L1280.13 876.201H1278L1283.97 861.865H1286.24ZM1287.64 870.301L1285.06 863.677L1282.44 870.301H1287.64Z" fill="black"/>
<path d="M1295.7 876.201H1293.69V861.865H1303.68V863.516H1295.7V876.201Z" fill="black"/>
<path d="M1315.88 861.865V863.516H1307.37V868.006H1315.33V869.597H1307.37V874.55H1315.99V876.201H1305.36V861.865H1315.88Z" fill="black"/>
<path d="M1330.44 861.865V876.201H1328.43V869.496H1320.41V876.201H1318.41V861.865H1320.41V867.845H1328.43V861.865H1330.44Z" fill="black"/>
<path d="M1346.67 870.785C1346.5 872.597 1345.83 874.013 1344.67 875.033C1343.51 876.04 1341.99 876.543 1340.1 876.543C1337.94 876.543 1336.22 875.872 1334.96 874.53C1333.69 873.174 1333.06 871.348 1333.06 869.053C1333.06 866.905 1333.69 865.12 1334.96 863.697C1336.24 862.261 1338 861.543 1340.25 861.543C1341.86 861.543 1343.27 861.952 1344.49 862.771C1345.72 863.59 1346.4 864.724 1346.54 866.174H1344.54C1344.31 865.234 1343.81 864.503 1343.04 863.979C1342.28 863.442 1341.33 863.174 1340.21 863.174C1338.51 863.174 1337.23 863.738 1336.37 864.865C1335.51 865.993 1335.08 867.382 1335.08 869.033C1335.08 870.858 1335.54 872.295 1336.45 873.342C1337.36 874.389 1338.61 874.912 1340.18 874.912C1341.48 874.912 1342.51 874.563 1343.28 873.865C1344.05 873.154 1344.51 872.127 1344.67 870.785H1346.67Z" fill="black"/>
<path d="M1359.37 861.865V863.516H1354.27V876.201H1352.26V863.516H1347.16V861.865H1359.37Z" fill="black"/>
<path d="M1361.08 861.865H1367.57C1368.96 861.865 1370.11 862.154 1371.02 862.731C1371.95 863.308 1372.41 864.214 1372.41 865.449C1372.41 866.16 1372.21 866.798 1371.79 867.362C1371.39 867.912 1370.85 868.301 1370.17 868.53C1371.11 868.731 1371.83 869.147 1372.33 869.778C1372.84 870.409 1373.09 871.201 1373.09 872.154C1373.09 874.852 1371.17 876.201 1367.33 876.201H1361.08V861.865ZM1363.04 863.476V868.006H1366.65C1367.06 868.006 1367.41 867.999 1367.7 867.986C1367.99 867.959 1368.33 867.905 1368.7 867.825C1369.07 867.744 1369.36 867.63 1369.57 867.483C1369.8 867.321 1369.99 867.093 1370.15 866.798C1370.32 866.503 1370.41 866.147 1370.41 865.731C1370.41 865.315 1370.33 864.966 1370.19 864.684C1370.05 864.389 1369.88 864.167 1369.68 864.019C1369.48 863.858 1369.2 863.738 1368.85 863.657C1368.51 863.577 1368.19 863.53 1367.91 863.516C1367.64 863.489 1367.28 863.476 1366.84 863.476H1363.04ZM1363.04 869.496V874.61H1367.06C1367.55 874.61 1367.96 874.603 1368.27 874.59C1368.58 874.563 1368.93 874.503 1369.32 874.409C1369.72 874.315 1370.03 874.181 1370.26 874.006C1370.48 873.818 1370.68 873.556 1370.83 873.221C1370.99 872.872 1371.07 872.456 1371.07 871.972C1371.07 871.57 1371.01 871.221 1370.9 870.926C1370.8 870.63 1370.62 870.395 1370.36 870.221C1370.12 870.046 1369.89 869.905 1369.66 869.798C1369.45 869.691 1369.13 869.617 1368.72 869.577C1368.31 869.536 1367.99 869.516 1367.76 869.516C1367.53 869.503 1367.18 869.496 1366.71 869.496H1363.04Z" fill="black"/>
<path d="M1382.07 861.865L1388 876.201H1385.76L1384.07 871.811H1377.69L1375.97 876.201H1373.83L1379.81 861.865H1382.07ZM1383.48 870.301L1380.89 863.677L1378.27 870.301H1383.48Z" fill="black"/>
<ellipse cx="1363.5" cy="470.043" rx="18.5" ry="41.5" fill="white"/>
<ellipse cx="1407.5" cy="470.043" rx="15.5" ry="41.5" fill="white"/>
<path d="M20 593.543V688.543H32.7857V645.035H76.93V634.39H32.7857V604.187H83.121V593.543H20Z" fill="black"/>
<path d="M97.8203 593.543V688.543H110.606V593.543H97.8203Z" fill="black"/>
<path d="M132.111 593.543V688.543H144.897V647.962H176.121C179.262 647.962 181.774 648.45 183.658 649.425C185.542 650.312 187.067 651.554 188.234 653.151C189.4 654.659 190.253 656.477 190.791 658.606C191.329 660.646 191.778 662.819 192.137 665.126C192.586 667.432 192.855 669.782 192.944 672.177C193.034 674.572 193.124 676.834 193.214 678.963C193.303 681.003 193.483 682.866 193.752 684.551C194.111 686.237 194.739 687.567 195.636 688.543H209.902C208.556 686.946 207.525 685.128 206.807 683.088C206.179 680.959 205.685 678.741 205.326 676.435C204.967 674.129 204.743 671.778 204.653 669.383C204.564 666.988 204.429 664.638 204.25 662.331C203.98 660.025 203.577 657.808 203.038 655.679C202.59 653.55 201.827 651.643 200.75 649.958C199.763 648.183 198.373 646.676 196.578 645.434C194.874 644.192 192.63 643.305 189.849 642.773V642.507C195.681 640.91 199.898 637.938 202.5 633.592C205.192 629.246 206.538 624.19 206.538 618.424C206.538 610.707 203.936 604.631 198.732 600.196C193.617 595.761 186.484 593.543 177.332 593.543H132.111ZM171.545 637.317H144.897V604.187H176.659C182.671 604.187 187.023 605.695 189.714 608.711C192.406 611.727 193.752 615.63 193.752 620.42C193.752 623.879 193.124 626.718 191.868 628.935C190.701 631.064 189.086 632.794 187.023 634.124C185.049 635.366 182.716 636.209 180.024 636.652C177.332 637.096 174.506 637.317 171.545 637.317Z" fill="black"/>
<path d="M224.245 593.543V688.543H291V677.899H237.031V645.035H286.962V634.39H237.031V604.187H290.596V593.543H224.245Z" fill="black"/>
<path d="M1021.7 639.082V603.658H1046.58C1053.8 603.658 1059.06 605.19 1062.36 608.255C1065.74 611.23 1067.44 615.601 1067.44 621.37C1067.44 627.139 1065.74 631.556 1062.36 634.621C1059.06 637.685 1053.8 639.173 1046.58 639.082H1021.7ZM1009 592.841V689.38H1021.7V649.899H1050.86C1060.48 649.989 1067.75 647.51 1072.65 642.463C1077.65 637.415 1080.14 630.384 1080.14 621.37C1080.14 612.356 1077.65 605.371 1072.65 600.413C1067.75 595.365 1060.48 592.841 1050.86 592.841H1009Z" fill="black"/>
<path d="M1095.71 592.841V689.38H1108.42V648.141H1139.44C1142.56 648.141 1145.06 648.637 1146.93 649.629C1148.8 650.53 1150.32 651.792 1151.48 653.414C1152.64 654.947 1153.48 656.795 1154.02 658.958C1154.55 661.031 1155 663.24 1155.36 665.583C1155.8 667.927 1156.07 670.315 1156.16 672.749C1156.25 675.183 1156.34 677.481 1156.43 679.645C1156.51 681.718 1156.69 683.611 1156.96 685.323C1157.32 687.036 1157.94 688.388 1158.83 689.38H1173.01C1171.67 687.757 1170.65 685.909 1169.93 683.836C1169.31 681.673 1168.82 679.419 1168.46 677.076C1168.1 674.732 1167.88 672.343 1167.79 669.91C1167.7 667.476 1167.57 665.087 1167.39 662.744C1167.12 660.4 1166.72 658.147 1166.19 655.983C1165.74 653.82 1164.98 651.882 1163.91 650.169C1162.93 648.367 1161.55 646.834 1159.77 645.572C1158.07 644.31 1155.85 643.409 1153.08 642.868V642.598C1158.88 640.975 1163.07 637.956 1165.65 633.539C1168.33 629.122 1169.66 623.984 1169.66 618.125C1169.66 610.283 1167.08 604.109 1161.91 599.602C1156.83 595.095 1149.74 592.841 1140.65 592.841H1095.71ZM1134.9 637.325H1108.42V603.658H1139.98C1145.95 603.658 1150.27 605.19 1152.95 608.255C1155.62 611.32 1156.96 615.286 1156.96 620.153C1156.96 623.669 1156.34 626.553 1155.09 628.807C1153.93 630.97 1152.32 632.728 1150.27 634.08C1148.31 635.342 1145.99 636.198 1143.32 636.649C1140.65 637.099 1137.84 637.325 1134.9 637.325Z" fill="black"/>
<path d="M1187.26 592.841V689.38H1253.59V678.563H1199.96V645.167H1249.58V634.35H1199.96V603.658H1253.19V592.841H1187.26Z" fill="black"/>
<path d="M1324.24 621.1H1336.27C1336.1 615.782 1335.07 611.23 1333.2 607.444C1331.42 603.568 1328.92 600.368 1325.71 597.844C1322.59 595.32 1318.93 593.472 1314.74 592.301C1310.55 591.129 1306.01 590.543 1301.1 590.543C1296.74 590.543 1292.46 591.129 1288.27 592.301C1284.17 593.382 1280.47 595.095 1277.17 597.439C1273.96 599.692 1271.37 602.622 1269.41 606.227C1267.45 609.742 1266.47 613.934 1266.47 618.801C1266.47 623.218 1267.32 626.914 1269.01 629.888C1270.79 632.773 1273.11 635.161 1275.96 637.054C1278.91 638.857 1282.2 640.344 1285.86 641.516C1289.51 642.598 1293.21 643.589 1296.96 644.491C1300.79 645.302 1304.54 646.113 1308.19 646.924C1311.85 647.736 1315.1 648.817 1317.95 650.169C1320.9 651.431 1323.21 653.099 1324.91 655.172C1326.69 657.245 1327.58 659.949 1327.58 663.285C1327.58 666.8 1326.87 669.684 1325.44 671.938C1324.02 674.191 1322.14 675.994 1319.83 677.346C1317.51 678.608 1314.88 679.509 1311.94 680.05C1309.08 680.591 1306.23 680.862 1303.38 680.862C1299.81 680.862 1296.33 680.411 1292.95 679.509C1289.56 678.608 1286.57 677.211 1283.99 675.318C1281.49 673.425 1279.44 671.036 1277.84 668.152C1276.32 665.178 1275.56 661.662 1275.56 657.606H1263.53C1263.53 663.465 1264.55 668.558 1266.6 672.884C1268.74 677.121 1271.6 680.636 1275.16 683.431C1278.82 686.135 1283.01 688.163 1287.73 689.515C1292.55 690.867 1297.63 691.543 1302.98 691.543C1307.35 691.543 1311.71 691.002 1316.08 689.92C1320.54 688.929 1324.55 687.306 1328.12 685.053C1331.68 682.709 1334.58 679.735 1336.81 676.129C1339.13 672.434 1340.29 668.017 1340.29 662.879C1340.29 658.102 1339.39 654.136 1337.61 650.981C1335.92 647.826 1333.6 645.212 1330.66 643.139C1327.81 641.066 1324.55 639.443 1320.9 638.271C1317.24 637.009 1313.5 635.928 1309.66 635.026C1305.92 634.125 1302.22 633.314 1298.56 632.592C1294.91 631.781 1291.61 630.79 1288.67 629.618C1285.82 628.446 1283.5 626.959 1281.71 625.156C1280.02 623.263 1279.17 620.829 1279.17 617.855C1279.17 614.7 1279.75 612.086 1280.91 610.013C1282.16 607.85 1283.76 606.137 1285.73 604.875C1287.78 603.613 1290.09 602.712 1292.68 602.171C1295.27 601.63 1297.9 601.36 1300.57 601.36C1307.17 601.36 1312.56 602.937 1316.75 606.092C1321.03 609.157 1323.53 614.159 1324.24 621.1Z" fill="black"/>
<path d="M1410.95 621.1H1422.99C1422.81 615.782 1421.78 611.23 1419.91 607.444C1418.13 603.568 1415.63 600.368 1412.42 597.844C1409.3 595.32 1405.65 593.472 1401.46 592.301C1397.27 591.129 1392.72 590.543 1387.82 590.543C1383.45 590.543 1379.17 591.129 1374.98 592.301C1370.88 593.382 1367.18 595.095 1363.88 597.439C1360.67 599.692 1358.09 602.622 1356.12 606.227C1354.16 609.742 1353.18 613.934 1353.18 618.801C1353.18 623.218 1354.03 626.914 1355.72 629.888C1357.51 632.773 1359.82 635.161 1362.68 637.054C1365.62 638.857 1368.92 640.344 1372.57 641.516C1376.23 642.598 1379.93 643.589 1383.67 644.491C1387.51 645.302 1391.25 646.113 1394.91 646.924C1398.56 647.736 1401.81 648.817 1404.67 650.169C1407.61 651.431 1409.93 653.099 1411.62 655.172C1413.4 657.245 1414.3 659.949 1414.3 663.285C1414.3 666.8 1413.58 669.684 1412.16 671.938C1410.73 674.191 1408.86 675.994 1406.54 677.346C1404.22 678.608 1401.59 679.509 1398.65 680.05C1395.8 680.591 1392.94 680.862 1390.09 680.862C1386.53 680.862 1383.05 680.411 1379.66 679.509C1376.27 678.608 1373.29 677.211 1370.7 675.318C1368.2 673.425 1366.15 671.036 1364.55 668.152C1363.03 665.178 1362.28 661.662 1362.28 657.606H1350.24C1350.24 663.465 1351.27 668.558 1353.32 672.884C1355.46 677.121 1358.31 680.636 1361.88 683.431C1365.53 686.135 1369.72 688.163 1374.45 689.515C1379.26 690.867 1384.34 691.543 1389.69 691.543C1394.06 691.543 1398.43 691.002 1402.8 689.92C1407.25 688.929 1411.26 687.306 1414.83 685.053C1418.4 682.709 1421.29 679.735 1423.52 676.129C1425.84 672.434 1427 668.017 1427 662.879C1427 658.102 1426.11 654.136 1424.33 650.981C1422.63 647.826 1420.31 645.212 1417.37 643.139C1414.52 641.066 1411.26 639.443 1407.61 638.271C1403.95 637.009 1400.21 635.928 1396.38 635.026C1392.63 634.125 1388.93 633.314 1385.28 632.592C1381.62 631.781 1378.32 630.79 1375.38 629.618C1372.53 628.446 1370.21 626.959 1368.43 625.156C1366.73 623.263 1365.89 620.829 1365.89 617.855C1365.89 614.7 1366.47 612.086 1367.63 610.013C1368.87 607.85 1370.48 606.137 1372.44 604.875C1374.49 603.613 1376.81 602.712 1379.39 602.171C1381.98 601.63 1384.61 601.36 1387.28 601.36C1393.88 601.36 1399.27 602.937 1403.46 606.092C1407.74 609.157 1410.24 614.159 1410.95 621.1Z" fill="black"/>
</svg>
