<svg width="480" height="386" viewBox="0 0 480 386" fill="none" xmlns="http://www.w3.org/2000/svg">
<path d="M11.5301 99C14.5485 99 16.8961 99.9507 18.573 101.852C20.2498 103.735 21.0882 106.205 21.0882 109.262C21.0882 112.338 20.2591 114.873 18.6009 116.868C16.9427 118.862 14.5951 119.86 11.5581 119.86C10.0117 119.86 8.62359 119.58 7.39389 119.021C6.1642 118.462 5.15808 117.688 4.37555 116.7C3.61165 115.712 3.02475 114.584 2.61485 113.317C2.22358 112.049 2.02795 110.679 2.02795 109.206C2.02795 106.093 2.88501 103.614 4.59913 101.768C6.33188 99.9227 8.64222 99 11.5301 99ZM11.5301 101.293C9.31297 101.293 7.60816 102.076 6.41573 103.642C5.24193 105.189 4.65503 107.109 4.65503 109.402C4.65503 111.9 5.27919 113.894 6.52752 115.386C7.79448 116.858 9.48065 117.595 11.586 117.595C13.6728 117.595 15.3403 116.849 16.5887 115.358C17.837 113.866 18.4612 111.881 18.4612 109.402C18.4612 106.941 17.8277 104.975 16.5607 103.502C15.3124 102.029 13.6355 101.293 11.5301 101.293Z" fill="black"/>
<path d="M34.9996 107.053H29.8293V119.384H27.4537V107.053H22.2834V104.956H34.9996V107.053Z" fill="black"/>
<path d="M39.2725 119.384H36.897V104.956H48.8586V119.384H46.483V107.053H39.2725V119.384Z" fill="black"/>
<path d="M54.6623 104.956V106.997C55.7057 105.338 57.3266 104.509 59.5252 104.509C61.5374 104.509 63.1304 105.189 64.3042 106.55C65.4967 107.911 66.0929 109.756 66.0929 112.086C66.0929 114.416 65.506 116.28 64.3322 117.679C63.177 119.058 61.6119 119.748 59.637 119.748C57.5689 119.748 55.9572 118.955 54.802 117.371V124.949H52.4265V104.956H54.6623ZM59.1619 106.494C57.7831 106.494 56.6932 106.997 55.892 108.004C55.1095 108.992 54.7182 110.362 54.7182 112.114C54.7182 113.866 55.1188 115.246 55.9199 116.253C56.7397 117.24 57.8483 117.734 59.2457 117.734C60.6058 117.734 61.6772 117.231 62.4597 116.225C63.2422 115.218 63.6335 113.848 63.6335 112.114C63.6335 110.362 63.2329 108.992 62.4317 108.004C61.6492 106.997 60.5593 106.494 59.1619 106.494Z" fill="black"/>
<path d="M81.7652 117.483V119.328C81.2808 119.515 80.7404 119.608 80.1442 119.608C78.7841 119.608 78.0854 118.9 78.0481 117.483C76.688 119.011 74.946 119.776 72.8219 119.776C71.4059 119.776 70.2787 119.412 69.4403 118.685C68.6205 117.958 68.2106 116.961 68.2106 115.693C68.2106 113.121 69.9154 111.62 73.325 111.191C73.5486 111.154 73.8746 111.117 74.3032 111.08C75.9241 110.893 76.9209 110.679 77.2936 110.436C77.7221 110.138 77.9363 109.626 77.9363 108.899C77.9363 107.314 76.8464 106.522 74.6665 106.522C73.5486 106.522 72.7008 106.755 72.1232 107.221C71.5457 107.668 71.201 108.414 71.0892 109.458H68.7695C68.8068 107.911 69.3564 106.708 70.4184 105.851C71.4804 104.993 72.943 104.564 74.8062 104.564C76.8371 104.564 78.3462 105.03 79.3337 105.963C79.6505 106.261 79.8834 106.652 80.0324 107.137C80.1815 107.622 80.2653 108.022 80.2839 108.339C80.3026 108.638 80.3119 109.094 80.3119 109.709C80.3119 110.418 80.2933 111.49 80.256 112.925C80.2187 114.36 80.2001 115.432 80.2001 116.141C80.2001 116.663 80.2653 117.035 80.3957 117.259C80.5448 117.464 80.8056 117.567 81.1783 117.567C81.3273 117.567 81.523 117.539 81.7652 117.483ZM77.9363 111.89C77.7687 112.021 77.5917 112.133 77.4053 112.226C77.219 112.319 76.9768 112.394 76.6787 112.45C76.3992 112.506 76.2036 112.552 76.0918 112.589C75.9986 112.608 75.7564 112.645 75.3652 112.701C74.9739 112.739 74.769 112.757 74.7503 112.757C74.1727 112.832 73.7908 112.888 73.6045 112.925C73.4368 112.944 73.1014 113.018 72.5984 113.149C72.1139 113.279 71.7692 113.428 71.5643 113.596C71.3593 113.764 71.1544 114.016 70.9494 114.351C70.7631 114.668 70.67 115.05 70.67 115.498C70.67 116.243 70.9215 116.83 71.4246 117.259C71.9462 117.688 72.6542 117.902 73.5486 117.902C74.6851 117.902 75.7005 117.567 76.5949 116.896C77.4892 116.225 77.9363 115.432 77.9363 114.519V111.89Z" fill="black"/>
<path d="M83.9481 119.384V104.956H90.6276C91.5779 104.956 92.3883 105.04 93.0591 105.208C93.7298 105.357 94.3167 105.702 94.8198 106.242C95.3228 106.783 95.5744 107.519 95.5744 108.451C95.5744 109.868 94.8664 110.902 93.4503 111.555V111.583C94.3074 111.751 94.9782 112.151 95.4626 112.785C95.947 113.4 96.1892 114.183 96.1892 115.134C96.1892 116.364 95.7793 117.38 94.9595 118.182C94.1397 118.983 93.087 119.384 91.8014 119.384H83.9481ZM90.3761 110.772C91.3636 110.772 92.0623 110.614 92.4722 110.297C92.9007 109.961 93.115 109.476 93.115 108.843C93.115 108.209 92.91 107.743 92.5001 107.445C92.0902 107.146 91.3822 106.997 90.3761 106.997H86.2678V110.772H90.3761ZM86.2678 112.785V117.343H91.3543C92.0995 117.343 92.6771 117.119 93.087 116.672C93.5156 116.225 93.7298 115.647 93.7298 114.938C93.7298 113.503 92.7982 112.785 90.9351 112.785H86.2678Z" fill="black"/>
<path d="M109.859 111.667C110.716 112.45 111.144 113.522 111.144 114.882C111.144 116.243 110.725 117.334 109.887 118.154C109.067 118.974 107.958 119.384 106.561 119.384H98.9311V104.956H101.307V110.464H106.449C107.865 110.464 109.002 110.865 109.859 111.667ZM105.694 112.506H101.307V117.287H105.694C106.663 117.287 107.399 117.082 107.902 116.672C108.424 116.243 108.685 115.647 108.685 114.882C108.685 113.298 107.688 112.506 105.694 112.506Z" fill="black"/>
<path d="M122.964 107.053H117.793V119.384H115.418V107.053H110.248V104.956H122.964V107.053Z" fill="black"/>
<path d="M136.695 114.826C135.968 118.182 133.872 119.86 130.407 119.86C128.282 119.86 126.615 119.198 125.404 117.874C124.211 116.551 123.615 114.715 123.615 112.366C123.615 110.036 124.23 108.153 125.46 106.717C126.708 105.263 128.329 104.536 130.323 104.536C132.54 104.536 134.179 105.291 135.241 106.801C136.322 108.293 136.862 110.185 136.862 112.478V112.813H126.019L125.991 112.981C125.991 114.51 126.391 115.712 127.193 116.588C127.994 117.464 129.093 117.902 130.49 117.902C131.534 117.902 132.354 117.66 132.95 117.175C133.565 116.691 134.04 115.908 134.375 114.826H136.695ZM134.403 110.884C134.291 109.504 133.872 108.432 133.145 107.668C132.419 106.885 131.459 106.494 130.267 106.494C129.112 106.494 128.152 106.885 127.388 107.668C126.624 108.451 126.168 109.523 126.019 110.884H134.403Z" fill="black"/>
<path d="M146.349 109.122C146.46 107.482 147.085 106.307 148.221 105.599C149.358 104.891 150.764 104.536 152.441 104.536C154.025 104.536 155.32 104.863 156.326 105.515C157.351 106.168 157.863 107.137 157.863 108.423C157.863 109.206 157.63 109.877 157.164 110.436C156.717 110.996 156.177 111.341 155.543 111.471V111.527C156.307 111.676 156.959 112.058 157.5 112.673C158.059 113.27 158.338 114.081 158.338 115.106C158.338 116.597 157.751 117.762 156.578 118.601C155.404 119.422 153.997 119.832 152.357 119.832C150.476 119.832 148.976 119.403 147.858 118.545C146.759 117.669 146.172 116.448 146.097 114.882H148.501C148.575 115.889 148.957 116.644 149.646 117.147C150.336 117.651 151.23 117.902 152.329 117.902C153.429 117.902 154.295 117.641 154.929 117.119C155.562 116.579 155.879 115.926 155.879 115.162C155.879 113.596 154.854 112.813 152.805 112.813H150.82V110.884H152.413C153.326 110.884 154.062 110.697 154.621 110.325C155.18 109.933 155.46 109.337 155.46 108.535C155.46 107.976 155.18 107.491 154.621 107.081C154.081 106.671 153.345 106.466 152.413 106.466C151.463 106.466 150.634 106.68 149.926 107.109C149.237 107.538 148.845 108.209 148.752 109.122H146.349Z" fill="black"/>
<path d="M173.905 117.483V119.328C173.421 119.515 172.88 119.608 172.284 119.608C170.924 119.608 170.225 118.9 170.188 117.483C168.828 119.011 167.086 119.776 164.962 119.776C163.546 119.776 162.419 119.412 161.58 118.685C160.76 117.958 160.35 116.961 160.35 115.693C160.35 113.121 162.055 111.62 165.465 111.191C165.688 111.154 166.014 111.117 166.443 111.08C168.064 110.893 169.061 110.679 169.433 110.436C169.862 110.138 170.076 109.626 170.076 108.899C170.076 107.314 168.986 106.522 166.806 106.522C165.688 106.522 164.841 106.755 164.263 107.221C163.686 107.668 163.341 108.414 163.229 109.458H160.909C160.947 107.911 161.496 106.708 162.558 105.851C163.62 104.993 165.083 104.564 166.946 104.564C168.977 104.564 170.486 105.03 171.474 105.963C171.79 106.261 172.023 106.652 172.172 107.137C172.321 107.622 172.405 108.022 172.424 108.339C172.442 108.638 172.452 109.094 172.452 109.709C172.452 110.418 172.433 111.49 172.396 112.925C172.359 114.36 172.34 115.432 172.34 116.141C172.34 116.663 172.405 117.035 172.536 117.259C172.685 117.464 172.946 117.567 173.318 117.567C173.467 117.567 173.663 117.539 173.905 117.483ZM170.076 111.89C169.909 112.021 169.732 112.133 169.545 112.226C169.359 112.319 169.117 112.394 168.819 112.45C168.539 112.506 168.343 112.552 168.232 112.589C168.139 112.608 167.896 112.645 167.505 112.701C167.114 112.739 166.909 112.757 166.89 112.757C166.313 112.832 165.931 112.888 165.744 112.925C165.577 112.944 165.241 113.018 164.738 113.149C164.254 113.279 163.909 113.428 163.704 113.596C163.499 113.764 163.294 114.016 163.089 114.351C162.903 114.668 162.81 115.05 162.81 115.498C162.81 116.243 163.061 116.83 163.564 117.259C164.086 117.688 164.794 117.902 165.688 117.902C166.825 117.902 167.84 117.567 168.735 116.896C169.629 116.225 170.076 115.432 170.076 114.519V111.89Z" fill="black"/>
<path d="M187.547 119.384H185.171V113.484H182.013L177.457 119.384H174.299L179.274 113.4C178.212 113.233 177.346 112.785 176.675 112.058C176.023 111.313 175.697 110.362 175.697 109.206C175.697 107.864 176.097 106.82 176.898 106.074C177.7 105.329 178.808 104.956 180.224 104.956H187.547V119.384ZM185.171 107.053H180.979C179.078 107.053 178.128 107.771 178.128 109.206C178.128 110.66 179.078 111.387 180.979 111.387H185.171V107.053Z" fill="black"/>
<path d="M191.099 119.384V104.956H197.778C198.729 104.956 199.539 105.04 200.21 105.208C200.881 105.357 201.468 105.702 201.971 106.242C202.474 106.783 202.725 107.519 202.725 108.451C202.725 109.868 202.017 110.902 200.601 111.555V111.583C201.458 111.751 202.129 112.151 202.613 112.785C203.098 113.4 203.34 114.183 203.34 115.134C203.34 116.364 202.93 117.38 202.11 118.182C201.291 118.983 200.238 119.384 198.952 119.384H191.099ZM197.527 110.772C198.514 110.772 199.213 110.614 199.623 110.297C200.052 109.961 200.266 109.476 200.266 108.843C200.266 108.209 200.061 107.743 199.651 107.445C199.241 107.146 198.533 106.997 197.527 106.997H193.419V110.772H197.527ZM193.419 112.785V117.343H198.505C199.25 117.343 199.828 117.119 200.238 116.672C200.666 116.225 200.881 115.647 200.881 114.938C200.881 113.503 199.949 112.785 198.086 112.785H193.419Z" fill="black"/>
<path d="M219.078 119.384H216.059L210.805 112.282L208.541 114.491V119.384H206.166V104.956H208.541V111.835L215.137 104.956H218.323L212.51 110.632L219.078 119.384Z" fill="black"/>
<path d="M232.592 104.956L226.415 121.23C226.173 121.882 225.959 122.385 225.773 122.74C225.605 123.113 225.353 123.513 225.018 123.942C224.701 124.389 224.31 124.706 223.844 124.893C223.397 125.098 222.866 125.2 222.251 125.2C221.785 125.2 221.198 125.116 220.49 124.949V122.824C221.18 123.029 221.692 123.131 222.028 123.131C222.81 123.131 223.369 122.73 223.704 121.929L224.822 119.3L219.093 104.956H221.776L226.052 116.448L230.104 104.956H232.592Z" fill="black"/>
<path d="M242.354 119.384V104.956H249.034C249.984 104.956 250.795 105.04 251.465 105.208C252.136 105.357 252.723 105.702 253.226 106.242C253.729 106.783 253.981 107.519 253.981 108.451C253.981 109.868 253.273 110.902 251.857 111.555V111.583C252.714 111.751 253.384 112.151 253.869 112.785C254.353 113.4 254.596 114.183 254.596 115.134C254.596 116.364 254.186 117.38 253.366 118.182C252.546 118.983 251.493 119.384 250.208 119.384H242.354ZM248.782 110.772C249.77 110.772 250.469 110.614 250.879 110.297C251.307 109.961 251.521 109.476 251.521 108.843C251.521 108.209 251.316 107.743 250.906 107.445C250.497 107.146 249.789 106.997 248.782 106.997H244.674V110.772H248.782ZM244.674 112.785V117.343H249.761C250.506 117.343 251.083 117.119 251.493 116.672C251.922 116.225 252.136 115.647 252.136 114.938C252.136 113.503 251.205 112.785 249.341 112.785H244.674Z" fill="black"/>
<path d="M267.575 119.384H265.2V104.956H267.575V110.688H274.786V104.956H277.161V119.384H274.786V112.785H267.575V119.384Z" fill="black"/>
<path d="M293.501 117.483V119.328C293.017 119.515 292.477 119.608 291.88 119.608C290.52 119.608 289.821 118.9 289.784 117.483C288.424 119.011 286.682 119.776 284.558 119.776C283.142 119.776 282.015 119.412 281.176 118.685C280.357 117.958 279.947 116.961 279.947 115.693C279.947 113.121 281.651 111.62 285.061 111.191C285.285 111.154 285.611 111.117 286.039 111.08C287.66 110.893 288.657 110.679 289.03 110.436C289.458 110.138 289.672 109.626 289.672 108.899C289.672 107.314 288.582 106.522 286.403 106.522C285.285 106.522 284.437 106.755 283.859 107.221C283.282 107.668 282.937 108.414 282.825 109.458H280.506C280.543 107.911 281.093 106.708 282.155 105.851C283.217 104.993 284.679 104.564 286.542 104.564C288.573 104.564 290.082 105.03 291.07 105.963C291.387 106.261 291.619 106.652 291.769 107.137C291.918 107.622 292.001 108.022 292.02 108.339C292.039 108.638 292.048 109.094 292.048 109.709C292.048 110.418 292.029 111.49 291.992 112.925C291.955 114.36 291.936 115.432 291.936 116.141C291.936 116.663 292.001 117.035 292.132 117.259C292.281 117.464 292.542 117.567 292.914 117.567C293.063 117.567 293.259 117.539 293.501 117.483ZM289.672 111.89C289.505 112.021 289.328 112.133 289.141 112.226C288.955 112.319 288.713 112.394 288.415 112.45C288.135 112.506 287.94 112.552 287.828 112.589C287.735 112.608 287.493 112.645 287.101 112.701C286.71 112.739 286.505 112.757 286.486 112.757C285.909 112.832 285.527 112.888 285.341 112.925C285.173 112.944 284.838 113.018 284.334 113.149C283.85 113.279 283.505 113.428 283.3 113.596C283.095 113.764 282.89 114.016 282.686 114.351C282.499 114.668 282.406 115.05 282.406 115.498C282.406 116.243 282.658 116.83 283.161 117.259C283.682 117.688 284.39 117.902 285.285 117.902C286.421 117.902 287.437 117.567 288.331 116.896C289.225 116.225 289.672 115.432 289.672 114.519V111.89Z" fill="black"/>
<path d="M295.74 119.384V104.956H298.116V117.287H304.069V104.956H306.444V117.287H312.397V104.956H314.772V119.384H295.74Z" fill="black"/>
<path d="M330.272 104.956L324.096 121.23C323.853 121.882 323.639 122.385 323.453 122.74C323.285 123.113 323.034 123.513 322.698 123.942C322.382 124.389 321.99 124.706 321.524 124.893C321.077 125.098 320.546 125.2 319.931 125.2C319.466 125.2 318.879 125.116 318.171 124.949V122.824C318.86 123.029 319.372 123.131 319.708 123.131C320.49 123.131 321.049 122.73 321.385 121.929L322.503 119.3L316.773 104.956H319.456L323.732 116.448L327.785 104.956H330.272Z" fill="black"/>
<path d="M352.499 114.127C352.294 115.861 351.633 117.241 350.515 118.266C349.416 119.291 347.981 119.804 346.211 119.804C344.031 119.804 342.345 119.133 341.153 117.79C339.96 116.43 339.364 114.621 339.364 112.366C339.364 109.961 339.988 108.06 341.236 106.662C342.485 105.245 344.171 104.536 346.295 104.536C348.065 104.536 349.481 104.984 350.543 105.879C351.605 106.755 352.229 108.013 352.416 109.653H349.956C349.528 107.566 348.317 106.522 346.323 106.522C344.944 106.522 343.854 107.034 343.053 108.06C342.252 109.066 341.851 110.436 341.851 112.17C341.851 113.922 342.233 115.302 342.997 116.308C343.761 117.315 344.814 117.818 346.155 117.818C347.236 117.818 348.112 117.501 348.782 116.868C349.472 116.234 349.91 115.32 350.096 114.127H352.499Z" fill="black"/>
<path d="M366.628 104.956V119.384H364.252V107.053H359.11L358.914 113.428C358.858 115.628 358.458 117.222 357.712 118.21C356.967 119.198 356.036 119.692 354.918 119.692C354.228 119.692 353.66 119.589 353.213 119.384V117.455C353.455 117.585 353.874 117.651 354.471 117.651C355.03 117.651 355.505 117.352 355.896 116.756C356.306 116.141 356.529 115.115 356.567 113.68L356.818 104.956H366.628Z" fill="black"/>
<path d="M382.073 104.956L375.897 121.23C375.655 121.882 375.441 122.385 375.254 122.74C375.087 123.113 374.835 123.513 374.5 123.942C374.183 124.389 373.792 124.706 373.326 124.893C372.879 125.098 372.348 125.2 371.733 125.2C371.267 125.2 370.68 125.116 369.972 124.949V122.824C370.662 123.029 371.174 123.131 371.509 123.131C372.292 123.131 372.851 122.73 373.186 121.929L374.304 119.3L368.575 104.956H371.258L375.534 116.448L379.586 104.956H382.073Z" fill="black"/>
<path d="M390.206 112.394L385.259 119.384H382.325L388.641 110.884L383.135 104.956H386.07L391.939 111.583H391.995V104.956H394.37V111.583H394.426L400.295 104.956H403.23L397.724 110.884L404.04 119.384H401.106L396.159 112.394L394.37 114.211V119.384H391.995V114.211L390.206 112.394Z" fill="black"/>
<path d="M407.207 102.943C407.841 101.955 408.605 101.228 409.499 100.762C410.393 100.277 411.53 99.988 412.909 99.8948C414.455 99.7829 415.396 99.6338 415.731 99.4474C415.955 99.3355 416.123 99.1864 416.234 99H418.61C418.554 99.2983 418.47 99.5686 418.358 99.8109C418.265 100.053 418.153 100.268 418.023 100.454C417.911 100.622 417.744 100.78 417.52 100.929C417.315 101.079 417.138 101.209 416.989 101.321C416.84 101.414 416.616 101.507 416.318 101.6C416.039 101.675 415.815 101.74 415.647 101.796C415.48 101.833 415.219 101.871 414.865 101.908C414.53 101.945 414.287 101.973 414.138 101.992C413.989 102.011 413.719 102.029 413.328 102.048C412.937 102.066 412.685 102.085 412.573 102.104C411.045 102.216 409.853 102.812 408.996 103.893C408.139 104.956 407.599 106.382 407.375 108.172H407.459C407.869 107.184 408.521 106.391 409.415 105.795C410.31 105.198 411.344 104.9 412.517 104.9C414.567 104.9 416.169 105.552 417.324 106.857C418.498 108.144 419.085 109.952 419.085 112.282C419.085 114.687 418.489 116.551 417.296 117.874C416.123 119.198 414.464 119.86 412.322 119.86C410.57 119.86 409.089 119.347 407.878 118.322C406.667 117.278 405.922 115.786 405.642 113.848C405.53 113.065 405.475 112.189 405.475 111.219C405.475 107.472 406.052 104.714 407.207 102.943ZM407.906 112.366C407.906 114.006 408.297 115.33 409.08 116.336C409.881 117.343 410.971 117.846 412.35 117.846C413.691 117.846 414.744 117.362 415.508 116.392C416.272 115.423 416.654 114.071 416.654 112.338C416.654 110.641 416.262 109.309 415.48 108.339C414.697 107.37 413.635 106.885 412.294 106.885C410.952 106.885 409.881 107.379 409.08 108.367C408.297 109.337 407.906 110.669 407.906 112.366Z" fill="black"/>
<path d="M433.52 104.956L427.344 121.23C427.101 121.882 426.887 122.385 426.701 122.74C426.533 123.113 426.282 123.513 425.946 123.942C425.629 124.389 425.238 124.706 424.772 124.893C424.325 125.098 423.794 125.2 423.179 125.2C422.714 125.2 422.127 125.116 421.419 124.949V122.824C422.108 123.029 422.62 123.131 422.956 123.131C423.738 123.131 424.297 122.73 424.633 121.929L425.751 119.3L420.021 104.956H422.704L426.98 116.448L431.033 104.956H433.52Z" fill="black"/>
<path d="M5.10219 149.676H2.72664V135.248H14.6882V149.676H12.3127V137.345H5.10219V149.676Z" fill="black"/>
<path d="M19.402 136.898C20.6689 135.518 22.3924 134.829 24.5723 134.829C26.7522 134.829 28.4477 135.49 29.6588 136.814C30.8698 138.137 31.4754 139.992 31.4754 142.378C31.4754 144.82 30.8698 146.722 29.6588 148.083C28.4477 149.443 26.7429 150.124 24.5444 150.124C22.3458 150.124 20.6224 149.453 19.374 148.11C18.1257 146.768 17.5015 144.904 17.5015 142.518C17.5015 140.151 18.135 138.277 19.402 136.898ZM27.8142 138.352C27.0131 137.326 25.9138 136.814 24.5164 136.814C23.119 136.814 22.0104 137.326 21.1906 138.352C20.3708 139.377 19.9609 140.747 19.9609 142.462C19.9609 144.233 20.3615 145.622 21.1627 146.628C21.9825 147.616 23.119 148.11 24.5723 148.11C25.9697 148.11 27.0596 147.607 27.8422 146.601C28.6433 145.594 29.0439 144.205 29.0439 142.434C29.0439 140.719 28.634 139.358 27.8142 138.352Z" fill="black"/>
<path d="M47.7867 154.262H45.523V149.676H34.5116V154.262H32.2479V147.579H33.8129C34.2601 146.722 34.67 145.398 35.0426 143.609C35.4339 141.8 35.6295 140.039 35.6295 138.324V135.248H45.9143V147.579H47.7867V154.262ZM43.5387 147.579V137.345H37.9492V138.547C37.9492 140.244 37.7722 141.968 37.4182 143.72C37.0828 145.454 36.7008 146.74 36.2723 147.579H43.5387Z" fill="black"/>
<path d="M63.8348 154.262H61.571V149.676H50.5597V154.262H48.2959V147.579H49.861C50.3081 146.722 50.718 145.398 51.0907 143.609C51.4819 141.8 51.6776 140.039 51.6776 138.324V135.248H61.9623V147.579H63.8348V154.262ZM59.5868 147.579V137.345H53.9972V138.547C53.9972 140.244 53.8202 141.968 53.4662 143.72C53.1309 145.454 52.7489 146.74 52.3204 147.579H59.5868Z" fill="black"/>
<path d="M78.2339 145.119C77.5073 148.474 75.4112 150.152 71.9457 150.152C69.8217 150.152 68.1542 149.49 66.9431 148.166C65.7507 146.843 65.1545 145.007 65.1545 142.658C65.1545 140.328 65.7693 138.445 66.999 137.01C68.2473 135.556 69.8683 134.829 71.8619 134.829C74.0791 134.829 75.7187 135.584 76.7807 137.093C77.8613 138.585 78.4016 140.477 78.4016 142.77V143.105H67.558L67.53 143.273C67.53 144.802 67.9306 146.004 68.7318 146.88C69.5329 147.756 70.6322 148.194 72.0296 148.194C73.073 148.194 73.8927 147.952 74.489 147.467C75.1038 146.983 75.5789 146.2 75.9143 145.119H78.2339ZM75.9422 141.176C75.8305 139.796 75.4112 138.725 74.6846 137.96C73.958 137.177 72.9984 136.786 71.806 136.786C70.6508 136.786 69.6913 137.177 68.9274 137.96C68.1635 138.743 67.707 139.815 67.558 141.176H75.9422Z" fill="black"/>
<path d="M83.1558 135.248V137.289C84.1992 135.63 85.8201 134.801 88.0187 134.801C90.0309 134.801 91.6239 135.481 92.7977 136.842C93.9902 138.203 94.5864 140.048 94.5864 142.378C94.5864 144.708 93.9995 146.573 92.8257 147.971C91.6705 149.35 90.1054 150.04 88.1305 150.04C86.0623 150.04 84.4507 149.248 83.2955 147.663V155.241H80.92V135.248H83.1558ZM87.6554 136.786C86.2766 136.786 85.1866 137.289 84.3855 138.296C83.6029 139.284 83.2117 140.654 83.2117 142.406C83.2117 144.159 83.6123 145.538 84.4134 146.545C85.2332 147.533 86.3418 148.027 87.7392 148.027C89.0993 148.027 90.1706 147.523 90.9532 146.517C91.7357 145.51 92.127 144.14 92.127 142.406C92.127 140.654 91.7264 139.284 90.9252 138.296C90.1427 137.289 89.0527 136.786 87.6554 136.786Z" fill="black"/>
<path d="M103.088 142.686L98.1412 149.676H95.2067L101.523 141.176L96.0172 135.248H98.9517L104.821 141.875H104.877V135.248H107.252V141.875H107.308L113.177 135.248H116.112L110.606 141.176L116.922 149.676H113.987L109.041 142.686L107.252 144.503V149.676H104.877V144.503L103.088 142.686Z" fill="black"/>
<path d="M131.659 149.676H128.641L123.387 142.574L121.123 144.783V149.676H118.748V135.248H121.123V142.127L127.719 135.248H130.905L125.092 140.924L131.659 149.676Z" fill="black"/>
<path d="M136.286 149.676H133.24V135.248H135.615V147.02H135.671L142.155 135.248H145.202V149.676H142.826V137.904H142.77L136.286 149.676Z" fill="black"/>
<path d="M158.923 149.676H156.548V135.248H168.509V149.676H166.134V137.345H158.923V149.676Z" fill="black"/>
<path d="M174.313 135.248V137.289C175.357 135.63 176.977 134.801 179.176 134.801C181.188 134.801 182.781 135.481 183.955 136.842C185.147 138.203 185.744 140.048 185.744 142.378C185.744 144.708 185.157 146.573 183.983 147.971C182.828 149.35 181.263 150.04 179.288 150.04C177.22 150.04 175.608 149.248 174.453 147.663V155.241H172.077V135.248H174.313ZM178.813 136.786C177.434 136.786 176.344 137.289 175.543 138.296C174.76 139.284 174.369 140.654 174.369 142.406C174.369 144.159 174.77 145.538 175.571 146.545C176.391 147.533 177.499 148.027 178.897 148.027C180.257 148.027 181.328 147.523 182.111 146.517C182.893 145.51 183.284 144.14 183.284 142.406C183.284 140.654 182.884 139.284 182.083 138.296C181.3 137.289 180.21 136.786 178.813 136.786Z" fill="black"/>
<path d="M200.047 149.676H197.671V143.776H194.513L189.957 149.676H186.799L191.774 143.692C190.712 143.525 189.846 143.077 189.175 142.35C188.523 141.605 188.197 140.654 188.197 139.498C188.197 138.156 188.597 137.112 189.399 136.366C190.2 135.621 191.308 135.248 192.724 135.248H200.047V149.676ZM197.671 137.345H193.479C191.578 137.345 190.628 138.063 190.628 139.498C190.628 140.952 191.578 141.679 193.479 141.679H197.671V137.345Z" fill="black"/>
<path d="M219.278 149.676H216.902V138.296H216.818L212.542 149.676H210.362L206.086 138.296H206.002V149.676H203.627V135.248H207.037L211.424 146.936H211.48L215.868 135.248H219.278V149.676Z" fill="black"/>
<path d="M223.933 136.898C225.2 135.518 226.923 134.829 229.103 134.829C231.283 134.829 232.979 135.49 234.19 136.814C235.401 138.137 236.006 139.992 236.006 142.378C236.006 144.82 235.401 146.722 234.19 148.083C232.979 149.443 231.274 150.124 229.075 150.124C226.877 150.124 225.153 149.453 223.905 148.11C222.657 146.768 222.032 144.904 222.032 142.518C222.032 140.151 222.666 138.277 223.933 136.898ZM232.345 138.352C231.544 137.326 230.445 136.814 229.047 136.814C227.65 136.814 226.541 137.326 225.721 138.352C224.902 139.377 224.492 140.747 224.492 142.462C224.492 144.233 224.892 145.622 225.694 146.628C226.513 147.616 227.65 148.11 229.103 148.11C230.501 148.11 231.59 147.607 232.373 146.601C233.174 145.594 233.575 144.205 233.575 142.434C233.575 140.719 233.165 139.358 232.345 138.352Z" fill="black"/>
<path d="M248.989 149.676H246.613V135.248H248.989V140.98H256.199V135.248H258.575V149.676H256.199V143.077H248.989V149.676Z" fill="black"/>
<path d="M274.915 147.775V149.62C274.431 149.807 273.89 149.9 273.294 149.9C271.934 149.9 271.235 149.192 271.198 147.775C269.838 149.304 268.096 150.068 265.972 150.068C264.556 150.068 263.429 149.704 262.59 148.977C261.77 148.25 261.36 147.253 261.36 145.985C261.36 143.413 263.065 141.912 266.475 141.483C266.698 141.446 267.024 141.409 267.453 141.372C269.074 141.185 270.071 140.971 270.443 140.729C270.872 140.43 271.086 139.918 271.086 139.191C271.086 137.606 269.996 136.814 267.816 136.814C266.698 136.814 265.851 137.047 265.273 137.513C264.695 137.96 264.351 138.706 264.239 139.75H261.919C261.957 138.203 262.506 137 263.568 136.143C264.63 135.285 266.093 134.857 267.956 134.857C269.987 134.857 271.496 135.323 272.484 136.255C272.8 136.553 273.033 136.944 273.182 137.429C273.331 137.914 273.415 138.314 273.434 138.631C273.452 138.93 273.462 139.386 273.462 140.002C273.462 140.71 273.443 141.782 273.406 143.217C273.369 144.653 273.35 145.724 273.35 146.433C273.35 146.955 273.415 147.328 273.546 147.551C273.695 147.756 273.955 147.859 274.328 147.859C274.477 147.859 274.673 147.831 274.915 147.775ZM271.086 142.183C270.918 142.313 270.741 142.425 270.555 142.518C270.369 142.611 270.127 142.686 269.829 142.742C269.549 142.798 269.353 142.844 269.242 142.882C269.148 142.9 268.906 142.938 268.515 142.993C268.124 143.031 267.919 143.049 267.9 143.049C267.323 143.124 266.941 143.18 266.754 143.217C266.587 143.236 266.251 143.31 265.748 143.441C265.264 143.571 264.919 143.72 264.714 143.888C264.509 144.056 264.304 144.308 264.099 144.643C263.913 144.96 263.82 145.342 263.82 145.79C263.82 146.535 264.071 147.122 264.574 147.551C265.096 147.98 265.804 148.194 266.698 148.194C267.835 148.194 268.85 147.859 269.745 147.188C270.639 146.517 271.086 145.724 271.086 144.811V142.183Z" fill="black"/>
<path d="M297.089 142.658C297.089 144.913 296.493 146.722 295.301 148.083C294.108 149.425 292.422 150.096 290.242 150.096C288.528 150.096 287.121 149.62 286.022 148.67C284.942 147.7 284.271 146.395 284.01 144.755H286.413C286.637 145.836 287.084 146.666 287.755 147.244C288.426 147.822 289.273 148.11 290.298 148.11C291.547 148.11 292.543 147.672 293.289 146.796C294.053 145.901 294.481 144.671 294.574 143.105H288.538V141.176H294.518C294.313 139.815 293.829 138.753 293.065 137.988C292.301 137.205 291.323 136.814 290.131 136.814C288.323 136.814 287.159 137.69 286.637 139.442H284.122C284.383 137.97 285.035 136.832 286.078 136.031C287.14 135.229 288.5 134.829 290.158 134.829C292.282 134.829 293.969 135.537 295.217 136.954C296.465 138.352 297.089 140.253 297.089 142.658Z" fill="black"/>
<path d="M310.491 137.345H305.321V149.676H302.945V137.345H297.775V135.248H310.491V137.345Z" fill="black"/>
<path d="M313.043 136.898C314.31 135.518 316.034 134.829 318.214 134.829C320.393 134.829 322.089 135.49 323.3 136.814C324.511 138.137 325.117 139.992 325.117 142.378C325.117 144.82 324.511 146.722 323.3 148.083C322.089 149.443 320.384 150.124 318.186 150.124C315.987 150.124 314.264 149.453 313.015 148.11C311.767 146.768 311.143 144.904 311.143 142.518C311.143 140.151 311.776 138.277 313.043 136.898ZM321.455 138.352C320.654 137.326 319.555 136.814 318.158 136.814C316.76 136.814 315.652 137.326 314.832 138.352C314.012 139.377 313.602 140.747 313.602 142.462C313.602 144.233 314.003 145.622 314.804 146.628C315.624 147.616 316.76 148.11 318.214 148.11C319.611 148.11 320.701 147.607 321.483 146.601C322.285 145.594 322.685 144.205 322.685 142.434C322.685 140.719 322.275 139.358 321.455 138.352Z" fill="black"/>
<path d="M343.568 149.676H341.193V138.296H341.109L336.833 149.676H334.653L330.377 138.296H330.293V149.676H327.917V135.248H331.327L335.715 146.936H335.771L340.159 135.248H343.568V149.676Z" fill="black"/>
<path d="M367.265 144.419C367.06 146.153 366.398 147.533 365.28 148.558C364.181 149.583 362.746 150.096 360.976 150.096C358.797 150.096 357.11 149.425 355.918 148.083C354.726 146.722 354.129 144.913 354.129 142.658C354.129 140.253 354.753 138.352 356.002 136.954C357.25 135.537 358.936 134.829 361.06 134.829C362.83 134.829 364.246 135.276 365.308 136.171C366.37 137.047 366.995 138.305 367.181 139.946H364.721C364.293 137.858 363.082 136.814 361.088 136.814C359.71 136.814 358.62 137.326 357.818 138.352C357.017 139.358 356.617 140.729 356.617 142.462C356.617 144.214 356.999 145.594 357.762 146.601C358.526 147.607 359.579 148.11 360.921 148.11C362.001 148.11 362.877 147.794 363.548 147.16C364.237 146.526 364.675 145.613 364.861 144.419H367.265Z" fill="black"/>
<path d="M382.639 147.775V149.62C382.155 149.807 381.614 149.9 381.018 149.9C379.658 149.9 378.959 149.192 378.922 147.775C377.562 149.304 375.82 150.068 373.696 150.068C372.28 150.068 371.152 149.704 370.314 148.977C369.494 148.25 369.084 147.253 369.084 145.985C369.084 143.413 370.789 141.912 374.199 141.483C374.422 141.446 374.748 141.409 375.177 141.372C376.798 141.185 377.795 140.971 378.167 140.729C378.596 140.43 378.81 139.918 378.81 139.191C378.81 137.606 377.72 136.814 375.54 136.814C374.422 136.814 373.575 137.047 372.997 137.513C372.419 137.96 372.075 138.706 371.963 139.75H369.643C369.681 138.203 370.23 137 371.292 136.143C372.354 135.285 373.817 134.857 375.68 134.857C377.711 134.857 379.22 135.323 380.208 136.255C380.524 136.553 380.757 136.944 380.906 137.429C381.055 137.914 381.139 138.314 381.158 138.631C381.176 138.93 381.186 139.386 381.186 140.002C381.186 140.71 381.167 141.782 381.13 143.217C381.093 144.653 381.074 145.724 381.074 146.433C381.074 146.955 381.139 147.328 381.27 147.551C381.419 147.756 381.679 147.859 382.052 147.859C382.201 147.859 382.397 147.831 382.639 147.775ZM378.81 142.183C378.642 142.313 378.465 142.425 378.279 142.518C378.093 142.611 377.851 142.686 377.552 142.742C377.273 142.798 377.077 142.844 376.966 142.882C376.872 142.9 376.63 142.938 376.239 142.993C375.848 143.031 375.643 143.049 375.624 143.049C375.047 143.124 374.665 143.18 374.478 143.217C374.311 143.236 373.975 143.31 373.472 143.441C372.988 143.571 372.643 143.72 372.438 143.888C372.233 144.056 372.028 144.308 371.823 144.643C371.637 144.96 371.544 145.342 371.544 145.79C371.544 146.535 371.795 147.122 372.298 147.551C372.82 147.98 373.528 148.194 374.422 148.194C375.559 148.194 376.574 147.859 377.469 147.188C378.363 146.517 378.81 145.724 378.81 144.811V142.183Z" fill="black"/>
<path d="M395.079 129.767C394.892 130.942 394.436 131.883 393.709 132.592C393.001 133.281 392.06 133.626 390.887 133.626C389.75 133.626 388.791 133.272 388.008 132.564C387.244 131.837 386.788 130.905 386.639 129.767H388.064C388.492 131.221 389.424 131.948 390.859 131.948C392.237 131.948 393.169 131.221 393.653 129.767H395.079ZM387.924 149.676H384.878V135.248H387.253V147.02H387.309L393.793 135.248H396.839V149.676H394.464V137.904H394.408L387.924 149.676Z" fill="black"/>
<path d="M411.447 137.345H406.276V149.676H403.901V137.345H398.73V135.248H411.447V137.345Z" fill="black"/>
<path d="M425.178 145.119C424.451 148.474 422.355 150.152 418.889 150.152C416.765 150.152 415.098 149.49 413.887 148.166C412.694 146.843 412.098 145.007 412.098 142.658C412.098 140.328 412.713 138.445 413.943 137.01C415.191 135.556 416.812 134.829 418.806 134.829C421.023 134.829 422.662 135.584 423.724 137.093C424.805 138.585 425.345 140.477 425.345 142.77V143.105H414.502L414.474 143.273C414.474 144.802 414.874 146.004 415.675 146.88C416.477 147.756 417.576 148.194 418.973 148.194C420.017 148.194 420.836 147.952 421.433 147.467C422.048 146.983 422.523 146.2 422.858 145.119H425.178ZM422.886 141.176C422.774 139.796 422.355 138.725 421.628 137.96C420.902 137.177 419.942 136.786 418.75 136.786C417.595 136.786 416.635 137.177 415.871 137.96C415.107 138.743 414.651 139.815 414.502 141.176H422.886Z" fill="black"/>
<path d="M431.497 146.573V149.676H428.395V146.573H431.497Z" fill="black"/>
<path d="M11.5301 159.584C14.5485 159.584 16.8961 160.535 18.573 162.436C20.2498 164.319 21.0882 166.789 21.0882 169.846C21.0882 172.922 20.2591 175.457 18.6009 177.452C16.9427 179.446 14.5951 180.444 11.5581 180.444C10.0117 180.444 8.62359 180.164 7.39389 179.605C6.1642 179.046 5.15808 178.272 4.37555 177.284C3.61165 176.296 3.02475 175.168 2.61485 173.901C2.22358 172.633 2.02795 171.263 2.02795 169.79C2.02795 166.677 2.88501 164.198 4.59913 162.352C6.33188 160.507 8.64222 159.584 11.5301 159.584ZM11.5301 161.877C9.31297 161.877 7.60816 162.66 6.41573 164.226C5.24193 165.773 4.65503 167.693 4.65503 169.986C4.65503 172.484 5.27919 174.479 6.52752 175.97C7.79448 177.443 9.48065 178.179 11.586 178.179C13.6728 178.179 15.3403 177.433 16.5887 175.942C17.837 174.451 18.4612 172.465 18.4612 169.986C18.4612 167.525 17.8277 165.559 16.5607 164.086C15.3124 162.613 13.6355 161.877 11.5301 161.877Z" fill="black"/>
<path d="M26.3358 179.968H23.9603V165.54H35.9219V179.968H33.5463V167.637H26.3358V179.968Z" fill="black"/>
<path d="M42.5361 179.968H39.4898V165.54H41.8653V177.312H41.9212L48.4051 165.54H51.4514V179.968H49.0758V168.196H49.0199L42.5361 179.968Z" fill="black"/>
<path d="M55.0193 179.968V165.54H57.3948V177.871H63.3477V165.54H65.7232V177.871H71.6761V165.54H74.0516V179.968H55.0193Z" fill="black"/>
<path d="M80.6639 179.968H77.6176V165.54H79.9931V177.312H80.049L86.5329 165.54H89.5792V179.968H87.2036V168.196H87.1477L80.6639 179.968Z" fill="black"/>
<path d="M104.186 167.637H99.0161V179.968H96.6405V167.637H91.4702V165.54H104.186V167.637Z" fill="black"/>
<path d="M117.917 175.411C117.191 178.766 115.095 180.444 111.629 180.444C109.505 180.444 107.838 179.782 106.627 178.458C105.434 177.135 104.838 175.299 104.838 172.95C104.838 170.62 105.453 168.737 106.682 167.302C107.931 165.848 109.552 165.121 111.545 165.121C113.763 165.121 115.402 165.876 116.464 167.386C117.545 168.877 118.085 170.769 118.085 173.062V173.397H107.241L107.213 173.565C107.213 175.094 107.614 176.296 108.415 177.172C109.216 178.048 110.316 178.486 111.713 178.486C112.756 178.486 113.576 178.244 114.172 177.759C114.787 177.275 115.262 176.492 115.598 175.411H117.917ZM115.626 171.468C115.514 170.089 115.095 169.017 114.368 168.252C113.641 167.469 112.682 167.078 111.489 167.078C110.334 167.078 109.375 167.469 108.611 168.252C107.847 169.035 107.39 170.107 107.241 171.468H115.626Z" fill="black"/>
<path d="M128.326 179.968V165.54H135.005C135.956 165.54 136.766 165.624 137.437 165.792C138.108 165.941 138.695 166.286 139.198 166.826C139.701 167.367 139.952 168.103 139.952 169.035C139.952 170.452 139.244 171.487 137.828 172.139V172.167C138.685 172.335 139.356 172.736 139.84 173.369C140.325 173.985 140.567 174.768 140.567 175.718C140.567 176.949 140.157 177.964 139.337 178.766C138.518 179.568 137.465 179.968 136.179 179.968H128.326ZM134.754 171.356C135.741 171.356 136.44 171.198 136.85 170.881C137.279 170.545 137.493 170.061 137.493 169.427C137.493 168.793 137.288 168.327 136.878 168.029C136.468 167.73 135.76 167.581 134.754 167.581H130.646V171.356H134.754ZM130.646 173.369V177.927H135.732C136.477 177.927 137.055 177.704 137.465 177.256C137.893 176.809 138.108 176.231 138.108 175.522C138.108 174.087 137.176 173.369 135.313 173.369H130.646Z" fill="black"/>
<path d="M156.165 178.067V179.913C155.68 180.099 155.14 180.192 154.544 180.192C153.184 180.192 152.485 179.484 152.448 178.067C151.088 179.596 149.346 180.36 147.222 180.36C145.806 180.36 144.678 179.996 143.84 179.269C143.02 178.542 142.61 177.545 142.61 176.277C142.61 173.705 144.315 172.204 147.725 171.776C147.948 171.738 148.274 171.701 148.703 171.664C150.324 171.477 151.321 171.263 151.693 171.021C152.122 170.722 152.336 170.21 152.336 169.483C152.336 167.898 151.246 167.106 149.066 167.106C147.948 167.106 147.1 167.339 146.523 167.805C145.945 168.252 145.601 168.998 145.489 170.042H143.169C143.206 168.495 143.756 167.292 144.818 166.435C145.88 165.577 147.343 165.149 149.206 165.149C151.237 165.149 152.746 165.615 153.733 166.547C154.05 166.845 154.283 167.236 154.432 167.721C154.581 168.206 154.665 168.607 154.684 168.923C154.702 169.222 154.712 169.678 154.712 170.294C154.712 171.002 154.693 172.074 154.656 173.509C154.618 174.945 154.6 176.016 154.6 176.725C154.6 177.247 154.665 177.62 154.795 177.843C154.944 178.048 155.205 178.151 155.578 178.151C155.727 178.151 155.923 178.123 156.165 178.067ZM152.336 172.475C152.168 172.605 151.991 172.717 151.805 172.81C151.619 172.903 151.376 172.978 151.078 173.034C150.799 173.09 150.603 173.136 150.491 173.174C150.398 173.192 150.156 173.23 149.765 173.286C149.374 173.323 149.169 173.341 149.15 173.341C148.572 173.416 148.19 173.472 148.004 173.509C147.836 173.528 147.501 173.602 146.998 173.733C146.514 173.863 146.169 174.013 145.964 174.18C145.759 174.348 145.554 174.6 145.349 174.935C145.163 175.252 145.07 175.634 145.07 176.082C145.07 176.827 145.321 177.415 145.824 177.843C146.346 178.272 147.054 178.486 147.948 178.486C149.085 178.486 150.1 178.151 150.995 177.48C151.889 176.809 152.336 176.016 152.336 175.103V172.475Z" fill="black"/>
<path d="M158.404 179.968V165.54H160.779V177.871H166.732V165.54H169.108V177.871H175.06V165.54H177.436V179.968H158.404Z" fill="black"/>
<path d="M192.936 165.54L186.759 181.814C186.517 182.466 186.303 182.97 186.116 183.324C185.949 183.697 185.697 184.097 185.362 184.526C185.045 184.974 184.654 185.291 184.188 185.477C183.741 185.682 183.21 185.785 182.595 185.785C182.129 185.785 181.542 185.701 180.834 185.533V183.408C181.524 183.613 182.036 183.715 182.371 183.715C183.154 183.715 183.713 183.315 184.048 182.513L185.166 179.885L179.437 165.54H182.12L186.396 177.032L190.448 165.54H192.936Z" fill="black"/>
<path d="M205.13 179.968H202.754V165.54H214.716V179.968H212.34V167.637H205.13V179.968Z" fill="black"/>
<path d="M220.52 165.54V167.581C221.563 165.922 223.184 165.093 225.382 165.093C227.395 165.093 228.988 165.773 230.161 167.134C231.354 168.495 231.95 170.34 231.95 172.67C231.95 175.001 231.363 176.865 230.189 178.263C229.034 179.642 227.469 180.332 225.494 180.332C223.426 180.332 221.814 179.54 220.659 177.955V185.533H218.284V165.54H220.52ZM225.019 167.078C223.64 167.078 222.55 167.581 221.749 168.588C220.967 169.576 220.575 170.946 220.575 172.698C220.575 174.451 220.976 175.83 221.777 176.837C222.597 177.825 223.706 178.319 225.103 178.319C226.463 178.319 227.534 177.815 228.317 176.809C229.099 175.802 229.491 174.432 229.491 172.698C229.491 170.946 229.09 169.576 228.289 168.588C227.506 167.581 226.416 167.078 225.019 167.078Z" fill="black"/>
<path d="M235.996 167.19C237.263 165.81 238.987 165.121 241.166 165.121C243.346 165.121 245.042 165.782 246.253 167.106C247.464 168.429 248.07 170.284 248.07 172.67C248.07 175.112 247.464 177.014 246.253 178.375C245.042 179.735 243.337 180.416 241.139 180.416C238.94 180.416 237.217 179.745 235.968 178.403C234.72 177.06 234.096 175.196 234.096 172.81C234.096 170.443 234.729 168.569 235.996 167.19ZM244.408 168.644C243.607 167.619 242.508 167.106 241.111 167.106C239.713 167.106 238.605 167.619 237.785 168.644C236.965 169.669 236.555 171.039 236.555 172.754C236.555 174.525 236.956 175.914 237.757 176.921C238.577 177.909 239.713 178.403 241.166 178.403C242.564 178.403 243.654 177.899 244.436 176.893C245.238 175.886 245.638 174.497 245.638 172.726C245.638 171.011 245.228 169.65 244.408 168.644Z" fill="black"/>
<path d="M252.24 163.527C252.873 162.539 253.637 161.812 254.532 161.346C255.426 160.861 256.562 160.572 257.941 160.479C259.488 160.367 260.429 160.218 260.764 160.032C260.987 159.92 261.155 159.771 261.267 159.584H263.643C263.587 159.882 263.503 160.153 263.391 160.395C263.298 160.637 263.186 160.852 263.056 161.038C262.944 161.206 262.776 161.364 262.553 161.514C262.348 161.663 262.171 161.793 262.022 161.905C261.872 161.998 261.649 162.091 261.351 162.185C261.071 162.259 260.848 162.324 260.68 162.38C260.512 162.418 260.252 162.455 259.898 162.492C259.562 162.53 259.32 162.557 259.171 162.576C259.022 162.595 258.752 162.613 258.36 162.632C257.969 162.651 257.718 162.669 257.606 162.688C256.078 162.8 254.886 163.396 254.029 164.478C253.171 165.54 252.631 166.966 252.408 168.756H252.491C252.901 167.768 253.553 166.975 254.448 166.379C255.342 165.782 256.376 165.484 257.55 165.484C259.599 165.484 261.202 166.137 262.357 167.441C263.531 168.728 264.118 170.536 264.118 172.866C264.118 175.271 263.521 177.135 262.329 178.458C261.155 179.782 259.497 180.444 257.354 180.444C255.603 180.444 254.122 179.931 252.911 178.906C251.7 177.862 250.954 176.371 250.675 174.432C250.563 173.649 250.507 172.773 250.507 171.804C250.507 168.057 251.085 165.298 252.24 163.527ZM252.939 172.95C252.939 174.59 253.33 175.914 254.112 176.921C254.914 177.927 256.003 178.431 257.382 178.431C258.724 178.431 259.776 177.946 260.54 176.977C261.304 176.007 261.686 174.656 261.686 172.922C261.686 171.226 261.295 169.893 260.512 168.923C259.73 167.954 258.668 167.469 257.326 167.469C255.985 167.469 254.914 167.963 254.112 168.951C253.33 169.921 252.939 171.254 252.939 172.95Z" fill="black"/>
<path d="M278.282 165.54V179.968H275.906V167.637H270.764L270.568 174.013C270.512 176.212 270.112 177.806 269.366 178.794C268.621 179.782 267.689 180.276 266.572 180.276C265.882 180.276 265.314 180.173 264.867 179.968V178.039C265.109 178.17 265.528 178.235 266.124 178.235C266.683 178.235 267.158 177.937 267.55 177.34C267.96 176.725 268.183 175.7 268.22 174.264L268.472 165.54H278.282Z" fill="black"/>
<path d="M294.119 175.411C293.392 178.766 291.296 180.444 287.83 180.444C285.706 180.444 284.039 179.782 282.828 178.458C281.635 177.135 281.039 175.299 281.039 172.95C281.039 170.62 281.654 168.737 282.884 167.302C284.132 165.848 285.753 165.121 287.746 165.121C289.964 165.121 291.603 165.876 292.665 167.386C293.746 168.877 294.286 170.769 294.286 173.062V173.397H283.443L283.415 173.565C283.415 175.094 283.815 176.296 284.616 177.172C285.417 178.048 286.517 178.486 287.914 178.486C288.958 178.486 289.777 178.244 290.374 177.759C290.988 177.275 291.464 176.492 291.799 175.411H294.119ZM291.827 171.468C291.715 170.089 291.296 169.017 290.569 168.252C289.843 167.469 288.883 167.078 287.691 167.078C286.535 167.078 285.576 167.469 284.812 168.252C284.048 169.035 283.592 170.107 283.443 171.468H291.827Z" fill="black"/>
<path d="M312.427 179.968H310.052V168.588H309.968L305.692 179.968H303.512L299.236 168.588H299.152V179.968H296.777V165.54H300.186L304.574 177.228H304.63L309.018 165.54H312.427V179.968Z" fill="black"/>
<path d="M327.87 165.54L321.694 181.814C321.452 182.466 321.237 182.97 321.051 183.324C320.883 183.697 320.632 184.097 320.297 184.526C319.98 184.974 319.588 185.291 319.123 185.477C318.676 185.682 318.145 185.785 317.53 185.785C317.064 185.785 316.477 185.701 315.769 185.533V183.408C316.458 183.613 316.971 183.715 317.306 183.715C318.089 183.715 318.648 183.315 318.983 182.513L320.101 179.885L314.372 165.54H317.055L321.331 177.032L325.383 165.54H327.87Z" fill="black"/>
<path d="M340.735 179.968H337.689V165.54H340.064V177.312H340.12L346.604 165.54H349.65V179.968H347.275V168.196H347.219L340.735 179.968Z" fill="black"/>
<path d="M372.93 165.54L366.754 181.814C366.512 182.466 366.298 182.97 366.111 183.324C365.944 183.697 365.692 184.097 365.357 184.526C365.04 184.974 364.649 185.291 364.183 185.477C363.736 185.682 363.205 185.785 362.59 185.785C362.124 185.785 361.537 185.701 360.829 185.533V183.408C361.518 183.613 362.031 183.715 362.366 183.715C363.149 183.715 363.708 183.315 364.043 182.513L365.161 179.885L359.432 165.54H362.115L366.391 177.032L370.443 165.54H372.93Z" fill="black"/>
<path d="M387.882 179.968H384.864L379.61 172.866L377.346 175.075V179.968H374.971V165.54H377.346V172.419L383.942 165.54H387.128L381.315 171.216L387.882 179.968Z" fill="black"/>
<path d="M402.235 178.067V179.913C401.751 180.099 401.21 180.192 400.614 180.192C399.254 180.192 398.555 179.484 398.518 178.067C397.158 179.596 395.416 180.36 393.292 180.36C391.876 180.36 390.749 179.996 389.91 179.269C389.09 178.542 388.68 177.545 388.68 176.277C388.68 173.705 390.385 172.204 393.795 171.776C394.018 171.738 394.344 171.701 394.773 171.664C396.394 171.477 397.391 171.263 397.763 171.021C398.192 170.722 398.406 170.21 398.406 169.483C398.406 167.898 397.316 167.106 395.136 167.106C394.018 167.106 393.171 167.339 392.593 167.805C392.016 168.252 391.671 168.998 391.559 170.042H389.239C389.277 168.495 389.826 167.292 390.888 166.435C391.95 165.577 393.413 165.149 395.276 165.149C397.307 165.149 398.816 165.615 399.804 166.547C400.12 166.845 400.353 167.236 400.502 167.721C400.651 168.206 400.735 168.607 400.754 168.923C400.772 169.222 400.782 169.678 400.782 170.294C400.782 171.002 400.763 172.074 400.726 173.509C400.689 174.945 400.67 176.016 400.67 176.725C400.67 177.247 400.735 177.62 400.866 177.843C401.015 178.048 401.276 178.151 401.648 178.151C401.797 178.151 401.993 178.123 402.235 178.067ZM398.406 172.475C398.239 172.605 398.062 172.717 397.875 172.81C397.689 172.903 397.447 172.978 397.149 173.034C396.869 173.09 396.673 173.136 396.562 173.174C396.469 173.192 396.226 173.23 395.835 173.286C395.444 173.323 395.239 173.341 395.22 173.341C394.643 173.416 394.261 173.472 394.074 173.509C393.907 173.528 393.571 173.602 393.068 173.733C392.584 173.863 392.239 174.013 392.034 174.18C391.829 174.348 391.624 174.6 391.419 174.935C391.233 175.252 391.14 175.634 391.14 176.082C391.14 176.827 391.391 177.415 391.894 177.843C392.416 178.272 393.124 178.486 394.018 178.486C395.155 178.486 396.17 178.151 397.065 177.48C397.959 176.809 398.406 176.016 398.406 175.103V172.475Z" fill="black"/>
<path d="M410.566 172.978L405.62 179.968H402.685L409.001 171.468L403.496 165.54H406.43L412.299 172.167H412.355V165.54H414.731V172.167H414.787L420.656 165.54H423.59L418.084 171.468L424.401 179.968H421.466L416.519 172.978L414.731 174.795V179.968H412.355V174.795L410.566 172.978Z" fill="black"/>
<path d="M429.272 179.968H426.226V165.54H428.602V177.312H428.658L435.141 165.54H438.188V179.968H435.812V168.196H435.756L429.272 179.968Z" fill="black"/>
<path d="M452.795 167.637H447.625V179.968H445.249V167.637H440.079V165.54H452.795V167.637Z" fill="black"/>
<path d="M466.526 175.411C465.799 178.766 463.703 180.444 460.238 180.444C458.114 180.444 456.446 179.782 455.235 178.458C454.043 177.135 453.446 175.299 453.446 172.95C453.446 170.62 454.061 168.737 455.291 167.302C456.539 165.848 458.16 165.121 460.154 165.121C462.371 165.121 464.011 165.876 465.073 167.386C466.153 168.877 466.694 170.769 466.694 173.062V173.397H455.85L455.822 173.565C455.822 175.094 456.223 176.296 457.024 177.172C457.825 178.048 458.924 178.486 460.322 178.486C461.365 178.486 462.185 178.244 462.781 177.759C463.396 177.275 463.871 176.492 464.206 175.411H466.526ZM464.234 171.468C464.122 170.089 463.703 169.017 462.977 168.252C462.25 167.469 461.29 167.078 460.098 167.078C458.943 167.078 457.983 167.469 457.219 168.252C456.456 169.035 455.999 170.107 455.85 171.468H464.234Z" fill="black"/>
<path d="M15.6384 210.261H12.6201L7.36595 203.158L5.10219 205.367V210.261H2.72664V195.832H5.10219V202.711L11.6978 195.832H14.8839L9.07075 201.508L15.6384 210.261Z" fill="black"/>
<path d="M18.3649 197.482C19.6318 196.102 21.3553 195.413 23.5352 195.413C25.7151 195.413 27.4106 196.075 28.6217 197.398C29.8327 198.722 30.4382 200.576 30.4382 202.962C30.4382 205.404 29.8327 207.306 28.6217 208.667C27.4106 210.028 25.7058 210.708 23.5072 210.708C21.3087 210.708 19.5852 210.037 18.3369 208.695C17.0886 207.352 16.4644 205.488 16.4644 203.102C16.4644 200.735 17.0979 198.861 18.3649 197.482ZM26.7771 198.936C25.9759 197.911 24.8767 197.398 23.4793 197.398C22.0819 197.398 20.9733 197.911 20.1535 198.936C19.3337 199.961 18.9238 201.331 18.9238 203.046C18.9238 204.817 19.3244 206.206 20.1256 207.213C20.9454 208.201 22.0819 208.695 23.5352 208.695C24.9326 208.695 26.0225 208.191 26.8051 207.185C27.6062 206.178 28.0068 204.789 28.0068 203.018C28.0068 201.303 27.5969 199.943 26.7771 198.936Z" fill="black"/>
<path d="M35.6426 210.261H33.2671V195.832H35.6426V201.564H42.8531V195.832H45.2287V210.261H42.8531V203.662H35.6426V210.261Z" fill="black"/>
<path d="M59.8359 197.929H54.6656V210.261H52.29V197.929H47.1197V195.832H59.8359V197.929Z" fill="black"/>
<path d="M74.0141 208.359V210.205C73.5296 210.391 72.9893 210.484 72.3931 210.484C71.033 210.484 70.3343 209.776 70.297 208.359C68.9369 209.888 67.1948 210.652 65.0708 210.652C63.6548 210.652 62.5276 210.288 61.6892 209.561C60.8694 208.834 60.4595 207.837 60.4595 206.57C60.4595 203.997 62.1643 202.496 65.5739 202.068C65.7975 202.03 66.1235 201.993 66.5521 201.956C68.173 201.769 69.1698 201.555 69.5424 201.313C69.971 201.014 70.1852 200.502 70.1852 199.775C70.1852 198.19 69.0953 197.398 66.9154 197.398C65.7975 197.398 64.9497 197.631 64.3721 198.097C63.7946 198.544 63.4499 199.29 63.3381 200.334H61.0184C61.0557 198.787 61.6053 197.584 62.6673 196.727C63.7293 195.869 65.1919 195.441 67.0551 195.441C69.086 195.441 70.5951 195.907 71.5826 196.839C71.8994 197.137 72.1323 197.529 72.2813 198.013C72.4304 198.498 72.5142 198.899 72.5328 199.216C72.5515 199.514 72.5608 199.971 72.5608 200.586C72.5608 201.294 72.5422 202.366 72.5049 203.801C72.4676 205.237 72.449 206.309 72.449 207.017C72.449 207.539 72.5142 207.912 72.6446 208.135C72.7937 208.34 73.0545 208.443 73.4272 208.443C73.5762 208.443 73.7719 208.415 74.0141 208.359ZM70.1852 202.767C70.0176 202.897 69.8406 203.009 69.6542 203.102C69.4679 203.195 69.2257 203.27 68.9276 203.326C68.6481 203.382 68.4525 203.428 68.3407 203.466C68.2475 203.484 68.0053 203.522 67.6141 203.578C67.2228 203.615 67.0178 203.634 66.9992 203.634C66.4216 203.708 66.0397 203.764 65.8534 203.801C65.6857 203.82 65.3503 203.895 64.8472 204.025C64.3628 204.155 64.0181 204.305 63.8132 204.472C63.6082 204.64 63.4033 204.892 63.1983 205.227C63.012 205.544 62.9189 205.926 62.9189 206.374C62.9189 207.119 63.1704 207.707 63.6734 208.135C64.1951 208.564 64.9031 208.779 65.7975 208.779C66.934 208.779 67.9494 208.443 68.8438 207.772C69.7381 207.101 70.1852 206.309 70.1852 205.395V202.767Z" fill="black"/>
<path d="M89.1647 210.261H86.1464L80.8922 203.158L78.6285 205.367V210.261H76.2529V195.832H78.6285V202.711L85.2241 195.832H88.4102L82.5971 201.508L89.1647 210.261Z" fill="black"/>
<path d="M101.785 197.929H96.6143V210.261H94.2388V197.929H89.0685V195.832H101.785V197.929Z" fill="black"/>
<path d="M106.058 210.261H103.682V195.832H106.058V201.564H113.268V195.832H115.644V210.261H113.268V203.662H106.058V210.261Z" fill="black"/>
<path d="M132.962 195.832H135.337V210.261H132.962V195.832ZM129.384 202.543C130.242 203.326 130.67 204.398 130.67 205.759C130.67 207.119 130.251 208.21 129.412 209.03C128.593 209.85 127.484 210.261 126.087 210.261H119.128V195.832H121.503V201.341H125.975C127.391 201.341 128.527 201.741 129.384 202.543ZM125.22 203.382H121.503V208.163H125.22C126.189 208.163 126.925 207.958 127.428 207.548C127.95 207.119 128.211 206.523 128.211 205.759C128.211 204.174 127.214 203.382 125.22 203.382Z" fill="black"/>
<path d="M151.214 205.703C150.488 209.058 148.392 210.736 144.926 210.736C142.802 210.736 141.135 210.074 139.924 208.751C138.731 207.427 138.135 205.591 138.135 203.242C138.135 200.912 138.75 199.029 139.979 197.594C141.228 196.14 142.849 195.413 144.842 195.413C147.06 195.413 148.699 196.168 149.761 197.678C150.842 199.169 151.382 201.061 151.382 203.354V203.689H140.538L140.51 203.857C140.51 205.386 140.911 206.588 141.712 207.464C142.513 208.34 143.613 208.779 145.01 208.779C146.053 208.779 146.873 208.536 147.469 208.052C148.084 207.567 148.559 206.784 148.895 205.703H151.214ZM148.923 201.76C148.811 200.381 148.392 199.309 147.665 198.544C146.938 197.762 145.979 197.37 144.786 197.37C143.631 197.37 142.672 197.762 141.908 198.544C141.144 199.327 140.687 200.399 140.538 201.76H148.923Z" fill="black"/>
<path d="M175.653 214.846H173.389V210.261H162.378V214.846H160.114V208.163H161.679C162.126 207.306 162.536 205.982 162.909 204.193C163.3 202.385 163.495 200.623 163.495 198.908V195.832H173.78V208.163H175.653V214.846ZM171.405 208.163V197.929H165.815V199.132C165.815 200.828 165.638 202.552 165.284 204.305C164.949 206.038 164.567 207.325 164.138 208.163H171.405Z" fill="black"/>
<path d="M190.499 208.359V210.205C190.015 210.391 189.474 210.484 188.878 210.484C187.518 210.484 186.819 209.776 186.782 208.359C185.422 209.888 183.68 210.652 181.556 210.652C180.14 210.652 179.012 210.288 178.174 209.561C177.354 208.834 176.944 207.837 176.944 206.57C176.944 203.997 178.649 202.496 182.059 202.068C182.282 202.03 182.608 201.993 183.037 201.956C184.658 201.769 185.655 201.555 186.027 201.313C186.456 201.014 186.67 200.502 186.67 199.775C186.67 198.19 185.58 197.398 183.4 197.398C182.282 197.398 181.435 197.631 180.857 198.097C180.279 198.544 179.935 199.29 179.823 200.334H177.503C177.541 198.787 178.09 197.584 179.152 196.727C180.214 195.869 181.677 195.441 183.54 195.441C185.571 195.441 187.08 195.907 188.068 196.839C188.384 197.137 188.617 197.529 188.766 198.013C188.915 198.498 188.999 198.899 189.018 199.216C189.036 199.514 189.046 199.971 189.046 200.586C189.046 201.294 189.027 202.366 188.99 203.801C188.953 205.237 188.934 206.309 188.934 207.017C188.934 207.539 188.999 207.912 189.13 208.135C189.279 208.34 189.539 208.443 189.912 208.443C190.061 208.443 190.257 208.415 190.499 208.359ZM186.67 202.767C186.502 202.897 186.325 203.009 186.139 203.102C185.953 203.195 185.711 203.27 185.412 203.326C185.133 203.382 184.937 203.428 184.826 203.466C184.732 203.484 184.49 203.522 184.099 203.578C183.708 203.615 183.503 203.634 183.484 203.634C182.906 203.708 182.525 203.764 182.338 203.801C182.171 203.82 181.835 203.895 181.332 204.025C180.848 204.155 180.503 204.305 180.298 204.472C180.093 204.64 179.888 204.892 179.683 205.227C179.497 205.544 179.404 205.926 179.404 206.374C179.404 207.119 179.655 207.707 180.158 208.135C180.68 208.564 181.388 208.779 182.282 208.779C183.419 208.779 184.434 208.443 185.329 207.772C186.223 207.101 186.67 206.309 186.67 205.395V202.767Z" fill="black"/>
<path d="M195.113 210.261H192.738V195.832H195.113V201.564H202.324V195.832H204.699V210.261H202.324V203.662H195.113V210.261Z" fill="black"/>
<path d="M210.643 210.261H208.267V195.832H210.643V201.564H217.853V195.832H220.229V210.261H217.853V203.662H210.643V210.261Z" fill="black"/>
<path d="M237.547 195.832H239.923V210.261H237.547V195.832ZM233.97 202.543C234.827 203.326 235.255 204.398 235.255 205.759C235.255 207.119 234.836 208.21 233.998 209.03C233.178 209.85 232.069 210.261 230.672 210.261H223.713V195.832H226.089V201.341H230.56C231.976 201.341 233.113 201.741 233.97 202.543ZM229.806 203.382H226.089V208.163H229.806C230.774 208.163 231.51 207.958 232.013 207.548C232.535 207.119 232.796 206.523 232.796 205.759C232.796 204.174 231.799 203.382 229.806 203.382Z" fill="black"/>
<path d="M255.8 205.703C255.073 209.058 252.977 210.736 249.511 210.736C247.387 210.736 245.72 210.074 244.509 208.751C243.316 207.427 242.72 205.591 242.72 203.242C242.72 200.912 243.335 199.029 244.565 197.594C245.813 196.14 247.434 195.413 249.428 195.413C251.645 195.413 253.284 196.168 254.346 197.678C255.427 199.169 255.967 201.061 255.967 203.354V203.689H245.124L245.096 203.857C245.096 205.386 245.496 206.588 246.298 207.464C247.099 208.34 248.198 208.779 249.595 208.779C250.639 208.779 251.458 208.536 252.055 208.052C252.67 207.567 253.145 206.784 253.48 205.703H255.8ZM253.508 201.76C253.396 200.381 252.977 199.309 252.25 198.544C251.524 197.762 250.564 197.37 249.372 197.37C248.217 197.37 247.257 197.762 246.493 198.544C245.729 199.327 245.273 200.399 245.124 201.76H253.508Z" fill="black"/>
<path d="M262.119 207.157V209.058C262.119 209.767 262.082 210.363 262.007 210.848C261.951 211.351 261.821 211.854 261.616 212.358C261.411 212.861 261.094 213.28 260.666 213.616C260.237 213.97 259.687 214.231 259.017 214.399V213.001C260.023 212.665 260.535 211.752 260.554 210.261H259.017V207.157H262.119Z" fill="black"/>
<path d="M285.194 210.261H282.818V203.885C282.427 203.997 281.737 204.137 280.75 204.305C279.781 204.454 278.98 204.528 278.346 204.528C276.875 204.528 275.719 204.183 274.881 203.494C274.061 202.785 273.651 201.751 273.651 200.39V195.832H276.027V199.998C276.027 201.676 276.949 202.515 278.794 202.515C280.116 202.515 281.458 202.301 282.818 201.872V195.832H285.194V210.261Z" fill="black"/>
<path d="M299.82 197.929H294.65V210.261H292.274V197.929H287.104V195.832H299.82V197.929Z" fill="black"/>
<path d="M302.372 197.482C303.639 196.102 305.362 195.413 307.542 195.413C309.722 195.413 311.418 196.075 312.629 197.398C313.84 198.722 314.445 200.576 314.445 202.962C314.445 205.404 313.84 207.306 312.629 208.667C311.418 210.028 309.713 210.708 307.514 210.708C305.316 210.708 303.592 210.037 302.344 208.695C301.096 207.352 300.471 205.488 300.471 203.102C300.471 200.735 301.105 198.861 302.372 197.482ZM310.784 198.936C309.983 197.911 308.884 197.398 307.486 197.398C306.089 197.398 304.98 197.911 304.16 198.936C303.341 199.961 302.931 201.331 302.931 203.046C302.931 204.817 303.331 206.206 304.133 207.213C304.952 208.201 306.089 208.695 307.542 208.695C308.94 208.695 310.029 208.191 310.812 207.185C311.613 206.178 312.014 204.789 312.014 203.018C312.014 201.303 311.604 199.943 310.784 198.936Z" fill="black"/>
<path d="M318.616 193.819C319.249 192.831 320.013 192.104 320.907 191.638C321.802 191.153 322.938 190.864 324.317 190.771C325.863 190.659 326.804 190.51 327.14 190.324C327.363 190.212 327.531 190.063 327.643 189.876H330.018C329.962 190.175 329.878 190.445 329.767 190.687C329.673 190.93 329.562 191.144 329.431 191.33C329.319 191.498 329.152 191.657 328.928 191.806C328.723 191.955 328.546 192.085 328.397 192.197C328.248 192.29 328.025 192.384 327.726 192.477C327.447 192.551 327.223 192.617 327.056 192.672C326.888 192.71 326.627 192.747 326.273 192.784C325.938 192.822 325.696 192.85 325.547 192.868C325.397 192.887 325.127 192.905 324.736 192.924C324.345 192.943 324.093 192.961 323.981 192.98C322.454 193.092 321.261 193.688 320.404 194.77C319.547 195.832 319.007 197.258 318.783 199.048H318.867C319.277 198.06 319.929 197.268 320.823 196.671C321.718 196.075 322.752 195.776 323.926 195.776C325.975 195.776 327.577 196.429 328.733 197.734C329.906 199.02 330.493 200.828 330.493 203.158C330.493 205.563 329.897 207.427 328.705 208.751C327.531 210.074 325.873 210.736 323.73 210.736C321.979 210.736 320.497 210.223 319.286 209.198C318.075 208.154 317.33 206.663 317.05 204.724C316.939 203.941 316.883 203.065 316.883 202.096C316.883 198.349 317.46 195.59 318.616 193.819ZM319.314 203.242C319.314 204.883 319.705 206.206 320.488 207.213C321.289 208.219 322.379 208.723 323.758 208.723C325.099 208.723 326.152 208.238 326.916 207.269C327.68 206.299 328.062 204.948 328.062 203.214C328.062 201.518 327.671 200.185 326.888 199.216C326.105 198.246 325.043 197.762 323.702 197.762C322.36 197.762 321.289 198.256 320.488 199.244C319.705 200.213 319.314 201.546 319.314 203.242Z" fill="black"/>
<path d="M347.072 195.832H349.448V210.261H347.072V195.832ZM343.495 202.543C344.352 203.326 344.781 204.398 344.781 205.759C344.781 207.119 344.361 208.21 343.523 209.03C342.703 209.85 341.595 210.261 340.197 210.261H333.238V195.832H335.614V201.341H340.085C341.501 201.341 342.638 201.741 343.495 202.543ZM339.331 203.382H335.614V208.163H339.331C340.3 208.163 341.036 207.958 341.539 207.548C342.06 207.119 342.321 206.523 342.321 205.759C342.321 204.174 341.324 203.382 339.331 203.382Z" fill="black"/>
<path d="M376.401 210.261H374.026V198.88H373.942L369.666 210.261H367.486L363.21 198.88H363.126V210.261H360.75V195.832H364.16L368.548 207.52H368.604L372.992 195.832H376.401V210.261Z" fill="black"/>
<path d="M393.661 195.832H396.036V210.261H393.661V195.832ZM390.084 202.543C390.941 203.326 391.369 204.398 391.369 205.759C391.369 207.119 390.95 208.21 390.111 209.03C389.292 209.85 388.183 210.261 386.786 210.261H379.827V195.832H382.202V201.341H386.674C388.09 201.341 389.226 201.741 390.084 202.543ZM385.919 203.382H382.202V208.163H385.919C386.888 208.163 387.624 207.958 388.127 207.548C388.649 207.119 388.91 206.523 388.91 205.759C388.91 204.174 387.913 203.382 385.919 203.382Z" fill="black"/>
<path d="M422.99 210.261H420.614V198.88H420.53L416.254 210.261H414.074L409.798 198.88H409.715V210.261H407.339V195.832H410.749L415.136 207.52H415.192L419.58 195.832H422.99V210.261Z" fill="black"/>
<path d="M427.645 197.482C428.912 196.102 430.635 195.413 432.815 195.413C434.995 195.413 436.691 196.075 437.902 197.398C439.113 198.722 439.718 200.576 439.718 202.962C439.718 205.404 439.113 207.306 437.902 208.667C436.691 210.028 434.986 210.708 432.787 210.708C430.589 210.708 428.865 210.037 427.617 208.695C426.369 207.352 425.744 205.488 425.744 203.102C425.744 200.735 426.378 198.861 427.645 197.482ZM436.057 198.936C435.256 197.911 434.157 197.398 432.759 197.398C431.362 197.398 430.253 197.911 429.434 198.936C428.614 199.961 428.204 201.331 428.204 203.046C428.204 204.817 428.604 206.206 429.406 207.213C430.225 208.201 431.362 208.695 432.815 208.695C434.213 208.695 435.303 208.191 436.085 207.185C436.886 206.178 437.287 204.789 437.287 203.018C437.287 201.303 436.877 199.943 436.057 198.936Z" fill="black"/>
<path d="M452.496 197.929H444.979V210.261H442.603V195.832H452.496V197.929Z" fill="black"/>
<path d="M464.526 195.832V210.261H462.151V197.929H457.008L456.813 204.305C456.757 206.504 456.356 208.098 455.611 209.086C454.866 210.074 453.934 210.568 452.816 210.568C452.127 210.568 451.559 210.466 451.112 210.261V208.331C451.354 208.462 451.773 208.527 452.369 208.527C452.928 208.527 453.403 208.229 453.795 207.632C454.204 207.017 454.428 205.992 454.465 204.556L454.717 195.832H464.526Z" fill="black"/>
<path d="M471.085 210.261H468.038V195.832H470.414V207.604H470.47L476.954 195.832H480V210.261H477.624V198.489H477.569L471.085 210.261Z" fill="black"/>
<path d="M15.1354 235.296C14.9304 237.029 14.269 238.409 13.1511 239.434C12.0518 240.459 10.6172 240.972 8.84717 240.972C6.66726 240.972 4.98108 240.301 3.78865 238.959C2.59622 237.598 2 235.79 2 233.534C2 231.129 2.62416 229.228 3.87249 227.83C5.12082 226.413 6.80699 225.705 8.93101 225.705C10.701 225.705 12.117 226.152 13.1791 227.047C14.2411 227.923 14.8652 229.181 15.0515 230.822H12.5922C12.1636 228.734 10.9526 227.69 8.95896 227.69C7.58021 227.69 6.49025 228.203 5.68909 229.228C4.88792 230.235 4.48734 231.605 4.48734 233.338C4.48734 235.091 4.86929 236.47 5.63319 237.477C6.3971 238.483 7.44979 238.987 8.79128 238.987C9.87192 238.987 10.7476 238.67 11.4184 238.036C12.1077 237.402 12.5456 236.489 12.7319 235.296H15.1354Z" fill="black"/>
<path d="M25.4601 240.553V226.124H32.1396C33.0898 226.124 33.9003 226.208 34.571 226.376C35.2417 226.525 35.8286 226.87 36.3317 227.411C36.8348 227.951 37.0863 228.687 37.0863 229.619C37.0863 231.036 36.3783 232.071 34.9623 232.723V232.751C35.8193 232.919 36.4901 233.32 36.9745 233.954C37.4589 234.569 37.7011 235.352 37.7011 236.302C37.7011 237.533 37.2912 238.549 36.4714 239.35C35.6516 240.152 34.599 240.553 33.3134 240.553H25.4601ZM31.888 231.94C32.8755 231.94 33.5742 231.782 33.9841 231.465C34.4126 231.129 34.6269 230.645 34.6269 230.011C34.6269 229.377 34.422 228.911 34.0121 228.613C33.6022 228.315 32.8941 228.165 31.888 228.165H27.7797V231.94H31.888ZM27.7797 233.954V238.511H32.8662C33.6115 238.511 34.1891 238.288 34.599 237.84C35.0275 237.393 35.2417 236.815 35.2417 236.107C35.2417 234.671 34.3102 233.954 32.447 233.954H27.7797Z" fill="black"/>
<path d="M53.299 238.651V240.497C52.8146 240.683 52.2742 240.776 51.678 240.776C50.3179 240.776 49.6192 240.068 49.5819 238.651C48.2218 240.18 46.4798 240.944 44.3557 240.944C42.9397 240.944 41.8125 240.581 40.9741 239.854C40.1543 239.127 39.7444 238.129 39.7444 236.862C39.7444 234.289 41.4492 232.789 44.8588 232.36C45.0824 232.322 45.4084 232.285 45.837 232.248C47.4579 232.062 48.4547 231.847 48.8274 231.605C49.2559 231.307 49.4702 230.794 49.4702 230.067C49.4702 228.482 48.3802 227.69 46.2003 227.69C45.0824 227.69 44.2346 227.923 43.657 228.389C43.0795 228.837 42.7348 229.582 42.623 230.626H40.3033C40.3406 229.079 40.8902 227.877 41.9522 227.019C43.0142 226.162 44.4768 225.733 46.34 225.733C48.3709 225.733 49.8801 226.199 50.8675 227.131C51.1843 227.429 51.4172 227.821 51.5662 228.305C51.7153 228.79 51.7991 229.191 51.8178 229.508C51.8364 229.806 51.8457 230.263 51.8457 230.878C51.8457 231.586 51.8271 232.658 51.7898 234.093C51.7525 235.529 51.7339 236.601 51.7339 237.309C51.7339 237.831 51.7991 238.204 51.9295 238.428C52.0786 238.633 52.3394 238.735 52.7121 238.735C52.8611 238.735 53.0568 238.707 53.299 238.651ZM49.4702 233.059C49.3025 233.189 49.1255 233.301 48.9391 233.394C48.7528 233.488 48.5106 233.562 48.2125 233.618C47.933 233.674 47.7374 233.721 47.6256 233.758C47.5325 233.777 47.2902 233.814 46.899 233.87C46.5077 233.907 46.3028 233.926 46.2841 233.926C45.7065 234 45.3246 234.056 45.1383 234.093C44.9706 234.112 44.6352 234.187 44.1322 234.317C43.6477 234.448 43.303 234.597 43.0981 234.764C42.8931 234.932 42.6882 235.184 42.4832 235.519C42.2969 235.836 42.2038 236.219 42.2038 236.666C42.2038 237.412 42.4553 237.999 42.9584 238.428C43.48 238.856 44.188 239.071 45.0824 239.071C46.2189 239.071 47.2343 238.735 48.1287 238.064C49.023 237.393 49.4702 236.601 49.4702 235.687V233.059Z" fill="black"/>
<path d="M71.1606 240.553H68.785V229.172H68.7012L64.4252 240.553H62.2453L57.9693 229.172H57.8854V240.553H55.5099V226.124H58.9195L63.3073 237.812H63.3632L67.751 226.124H71.1606V240.553Z" fill="black"/>
<path d="M77.7163 240.553H74.67V226.124H77.0455V237.896H77.1014L83.5853 226.124H86.6316V240.553H84.256V228.781H84.2001L77.7163 240.553Z" fill="black"/>
<path d="M110.387 235.296C110.182 237.029 109.52 238.409 108.402 239.434C107.303 240.459 105.868 240.972 104.098 240.972C101.918 240.972 100.232 240.301 99.0399 238.959C97.8474 237.598 97.2512 235.79 97.2512 233.534C97.2512 231.129 97.8754 229.228 99.1237 227.83C100.372 226.413 102.058 225.705 104.182 225.705C105.952 225.705 107.368 226.152 108.43 227.047C109.492 227.923 110.116 229.181 110.303 230.822H107.843C107.415 228.734 106.204 227.69 104.21 227.69C102.831 227.69 101.741 228.203 100.94 229.228C100.139 230.235 99.7386 231.605 99.7386 233.338C99.7386 235.091 100.121 236.47 100.884 237.477C101.648 238.483 102.701 238.987 104.042 238.987C105.123 238.987 105.999 238.67 106.67 238.036C107.359 237.402 107.797 236.489 107.983 235.296H110.387Z" fill="black"/>
<path d="M112.933 240.553V226.124H119.612C120.563 226.124 121.373 226.208 122.044 226.376C122.715 226.525 123.301 226.87 123.805 227.411C124.308 227.951 124.559 228.687 124.559 229.619C124.559 231.036 123.851 232.071 122.435 232.723V232.751C123.292 232.919 123.963 233.32 124.447 233.954C124.932 234.569 125.174 235.352 125.174 236.302C125.174 237.533 124.764 238.549 123.944 239.35C123.124 240.152 122.072 240.553 120.786 240.553H112.933ZM119.361 231.94C120.348 231.94 121.047 231.782 121.457 231.465C121.885 231.129 122.1 230.645 122.1 230.011C122.1 229.377 121.895 228.911 121.485 228.613C121.075 228.315 120.367 228.165 119.361 228.165H115.253V231.94H119.361ZM115.253 233.954V238.511H120.339C121.084 238.511 121.662 238.288 122.072 237.84C122.5 237.393 122.715 236.815 122.715 236.107C122.715 234.671 121.783 233.954 119.92 233.954H115.253Z" fill="black"/>
<path d="M139.402 240.553H137.027V234.653H133.869L129.313 240.553H126.155L131.13 234.569C130.068 234.401 129.201 233.954 128.531 233.227C127.879 232.481 127.553 231.53 127.553 230.374C127.553 229.032 127.953 227.988 128.754 227.243C129.555 226.497 130.664 226.124 132.08 226.124H139.402V240.553ZM137.027 228.221H132.835C130.934 228.221 129.984 228.939 129.984 230.374C129.984 231.828 130.934 232.556 132.835 232.556H137.027V228.221Z" fill="black"/>
<path d="M142.2 230.291C142.312 228.65 142.936 227.476 144.073 226.767C145.209 226.059 146.616 225.705 148.293 225.705C149.876 225.705 151.171 226.031 152.178 226.683C153.202 227.336 153.715 228.305 153.715 229.592C153.715 230.374 153.482 231.046 153.016 231.605C152.569 232.164 152.028 232.509 151.395 232.639V232.695C152.159 232.844 152.811 233.227 153.351 233.842C153.91 234.438 154.19 235.249 154.19 236.274C154.19 237.766 153.603 238.931 152.429 239.77C151.255 240.59 149.849 241 148.209 241C146.327 241 144.827 240.571 143.709 239.714C142.61 238.838 142.023 237.617 141.949 236.051H144.352C144.427 237.057 144.809 237.812 145.498 238.316C146.187 238.819 147.082 239.071 148.181 239.071C149.28 239.071 150.147 238.81 150.78 238.288C151.414 237.747 151.73 237.095 151.73 236.33C151.73 234.764 150.706 233.982 148.656 233.982H146.672V232.052H148.265C149.178 232.052 149.914 231.866 150.473 231.493C151.032 231.101 151.311 230.505 151.311 229.703C151.311 229.144 151.032 228.659 150.473 228.249C149.932 227.839 149.196 227.634 148.265 227.634C147.315 227.634 146.485 227.849 145.777 228.277C145.088 228.706 144.697 229.377 144.604 230.291H142.2Z" fill="black"/>
<path d="M169.757 238.651V240.497C169.272 240.683 168.732 240.776 168.136 240.776C166.775 240.776 166.077 240.068 166.04 238.651C164.679 240.18 162.937 240.944 160.813 240.944C159.397 240.944 158.27 240.581 157.432 239.854C156.612 239.127 156.202 238.129 156.202 236.862C156.202 234.289 157.907 232.789 161.316 232.36C161.54 232.322 161.866 232.285 162.295 232.248C163.916 232.062 164.912 231.847 165.285 231.605C165.713 231.307 165.928 230.794 165.928 230.067C165.928 228.482 164.838 227.69 162.658 227.69C161.54 227.69 160.692 227.923 160.115 228.389C159.537 228.837 159.192 229.582 159.081 230.626H156.761C156.798 229.079 157.348 227.877 158.41 227.019C159.472 226.162 160.934 225.733 162.798 225.733C164.828 225.733 166.338 226.199 167.325 227.131C167.642 227.429 167.875 227.821 168.024 228.305C168.173 228.79 168.257 229.191 168.275 229.508C168.294 229.806 168.303 230.263 168.303 230.878C168.303 231.586 168.285 232.658 168.247 234.093C168.21 235.529 168.191 236.601 168.191 237.309C168.191 237.831 168.257 238.204 168.387 238.428C168.536 238.633 168.797 238.735 169.17 238.735C169.319 238.735 169.514 238.707 169.757 238.651ZM165.928 233.059C165.76 233.189 165.583 233.301 165.397 233.394C165.21 233.488 164.968 233.562 164.67 233.618C164.391 233.674 164.195 233.721 164.083 233.758C163.99 233.777 163.748 233.814 163.357 233.87C162.965 233.907 162.76 233.926 162.742 233.926C162.164 234 161.782 234.056 161.596 234.093C161.428 234.112 161.093 234.187 160.59 234.317C160.105 234.448 159.761 234.597 159.556 234.764C159.351 234.932 159.146 235.184 158.941 235.519C158.755 235.836 158.661 236.219 158.661 236.666C158.661 237.412 158.913 237.999 159.416 238.428C159.938 238.856 160.646 239.071 161.54 239.071C162.676 239.071 163.692 238.735 164.586 238.064C165.481 237.393 165.928 236.601 165.928 235.687V233.059Z" fill="black"/>
<path d="M183.035 228.221H177.864V240.553H175.489V228.221H170.319V226.124H183.035V228.221Z" fill="black"/>
<path d="M195.776 232.835C196.633 233.618 197.061 234.69 197.061 236.051C197.061 237.412 196.642 238.502 195.804 239.322C194.984 240.143 193.875 240.553 192.478 240.553H184.848V226.124H187.224V231.633H192.366C193.782 231.633 194.919 232.034 195.776 232.835ZM191.612 233.674H187.224V238.455H191.612C192.58 238.455 193.316 238.25 193.819 237.84C194.341 237.412 194.602 236.815 194.602 236.051C194.602 234.466 193.605 233.674 191.612 233.674Z" fill="black"/>
<path d="M211.833 235.296C211.628 237.029 210.967 238.409 209.849 239.434C208.75 240.459 207.315 240.972 205.545 240.972C203.365 240.972 201.679 240.301 200.487 238.959C199.294 237.598 198.698 235.79 198.698 233.534C198.698 231.129 199.322 229.228 200.57 227.83C201.819 226.413 203.505 225.705 205.629 225.705C207.399 225.705 208.815 226.152 209.877 227.047C210.939 227.923 211.563 229.181 211.749 230.822H209.29C208.861 228.734 207.65 227.69 205.657 227.69C204.278 227.69 203.188 228.203 202.387 229.228C201.586 230.235 201.185 231.605 201.185 233.338C201.185 235.091 201.567 236.47 202.331 237.477C203.095 238.483 204.148 238.987 205.489 238.987C206.57 238.987 207.445 238.67 208.116 238.036C208.806 237.402 209.243 236.489 209.43 235.296H211.833Z" fill="black"/>
<path d="M225.838 240.553H223.463V234.653H220.304L215.749 240.553H212.591L217.566 234.569C216.504 234.401 215.637 233.954 214.966 233.227C214.314 232.481 213.988 231.53 213.988 230.374C213.988 229.032 214.389 227.988 215.19 227.243C215.991 226.497 217.1 226.124 218.516 226.124H225.838V240.553ZM223.463 228.221H219.27C217.37 228.221 216.42 228.939 216.42 230.374C216.42 231.828 217.37 232.556 219.27 232.556H223.463V228.221Z" fill="black"/>
<path d="M233.08 237.449V240.553H229.977V237.449H233.08Z" fill="black"/>
<path d="M14.1787 26.9238H8.33687V48.3449H2V0.65508H8.33687V21.6832H13.2876L30.0869 0.65508H37.975L19.6244 23.7794L39.3282 48.3449H31.5721L14.1787 26.9238Z" fill="black"/>
<path d="M81.0459 26.0394C81.0459 30.7123 80.2538 34.7957 78.6696 38.2894C77.0854 41.7614 74.8411 44.4144 71.9366 46.2487C69.0322 48.0829 65.6438 49 61.7712 49C57.9867 49 54.6313 48.0829 51.7049 46.2487C48.7785 44.3926 46.5011 41.7614 44.8729 38.3549C43.2667 34.9267 42.4416 30.9635 42.3976 26.4652V23.0261C42.3976 18.4405 43.2007 14.3899 44.8069 10.8743C46.4131 7.35873 48.6794 4.67291 51.6058 2.81684C54.5543 0.938948 57.9207 0 61.7052 0C65.5558 0 68.9442 0.92803 71.8706 2.78409C74.819 4.61832 77.0854 7.29323 78.6696 10.8088C80.2538 14.3026 81.0459 18.375 81.0459 23.0261V26.0394ZM74.742 22.9606C74.742 17.305 73.5979 12.9706 71.3096 9.95722C69.0212 6.92201 65.8198 5.40441 61.7052 5.40441C57.7007 5.40441 54.5432 6.92201 52.2329 9.95722C49.9446 12.9706 48.7675 17.1631 48.7014 22.5348V26.0394C48.7014 31.5203 49.8566 35.8329 52.1669 38.9773C54.4992 42.0998 57.7007 43.6611 61.7712 43.6611C65.8638 43.6611 69.0322 42.1872 71.2766 39.2393C73.5209 36.2696 74.676 32.0225 74.742 26.498V22.9606Z" fill="black"/>
<path d="M127.483 48.3449H121.113V26.3015H96.8881V48.3449H90.5512V0.65508H96.8881V21.1591H121.113V0.65508H127.483V48.3449Z" fill="black"/>
<path d="M170.95 5.83021H155.504V48.3449H149.2V5.83021H133.787V0.65508H170.95V5.83021Z" fill="black"/>
<path d="M201.975 35.8984H181.842L177.32 48.3449H170.785L189.136 0.65508H194.681L213.064 48.3449H206.562L201.975 35.8984ZM183.756 30.7233H200.093L191.908 8.41778L183.756 30.7233Z" fill="black"/>
<path d="M232.009 26.9238H226.167V48.3449H219.83V0.65508H226.167V21.6832H231.118L247.917 0.65508H255.805L237.454 23.7794L257.158 48.3449H249.402L232.009 26.9238Z" fill="black"/>
<path d="M296.17 5.83021H280.723V48.3449H274.42V5.83021H259.006V0.65508H296.17V5.83021Z" fill="black"/>
<path d="M309.932 20.111H321.88C326.897 20.1765 330.813 21.4539 333.63 23.9432C336.446 26.4325 337.854 29.8171 337.854 34.0969C337.854 38.3986 336.435 41.8269 333.597 44.3817C330.758 46.9365 326.886 48.2576 321.979 48.3449H303.596V0.65508H309.932V20.111ZM309.932 25.2861V43.2025H321.517C324.664 43.2025 327.106 42.3728 328.844 40.7132C330.604 39.0537 331.484 36.8264 331.484 34.0314C331.484 31.3456 330.637 29.2275 328.943 27.6771C327.271 26.1268 324.884 25.3298 321.781 25.2861H309.932ZM350 48.3449H343.663V0.65508H350V48.3449Z" fill="black"/>
<path d="M1.364 384H2.134L2.475 382.053H4.565L4.235 384H5.005L5.346 382.053H6.765V381.294H5.467L5.874 378.962H7.194V378.203H6.006L6.325 376.3H5.555L5.225 378.203H3.135L3.454 376.3H2.684L2.354 378.203H0.924V378.962H2.233L1.826 381.294H0.495V382.053H1.694L1.364 384ZM2.607 381.294L3.003 378.962H5.093L4.697 381.294H2.607ZM8.96715 384H9.81415V379.061H11.6071V378.335H9.80315V377.873C9.80315 377.059 10.1331 376.663 10.7931 376.663C11.0791 376.663 11.3101 376.718 11.6181 376.806V376.069C11.3431 375.97 11.0791 375.926 10.6831 375.926C10.1661 375.926 9.74815 376.08 9.46215 376.366C9.14315 376.685 8.96715 377.18 8.96715 377.829V378.324H8.18615V379.061H8.96715V384ZM12.7731 384H13.6091V378.313H12.7731V384ZM12.7071 377.07H13.6751V376.135H12.7071V377.07ZM15.5876 384H16.4346V381.734C16.4346 380.018 17.4466 379.127 18.6896 379.127H18.7556V378.214C17.6776 378.17 16.8526 378.852 16.4346 379.798V378.313H15.5876V384ZM20.3045 381.503H24.8145C24.8255 381.371 24.8255 381.283 24.8255 381.206C24.8255 379.534 23.8575 378.192 22.1745 378.192C20.6015 378.192 19.4465 379.512 19.4465 381.162C19.4465 382.933 20.7225 384.132 22.2845 384.132C23.3625 384.132 24.0555 383.703 24.6275 383.065L24.0995 382.592C23.6375 383.076 23.0875 383.395 22.3065 383.395C21.3055 383.395 20.4255 382.702 20.3045 381.503ZM20.3045 380.821C20.4255 379.721 21.1735 378.907 22.1525 378.907C23.2745 378.907 23.8685 379.787 23.9675 380.821H20.3045ZM26.3083 385.76H27.1553V382.911C27.5953 383.549 28.2773 384.121 29.3333 384.121C30.7083 384.121 32.0503 383.021 32.0503 381.162C32.0503 379.27 30.6973 378.192 29.3333 378.192C28.2883 378.192 27.6173 378.775 27.1553 379.457V378.313H26.3083V385.76ZM29.1793 383.362C28.1233 383.362 27.1223 382.482 27.1223 381.162C27.1223 379.842 28.1233 378.951 29.1793 378.951C30.2573 378.951 31.1813 379.809 31.1813 381.151C31.1813 382.548 30.2793 383.362 29.1793 383.362ZM33.613 384H34.46V381.734C34.46 380.018 35.472 379.127 36.715 379.127H36.781V378.214C35.703 378.17 34.878 378.852 34.46 379.798V378.313H33.613V384ZM38.3299 381.503H42.8399C42.8509 381.371 42.8509 381.283 42.8509 381.206C42.8509 379.534 41.8829 378.192 40.1999 378.192C38.6269 378.192 37.4719 379.512 37.4719 381.162C37.4719 382.933 38.7479 384.132 40.3099 384.132C41.3879 384.132 42.0809 383.703 42.6529 383.065L42.1249 382.592C41.6629 383.076 41.1129 383.395 40.3319 383.395C39.3309 383.395 38.4509 382.702 38.3299 381.503ZM38.3299 380.821C38.4509 379.721 39.1989 378.907 40.1779 378.907C41.2999 378.907 41.8939 379.787 41.9929 380.821H38.3299ZM46.2147 384.11C47.3477 384.11 48.2387 383.483 48.2387 382.405C48.2387 381.36 47.2927 381.019 46.4127 380.755C45.6537 380.524 44.9497 380.315 44.9497 379.776C44.9497 379.281 45.3787 378.929 46.0497 378.929C46.5997 378.929 47.2047 379.138 47.7327 379.479L48.1177 378.841C47.5347 378.456 46.7647 378.214 46.0717 378.214C44.9497 378.214 44.1357 378.863 44.1357 379.842C44.1357 380.909 45.1257 381.217 46.0167 381.47C46.7647 381.679 47.4357 381.899 47.4357 382.471C47.4357 383.043 46.9407 383.395 46.2587 383.395C45.5877 383.395 44.9057 383.131 44.2897 382.669L43.8607 383.274C44.4987 383.791 45.4007 384.11 46.2147 384.11ZM51.5858 384.11C52.7188 384.11 53.6098 383.483 53.6098 382.405C53.6098 381.36 52.6638 381.019 51.7838 380.755C51.0248 380.524 50.3208 380.315 50.3208 379.776C50.3208 379.281 50.7498 378.929 51.4208 378.929C51.9708 378.929 52.5758 379.138 53.1038 379.479L53.4888 378.841C52.9058 378.456 52.1358 378.214 51.4428 378.214C50.3208 378.214 49.5068 378.863 49.5068 379.842C49.5068 380.909 50.4968 381.217 51.3878 381.47C52.1358 381.679 52.8068 381.899 52.8068 382.471C52.8068 383.043 52.3118 383.395 51.6298 383.395C50.9588 383.395 50.2768 383.131 49.6608 382.669L49.2318 383.274C49.8698 383.791 50.7718 384.11 51.5858 384.11Z" fill="#231F20"/>
</svg>
