<svg width="131" height="35" viewBox="0 0 131 35" fill="none" xmlns="http://www.w3.org/2000/svg">
<path d="M83.6 0H51.4C50.6256 0 50 0.625625 50 1.4V33.6C50 34.3744 50.6256 35 51.4 35H83.6C84.3744 35 85 34.3744 85 33.6V1.4C85 0.625625 84.3744 0 83.6 0ZM79.5575 10.2156H76.7619C74.57 10.2156 74.1456 11.2569 74.1456 12.7881V16.1612H79.3781L78.6956 21.4419H74.1456V35H68.69V21.4463H64.1269V16.1612H68.69V12.2675C68.69 7.74812 71.4506 5.285 75.4844 5.285C77.4181 5.285 79.0763 5.42938 79.5619 5.495V10.2156H79.5575Z" fill="black"/>
<path d="M27.5 10C28.3284 10 29 9.32843 29 8.5C29 7.67157 28.3284 7 27.5 7C26.6716 7 26 7.67157 26 8.5C26 9.32843 26.6716 10 27.5 10Z" fill="black"/>
<path d="M18 8C16.0222 8 14.0888 8.55716 12.4443 9.60104C10.7998 10.6449 9.51809 12.1286 8.76121 13.8645C8.00433 15.6004 7.8063 17.5105 8.19215 19.3534C8.578 21.1962 9.53041 22.8889 10.9289 24.2175C12.3275 25.5461 14.1093 26.4509 16.0491 26.8175C17.9889 27.184 19.9996 26.9959 21.8268 26.2769C23.6541 25.5578 25.2159 24.3402 26.3147 22.7779C27.4135 21.2156 28 19.3789 28 17.5C28 14.9804 26.9464 12.5641 25.0711 10.7825C23.1957 9.00089 20.6522 8 18 8ZM18 23.6668C16.7161 23.6668 15.4611 23.3051 14.3936 22.6275C13.3261 21.9499 12.4941 20.9868 12.0027 19.8599C11.5114 18.7331 11.3829 17.4932 11.6333 16.2969C11.8838 15.1007 12.5021 14.0018 13.4099 13.1394C14.3177 12.2769 15.4744 11.6896 16.7336 11.4517C17.9928 11.2137 19.298 11.3358 20.4842 11.8026C21.6703 12.2693 22.6841 13.0598 23.3974 14.0739C24.1107 15.088 24.4914 16.2803 24.4914 17.5C24.4914 19.1355 23.8075 20.7041 22.5901 21.8606C21.3727 23.0171 19.7216 23.6668 18 23.6668Z" fill="black"/>
<path d="M18 3.15292C22.806 3.15292 23.376 3.17042 25.2735 3.255C26.4148 3.26817 27.5452 3.4719 28.6155 3.85729C29.392 4.14851 30.0972 4.59455 30.6857 5.1667C31.2742 5.73885 31.733 6.42445 32.0325 7.17938C32.4289 8.21994 32.6385 9.31898 32.652 10.4285C32.739 12.2733 32.757 12.8275 32.757 17.5015C32.757 22.1754 32.739 22.7267 32.652 24.5715C32.6385 25.681 32.4289 26.7801 32.0325 27.8206C31.733 28.5756 31.2742 29.2611 30.6857 29.8333C30.0972 30.4055 29.392 30.8515 28.6155 31.1427C27.5452 31.5281 26.4148 31.7318 25.2735 31.745C23.376 31.8296 22.806 31.8471 18 31.8471C13.194 31.8471 12.624 31.8296 10.7265 31.745C9.58524 31.7318 8.45479 31.5281 7.3845 31.1427C6.60801 30.8515 5.90282 30.4055 5.31432 29.8333C4.72582 29.2611 4.26704 28.5756 3.9675 27.8206C3.5711 26.7801 3.36155 25.681 3.348 24.5715C3.261 22.7267 3.243 22.1725 3.243 17.5C3.243 12.8275 3.261 12.2733 3.348 10.4285C3.36155 9.31898 3.5711 8.21994 3.9675 7.17938C4.26704 6.42445 4.72582 5.73885 5.31432 5.1667C5.90282 4.59455 6.60801 4.14851 7.3845 3.85729C8.45479 3.4719 9.58524 3.26817 10.7265 3.255C12.624 3.17042 13.194 3.15292 18 3.15292ZM18 0C13.1115 0 12.498 0.0204167 10.578 0.105C9.08516 0.134307 7.60824 0.409455 6.21 0.91875C5.01409 1.36835 3.92799 2.05593 3.02133 2.9374C2.11467 3.81888 1.40745 4.87481 0.945 6.0375C0.420988 7.39736 0.137975 8.83376 0.108 10.2856C0.021 12.1523 0 12.7458 0 17.5C0 22.2542 0.021 22.8492 0.108 24.7158C0.138144 26.1672 0.421154 27.6031 0.945 28.9625C1.40745 30.1252 2.11467 31.1811 3.02133 32.0626C3.92799 32.9441 5.01409 33.6317 6.21 34.0813C7.60871 34.5907 9.08616 34.8659 10.5795 34.895C12.4995 34.9796 13.1115 35 18 35C22.8885 35 23.502 34.9796 25.422 34.895C26.9153 34.8659 28.3928 34.5907 29.7915 34.0813C30.9874 33.6317 32.0735 32.9441 32.9802 32.0626C33.8868 31.1811 34.5941 30.1252 35.0565 28.9625C35.58 27.6026 35.8625 26.1662 35.892 24.7144C35.979 22.8477 36 22.2542 36 17.5C36 12.7458 35.979 12.1508 35.892 10.2842C35.8619 8.8328 35.5788 7.3969 35.055 6.0375C34.5926 4.87481 33.8853 3.81888 32.9787 2.9374C32.072 2.05593 30.9859 1.36835 29.79 0.91875C28.3912 0.409791 26.9138 0.135134 25.4205 0.106458C23.5005 0.0189583 22.89 0 18 0Z" fill="black"/>
<path d="M119.911 2H110.089C101.125 2 99 4.19134 99 13.4352V23.5648C99 32.8087 101.125 35 110.089 35H119.911C128.875 35 131 32.8087 131 23.5648V13.4352C131 4.19134 128.854 2 119.911 2ZM124.833 25.5406H122.51C121.63 25.5406 121.359 24.8208 119.776 23.1668C118.401 21.7922 117.792 21.6096 117.453 21.6096C116.974 21.6096 116.838 21.7489 116.838 22.4264V24.5909C116.838 25.1715 116.661 25.52 115.171 25.52C112.708 25.52 109.974 23.9835 108.057 21.1208C105.166 16.9258 104.375 13.7837 104.375 13.1341C104.375 12.7845 104.51 12.4576 105.161 12.4576H107.489C108.078 12.4576 108.302 12.737 108.531 13.3867C109.682 16.8134 111.599 19.8153 112.39 19.8153C112.682 19.8153 112.817 19.6761 112.817 18.9078V15.3687C112.728 13.7363 111.895 13.596 111.895 13.0165C111.895 12.737 112.119 12.4576 112.478 12.4576H116.138C116.633 12.4576 116.815 12.737 116.815 13.3382V18.1128C116.815 18.6284 117.039 18.8109 117.174 18.8109C117.466 18.8109 117.716 18.6284 118.257 18.0695C119.929 16.1359 121.127 13.1547 121.127 13.1547C121.283 12.8051 121.554 12.4782 122.143 12.4782H124.471C125.169 12.4782 125.325 12.8484 125.169 13.364C124.877 14.7603 122.028 18.9068 122.028 18.9068C121.783 19.3255 121.689 19.508 122.028 19.9752C122.278 20.3247 123.091 21.0497 123.632 21.6994C124.627 22.8646 125.392 23.8422 125.596 24.5187C125.825 25.19 125.487 25.5396 124.83 25.5396L124.833 25.5406Z" fill="black"/>
</svg>
