<svg width="36" height="33" viewBox="0 0 36 33" fill="none" xmlns="http://www.w3.org/2000/svg">
<path d="M17.7809 5.47209L18.4144 6.4745L19.0486 5.47263C21.9266 0.926756 25.9552 0.0189047 29.2207 1.30405C32.5406 2.61062 35.25 6.25132 35.25 11.1822C35.25 12.9252 34.3498 15.0196 32.8435 17.2749C31.3516 19.5088 29.3333 21.8012 27.2462 23.9197C25.1623 26.035 23.0276 27.9592 21.3135 29.4586C20.6977 29.9972 20.1387 30.4788 19.6545 30.8961C19.464 31.0602 19.285 31.2144 19.1188 31.3581C18.8532 31.5877 18.6135 31.7962 18.4106 31.977C18.1982 31.7929 17.9464 31.5813 17.6681 31.3493C17.4281 31.1494 17.1646 30.9313 16.879 30.6949C16.4311 30.3242 15.929 29.9086 15.3788 29.448C13.5866 27.9478 11.3479 26.0229 9.15972 23.9069C6.96821 21.7875 4.84653 19.4946 3.2777 17.2605C1.69231 15.0028 0.75 12.9138 0.75 11.1822C0.75 6.24019 3.64237 2.58863 7.18383 1.2798C10.6849 -0.0140869 14.9199 0.944473 17.7809 5.47209Z" fill="#D597C3" stroke="black" stroke-width="1.5"/>
</svg>
