<svg width="1208" height="122" viewBox="0 0 1208 122" fill="none" xmlns="http://www.w3.org/2000/svg">
<path d="M66.2095 2.28919V13.3311H12.6241V43.3598H62.7177V53.9978H12.6241V87.1236H66.881V98.1656H0V2.28919H66.2095Z" fill="black"/>
<path d="M202.567 98.1656H81.295V2.28919H93.9192V87.1236H136.358V2.28919H148.982V87.1236H191.42V2.28919H204.044V87.1236H214.923V122H202.567V98.1656Z" fill="black"/>
<path d="M293.757 2.28919V13.3311H240.172V43.3598H290.266V53.9978H240.172V87.1236H294.429V98.1656H227.548V2.28919H293.757Z" fill="black"/>
<path d="M422.772 2.28919V98.1656H410.147V53.3245H359.651V98.1656H347.027V2.28919H359.651V42.2826H410.147V2.28919H422.772Z" fill="black"/>
<path d="M464.577 101.093C460.295 101.093 456.597 100.361 453.483 98.8974C450.466 97.5313 447.985 95.5797 446.038 93.0427C444.092 90.5057 442.632 87.5295 441.659 84.1143C440.686 80.6991 440.199 76.9423 440.199 72.844C440.199 67.8676 440.929 62.5983 442.389 57.0364C443.946 51.4744 446.087 46.01 448.812 40.6432C451.537 35.2765 454.797 30.1536 458.592 25.2747C462.388 20.2982 466.524 15.956 471 12.248C475.574 8.54004 480.44 5.6127 485.598 3.46598C490.756 1.22168 496.06 0.0995316 501.51 0.0995316C505.694 0.0995316 509.344 0.831367 512.458 2.29504C515.572 3.66113 518.102 5.6127 520.049 8.14973C521.995 10.6868 523.455 13.6629 524.428 17.0781C525.401 20.4934 525.888 24.2501 525.888 28.3484C525.888 33.3249 525.109 38.5941 523.552 44.1561C522.092 49.718 520 55.1824 517.275 60.5492C514.55 65.916 511.29 71.0876 507.495 76.0641C503.699 80.943 499.515 85.2365 494.941 88.9444C490.464 92.6524 485.647 95.6285 480.489 97.8728C475.331 100.02 470.027 101.093 464.577 101.093ZM470.416 96.4092C474.796 96.4092 478.883 95.0919 482.678 92.4572C486.474 89.7251 489.88 86.2122 492.897 81.9188C496.011 77.6254 498.736 72.844 501.072 67.5748C503.505 62.208 505.548 56.89 507.203 51.6208C508.857 46.254 510.074 41.2287 510.852 36.545C511.728 31.7636 512.166 27.8605 512.166 24.8356C512.166 22.0058 511.874 19.3224 511.29 16.7854C510.803 14.2484 509.928 12.0529 508.662 10.1989C507.397 8.2473 505.646 6.73484 503.407 5.66148C501.266 4.49054 498.541 3.90507 495.233 3.90507C490.951 3.90507 486.912 5.27117 483.116 8.00336C479.418 10.638 476.012 14.102 472.898 18.3954C469.881 22.6889 467.156 27.519 464.723 32.8858C462.388 38.155 460.393 43.473 458.738 48.8398C457.181 54.109 455.965 59.1343 455.089 63.9156C454.31 68.5994 453.921 72.4537 453.921 75.4787C453.921 78.3084 454.164 80.9918 454.651 83.5288C455.235 86.0659 456.111 88.3102 457.278 90.2617C458.544 92.1157 460.247 93.6282 462.388 94.7991C464.529 95.8725 467.205 96.4092 470.416 96.4092Z" fill="black"/>
<path d="M538.605 2.28919H579.432C588.206 2.28919 595.458 4.21928 601.188 8.07947C607.008 11.9397 609.918 17.9993 609.918 26.2583C609.918 31.0162 608.62 35.2804 606.023 39.0508C603.516 42.7314 600.114 45.3348 595.816 46.8609C601.726 48.2075 606.247 50.9904 609.381 55.2097C612.604 59.429 614.215 64.7255 614.215 71.0993C614.215 89.1435 602.128 98.1656 577.955 98.1656H538.605V2.28919ZM550.96 13.0618V43.3598H573.657C576.253 43.3598 578.447 43.3149 580.238 43.2252C582.118 43.0456 584.222 42.6865 586.55 42.1479C588.878 41.6093 590.713 40.8462 592.056 39.8587C593.488 38.7815 594.697 37.2553 595.682 35.2804C596.756 33.3054 597.294 30.9264 597.294 28.1435C597.294 25.3606 596.846 23.0265 595.951 21.1413C595.055 19.1663 593.981 17.6851 592.727 16.6976C591.474 15.6203 589.728 14.8124 587.49 14.2737C585.341 13.7351 583.371 13.4209 581.581 13.3311C579.88 13.1516 577.641 13.0618 574.866 13.0618H550.96ZM550.96 53.3245V87.5276H576.209C579.342 87.5276 581.894 87.4827 583.864 87.3929C585.833 87.2134 588.027 86.8094 590.444 86.181C592.951 85.5526 594.921 84.6549 596.354 83.4879C597.786 82.231 598.995 80.4805 599.98 78.2362C600.964 75.9021 601.457 73.1192 601.457 69.8874C601.457 67.1943 601.099 64.8602 600.383 62.8852C599.756 60.9102 598.637 59.3392 597.025 58.1722C595.503 57.0051 594.026 56.0625 592.593 55.3444C591.25 54.6262 589.28 54.1325 586.684 53.8631C584.088 53.5938 582.073 53.4592 580.641 53.4592C579.208 53.3694 577.014 53.3245 574.06 53.3245H550.96Z" fill="black"/>
<path d="M670.832 0C685.336 0 696.617 4.57837 704.675 13.7351C712.733 22.8021 716.762 34.6968 716.762 49.4194C716.762 64.2318 712.778 76.4408 704.81 86.0464C696.841 95.6519 685.56 100.455 670.966 100.455C663.535 100.455 656.865 99.1082 650.956 96.415C645.046 93.7219 640.212 89.9963 636.451 85.2384C632.78 80.4805 629.96 75.0493 627.99 68.9448C626.11 62.8403 625.17 56.2421 625.17 49.1501C625.17 34.1582 629.289 22.2185 637.526 13.3311C645.852 4.44371 656.954 0 670.832 0ZM670.832 11.0419C660.177 11.0419 651.985 14.8124 646.255 22.3532C640.615 29.8043 637.794 39.0508 637.794 50.0927C637.794 62.1222 640.794 71.7277 646.792 78.9095C652.88 86.0015 660.983 89.5475 671.1 89.5475C681.128 89.5475 689.141 85.9566 695.14 78.7748C701.139 71.5931 704.138 62.0324 704.138 50.0927C704.138 38.2428 701.094 28.7719 695.006 21.6799C689.007 14.5879 680.949 11.0419 670.832 11.0419Z" fill="black"/>
<path d="M813.56 61.9426C812.486 74.0618 808.278 83.5327 800.936 90.3554C793.684 97.0883 784.104 100.455 772.196 100.455C758.587 100.455 747.799 95.9661 739.83 86.989C731.862 77.922 727.878 65.713 727.878 50.362C727.878 35.9985 731.862 24.0589 739.83 14.543C747.888 4.93745 758.99 0.134656 773.136 0.134656C783.253 0.134656 792.162 2.8727 799.862 8.34878C807.562 13.8249 811.859 21.4106 812.755 31.106H800.13C798.698 24.8219 795.564 19.9294 790.729 16.4283C785.895 12.8374 779.941 11.0419 772.868 11.0419C762.213 11.0419 754.155 14.8124 748.694 22.3532C743.322 29.894 740.636 39.1854 740.636 50.2274C740.636 62.4364 743.501 72.0419 749.231 79.0442C754.961 86.0464 762.795 89.5475 772.733 89.5475C780.881 89.5475 787.372 87.2134 792.207 82.5452C797.042 77.7873 799.951 70.9198 800.936 61.9426H813.56Z" fill="black"/>
<path d="M893.482 2.28919V13.3311H861.384V98.1656H848.76V13.3311H816.663V2.28919H893.482Z" fill="black"/>
<path d="M904.255 98.1656V2.28919H916.879V83.4879H917.148L964.018 2.28919H980V98.1656H967.376V16.6976H967.107L920.103 98.1656H904.255Z" fill="black"/>
<path d="M1206.77 51.7678C1207.74 50.7915 1207.74 49.2085 1206.77 48.2322L1190.86 32.3223C1189.88 31.346 1188.3 31.346 1187.32 32.3223C1186.35 33.2986 1186.35 34.8816 1187.32 35.8579L1201.46 50L1187.32 64.1421C1186.35 65.1184 1186.35 66.7014 1187.32 67.6777C1188.3 68.654 1189.88 68.654 1190.86 67.6777L1206.77 51.7678ZM1096 52.5L1205 52.5V47.5L1096 47.5V52.5Z" fill="black"/>
</svg>
