<svg width="423" height="83" viewBox="0 0 423 83" fill="none" xmlns="http://www.w3.org/2000/svg">
<path d="M0.503981 0H4.14384L10.5556 17.2841L16.7434 0H20.4112V20.4084H17.9193V3.38229L11.6756 20.4084H9.37965L3.02389 3.38229V20.4084H0.503981V0Z" fill="black"/>
<path d="M37.2412 18.4593V20.3511C36.7559 20.5422 36.2146 20.6377 35.6173 20.6377C34.2547 20.6377 33.5547 19.9116 33.5174 18.4593C32.1548 20.0262 30.4095 20.8097 28.2816 20.8097C26.863 20.8097 25.7337 20.4371 24.8937 19.6918C24.0724 18.9466 23.6617 17.9243 23.6617 16.6248C23.6617 13.9878 25.3697 12.4495 28.7855 12.01C29.0095 11.9718 29.3362 11.9336 29.7655 11.8954C31.3894 11.7043 32.3881 11.4845 32.7614 11.2361C33.1907 10.9304 33.4054 10.4049 33.4054 9.65961C33.4054 8.03534 32.3134 7.22321 30.1295 7.22321C29.0095 7.22321 28.1602 7.46207 27.5816 7.93979C27.0029 8.39841 26.6576 9.16277 26.5456 10.2329H24.2217C24.259 8.64683 24.8097 7.4143 25.8737 6.53528C26.9376 5.65627 28.4029 5.21676 30.2695 5.21676C32.3041 5.21676 33.816 5.69449 34.8053 6.64994C35.1226 6.95568 35.356 7.35697 35.5053 7.8538C35.6546 8.35064 35.7386 8.76148 35.7573 9.08634C35.776 9.39208 35.7853 9.86025 35.7853 10.4908C35.7853 11.217 35.7666 12.3158 35.7293 13.7872C35.692 15.2585 35.6733 16.3573 35.6733 17.0835C35.6733 17.6185 35.7386 18.0007 35.8693 18.23C36.0186 18.4402 36.2799 18.5453 36.6532 18.5453C36.8026 18.5453 36.9986 18.5166 37.2412 18.4593ZM33.4054 12.7266C33.2374 12.8604 33.0601 12.975 32.8734 13.0706C32.6867 13.1661 32.4441 13.2425 32.1454 13.2999C31.8654 13.3572 31.6694 13.405 31.5574 13.4432C31.4641 13.4623 31.2215 13.5005 30.8295 13.5578C30.4375 13.5961 30.2322 13.6152 30.2135 13.6152C29.6348 13.6916 29.2522 13.7489 29.0655 13.7872C28.8975 13.8063 28.5616 13.8827 28.0576 14.0165C27.5723 14.1502 27.2269 14.3031 27.0216 14.4751C26.8163 14.6471 26.611 14.905 26.4056 15.249C26.219 15.5738 26.1256 15.9656 26.1256 16.4242C26.1256 17.1886 26.3776 17.7905 26.8816 18.23C27.4043 18.6695 28.1136 18.8893 29.0095 18.8893C30.1482 18.8893 31.1655 18.5453 32.0614 17.8574C32.9574 17.1694 33.4054 16.3573 33.4054 15.421V12.7266Z" fill="black"/>
<path d="M50.5438 7.76781H45.364V20.4084H42.9841V7.76781H37.8043V5.61805H50.5438V7.76781Z" fill="black"/>
<path d="M63.3083 12.4973C64.1669 13.2999 64.5962 14.3986 64.5962 15.7936C64.5962 17.1886 64.1762 18.3064 63.3362 19.1472C62.5149 19.988 61.4043 20.4084 60.0044 20.4084H52.3607V5.61805H54.7406V11.2648H59.8924C61.311 11.2648 62.4496 11.6756 63.3083 12.4973ZM59.1364 13.3572H54.7406V18.2587H59.1364C60.107 18.2587 60.8443 18.0485 61.3483 17.6281C61.871 17.1886 62.1323 16.5771 62.1323 15.7936C62.1323 14.1693 61.1337 13.3572 59.1364 13.3572Z" fill="black"/>
<path d="M77.1362 20.4084H74.7563V5.61805H77.1362V11.4941H84.36V5.61805H86.7399V20.4084H84.36V13.6438H77.1362V20.4084Z" fill="black"/>
<path d="M103.11 18.4593V20.3511C102.625 20.5422 102.083 20.6377 101.486 20.6377C100.123 20.6377 99.4233 19.9116 99.386 18.4593C98.0234 20.0262 96.2781 20.8097 94.1502 20.8097C92.7316 20.8097 91.6023 20.4371 90.7623 19.6918C89.941 18.9466 89.5304 17.9243 89.5304 16.6248C89.5304 13.9878 91.2383 12.4495 94.6542 12.01C94.8782 11.9718 95.2048 11.9336 95.6341 11.8954C97.2581 11.7043 98.2567 11.4845 98.63 11.2361C99.0593 10.9304 99.274 10.4049 99.274 9.65961C99.274 8.03534 98.182 7.22321 95.9981 7.22321C94.8782 7.22321 94.0289 7.46207 93.4502 7.93979C92.8716 8.39841 92.5262 9.16277 92.4143 10.2329H90.0903C90.1277 8.64683 90.6783 7.4143 91.7423 6.53528C92.8062 5.65627 94.2715 5.21676 96.1381 5.21676C98.1727 5.21676 99.6846 5.69449 100.674 6.64994C100.991 6.95568 101.225 7.35697 101.374 7.8538C101.523 8.35064 101.607 8.76148 101.626 9.08634C101.645 9.39208 101.654 9.86025 101.654 10.4908C101.654 11.217 101.635 12.3158 101.598 13.7872C101.561 15.2585 101.542 16.3573 101.542 17.0835C101.542 17.6185 101.607 18.0007 101.738 18.23C101.887 18.4402 102.149 18.5453 102.522 18.5453C102.671 18.5453 102.867 18.5166 103.11 18.4593ZM99.274 12.7266C99.106 12.8604 98.9287 12.975 98.742 13.0706C98.5554 13.1661 98.3127 13.2425 98.014 13.2999C97.7341 13.3572 97.5381 13.405 97.4261 13.4432C97.3327 13.4623 97.0901 13.5005 96.6981 13.5578C96.3061 13.5961 96.1008 13.6152 96.0821 13.6152C95.5035 13.6916 95.1208 13.7489 94.9342 13.7872C94.7662 13.8063 94.4302 13.8827 93.9262 14.0165C93.4409 14.1502 93.0956 14.3031 92.8902 14.4751C92.6849 14.6471 92.4796 14.905 92.2743 15.249C92.0876 15.5738 91.9943 15.9656 91.9943 16.4242C91.9943 17.1886 92.2463 17.7905 92.7502 18.23C93.2729 18.6695 93.9822 18.8893 94.8782 18.8893C96.0168 18.8893 97.0341 18.5453 97.93 17.8574C98.826 17.1694 99.274 16.3573 99.274 15.421V12.7266Z" fill="black"/>
<path d="M107.593 5.61805V7.71049C108.638 6.00978 110.262 5.15943 112.465 5.15943C114.48 5.15943 116.076 5.85691 117.252 7.25187C118.447 8.64683 119.044 10.5386 119.044 12.9272C119.044 15.3159 118.456 17.2268 117.28 18.66C116.123 20.074 114.555 20.7811 112.577 20.7811C110.505 20.7811 108.89 19.9689 107.733 18.3447V26.1125H105.353V5.61805H107.593ZM112.101 7.19454C110.719 7.19454 109.627 7.71049 108.825 8.74237C108.041 9.75515 107.649 11.1597 107.649 12.9559C107.649 14.7522 108.05 16.1662 108.853 17.1981C109.674 18.2109 110.785 18.7173 112.185 18.7173C113.547 18.7173 114.62 18.2013 115.404 17.1694C116.188 16.1376 116.58 14.733 116.58 12.9559C116.58 11.1597 116.179 9.75515 115.376 8.74237C114.592 7.71049 113.501 7.19454 112.101 7.19454Z" fill="black"/>
<path d="M134.745 18.4593V20.3511C134.26 20.5422 133.719 20.6377 133.121 20.6377C131.759 20.6377 131.059 19.9116 131.022 18.4593C129.659 20.0262 127.914 20.8097 125.786 20.8097C124.367 20.8097 123.238 20.4371 122.398 19.6918C121.577 18.9466 121.166 17.9243 121.166 16.6248C121.166 13.9878 122.874 12.4495 126.29 12.01C126.514 11.9718 126.84 11.9336 127.27 11.8954C128.894 11.7043 129.892 11.4845 130.266 11.2361C130.695 10.9304 130.91 10.4049 130.91 9.65961C130.91 8.03534 129.818 7.22321 127.634 7.22321C126.514 7.22321 125.664 7.46207 125.086 7.93979C124.507 8.39841 124.162 9.16277 124.05 10.2329H121.726C121.763 8.64683 122.314 7.4143 123.378 6.53528C124.442 5.65627 125.907 5.21676 127.774 5.21676C129.808 5.21676 131.32 5.69449 132.309 6.64994C132.627 6.95568 132.86 7.35697 133.009 7.8538C133.159 8.35064 133.243 8.76148 133.261 9.08634C133.28 9.39208 133.289 9.86025 133.289 10.4908C133.289 11.217 133.271 12.3158 133.233 13.7872C133.196 15.2585 133.177 16.3573 133.177 17.0835C133.177 17.6185 133.243 18.0007 133.373 18.23C133.523 18.4402 133.784 18.5453 134.157 18.5453C134.307 18.5453 134.503 18.5166 134.745 18.4593ZM130.91 12.7266C130.742 12.8604 130.564 12.975 130.378 13.0706C130.191 13.1661 129.948 13.2425 129.65 13.2999C129.37 13.3572 129.174 13.405 129.062 13.4432C128.968 13.4623 128.726 13.5005 128.334 13.5578C127.942 13.5961 127.736 13.6152 127.718 13.6152C127.139 13.6916 126.756 13.7489 126.57 13.7872C126.402 13.8063 126.066 13.8827 125.562 14.0165C125.076 14.1502 124.731 14.3031 124.526 14.4751C124.32 14.6471 124.115 14.905 123.91 15.249C123.723 15.5738 123.63 15.9656 123.63 16.4242C123.63 17.1886 123.882 17.7905 124.386 18.23C124.908 18.6695 125.618 18.8893 126.514 18.8893C127.652 18.8893 128.67 18.5453 129.566 17.8574C130.462 17.1694 130.91 16.3573 130.91 15.421V12.7266Z" fill="black"/>
<path d="M149.42 15.0197C149.215 16.7968 148.552 18.2109 147.432 19.2619C146.331 20.3129 144.893 20.8384 143.12 20.8384C140.936 20.8384 139.247 20.1505 138.052 18.7746C136.858 17.3796 136.26 15.5261 136.26 13.2139C136.26 10.7488 136.886 8.7997 138.136 7.36652C139.387 5.91424 141.076 5.1881 143.204 5.1881C144.977 5.1881 146.396 5.64671 147.46 6.56395C148.524 7.46207 149.149 8.75193 149.336 10.4335H146.872C146.443 8.29331 145.229 7.22321 143.232 7.22321C141.851 7.22321 140.759 7.7487 139.956 8.7997C139.154 9.83159 138.752 11.2361 138.752 13.0132C138.752 14.8095 139.135 16.2236 139.9 17.2554C140.666 18.2873 141.72 18.8033 143.064 18.8033C144.147 18.8033 145.024 18.4784 145.696 17.8287C146.387 17.179 146.825 16.2427 147.012 15.0197H149.42Z" fill="black"/>
<path d="M163.086 7.76781H157.907V20.4084H155.527V7.76781H150.347V5.61805H163.086V7.76781Z" fill="black"/>
<path d="M168.039 20.4084H164.987V5.61805H167.367V17.6854H167.423L173.919 5.61805H176.971V20.4084H174.591V8.34108H174.535L168.039 20.4084Z" fill="black"/>
<path d="M192.585 5.61805V20.4084H190.205V7.76781H185.053L184.857 14.3031C184.801 16.558 184.4 18.1918 183.653 19.2046C182.907 20.2173 181.973 20.7237 180.853 20.7237C180.163 20.7237 179.593 20.6186 179.145 20.4084V18.4306C179.388 18.5644 179.808 18.6313 180.405 18.6313C180.965 18.6313 181.441 18.3255 181.833 17.7141C182.244 17.0835 182.468 16.0325 182.505 14.5611L182.757 5.61805H192.585Z" fill="black"/>
<path d="M208.899 18.4593V20.3511C208.414 20.5422 207.872 20.6377 207.275 20.6377C205.912 20.6377 205.212 19.9116 205.175 18.4593C203.812 20.0262 202.067 20.8097 199.939 20.8097C198.521 20.8097 197.391 20.4371 196.551 19.6918C195.73 18.9466 195.319 17.9243 195.319 16.6248C195.319 13.9878 197.027 12.4495 200.443 12.01C200.667 11.9718 200.994 11.9336 201.423 11.8954C203.047 11.7043 204.046 11.4845 204.419 11.2361C204.848 10.9304 205.063 10.4049 205.063 9.65961C205.063 8.03534 203.971 7.22321 201.787 7.22321C200.667 7.22321 199.818 7.46207 199.239 7.93979C198.661 8.39841 198.315 9.16277 198.203 10.2329H195.879C195.917 8.64683 196.467 7.4143 197.531 6.53528C198.595 5.65627 200.061 5.21676 201.927 5.21676C203.962 5.21676 205.474 5.69449 206.463 6.64994C206.78 6.95568 207.014 7.35697 207.163 7.8538C207.312 8.35064 207.396 8.76148 207.415 9.08634C207.434 9.39208 207.443 9.86025 207.443 10.4908C207.443 11.217 207.424 12.3158 207.387 13.7872C207.35 15.2585 207.331 16.3573 207.331 17.0835C207.331 17.6185 207.396 18.0007 207.527 18.23C207.676 18.4402 207.938 18.5453 208.311 18.5453C208.46 18.5453 208.656 18.5166 208.899 18.4593ZM205.063 12.7266C204.895 12.8604 204.718 12.975 204.531 13.0706C204.344 13.1661 204.102 13.2425 203.803 13.2999C203.523 13.3572 203.327 13.405 203.215 13.4432C203.122 13.4623 202.879 13.5005 202.487 13.5578C202.095 13.5961 201.89 13.6152 201.871 13.6152C201.292 13.6916 200.91 13.7489 200.723 13.7872C200.555 13.8063 200.219 13.8827 199.715 14.0165C199.23 14.1502 198.885 14.3031 198.679 14.4751C198.474 14.6471 198.269 14.905 198.063 15.249C197.877 15.5738 197.783 15.9656 197.783 16.4242C197.783 17.1886 198.035 17.7905 198.539 18.23C199.062 18.6695 199.771 18.8893 200.667 18.8893C201.806 18.8893 202.823 18.5453 203.719 17.8574C204.615 17.1694 205.063 16.3573 205.063 15.421V12.7266Z" fill="black"/>
<path d="M221.314 20.4084H218.935V5.61805H221.314V11.4941H228.538V5.61805H230.918V20.4084H228.538V13.6438H221.314V20.4084Z" fill="black"/>
<path d="M235.64 7.3092C236.91 5.89513 238.636 5.1881 240.82 5.1881C243.004 5.1881 244.703 5.86647 245.916 7.22321C247.129 8.57995 247.736 10.4813 247.736 12.9272C247.736 15.4305 247.129 17.3796 245.916 18.7746C244.703 20.1696 242.995 20.867 240.792 20.867C238.59 20.867 236.863 20.1791 235.612 18.8033C234.362 17.4274 233.737 15.5165 233.737 13.0706C233.737 10.6437 234.371 8.72326 235.64 7.3092ZM244.068 8.7997C243.266 7.7487 242.164 7.22321 240.764 7.22321C239.364 7.22321 238.254 7.7487 237.432 8.7997C236.611 9.8507 236.2 11.2552 236.2 13.0132C236.2 14.8286 236.602 16.2522 237.404 17.2841C238.226 18.2969 239.364 18.8033 240.82 18.8033C242.22 18.8033 243.312 18.2873 244.096 17.2554C244.899 16.2236 245.3 14.7999 245.3 12.9846C245.3 11.2265 244.889 9.83159 244.068 8.7997Z" fill="black"/>
<path d="M260.538 7.76781H253.006V20.4084H250.626V5.61805H260.538V7.76781Z" fill="black"/>
<path d="M273.387 7.76781H268.207V20.4084H265.827V7.76781H260.647V5.61805H273.387V7.76781Z" fill="black"/>
<path d="M278.34 20.4084H275.288V5.61805H277.668V17.6854H277.724L284.22 5.61805H287.271V20.4084H284.891V8.34108H284.835L278.34 20.4084Z" fill="black"/>
<path d="M314.29 20.4084H311.91V8.74237H311.826L307.542 20.4084H305.358L301.074 8.74237H300.99V20.4084H298.611V5.61805H302.026L306.422 17.5994H306.478L310.874 5.61805H314.29V20.4084Z" fill="black"/>
<path d="M329.845 5.61805V20.4084H327.465V7.76781H322.314L322.118 14.3031C322.062 16.558 321.66 18.1918 320.914 19.2046C320.167 20.2173 319.234 20.7237 318.114 20.7237C317.423 20.7237 316.854 20.6186 316.406 20.4084V18.4306C316.648 18.5644 317.068 18.6313 317.666 18.6313C318.226 18.6313 318.702 18.3255 319.094 17.7141C319.504 17.0835 319.728 16.0325 319.766 14.5611L320.018 5.61805H329.845Z" fill="black"/>
<path d="M346.159 18.4593V20.3511C345.674 20.5422 345.133 20.6377 344.535 20.6377C343.173 20.6377 342.473 19.9116 342.435 18.4593C341.073 20.0262 339.328 20.8097 337.2 20.8097C335.781 20.8097 334.652 20.4371 333.812 19.6918C332.99 18.9466 332.58 17.9243 332.58 16.6248C332.58 13.9878 334.288 12.4495 337.704 12.01C337.928 11.9718 338.254 11.9336 338.684 11.8954C340.308 11.7043 341.306 11.4845 341.679 11.2361C342.109 10.9304 342.323 10.4049 342.323 9.65961C342.323 8.03534 341.232 7.22321 339.048 7.22321C337.928 7.22321 337.078 7.46207 336.5 7.93979C335.921 8.39841 335.576 9.16277 335.464 10.2329H333.14C333.177 8.64683 333.728 7.4143 334.792 6.53528C335.856 5.65627 337.321 5.21676 339.188 5.21676C341.222 5.21676 342.734 5.69449 343.723 6.64994C344.041 6.95568 344.274 7.35697 344.423 7.8538C344.573 8.35064 344.657 8.76148 344.675 9.08634C344.694 9.39208 344.703 9.86025 344.703 10.4908C344.703 11.217 344.685 12.3158 344.647 13.7872C344.61 15.2585 344.591 16.3573 344.591 17.0835C344.591 17.6185 344.657 18.0007 344.787 18.23C344.937 18.4402 345.198 18.5453 345.571 18.5453C345.721 18.5453 345.917 18.5166 346.159 18.4593ZM342.323 12.7266C342.155 12.8604 341.978 12.975 341.791 13.0706C341.605 13.1661 341.362 13.2425 341.064 13.2999C340.784 13.3572 340.588 13.405 340.476 13.4432C340.382 13.4623 340.14 13.5005 339.748 13.5578C339.356 13.5961 339.15 13.6152 339.132 13.6152C338.553 13.6916 338.17 13.7489 337.984 13.7872C337.816 13.8063 337.48 13.8827 336.976 14.0165C336.49 14.1502 336.145 14.3031 335.94 14.4751C335.734 14.6471 335.529 14.905 335.324 15.249C335.137 15.5738 335.044 15.9656 335.044 16.4242C335.044 17.1886 335.296 17.7905 335.8 18.23C336.322 18.6695 337.032 18.8893 337.928 18.8893C339.066 18.8893 340.084 18.5453 340.979 17.8574C341.875 17.1694 342.323 16.3573 342.323 15.421V12.7266Z" fill="black"/>
<path d="M362.402 25.1092H360.134V20.4084H349.102V25.1092H346.834V18.2587H348.402C348.85 17.3796 349.261 16.0229 349.634 14.1884C350.026 12.3349 350.222 10.5291 350.222 8.77104V5.61805H360.526V18.2587H362.402V25.1092ZM358.146 18.2587V7.76781H352.546V9.00034C352.546 10.7393 352.369 12.5068 352.014 14.3031C351.678 16.0802 351.296 17.3988 350.866 18.2587H358.146Z" fill="black"/>
<path d="M376.827 15.7363C376.099 19.1759 373.999 20.8957 370.528 20.8957C368.4 20.8957 366.729 20.2173 365.516 18.8606C364.321 17.5039 363.724 15.6216 363.724 13.2139C363.724 10.8253 364.34 8.89525 365.572 7.42385C366.822 5.93335 368.446 5.1881 370.444 5.1881C372.665 5.1881 374.307 5.96201 375.371 7.50984C376.454 9.03856 376.995 10.9781 376.995 13.3285V13.6725H366.132L366.104 13.8445C366.104 15.4114 366.505 16.644 367.308 17.5421C368.11 18.4402 369.212 18.8893 370.612 18.8893C371.657 18.8893 372.478 18.6408 373.076 18.144C373.691 17.6472 374.167 16.8446 374.503 15.7363H376.827ZM374.531 11.6947C374.419 10.2806 373.999 9.18188 373.272 8.39841C372.544 7.59583 371.582 7.19454 370.388 7.19454C369.23 7.19454 368.269 7.59583 367.504 8.39841C366.738 9.20099 366.281 10.2998 366.132 11.6947H374.531Z" fill="black"/>
<path d="M381.898 20.4084H379.518V5.61805H381.898V11.4941H389.122V5.61805H391.502V20.4084H389.122V13.6438H381.898V20.4084Z" fill="black"/>
<path d="M406.556 25.1092V20.4084H395.076V5.61805H397.456V18.2587H404.568V5.61805H406.948V18.2587H408.824V25.1092H406.556Z" fill="black"/>
<path d="M423 5.61805L416.812 22.3002C416.57 22.969 416.355 23.485 416.168 23.848C416 24.2302 415.748 24.6411 415.412 25.0806C415.095 25.5392 414.703 25.864 414.236 26.0551C413.788 26.2653 413.256 26.3704 412.64 26.3704C412.174 26.3704 411.586 26.2844 410.876 26.1125V23.934C411.567 24.1442 412.08 24.2493 412.416 24.2493C413.2 24.2493 413.76 23.8385 414.096 23.0168L415.216 20.3224L409.477 5.61805H412.164L416.448 17.3988L420.508 5.61805H423Z" fill="black"/>
<path d="M2.29591 36.6702V38.7626C3.34121 37.0619 4.96515 36.2116 7.16773 36.2116C9.18366 36.2116 10.7796 36.9091 11.9556 38.304C13.1502 39.699 13.7475 41.5908 13.7475 43.9794C13.7475 46.368 13.1595 48.2789 11.9836 49.7121C10.8263 51.1262 9.25832 51.8332 7.27973 51.8332C5.20781 51.8332 3.5932 51.0211 2.43591 49.3968V57.1646H0.0559979V36.6702H2.29591ZM6.80374 38.2467C5.42246 38.2467 4.3305 38.7626 3.52787 39.7945C2.7439 40.8073 2.35191 42.2118 2.35191 44.0081C2.35191 45.8043 2.75323 47.2184 3.55587 48.2503C4.37717 49.263 5.48779 49.7694 6.88774 49.7694C8.25036 49.7694 9.32365 49.2535 10.1076 48.2216C10.8916 47.1897 11.2836 45.7852 11.2836 44.0081C11.2836 42.2118 10.8823 40.8073 10.0796 39.7945C9.29565 38.7626 8.20369 38.2467 6.80374 38.2467Z" fill="black"/>
<path d="M29.4486 49.5115V51.4032C28.9632 51.5943 28.4219 51.6899 27.8246 51.6899C26.462 51.6899 25.762 50.9637 25.7247 49.5115C24.3621 51.0784 22.6168 51.8619 20.4889 51.8619C19.0703 51.8619 17.941 51.4892 17.101 50.744C16.2797 49.9987 15.8691 48.9764 15.8691 47.677C15.8691 45.0399 17.577 43.5017 20.9929 43.0622C21.2169 43.0239 21.5435 42.9857 21.9728 42.9475C23.5968 42.7564 24.5954 42.5367 24.9687 42.2882C25.398 41.9825 25.6127 41.457 25.6127 40.7118C25.6127 39.0875 24.5207 38.2754 22.3368 38.2754C21.2169 38.2754 20.3676 38.5142 19.7889 38.9919C19.2103 39.4506 18.8649 40.2149 18.753 41.285H16.429C16.4664 39.699 17.017 38.4664 18.081 37.5874C19.1449 36.7084 20.6102 36.2689 22.4768 36.2689C24.5114 36.2689 26.0233 36.7466 27.0126 37.7021C27.33 38.0078 27.5633 38.4091 27.7126 38.9059C27.8619 39.4028 27.9459 39.8136 27.9646 40.1385C27.9833 40.4442 27.9926 40.9124 27.9926 41.543C27.9926 42.2691 27.9739 43.3679 27.9366 44.8393C27.8993 46.3107 27.8806 47.4095 27.8806 48.1356C27.8806 48.6707 27.9459 49.0528 28.0766 49.2821C28.2259 49.4923 28.4873 49.5974 28.8606 49.5974C29.0099 49.5974 29.2059 49.5688 29.4486 49.5115ZM25.6127 43.7787C25.4447 43.9125 25.2674 44.0272 25.0807 44.1227C24.8941 44.2183 24.6514 44.2947 24.3527 44.352C24.0728 44.4093 23.8768 44.4571 23.7648 44.4953C23.6714 44.5144 23.4288 44.5527 23.0368 44.61C22.6448 44.6482 22.4395 44.6673 22.4208 44.6673C21.8422 44.7438 21.4595 44.8011 21.2729 44.8393C21.1049 44.8584 20.7689 44.9348 20.2649 45.0686C19.7796 45.2024 19.4343 45.3552 19.2289 45.5272C19.0236 45.6992 18.8183 45.9572 18.613 46.3011C18.4263 46.626 18.333 47.0177 18.333 47.4763C18.333 48.2407 18.585 48.8426 19.0889 49.2821C19.6116 49.7216 20.3209 49.9414 21.2169 49.9414C22.3555 49.9414 23.3728 49.5974 24.2687 48.9095C25.1647 48.2216 25.6127 47.4095 25.6127 46.4731V43.7787Z" fill="black"/>
<path d="M45.691 56.1614H43.4231V51.4606H32.3915V56.1614H30.1236V49.3108H31.6915C32.1395 48.4318 32.5502 47.0751 32.9235 45.2406C33.3155 43.387 33.5115 41.5812 33.5115 39.8232V36.6702H43.8151V49.3108H45.691V56.1614ZM41.4352 49.3108V38.82H35.8354V40.0525C35.8354 41.7914 35.658 43.559 35.3034 45.3552C34.9674 47.1324 34.5848 48.4509 34.1554 49.3108H41.4352Z" fill="black"/>
<path d="M50.8209 51.4606H47.7691V36.6702H50.149V48.7375H50.205L56.7007 36.6702H59.7526V51.4606H57.3727V39.3932H57.3167L50.8209 51.4606Z" fill="black"/>
<path d="M73.3596 36.6702V38.7626C74.4049 37.0619 76.0289 36.2116 78.2315 36.2116C80.2474 36.2116 81.8433 36.9091 83.0193 38.304C84.2139 39.699 84.8112 41.5908 84.8112 43.9794C84.8112 46.368 84.2233 48.2789 83.0473 49.7121C81.89 51.1262 80.3221 51.8332 78.3435 51.8332C76.2715 51.8332 74.6569 51.0211 73.4996 49.3968V57.1646H71.1197V36.6702H73.3596ZM77.8675 38.2467C76.4862 38.2467 75.3942 38.7626 74.5916 39.7945C73.8076 40.8073 73.4156 42.2118 73.4156 44.0081C73.4156 45.8043 73.817 47.2184 74.6196 48.2503C75.4409 49.263 76.5515 49.7694 77.9515 49.7694C79.3141 49.7694 80.3874 49.2535 81.1714 48.2216C81.9553 47.1897 82.3473 45.7852 82.3473 44.0081C82.3473 42.2118 81.946 40.8073 81.1434 39.7945C80.3594 38.7626 79.2674 38.2467 77.8675 38.2467Z" fill="black"/>
<path d="M100.064 46.7884C99.3363 50.228 97.2364 51.9479 93.7645 51.9479C91.6366 51.9479 89.966 51.2695 88.7527 49.9127C87.5581 48.556 86.9608 46.6738 86.9608 44.266C86.9608 41.8774 87.5768 39.9474 88.8087 38.476C90.0593 36.9855 91.6833 36.2402 93.6805 36.2402C95.9018 36.2402 97.5444 37.0142 98.6084 38.562C99.691 40.0907 100.232 42.0303 100.232 44.3807V44.7246H89.3687L89.3407 44.8966C89.3407 46.4636 89.742 47.6961 90.5447 48.5942C91.3473 49.4923 92.4486 49.9414 93.8485 49.9414C94.8938 49.9414 95.7151 49.693 96.3124 49.1962C96.9284 48.6993 97.4044 47.8967 97.7404 46.7884H100.064ZM97.7684 42.7469C97.6564 41.3328 97.2364 40.234 96.5084 39.4506C95.7805 38.648 94.8192 38.2467 93.6245 38.2467C92.4673 38.2467 91.506 38.648 90.7407 39.4506C89.9753 40.2531 89.518 41.3519 89.3687 42.7469H97.7684Z" fill="black"/>
<path d="M115.691 51.4606H112.667L107.403 44.18L105.135 46.4445V51.4606H102.755V36.6702H105.135V43.7214L111.743 36.6702H114.935L109.111 42.4889L115.691 51.4606Z" fill="black"/>
<path d="M129.314 36.6702V51.4606H126.934V38.82H121.782L121.586 45.3552C121.53 47.6101 121.129 49.2439 120.382 50.2567C119.635 51.2695 118.702 51.7759 117.582 51.7759C116.892 51.7759 116.322 51.6708 115.874 51.4606V49.4828C116.117 49.6166 116.537 49.6834 117.134 49.6834C117.694 49.6834 118.17 49.3777 118.562 48.7662C118.973 48.1356 119.197 47.0846 119.234 45.6132L119.486 36.6702H129.314Z" fill="black"/>
<path d="M145.628 49.5115V51.4032C145.142 51.5943 144.601 51.6899 144.004 51.6899C142.641 51.6899 141.941 50.9637 141.904 49.5115C140.541 51.0784 138.796 51.8619 136.668 51.8619C135.25 51.8619 134.12 51.4892 133.28 50.744C132.459 49.9987 132.048 48.9764 132.048 47.677C132.048 45.0399 133.756 43.5017 137.172 43.0622C137.396 43.0239 137.723 42.9857 138.152 42.9475C139.776 42.7564 140.775 42.5367 141.148 42.2882C141.577 41.9825 141.792 41.457 141.792 40.7118C141.792 39.0875 140.7 38.2754 138.516 38.2754C137.396 38.2754 136.547 38.5142 135.968 38.9919C135.389 39.4506 135.044 40.2149 134.932 41.285H132.608C132.646 39.699 133.196 38.4664 134.26 37.5874C135.324 36.7084 136.789 36.2689 138.656 36.2689C140.691 36.2689 142.203 36.7466 143.192 37.7021C143.509 38.0078 143.743 38.4091 143.892 38.9059C144.041 39.4028 144.125 39.8136 144.144 40.1385C144.163 40.4442 144.172 40.9124 144.172 41.543C144.172 42.2691 144.153 43.3679 144.116 44.8393C144.079 46.3107 144.06 47.4095 144.06 48.1356C144.06 48.6707 144.125 49.0528 144.256 49.2821C144.405 49.4923 144.666 49.5974 145.04 49.5974C145.189 49.5974 145.385 49.5688 145.628 49.5115ZM141.792 43.7787C141.624 43.9125 141.447 44.0272 141.26 44.1227C141.073 44.2183 140.831 44.2947 140.532 44.352C140.252 44.4093 140.056 44.4571 139.944 44.4953C139.851 44.5144 139.608 44.5527 139.216 44.61C138.824 44.6482 138.619 44.6673 138.6 44.6673C138.021 44.7438 137.639 44.8011 137.452 44.8393C137.284 44.8584 136.948 44.9348 136.444 45.0686C135.959 45.2024 135.613 45.3552 135.408 45.5272C135.203 45.6992 134.998 45.9572 134.792 46.3011C134.606 46.626 134.512 47.0177 134.512 47.4763C134.512 48.2407 134.764 48.8426 135.268 49.2821C135.791 49.7216 136.5 49.9414 137.396 49.9414C138.535 49.9414 139.552 49.5974 140.448 48.9095C141.344 48.2216 141.792 47.4095 141.792 46.4731V43.7787Z" fill="black"/>
<path d="M163.522 51.4606H161.142V39.7945H161.058L156.774 51.4606H154.591L150.307 39.7945H150.223V51.4606H147.843V36.6702H151.259L155.654 48.6515H155.71L160.106 36.6702H163.522V51.4606Z" fill="black"/>
<path d="M180.813 36.6702H183.193V51.4606H180.813V36.6702ZM177.23 43.5494C178.088 44.352 178.518 45.4508 178.518 46.8457C178.518 48.2407 178.098 49.3586 177.258 50.1994C176.436 51.0402 175.326 51.4606 173.926 51.4606H166.954V36.6702H169.334V42.3169H173.814C175.232 42.3169 176.371 42.7278 177.23 43.5494ZM173.058 44.4093H169.334V49.3108H173.058C174.028 49.3108 174.766 49.1006 175.27 48.6802C175.792 48.2407 176.054 47.6292 176.054 46.8457C176.054 45.2215 175.055 44.4093 173.058 44.4093Z" fill="black"/>
<path d="M197.597 51.4606H194.545V36.6702H196.925V48.7375H196.981L203.476 36.6702H206.528V51.4606H204.148V39.3932H204.092L197.597 51.4606Z" fill="black"/>
<path d="M219.239 34.6064C219.874 33.5936 220.639 32.8484 221.535 32.3707C222.431 31.8738 223.57 31.5776 224.951 31.4821C226.5 31.3674 227.443 31.2146 227.779 31.0235C228.003 30.9088 228.171 30.756 228.283 30.5649H230.663C230.607 30.8706 230.523 31.1477 230.411 31.3961C230.318 31.6445 230.206 31.8643 230.075 32.0554C229.963 32.2273 229.795 32.3898 229.571 32.5426C229.366 32.6955 229.188 32.8293 229.039 32.9439C228.89 33.0395 228.666 33.135 228.367 33.2306C228.087 33.307 227.863 33.3739 227.695 33.4312C227.527 33.4694 227.266 33.5077 226.911 33.5459C226.575 33.5841 226.332 33.6128 226.183 33.6319C226.034 33.651 225.763 33.6701 225.371 33.6892C224.979 33.7083 224.727 33.7274 224.615 33.7465C223.085 33.8612 221.89 34.4727 221.031 35.581C220.173 36.6702 219.631 38.132 219.407 39.9665H219.491C219.902 38.9537 220.555 38.1416 221.451 37.5301C222.347 36.9186 223.383 36.6129 224.559 36.6129C226.612 36.6129 228.218 37.2817 229.375 38.6193C230.551 39.9378 231.139 41.7914 231.139 44.18C231.139 46.6451 230.542 48.556 229.347 49.9127C228.171 51.2695 226.51 51.9479 224.363 51.9479C222.609 51.9479 221.125 51.4224 219.911 50.3714C218.698 49.3013 217.951 47.7725 217.671 45.7852C217.559 44.9826 217.503 44.0845 217.503 43.0908C217.503 39.2499 218.082 36.4218 219.239 34.6064ZM219.939 44.266C219.939 45.9476 220.331 47.3044 221.115 48.3362C221.918 49.3681 223.01 49.8841 224.391 49.8841C225.735 49.8841 226.79 49.3872 227.555 48.3936C228.32 47.3999 228.703 46.0145 228.703 44.2374C228.703 42.4984 228.311 41.1322 227.527 40.1385C226.743 39.1448 225.679 38.648 224.335 38.648C222.991 38.648 221.918 39.1544 221.115 40.1671C220.331 41.1608 219.939 42.5271 219.939 44.266Z" fill="black"/>
<path d="M247.748 36.6702H250.128V51.4606H247.748V36.6702ZM244.165 43.5494C245.023 44.352 245.453 45.4508 245.453 46.8457C245.453 48.2407 245.033 49.3586 244.193 50.1994C243.371 51.0402 242.261 51.4606 240.861 51.4606H233.889V36.6702H236.269V42.3169H240.749C242.167 42.3169 243.306 42.7278 244.165 43.5494ZM239.993 44.4093H236.269V49.3108H239.993C240.963 49.3108 241.701 49.1006 242.205 48.6802C242.727 48.2407 242.989 47.6292 242.989 46.8457C242.989 45.2215 241.99 44.4093 239.993 44.4093Z" fill="black"/>
<path d="M265.727 36.6702V51.4606H263.347V38.82H258.195L257.999 45.3552C257.943 47.6101 257.542 49.2439 256.795 50.2567C256.048 51.2695 255.115 51.7759 253.995 51.7759C253.304 51.7759 252.735 51.6708 252.287 51.4606V49.4828C252.53 49.6166 252.95 49.6834 253.547 49.6834C254.107 49.6834 254.583 49.3777 254.975 48.7662C255.386 48.1356 255.61 47.0846 255.647 45.6132L255.899 36.6702H265.727Z" fill="black"/>
<path d="M282.041 49.5115V51.4032C281.555 51.5943 281.014 51.6899 280.417 51.6899C279.054 51.6899 278.354 50.9637 278.317 49.5115C276.954 51.0784 275.209 51.8619 273.081 51.8619C271.662 51.8619 270.533 51.4892 269.693 50.744C268.872 49.9987 268.461 48.9764 268.461 47.677C268.461 45.0399 270.169 43.5017 273.585 43.0622C273.809 43.0239 274.136 42.9857 274.565 42.9475C276.189 42.7564 277.187 42.5367 277.561 42.2882C277.99 41.9825 278.205 41.457 278.205 40.7118C278.205 39.0875 277.113 38.2754 274.929 38.2754C273.809 38.2754 272.96 38.5142 272.381 38.9919C271.802 39.4506 271.457 40.2149 271.345 41.285H269.021C269.058 39.699 269.609 38.4664 270.673 37.5874C271.737 36.7084 273.202 36.2689 275.069 36.2689C277.103 36.2689 278.615 36.7466 279.605 37.7021C279.922 38.0078 280.155 38.4091 280.305 38.9059C280.454 39.4028 280.538 39.8136 280.557 40.1385C280.575 40.4442 280.585 40.9124 280.585 41.543C280.585 42.2691 280.566 43.3679 280.529 44.8393C280.491 46.3107 280.473 47.4095 280.473 48.1356C280.473 48.6707 280.538 49.0528 280.669 49.2821C280.818 49.4923 281.079 49.5974 281.453 49.5974C281.602 49.5974 281.798 49.5688 282.041 49.5115ZM278.205 43.7787C278.037 43.9125 277.859 44.0272 277.673 44.1227C277.486 44.2183 277.243 44.2947 276.945 44.352C276.665 44.4093 276.469 44.4571 276.357 44.4953C276.264 44.5144 276.021 44.5527 275.629 44.61C275.237 44.6482 275.032 44.6673 275.013 44.6673C274.434 44.7438 274.052 44.8011 273.865 44.8393C273.697 44.8584 273.361 44.9348 272.857 45.0686C272.372 45.2024 272.026 45.3552 271.821 45.5272C271.616 45.6992 271.41 45.9572 271.205 46.3011C271.018 46.626 270.925 47.0177 270.925 47.4763C270.925 48.2407 271.177 48.8426 271.681 49.2821C272.204 49.7216 272.913 49.9414 273.809 49.9414C274.948 49.9414 275.965 49.5974 276.861 48.9095C277.757 48.2216 278.205 47.4095 278.205 46.4731V43.7787Z" fill="black"/>
<path d="M293.224 38.3613C294.494 36.9473 296.22 36.2402 298.404 36.2402C300.588 36.2402 302.287 36.9186 303.5 38.2754C304.713 39.6321 305.32 41.5334 305.32 43.9794C305.32 46.4827 304.713 48.4318 303.5 49.8268C302.287 51.2217 300.579 51.9192 298.376 51.9192C296.173 51.9192 294.447 51.2313 293.196 49.8554C291.946 48.4796 291.32 46.5687 291.32 44.1227C291.32 41.6959 291.955 39.7754 293.224 38.3613ZM301.652 39.8518C300.849 38.8008 299.748 38.2754 298.348 38.2754C296.948 38.2754 295.837 38.8008 295.016 39.8518C294.195 40.9028 293.784 42.3074 293.784 44.0654C293.784 45.8807 294.186 47.3044 294.988 48.3362C295.809 49.349 296.948 49.8554 298.404 49.8554C299.804 49.8554 300.896 49.3395 301.68 48.3076C302.483 47.2757 302.884 45.8521 302.884 44.0367C302.884 42.2787 302.473 40.8837 301.652 39.8518Z" fill="black"/>
<path d="M309.498 34.6064C310.132 33.5936 310.898 32.8484 311.794 32.3707C312.69 31.8738 313.828 31.5776 315.21 31.4821C316.759 31.3674 317.701 31.2146 318.037 31.0235C318.261 30.9088 318.429 30.756 318.541 30.5649H320.921C320.865 30.8706 320.781 31.1477 320.669 31.3961C320.576 31.6445 320.464 31.8643 320.333 32.0554C320.221 32.2273 320.053 32.3898 319.829 32.5426C319.624 32.6955 319.447 32.8293 319.297 32.9439C319.148 33.0395 318.924 33.135 318.625 33.2306C318.345 33.307 318.121 33.3739 317.953 33.4312C317.785 33.4694 317.524 33.5077 317.169 33.5459C316.833 33.5841 316.591 33.6128 316.441 33.6319C316.292 33.651 316.022 33.6701 315.63 33.6892C315.238 33.7083 314.986 33.7274 314.874 33.7465C313.343 33.8612 312.148 34.4727 311.29 35.581C310.431 36.6702 309.89 38.132 309.666 39.9665H309.75C310.16 38.9537 310.814 38.1416 311.71 37.5301C312.606 36.9186 313.642 36.6129 314.818 36.6129C316.871 36.6129 318.476 37.2817 319.633 38.6193C320.809 39.9378 321.397 41.7914 321.397 44.18C321.397 46.6451 320.8 48.556 319.605 49.9127C318.429 51.2695 316.768 51.9479 314.622 51.9479C312.867 51.9479 311.383 51.4224 310.17 50.3714C308.956 49.3013 308.21 47.7725 307.93 45.7852C307.818 44.9826 307.762 44.0845 307.762 43.0908C307.762 39.2499 308.34 36.4218 309.498 34.6064ZM310.198 44.266C310.198 45.9476 310.59 47.3044 311.374 48.3362C312.176 49.3681 313.268 49.8841 314.65 49.8841C315.993 49.8841 317.048 49.3872 317.813 48.3936C318.579 47.3999 318.961 46.0145 318.961 44.2374C318.961 42.4984 318.569 41.1322 317.785 40.1385C317.001 39.1448 315.938 38.648 314.594 38.648C313.25 38.648 312.176 39.1544 311.374 40.1671C310.59 41.1608 310.198 42.5271 310.198 44.266Z" fill="black"/>
<path d="M326.471 36.6702V38.7626C327.517 37.0619 329.141 36.2116 331.343 36.2116C333.359 36.2116 334.955 36.9091 336.131 38.304C337.326 39.699 337.923 41.5908 337.923 43.9794C337.923 46.368 337.335 48.2789 336.159 49.7121C335.002 51.1262 333.434 51.8332 331.455 51.8332C329.383 51.8332 327.769 51.0211 326.611 49.3968V57.1646H324.231V36.6702H326.471ZM330.979 38.2467C329.598 38.2467 328.506 38.7626 327.703 39.7945C326.919 40.8073 326.527 42.2118 326.527 44.0081C326.527 45.8043 326.929 47.2184 327.731 48.2503C328.553 49.263 329.663 49.7694 331.063 49.7694C332.426 49.7694 333.499 49.2535 334.283 48.2216C335.067 47.1897 335.459 45.7852 335.459 44.0081C335.459 42.2118 335.058 40.8073 334.255 39.7945C333.471 38.7626 332.379 38.2467 330.979 38.2467Z" fill="black"/>
<path d="M352.456 36.6702L346.268 53.3524C346.025 54.0212 345.811 54.5371 345.624 54.9002C345.456 55.2824 345.204 55.6932 344.868 56.1327C344.551 56.5913 344.159 56.9162 343.692 57.1073C343.244 57.3175 342.712 57.4226 342.096 57.4226C341.63 57.4226 341.042 57.3366 340.332 57.1646V54.9862C341.023 55.1964 341.536 55.3015 341.872 55.3015C342.656 55.3015 343.216 54.8906 343.552 54.069L344.672 51.3746L338.932 36.6702H341.62L345.904 48.4509L349.964 36.6702H352.456Z" fill="black"/>
<path d="M364.467 38.82H356.936V51.4606H354.556V36.6702H364.467V38.82Z" fill="black"/>
<path d="M378.369 49.5115V51.4032C377.884 51.5943 377.342 51.6899 376.745 51.6899C375.382 51.6899 374.683 50.9637 374.645 49.5115C373.283 51.0784 371.537 51.8619 369.409 51.8619C367.991 51.8619 366.861 51.4892 366.022 50.744C365.2 49.9987 364.79 48.9764 364.79 47.677C364.79 45.0399 366.497 43.5017 369.913 43.0622C370.137 43.0239 370.464 42.9857 370.893 42.9475C372.517 42.7564 373.516 42.5367 373.889 42.2882C374.319 41.9825 374.533 41.457 374.533 40.7118C374.533 39.0875 373.441 38.2754 371.257 38.2754C370.137 38.2754 369.288 38.5142 368.709 38.9919C368.131 39.4506 367.785 40.2149 367.673 41.285H365.35C365.387 39.699 365.938 38.4664 367.001 37.5874C368.065 36.7084 369.531 36.2689 371.397 36.2689C373.432 36.2689 374.944 36.7466 375.933 37.7021C376.25 38.0078 376.484 38.4091 376.633 38.9059C376.782 39.4028 376.866 39.8136 376.885 40.1385C376.904 40.4442 376.913 40.9124 376.913 41.543C376.913 42.2691 376.894 43.3679 376.857 44.8393C376.82 46.3107 376.801 47.4095 376.801 48.1356C376.801 48.6707 376.866 49.0528 376.997 49.2821C377.146 49.4923 377.408 49.5974 377.781 49.5974C377.93 49.5974 378.126 49.5688 378.369 49.5115ZM374.533 43.7787C374.365 43.9125 374.188 44.0272 374.001 44.1227C373.815 44.2183 373.572 44.2947 373.273 44.352C372.993 44.4093 372.797 44.4571 372.685 44.4953C372.592 44.5144 372.349 44.5527 371.957 44.61C371.565 44.6482 371.36 44.6673 371.341 44.6673C370.763 44.7438 370.38 44.8011 370.193 44.8393C370.025 44.8584 369.689 44.9348 369.185 45.0686C368.7 45.2024 368.355 45.3552 368.149 45.5272C367.944 45.6992 367.739 45.9572 367.533 46.3011C367.347 46.626 367.253 47.0177 367.253 47.4763C367.253 48.2407 367.505 48.8426 368.009 49.2821C368.532 49.7216 369.241 49.9414 370.137 49.9414C371.276 49.9414 372.293 49.5974 373.189 48.9095C374.085 48.2216 374.533 47.4095 374.533 46.4731V43.7787Z" fill="black"/>
<path d="M382.992 51.4606H380.612V36.6702H382.992V42.5462H390.216V36.6702H392.596V51.4606H390.216V44.696H382.992V51.4606Z" fill="black"/>
<path d="M408.966 49.5115V51.4032C408.48 51.5943 407.939 51.6899 407.342 51.6899C405.979 51.6899 405.279 50.9637 405.242 49.5115C403.879 51.0784 402.134 51.8619 400.006 51.8619C398.587 51.8619 397.458 51.4892 396.618 50.744C395.797 49.9987 395.386 48.9764 395.386 47.677C395.386 45.0399 397.094 43.5017 400.51 43.0622C400.734 43.0239 401.061 42.9857 401.49 42.9475C403.114 42.7564 404.112 42.5367 404.486 42.2882C404.915 41.9825 405.13 41.457 405.13 40.7118C405.13 39.0875 404.038 38.2754 401.854 38.2754C400.734 38.2754 399.885 38.5142 399.306 38.9919C398.727 39.4506 398.382 40.2149 398.27 41.285H395.946C395.983 39.699 396.534 38.4664 397.598 37.5874C398.662 36.7084 400.127 36.2689 401.994 36.2689C404.028 36.2689 405.54 36.7466 406.53 37.7021C406.847 38.0078 407.08 38.4091 407.23 38.9059C407.379 39.4028 407.463 39.8136 407.482 40.1385C407.5 40.4442 407.51 40.9124 407.51 41.543C407.51 42.2691 407.491 43.3679 407.454 44.8393C407.416 46.3107 407.398 47.4095 407.398 48.1356C407.398 48.6707 407.463 49.0528 407.594 49.2821C407.743 49.4923 408.004 49.5974 408.378 49.5974C408.527 49.5974 408.723 49.5688 408.966 49.5115ZM405.13 43.7787C404.962 43.9125 404.784 44.0272 404.598 44.1227C404.411 44.2183 404.168 44.2947 403.87 44.352C403.59 44.4093 403.394 44.4571 403.282 44.4953C403.188 44.5144 402.946 44.5527 402.554 44.61C402.162 44.6482 401.956 44.6673 401.938 44.6673C401.359 44.7438 400.977 44.8011 400.79 44.8393C400.622 44.8584 400.286 44.9348 399.782 45.0686C399.297 45.2024 398.951 45.3552 398.746 45.5272C398.541 45.6992 398.335 45.9572 398.13 46.3011C397.943 46.626 397.85 47.0177 397.85 47.4763C397.85 48.2407 398.102 48.8426 398.606 49.2821C399.129 49.7216 399.838 49.9414 400.734 49.9414C401.872 49.9414 402.89 49.5974 403.786 48.9095C404.682 48.2216 405.13 47.4095 405.13 46.4731V43.7787Z" fill="black"/>
<path d="M0 82.5127V67.7223H6.69175C7.64371 67.7223 8.45568 67.8083 9.12766 67.9803C9.79963 68.1332 10.3876 68.4867 10.8916 69.0409C11.3956 69.595 11.6476 70.3498 11.6476 71.3053C11.6476 72.7576 10.9383 73.8181 9.51964 74.4869V74.5156C10.3783 74.6876 11.0503 75.0984 11.5356 75.7481C12.0209 76.3787 12.2635 77.1813 12.2635 78.1559C12.2635 79.4171 11.8529 80.4585 11.0316 81.2802C10.2103 82.1019 9.15566 82.5127 7.86771 82.5127H0ZM6.43976 73.6843C7.42906 73.6843 8.12903 73.5219 8.53968 73.1971C8.969 72.8531 9.18366 72.3563 9.18366 71.7066C9.18366 71.0569 8.97833 70.5791 8.56768 70.2734C8.15703 69.9677 7.44772 69.8148 6.43976 69.8148H2.32391V73.6843H6.43976ZM2.32391 75.7481V80.4203H7.41972C8.16636 80.4203 8.74501 80.191 9.15566 79.7324C9.58497 79.2737 9.79963 78.6814 9.79963 77.9552C9.79963 76.4838 8.86633 75.7481 6.99974 75.7481H2.32391Z" fill="black"/>
<path d="M35.3187 77.124C35.1134 78.9011 34.4507 80.3152 33.3308 81.3662C32.2295 82.4172 30.7922 82.9427 29.0189 82.9427C26.835 82.9427 25.1458 82.2547 23.9511 80.8789C22.7565 79.4839 22.1592 77.6304 22.1592 75.3182C22.1592 72.8531 22.7845 70.904 24.0351 69.4708C25.2857 68.0185 26.975 67.2924 29.1029 67.2924C30.8762 67.2924 32.2948 67.751 33.3588 68.6682C34.4227 69.5664 35.048 70.8562 35.2347 72.5378H32.7708C32.3415 70.3976 31.1282 69.3275 29.1309 69.3275C27.7497 69.3275 26.6577 69.853 25.8551 70.904C25.0524 71.9359 24.6511 73.3404 24.6511 75.1175C24.6511 76.9138 25.0338 78.3278 25.7991 79.3597C26.5644 80.3916 27.619 80.9076 28.9629 80.9076C30.0456 80.9076 30.9229 80.5827 31.5948 79.933C32.2855 79.2833 32.7241 78.3469 32.9108 77.124H35.3187Z" fill="black"/>
<path d="M50.2732 77.8406C49.5452 81.2802 47.4453 83 43.9734 83C41.8455 83 40.1749 82.3216 38.9616 80.9649C37.767 79.6081 37.1697 77.7259 37.1697 75.3182C37.1697 72.9295 37.7857 70.9995 39.0176 69.5281C40.2682 68.0376 41.8922 67.2924 43.8894 67.2924C46.1107 67.2924 47.7533 68.0663 48.8173 69.6141C49.8999 71.1429 50.4412 73.0824 50.4412 75.4328V75.7768H39.5776L39.5496 75.9488C39.5496 77.5157 39.9509 78.7482 40.7536 79.6464C41.5562 80.5445 42.6575 80.9936 44.0574 80.9936C45.1027 80.9936 45.924 80.7451 46.5213 80.2483C47.1373 79.7515 47.6133 78.9489 47.9493 77.8406H50.2732ZM47.9773 73.799C47.8653 72.3849 47.4453 71.2862 46.7173 70.5027C45.9894 69.7001 45.0281 69.2988 43.8334 69.2988C42.6762 69.2988 41.7149 69.7001 40.9496 70.5027C40.1842 71.3053 39.7269 72.404 39.5776 73.799H47.9773Z" fill="black"/>
<path d="M63.5316 69.8721H58.3518V82.5127H55.9719V69.8721H50.7921V67.7223H63.5316V69.8721Z" fill="black"/>
<path d="M68.4843 82.5127H65.4324V67.7223H67.8124V79.7897H67.8684L74.3641 67.7223H77.416V82.5127H75.0361V70.4454H74.9801L68.4843 82.5127Z" fill="black"/>
<path d="M84.6303 79.3311V82.5127H81.5224V79.3311H84.6303Z" fill="black"/>
</svg>
