<svg width="1530" height="104" viewBox="0 0 1530 104" fill="none" xmlns="http://www.w3.org/2000/svg">
<path d="M75.5086 4.30973V101.046H62.9238V55.803H12.5848V101.046H0V4.30973H12.5848V44.662H62.9238V4.30973H75.5086Z" fill="black"/>
<path d="M117.184 104C112.915 104 109.229 103.262 106.124 101.785C103.117 100.406 100.643 98.4374 98.7027 95.8776C96.7624 93.3178 95.3072 90.3149 94.337 86.8691C93.3669 83.4232 92.8818 79.6327 92.8818 75.4977C92.8818 70.4765 93.6094 65.16 95.0646 59.5482C96.6169 53.9363 98.7512 48.4229 101.468 43.0079C104.184 37.593 107.434 32.4242 111.218 27.5015C115.001 22.4803 119.124 18.0991 123.587 14.3579C128.147 10.6167 132.997 7.66306 138.139 5.49708C143.281 3.23264 148.568 2.10042 154.001 2.10042C158.173 2.10042 161.811 2.83883 164.915 4.31563C168.02 5.69398 170.542 7.66306 172.482 10.2229C174.423 12.7826 175.878 15.7855 176.848 19.2314C177.818 22.6772 178.303 26.4677 178.303 30.6028C178.303 35.6239 177.527 40.9404 175.975 46.5523C174.52 52.1641 172.434 57.6775 169.718 63.0925C167.001 68.5074 163.751 73.7255 159.968 78.7466C156.184 83.6693 152.012 88.0013 147.453 91.7425C142.99 95.4838 138.188 98.4866 133.046 100.751C127.904 102.917 122.617 104 117.184 104ZM123.005 99.2742C127.371 99.2742 131.445 97.9451 135.229 95.2868C139.012 92.5301 142.408 88.9858 145.415 84.6538C148.52 80.3219 151.236 75.4977 153.565 70.1812C155.99 64.7662 158.027 59.4005 159.677 54.084C161.326 48.669 162.538 43.5987 163.315 38.8729C164.188 34.0486 164.624 30.1105 164.624 27.0584C164.624 24.2033 164.333 21.4958 163.751 18.936C163.266 16.3762 162.393 14.161 161.132 12.2904C159.871 10.3213 158.124 8.79527 155.893 7.71228C153.759 6.53084 151.042 5.94011 147.744 5.94011C143.475 5.94011 139.449 7.31846 135.665 10.0752C131.979 12.7334 128.583 16.2285 125.479 20.5605C122.471 24.8925 119.755 29.7659 117.33 35.1809C115.001 40.4974 113.012 45.8631 111.363 51.278C109.811 56.5945 108.598 61.6649 107.725 66.4891C106.949 71.2149 106.561 75.1038 106.561 78.1559C106.561 81.0111 106.803 83.7185 107.289 86.2783C107.871 88.8381 108.744 91.1026 109.908 93.0716C111.169 94.9423 112.867 96.4683 115.001 97.6497C117.136 98.7327 119.803 99.2742 123.005 99.2742Z" fill="black"/>
<path d="M190.981 4.30973H231.681C240.427 4.30973 247.657 6.25714 253.369 10.152C259.171 14.0468 262.071 20.1608 262.071 28.4939C262.071 33.2945 260.777 37.5969 258.189 41.4012C255.69 45.1148 252.298 47.7416 248.014 49.2814C253.905 50.6401 258.412 53.448 261.536 57.7051C264.749 61.9622 266.356 67.3063 266.356 73.7373C266.356 91.9434 254.306 101.046 230.208 101.046H190.981V4.30973ZM203.298 15.179V45.7489H225.924C228.512 45.7489 230.699 45.7036 232.484 45.613C234.358 45.4319 236.456 45.0696 238.776 44.5261C241.097 43.9826 242.927 43.2127 244.265 42.2164C245.693 41.1294 246.898 39.5896 247.88 37.5969C248.951 35.6042 249.487 33.2039 249.487 30.396C249.487 27.5881 249.04 25.2331 248.148 23.331C247.255 21.3383 246.184 19.8437 244.935 18.8474C243.685 17.7605 241.945 16.9453 239.713 16.4018C237.571 15.8583 235.608 15.5413 233.823 15.4507C232.127 15.2696 229.895 15.179 227.129 15.179H203.298ZM203.298 55.803V90.313H228.467C231.591 90.313 234.135 90.2677 236.099 90.1771C238.062 89.9959 240.249 89.5883 242.659 88.9543C245.158 88.3203 247.121 87.4145 248.549 86.237C249.978 84.9689 251.182 83.2026 252.164 80.9382C253.146 78.5832 253.637 75.7753 253.637 72.5145C253.637 69.7972 253.28 67.4422 252.566 65.4495C251.941 63.4568 250.825 61.8717 249.219 60.6942C247.702 59.5166 246.229 58.5656 244.801 57.841C243.462 57.1163 241.498 56.6182 238.91 56.3464C236.322 56.0747 234.314 55.9388 232.885 55.9388C231.457 55.8483 229.271 55.803 226.325 55.803H203.298Z" fill="black"/>
<path d="M322.796 2C337.255 2 348.501 6.61945 356.534 15.8583C364.566 25.0067 368.583 37.0082 368.583 51.8629C368.583 66.8081 364.611 79.1267 356.667 88.8184C348.724 98.5102 337.478 103.356 322.93 103.356C315.521 103.356 308.872 101.997 302.981 99.2801C297.091 96.5628 292.271 92.8038 288.522 88.0032C284.863 83.2026 282.051 77.7227 280.088 71.5634C278.213 65.4042 277.276 58.7467 277.276 51.5911C277.276 36.4647 281.382 24.4179 289.593 15.4507C297.894 6.48358 308.961 2 322.796 2ZM322.796 13.141C312.174 13.141 304.008 16.9453 298.296 24.5538C292.673 32.0717 289.861 41.4012 289.861 52.5422C289.861 64.6796 292.851 74.3713 298.831 81.6175C304.9 88.7731 312.978 92.351 323.063 92.351C333.06 92.351 341.048 88.7279 347.028 81.4817C353.008 74.2355 355.998 64.589 355.998 52.5422C355.998 40.586 352.963 31.0301 346.894 23.8744C340.914 16.7188 332.881 13.141 322.796 13.141Z" fill="black"/>
<path d="M465.079 64.4984C464.008 76.7264 459.813 86.2823 452.494 93.1662C445.265 99.9595 435.715 103.356 423.844 103.356C410.277 103.356 399.522 98.8272 391.579 89.7695C383.635 80.6212 379.663 68.3027 379.663 52.8139C379.663 38.3215 383.635 26.2747 391.579 16.6735C399.612 6.98176 410.679 2.13586 424.781 2.13586C434.867 2.13586 443.748 4.89847 451.423 10.4237C459.099 15.9489 463.383 23.6027 464.276 33.3851H451.691C450.263 27.0447 447.139 22.1082 442.32 18.5757C437.5 14.9526 431.564 13.141 424.513 13.141C413.892 13.141 405.859 16.9453 400.415 24.5538C395.06 32.1623 392.382 41.537 392.382 52.6781C392.382 64.9966 395.238 74.6884 400.95 81.7534C406.663 88.8184 414.472 92.351 424.38 92.351C432.502 92.351 438.973 89.9959 443.792 85.2859C448.612 80.4853 451.513 73.5561 452.494 64.4984H465.079Z" fill="black"/>
<path d="M544.752 4.30973V15.4507H512.754V101.046H500.169V15.4507H468.172V4.30973H544.752Z" fill="black"/>
<path d="M555.491 101.046V4.30973H568.076V86.237H568.344L615.068 4.30973H631V101.046H618.415V18.8474H618.147L571.289 101.046H555.491Z" fill="black"/>
<path d="M1343.91 90.2867V100.701H1282C1282.27 95.381 1283.07 90.7375 1284.41 86.7703C1285.75 82.803 1287.81 79.2415 1290.58 76.0857C1293.44 72.8397 1296.2 70.1799 1298.88 68.1061C1301.57 66.0323 1305.36 63.4626 1310.28 60.397C1317.96 55.528 1323.01 51.8763 1325.42 49.4419C1330.42 44.4828 1332.92 38.9827 1332.92 32.9417C1332.92 27.6219 1331.23 23.294 1327.83 19.9579C1324.44 16.5316 1320.01 14.8185 1314.56 14.8185C1308.04 14.8185 1303.35 17.1177 1300.49 21.7161C1297.72 26.2243 1296.25 31.9498 1296.07 38.8926H1284.55V36.3228C1284.55 26.8555 1287.32 19.2365 1292.85 13.466C1298.48 7.6954 1305.9 4.81012 1315.1 4.81012C1324.12 4.81012 1331.31 7.33474 1336.67 12.384C1342.04 17.4332 1344.72 24.1956 1344.72 32.6712C1344.72 36.2778 1344.09 39.704 1342.84 42.95C1341.68 46.1058 1340.34 48.7656 1338.82 50.9296C1337.39 53.0936 1335.16 55.3928 1332.12 57.8272C1329.17 60.2617 1326.71 62.1552 1324.75 63.5077C1322.78 64.77 1319.97 66.5282 1316.31 68.7823C1308.98 73.2004 1304.11 76.6267 1301.7 79.0611C1298.3 82.4874 1296.12 86.2293 1295.13 90.2867H1343.91Z" fill="black"/>
<path d="M1381.23 100.701L1392.59 68.2119H1350.93V66.7418C1354.04 63.2136 1357.77 59.1464 1362.14 54.5401C1366.51 49.8359 1371.13 45.0336 1375.98 40.1333C1380.84 35.135 1385.74 30.2347 1390.69 25.4325C1395.65 20.6302 1400.26 16.3669 1404.53 12.6427C1408.8 8.82051 1412.54 5.78234 1415.75 3.52821C1418.95 1.17607 1421.23 0 1422.59 0C1423.08 0 1423.52 0.196012 1423.9 0.588035C1424.39 0.882054 1424.63 1.27408 1424.63 1.7641C1424.63 2.05812 1424.49 2.79316 1424.19 3.96923C1423.9 5.1453 1423.56 6.41937 1423.18 7.79145C1422.88 9.16353 1422.54 10.4376 1422.16 11.6137C1421.86 12.7897 1421.62 13.6228 1421.43 14.1128C1417.25 14.1128 1413.56 14.7498 1410.36 16.0239C1407.15 17.298 1404.19 18.9151 1401.47 20.8752C1398.75 22.8353 1396.08 25.0404 1393.46 27.4906C1390.94 29.8427 1388.22 32.1458 1385.3 34.4C1384.62 34.89 1383.26 36.1151 1381.23 38.0752C1379.28 40.0353 1377.1 42.2894 1374.67 44.8376C1372.34 47.2877 1369.96 49.8849 1367.53 52.629C1365.11 55.2752 1363.07 57.6273 1361.42 59.6854H1395.5L1406.72 26.1675L1418.22 21.7573C1413.56 34.89 1409.05 48.0228 1404.68 61.1555C1400.4 74.1903 1396.13 87.372 1391.86 100.701H1381.23Z" fill="black"/>
<path d="M1464.87 2.10517L1425.07 103H1415.42L1455.49 2.10517H1464.87Z" fill="black"/>
<path d="M1530 6.56834V16.4414C1509.27 40.3352 1497.17 68.4217 1493.68 100.701H1481.09C1482.16 85.9137 1486 71.2619 1492.61 56.7453C1499.31 42.2287 1507.89 29.1547 1518.34 17.5234H1468.62V6.56834H1530Z" fill="black"/>
</svg>
