<svg width="207" height="20" viewBox="0 0 207 20" fill="none" xmlns="http://www.w3.org/2000/svg">
<path d="M12.5022 1.04841V16.0004H10.5282V9.00741H2.6322V16.0004H0.658203V1.04841H2.6322V7.28541H10.5282V1.04841H12.5022Z" fill="black"/>
<path d="M22.1135 0.691406C24.3815 0.691406 26.1455 1.40541 27.4055 2.83341C28.6655 4.24741 29.2955 6.10241 29.2955 8.39841C29.2955 10.7084 28.6725 12.6124 27.4265 14.1104C26.1805 15.6084 24.4165 16.3574 22.1345 16.3574C20.9725 16.3574 19.9295 16.1474 19.0055 15.7274C18.0815 15.3074 17.3255 14.7264 16.7375 13.9844C16.1635 13.2424 15.7225 12.3954 15.4145 11.4434C15.1205 10.4914 14.9735 9.46241 14.9735 8.35641C14.9735 6.01841 15.6175 4.15641 16.9055 2.77041C18.2075 1.38441 19.9435 0.691406 22.1135 0.691406ZM22.1135 2.41341C20.4475 2.41341 19.1665 3.00141 18.2705 4.17741C17.3885 5.33941 16.9475 6.78141 16.9475 8.50341C16.9475 10.3794 17.4165 11.8774 18.3545 12.9974C19.3065 14.1034 20.5735 14.6564 22.1555 14.6564C23.7235 14.6564 24.9765 14.0964 25.9145 12.9764C26.8525 11.8564 27.3215 10.3654 27.3215 8.50341C27.3215 6.65541 26.8455 5.17841 25.8935 4.07241C24.9555 2.96641 23.6955 2.41341 22.1135 2.41341Z" fill="black"/>
<path d="M31.7686 1.04841H38.1526C39.5246 1.04841 40.6586 1.34941 41.5546 1.95141C42.4646 2.55341 42.9196 3.49841 42.9196 4.78641C42.9196 5.52841 42.7166 6.19341 42.3106 6.78141C41.9186 7.35541 41.3866 7.76141 40.7146 7.99941C41.6386 8.20941 42.3456 8.64341 42.8356 9.30141C43.3396 9.95941 43.5916 10.7854 43.5916 11.7794C43.5916 14.5934 41.7016 16.0004 37.9216 16.0004H31.7686V1.04841ZM33.7006 2.72841V7.45341H37.2496C37.6556 7.45341 37.9986 7.44641 38.2786 7.43241C38.5726 7.40441 38.9016 7.34841 39.2656 7.26441C39.6296 7.18041 39.9166 7.06141 40.1266 6.90741C40.3506 6.73941 40.5396 6.50141 40.6936 6.19341C40.8616 5.88541 40.9456 5.51441 40.9456 5.08041C40.9456 4.64641 40.8756 4.28241 40.7356 3.98841C40.5956 3.68041 40.4276 3.44941 40.2316 3.29541C40.0356 3.12741 39.7626 3.00141 39.4126 2.91741C39.0766 2.83341 38.7686 2.78441 38.4886 2.77041C38.2226 2.74241 37.8726 2.72841 37.4386 2.72841H33.7006ZM33.7006 9.00741V14.3414H37.6486C38.1386 14.3414 38.5376 14.3344 38.8456 14.3204C39.1536 14.2924 39.4966 14.2294 39.8746 14.1314C40.2666 14.0334 40.5746 13.8934 40.7986 13.7114C41.0226 13.5154 41.2116 13.2424 41.3656 12.8924C41.5196 12.5284 41.5966 12.0944 41.5966 11.5904C41.5966 11.1704 41.5406 10.8064 41.4286 10.4984C41.3306 10.1904 41.1556 9.94541 40.9036 9.76341C40.6656 9.58141 40.4346 9.43441 40.2106 9.32241C40.0006 9.21041 39.6926 9.13341 39.2866 9.09141C38.8806 9.04941 38.5656 9.02841 38.3416 9.02841C38.1176 9.01441 37.7746 9.00741 37.3126 9.00741H33.7006Z" fill="black"/>
<path d="M52.4445 0.691406C54.7125 0.691406 56.4765 1.40541 57.7365 2.83341C58.9965 4.24741 59.6265 6.10241 59.6265 8.39841C59.6265 10.7084 59.0035 12.6124 57.7575 14.1104C56.5115 15.6084 54.7475 16.3574 52.4655 16.3574C51.3035 16.3574 50.2605 16.1474 49.3365 15.7274C48.4125 15.3074 47.6565 14.7264 47.0685 13.9844C46.4945 13.2424 46.0535 12.3954 45.7455 11.4434C45.4515 10.4914 45.3045 9.46241 45.3045 8.35641C45.3045 6.01841 45.9485 4.15641 47.2365 2.77041C48.5385 1.38441 50.2745 0.691406 52.4445 0.691406ZM52.4445 2.41341C50.7785 2.41341 49.4975 3.00141 48.6015 4.17741C47.7195 5.33941 47.2785 6.78141 47.2785 8.50341C47.2785 10.3794 47.7475 11.8774 48.6855 12.9974C49.6375 14.1034 50.9045 14.6564 52.4865 14.6564C54.0545 14.6564 55.3075 14.0964 56.2455 12.9764C57.1835 11.8564 57.6525 10.3654 57.6525 8.50341C57.6525 6.65541 57.1765 5.17841 56.2245 4.07241C55.2865 2.96641 54.0265 2.41341 52.4445 2.41341Z" fill="black"/>
<path d="M74.7626 10.3514C74.5946 12.2414 73.9366 13.7184 72.7886 14.7824C71.6546 15.8324 70.1566 16.3574 68.2946 16.3574C66.1666 16.3574 64.4796 15.6574 63.2336 14.2574C61.9876 12.8434 61.3646 10.9394 61.3646 8.54541C61.3646 6.30541 61.9876 4.44341 63.2336 2.95941C64.4936 1.46141 66.2296 0.712406 68.4416 0.712406C70.0236 0.712406 71.4166 1.13941 72.6206 1.99341C73.8246 2.84741 74.4966 4.03041 74.6366 5.54241H72.6626C72.4386 4.56241 71.9486 3.79941 71.1926 3.25341C70.4366 2.69341 69.5056 2.41341 68.3996 2.41341C66.7336 2.41341 65.4736 3.00141 64.6196 4.17741C63.7796 5.35341 63.3596 6.80241 63.3596 8.52441C63.3596 10.4284 63.8076 11.9264 64.7036 13.0184C65.5996 14.1104 66.8246 14.6564 68.3786 14.6564C69.6526 14.6564 70.6676 14.2924 71.4236 13.5644C72.1796 12.8224 72.6346 11.7514 72.7886 10.3514H74.7626Z" fill="black"/>
<path d="M87.2597 1.04841V2.77041H82.2407V16.0004H80.2667V2.77041H75.2477V1.04841H87.2597Z" fill="black"/>
<path d="M88.9443 16.0004V1.04841H90.9183V13.7114H90.9603L98.2893 1.04841H100.788V16.0004H98.8143V3.29541H98.7723L91.4223 16.0004H88.9443Z" fill="black"/>
<path d="M122.607 10.3514C122.439 12.2414 121.781 13.7184 120.633 14.7824C119.499 15.8324 118.001 16.3574 116.139 16.3574C114.011 16.3574 112.324 15.6574 111.078 14.2574C109.832 12.8434 109.209 10.9394 109.209 8.54541C109.209 6.30541 109.832 4.44341 111.078 2.95941C112.338 1.46141 114.074 0.712406 116.286 0.712406C117.868 0.712406 119.261 1.13941 120.465 1.99341C121.669 2.84741 122.341 4.03041 122.481 5.54241H120.507C120.283 4.56241 119.793 3.79941 119.037 3.25341C118.281 2.69341 117.35 2.41341 116.244 2.41341C114.578 2.41341 113.318 3.00141 112.464 4.17741C111.624 5.35341 111.204 6.80241 111.204 8.52441C111.204 10.4284 111.652 11.9264 112.548 13.0184C113.444 14.1104 114.669 14.6564 116.223 14.6564C117.497 14.6564 118.512 14.2924 119.268 13.5644C120.024 12.8224 120.479 11.7514 120.633 10.3514H122.607Z" fill="black"/>
<path d="M135.453 1.04841V2.77041H127.074V7.45341H134.907V9.11241H127.074V14.2784H135.558V16.0004H125.1V1.04841H135.453Z" fill="black"/>
<path d="M139.911 16.0004H137.938V1.04841H147.766V2.77041H139.911V16.0004Z" fill="black"/>
<path d="M155.722 0.691406C157.99 0.691406 159.754 1.40541 161.014 2.83341C162.274 4.24741 162.904 6.10241 162.904 8.39841C162.904 10.7084 162.281 12.6124 161.035 14.1104C159.789 15.6084 158.025 16.3574 155.743 16.3574C154.581 16.3574 153.538 16.1474 152.614 15.7274C151.69 15.3074 150.934 14.7264 150.346 13.9844C149.772 13.2424 149.331 12.3954 149.023 11.4434C148.729 10.4914 148.582 9.46241 148.582 8.35641C148.582 6.01841 149.226 4.15641 150.514 2.77041C151.816 1.38441 153.552 0.691406 155.722 0.691406ZM155.722 2.41341C154.056 2.41341 152.775 3.00141 151.879 4.17741C150.997 5.33941 150.556 6.78141 150.556 8.50341C150.556 10.3794 151.025 11.8774 151.963 12.9974C152.915 14.1034 154.182 14.6564 155.764 14.6564C157.332 14.6564 158.585 14.0964 159.523 12.9764C160.461 11.8564 160.93 10.3654 160.93 8.50341C160.93 6.65541 160.454 5.17841 159.502 4.07241C158.564 2.96641 157.304 2.41341 155.722 2.41341Z" fill="black"/>
<path d="M178.544 19.7174H176.633V16.0004H165.818V19.7174H163.907V14.2784H165.377C165.951 13.2564 166.42 11.7934 166.784 9.88941C167.148 7.97141 167.33 5.99041 167.33 3.94641V1.04841H176.885V14.2784H178.544V19.7174ZM174.911 14.2784V2.77041H169.262V4.80741C169.262 6.61341 169.094 8.40541 168.758 10.1834C168.436 11.9474 168.037 13.3124 167.561 14.2784H174.911Z" fill="black"/>
<path d="M192.376 1.04841V16.0004H190.402V9.00741H182.506V16.0004H180.532V1.04841H182.506V7.28541H190.402V1.04841H192.376Z" fill="black"/>
<path d="M201.316 9.61641L196.38 16.0004H193.945L198.943 9.55341C197.753 9.39941 196.835 8.96541 196.191 8.25141C195.547 7.53741 195.225 6.56441 195.225 5.33241C195.225 3.94641 195.638 2.88941 196.464 2.16141C197.304 1.41941 198.467 1.04841 199.951 1.04841H206.376V16.0004H204.402V9.61641H201.316ZM204.402 7.93641V2.72841H200.622C198.354 2.72841 197.221 3.59641 197.221 5.33241C197.221 7.06841 198.354 7.93641 200.622 7.93641H204.402Z" fill="black"/>
</svg>
