<svg width="639" height="101" viewBox="0 0 639 101" fill="none" xmlns="http://www.w3.org/2000/svg">
<path d="M75.5848 2.30161V98.6984H62.9873V53.6139H12.5975V98.6984H0V2.30161H12.5975V42.5121H62.9873V2.30161H75.5848Z" fill="black"/>
<path d="M136.921 0C151.395 0 162.652 4.60322 170.693 13.8097C178.734 22.9258 182.754 34.8852 182.754 49.6877C182.754 64.5804 178.779 76.8557 170.827 86.5134C162.875 96.1711 151.618 101 137.055 101C129.64 101 122.983 99.6461 117.087 96.9383C111.19 94.2306 106.365 90.4848 102.613 85.7011C98.9499 80.9173 96.1356 75.4567 94.17 69.319C92.2938 63.1814 91.3557 56.5474 91.3557 49.4169C91.3557 34.3436 95.4655 22.3391 103.685 13.4035C111.994 4.46783 123.073 0 136.921 0ZM136.921 11.1019C126.289 11.1019 118.114 14.8928 112.396 22.4745C106.768 29.966 103.953 39.2627 103.953 50.3646C103.953 62.4593 106.946 72.1171 112.932 79.3378C119.008 86.4683 127.093 90.0335 137.189 90.0335C147.196 90.0335 155.192 86.4231 161.178 79.2024C167.164 71.9817 170.157 62.3691 170.157 50.3646C170.157 38.4504 167.119 28.9281 161.044 21.7976C155.058 14.6671 147.017 11.1019 136.921 11.1019Z" fill="black"/>
<path d="M198.537 2.30161H239.278C248.033 2.30161 255.27 4.24218 260.988 8.12332C266.795 12.0045 269.699 18.097 269.699 26.4008C269.699 31.1845 268.404 35.4719 265.813 39.2627C263.311 42.9634 259.916 45.5809 255.627 47.1153C261.524 48.4692 266.036 51.2672 269.163 55.5094C272.379 59.7516 273.988 65.0769 273.988 71.4853C273.988 89.6273 261.926 98.6984 237.803 98.6984H198.537V2.30161ZM210.866 13.1327V43.5952H233.515C236.106 43.5952 238.295 43.55 240.082 43.4598C241.958 43.2793 244.057 42.9182 246.38 42.3767C248.703 41.8351 250.535 41.0679 251.875 40.0751C253.305 38.992 254.511 37.4576 255.493 35.4719C256.566 33.4862 257.102 31.0943 257.102 28.2962C257.102 25.4982 256.655 23.1515 255.761 21.256C254.868 19.2703 253.796 17.7811 252.545 16.7882C251.294 15.7051 249.552 14.8928 247.318 14.3512C245.174 13.8097 243.209 13.4937 241.422 13.4035C239.724 13.223 237.491 13.1327 234.721 13.1327H210.866ZM210.866 53.6139V88.0027H236.061C239.188 88.0027 241.734 87.9576 243.7 87.8673C245.666 87.6868 247.855 87.2806 250.267 86.6488C252.768 86.017 254.734 85.1144 256.163 83.941C257.593 82.6774 258.799 80.9173 259.782 78.6609C260.765 76.3141 261.256 73.5161 261.256 70.2668C261.256 67.559 260.899 65.2122 260.184 63.2265C259.559 61.2408 258.442 59.6613 256.834 58.4879C255.315 57.3146 253.841 56.3669 252.411 55.6448C251.071 54.9227 249.105 54.4263 246.514 54.1555C243.923 53.8847 241.913 53.7493 240.484 53.7493C239.054 53.6591 236.865 53.6139 233.917 53.6139H210.866Z" fill="black"/>
<path d="M330.485 0C344.958 0 356.216 4.60322 364.257 13.8097C372.297 22.9258 376.318 34.8852 376.318 49.6877C376.318 64.5804 372.342 76.8557 364.391 86.5134C356.439 96.1711 345.182 101 330.619 101C323.203 101 316.547 99.6461 310.65 96.9383C304.754 94.2306 299.929 90.4848 296.177 85.7011C292.513 80.9173 289.699 75.4567 287.734 69.319C285.857 63.1814 284.919 56.5474 284.919 49.4169C284.919 34.3436 289.029 22.3391 297.249 13.4035C305.558 4.46783 316.636 0 330.485 0ZM330.485 11.1019C319.853 11.1019 311.678 14.8928 305.96 22.4745C300.331 29.966 297.517 39.2627 297.517 50.3646C297.517 62.4593 300.51 72.1171 306.496 79.3378C312.571 86.4683 320.657 90.0335 330.753 90.0335C340.759 90.0335 348.755 86.4231 354.741 79.2024C360.727 71.9817 363.72 62.3691 363.72 50.3646C363.72 38.4504 360.683 28.9281 354.607 21.7976C348.621 14.6671 340.58 11.1019 330.485 11.1019Z" fill="black"/>
<path d="M472.912 62.2788C471.84 74.4638 467.64 83.9862 460.314 90.8458C453.077 97.6153 443.518 101 431.635 101C418.055 101 407.289 96.487 399.337 87.4611C391.386 78.345 387.41 66.0697 387.41 50.6354C387.41 36.1939 391.386 24.1895 399.337 14.622C407.378 4.96425 418.457 0.135387 432.573 0.135387C442.669 0.135387 451.559 2.88829 459.242 8.3941C466.926 13.8999 471.214 21.5268 472.108 31.2748H459.51C458.081 24.9567 454.954 20.0375 450.129 16.5174C445.305 12.9071 439.363 11.1019 432.305 11.1019C421.673 11.1019 413.632 14.8928 408.182 22.4745C402.822 30.0563 400.141 39.3981 400.141 50.5C400.141 62.7753 403 72.433 408.718 79.4732C414.436 86.5134 422.254 90.0335 432.171 90.0335C440.301 90.0335 446.779 87.6868 451.603 82.9933C456.428 78.2096 459.332 71.3047 460.314 62.2788H472.912Z" fill="black"/>
<path d="M552.665 2.30161V13.4035H520.635V98.6984H508.037V13.4035H476.008V2.30161H552.665Z" fill="black"/>
<path d="M563.415 98.6984V2.30161H576.013V83.941H576.281L623.052 2.30161H639V98.6984H626.403V16.7882H626.135L579.229 98.6984H563.415Z" fill="black"/>
</svg>
