<svg width="1673" height="101" viewBox="0 0 1673 101" fill="none" xmlns="http://www.w3.org/2000/svg">
<path d="M1501.7 2.27882V97.7212H1489.09V53.0831H1438.62V97.7212H1426V2.27882H1438.62V42.0912H1489.09V2.27882H1501.7Z" fill="black"/>
<path d="M1563.14 0C1577.63 0 1588.91 4.55764 1596.96 13.6729C1605.01 22.6988 1609.04 34.5398 1609.04 49.1957C1609.04 63.941 1605.06 76.0947 1597.09 85.6568C1589.13 95.2189 1577.86 100 1563.27 100C1555.84 100 1549.18 98.6595 1543.27 95.9786C1537.36 93.2976 1532.53 89.5889 1528.77 84.8526C1525.1 80.1162 1522.29 74.7096 1520.32 68.6327C1518.44 62.5559 1517.5 55.9875 1517.5 48.9276C1517.5 34.0036 1521.61 22.118 1529.85 13.2708C1538.17 4.42359 1549.27 0 1563.14 0ZM1563.14 10.992C1552.49 10.992 1544.3 14.7453 1538.57 22.252C1532.93 29.6693 1530.12 38.874 1530.12 49.866C1530.12 61.8409 1533.11 71.403 1539.11 78.5523C1545.19 85.6122 1553.29 89.1421 1563.4 89.1421C1573.43 89.1421 1581.43 85.5675 1587.43 78.4182C1593.43 71.269 1596.42 61.7516 1596.42 49.866C1596.42 38.0697 1593.38 28.6416 1587.3 21.5818C1581.3 14.5219 1573.25 10.992 1563.14 10.992Z" fill="black"/>
<path d="M1624.85 2.27882H1665.65C1674.42 2.27882 1681.67 4.20018 1687.4 8.0429C1693.21 11.8856 1696.12 17.9178 1696.12 26.1394C1696.12 30.8758 1694.82 35.1206 1692.23 38.874C1689.72 42.538 1686.32 45.1296 1682.03 46.6488C1687.93 47.9893 1692.45 50.7596 1695.58 54.9598C1698.81 59.16 1700.42 64.4325 1700.42 70.7775C1700.42 88.74 1688.34 97.7212 1664.18 97.7212H1624.85V2.27882ZM1637.2 13.0027V43.1635H1659.88C1662.48 43.1635 1664.67 43.1189 1666.46 43.0295C1668.34 42.8508 1670.44 42.4933 1672.77 41.9571C1675.09 41.4209 1676.93 40.6613 1678.27 39.6783C1679.7 38.6059 1680.91 37.0867 1681.89 35.1206C1682.97 33.1546 1683.5 30.7864 1683.5 28.0161C1683.5 25.2458 1683.06 22.9223 1682.16 21.0456C1681.27 19.0795 1680.19 17.605 1678.94 16.622C1677.69 15.5496 1675.94 14.7453 1673.71 14.2091C1671.56 13.6729 1669.59 13.3601 1667.8 13.2708C1666.1 13.092 1663.86 13.0027 1661.09 13.0027H1637.2ZM1637.2 53.0831V87.1314H1662.43C1665.56 87.1314 1668.11 87.0867 1670.08 86.9973C1672.05 86.8186 1674.24 86.4165 1676.66 85.7909C1679.16 85.1653 1681.13 84.2717 1682.56 83.1099C1684 81.8588 1685.2 80.1162 1686.19 77.882C1687.17 75.5585 1687.66 72.7882 1687.66 69.571C1687.66 66.8901 1687.31 64.5666 1686.59 62.6005C1685.96 60.6345 1684.85 59.0706 1683.24 57.9088C1681.71 56.7471 1680.24 55.8088 1678.81 55.0938C1677.46 54.3789 1675.5 53.8874 1672.9 53.6193C1670.31 53.3512 1668.29 53.2172 1666.86 53.2172C1665.43 53.1278 1663.24 53.0831 1660.28 53.0831H1637.2Z" fill="black"/>
<path d="M1757 0C1771.5 0 1782.77 4.55764 1790.83 13.6729C1798.88 22.6988 1802.91 34.5398 1802.91 49.1957C1802.91 63.941 1798.92 76.0947 1790.96 85.6568C1783 95.2189 1771.72 100 1757.14 100C1749.71 100 1743.04 98.6595 1737.14 95.9786C1731.23 93.2976 1726.4 89.5889 1722.64 84.8526C1718.97 80.1162 1716.15 74.7096 1714.18 68.6327C1712.3 62.5559 1711.37 55.9875 1711.37 48.9276C1711.37 34.0036 1715.48 22.118 1723.71 13.2708C1732.04 4.42359 1743.13 0 1757 0ZM1757 10.992C1746.35 10.992 1738.17 14.7453 1732.44 22.252C1726.8 29.6693 1723.98 38.874 1723.98 49.866C1723.98 61.8409 1726.98 71.403 1732.98 78.5523C1739.06 85.6122 1747.16 89.1421 1757.27 89.1421C1767.29 89.1421 1775.3 85.5675 1781.3 78.4182C1787.29 71.269 1790.29 61.7516 1790.29 49.866C1790.29 38.0697 1787.25 28.6416 1781.16 21.5818C1775.17 14.5219 1767.11 10.992 1757 10.992Z" fill="black"/>
<path d="M1899.65 61.6622C1898.58 73.7265 1894.37 83.1546 1887.03 89.9464C1879.79 96.6488 1870.21 100 1858.31 100C1844.71 100 1833.93 95.5317 1825.96 86.5952C1818 77.5693 1814.02 65.4156 1814.02 50.1341C1814.02 35.8356 1818 23.95 1825.96 14.4772C1834.02 4.9151 1845.11 0.134047 1859.25 0.134047C1869.36 0.134047 1878.27 2.85969 1885.96 8.31099C1893.66 13.7623 1897.95 21.3137 1898.85 30.9651H1886.23C1884.8 24.7096 1881.67 19.8391 1876.83 16.3539C1872 12.7793 1866.05 10.992 1858.98 10.992C1848.33 10.992 1840.28 14.7453 1834.82 22.252C1829.45 29.7587 1826.77 39.008 1826.77 50C1826.77 62.1537 1829.63 71.7158 1835.36 78.6863C1841.08 85.6568 1848.91 89.1421 1858.85 89.1421C1866.99 89.1421 1873.48 86.8186 1878.31 82.1716C1883.14 77.4352 1886.05 70.5988 1887.03 61.6622H1899.65Z" fill="black"/>
<path d="M1979.53 2.27882V13.2708H1947.45V97.7212H1934.83V13.2708H1902.75V2.27882H1979.53Z" fill="black"/>
<path d="M1990.3 97.7212V2.27882H2002.91V83.1099H2003.18L2050.03 2.27882H2066V97.7212H2053.38V16.622H2053.11L2006.14 97.7212H1990.3Z" fill="black"/>
<path d="M786.703 2.27882V97.7212H774.086V53.0831H723.617V97.7212H711V2.27882H723.617V42.0912H774.086V2.27882H786.703Z" fill="black"/>
<path d="M848.135 0C862.632 0 873.907 4.55764 881.96 13.6729C890.014 22.6988 894.04 34.5398 894.04 49.1957C894.04 63.941 890.058 76.0947 882.094 85.6568C874.13 95.2189 862.855 100 848.27 100C840.842 100 834.176 98.6595 828.27 95.9786C822.364 93.2976 817.532 89.5889 813.774 84.8526C810.105 80.1162 807.286 74.7096 805.317 68.6327C803.438 62.5559 802.499 55.9875 802.499 48.9276C802.499 34.0036 806.615 22.118 814.847 13.2708C823.169 4.42359 834.265 0 848.135 0ZM848.135 10.992C837.487 10.992 829.299 14.7453 823.572 22.252C817.935 29.6693 815.116 38.874 815.116 49.866C815.116 61.8409 818.114 71.403 824.109 78.5523C830.194 85.6122 838.292 89.1421 848.404 89.1421C858.426 89.1421 866.435 85.5675 872.43 78.4182C878.425 71.269 881.423 61.7516 881.423 49.866C881.423 38.0697 878.381 28.6416 872.296 21.5818C866.3 14.5219 858.247 10.992 848.135 10.992Z" fill="black"/>
<path d="M909.848 2.27882H950.652C959.421 2.27882 966.67 4.20018 972.396 8.0429C978.213 11.8856 981.121 17.9178 981.121 26.1394C981.121 30.8758 979.824 35.1206 977.229 38.874C974.723 42.538 971.323 45.1296 967.027 46.6488C972.933 47.9893 977.452 50.7596 980.584 54.9598C983.806 59.16 985.416 64.4325 985.416 70.7775C985.416 88.74 973.336 97.7212 949.176 97.7212H909.848V2.27882ZM922.196 13.0027V43.1635H944.88C947.475 43.1635 949.668 43.1189 951.457 43.0295C953.337 42.8508 955.439 42.4933 957.766 41.9571C960.093 41.4209 961.927 40.6613 963.269 39.6783C964.701 38.6059 965.909 37.0867 966.893 35.1206C967.967 33.1546 968.504 30.7864 968.504 28.0161C968.504 25.2458 968.057 22.9223 967.162 21.0456C966.267 19.0795 965.193 17.605 963.94 16.622C962.688 15.5496 960.943 14.7453 958.706 14.2091C956.558 13.6729 954.589 13.3601 952.8 13.2708C951.099 13.092 948.862 13.0027 946.088 13.0027H922.196ZM922.196 53.0831V87.1314H947.431C950.563 87.1314 953.113 87.0867 955.081 86.9973C957.05 86.8186 959.242 86.4165 961.658 85.7909C964.164 85.1653 966.133 84.2717 967.564 83.1099C968.996 81.8588 970.204 80.1162 971.188 77.882C972.173 75.5585 972.665 72.7882 972.665 69.571C972.665 66.8901 972.307 64.5666 971.591 62.6005C970.965 60.6345 969.846 59.0706 968.236 57.9088C966.714 56.7471 965.238 55.8088 963.806 55.0938C962.464 54.3789 960.495 53.8874 957.9 53.6193C955.305 53.3512 953.292 53.2172 951.86 53.2172C950.428 53.1278 948.236 53.0831 945.283 53.0831H922.196Z" fill="black"/>
<path d="M1042 0C1056.5 0 1067.77 4.55764 1075.83 13.6729C1083.88 22.6988 1087.91 34.5398 1087.91 49.1957C1087.91 63.941 1083.92 76.0947 1075.96 85.6568C1068 95.2189 1056.72 100 1042.14 100C1034.71 100 1028.04 98.6595 1022.14 95.9786C1016.23 93.2976 1011.4 89.5889 1007.64 84.8526C1003.97 80.1162 1001.15 74.7096 999.184 68.6327C997.305 62.5559 996.365 55.9875 996.365 48.9276C996.365 34.0036 1000.48 22.118 1008.71 13.2708C1017.04 4.42359 1028.13 0 1042 0ZM1042 10.992C1031.35 10.992 1023.17 14.7453 1017.44 22.252C1011.8 29.6693 1008.98 38.874 1008.98 49.866C1008.98 61.8409 1011.98 71.403 1017.98 78.5523C1024.06 85.6122 1032.16 89.1421 1042.27 89.1421C1052.29 89.1421 1060.3 85.5675 1066.3 78.4182C1072.29 71.269 1075.29 61.7516 1075.29 49.866C1075.29 38.0697 1072.25 28.6416 1066.16 21.5818C1060.17 14.5219 1052.11 10.992 1042 10.992Z" fill="black"/>
<path d="M1184.65 61.6622C1183.58 73.7265 1179.37 83.1546 1172.03 89.9464C1164.79 96.6488 1155.21 100 1143.31 100C1129.71 100 1118.93 95.5317 1110.96 86.5952C1103 77.5693 1099.02 65.4156 1099.02 50.1341C1099.02 35.8356 1103 23.95 1110.96 14.4772C1119.02 4.9151 1130.11 0.134047 1144.25 0.134047C1154.36 0.134047 1163.27 2.85969 1170.96 8.31099C1178.66 13.7623 1182.95 21.3137 1183.85 30.9651H1171.23C1169.8 24.7096 1166.67 19.8391 1161.83 16.3539C1157 12.7793 1151.05 10.992 1143.98 10.992C1133.33 10.992 1125.28 14.7453 1119.82 22.252C1114.45 29.7587 1111.77 39.008 1111.77 50C1111.77 62.1537 1114.63 71.7158 1120.36 78.6863C1126.08 85.6568 1133.91 89.1421 1143.85 89.1421C1151.99 89.1421 1158.48 86.8186 1163.31 82.1716C1168.14 77.4352 1171.05 70.5988 1172.03 61.6622H1184.65Z" fill="black"/>
<path d="M1264.53 2.27882V13.2708H1232.45V97.7212H1219.83V13.2708H1187.75V2.27882H1264.53Z" fill="black"/>
<path d="M1275.3 97.7212V2.27882H1287.91V83.1099H1288.18L1335.03 2.27882H1351V97.7212H1338.38V16.622H1338.11L1291.14 97.7212H1275.3Z" fill="black"/>
<path d="M75.7031 4.25603V98.744H63.0859V54.5523H12.6172V98.744H0V4.25603H12.6172V43.6702H63.0859V4.25603H75.7031Z" fill="black"/>
<path d="M137.135 2C151.632 2 162.907 6.51206 170.96 15.5362C179.014 24.4718 183.04 36.1944 183.04 50.7038C183.04 65.3016 179.058 77.3338 171.094 86.8003C163.13 96.2668 151.855 101 137.27 101C129.842 101 123.176 99.6729 117.27 97.0188C111.364 94.3646 106.532 90.693 102.774 86.004C99.1048 81.315 96.2861 75.9625 94.3174 69.9464C92.4383 63.9303 91.4987 57.4276 91.4987 50.4383C91.4987 35.6635 95.6149 23.8968 103.847 15.1381C112.169 6.37936 123.265 2 137.135 2ZM137.135 12.882C126.487 12.882 118.299 16.5979 112.572 24.0295C106.935 31.3727 104.116 40.4853 104.116 51.3673C104.116 63.2225 107.114 72.689 113.109 79.7668C119.194 86.756 127.292 90.2507 137.404 90.2507C147.426 90.2507 155.435 86.7118 161.43 79.634C167.425 72.5563 170.423 63.1341 170.423 51.3673C170.423 39.689 167.381 30.3552 161.296 23.366C155.3 16.3767 147.247 12.882 137.135 12.882Z" fill="black"/>
<path d="M198.848 4.25603H239.652C248.421 4.25603 255.67 6.15818 261.396 9.96247C267.213 13.7668 270.121 19.7386 270.121 27.878C270.121 32.567 268.824 36.7694 266.229 40.4853C263.723 44.1126 260.323 46.6783 256.027 48.1823C261.933 49.5094 266.452 52.252 269.584 56.4102C272.806 60.5684 274.416 65.7882 274.416 72.0697C274.416 89.8525 262.336 98.744 238.176 98.744H198.848V4.25603ZM211.196 14.8727V44.7319H233.88C236.475 44.7319 238.668 44.6877 240.457 44.5992C242.337 44.4223 244.439 44.0684 246.766 43.5375C249.093 43.0067 250.927 42.2547 252.269 41.2815C253.701 40.2198 254.909 38.7158 255.893 36.7694C256.967 34.8231 257.504 32.4786 257.504 29.7359C257.504 26.9933 257.057 24.693 256.162 22.8351C255.267 20.8887 254.193 19.429 252.94 18.4558C251.688 17.3941 249.943 16.5979 247.706 16.067C245.558 15.5362 243.589 15.2265 241.8 15.1381C240.099 14.9611 237.862 14.8727 235.088 14.8727H211.196ZM211.196 54.5523V88.26H236.431C239.563 88.26 242.113 88.2158 244.081 88.1273C246.05 87.9504 248.242 87.5523 250.658 86.933C253.164 86.3137 255.133 85.429 256.564 84.2788C257.996 83.0402 259.204 81.315 260.188 79.1032C261.173 76.8029 261.665 74.0603 261.665 70.8753C261.665 68.2212 261.307 65.9209 260.591 63.9745C259.965 62.0282 258.846 60.4799 257.236 59.3298C255.714 58.1796 254.238 57.2507 252.806 56.5429C251.464 55.8351 249.495 55.3485 246.9 55.0831C244.305 54.8177 242.292 54.685 240.86 54.685C239.428 54.5965 237.236 54.5523 234.283 54.5523H211.196Z" fill="black"/>
<path d="M331.002 2C345.498 2 356.773 6.51206 364.827 15.5362C372.88 24.4718 376.907 36.1944 376.907 50.7038C376.907 65.3016 372.925 77.3338 364.961 86.8003C356.997 96.2668 345.722 101 331.136 101C323.709 101 317.042 99.6729 311.136 97.0188C305.231 94.3646 300.398 90.693 296.64 86.004C292.971 81.315 290.153 75.9625 288.184 69.9464C286.305 63.9303 285.365 57.4276 285.365 50.4383C285.365 35.6635 289.481 23.8968 297.714 15.1381C306.036 6.37936 317.132 2 331.002 2ZM331.002 12.882C320.353 12.882 312.165 16.5979 306.439 24.0295C300.801 31.3727 297.982 40.4853 297.982 51.3673C297.982 63.2225 300.98 72.689 306.975 79.7668C313.06 86.756 321.159 90.2507 331.27 90.2507C341.292 90.2507 349.301 86.7118 355.297 79.634C361.292 72.5563 364.29 63.1341 364.29 51.3673C364.29 39.689 361.247 30.3552 355.162 23.366C349.167 16.3767 341.113 12.882 331.002 12.882Z" fill="black"/>
<path d="M473.652 63.0456C472.578 74.9893 468.372 84.3231 461.035 91.0469C453.786 97.6823 444.212 101 432.31 101C418.709 101 407.926 96.5764 399.962 87.7292C391.998 78.7936 388.016 66.7614 388.016 51.6327C388.016 37.4772 391.998 25.7105 399.962 16.3324C408.016 6.86595 419.112 2.13271 433.25 2.13271C443.362 2.13271 452.265 4.8311 459.961 10.2279C467.656 15.6247 471.952 23.1005 472.846 32.6555H460.229C458.798 26.4625 455.666 21.6408 450.834 18.1903C446.001 14.6515 440.051 12.882 432.982 12.882C422.333 12.882 414.28 16.5979 408.821 24.0295C403.452 31.4611 400.767 40.618 400.767 51.5C400.767 63.5322 403.631 72.9987 409.358 79.8995C415.085 86.8003 422.915 90.2507 432.847 90.2507C440.99 90.2507 447.478 87.9504 452.31 83.3499C457.142 78.6609 460.05 71.8928 461.035 63.0456H473.652Z" fill="black"/>
<path d="M553.53 4.25603V15.1381H521.45V98.744H508.833V15.1381H476.753V4.25603H553.53Z" fill="black"/>
<path d="M564.297 98.744V4.25603H576.914V84.2788H577.183L624.027 4.25603H640V98.744H627.383V18.4558H627.114L580.136 98.744H564.297Z" fill="black"/>
</svg>
