<svg width="1306" height="121" viewBox="0 0 1306 121" fill="none" xmlns="http://www.w3.org/2000/svg">
<path d="M75.5086 2.26444V97.1043H62.9238V52.748H12.5848V97.1043H0V2.26444H12.5848V41.8254H62.9238V2.26444H75.5086Z" fill="black"/>
<path d="M117.184 100C112.915 100 109.229 99.2761 106.124 97.8282C103.117 96.4769 100.643 94.5464 98.7027 92.0368C96.7624 89.5272 95.3072 86.5833 94.337 83.205C93.3669 79.8266 92.8818 76.1105 92.8818 72.0565C92.8818 67.1338 93.6094 61.9216 95.0646 56.4198C96.6169 50.9179 98.7512 45.5126 101.468 40.2039C104.184 34.8951 107.434 29.8276 111.218 25.0014C115.001 20.0788 119.124 15.7835 123.587 12.1156C128.147 8.44772 132.997 5.55202 138.139 3.42851C143.281 1.20847 148.568 0.0984555 154.001 0.0984555C158.173 0.0984555 161.811 0.822379 164.915 2.27023C168.02 3.62155 170.542 5.55202 172.482 8.06162C174.423 10.5712 175.878 13.5152 176.848 16.8935C177.818 20.2718 178.303 23.988 178.303 28.0419C178.303 32.9646 177.527 38.1769 175.975 43.6787C174.52 49.1805 172.434 54.5858 169.718 59.8946C167.001 65.2034 163.751 70.3191 159.968 75.2418C156.184 80.0679 152.012 84.315 147.453 87.9829C142.99 91.6507 138.188 94.5947 133.046 96.8147C127.904 98.9382 122.617 100 117.184 100ZM123.005 95.3669C127.371 95.3669 131.445 94.0638 135.229 91.4577C139.012 88.755 142.408 85.2802 145.415 81.0332C148.52 76.7862 151.236 72.0565 153.565 66.8443C155.99 61.5355 158.027 56.275 159.677 51.0627C161.326 45.7539 162.538 40.783 163.315 36.1499C164.188 31.4202 164.624 27.5593 164.624 24.5671C164.624 21.7679 164.333 19.1135 163.751 16.6039C163.266 14.0943 162.393 11.9226 161.132 10.0886C159.871 8.15814 158.124 6.66203 155.893 5.60028C153.759 4.442 151.042 3.86286 147.744 3.86286C143.475 3.86286 139.449 5.21418 135.665 7.91683C131.979 10.523 128.583 13.9495 125.479 18.1966C122.471 22.4436 119.755 27.2215 117.33 32.5303C115.001 37.7425 113.012 43.003 111.363 48.3118C109.811 53.5241 108.598 58.495 107.725 63.2246C106.949 67.8578 106.561 71.6704 106.561 74.6627C106.561 77.4618 106.803 80.1162 107.289 82.6258C107.871 85.1354 108.744 87.3555 109.908 89.2859C111.169 91.1199 112.867 92.616 115.001 93.7743C117.136 94.836 119.803 95.3669 123.005 95.3669Z" fill="black"/>
<path d="M190.981 2.26444H231.681C240.427 2.26444 247.657 4.17367 253.369 7.99212C259.171 11.8106 262.071 17.8047 262.071 25.9744C262.071 30.6809 260.777 34.8989 258.189 38.6286C255.69 42.2695 252.298 44.8447 248.014 46.3543C253.905 47.6863 258.412 50.4392 261.536 54.6128C264.749 58.7865 266.356 64.0258 266.356 70.3307C266.356 88.1798 254.306 97.1043 230.208 97.1043H190.981V2.26444ZM203.298 12.9206V42.8911H225.924C228.512 42.8911 230.699 42.8467 232.484 42.7579C234.358 42.5803 236.456 42.2251 238.776 41.6922C241.097 41.1594 242.927 40.4046 244.265 39.4278C245.693 38.3622 246.898 36.8526 247.88 34.8989C248.951 32.9453 249.487 30.5921 249.487 27.8392C249.487 25.0864 249.04 22.7776 248.148 20.9127C247.255 18.9591 246.184 17.4939 244.935 16.5171C243.685 15.4514 241.945 14.6522 239.713 14.1194C237.571 13.5866 235.608 13.2758 233.823 13.187C232.127 13.0094 229.895 12.9206 227.129 12.9206H203.298ZM203.298 52.748V86.5813H228.467C231.591 86.5813 234.135 86.5369 236.099 86.4481C238.062 86.2705 240.249 85.8709 242.659 85.2493C245.158 84.6277 247.121 83.7397 248.549 82.5853C249.978 81.3421 251.182 79.6104 252.164 77.3904C253.146 75.0816 253.637 72.3287 253.637 69.1319C253.637 66.4678 253.28 64.159 252.566 62.2054C251.941 60.2517 250.825 58.6977 249.219 57.5433C247.702 56.3889 246.229 55.4565 244.801 54.746C243.462 54.0356 241.498 53.5472 238.91 53.2808C236.322 53.0144 234.314 52.8812 232.885 52.8812C231.457 52.7924 229.271 52.748 226.325 52.748H203.298Z" fill="black"/>
<path d="M322.796 0C337.255 0 348.501 4.52887 356.534 13.5866C364.566 22.5555 368.583 34.3217 368.583 48.8852C368.583 63.5374 364.611 75.6144 356.667 85.1161C348.724 94.6179 337.478 99.3687 322.93 99.3687C315.521 99.3687 308.872 98.0367 302.981 95.3727C297.091 92.7086 292.271 89.0234 288.522 84.3169C284.863 79.6104 282.051 74.2379 280.088 68.1994C278.213 62.161 277.276 55.6341 277.276 48.6188C277.276 33.7889 281.382 21.9783 289.593 13.187C297.894 4.39567 308.961 0 322.796 0ZM322.796 10.9226C312.174 10.9226 304.008 14.6522 298.296 22.1115C292.673 29.4821 289.861 38.6286 289.861 49.5512C289.861 61.4506 292.851 70.9523 298.831 78.0564C304.9 85.0717 312.978 88.5794 323.063 88.5794C333.06 88.5794 341.048 85.0273 347.028 77.9232C353.008 70.8191 355.998 61.3617 355.998 49.5512C355.998 37.8294 352.963 28.4608 346.894 21.4455C340.914 14.4302 332.881 10.9226 322.796 10.9226Z" fill="black"/>
<path d="M465.079 61.2729C464.008 73.2611 459.813 82.6297 452.494 89.3786C445.265 96.0387 435.715 99.3687 423.844 99.3687C410.277 99.3687 399.522 94.9287 391.579 86.0485C383.635 77.0796 379.663 65.0026 379.663 49.8176C379.663 35.6093 383.635 23.7988 391.579 14.3858C399.612 4.88407 410.679 0.1332 424.781 0.1332C434.867 0.1332 443.748 2.84164 451.423 8.25852C459.099 13.6754 463.383 21.1791 464.276 30.7697H451.691C450.263 24.5536 447.139 19.7139 442.32 16.2506C437.5 12.6986 431.564 10.9226 424.513 10.9226C413.892 10.9226 405.859 14.6522 400.415 22.1115C395.06 29.5709 392.382 38.7618 392.382 49.6844C392.382 61.7614 395.238 71.2631 400.95 78.1896C406.663 85.1161 414.472 88.5794 424.38 88.5794C432.502 88.5794 438.973 86.2705 443.792 81.6529C448.612 76.9464 451.513 70.1531 452.494 61.2729H465.079Z" fill="black"/>
<path d="M544.752 2.26444V13.187H512.754V97.1043H500.169V13.187H468.172V2.26444H544.752Z" fill="black"/>
<path d="M555.491 97.1043V2.26444H568.076V82.5853H568.344L615.068 2.26444H631V97.1043H618.415V16.5171H618.147L571.289 97.1043H555.491Z" fill="black"/>
<path d="M770.627 61.4349C769.554 73.4548 765.348 82.8481 758.011 89.6148C750.764 96.2925 741.19 99.6313 729.29 99.6313C715.69 99.6313 704.908 95.1796 696.945 86.2759C688.982 77.2833 685 65.1744 685 49.9492C685 35.7035 688.982 23.8617 696.945 14.4238C704.998 4.89698 716.092 0.133552 730.229 0.133552C740.34 0.133552 749.243 2.84915 756.938 8.28035C764.632 13.7116 768.927 21.2351 769.822 30.851H757.206C755.774 24.6185 752.643 19.766 747.811 16.2936C742.98 12.7322 737.03 10.9514 729.961 10.9514C719.314 10.9514 711.261 14.691 705.803 22.17C700.434 29.649 697.75 38.8642 697.75 49.8157C697.75 61.9246 700.613 71.4514 706.34 78.3963C712.066 85.3411 719.895 88.8135 729.827 88.8135C737.969 88.8135 744.456 86.4985 749.288 81.8687C754.119 77.1497 757.027 70.3385 758.011 61.4349H770.627Z" fill="black"/>
<path d="M852.722 2.27042V13.2219H799.171V43.0044H849.233V53.5552H799.171V86.4095H853.393V97.3609H786.556V2.27042H852.722Z" fill="black"/>
<path d="M881.219 97.3609H868.603V2.27042H931.414V13.2219H881.219V97.3609Z" fill="black"/>
<path d="M982.264 0C996.759 0 1008.03 4.54084 1016.09 13.6225C1024.14 22.6152 1028.16 34.4124 1028.16 49.0144C1028.16 63.7053 1024.18 75.8142 1016.22 85.3411C1008.26 94.8679 996.982 99.6313 982.398 99.6313C974.972 99.6313 968.306 98.2958 962.401 95.6247C956.495 92.9537 951.664 89.2587 947.906 84.5397C944.237 79.8208 941.419 74.4341 939.45 68.3797C937.571 62.3252 936.632 55.7811 936.632 48.7472C936.632 33.8782 940.748 22.0364 948.979 13.2219C957.3 4.40728 968.395 0 982.264 0ZM982.264 10.9514C971.616 10.9514 963.429 14.691 957.703 22.17C952.066 29.56 949.248 38.7307 949.248 49.6821C949.248 61.613 952.245 71.1398 958.24 78.2627C964.324 85.2965 972.422 88.8135 982.532 88.8135C992.553 88.8135 1000.56 85.252 1006.56 78.1291C1012.55 71.0063 1015.55 61.5239 1015.55 49.6821C1015.55 37.9294 1012.51 28.5361 1006.42 21.5022C1000.43 14.4684 992.375 10.9514 982.264 10.9514Z" fill="black"/>
<path d="M1128.12 121H1115.91V97.3609H1046.79V121H1034.58V86.4095H1043.97C1047.64 79.9099 1050.64 70.6056 1052.96 58.4967C1055.29 46.2988 1056.45 33.7001 1056.45 20.7009V2.27042H1117.52V86.4095H1128.12V121ZM1104.9 86.4095V13.2219H1068.8V26.1766C1068.8 37.6623 1067.73 49.0589 1065.58 60.3665C1063.52 71.585 1060.97 80.266 1057.93 86.4095H1104.9Z" fill="black"/>
<path d="M1216.52 2.27042V97.3609H1203.91V52.8874H1153.44V97.3609H1140.83V2.27042H1153.44V41.936H1203.91V2.27042H1216.52Z" fill="black"/>
<path d="M1273.65 56.7605L1242.12 97.3609H1226.55L1258.49 56.3598C1250.88 55.3804 1245.02 52.6203 1240.91 48.0795C1236.79 43.5386 1234.73 37.3506 1234.73 29.5155C1234.73 20.7009 1237.37 13.9787 1242.65 9.34879C1248.02 4.62988 1255.45 2.27042 1264.93 2.27042H1306V97.3609H1293.38V56.7605H1273.65ZM1293.38 46.0762V12.9547H1269.23C1254.73 12.9547 1247.48 18.475 1247.48 29.5155C1247.48 40.5559 1254.73 46.0762 1269.23 46.0762H1293.38Z" fill="black"/>
</svg>
