<svg width="1541" height="104" viewBox="0 0 1541 104" fill="none" xmlns="http://www.w3.org/2000/svg">
<path d="M85.3201 50.6354C85.3201 65.7989 81.1614 77.9839 72.8441 87.1904C64.5267 96.3968 53.9287 101 41.0502 101C29.6921 101 20.391 97.8861 13.1468 91.6582C5.99208 85.34 1.60981 76.5398 0 65.2574H12.7444C14.1753 73.2904 17.2608 79.4281 22.0008 83.6702C26.7408 87.9124 32.9117 90.0335 40.5136 90.0335C49.6359 90.0335 57.1037 86.7842 62.9169 80.2855C68.8195 73.6966 72.0391 64.761 72.5757 53.4786H26.1595V42.7828H72.0391C70.8765 33.4861 67.7016 25.9044 62.5144 20.0375C57.3272 14.0804 50.0831 11.1019 40.7819 11.1019C33.8061 11.1019 27.8587 12.8168 22.9398 16.2466C18.1104 19.6765 14.9355 24.37 13.4151 30.3271H0.670755C1.38623 24.0089 3.75623 18.5031 7.78076 13.8097C11.8947 9.11618 16.7689 5.68633 22.4032 3.52011C28.127 1.26363 34.1638 0.135387 40.5136 0.135387C54.9125 0.135387 65.9576 4.91912 73.649 14.4866C81.4297 23.9638 85.3201 36.0134 85.3201 50.6354Z" fill="black"/>
<path d="M165.69 2.30161V13.4035H133.628V98.6984H121.018V13.4035H88.9558V2.30161H165.69Z" fill="black"/>
<path d="M214.339 0C228.827 0 240.096 4.60322 248.145 13.8097C256.194 22.9258 260.219 34.8852 260.219 49.6877C260.219 64.5804 256.239 76.8557 248.279 86.5134C240.319 96.1711 229.051 101 214.473 101C207.05 101 200.387 99.6461 194.485 96.9383C188.582 94.2306 183.752 90.4848 179.996 85.7011C176.329 80.9173 173.512 75.4567 171.545 69.319C169.667 63.1814 168.727 56.5474 168.727 49.4169C168.727 34.3436 172.841 22.3391 181.069 13.4035C189.387 4.46783 200.477 0 214.339 0ZM214.339 11.1019C203.696 11.1019 195.513 14.8928 189.789 22.4745C184.155 29.966 181.338 39.2627 181.338 50.3646C181.338 62.4593 184.334 72.1171 190.326 79.3378C196.407 86.4683 204.501 90.0335 214.607 90.0335C224.624 90.0335 232.628 86.4231 238.62 79.2024C244.612 71.9817 247.608 62.3691 247.608 50.3646C247.608 38.4504 244.568 28.9281 238.486 21.7976C232.494 14.6671 224.445 11.1019 214.339 11.1019Z" fill="black"/>
<path d="M389.015 2.30161V98.6984H376.405V53.6139H325.964V98.6984H313.354V2.30161H325.964V42.5121H376.405V2.30161H389.015Z" fill="black"/>
<path d="M450.413 0C464.902 0 476.17 4.60322 484.219 13.8097C492.269 22.9258 496.293 34.8852 496.293 49.6877C496.293 64.5804 492.313 76.8557 484.354 86.5134C476.394 96.1711 465.125 101 450.548 101C443.124 101 436.462 99.6461 430.559 96.9383C424.656 94.2306 419.827 90.4848 416.071 85.7011C412.404 80.9173 409.587 75.4567 407.619 69.319C405.741 63.1814 404.802 56.5474 404.802 49.4169C404.802 34.3436 408.916 22.3391 417.144 13.4035C425.461 4.46783 436.551 0 450.413 0ZM450.413 11.1019C439.771 11.1019 431.587 14.8928 425.864 22.4745C420.229 29.966 417.412 39.2627 417.412 50.3646C417.412 62.4593 420.408 72.1171 426.4 79.3378C432.482 86.4683 440.576 90.0335 450.682 90.0335C460.698 90.0335 468.703 86.4231 474.695 79.2024C480.687 71.9817 483.683 62.3691 483.683 50.3646C483.683 38.4504 480.642 28.9281 474.561 21.7976C468.568 14.6671 460.519 11.1019 450.413 11.1019Z" fill="black"/>
<path d="M512.091 2.30161H552.873C561.638 2.30161 568.882 4.24218 574.606 8.12332C580.419 12.0045 583.326 18.097 583.326 26.4008C583.326 31.1845 582.029 35.4719 579.435 39.2627C576.931 42.9634 573.533 45.5809 569.24 47.1153C575.142 48.4692 579.659 51.2672 582.789 55.5094C586.009 59.7516 587.619 65.0769 587.619 71.4853C587.619 89.6273 575.545 98.6984 551.398 98.6984H512.091V2.30161ZM524.433 13.1327V43.5952H547.105C549.698 43.5952 551.89 43.55 553.678 43.4598C555.556 43.2793 557.658 42.9182 559.983 42.3767C562.309 41.8351 564.142 41.0679 565.484 40.0751C566.914 38.992 568.122 37.4576 569.106 35.4719C570.179 33.4862 570.715 31.0943 570.715 28.2962C570.715 25.4982 570.268 23.1515 569.374 21.256C568.48 19.2703 567.406 17.7811 566.154 16.7882C564.902 15.7051 563.158 14.8928 560.922 14.3512C558.776 13.8097 556.808 13.4937 555.02 13.4035C553.321 13.223 551.085 13.1327 548.312 13.1327H524.433ZM524.433 53.6139V88.0027H549.654C552.784 88.0027 555.333 87.9576 557.3 87.8673C559.268 87.6868 561.459 87.2806 563.874 86.6488C566.378 86.017 568.345 85.1144 569.776 83.941C571.207 82.6774 572.415 80.9173 573.398 78.6609C574.382 76.3141 574.874 73.5161 574.874 70.2668C574.874 67.559 574.516 65.2122 573.801 63.2265C573.175 61.2408 572.057 59.6613 570.447 58.4879C568.927 57.3146 567.451 56.3669 566.02 55.6448C564.679 54.9227 562.711 54.4263 560.117 54.1555C557.524 53.8847 555.512 53.7493 554.081 53.7493C552.65 53.6591 550.459 53.6139 547.507 53.6139H524.433Z" fill="black"/>
<path d="M644.173 0C658.661 0 669.93 4.60322 677.979 13.8097C686.028 22.9258 690.052 34.8852 690.052 49.6877C690.052 64.5804 686.072 76.8557 678.113 86.5134C670.153 96.1711 658.885 101 644.307 101C636.884 101 630.221 99.6461 624.318 96.9383C618.416 94.2306 613.586 90.4848 609.83 85.7011C606.163 80.9173 603.346 75.4567 601.378 69.319C599.5 63.1814 598.561 56.5474 598.561 49.4169C598.561 34.3436 602.675 22.3391 610.903 13.4035C619.221 4.46783 630.31 0 644.173 0ZM644.173 11.1019C633.53 11.1019 625.347 14.8928 619.623 22.4745C613.989 29.966 611.172 39.2627 611.172 50.3646C611.172 62.4593 614.167 72.1171 620.16 79.3378C626.241 86.4683 634.335 90.0335 644.441 90.0335C654.458 90.0335 662.462 86.4231 668.454 79.2024C674.446 71.9817 677.442 62.3691 677.442 50.3646C677.442 38.4504 674.401 28.9281 668.32 21.7976C662.328 14.6671 654.279 11.1019 644.173 11.1019Z" fill="black"/>
<path d="M786.744 62.2788C785.671 74.4638 781.467 83.9862 774.134 90.8458C766.889 97.6153 757.32 101 745.425 101C731.831 101 721.055 96.487 713.095 87.4611C705.135 78.345 701.155 66.0697 701.155 50.6354C701.155 36.1939 705.135 24.1895 713.095 14.622C721.144 4.96425 732.234 0.135387 746.364 0.135387C756.47 0.135387 765.369 2.88829 773.06 8.3941C780.752 13.8999 785.045 21.5268 785.939 31.2748H773.329C771.898 24.9567 768.768 20.0375 763.938 16.5174C759.109 12.9071 753.161 11.1019 746.096 11.1019C735.453 11.1019 727.404 14.8928 721.949 22.4745C716.583 30.0563 713.9 39.3981 713.9 50.5C713.9 62.7753 716.762 72.433 722.485 79.4732C728.209 86.5134 736.035 90.0335 745.962 90.0335C754.1 90.0335 760.584 87.6868 765.414 82.9933C770.243 78.2096 773.15 71.3047 774.134 62.2788H786.744Z" fill="black"/>
<path d="M866.577 2.30161V13.4035H834.515V98.6984H821.905V13.4035H789.843V2.30161H866.577Z" fill="black"/>
<path d="M877.339 98.6984V2.30161H889.949V83.941H890.217L937.036 2.30161H953V98.6984H940.39V16.7882H940.122L893.169 98.6984H877.339Z" fill="black"/>
<path d="M1347.25 91.2735V101.698H1286C1286.27 96.3731 1287.06 91.7248 1288.39 87.7534C1289.71 83.782 1291.75 80.2167 1294.49 77.0576C1297.31 73.8083 1300.05 71.1457 1302.71 69.0697C1305.36 66.9938 1309.11 64.4214 1313.97 61.3526C1321.58 56.4786 1326.57 52.8231 1328.96 50.3861C1333.91 45.4218 1336.38 39.916 1336.38 33.8686C1336.38 28.5433 1334.7 24.2109 1331.34 20.8713C1327.98 17.4415 1323.61 15.7265 1318.22 15.7265C1311.77 15.7265 1307.12 18.0281 1304.3 22.6314C1301.56 27.1443 1300.1 32.8758 1299.92 39.8257H1288.52V37.2534C1288.52 27.7761 1291.26 20.1492 1296.74 14.3727C1302.31 8.59607 1309.64 5.70777 1318.75 5.70777C1327.67 5.70777 1334.79 8.23503 1340.09 13.2895C1345.4 18.3441 1348.05 25.1135 1348.05 33.5979C1348.05 37.2082 1347.43 40.6381 1346.19 43.8874C1345.04 47.0465 1343.72 49.7091 1342.21 51.8753C1340.8 54.0416 1338.59 56.3432 1335.59 58.7802C1332.67 61.2172 1330.24 63.1126 1328.29 64.4665C1326.35 65.7301 1323.56 67.4902 1319.94 69.7467C1312.69 74.1694 1307.88 77.5992 1305.49 80.0362C1302.13 83.466 1299.97 87.2118 1298.99 91.2735H1347.25Z" fill="black"/>
<path d="M1424.64 68.7989V78.5469H1411.91V101.698H1401.3V78.5469H1360.07V67.7158L1402.76 5.70777H1411.91V68.7989H1424.64ZM1401.3 68.7989V22.6314L1370.01 68.7989H1401.3Z" fill="black"/>
<path d="M1476.56 3L1437.19 104H1427.64L1467.28 3H1476.56Z" fill="black"/>
<path d="M1541 7.46783V17.3512C1520.49 41.2699 1508.52 69.3856 1505.07 101.698H1492.61C1493.67 86.8959 1497.47 72.2288 1504.01 57.6971C1510.64 43.1653 1519.12 30.0777 1529.47 18.4343H1480.28V7.46783H1541Z" fill="black"/>
</svg>
