<svg width="2053" height="101" viewBox="0 0 2053 101" fill="none" xmlns="http://www.w3.org/2000/svg">
<path d="M1489.58 2.30161V98.6984H1476.99V53.6139H1426.6V98.6984H1414V2.30161H1426.6V42.5121H1476.99V2.30161H1489.58Z" fill="black"/>
<path d="M1550.92 0C1565.39 0 1576.65 4.60322 1584.69 13.8097C1592.73 22.9258 1596.75 34.8852 1596.75 49.6877C1596.75 64.5804 1592.78 76.8557 1584.83 86.5134C1576.88 96.1711 1565.62 101 1551.06 101C1543.64 101 1536.98 99.6461 1531.09 96.9383C1525.19 94.2306 1520.37 90.4848 1516.61 85.7011C1512.95 80.9173 1510.14 75.4567 1508.17 69.319C1506.29 63.1814 1505.36 56.5474 1505.36 49.4169C1505.36 34.3436 1509.47 22.3391 1517.69 13.4035C1525.99 4.46783 1537.07 0 1550.92 0ZM1550.92 11.1019C1540.29 11.1019 1532.11 14.8928 1526.4 22.4745C1520.77 29.966 1517.95 39.2627 1517.95 50.3646C1517.95 62.4593 1520.95 72.1171 1526.93 79.3378C1533.01 86.4683 1541.09 90.0335 1551.19 90.0335C1561.2 90.0335 1569.19 86.4232 1575.18 79.2024C1581.16 71.9817 1584.16 62.3691 1584.16 50.3646C1584.16 38.4504 1581.12 28.9281 1575.04 21.7976C1569.06 14.6671 1561.02 11.1019 1550.92 11.1019Z" fill="black"/>
<path d="M1612.54 2.30161H1653.28C1662.03 2.30161 1669.27 4.24218 1674.99 8.12332C1680.8 12.0045 1683.7 18.097 1683.7 26.4008C1683.7 31.1845 1682.4 35.4719 1679.81 39.2627C1677.31 42.9634 1673.92 45.5809 1669.63 47.1153C1675.52 48.4692 1680.04 51.2672 1683.16 55.5094C1686.38 59.7516 1687.99 65.0769 1687.99 71.4853C1687.99 89.6274 1675.93 98.6984 1651.8 98.6984H1612.54V2.30161ZM1624.87 13.1327V43.5952H1647.51C1650.11 43.5952 1652.29 43.55 1654.08 43.4598C1655.96 43.2793 1658.06 42.9182 1660.38 42.3767C1662.7 41.8351 1664.53 41.0679 1665.87 40.0751C1667.3 38.992 1668.51 37.4576 1669.49 35.4719C1670.57 33.4862 1671.1 31.0943 1671.1 28.2962C1671.1 25.4982 1670.65 23.1515 1669.76 21.256C1668.87 19.2703 1667.8 17.7811 1666.55 16.7882C1665.29 15.7051 1663.55 14.8928 1661.32 14.3512C1659.17 13.8097 1657.21 13.4937 1655.42 13.4035C1653.72 13.223 1651.49 13.1327 1648.72 13.1327H1624.87ZM1624.87 53.6139V88.0027H1650.06C1653.19 88.0027 1655.73 87.9576 1657.7 87.8673C1659.67 87.6868 1661.85 87.2806 1664.27 86.6488C1666.77 86.017 1668.73 85.1144 1670.16 83.941C1671.59 82.6774 1672.8 80.9173 1673.78 78.6609C1674.76 76.3141 1675.26 73.5161 1675.26 70.2668C1675.26 67.559 1674.9 65.2122 1674.18 63.2265C1673.56 61.2408 1672.44 59.6613 1670.83 58.4879C1669.31 57.3146 1667.84 56.3669 1666.41 55.6448C1665.07 54.9227 1663.11 54.4263 1660.51 54.1555C1657.92 53.8847 1655.91 53.7493 1654.48 53.7493C1653.05 53.6591 1650.87 53.6139 1647.92 53.6139H1624.87Z" fill="black"/>
<path d="M1744.48 0C1758.96 0 1770.22 4.60322 1778.26 13.8097C1786.3 22.9258 1790.32 34.8852 1790.32 49.6877C1790.32 64.5804 1786.34 76.8557 1778.39 86.5134C1770.44 96.1711 1759.18 101 1744.62 101C1737.2 101 1730.55 99.6461 1724.65 96.9383C1718.75 94.2306 1713.93 90.4848 1710.18 85.7011C1706.51 80.9173 1703.7 75.4567 1701.73 69.319C1699.86 63.1814 1698.92 56.5474 1698.92 49.4169C1698.92 34.3436 1703.03 22.3391 1711.25 13.4035C1719.56 4.46783 1730.64 0 1744.48 0ZM1744.48 11.1019C1733.85 11.1019 1725.68 14.8928 1719.96 22.4745C1714.33 29.966 1711.52 39.2627 1711.52 50.3646C1711.52 62.4593 1714.51 72.1171 1720.5 79.3378C1726.57 86.4683 1734.66 90.0335 1744.75 90.0335C1754.76 90.0335 1762.76 86.4232 1768.74 79.2024C1774.73 71.9817 1777.72 62.3691 1777.72 50.3646C1777.72 38.4504 1774.68 28.9281 1768.61 21.7976C1762.62 14.6671 1754.58 11.1019 1744.48 11.1019Z" fill="black"/>
<path d="M1886.91 62.2788C1885.84 74.4638 1881.64 83.9862 1874.31 90.8458C1867.08 97.6153 1857.52 101 1845.63 101C1832.05 101 1821.29 96.487 1813.34 87.4611C1805.39 78.345 1801.41 66.0697 1801.41 50.6354C1801.41 36.1939 1805.39 24.1895 1813.34 14.622C1821.38 4.96425 1832.46 0.135387 1846.57 0.135387C1856.67 0.135387 1865.56 2.88829 1873.24 8.3941C1880.93 13.8999 1885.21 21.5268 1886.11 31.2748H1873.51C1872.08 24.9567 1868.95 20.0375 1864.13 16.5174C1859.3 12.9071 1853.36 11.1019 1846.31 11.1019C1835.67 11.1019 1827.63 14.8928 1822.18 22.4745C1816.82 30.0563 1814.14 39.3981 1814.14 50.5C1814.14 62.7753 1817 72.433 1822.72 79.4732C1828.44 86.5134 1836.25 90.0335 1846.17 90.0335C1854.3 90.0335 1860.78 87.6868 1865.6 82.9933C1870.43 78.2096 1873.33 71.3047 1874.31 62.2788H1886.91Z" fill="black"/>
<path d="M1966.66 2.30161V13.4035H1934.63V98.6984H1922.04V13.4035H1890.01V2.30161H1966.66Z" fill="black"/>
<path d="M1977.42 98.6984V2.30161H1990.01V83.941H1990.28L2037.05 2.30161H2053V98.6984H2040.4V16.7882H2040.13L1993.23 98.6984H1977.42Z" fill="black"/>
<path d="M783.703 2.30161V98.6984H771.086V53.6139H720.617V98.6984H708V2.30161H720.617V42.5121H771.086V2.30161H783.703Z" fill="black"/>
<path d="M845.135 0C859.632 0 870.907 4.60322 878.96 13.8097C887.014 22.9258 891.04 34.8852 891.04 49.6877C891.04 64.5804 887.058 76.8557 879.094 86.5134C871.13 96.1711 859.855 101 845.27 101C837.842 101 831.176 99.6461 825.27 96.9383C819.364 94.2306 814.532 90.4848 810.774 85.7011C807.105 80.9173 804.286 75.4567 802.317 69.319C800.438 63.1814 799.499 56.5474 799.499 49.4169C799.499 34.3436 803.615 22.3391 811.847 13.4035C820.169 4.46783 831.265 0 845.135 0ZM845.135 11.1019C834.487 11.1019 826.299 14.8928 820.572 22.4745C814.935 29.966 812.116 39.2627 812.116 50.3646C812.116 62.4593 815.114 72.1171 821.109 79.3378C827.194 86.4683 835.292 90.0335 845.404 90.0335C855.426 90.0335 863.435 86.4232 869.43 79.2024C875.425 71.9817 878.423 62.3691 878.423 50.3646C878.423 38.4504 875.381 28.9281 869.296 21.7976C863.3 14.6671 855.247 11.1019 845.135 11.1019Z" fill="black"/>
<path d="M906.847 2.30161H947.652C956.421 2.30161 963.67 4.24218 969.396 8.12332C975.213 12.0045 978.121 18.097 978.121 26.4008C978.121 31.1845 976.824 35.4719 974.229 39.2627C971.723 42.9634 968.323 45.5809 964.027 47.1153C969.933 48.4692 974.452 51.2672 977.584 55.5094C980.806 59.7516 982.416 65.0769 982.416 71.4853C982.416 89.6274 970.336 98.6984 946.176 98.6984H906.847V2.30161ZM919.196 13.1327V43.5952H941.88C944.475 43.5952 946.668 43.55 948.457 43.4598C950.337 43.2793 952.439 42.9182 954.766 42.3767C957.093 41.8351 958.927 41.0679 960.269 40.0751C961.701 38.992 962.909 37.4576 963.893 35.4719C964.967 33.4862 965.504 31.0943 965.504 28.2962C965.504 25.4982 965.057 23.1515 964.162 21.256C963.267 19.2703 962.193 17.7811 960.94 16.7882C959.688 15.7051 957.943 14.8928 955.706 14.3512C953.558 13.8097 951.589 13.4937 949.8 13.4035C948.099 13.223 945.862 13.1327 943.088 13.1327H919.196ZM919.196 53.6139V88.0027H944.431C947.563 88.0027 950.113 87.9576 952.081 87.8673C954.05 87.6868 956.242 87.2806 958.658 86.6488C961.164 86.017 963.133 85.1144 964.564 83.941C965.996 82.6774 967.204 80.9173 968.188 78.6609C969.173 76.3141 969.665 73.5161 969.665 70.2668C969.665 67.559 969.307 65.2122 968.591 63.2265C967.965 61.2408 966.846 59.6613 965.236 58.4879C963.714 57.3146 962.238 56.3669 960.806 55.6448C959.464 54.9227 957.495 54.4263 954.9 54.1555C952.305 53.8847 950.292 53.7493 948.86 53.7493C947.428 53.6591 945.236 53.6139 942.283 53.6139H919.196Z" fill="black"/>
<path d="M1039 0C1053.5 0 1064.77 4.60322 1072.83 13.8097C1080.88 22.9258 1084.91 34.8852 1084.91 49.6877C1084.91 64.5804 1080.92 76.8557 1072.96 86.5134C1065 96.1711 1053.72 101 1039.14 101C1031.71 101 1025.04 99.6461 1019.14 96.9383C1013.23 94.2306 1008.4 90.4848 1004.64 85.7011C1000.97 80.9173 998.153 75.4567 996.184 69.319C994.305 63.1814 993.365 56.5474 993.365 49.4169C993.365 34.3436 997.481 22.3391 1005.71 13.4035C1014.04 4.46783 1025.13 0 1039 0ZM1039 11.1019C1028.35 11.1019 1020.17 14.8928 1014.44 22.4745C1008.8 29.966 1005.98 39.2627 1005.98 50.3646C1005.98 62.4593 1008.98 72.1171 1014.98 79.3378C1021.06 86.4683 1029.16 90.0335 1039.27 90.0335C1049.29 90.0335 1057.3 86.4232 1063.3 79.2024C1069.29 71.9817 1072.29 62.3691 1072.29 50.3646C1072.29 38.4504 1069.25 28.9281 1063.16 21.7976C1057.17 14.6671 1049.11 11.1019 1039 11.1019Z" fill="black"/>
<path d="M1181.65 62.2788C1180.58 74.4638 1176.37 83.9862 1169.03 90.8458C1161.79 97.6153 1152.21 101 1140.31 101C1126.71 101 1115.93 96.487 1107.96 87.4611C1100 78.345 1096.02 66.0697 1096.02 50.6354C1096.02 36.1939 1100 24.1895 1107.96 14.622C1116.02 4.96425 1127.11 0.135387 1141.25 0.135387C1151.36 0.135387 1160.27 2.88829 1167.96 8.3941C1175.66 13.8999 1179.95 21.5268 1180.85 31.2748H1168.23C1166.8 24.9567 1163.67 20.0375 1158.83 16.5174C1154 12.9071 1148.05 11.1019 1140.98 11.1019C1130.33 11.1019 1122.28 14.8928 1116.82 22.4745C1111.45 30.0563 1108.77 39.3981 1108.77 50.5C1108.77 62.7753 1111.63 72.433 1117.36 79.4732C1123.08 86.5134 1130.91 90.0335 1140.85 90.0335C1148.99 90.0335 1155.48 87.6868 1160.31 82.9933C1165.14 78.2096 1168.05 71.3047 1169.03 62.2788H1181.65Z" fill="black"/>
<path d="M1261.53 2.30161V13.4035H1229.45V98.6984H1216.83V13.4035H1184.75V2.30161H1261.53Z" fill="black"/>
<path d="M1272.3 98.6984V2.30161H1284.91V83.941H1285.18L1332.03 2.30161H1348V98.6984H1335.38V16.7882H1335.11L1288.14 98.6984H1272.3Z" fill="black"/>
<path d="M75.4665 2.30161V98.6984H62.8888V53.6139H12.5778V98.6984H0V2.30161H12.5778V42.5121H62.8888V2.30161H75.4665Z" fill="black"/>
<path d="M136.707 0C151.158 0 162.397 4.60322 170.426 13.8097C178.454 22.9258 182.468 34.8852 182.468 49.6877C182.468 64.5804 178.499 76.8557 170.56 86.5134C162.62 96.1711 151.381 101 136.841 101C129.437 101 122.791 99.6461 116.903 96.9383C111.016 94.2306 106.199 90.4848 102.452 85.7011C98.7951 80.9173 95.9852 75.4567 94.0227 69.319C92.1494 63.1814 91.2128 56.5474 91.2128 49.4169C91.2128 34.3436 95.3161 22.3391 103.523 13.4035C111.819 4.46783 122.88 0 136.707 0ZM136.707 11.1019C126.091 11.1019 117.929 14.8928 112.22 22.4745C106.6 29.966 103.791 39.2627 103.791 50.3646C103.791 62.4593 106.779 72.1171 112.755 79.3378C118.821 86.4683 126.894 90.0335 136.974 90.0335C146.965 90.0335 154.949 86.4232 160.926 79.2024C166.902 71.9817 169.891 62.3691 169.891 50.3646C169.891 38.4504 166.858 28.9281 160.792 21.7976C154.815 14.6671 146.787 11.1019 136.707 11.1019Z" fill="black"/>
<path d="M198.226 2.30161H238.903C247.645 2.30161 254.871 4.24218 260.58 8.12332C266.378 12.0045 269.277 18.097 269.277 26.4008C269.277 31.1845 267.984 35.4719 265.397 39.2627C262.899 42.9634 259.509 45.5809 255.227 47.1153C261.115 48.4692 265.62 51.2672 268.742 55.5094C271.953 59.7516 273.559 65.0769 273.559 71.4853C273.559 89.6274 261.516 98.6984 237.431 98.6984H198.226V2.30161ZM210.536 13.1327V43.5952H233.149C235.736 43.5952 237.922 43.55 239.706 43.4598C241.579 43.2793 243.676 42.9182 245.995 42.3767C248.314 41.8351 250.143 41.0679 251.481 40.0751C252.908 38.992 254.112 37.4576 255.094 35.4719C256.164 33.4862 256.699 31.0943 256.699 28.2962C256.699 25.4982 256.253 23.1515 255.361 21.256C254.469 19.2703 253.399 17.7811 252.15 16.7882C250.901 15.7051 249.162 14.8928 246.931 14.3512C244.791 13.8097 242.828 13.4937 241.044 13.4035C239.349 13.223 237.119 13.1327 234.354 13.1327H210.536ZM210.536 53.6139V88.0027H235.692C238.814 88.0027 241.356 87.9576 243.319 87.8673C245.281 87.6868 247.467 87.2806 249.875 86.6488C252.373 86.017 254.335 85.1144 255.763 83.941C257.19 82.6774 258.394 80.9173 259.375 78.6609C260.357 76.3141 260.847 73.5161 260.847 70.2668C260.847 67.559 260.49 65.2122 259.777 63.2265C259.152 61.2408 258.037 59.6613 256.432 58.4879C254.915 57.3146 253.443 56.3669 252.016 55.6448C250.678 54.9227 248.716 54.4263 246.129 54.1555C243.542 53.8847 241.535 53.7493 240.107 53.7493C238.68 53.6591 236.495 53.6139 233.551 53.6139H210.536Z" fill="black"/>
<path d="M329.967 0C344.418 0 355.658 4.60322 363.686 13.8097C371.715 22.9258 375.729 34.8852 375.729 49.6877C375.729 64.5804 371.759 76.8557 363.82 86.5134C355.881 96.1711 344.641 101 330.101 101C322.697 101 316.052 99.6461 310.164 96.9383C304.277 94.2306 299.46 90.4848 295.713 85.7011C292.056 80.9173 289.246 75.4567 287.283 69.319C285.41 63.1814 284.473 56.5474 284.473 49.4169C284.473 34.3436 288.577 22.3391 296.784 13.4035C305.079 4.46783 316.141 0 329.967 0ZM329.967 11.1019C319.352 11.1019 311.19 14.8928 305.481 22.4745C299.861 29.966 297.051 39.2627 297.051 50.3646C297.051 62.4593 300.039 72.1171 306.016 79.3378C312.082 86.4683 320.155 90.0335 330.235 90.0335C340.226 90.0335 348.21 86.4232 354.186 79.2024C360.163 71.9817 363.151 62.3691 363.151 50.3646C363.151 38.4504 360.118 28.9281 354.052 21.7976C348.076 14.6671 340.047 11.1019 329.967 11.1019Z" fill="black"/>
<path d="M472.172 62.2788C471.101 74.4638 466.909 83.9862 459.594 90.8458C452.368 97.6153 442.824 101 430.959 101C417.4 101 406.651 96.487 398.712 87.4611C390.773 78.345 386.804 66.0697 386.804 50.6354C386.804 36.1939 390.773 24.1895 398.712 14.622C406.741 4.96425 417.802 0.135387 431.896 0.135387C441.976 0.135387 450.852 2.88829 458.523 8.3941C466.195 13.8999 470.477 21.5268 471.369 31.2748H458.791C457.364 24.9567 454.242 20.0375 449.425 16.5174C444.608 12.9071 438.676 11.1019 431.629 11.1019C421.013 11.1019 412.985 14.8928 407.543 22.4745C402.191 30.0563 399.515 39.3981 399.515 50.5C399.515 62.7753 402.37 72.433 408.079 79.4732C413.788 86.5134 421.593 90.0335 431.495 90.0335C439.612 90.0335 446.08 87.6868 450.897 82.9933C455.714 78.2096 458.613 71.3047 459.594 62.2788H472.172Z" fill="black"/>
<path d="M551.8 2.30161V13.4035H519.82V98.6984H507.242V13.4035H475.263V2.30161H551.8Z" fill="black"/>
<path d="M562.534 98.6984V2.30161H575.111V83.941H575.379L622.077 2.30161H638V98.6984H625.422V16.7882H625.155L578.323 98.6984H562.534Z" fill="black"/>
</svg>
