<svg width="535" height="148" viewBox="0 0 535 148" fill="none" xmlns="http://www.w3.org/2000/svg">
<path d="M14.7447 49.918V34.7016H0V30.6393H14.7447V15.4229H19.2087V30.6393H33.9534V34.7016H19.2087V49.918H14.7447Z" fill="black"/>
<path d="M71.3298 1.99672V7.02295C60.8688 19.1869 54.759 33.4852 53.0004 49.918H46.6426C47.1837 42.3902 49.1226 34.9311 52.4593 27.541C55.8411 20.1508 60.1699 13.4951 65.4455 7.57377H40.3524V1.99672H71.3298Z" fill="black"/>
<path d="M93.0184 0C87.0213 9.40983 84.0227 19.9902 84.0227 31.741C84.0227 42.941 87.0213 53.3607 93.0184 63H88.622C84.9696 57.2164 82.2867 52.0066 80.5733 47.3705C78.9049 42.6885 78.0708 37.5016 78.0708 31.8098C78.0708 20.1967 81.5878 9.59344 88.622 0H93.0184Z" fill="black"/>
<path d="M95.7095 38.1443H101.391C101.707 40.5311 102.631 42.4131 104.164 43.7902C105.742 45.1213 107.749 45.7869 110.184 45.7869C116.451 45.7869 120.014 40.4852 120.87 29.882C120.96 28.918 121.006 27.8393 121.006 26.6459C118.3 31.0984 114.4 33.3246 109.304 33.3246C104.931 33.3246 101.391 31.8787 98.6855 28.9869C95.9801 26.0492 94.6274 22.2164 94.6274 17.4885C94.6274 12.6229 96.0928 8.67541 99.0237 5.6459C101.955 2.61639 105.765 1.10164 110.454 1.10164C121.456 1.10164 126.958 9.04262 126.958 24.9246C126.958 27.3574 126.8 29.6984 126.484 31.9475C126.214 34.1508 125.695 36.4459 124.928 38.8328C124.162 41.1738 123.17 43.2164 121.952 44.9607C120.735 46.7049 119.089 48.1279 117.015 49.2295C114.986 50.3311 112.641 50.882 109.981 50.882C105.923 50.882 102.586 49.7574 99.9706 47.5082C97.4005 45.259 95.9801 42.1377 95.7095 38.1443ZM110.184 6.33443C107.343 6.33443 105.043 7.34426 103.285 9.36393C101.571 11.3377 100.715 13.977 100.715 17.282C100.715 20.4033 101.526 22.9967 103.15 25.0623C104.818 27.082 107.163 28.0918 110.184 28.0918C113.115 28.0918 115.482 27.1279 117.286 25.2C119.089 23.2262 119.991 20.6328 119.991 17.4197C119.991 14.0689 119.089 11.3836 117.286 9.36393C115.482 7.34426 113.115 6.33443 110.184 6.33443Z" fill="black"/>
<path d="M162.85 44.6164V49.918H131.602C131.737 47.2098 132.143 44.8459 132.819 42.8262C133.496 40.8066 134.533 38.9934 135.93 37.3869C137.373 35.7344 138.771 34.3803 140.124 33.3246C141.477 32.2689 143.393 30.9607 145.873 29.4C149.751 26.9213 152.298 25.0623 153.516 23.8229C156.041 21.2984 157.303 18.4984 157.303 15.4229C157.303 12.7148 156.447 10.5115 154.733 8.81312C153.02 7.06885 150.788 6.19672 148.037 6.19672C144.746 6.19672 142.378 7.36721 140.935 9.70819C139.538 12.0033 138.794 14.918 138.703 18.4525H132.887V17.1443C132.887 12.3246 134.285 8.4459 137.08 5.50819C139.921 2.57049 143.663 1.10164 148.308 1.10164C152.862 1.10164 156.492 2.38688 159.197 4.95737C161.903 7.52787 163.255 10.9705 163.255 15.2852C163.255 17.1213 162.94 18.8656 162.309 20.518C161.722 22.1246 161.046 23.4787 160.279 24.5803C159.558 25.682 158.431 26.8525 156.898 28.0918C155.41 29.3311 154.17 30.2951 153.178 30.9836C152.186 31.6262 150.765 32.5213 148.917 33.6688C145.219 35.918 142.762 37.6623 141.544 38.9016C139.831 40.6459 138.726 42.5508 138.23 44.6164H162.85Z" fill="black"/>
<path d="M200.433 44.6164V49.918H169.185C169.32 47.2098 169.726 44.8459 170.402 42.8262C171.079 40.8066 172.116 38.9934 173.513 37.3869C174.956 35.7344 176.354 34.3803 177.707 33.3246C179.06 32.2689 180.976 30.9607 183.456 29.4C187.334 26.9213 189.881 25.0623 191.099 23.8229C193.624 21.2984 194.887 18.4984 194.887 15.4229C194.887 12.7148 194.03 10.5115 192.316 8.81312C190.603 7.06885 188.371 6.19672 185.62 6.19672C182.329 6.19672 179.961 7.36721 178.519 9.70819C177.121 12.0033 176.377 14.918 176.287 18.4525H170.47V17.1443C170.47 12.3246 171.868 8.4459 174.663 5.50819C177.504 2.57049 181.247 1.10164 185.891 1.10164C190.445 1.10164 194.075 2.38688 196.78 4.95737C199.486 7.52787 200.839 10.9705 200.839 15.2852C200.839 17.1213 200.523 18.8656 199.892 20.518C199.305 22.1246 198.629 23.4787 197.863 24.5803C197.141 25.682 196.014 26.8525 194.481 28.0918C192.993 29.3311 191.753 30.2951 190.761 30.9836C189.769 31.6262 188.348 32.5213 186.5 33.6688C182.802 35.918 180.345 37.6623 179.127 38.9016C177.414 40.6459 176.309 42.5508 175.813 44.6164H200.433Z" fill="black"/>
<path d="M219.213 31.8098C219.213 37.5016 218.356 42.6885 216.643 47.3705C214.974 52.0066 212.314 57.2164 208.662 63H204.265C210.262 53.3607 213.261 42.941 213.261 31.741C213.261 19.9902 210.262 9.40983 204.265 0H208.662C215.696 9.59344 219.213 20.1967 219.213 31.8098Z" fill="black"/>
<path d="M255.519 44.6164V49.918H224.271C224.407 47.2098 224.812 44.8459 225.489 42.8262C226.165 40.8066 227.202 38.9934 228.6 37.3869C230.043 35.7344 231.441 34.3803 232.793 33.3246C234.146 32.2689 236.063 30.9607 238.543 29.4C242.42 26.9213 244.968 25.0623 246.185 23.8229C248.711 21.2984 249.973 18.4984 249.973 15.4229C249.973 12.7148 249.116 10.5115 247.403 8.81312C245.689 7.06885 243.457 6.19672 240.707 6.19672C237.415 6.19672 235.048 7.36721 233.605 9.70819C232.207 12.0033 231.463 14.918 231.373 18.4525H225.556V17.1443C225.556 12.3246 226.954 8.4459 229.75 5.50819C232.591 2.57049 236.333 1.10164 240.977 1.10164C245.532 1.10164 249.161 2.38688 251.867 4.95737C254.572 7.52787 255.925 10.9705 255.925 15.2852C255.925 17.1213 255.609 18.8656 254.978 20.518C254.392 22.1246 253.716 23.4787 252.949 24.5803C252.228 25.682 251.1 26.8525 249.567 28.0918C248.079 29.3311 246.839 30.2951 245.847 30.9836C244.855 31.6262 243.435 32.5213 241.586 33.6688C237.889 35.918 235.431 37.6623 234.214 38.9016C232.5 40.6459 231.396 42.5508 230.9 44.6164H255.519Z" fill="black"/>
<path d="M278.899 1.10164C281.785 1.10164 284.242 1.65246 286.271 2.7541C288.345 3.80983 289.923 5.11803 291.006 6.67869C292.088 8.23934 292.944 10.282 293.576 12.8066C294.207 15.2852 294.59 17.5344 294.726 19.5541C294.861 21.5279 294.928 23.9148 294.928 26.7148C294.928 29.2852 294.816 31.6033 294.59 33.6688C294.41 35.7344 293.982 37.8918 293.305 40.141C292.674 42.3902 291.795 44.2721 290.667 45.7869C289.54 47.2557 288.007 48.4721 286.068 49.4361C284.129 50.4 281.83 50.882 279.169 50.882C276.374 50.882 273.939 50.4 271.865 49.4361C269.835 48.4262 268.257 47.1869 267.13 45.718C266.003 44.2492 265.101 42.3902 264.425 40.141C263.793 37.8459 263.387 35.6885 263.207 33.6688C263.027 31.6033 262.937 29.2393 262.937 26.577C262.937 24.282 262.982 22.2852 263.072 20.5869C263.207 18.8885 263.433 16.9836 263.748 14.8721C264.109 12.7148 264.65 10.9016 265.371 9.43279C266.093 7.91803 267.017 6.49508 268.145 5.16393C269.272 3.83279 270.737 2.82295 272.541 2.13443C274.39 1.4459 276.509 1.10164 278.899 1.10164ZM282.619 7.16065C281.537 6.60984 280.297 6.33443 278.899 6.33443C277.501 6.33443 276.261 6.60984 275.179 7.16065C274.097 7.66557 273.217 8.26229 272.541 8.95082C271.865 9.63934 271.278 10.6721 270.782 12.0492C270.286 13.3803 269.926 14.5049 269.7 15.4229C269.52 16.341 269.362 17.6721 269.227 19.4164C269.091 21.1148 269.024 22.3311 269.024 23.0656C269.024 23.7541 269.024 24.9246 269.024 26.577C269.024 28.1836 269.046 29.5148 269.091 30.5705C269.137 31.6262 269.249 33.0033 269.43 34.7016C269.61 36.4 269.926 37.8229 270.377 38.9705C270.827 40.0721 271.391 41.1967 272.067 42.3443C272.744 43.4459 273.668 44.2951 274.841 44.8918C276.058 45.4426 277.456 45.718 279.034 45.718C280.387 45.718 281.582 45.4656 282.619 44.9607C283.701 44.4557 284.58 43.859 285.256 43.1705C285.933 42.482 286.497 41.518 286.947 40.2787C287.443 38.9934 287.804 37.8918 288.03 36.9738C288.255 36.0098 288.413 34.7475 288.503 33.1869C288.638 31.5803 288.706 30.4098 288.706 29.6754C288.751 28.8951 288.774 27.7705 288.774 26.3016C288.774 24.6951 288.774 23.5475 288.774 22.859C288.774 22.1705 288.706 20.977 288.571 19.2787C288.435 17.5803 288.255 16.2721 288.03 15.3541C287.849 14.4361 287.511 13.3115 287.015 11.9803C286.519 10.6492 285.933 9.63934 285.256 8.95082C284.58 8.26229 283.701 7.66557 282.619 7.16065Z" fill="black"/>
<path d="M331.835 1.99672V7.02295C321.374 19.1869 315.264 33.4852 313.506 49.918H307.148C307.689 42.3902 309.628 34.9311 312.965 27.541C316.346 20.1508 320.675 13.4951 325.951 7.57377H300.858V1.99672H331.835Z" fill="black"/>
<path d="M358.326 27.8852V33.6688H338.644V27.8852H358.326Z" fill="black"/>
<path d="M395.707 1.99672V7.02295C385.245 19.1869 379.136 33.4852 377.377 49.918H371.019C371.56 42.3902 373.499 34.9311 376.836 27.541C380.218 20.1508 384.547 13.4951 389.822 7.57377H364.729V1.99672H395.707Z" fill="black"/>
<path d="M431.058 1.99672V7.16065H411.646L408.805 21.6885C411.15 19.118 414.374 17.8328 418.477 17.8328C422.986 17.8328 426.639 19.3246 429.434 22.3082C432.23 25.2459 433.628 29.0787 433.628 33.8066C433.628 38.7639 432.095 42.8492 429.028 46.0623C425.962 49.2754 421.972 50.882 417.057 50.882C412.503 50.882 408.805 49.5967 405.965 47.0262C403.169 44.4557 401.703 41.0361 401.568 36.7672H407.385C407.61 39.4754 408.625 41.6787 410.429 43.377C412.232 45.0754 414.464 45.9246 417.125 45.9246C420.101 45.9246 422.58 44.8229 424.564 42.6197C426.548 40.4164 427.54 37.6852 427.54 34.4262C427.54 31.0295 426.571 28.2754 424.632 26.1639C422.693 24.0066 420.168 22.9279 417.057 22.9279C413.089 22.9279 410.023 24.5115 407.858 27.6787L402.921 27.3344L407.385 1.99672H431.058Z" fill="black"/>
<path d="M459.78 27.8852V33.6688H440.098V27.8852H459.78Z" fill="black"/>
<path d="M494.929 1.99672V7.16065H475.517L472.677 21.6885C475.021 19.118 478.245 17.8328 482.349 17.8328C486.858 17.8328 490.51 19.3246 493.306 22.3082C496.101 25.2459 497.499 29.0787 497.499 33.8066C497.499 38.7639 495.966 42.8492 492.9 46.0623C489.834 49.2754 485.843 50.882 480.928 50.882C476.374 50.882 472.677 49.5967 469.836 47.0262C467.04 44.4557 465.575 41.0361 465.44 36.7672H471.256C471.482 39.4754 472.496 41.6787 474.3 43.377C476.104 45.0754 478.336 45.9246 480.996 45.9246C483.972 45.9246 486.452 44.8229 488.436 42.6197C490.42 40.4164 491.412 37.6852 491.412 34.4262C491.412 31.0295 490.442 28.2754 488.503 26.1639C486.565 24.0066 484.039 22.9279 480.928 22.9279C476.96 22.9279 473.894 24.5115 471.73 27.6787L466.792 27.3344L471.256 1.99672H494.929Z" fill="black"/>
<path d="M533.594 44.6164V49.918H502.346C502.481 47.2098 502.887 44.8459 503.564 42.8262C504.24 40.8066 505.277 38.9934 506.675 37.3869C508.118 35.7344 509.516 34.3803 510.868 33.3246C512.221 32.2689 514.137 30.9607 516.617 29.4C520.495 26.9213 523.043 25.0623 524.26 23.8229C526.785 21.2984 528.048 18.4984 528.048 15.4229C528.048 12.7148 527.191 10.5115 525.478 8.81312C523.764 7.06885 521.532 6.19672 518.782 6.19672C515.49 6.19672 513.123 7.36721 511.68 9.70819C510.282 12.0033 509.538 14.918 509.448 18.4525H503.631V17.1443C503.631 12.3246 505.029 8.4459 507.825 5.50819C510.665 2.57049 514.408 1.10164 519.052 1.10164C523.607 1.10164 527.236 2.38688 529.942 4.95737C532.647 7.52787 534 10.9705 534 15.2852C534 17.1213 533.684 18.8656 533.053 20.518C532.467 22.1246 531.791 23.4787 531.024 24.5803C530.303 25.682 529.175 26.8525 527.642 28.0918C526.154 29.3311 524.914 30.2951 523.922 30.9836C522.93 31.6262 521.51 32.5213 519.661 33.6688C515.964 35.918 513.506 37.6623 512.289 38.9016C510.575 40.6459 509.471 42.5508 508.975 44.6164H533.594Z" fill="black"/>
<path d="M14.7368 135.333V120.6H0V116.667H14.7368V101.933H19.1984V116.667H33.9353V120.6H19.1984V135.333H14.7368Z" fill="black"/>
<path d="M71.2917 88.9333V93.8C60.8362 105.578 54.7297 119.422 52.9721 135.333H46.6177C47.1585 128.044 49.0964 120.822 52.4313 113.667C55.8113 106.511 60.1377 100.067 65.4105 94.3333H40.3309V88.9333H71.2917Z" fill="black"/>
<path d="M92.9687 87C86.9748 96.1111 83.9778 106.356 83.9778 117.733C83.9778 128.578 86.9748 138.667 92.9687 148H88.5747C84.9242 142.4 82.2428 137.356 80.5302 132.867C78.8628 128.333 78.029 123.311 78.029 117.8C78.029 106.556 81.5442 96.2889 88.5747 87H92.9687Z" fill="black"/>
<path d="M95.388 103.4C95.5232 98.5111 96.8977 94.7333 99.5116 92.0667C102.171 89.4 105.866 88.0667 110.598 88.0667C114.834 88.0667 118.237 89.2 120.806 91.4667C123.374 93.7333 124.659 96.7111 124.659 100.4C124.659 102.622 124.073 104.622 122.901 106.4C121.775 108.133 120.175 109.422 118.102 110.267C120.806 110.889 122.946 112.222 124.524 114.267C126.101 116.311 126.89 118.778 126.89 121.667C126.935 126.022 125.402 129.556 122.293 132.267C119.228 134.933 115.24 136.267 110.328 136.267C105.46 136.267 101.562 134.956 98.6328 132.333C95.7485 129.667 94.3064 126.089 94.3064 121.6V120.733H99.9848C100.12 124.111 101.089 126.711 102.892 128.533C104.694 130.356 107.196 131.267 110.395 131.267C113.46 131.267 115.938 130.422 117.831 128.733C119.769 127 120.738 124.778 120.738 122.067C120.738 119.311 119.769 117.111 117.831 115.467C115.938 113.822 113.37 113 110.125 113C109.314 113 108.277 113.089 107.015 113.267V108.467C107.646 108.511 108.3 108.533 108.976 108.533C111.95 108.533 114.294 107.844 116.006 106.467C117.764 105.044 118.642 103.133 118.642 100.733C118.642 98.4222 117.876 96.5556 116.344 95.1333C114.857 93.7111 112.851 93 110.328 93C107.443 93 105.19 93.9111 103.568 95.7333C101.945 97.5111 101.089 100.067 100.999 103.4H95.388Z" fill="black"/>
<path d="M164.655 119.133V123.933H158.166V135.333H152.758V123.933H131.734V118.6L153.501 88.0667H158.166V119.133H164.655ZM152.758 119.133V96.4L136.804 119.133H152.758Z" fill="black"/>
<path d="M170.514 103.4C170.649 98.5111 172.024 94.7333 174.638 92.0667C177.296 89.4 180.992 88.0667 185.724 88.0667C189.96 88.0667 193.363 89.2 195.932 91.4667C198.5 93.7333 199.785 96.7111 199.785 100.4C199.785 102.622 199.199 104.622 198.027 106.4C196.901 108.133 195.301 109.422 193.228 110.267C195.932 110.889 198.072 112.222 199.65 114.267C201.227 116.311 202.016 118.778 202.016 121.667C202.061 126.022 200.528 129.556 197.419 132.267C194.354 134.933 190.366 136.267 185.454 136.267C180.586 136.267 176.688 134.956 173.759 132.333C170.874 129.667 169.432 126.089 169.432 121.6V120.733H175.111C175.246 124.111 176.215 126.711 178.018 128.533C179.82 130.356 182.321 131.267 185.521 131.267C188.586 131.267 191.064 130.422 192.957 128.733C194.895 127 195.864 124.778 195.864 122.067C195.864 119.311 194.895 117.111 192.957 115.467C191.064 113.822 188.496 113 185.251 113C184.44 113 183.403 113.089 182.141 113.267V108.467C182.772 108.511 183.426 108.533 184.102 108.533C187.076 108.533 189.419 107.844 191.132 106.467C192.89 105.044 193.768 103.133 193.768 100.733C193.768 98.4222 193.002 96.5556 191.47 95.1333C189.983 93.7111 187.977 93 185.454 93C182.569 93 180.316 93.9111 178.694 95.7333C177.071 97.5111 176.215 100.067 176.125 103.4H170.514Z" fill="black"/>
<path d="M219.096 117.8C219.096 123.311 218.239 128.333 216.527 132.867C214.859 137.356 212.2 142.4 208.55 148H204.156C210.15 138.667 213.147 128.578 213.147 117.733C213.147 106.356 210.15 96.1111 204.156 87H208.55C215.581 96.2889 219.096 106.556 219.096 117.8Z" fill="black"/>
<path d="M225.571 103.4C225.706 98.5111 227.081 94.7333 229.695 92.0667C232.354 89.4 236.049 88.0667 240.781 88.0667C245.017 88.0667 248.42 89.2 250.989 91.4667C253.558 93.7333 254.842 96.7111 254.842 100.4C254.842 102.622 254.256 104.622 253.084 106.4C251.958 108.133 250.358 109.422 248.285 110.267C250.989 110.889 253.129 112.222 254.707 114.267C256.284 116.311 257.073 118.778 257.073 121.667C257.118 126.022 255.586 129.556 252.476 132.267C249.411 134.933 245.423 136.267 240.511 136.267C235.643 136.267 231.745 134.956 228.816 132.333C225.932 129.667 224.489 126.089 224.489 121.6V120.733H230.168C230.303 124.111 231.272 126.711 233.075 128.533C234.877 130.356 237.379 131.267 240.578 131.267C243.643 131.267 246.122 130.422 248.014 128.733C249.952 127 250.921 124.778 250.921 122.067C250.921 119.311 249.952 117.111 248.014 115.467C246.122 113.822 243.553 113 240.308 113C239.497 113 238.46 113.089 237.198 113.267V108.467C237.829 108.511 238.483 108.533 239.159 108.533C242.133 108.533 244.477 107.844 246.189 106.467C247.947 105.044 248.826 103.133 248.826 100.733C248.826 98.4222 248.059 96.5556 246.527 95.1333C245.04 93.7111 243.034 93 240.511 93C237.626 93 235.373 93.9111 233.751 95.7333C232.128 97.5111 231.272 100.067 231.182 103.4H225.571Z" fill="black"/>
<path d="M271.178 110.067C269.06 109.178 267.415 107.889 266.244 106.2C265.117 104.467 264.554 102.444 264.554 100.133C264.554 96.5778 265.883 93.6889 268.542 91.4667C271.201 89.2 274.626 88.0667 278.817 88.0667C282.963 88.0667 286.343 89.1778 288.957 91.4C291.616 93.5778 292.946 96.4 292.946 99.8667C292.946 104.667 290.76 108.067 286.388 110.067C292.022 112.022 294.838 115.867 294.838 121.6C294.838 126.089 293.374 129.667 290.444 132.333C287.515 134.956 283.572 136.267 278.614 136.267C273.837 136.267 269.984 134.978 267.055 132.4C264.171 129.778 262.728 126.311 262.728 122C262.728 119.156 263.449 116.711 264.892 114.667C266.379 112.578 268.474 111.044 271.178 110.067ZM284.834 95.1333C283.346 93.8 281.341 93.1333 278.817 93.1333C276.294 93.1333 274.266 93.8222 272.733 95.2C271.201 96.5333 270.435 98.3111 270.435 100.533C270.435 102.756 271.201 104.556 272.733 105.933C274.266 107.267 276.294 107.933 278.817 107.933C281.296 107.933 283.279 107.267 284.766 105.933C286.298 104.556 287.064 102.756 287.064 100.533C287.064 98.2667 286.321 96.4667 284.834 95.1333ZM278.614 112.533C275.73 112.533 273.364 113.422 271.516 115.2C269.669 116.933 268.745 119.156 268.745 121.867C268.745 124.667 269.669 126.978 271.516 128.8C273.409 130.578 275.82 131.467 278.75 131.467C281.724 131.467 284.135 130.578 285.983 128.8C287.876 127.022 288.822 124.733 288.822 121.933C288.822 119.133 287.876 116.867 285.983 115.133C284.09 113.4 281.634 112.533 278.614 112.533Z" fill="black"/>
<path d="M329.427 88.9333V93.9333H310.026L307.187 108C309.53 105.511 312.752 104.267 316.853 104.267C321.36 104.267 325.011 105.711 327.805 108.6C330.599 111.444 331.996 115.156 331.996 119.733C331.996 124.533 330.464 128.489 327.399 131.6C324.334 134.711 320.346 136.267 315.434 136.267C310.882 136.267 307.187 135.022 304.347 132.533C301.553 130.044 300.089 126.733 299.953 122.6H305.767C305.992 125.222 307.006 127.356 308.809 129C310.612 130.644 312.843 131.467 315.501 131.467C318.476 131.467 320.954 130.4 322.937 128.267C324.92 126.133 325.912 123.489 325.912 120.333C325.912 117.044 324.943 114.378 323.005 112.333C321.067 110.244 318.543 109.2 315.434 109.2C311.468 109.2 308.403 110.733 306.24 113.8L301.305 113.467L305.767 88.9333H329.427Z" fill="black"/>
<path d="M358.134 114V119.6H338.463V114H358.134Z" fill="black"/>
<path d="M394.346 130.2V135.333H363.115C363.25 132.711 363.655 130.422 364.331 128.467C365.007 126.511 366.044 124.756 367.441 123.2C368.883 121.6 370.28 120.289 371.632 119.267C372.984 118.244 374.9 116.978 377.378 115.467C381.254 113.067 383.8 111.267 385.017 110.067C387.541 107.622 388.803 104.911 388.803 101.933C388.803 99.3111 387.946 97.1778 386.234 95.5333C384.521 93.8444 382.291 93 379.541 93C376.252 93 373.886 94.1333 372.443 96.4C371.046 98.6222 370.303 101.444 370.213 104.867H364.399V103.6C364.399 98.9333 365.796 95.1778 368.59 92.3333C371.429 89.4889 375.17 88.0667 379.812 88.0667C384.364 88.0667 387.991 89.3111 390.695 91.8C393.399 94.2889 394.752 97.6222 394.752 101.8C394.752 103.578 394.436 105.267 393.805 106.867C393.219 108.422 392.543 109.733 391.777 110.8C391.056 111.867 389.929 113 388.397 114.2C386.91 115.4 385.671 116.333 384.679 117C383.688 117.622 382.268 118.489 380.42 119.6C376.725 121.778 374.269 123.467 373.052 124.667C371.339 126.356 370.235 128.2 369.739 130.2H394.346Z" fill="black"/>
<path d="M410.142 110.067C408.023 109.178 406.379 107.889 405.207 106.2C404.08 104.467 403.517 102.444 403.517 100.133C403.517 96.5778 404.846 93.6889 407.505 91.4667C410.164 89.2 413.589 88.0667 417.78 88.0667C421.927 88.0667 425.307 89.1778 427.92 91.4C430.579 93.5778 431.909 96.4 431.909 99.8667C431.909 104.667 429.723 108.067 425.352 110.067C430.985 112.022 433.802 115.867 433.802 121.6C433.802 126.089 432.337 129.667 429.408 132.333C426.478 134.956 422.535 136.267 417.578 136.267C412.801 136.267 408.947 134.978 406.018 132.4C403.134 129.778 401.692 126.311 401.692 122C401.692 119.156 402.413 116.711 403.855 114.667C405.342 112.578 407.438 111.044 410.142 110.067ZM423.797 95.1333C422.31 93.8 420.304 93.1333 417.78 93.1333C415.257 93.1333 413.229 93.8222 411.696 95.2C410.164 96.5333 409.398 98.3111 409.398 100.533C409.398 102.756 410.164 104.556 411.696 105.933C413.229 107.267 415.257 107.933 417.78 107.933C420.259 107.933 422.242 107.267 423.729 105.933C425.261 104.556 426.028 102.756 426.028 100.533C426.028 98.2667 425.284 96.4667 423.797 95.1333ZM417.578 112.533C414.693 112.533 412.327 113.422 410.48 115.2C408.632 116.933 407.708 119.156 407.708 121.867C407.708 124.667 408.632 126.978 410.48 128.8C412.372 130.578 414.783 131.467 417.713 131.467C420.687 131.467 423.098 130.578 424.946 128.8C426.839 127.022 427.785 124.733 427.785 121.933C427.785 119.133 426.839 116.867 424.946 115.133C423.053 113.4 420.597 112.533 417.578 112.533Z" fill="black"/>
<path d="M459.535 114V119.6H439.863V114H459.535Z" fill="black"/>
<path d="M481.55 88.0667C484.434 88.0667 486.89 88.6 488.918 89.6667C490.992 90.6889 492.569 91.9556 493.65 93.4667C494.732 94.9778 495.588 96.9556 496.219 99.4C496.85 101.8 497.233 103.978 497.368 105.933C497.504 107.844 497.571 110.156 497.571 112.867C497.571 115.356 497.459 117.6 497.233 119.6C497.053 121.6 496.625 123.689 495.949 125.867C495.318 128.044 494.439 129.867 493.312 131.333C492.186 132.756 490.654 133.933 488.716 134.867C486.778 135.8 484.479 136.267 481.82 136.267C479.026 136.267 476.593 135.8 474.52 134.867C472.492 133.889 470.914 132.689 469.788 131.267C468.661 129.844 467.76 128.044 467.084 125.867C466.453 123.644 466.047 121.556 465.867 119.6C465.687 117.6 465.596 115.311 465.596 112.733C465.596 110.511 465.641 108.578 465.732 106.933C465.867 105.289 466.092 103.444 466.408 101.4C466.768 99.3111 467.309 97.5556 468.03 96.1333C468.751 94.6667 469.675 93.2889 470.802 92C471.928 90.7111 473.393 89.7333 475.196 89.0667C477.043 88.4 479.162 88.0667 481.55 88.0667ZM485.268 93.9333C484.186 93.4 482.947 93.1333 481.55 93.1333C480.153 93.1333 478.914 93.4 477.832 93.9333C476.75 94.4222 475.872 95 475.196 95.6667C474.52 96.3333 473.934 97.3333 473.438 98.6667C472.942 99.9556 472.582 101.044 472.356 101.933C472.176 102.822 472.018 104.111 471.883 105.8C471.748 107.444 471.68 108.622 471.68 109.333C471.68 110 471.68 111.133 471.68 112.733C471.68 114.289 471.703 115.578 471.748 116.6C471.793 117.622 471.906 118.956 472.086 120.6C472.266 122.244 472.582 123.622 473.032 124.733C473.483 125.8 474.046 126.889 474.722 128C475.398 129.067 476.322 129.889 477.494 130.467C478.711 131 480.108 131.267 481.685 131.267C483.037 131.267 484.232 131.022 485.268 130.533C486.35 130.044 487.228 129.467 487.904 128.8C488.58 128.133 489.144 127.2 489.594 126C490.09 124.756 490.451 123.689 490.676 122.8C490.901 121.867 491.059 120.644 491.149 119.133C491.284 117.578 491.352 116.444 491.352 115.733C491.397 114.978 491.42 113.889 491.42 112.467C491.42 110.911 491.42 109.8 491.42 109.133C491.42 108.467 491.352 107.311 491.217 105.667C491.082 104.022 490.901 102.756 490.676 101.867C490.496 100.978 490.158 99.8889 489.662 98.6C489.166 97.3111 488.58 96.3333 487.904 95.6667C487.228 95 486.35 94.4222 485.268 93.9333Z" fill="black"/>
<path d="M503.497 103.4C503.633 98.5111 505.007 94.7333 507.621 92.0667C510.28 89.4 513.975 88.0667 518.707 88.0667C522.944 88.0667 526.346 89.2 528.915 91.4667C531.484 93.7333 532.768 96.7111 532.768 100.4C532.768 102.622 532.182 104.622 531.011 106.4C529.884 108.133 528.284 109.422 526.211 110.267C528.915 110.889 531.056 112.222 532.633 114.267C534.21 116.311 534.999 118.778 534.999 121.667C535.044 126.022 533.512 129.556 530.402 132.267C527.338 134.933 523.349 136.267 518.437 136.267C513.57 136.267 509.672 134.956 506.742 132.333C503.858 129.667 502.416 126.089 502.416 121.6V120.733H508.094C508.229 124.111 509.198 126.711 511.001 128.533C512.804 130.356 515.305 131.267 518.505 131.267C521.569 131.267 524.048 130.422 525.941 128.733C527.878 127 528.847 124.778 528.847 122.067C528.847 119.311 527.878 117.111 525.941 115.467C524.048 113.822 521.479 113 518.234 113C517.423 113 516.386 113.089 515.125 113.267V108.467C515.756 108.511 516.409 108.533 517.085 108.533C520.059 108.533 522.403 107.844 524.115 106.467C525.873 105.044 526.752 103.133 526.752 100.733C526.752 98.4222 525.986 96.5556 524.453 95.1333C522.966 93.7111 520.961 93 518.437 93C515.553 93 513.299 93.9111 511.677 95.7333C510.055 97.5111 509.198 100.067 509.108 103.4H503.497Z" fill="black"/>
</svg>
