<svg width="335" height="86" viewBox="0 0 335 86" fill="none" xmlns="http://www.w3.org/2000/svg">
<path d="M172.946 2.1193V83.9993H162.136V45.7043H118.896V83.9993H108.086V2.1193H118.896V36.2743H162.136V2.1193H172.946Z" fill="black"/>
<path d="M225.464 2.1193L257.434 83.9993H245.359L236.274 58.9293H201.889L192.574 83.9993H181.074L213.274 2.1193H225.464ZM233.054 50.3043L219.139 12.4693L204.994 50.3043H233.054Z" fill="black"/>
<path d="M334.994 53.0643C334.074 63.4143 330.471 71.5026 324.184 77.3293C317.974 83.0793 309.771 85.9543 299.574 85.9543C287.921 85.9543 278.683 82.121 271.859 74.4543C265.036 66.711 261.624 56.2843 261.624 43.1743C261.624 30.9076 265.036 20.711 271.859 12.5843C278.759 4.38096 288.266 0.279297 300.379 0.279297C309.043 0.279297 316.671 2.61763 323.264 7.2943C329.858 11.971 333.538 18.4493 334.304 26.7293H323.494C322.268 21.3626 319.584 17.1843 315.444 14.1943C311.304 11.1276 306.206 9.5943 300.149 9.5943C291.026 9.5943 284.126 12.8143 279.449 19.2543C274.849 25.6943 272.549 33.6293 272.549 43.0593C272.549 53.486 275.003 61.6893 279.909 67.6693C284.816 73.6493 291.524 76.6393 300.034 76.6393C307.011 76.6393 312.569 74.646 316.709 70.6593C320.849 66.596 323.341 60.731 324.184 53.0643H334.994Z" fill="black"/>
<path d="M20.7683 85C17.1204 85 13.9699 84.3913 11.3169 83.1739C8.74674 82.0377 6.6326 80.4145 4.97445 78.3043C3.3163 76.1942 2.07269 73.7188 1.24361 70.8783C0.414537 68.0377 0 64.913 0 61.5044C0 57.3652 0.621806 52.9826 1.86542 48.3565C3.19194 43.7304 5.0159 39.1855 7.33731 34.7217C9.65872 30.258 12.4361 25.9971 15.6695 21.9391C18.9029 17.8 22.4265 14.1884 26.2402 11.1043C30.1369 8.02029 34.2822 5.58551 38.6763 3.8C43.0704 1.93333 47.5889 1 52.2317 1C55.7967 1 58.9057 1.6087 61.5588 2.82609C64.2118 3.96232 66.3674 5.58551 68.0256 7.69565C69.6837 9.80579 70.9273 12.2812 71.7564 15.1217C72.5855 17.9623 73 21.087 73 24.4956C73 28.6348 72.3367 33.0174 71.0102 37.6435C69.7666 42.2696 67.9841 46.8145 65.6627 51.2783C63.3413 55.742 60.5639 60.0435 57.3305 64.1826C54.0971 68.2406 50.5321 71.8116 46.6354 74.8957C42.8217 77.9797 38.7178 80.4551 34.3237 82.3217C29.9296 84.1072 25.4111 85 20.7683 85ZM25.7428 81.1043C29.4736 81.1043 32.9557 80.0087 36.1891 77.8174C39.4225 75.5449 42.3243 72.6232 44.8944 69.0522C47.5474 65.4812 49.8688 61.5043 51.8586 57.1217C53.9313 52.658 55.6724 48.2348 57.0818 43.8522C58.4912 39.3884 59.5275 35.2087 60.1908 31.313C60.937 27.3362 61.3101 24.0899 61.3101 21.5739C61.3101 19.2203 61.0613 16.9884 60.5639 14.8783C60.1494 12.7681 59.4032 10.942 58.3254 9.4C57.2476 7.77681 55.7553 6.51884 53.8484 5.62609C52.0244 4.65217 49.703 4.16521 46.8842 4.16521C43.2362 4.16521 39.7956 5.30144 36.5622 7.57391C33.4117 9.76521 30.5099 12.6464 27.8569 16.2174C25.2868 19.7884 22.9654 23.8058 20.8927 28.2696C18.9029 32.6522 17.2033 37.0754 15.7939 41.5391C14.4673 45.9217 13.431 50.1014 12.6848 54.0783C12.0216 57.9739 11.69 61.1797 11.69 63.6957C11.69 66.0493 11.8972 68.2812 12.3118 70.3913C12.8092 72.5015 13.5554 74.3681 14.5503 75.9913C15.6281 77.5333 17.0789 78.7913 18.9029 79.7652C20.7269 80.658 23.0068 81.1043 25.7428 81.1043Z" fill="black"/>
</svg>
