<svg width="715" height="226" viewBox="0 0 715 226" fill="none" xmlns="http://www.w3.org/2000/svg">
<path d="M75.7267 0V94.4693H63.1056V50.2863H12.6211V94.4693H0V0H12.6211V39.4064H63.1056V0H75.7267Z" fill="black"/>
<path d="M79.978 93.1425C82.3948 92.6117 84.4535 91.9483 86.1543 91.1522C87.7655 90.3561 89.3319 89.2505 90.8536 87.8352C92.3753 86.4199 93.9418 84.6066 95.553 82.3952C97.1642 80.1839 99.0887 77.4418 101.326 74.169C102.759 71.9576 104.594 69.1713 106.831 65.8101C109.159 62.3603 111.71 58.601 114.485 54.5321C117.349 50.3748 120.392 46.0405 123.615 41.5293C126.927 37.0182 130.283 32.5954 133.685 28.2612C137.086 23.9269 140.443 19.8138 143.755 15.9218C147.156 12.0298 150.424 8.58007 153.556 5.57262L156.645 6.36871V85.845C156.645 87.1718 156.913 88.2332 157.45 89.0293C158.077 89.737 158.838 90.3561 159.733 90.8869C160.628 91.3291 161.612 91.7272 162.687 92.081C163.85 92.3464 164.924 92.7002 165.909 93.1425V95C163.313 94.7346 160.673 94.5577 157.987 94.4693C155.391 94.4693 152.796 94.4693 150.2 94.4693C146.977 94.4693 143.755 94.4693 140.533 94.4693C137.31 94.5577 134.088 94.7346 130.865 95V93.1425C133.73 92.4348 136.057 91.7714 137.847 91.1522C139.727 90.5331 141.204 89.8254 142.278 89.0293C143.352 88.2332 144.068 87.3045 144.426 86.243C144.874 85.0931 145.098 83.6778 145.098 81.9972V57.3184H117.304C116.767 58.0261 116.006 59.176 115.022 60.7682C114.127 62.2719 113.097 63.9967 111.934 65.9427C110.77 67.8887 109.562 69.9674 108.308 72.1788C107.145 74.3901 106.071 76.513 105.086 78.5475C104.101 80.5819 103.296 82.3952 102.669 83.9874C102.043 85.5796 101.729 86.7737 101.729 87.5698C101.729 88.7197 102.087 89.6043 102.803 90.2235C103.519 90.8426 104.37 91.3291 105.354 91.683C106.429 92.0368 107.503 92.3021 108.577 92.479C109.741 92.656 110.725 92.8771 111.531 93.1425V95C108.756 94.7346 106.026 94.5577 103.34 94.4693C100.655 94.4693 97.925 94.4693 95.1502 94.4693C92.5543 94.4693 90.048 94.5135 87.6312 94.602C85.1249 94.6904 82.5738 94.8231 79.978 95V93.1425ZM145.098 53.6033V18.4427C140.264 23.8385 135.744 29.4995 131.537 35.426C127.419 41.3524 123.346 47.4115 119.318 53.6033H145.098Z" fill="black"/>
<path d="M177.172 94.4693V0H189.793V83.5894H232.222V0H244.843V83.5894H287.271V0H299.892V94.4693H177.172Z" fill="black"/>
<path d="M321.273 94.4693V0H333.894V80.007H334.163L381.022 0H397V94.4693H384.379V14.1969H384.11L337.117 94.4693H321.273Z" fill="black"/>
<path d="M188 128H227.323C237.076 128 244.815 130.228 250.542 134.684C256.268 139.052 259.131 145.959 259.131 155.406C259.131 174.568 248.26 184.149 226.518 184.149H200.616V223.187H188V128ZM200.616 138.829V173.588H224.908C231.708 173.588 236.986 172.34 240.744 169.845C244.592 167.26 246.515 162.715 246.515 156.208C246.515 152.554 245.889 149.524 244.636 147.118C243.473 144.711 241.729 142.929 239.402 141.77C237.076 140.611 234.66 139.854 232.155 139.497C229.65 139.052 226.652 138.829 223.163 138.829H200.616Z" fill="black"/>
<path d="M304.657 128L341.968 223.187H327.876L317.273 194.042H277.144L266.273 223.187H252.853L290.431 128H304.657ZM313.515 184.016L297.276 140.032L280.768 184.016H313.515Z" fill="black"/>
<path d="M364.171 166.502H396.113C405.507 166.502 412.755 168.998 417.855 173.989C422.955 178.98 425.505 185.977 425.505 194.978C425.505 203.891 422.91 210.843 417.72 215.834C412.621 220.736 405.418 223.187 396.113 223.187H351.555V128H417.049V138.963H364.171V166.502ZM412.889 194.978C412.889 183.303 405.91 177.465 391.952 177.465H364.171V212.224H391.952C405.91 212.224 412.889 206.476 412.889 194.978Z" fill="black"/>
<path d="M463.048 226C458.906 226 455.328 225.297 452.316 223.89C449.397 222.577 446.997 220.702 445.114 218.263C443.231 215.825 441.819 212.965 440.878 209.683C439.936 206.401 439.465 202.79 439.465 198.852C439.465 194.069 440.171 189.005 441.584 183.66C443.09 178.315 445.161 173.063 447.797 167.906C450.433 162.748 453.587 157.825 457.258 153.136C460.93 148.353 464.931 144.18 469.261 140.617C473.686 137.053 478.393 134.24 483.382 132.177C488.372 130.02 493.502 128.942 498.774 128.942C502.822 128.942 506.353 129.645 509.365 131.052C512.378 132.364 514.825 134.24 516.708 136.678C518.591 139.116 520.003 141.977 520.945 145.259C521.886 148.541 522.357 152.151 522.357 156.09C522.357 160.872 521.604 165.936 520.097 171.282C518.685 176.627 516.661 181.878 514.025 187.036C511.389 192.194 508.236 197.164 504.564 201.946C500.893 206.635 496.844 210.761 492.42 214.325C488.089 217.888 483.429 220.749 478.44 222.905C473.45 224.968 468.32 226 463.048 226ZM468.696 221.499C472.933 221.499 476.887 220.233 480.558 217.701C484.23 215.075 487.524 211.699 490.443 207.573C493.455 203.447 496.091 198.852 498.351 193.788C500.704 188.63 502.681 183.519 504.282 178.455C505.882 173.298 507.059 168.468 507.812 163.967C508.659 159.372 509.083 155.621 509.083 152.714C509.083 149.994 508.8 147.416 508.236 144.977C507.765 142.539 506.918 140.429 505.694 138.647C504.47 136.772 502.775 135.318 500.61 134.287C498.539 133.162 495.903 132.599 492.702 132.599C488.56 132.599 484.653 133.912 480.982 136.538C477.404 139.069 474.109 142.399 471.097 146.525C468.178 150.651 465.543 155.293 463.189 160.45C460.93 165.514 459 170.625 457.399 175.783C455.893 180.847 454.716 185.676 453.869 190.271C453.116 194.773 452.739 198.477 452.739 201.384C452.739 204.103 452.975 206.682 453.445 209.12C454.01 211.558 454.858 213.715 455.987 215.591C457.211 217.373 458.859 218.826 460.93 219.951C463.001 220.983 465.59 221.499 468.696 221.499Z" fill="black"/>
<path d="M608.408 128V138.963H576.332V223.187H563.717V138.963H531.641V128H608.408Z" fill="black"/>
<path d="M702.384 128H715V223.187H702.384V128ZM690.44 194.978C690.44 203.891 687.845 210.843 682.656 215.834C677.556 220.736 670.353 223.187 661.048 223.187H619.174V128H631.79V166.636H661.048C670.443 166.636 677.69 169.132 682.79 174.123C687.89 179.025 690.44 185.977 690.44 194.978ZM677.69 194.978C677.69 183.303 670.711 177.465 656.753 177.465H631.79V212.224H656.753C670.711 212.224 677.69 206.476 677.69 194.978Z" fill="black"/>
</svg>
