<svg width="257" height="392" viewBox="0 0 257 392" fill="none" xmlns="http://www.w3.org/2000/svg">
<path d="M228.676 18.2859L243.405 7.69479L236.769 24.5698L254.915 24.6485L239.624 34.4136L254.255 45.1326L236.149 44.0509L241.672 61.3095L227.662 49.8038L221.971 67.0132L217.403 49.4694L202.674 60.0606L209.31 43.1855L191.154 43.1068L206.454 33.3417L191.814 22.6227L209.93 23.7143L204.407 6.44588L218.417 17.9614L224.108 0.742188L228.676 18.2859Z" fill="#2FAD74"/>
<path d="M37.7403 289.025L33.5264 142.784C33.1129 128.653 32.719 114.384 35.4955 100.498C39.9064 78.6961 52.0362 58.9397 66.086 41.1796C74.8388 30.1066 84.6155 19.4564 96.9816 12.1203C109.348 4.78417 124.727 1.06693 138.806 4.71533C166.039 11.7564 178.09 41.4451 199.239 59.1856C211.723 69.6194 228.077 76.513 236.554 90.1232C243.83 101.816 243.721 116.193 243.396 129.774C242.008 187.941 239.872 248.764 209.665 299.468C198.648 317.946 184.244 334.379 169.918 350.693L144.684 379.418C138.993 385.899 131.481 393.048 122.748 391.465C118.957 390.777 115.747 388.515 112.676 386.292C95.1996 373.675 73.5391 362.858 57.5399 348.854C40.7925 334.202 37.7403 309.42 37.7403 289.025Z" fill="#D597C3"/>
<path d="M26.7328 108.866C30.5923 104.342 37.1889 99.8384 43.5196 102.149C48.5803 103.998 50.2442 109.132 50.9629 113.576C51.9475 119.477 52.3512 125.308 52.7942 131.179C54.9209 159.57 56.6636 189.563 40.6447 214.355C39.3057 216.43 37.1987 218.731 34.3041 218.446C33.2492 218.305 32.2396 217.929 31.3504 217.344C25.0492 213.529 23.2573 206.478 23.3065 200.174C23.3557 193.871 24.6849 187.449 22.6075 181.323C18.5117 169.138 11.472 162.156 12.4566 149.185C13.4412 134.542 16.3949 121.011 26.7328 108.866Z" fill="#ED603C"/>
<path d="M110.125 197.49C128.689 197.49 143.738 182.459 143.738 163.917C143.738 145.375 128.689 130.344 110.125 130.344C91.5608 130.344 76.5117 145.375 76.5117 163.917C76.5117 182.459 91.5608 197.49 110.125 197.49Z" fill="black"/>
<path d="M103.846 174.566C114.074 174.566 122.366 166.284 122.366 156.068C122.366 145.852 114.074 137.57 103.846 137.57C93.6177 137.57 85.3262 145.852 85.3262 156.068C85.3262 166.284 93.6177 174.566 103.846 174.566Z" fill="white"/>
<path d="M100.497 156.06C104.129 156.06 107.074 153.119 107.074 149.491C107.074 145.863 104.129 142.922 100.497 142.922C96.8645 142.922 93.9199 145.863 93.9199 149.491C93.9199 153.119 96.8645 156.06 100.497 156.06Z" fill="black"/>
<path d="M169.442 146.395L171.647 154.419C172.208 153.249 171.411 153.15 171.647 154.419C178.188 189.194 178.137 224.886 171.499 259.642C171.027 262.081 170.515 264.559 169.895 266.959C167.66 275.563 160.118 277.776 153.482 271.876C145.989 265.198 140.683 258.59 134.283 249.464C131.662 245.822 129.973 241.595 129.36 237.152C128.956 232.923 131.142 228.124 135.267 227.033C137.059 226.561 140.584 227.259 141.815 228.646C155.057 243.593 152.123 229.924 153.945 221.113C157.056 206.106 161.053 189.507 166.586 161.077C167.571 156.16 167.226 150.879 169.452 146.326C170.318 147.457 169.836 145.077 169.442 146.395Z" fill="#EBFF00"/>
<path d="M15.4115 112.965C19.783 121.285 30.0126 125.326 39.3857 124.54C48.7588 123.753 57.3343 118.925 64.8072 113.221C71.3546 108.206 77.4195 102.295 81.1805 94.9592C90.4453 76.8648 81.7516 51.8767 63.2516 43.4195C59.3133 41.6101 54.8828 40.4693 50.5901 41.1774C43.6981 42.3083 38.4208 47.8055 33.7146 52.9781C19.9898 68.2011 4.17763 91.537 15.4115 112.965Z" stroke="#1D1D1B" stroke-width="2.6" stroke-miterlimit="10"/>
<path d="M108.166 215.112C109.465 215.821 110.602 216.792 111.504 217.964C112.262 219.304 112.536 220.862 112.282 222.38C111.71 228.91 108.343 235.016 104.671 240.848C90.5423 263.555 72.318 284.363 54.1724 305.073C53.5713 305.923 52.6832 306.527 51.6716 306.775C50.5394 306.819 49.4266 306.472 48.521 305.791L6.8936 281.206C4.81617 279.977 2.65011 278.669 1.58678 276.762C0.287154 274.441 0.868042 271.736 1.48832 269.239C5.46596 252.947 9.45019 236.652 13.441 220.354C15.0655 213.687 16.7786 206.862 21.1304 201.06C24.4386 196.674 29.1448 193.065 32.3052 188.6C35.3574 184.303 36.4404 172.709 41.4026 172.925C46.8571 173.151 59.7451 184.539 64.3233 187.44L108.166 215.112Z" fill="#2FAD74"/>
<path d="M101.566 21.6328C97.4116 30.326 94.2019 40.2386 96.9193 49.4727C97.999 52.7539 99.4945 55.8835 101.37 58.7855C104.944 64.7448 109.246 70.7829 115.695 73.438C119.042 64.3711 118.846 54.4684 116.512 45.0868C114.179 35.7052 108.773 28.0839 101.566 21.6328Z" fill="#ED603C"/>
<path d="M123.121 28.7539C128.428 33.424 132.622 39.2201 135.397 45.7181C138.172 52.2161 139.457 59.2516 139.159 66.3097C134.394 62.0615 127.6 56.3873 125.188 50.4181C123.91 47.0005 123.108 43.4235 122.806 39.7876C122.612 37.9127 122.546 36.0268 122.609 34.1429C122.628 33.4939 123.426 29.0194 123.121 28.7539Z" fill="#ED603C"/>
<path d="M155.069 44.6495C154.261 41.3256 153.297 38.0476 152.174 34.8155C150.756 30.7148 149.033 26.5747 145.991 23.4672C141.698 19.0714 135.387 17.3209 129.312 16.3867C129.679 21.6328 131.707 26.6265 135.102 30.6459C138.653 34.5824 142.727 38.0136 147.212 40.8438C149.573 42.5865 152.237 43.8769 155.069 44.6495Z" fill="#ED603C"/>
<path d="M170.381 75.5497C164.317 74.6611 158.734 71.7468 154.541 67.2822C150.348 62.8175 147.793 57.0658 147.293 50.9648C153.102 53.0201 158.911 55.341 162.514 60.3268C164.031 62.4069 165.381 64.6034 166.551 66.8959C167.959 69.61 169.18 72.7274 170.381 75.5497Z" fill="#ED603C"/>
<path d="M190.339 75.3731L193.479 76.4351C186.621 73.3372 180.533 68.762 175.653 63.0375C170.773 57.3131 167.221 50.5811 165.252 43.3242C169.712 46.1859 174.113 48.2412 178.445 51.3487C180.859 52.9174 183.04 54.8176 184.924 56.9934C189.699 63.0216 189.709 71.8525 194.631 77.7627C193.617 77.3398 191.363 75.7762 190.339 75.3731Z" fill="#ED603C"/>
<path d="M125.964 91.1027C125.585 89.5663 125.436 87.9822 125.521 86.4021V67.0391L134.648 75.7618C136.23 77.1757 137.656 78.7548 138.902 80.4722C140.065 82.3692 141.009 84.3914 141.717 86.5005L150.667 110.21C144.484 105.224 128.318 99.0879 125.964 91.1027Z" fill="#ED603C"/>
<path d="M96.4304 66.2266C98.9016 72.1859 104.72 76.385 106.739 82.5214C107.91 86.0616 107.674 89.8969 107.438 93.6141C107.054 99.367 107.005 105.307 106.138 110.971C100.418 107.116 95.879 101.54 94.3234 94.8139C93.3599 90.059 93.0913 85.1898 93.5259 80.358C93.7622 77.3881 97.3362 68.4294 96.4304 66.2266Z" fill="#ED603C"/>
<path d="M166.327 86.4782C167.682 87.2595 168.952 88.179 170.117 89.2219C171.376 90.4918 172.495 91.893 173.455 93.4013L187.682 114.053C179.205 110.512 170.501 106.844 163.924 100.433C159.986 96.558 156.904 91.8377 153.911 87.1666C151.371 83.233 148.772 79.2994 146.32 75.2773C152.178 80.0665 160.006 82.2594 166.327 86.4782Z" fill="#ED603C"/>
<path d="M256.098 264.772L220.919 119.043L206.683 124.943L200.322 139.773C189.984 234.877 196.709 181.616 189.984 234.877C189.984 234.838 236.495 257.131 256.098 264.772Z" fill="black"/>
<path d="M134.878 280.294C153.998 290.039 161.235 312.323 151.941 330.526C142.646 348.728 120.297 356.035 101.176 346.26L97.7303 344.5C78.2359 334.577 71.2751 312.431 80.6087 294.15C89.9424 275.869 111.938 268.582 131.432 278.514L134.878 280.294ZM109.988 330.821C126.844 339.406 144.724 338.826 149.578 329.316C154.431 319.807 144.389 305.095 127.504 296.51L122.581 294.012C105.636 285.378 87.7468 285.968 82.9421 295.379C78.1375 304.79 88.1111 319.689 105.065 328.323L109.988 330.821Z" fill="black"/>
</svg>
