<svg width="1542" height="291" viewBox="0 0 1542 291" fill="none" xmlns="http://www.w3.org/2000/svg">
<path d="M45.5588 0C60.0305 0 71.2862 4.55764 79.326 13.6729C87.3658 22.6988 91.3857 34.5398 91.3857 49.1957C91.3857 63.941 87.4104 76.0947 79.46 85.6568C71.5095 95.2189 60.2538 100 45.6928 100C38.2784 100 31.6232 98.6595 25.7273 95.9786C19.8315 93.2976 15.0076 89.5889 11.2557 84.8526C7.59314 80.1162 4.77921 74.7096 2.81393 68.6327C0.937976 62.5559 0 55.9875 0 48.9276C0 34.0036 4.10923 22.118 12.3277 13.2708C20.6355 4.42359 31.7125 0 45.5588 0ZM45.5588 10.992C34.9285 10.992 26.7547 14.7453 21.0375 22.252C15.4096 29.6693 12.5957 38.874 12.5957 49.866C12.5957 61.8409 15.5883 71.403 21.5735 78.5523C27.648 85.6122 35.7324 89.1421 45.8268 89.1421C55.8319 89.1421 63.8271 85.5675 69.8122 78.4182C75.7974 71.269 78.79 61.7516 78.79 49.866C78.79 38.0697 75.7527 28.6416 69.6782 21.5818C63.6931 14.5219 55.6533 10.992 45.5588 10.992Z" fill="black"/>
<path d="M196.542 49.5979C196.542 61.3941 192.522 70.4647 184.482 76.8097C176.442 83.0652 166.571 86.193 154.869 86.193V97.7212H142.273V86.193C130.66 86.193 120.789 82.9759 112.66 76.5416C104.62 70.1072 100.6 61.126 100.6 49.5979C100.6 38.0697 104.665 28.9991 112.794 22.3861C120.923 15.6836 130.749 12.3324 142.273 12.3324V2.27882H154.869V12.3324C166.571 12.3324 176.442 15.639 184.482 22.252C192.522 28.8651 196.542 37.9803 196.542 49.5979ZM183.812 49.5979C183.812 41.1081 181.132 34.6291 175.772 30.1609C170.502 25.6032 163.534 23.101 154.869 22.6542V75.8713C163.712 75.2458 170.725 72.8329 175.906 68.6327C181.177 64.3432 183.812 57.9982 183.812 49.5979ZM142.273 75.8713V22.6542C133.608 23.101 126.595 25.6032 121.236 30.1609C115.965 34.6291 113.33 41.1081 113.33 49.5979C113.33 57.9982 115.92 64.3432 121.102 68.6327C126.372 72.8329 133.429 75.2458 142.273 75.8713Z" fill="black"/>
<path d="M251.657 0C266.129 0 277.384 4.55764 285.424 13.6729C293.464 22.6988 297.484 34.5398 297.484 49.1957C297.484 63.941 293.509 76.0947 285.558 85.6568C277.608 95.2189 266.352 100 251.791 100C244.377 100 237.721 98.6595 231.826 95.9786C225.93 93.2976 221.106 89.5889 217.354 84.8526C213.691 80.1162 210.877 74.7096 208.912 68.6327C207.036 62.5559 206.098 55.9875 206.098 48.9276C206.098 34.0036 210.208 22.118 218.426 13.2708C226.734 4.42359 237.811 0 251.657 0ZM251.657 10.992C241.027 10.992 232.853 14.7453 227.136 22.252C221.508 29.6693 218.694 38.874 218.694 49.866C218.694 61.8409 221.687 71.403 227.672 78.5523C233.746 85.6122 241.831 89.1421 251.925 89.1421C261.93 89.1421 269.925 85.5675 275.911 78.4182C281.896 71.269 284.888 61.7516 284.888 49.866C284.888 38.0697 281.851 28.6416 275.777 21.5818C269.791 14.5219 261.752 10.992 251.657 10.992Z" fill="black"/>
<path d="M295.687 96.2641C300.542 95.4871 303.989 94.5157 306.028 93.3501C308.165 92.0873 309.621 90.7274 310.398 89.2703L312.146 85.7734C312.437 85.0935 312.825 84.1221 313.311 82.8593C313.796 81.5965 314.379 79.9938 315.059 78.0511C316.224 74.9427 317.535 71.2515 318.991 66.9775C320.545 62.7035 322.098 58.2838 323.652 53.7184C325.205 49.0558 326.759 44.3933 328.313 39.7307C329.866 35.0682 331.226 30.8428 332.391 27.0544C333.556 23.169 334.478 19.9149 335.158 17.2922C335.935 14.5724 336.323 12.8239 336.323 12.0469C336.323 10.9784 335.741 10.0556 334.575 9.27847C333.41 8.40424 332.002 7.67572 330.352 7.0929C328.798 6.51008 327.245 6.0244 325.691 5.63586C324.137 5.15017 322.972 4.76163 322.195 4.47022V2.43035C325.691 2.62463 329.138 2.77033 332.536 2.86747C336.032 2.9646 339.528 3.01317 343.023 3.01317C345.548 3.01317 348.121 2.91604 350.742 2.72177C353.364 2.52749 355.937 2.43035 358.462 2.43035C361.86 2.43035 365.259 2.86747 368.657 3.74169C372.153 4.51879 375.26 5.78156 377.979 7.53002C380.697 9.27847 382.882 11.5126 384.533 14.2324C386.281 16.8551 387.155 20.012 387.155 23.7032C387.155 30.9885 385.552 36.8166 382.348 41.1878C379.144 45.5589 375.017 48.9587 369.968 51.3871C364.919 53.7184 359.287 55.2726 353.073 56.0497C346.858 56.8267 340.79 57.2153 334.867 57.2153C334.673 58.0895 334.284 59.4009 333.702 61.1493C333.216 62.8006 332.585 64.6948 331.808 66.8318C331.128 68.9688 330.352 71.2029 329.478 73.5342C328.701 75.8655 327.973 78.0511 327.293 80.0909C326.71 82.1308 326.176 83.9278 325.691 85.482C325.303 87.0362 325.108 88.1047 325.108 88.6875C325.108 90.0474 325.982 91.2131 327.73 92.1844C329.575 93.0586 331.663 93.7872 333.993 94.37C336.323 94.9528 338.605 95.3899 340.838 95.6813C343.169 95.9727 344.819 96.167 345.79 96.2641V98.304C345.111 98.2069 344.043 98.1097 342.586 98.0126C341.13 98.0126 339.43 97.964 337.488 97.8669C335.644 97.8669 333.604 97.8183 331.371 97.7212C329.138 97.7212 326.953 97.7212 324.817 97.7212H316.515C313.02 97.7212 309.524 97.7698 306.028 97.8669C302.533 97.964 299.086 98.1097 295.687 98.304V96.2641ZM335.595 54.884C340.644 54.7869 345.499 54.1069 350.16 52.8442C354.821 51.5814 358.899 49.6872 362.394 47.1617C365.987 44.6361 368.803 41.4306 370.842 37.5452C372.978 33.6597 374.046 29.0457 374.046 23.7032C374.046 17.3894 372.298 12.9211 368.803 10.2984C365.404 7.57858 360.841 6.21867 355.112 6.21867C354.626 6.21867 354.092 6.26724 353.51 6.36438C352.927 6.46151 352.393 6.55865 351.908 6.65579C349.092 14.621 346.373 22.5862 343.751 30.5513C341.13 38.5165 338.411 46.6274 335.595 54.884Z" fill="black"/>
<path d="M401.612 2.27882H419.032L449.717 83.1099L479.33 2.27882H496.884V97.7212H484.958V18.0965L455.077 97.7212H444.089L413.672 18.0965V97.7212H401.612V2.27882Z" fill="black"/>
<path d="M518.202 97.7212V2.27882H530.797V83.1099H531.065L577.83 2.27882H593.776V97.7212H581.18V16.622H580.912L534.013 97.7212H518.202Z" fill="black"/>
<path d="M681.099 2.27882V13.2708H649.074V97.7212H636.478V13.2708H604.453V2.27882H681.099Z" fill="black"/>
<path d="M763 69.437C763 78.3736 760.409 85.3441 755.228 90.3485C750.136 95.2636 742.945 97.7212 733.655 97.7212H691.848V2.27882H704.443V41.0188H733.655C743.034 41.0188 750.27 43.521 755.362 48.5255C760.454 53.4406 763 60.4111 763 69.437ZM750.27 69.437C750.27 57.7301 743.302 51.8767 729.367 51.8767H704.443V86.7292H729.367C743.302 86.7292 750.27 80.9651 750.27 69.437Z" fill="black"/>
<path d="M869.724 171.289V267.166H857.104V182.331H806.621V267.166H794V171.289H869.724Z" fill="black"/>
<path d="M931.174 169C945.674 169 956.952 173.578 965.008 182.735C973.064 191.802 977.092 203.697 977.092 218.419C977.092 233.232 973.109 245.441 965.142 255.046C957.176 264.652 945.898 269.455 931.308 269.455C923.879 269.455 917.21 268.108 911.303 265.415C905.395 262.722 900.562 258.996 896.802 254.238C893.133 249.481 890.313 244.049 888.344 237.945C886.464 231.84 885.524 225.242 885.524 218.15C885.524 203.158 889.642 191.219 897.877 182.331C906.201 173.444 917.3 169 931.174 169ZM931.174 180.042C920.522 180.042 912.332 183.812 906.604 191.353C900.965 198.804 898.145 208.051 898.145 219.093C898.145 231.122 901.144 240.728 907.141 247.909C913.227 255.001 921.328 258.547 931.442 258.547C941.467 258.547 949.478 254.957 955.475 247.775C961.472 240.593 964.471 231.032 964.471 219.093C964.471 207.243 961.428 197.772 955.341 190.68C949.344 183.588 941.288 180.042 931.174 180.042Z" fill="black"/>
<path d="M1077.09 291H1064.87V267.166H995.723V291H983.505V256.124H992.903C996.573 249.57 999.572 240.189 1001.9 227.98C1004.23 215.681 1005.39 202.979 1005.39 189.872V171.289H1066.48V256.124H1077.09V291ZM1053.86 256.124V182.331H1017.74V195.393C1017.74 206.974 1016.67 218.464 1014.52 229.865C1012.46 241.177 1009.91 249.929 1006.87 256.124H1053.86Z" fill="black"/>
<path d="M1165.52 171.289V267.166H1152.9V182.331H1102.42V267.166H1089.8V171.289H1165.52Z" fill="black"/>
<path d="M1186.69 267.166V171.289H1199.31V252.488H1199.58L1246.44 171.289H1262.42V267.166H1249.8V185.698H1249.53L1202.54 267.166H1186.69Z" fill="black"/>
<path d="M1364.55 230.943C1363.47 243.062 1359.27 252.533 1351.93 259.355C1344.68 266.088 1335.1 269.455 1323.2 269.455C1309.59 269.455 1298.8 264.966 1290.84 255.989C1282.87 246.922 1278.89 234.713 1278.89 219.362C1278.89 204.999 1282.87 193.059 1290.84 183.543C1298.89 173.937 1309.99 169.135 1324.14 169.135C1334.25 169.135 1343.16 171.873 1350.85 177.349C1358.55 182.825 1362.85 190.411 1363.74 200.106H1351.12C1349.69 193.822 1346.56 188.929 1341.72 185.428C1336.89 181.837 1330.94 180.042 1323.87 180.042C1313.22 180.042 1305.16 183.812 1299.7 191.353C1294.33 198.894 1291.64 208.185 1291.64 219.227C1291.64 231.436 1294.51 241.042 1300.24 248.044C1305.96 255.046 1313.8 258.547 1323.73 258.547C1331.88 258.547 1338.37 256.213 1343.2 251.545C1348.03 246.787 1350.94 239.92 1351.93 230.943H1364.55Z" fill="black"/>
<path d="M1458.09 171.289L1417.81 209.801L1459.7 267.166H1443.59L1408.95 218.419L1393.1 233.501V267.166H1380.48V171.289H1393.1V218.823L1441.57 171.289H1458.09Z" fill="black"/>
<path d="M1494.2 242.119L1459.29 171.289H1473.12L1501.05 229.731L1528.44 171.289H1542L1504.81 247.64C1500.96 255.54 1496.98 261.151 1492.86 264.472C1488.83 267.794 1484.36 269.455 1479.43 269.455C1475.14 269.455 1471.2 268.647 1467.62 267.031V256.258C1470.21 257.874 1473.79 258.682 1478.36 258.682C1483.64 258.682 1488.38 254.283 1492.59 245.486L1494.2 242.119Z" fill="black"/>
<path d="M646.768 222.768C647.744 221.791 647.744 220.209 646.768 219.232L630.858 203.322C629.882 202.346 628.299 202.346 627.322 203.322C626.346 204.299 626.346 205.882 627.322 206.858L641.464 221L627.322 235.142C626.346 236.118 626.346 237.701 627.322 238.678C628.299 239.654 629.882 239.654 630.858 238.678L646.768 222.768ZM536 223.5H645V218.5H536V223.5Z" fill="black"/>
</svg>
