<svg width="1540" height="397" viewBox="0 0 1540 397" fill="none" xmlns="http://www.w3.org/2000/svg">
<path d="M9.87469 341V342.776H2.0002V347.584H8.94828V349.295H2.0002V356.421H0.0210548V341H9.87469Z" fill="white"/>
<path d="M13.6692 341V343.253H11.8584V341H13.6692ZM13.6692 345.245V356.421H11.8584V345.245H13.6692Z" fill="white"/>
<path d="M22.1054 344.985V346.891C21.9791 346.877 21.8246 346.87 21.6422 346.87C21.0667 346.87 20.5684 346.963 20.1473 347.151C19.7262 347.324 19.3893 347.555 19.1367 347.844C18.898 348.133 18.7015 348.494 18.5471 348.927C18.3927 349.36 18.2874 349.794 18.2313 350.227C18.1892 350.66 18.1681 351.151 18.1681 351.7V356.421H16.3785V345.245H18.0839V347.649C18.7998 345.873 20.1403 344.985 22.1054 344.985Z" fill="white"/>
<path d="M32.3681 352.891C31.8207 355.49 30.2416 356.789 27.6308 356.789C26.0306 356.789 24.7743 356.277 23.862 355.252C22.9636 354.226 22.5145 352.804 22.5145 350.985C22.5145 349.18 22.9777 347.721 23.9041 346.61C24.8445 345.483 26.0657 344.92 27.5676 344.92C29.238 344.92 30.4732 345.505 31.2733 346.675C32.0874 347.83 32.4944 349.295 32.4944 351.071V351.331H24.3252L24.3041 351.461C24.3041 352.645 24.6059 353.577 25.2095 354.255C25.813 354.934 26.6412 355.273 27.6939 355.273C28.48 355.273 29.0976 355.086 29.5468 354.71C30.01 354.335 30.3679 353.728 30.6206 352.891H32.3681ZM30.6416 349.837C30.5574 348.768 30.2416 347.938 29.6941 347.346C29.1467 346.74 28.4238 346.436 27.5255 346.436C26.6552 346.436 25.9324 346.74 25.3569 347.346C24.7814 347.953 24.4375 348.783 24.3252 349.837H30.6416Z" fill="white"/>
<path d="M40.6517 341H46.8207C48.3507 341 49.5649 341.361 50.4632 342.083C51.3615 342.79 51.8107 343.91 51.8107 345.44C51.8107 348.545 50.1053 350.097 46.6944 350.097H42.6308V356.421H40.6517V341ZM42.6308 342.754V348.386H46.4417C47.5085 348.386 48.3367 348.184 48.9262 347.779C49.5298 347.361 49.8316 346.624 49.8316 345.57C49.8316 344.978 49.7333 344.487 49.5368 344.097C49.3543 343.707 49.0806 343.419 48.7157 343.231C48.3507 343.043 47.9717 342.92 47.5787 342.863C47.1857 342.79 46.7155 342.754 46.168 342.754H42.6308Z" fill="white"/>
<path d="M59.5681 344.985V346.891C59.4417 346.877 59.2873 346.87 59.1049 346.87C58.5294 346.87 58.0311 346.963 57.61 347.151C57.1889 347.324 56.852 347.555 56.5994 347.844C56.3607 348.133 56.1642 348.494 56.0098 348.927C55.8554 349.36 55.7501 349.794 55.694 350.227C55.6519 350.66 55.6308 351.151 55.6308 351.7V356.421H53.8412V345.245H55.5466V347.649C56.2625 345.873 57.603 344.985 59.5681 344.985Z" fill="white"/>
<path d="M69.8308 352.891C69.2834 355.49 67.7043 356.789 65.0935 356.789C63.4933 356.789 62.237 356.277 61.3247 355.252C60.4263 354.226 59.9772 352.804 59.9772 350.985C59.9772 349.18 60.4404 347.721 61.3668 346.61C62.3072 345.483 63.5284 344.92 65.0303 344.92C66.7007 344.92 67.9359 345.505 68.736 346.675C69.5501 347.83 69.9571 349.295 69.9571 351.071V351.331H61.7879L61.7668 351.461C61.7668 352.645 62.0686 353.577 62.6722 354.255C63.2757 354.934 64.1039 355.273 65.1566 355.273C65.9427 355.273 66.5603 355.086 67.0095 354.71C67.4727 354.335 67.8306 353.728 68.0833 352.891H69.8308ZM68.1043 349.837C68.0201 348.768 67.7043 347.938 67.1568 347.346C66.6094 346.74 65.8865 346.436 64.9882 346.436C64.1179 346.436 63.3951 346.74 62.8196 347.346C62.2441 347.953 61.9002 348.783 61.7879 349.837H68.1043Z" fill="white"/>
<path d="M79.9184 348.494H78.1287C78.0164 347.137 77.1321 346.458 75.4758 346.458C74.788 346.458 74.2476 346.595 73.8546 346.87C73.4615 347.144 73.265 347.512 73.265 347.974C73.265 348.104 73.2791 348.234 73.3071 348.364C73.3352 348.48 73.3843 348.588 73.4545 348.689C73.5387 348.776 73.6089 348.855 73.6651 348.927C73.7353 348.999 73.8405 349.072 73.9809 349.144C74.1353 349.202 74.2476 349.252 74.3178 349.295C74.402 349.339 74.5424 349.389 74.7389 349.447C74.9494 349.49 75.0968 349.526 75.181 349.555C75.2652 349.57 75.4267 349.606 75.6653 349.664C75.9179 349.721 76.0794 349.757 76.1495 349.772C76.6689 349.887 77.0549 349.981 77.3075 350.053C77.5742 350.126 77.9322 350.263 78.3813 350.465C78.8446 350.653 79.1955 350.855 79.4341 351.071C79.6727 351.274 79.8833 351.562 80.0657 351.938C80.2622 352.299 80.3605 352.71 80.3605 353.172C80.3605 354.255 79.9464 355.129 79.1183 355.793C78.3042 356.443 77.2163 356.768 75.8548 356.768C74.3809 356.768 73.244 356.436 72.4439 355.771C71.6579 355.107 71.2368 354.147 71.1806 352.891H72.9492C73.0475 354.465 74.03 355.252 75.8969 355.252C76.697 355.252 77.3356 355.086 77.8129 354.753C78.3041 354.407 78.5498 353.952 78.5498 353.389C78.5498 353.013 78.4235 352.703 78.1708 352.458C77.9181 352.212 77.6374 352.039 77.3286 351.938C77.0198 351.822 76.5777 351.692 76.0022 351.548C75.9179 351.533 75.8548 351.519 75.8127 351.505C75.6863 351.476 75.4126 351.418 74.9915 351.331C74.5845 351.23 74.2897 351.151 74.1072 351.093C73.9248 351.035 73.6581 350.949 73.3071 350.833C72.9703 350.703 72.7176 350.573 72.5492 350.443C72.3807 350.299 72.1912 350.126 71.9807 349.923C71.7842 349.707 71.6438 349.461 71.5596 349.187C71.4754 348.898 71.4333 348.573 71.4333 348.212C71.4333 347.202 71.8052 346.4 72.5492 345.808C73.3071 345.216 74.3178 344.92 75.5811 344.92C76.8584 344.92 77.8971 345.231 78.6972 345.852C79.5113 346.472 79.9184 347.353 79.9184 348.494Z" fill="white"/>
<path d="M90.4457 348.494H88.6561C88.5438 347.137 87.6595 346.458 86.0032 346.458C85.3154 346.458 84.775 346.595 84.382 346.87C83.9889 347.144 83.7924 347.512 83.7924 347.974C83.7924 348.104 83.8065 348.234 83.8345 348.364C83.8626 348.48 83.9117 348.588 83.9819 348.689C84.0661 348.776 84.1363 348.855 84.1925 348.927C84.2626 348.999 84.3679 349.072 84.5083 349.144C84.6627 349.202 84.775 349.252 84.8452 349.295C84.9294 349.339 85.0697 349.389 85.2663 349.447C85.4768 349.49 85.6242 349.526 85.7084 349.555C85.7926 349.57 85.954 349.606 86.1927 349.664C86.4453 349.721 86.6068 349.757 86.6769 349.772C87.1963 349.887 87.5823 349.981 87.8349 350.053C88.1016 350.126 88.4596 350.263 88.9087 350.465C89.3719 350.653 89.7229 350.855 89.9615 351.071C90.2001 351.274 90.4106 351.562 90.5931 351.938C90.7896 352.299 90.8879 352.71 90.8879 353.172C90.8879 354.255 90.4738 355.129 89.6457 355.793C88.8315 356.443 87.7437 356.768 86.3822 356.768C84.9083 356.768 83.7714 356.436 82.9713 355.771C82.1852 355.107 81.7641 354.147 81.708 352.891H83.4766C83.5749 354.465 84.5574 355.252 86.4243 355.252C87.2243 355.252 87.863 355.086 88.3403 354.753C88.8315 354.407 89.0772 353.952 89.0772 353.389C89.0772 353.013 88.9508 352.703 88.6982 352.458C88.4455 352.212 88.1648 352.039 87.856 351.938C87.5472 351.822 87.105 351.692 86.5295 351.548C86.4453 351.533 86.3822 351.519 86.34 351.505C86.2137 351.476 85.94 351.418 85.5189 351.331C85.1119 351.23 84.8171 351.151 84.6346 351.093C84.4521 351.035 84.1854 350.949 83.8345 350.833C83.4977 350.703 83.245 350.573 83.0766 350.443C82.9081 350.299 82.7186 350.126 82.5081 349.923C82.3116 349.707 82.1712 349.461 82.087 349.187C82.0028 348.898 81.9607 348.573 81.9607 348.212C81.9607 347.202 82.3326 346.4 83.0766 345.808C83.8345 345.216 84.8452 344.92 86.1085 344.92C87.3858 344.92 88.4245 345.231 89.2246 345.852C90.0387 346.472 90.4457 347.353 90.4457 348.494Z" fill="white"/>
<path d="M95.6463 354.017V355.49C95.6463 356.039 95.6182 356.501 95.562 356.876C95.5199 357.266 95.4217 357.656 95.2673 358.046C95.1129 358.435 94.8743 358.76 94.5514 359.02C94.2286 359.295 93.8145 359.497 93.3092 359.627V358.544C94.0672 358.284 94.4532 357.576 94.4672 356.421H93.3092V354.017H95.6463Z" fill="white"/>
<path d="M112.125 346.87H106.461V356.421H104.671V345.245H112.125V346.87Z" fill="white"/>
<path d="M113.432 354.017V356.421H111.095V354.017H113.432Z" fill="white"/>
<path d="M116.892 341H119.629L124.45 354.06L129.103 341H131.861V356.421H129.988V343.556L125.292 356.421H123.566L118.786 343.556V356.421H116.892V341Z" fill="white"/>
<path d="M135.759 346.523C136.713 345.455 138.011 344.92 139.654 344.92C141.296 344.92 142.573 345.433 143.486 346.458C144.398 347.483 144.854 348.92 144.854 350.768C144.854 352.66 144.398 354.133 143.486 355.187C142.573 356.241 141.289 356.768 139.633 356.768C137.976 356.768 136.678 356.248 135.738 355.208C134.797 354.169 134.327 352.725 134.327 350.876C134.327 349.043 134.804 347.592 135.759 346.523ZM142.096 347.649C141.492 346.855 140.664 346.458 139.612 346.458C138.559 346.458 137.724 346.855 137.106 347.649C136.488 348.443 136.18 349.505 136.18 350.833C136.18 352.205 136.481 353.281 137.085 354.06C137.703 354.826 138.559 355.208 139.654 355.208C140.706 355.208 141.528 354.818 142.117 354.039C142.721 353.259 143.022 352.183 143.022 350.811C143.022 349.483 142.714 348.429 142.096 347.649Z" fill="white"/>
<path d="M156.334 352.349C156.179 353.692 155.681 354.761 154.839 355.555C154.011 356.349 152.93 356.746 151.596 356.746C149.954 356.746 148.684 356.226 147.785 355.187C146.887 354.133 146.438 352.732 146.438 350.985C146.438 349.122 146.908 347.649 147.849 346.566C148.789 345.469 150.059 344.92 151.66 344.92C152.993 344.92 154.06 345.267 154.86 345.96C155.66 346.639 156.13 347.613 156.271 348.884H154.418C154.095 347.267 153.183 346.458 151.681 346.458C150.642 346.458 149.821 346.855 149.217 347.649C148.614 348.429 148.312 349.49 148.312 350.833C148.312 352.19 148.6 353.259 149.175 354.039C149.751 354.818 150.544 355.208 151.554 355.208C152.368 355.208 153.028 354.963 153.533 354.472C154.053 353.981 154.383 353.273 154.523 352.349H156.334Z" fill="white"/>
<path d="M168.021 356.421H165.747L161.789 350.92L160.084 352.631V356.421H158.294V345.245H160.084V350.573L165.053 345.245H167.453L163.074 349.642L168.021 356.421Z" fill="white"/>
<path d="M169.17 356.421V345.245H174.202C174.918 345.245 175.529 345.31 176.034 345.44C176.539 345.556 176.981 345.823 177.36 346.241C177.739 346.66 177.929 347.231 177.929 347.953C177.929 349.05 177.395 349.851 176.329 350.357V350.378C176.974 350.508 177.48 350.819 177.845 351.31C178.21 351.786 178.392 352.393 178.392 353.129C178.392 354.082 178.083 354.869 177.466 355.49C176.848 356.111 176.055 356.421 175.086 356.421H169.17ZM174.013 349.75C174.757 349.75 175.283 349.627 175.592 349.382C175.915 349.122 176.076 348.747 176.076 348.256C176.076 347.765 175.922 347.404 175.613 347.173C175.304 346.942 174.771 346.826 174.013 346.826H170.918V349.75H174.013ZM170.918 351.31V354.84H174.75C175.311 354.84 175.746 354.667 176.055 354.32C176.378 353.974 176.539 353.526 176.539 352.977C176.539 351.866 175.837 351.31 174.434 351.31H170.918Z" fill="white"/>
<path d="M190.143 354.948V356.378C189.778 356.522 189.371 356.594 188.922 356.594C187.897 356.594 187.371 356.046 187.343 354.948C186.318 356.132 185.006 356.724 183.405 356.724C182.339 356.724 181.489 356.443 180.858 355.88C180.24 355.317 179.931 354.544 179.931 353.562C179.931 351.57 181.216 350.407 183.784 350.075C183.953 350.046 184.198 350.017 184.521 349.988C185.742 349.844 186.493 349.678 186.774 349.49C187.097 349.259 187.258 348.862 187.258 348.299C187.258 347.072 186.437 346.458 184.795 346.458C183.953 346.458 183.314 346.639 182.879 347C182.444 347.346 182.184 347.924 182.1 348.732H180.352C180.381 347.534 180.795 346.602 181.595 345.938C182.395 345.274 183.497 344.942 184.9 344.942C186.43 344.942 187.567 345.303 188.311 346.025C188.55 346.256 188.725 346.559 188.838 346.935C188.95 347.31 189.013 347.62 189.027 347.866C189.041 348.097 189.048 348.451 189.048 348.927C189.048 349.476 189.034 350.306 189.006 351.418C188.978 352.53 188.964 353.36 188.964 353.909C188.964 354.313 189.013 354.602 189.111 354.775C189.224 354.934 189.42 355.013 189.701 355.013C189.813 355.013 189.96 354.992 190.143 354.948ZM187.258 350.617C187.132 350.718 186.999 350.804 186.858 350.876C186.718 350.949 186.536 351.006 186.311 351.05C186.1 351.093 185.953 351.129 185.869 351.158C185.799 351.172 185.616 351.201 185.321 351.245C185.027 351.274 184.872 351.288 184.858 351.288C184.423 351.346 184.135 351.389 183.995 351.418C183.869 351.432 183.616 351.49 183.237 351.591C182.872 351.692 182.612 351.808 182.458 351.938C182.304 352.068 182.149 352.263 181.995 352.523C181.854 352.768 181.784 353.064 181.784 353.411C181.784 353.988 181.974 354.443 182.353 354.775C182.746 355.107 183.279 355.273 183.953 355.273C184.809 355.273 185.574 355.013 186.248 354.494C186.922 353.974 187.258 353.36 187.258 352.652V350.617Z" fill="white"/>
<path d="M194.567 354.017V355.49C194.567 356.039 194.539 356.501 194.482 356.876C194.44 357.266 194.342 357.656 194.188 358.046C194.033 358.435 193.795 358.76 193.472 359.02C193.149 359.295 192.735 359.497 192.23 359.627V358.544C192.988 358.284 193.374 357.576 193.388 356.421H192.23V354.017H194.567Z" fill="white"/>
<path d="M212.54 345.245L207.887 357.851C207.704 358.356 207.543 358.746 207.403 359.02C207.276 359.309 207.087 359.619 206.834 359.952C206.595 360.298 206.301 360.544 205.95 360.688C205.613 360.847 205.213 360.926 204.75 360.926C204.399 360.926 203.957 360.861 203.423 360.731V359.085C203.943 359.244 204.329 359.323 204.581 359.323C205.171 359.323 205.592 359.013 205.845 358.392L206.687 356.356L202.37 345.245H204.392L207.613 354.147L210.666 345.245H212.54Z" fill="white"/>
<path d="M222.246 345.245V356.421H220.457V346.87H216.583L216.435 351.808C216.393 353.512 216.091 354.746 215.53 355.511C214.968 356.277 214.267 356.659 213.424 356.659C212.905 356.659 212.477 356.58 212.14 356.421V354.927C212.323 355.028 212.638 355.078 213.088 355.078C213.509 355.078 213.867 354.847 214.161 354.385C214.47 353.909 214.639 353.115 214.667 352.003L214.856 345.245H222.246Z" fill="white"/>
<path d="M227.629 354.017V356.421H225.292V354.017H227.629Z" fill="white"/>
<path d="M231.089 341H233.826L238.648 354.06L243.301 341H246.059V356.421H244.185V343.556L239.49 356.421H237.763L232.984 343.556V356.421H231.089V341Z" fill="white"/>
<path d="M258.715 354.948V356.378C258.35 356.522 257.943 356.594 257.494 356.594C256.469 356.594 255.943 356.046 255.915 354.948C254.89 356.132 253.577 356.724 251.977 356.724C250.911 356.724 250.061 356.443 249.43 355.88C248.812 355.317 248.503 354.544 248.503 353.562C248.503 351.57 249.788 350.407 252.356 350.075C252.525 350.046 252.77 350.017 253.093 349.988C254.314 349.844 255.065 349.678 255.346 349.49C255.669 349.259 255.83 348.862 255.83 348.299C255.83 347.072 255.009 346.458 253.367 346.458C252.525 346.458 251.886 346.639 251.451 347C251.016 347.346 250.756 347.924 250.672 348.732H248.924C248.952 347.534 249.367 346.602 250.167 345.938C250.967 345.274 252.069 344.942 253.472 344.942C255.002 344.942 256.139 345.303 256.883 346.025C257.122 346.256 257.297 346.559 257.409 346.935C257.522 347.31 257.585 347.62 257.599 347.866C257.613 348.097 257.62 348.451 257.62 348.927C257.62 349.476 257.606 350.306 257.578 351.418C257.55 352.53 257.536 353.36 257.536 353.909C257.536 354.313 257.585 354.602 257.683 354.775C257.795 354.934 257.992 355.013 258.273 355.013C258.385 355.013 258.532 354.992 258.715 354.948ZM255.83 350.617C255.704 350.718 255.571 350.804 255.43 350.876C255.29 350.949 255.107 351.006 254.883 351.05C254.672 351.093 254.525 351.129 254.441 351.158C254.371 351.172 254.188 351.201 253.893 351.245C253.599 351.274 253.444 351.288 253.43 351.288C252.995 351.346 252.707 351.389 252.567 351.418C252.441 351.432 252.188 351.49 251.809 351.591C251.444 351.692 251.184 351.808 251.03 351.938C250.875 352.068 250.721 352.263 250.567 352.523C250.426 352.768 250.356 353.064 250.356 353.411C250.356 353.988 250.546 354.443 250.925 354.775C251.318 355.107 251.851 355.273 252.525 355.273C253.381 355.273 254.146 355.013 254.82 354.494C255.493 353.974 255.83 353.36 255.83 352.652V350.617Z" fill="white"/>
<path d="M269.455 345.245V356.421H267.665V346.87H263.791L263.644 351.808C263.602 353.512 263.3 354.746 262.739 355.511C262.177 356.277 261.475 356.659 260.633 356.659C260.114 356.659 259.686 356.58 259.349 356.421V354.927C259.531 355.028 259.847 355.078 260.296 355.078C260.717 355.078 261.075 354.847 261.37 354.385C261.679 353.909 261.847 353.115 261.875 352.003L262.065 345.245H269.455Z" fill="white"/>
<path d="M281.723 354.948V356.378C281.358 356.522 280.951 356.594 280.502 356.594C279.477 356.594 278.951 356.046 278.923 354.948C277.898 356.132 276.586 356.724 274.985 356.724C273.919 356.724 273.069 356.443 272.438 355.88C271.82 355.317 271.511 354.544 271.511 353.562C271.511 351.57 272.796 350.407 275.364 350.075C275.533 350.046 275.779 350.017 276.101 349.988C277.323 349.844 278.073 349.678 278.354 349.49C278.677 349.259 278.838 348.862 278.838 348.299C278.838 347.072 278.017 346.458 276.375 346.458C275.533 346.458 274.894 346.639 274.459 347C274.024 347.346 273.764 347.924 273.68 348.732H271.932C271.961 347.534 272.375 346.602 273.175 345.938C273.975 345.274 275.077 344.942 276.48 344.942C278.01 344.942 279.147 345.303 279.891 346.025C280.13 346.256 280.305 346.559 280.418 346.935C280.53 347.31 280.593 347.62 280.607 347.866C280.621 348.097 280.628 348.451 280.628 348.927C280.628 349.476 280.614 350.306 280.586 351.418C280.558 352.53 280.544 353.36 280.544 353.909C280.544 354.313 280.593 354.602 280.691 354.775C280.804 354.934 281 355.013 281.281 355.013C281.393 355.013 281.54 354.992 281.723 354.948ZM278.838 350.617C278.712 350.718 278.579 350.804 278.438 350.876C278.298 350.949 278.116 351.006 277.891 351.05C277.68 351.093 277.533 351.129 277.449 351.158C277.379 351.172 277.196 351.201 276.901 351.245C276.607 351.274 276.452 351.288 276.438 351.288C276.003 351.346 275.715 351.389 275.575 351.418C275.449 351.432 275.196 351.49 274.817 351.591C274.452 351.692 274.192 351.808 274.038 351.938C273.884 352.068 273.729 352.263 273.575 352.523C273.434 352.768 273.364 353.064 273.364 353.411C273.364 353.988 273.554 354.443 273.933 354.775C274.326 355.107 274.859 355.273 275.533 355.273C276.389 355.273 277.154 355.013 277.828 354.494C278.502 353.974 278.838 353.36 278.838 352.652V350.617Z" fill="white"/>
<path d="M292 356.421H290.21V351.851H287.831L284.399 356.421H282.02L285.768 351.786C284.968 351.656 284.315 351.31 283.81 350.747C283.318 350.169 283.073 349.433 283.073 348.537C283.073 347.498 283.375 346.689 283.978 346.112C284.582 345.534 285.417 345.245 286.484 345.245H292V356.421ZM290.21 346.87H287.052C285.62 346.87 284.905 347.425 284.905 348.537C284.905 349.664 285.62 350.227 287.052 350.227H290.21V346.87Z" fill="white"/>
<path d="M11.8749 366.269V381.69H9.89575V368.045H1.97915V381.69H0V366.269H11.8749Z" fill="white"/>
<path d="M17.174 381.69H14.879V370.514H16.6686V379.632H16.7108L21.5955 370.514H23.8904V381.69H22.1008V372.571H22.0587L17.174 381.69Z" fill="white"/>
<path d="M27.4416 371.792C28.3961 370.723 29.6945 370.189 31.3367 370.189C32.979 370.189 34.2563 370.702 35.1687 371.727C36.0811 372.752 36.5373 374.189 36.5373 376.037C36.5373 377.928 36.0811 379.401 35.1687 380.455C34.2563 381.509 32.972 382.036 31.3157 382.036C29.6594 382.036 28.361 381.517 27.4206 380.477C26.4801 379.437 26.0099 377.993 26.0099 376.145C26.0099 374.311 26.4871 372.86 27.4416 371.792ZM33.7791 372.918C33.1755 372.124 32.3474 371.727 31.2946 371.727C30.2419 371.727 29.4067 372.124 28.7891 372.918C28.1715 373.712 27.8627 374.773 27.8627 376.102C27.8627 377.474 28.1645 378.549 28.7681 379.329C29.3857 380.094 30.2419 380.477 31.3367 380.477C32.3895 380.477 33.2106 380.087 33.8002 379.307C34.4037 378.528 34.7055 377.452 34.7055 376.08C34.7055 374.752 34.3967 373.698 33.7791 372.918Z" fill="white"/>
<path d="M40.4581 381.69H38.6684V370.514H40.4581V374.954H45.8902V370.514H47.6799V381.69H45.8902V376.578H40.4581V381.69Z" fill="white"/>
<path d="M59.653 378.159C59.1055 380.759 57.5264 382.058 54.9156 382.058C53.3155 382.058 52.0592 381.545 51.1468 380.52C50.2485 379.495 49.7993 378.073 49.7993 376.253C49.7993 374.449 50.2625 372.99 51.1889 371.878C52.1294 370.752 53.3506 370.189 54.8525 370.189C56.5228 370.189 57.758 370.774 58.5581 371.943C59.3722 373.099 59.7793 374.564 59.7793 376.34V376.6H51.61L51.589 376.73C51.589 377.914 51.8908 378.845 52.4943 379.524C53.0979 380.203 53.9261 380.542 54.9788 380.542C55.7648 380.542 56.3825 380.354 56.8316 379.979C57.2948 379.603 57.6528 378.997 57.9054 378.159H59.653ZM57.9265 375.106C57.8422 374.037 57.5264 373.207 56.979 372.615C56.4316 372.008 55.7087 371.705 54.8104 371.705C53.9401 371.705 53.2172 372.008 52.6417 372.615C52.0662 373.221 51.7223 374.052 51.61 375.106H57.9265Z" fill="white"/>
<path d="M63.3609 370.514V372.095C64.1469 370.81 65.3681 370.167 67.0244 370.167C68.5404 370.167 69.7405 370.694 70.6248 371.748C71.5231 372.803 71.9723 374.232 71.9723 376.037C71.9723 377.842 71.5302 379.286 70.6459 380.369C69.7756 381.437 68.5965 381.971 67.1087 381.971C65.5506 381.971 64.3364 381.358 63.4662 380.13V386H61.6765V370.514H63.3609ZM66.7507 371.705C65.712 371.705 64.8909 372.095 64.2873 372.875C63.6978 373.64 63.403 374.701 63.403 376.059C63.403 377.416 63.7048 378.484 64.3084 379.264C64.926 380.029 65.7611 380.412 66.8139 380.412C67.8386 380.412 68.6457 380.022 69.2352 379.242C69.8247 378.463 70.1195 377.401 70.1195 376.059C70.1195 374.701 69.8177 373.64 69.2141 372.875C68.6246 372.095 67.8035 371.705 66.7507 371.705Z" fill="white"/>
<path d="M83.5056 377.618C83.3512 378.961 82.8529 380.029 82.0107 380.824C81.1825 381.618 80.1017 382.015 78.7682 382.015C77.126 382.015 75.8557 381.495 74.9573 380.455C74.059 379.401 73.6098 378.001 73.6098 376.253C73.6098 374.391 74.08 372.918 75.0205 371.835C75.9609 370.738 77.2312 370.189 78.8314 370.189C80.1649 370.189 81.2316 370.536 82.0317 371.229C82.8318 371.907 83.302 372.882 83.4424 374.153H81.5896C81.2667 372.535 80.3544 371.727 78.8525 371.727C77.8138 371.727 76.9926 372.124 76.389 372.918C75.7855 373.698 75.4837 374.759 75.4837 376.102C75.4837 377.459 75.7714 378.528 76.3469 379.307C76.9224 380.087 77.7155 380.477 78.7261 380.477C79.5402 380.477 80.2 380.232 80.7053 379.741C81.2246 379.25 81.5545 378.542 81.6948 377.618H83.5056Z" fill="white"/>
<path d="M95.1933 381.69H92.9193L88.961 376.189L87.2556 377.9V381.69H85.466V370.514H87.2556V375.842L92.2245 370.514H94.6248L90.2454 374.911L95.1933 381.69Z" fill="white"/>
<path d="M106.006 380.217V381.647C105.641 381.791 105.234 381.863 104.785 381.863C103.76 381.863 103.234 381.314 103.206 380.217C102.181 381.401 100.869 381.993 99.2685 381.993C98.2017 381.993 97.3525 381.712 96.7209 381.148C96.1033 380.585 95.7945 379.813 95.7945 378.831C95.7945 376.838 97.0788 375.676 99.6475 375.344C99.8159 375.315 100.062 375.286 100.384 375.257C101.606 375.113 102.357 374.947 102.637 374.759C102.96 374.528 103.122 374.131 103.122 373.568C103.122 372.34 102.3 371.727 100.658 371.727C99.8159 371.727 99.1773 371.907 98.7421 372.268C98.307 372.615 98.0473 373.192 97.9631 374.001H96.2156C96.2436 372.803 96.6577 371.871 97.4578 371.207C98.2579 370.543 99.3597 370.211 100.763 370.211C102.293 370.211 103.43 370.572 104.174 371.294C104.413 371.525 104.588 371.828 104.701 372.203C104.813 372.579 104.876 372.889 104.89 373.135C104.904 373.366 104.911 373.719 104.911 374.196C104.911 374.745 104.897 375.575 104.869 376.687C104.841 377.798 104.827 378.629 104.827 379.177C104.827 379.582 104.876 379.871 104.974 380.044C105.087 380.203 105.283 380.282 105.564 380.282C105.676 380.282 105.824 380.26 106.006 380.217ZM103.122 375.885C102.995 375.986 102.862 376.073 102.721 376.145C102.581 376.217 102.399 376.275 102.174 376.318C101.964 376.362 101.816 376.398 101.732 376.427C101.662 376.441 101.479 376.47 101.184 376.513C100.89 376.542 100.735 376.557 100.721 376.557C100.286 376.614 99.9984 376.658 99.858 376.687C99.7317 376.701 99.4791 376.759 99.1001 376.86C98.7351 376.961 98.4754 377.077 98.321 377.206C98.1666 377.336 98.0122 377.531 97.8578 377.791C97.7175 378.037 97.6473 378.333 97.6473 378.679C97.6473 379.257 97.8368 379.712 98.2158 380.044C98.6088 380.376 99.1422 380.542 99.8159 380.542C100.672 380.542 101.437 380.282 102.111 379.762C102.785 379.242 103.122 378.629 103.122 377.921V375.885Z" fill="white"/>
<path d="M116.283 381.69H114.493V377.12H112.114L108.682 381.69H106.303L110.051 377.055C109.251 376.925 108.598 376.578 108.093 376.015C107.601 375.438 107.356 374.701 107.356 373.806C107.356 372.766 107.658 371.958 108.261 371.38C108.865 370.803 109.7 370.514 110.767 370.514H116.283V381.69ZM114.493 372.138H111.335C109.903 372.138 109.188 372.694 109.188 373.806C109.188 374.932 109.903 375.495 111.335 375.495H114.493V372.138Z" fill="white"/>
<path d="M121.739 379.286V380.759C121.739 381.307 121.71 381.769 121.654 382.145C121.612 382.535 121.514 382.924 121.36 383.314C121.205 383.704 120.967 384.029 120.644 384.289C120.321 384.563 119.907 384.765 119.401 384.895V383.812C120.159 383.553 120.545 382.845 120.559 381.69H119.401V379.286H121.739Z" fill="white"/>
<path d="M141.249 385.242H139.543V381.69H131.248V385.242H129.542V380.065H130.721C131.058 379.401 131.367 378.376 131.648 376.99C131.943 375.589 132.09 374.225 132.09 372.896V370.514H139.838V380.065H141.249V385.242ZM138.048 380.065V372.138H133.837V373.07C133.837 374.384 133.704 375.719 133.437 377.077C133.185 378.419 132.897 379.416 132.574 380.065H138.048Z" fill="white"/>
<path d="M145.549 379.286V381.69H143.211V379.286H145.549Z" fill="white"/>
<path d="M154.862 366.355V381.69H152.903V370.579H149.156V369.193C150.363 369.193 151.317 368.991 152.019 368.586C152.735 368.182 153.212 367.438 153.451 366.355H154.862Z" fill="white"/>
<path d="M169.867 376.427V377.986H167.845V381.69H166.161V377.986H159.613V376.253L166.392 366.334H167.845V376.427H169.867ZM166.161 376.427V369.041L161.192 376.427H166.161Z" fill="white"/>
<path d="M174.807 379.286V381.69H172.47V379.286H174.807Z" fill="white"/>
<path d="M1305.62 351V365.889H1303.66V358.925H1295.79V365.889H1293.82V351H1295.79V357.211H1303.66V351H1305.62Z" fill="white"/>
<path d="M1316.62 358.235H1314.85C1314.73 356.925 1313.86 356.27 1312.21 356.27C1311.53 356.27 1310.99 356.402 1310.6 356.667C1310.21 356.932 1310.01 357.287 1310.01 357.733C1310.01 357.859 1310.03 357.984 1310.05 358.11C1310.08 358.221 1310.13 358.326 1310.2 358.423C1310.28 358.507 1310.35 358.584 1310.41 358.654C1310.48 358.723 1310.58 358.793 1310.72 358.863C1310.88 358.918 1310.99 358.967 1311.06 359.009C1311.14 359.051 1311.28 359.1 1311.48 359.155C1311.69 359.197 1311.83 359.232 1311.92 359.26C1312 359.274 1312.16 359.309 1312.4 359.364C1312.65 359.42 1312.81 359.455 1312.88 359.469C1313.4 359.581 1313.78 359.671 1314.03 359.741C1314.29 359.811 1314.65 359.943 1315.1 360.138C1315.56 360.319 1315.91 360.515 1316.14 360.724C1316.38 360.919 1316.59 361.198 1316.77 361.56C1316.97 361.909 1317.06 362.306 1317.06 362.752C1317.06 363.798 1316.65 364.641 1315.83 365.282C1315.02 365.91 1313.94 366.223 1312.59 366.223C1311.12 366.223 1309.99 365.903 1309.2 365.261C1308.41 364.62 1308 363.693 1307.94 362.48H1309.7C1309.8 364 1310.77 364.76 1312.63 364.76C1313.42 364.76 1314.06 364.599 1314.53 364.279C1315.02 363.944 1315.26 363.505 1315.26 362.961C1315.26 362.599 1315.14 362.299 1314.89 362.062C1314.64 361.825 1314.36 361.658 1314.05 361.56C1313.74 361.449 1313.3 361.323 1312.73 361.184C1312.65 361.17 1312.59 361.156 1312.54 361.142C1312.42 361.114 1312.15 361.058 1311.73 360.975C1311.32 360.877 1311.03 360.8 1310.85 360.745C1310.67 360.689 1310.4 360.605 1310.05 360.494C1309.72 360.368 1309.47 360.243 1309.3 360.117C1309.13 359.978 1308.94 359.811 1308.74 359.615C1308.54 359.406 1308.4 359.169 1308.32 358.904C1308.23 358.626 1308.19 358.312 1308.19 357.963C1308.19 356.988 1308.56 356.214 1309.3 355.642C1310.05 355.071 1311.06 354.785 1312.31 354.785C1313.58 354.785 1314.62 355.085 1315.41 355.684C1316.22 356.284 1316.62 357.134 1316.62 358.235Z" fill="white"/>
<path d="M1328.3 362.48C1327.76 364.99 1326.19 366.244 1323.59 366.244C1322 366.244 1320.75 365.749 1319.85 364.76C1318.95 363.77 1318.51 362.397 1318.51 360.64C1318.51 358.897 1318.97 357.489 1319.89 356.416C1320.82 355.329 1322.04 354.785 1323.53 354.785C1325.19 354.785 1326.42 355.35 1327.21 356.479C1328.02 357.594 1328.43 359.009 1328.43 360.724V360.975H1320.31L1320.29 361.1C1320.29 362.243 1320.59 363.142 1321.19 363.798C1321.79 364.453 1322.61 364.78 1323.66 364.78C1324.44 364.78 1325.05 364.599 1325.5 364.237C1325.96 363.874 1326.31 363.289 1326.57 362.48H1328.3ZM1326.59 359.532C1326.5 358.5 1326.19 357.699 1325.64 357.127C1325.1 356.541 1324.38 356.249 1323.49 356.249C1322.62 356.249 1321.91 356.541 1321.33 357.127C1320.76 357.712 1320.42 358.514 1320.31 359.532H1326.59Z" fill="white"/>
<path d="M1342.71 351L1348.53 365.889H1346.33L1344.68 361.33H1338.42L1336.72 365.889H1334.63L1340.49 351H1342.71ZM1344.09 359.762L1341.56 352.882L1338.98 359.762H1344.09Z" fill="white"/>
<path d="M1355.34 354.848V356.688C1355.21 356.674 1355.06 356.667 1354.88 356.667C1354.31 356.667 1353.81 356.758 1353.39 356.939C1352.97 357.106 1352.64 357.329 1352.39 357.608C1352.15 357.887 1351.95 358.235 1351.8 358.654C1351.65 359.072 1351.54 359.49 1351.49 359.908C1351.45 360.326 1351.42 360.8 1351.42 361.33V365.889H1349.65V355.099H1351.34V357.42C1352.05 355.705 1353.38 354.848 1355.34 354.848Z" fill="white"/>
<path d="M1361.3 355.099V356.562H1359.15V362.857C1359.15 363.205 1359.15 363.435 1359.15 363.547C1359.16 363.658 1359.2 363.812 1359.27 364.007C1359.34 364.188 1359.46 364.306 1359.63 364.362C1359.8 364.418 1360.03 364.446 1360.34 364.446C1360.6 364.446 1360.93 364.425 1361.3 364.383V365.91C1360.8 365.965 1360.35 365.993 1359.94 365.993C1359.44 365.993 1359.02 365.938 1358.69 365.826C1358.35 365.715 1358.09 365.589 1357.91 365.45C1357.74 365.31 1357.62 365.066 1357.54 364.718C1357.45 364.355 1357.4 364.056 1357.39 363.819C1357.37 363.568 1357.37 363.156 1357.37 362.585C1357.37 362.543 1357.37 362.515 1357.37 362.501C1357.37 362.473 1357.37 362.438 1357.37 362.397C1357.37 362.355 1357.37 362.32 1357.37 362.292V356.562H1355.55V355.099H1357.37V351.899H1359.15V355.099H1361.3Z" fill="white"/>
<path d="M1378.67 364.467V365.847C1378.3 365.986 1377.9 366.056 1377.45 366.056C1376.43 366.056 1375.91 365.526 1375.88 364.467C1374.87 365.61 1373.56 366.182 1371.97 366.182C1370.91 366.182 1370.07 365.91 1369.44 365.366C1368.82 364.822 1368.52 364.076 1368.52 363.128C1368.52 361.205 1369.79 360.082 1372.35 359.762C1372.51 359.734 1372.76 359.706 1373.08 359.678C1374.29 359.539 1375.04 359.378 1375.32 359.197C1375.64 358.974 1375.8 358.591 1375.8 358.047C1375.8 356.862 1374.98 356.27 1373.35 356.27C1372.51 356.27 1371.88 356.444 1371.45 356.792C1371.01 357.127 1370.76 357.685 1370.67 358.465H1368.94C1368.96 357.308 1369.38 356.409 1370.17 355.768C1370.97 355.126 1372.06 354.806 1373.46 354.806C1374.98 354.806 1376.11 355.154 1376.85 355.851C1377.08 356.074 1377.26 356.367 1377.37 356.73C1377.48 357.092 1377.54 357.392 1377.56 357.629C1377.57 357.852 1377.58 358.193 1377.58 358.654C1377.58 359.183 1377.56 359.985 1377.54 361.058C1377.51 362.132 1377.49 362.933 1377.49 363.463C1377.49 363.853 1377.54 364.132 1377.64 364.3C1377.75 364.453 1377.95 364.53 1378.23 364.53C1378.34 364.53 1378.49 364.509 1378.67 364.467ZM1375.8 360.285C1375.67 360.382 1375.54 360.466 1375.4 360.536C1375.26 360.605 1375.08 360.661 1374.86 360.703C1374.65 360.745 1374.5 360.779 1374.42 360.807C1374.35 360.821 1374.17 360.849 1373.87 360.891C1373.58 360.919 1373.43 360.933 1373.41 360.933C1372.98 360.989 1372.7 361.03 1372.56 361.058C1372.43 361.072 1372.18 361.128 1371.8 361.226C1371.44 361.323 1371.18 361.435 1371.03 361.56C1370.87 361.686 1370.72 361.874 1370.57 362.125C1370.43 362.362 1370.36 362.648 1370.36 362.982C1370.36 363.54 1370.55 363.979 1370.92 364.3C1371.31 364.62 1371.84 364.78 1372.51 364.78C1373.37 364.78 1374.13 364.53 1374.8 364.028C1375.46 363.526 1375.8 362.933 1375.8 362.25V360.285Z" fill="white"/>
<path d="M1382.02 355.099V356.771C1382.91 355.461 1384.14 354.806 1385.7 354.806C1386.97 354.806 1387.88 355.14 1388.44 355.81C1389.01 356.465 1389.3 357.434 1389.3 358.716V365.889H1387.52V359.532C1387.52 359.002 1387.5 358.591 1387.46 358.298C1387.43 357.991 1387.35 357.671 1387.21 357.336C1387.07 356.988 1386.83 356.737 1386.5 356.583C1386.16 356.43 1385.73 356.353 1385.2 356.353C1383.15 356.353 1382.12 357.65 1382.12 360.243V365.889H1380.34V355.099H1382.02Z" fill="white"/>
<path d="M1401.7 351V365.889H1400.03V364.3C1399.35 365.554 1398.16 366.182 1396.47 366.182C1394.94 366.182 1393.72 365.673 1392.81 364.655C1391.92 363.623 1391.47 362.229 1391.47 360.473C1391.47 358.842 1391.89 357.489 1392.73 356.416C1393.58 355.329 1394.8 354.785 1396.39 354.785C1397.94 354.785 1399.12 355.37 1399.92 356.541V351H1401.7ZM1396.62 356.311C1395.6 356.311 1394.79 356.681 1394.19 357.42C1393.6 358.159 1393.31 359.162 1393.31 360.431C1393.31 361.741 1393.61 362.787 1394.21 363.568C1394.83 364.334 1395.64 364.718 1396.66 364.718C1397.69 364.718 1398.5 364.348 1399.09 363.609C1399.67 362.857 1399.97 361.818 1399.97 360.494C1399.97 359.309 1399.69 358.319 1399.13 357.524C1398.59 356.716 1397.75 356.311 1396.62 356.311Z" fill="white"/>
<path d="M1410.52 351H1415.37C1417.9 351 1419.76 351.586 1420.96 352.757C1422.16 353.928 1422.76 355.782 1422.76 358.319C1422.76 360.814 1422.2 362.703 1421.08 363.986C1419.97 365.254 1418.18 365.889 1415.73 365.889H1410.52V351ZM1412.48 352.694V364.195H1415.48C1417.34 364.195 1418.7 363.742 1419.54 362.836C1420.39 361.916 1420.81 360.487 1420.81 358.549C1420.81 356.514 1420.4 355.029 1419.58 354.095C1418.75 353.161 1417.36 352.694 1415.39 352.694H1412.48Z" fill="white"/>
<path d="M1434.17 362.48C1433.62 364.99 1432.05 366.244 1429.46 366.244C1427.87 366.244 1426.62 365.749 1425.71 364.76C1424.82 363.77 1424.37 362.397 1424.37 360.64C1424.37 358.897 1424.83 357.489 1425.75 356.416C1426.69 355.329 1427.9 354.785 1429.39 354.785C1431.05 354.785 1432.28 355.35 1433.08 356.479C1433.89 357.594 1434.29 359.009 1434.29 360.724V360.975H1426.17L1426.15 361.1C1426.15 362.243 1426.45 363.142 1427.05 363.798C1427.65 364.453 1428.47 364.78 1429.52 364.78C1430.3 364.78 1430.92 364.599 1431.36 364.237C1431.82 363.874 1432.18 363.289 1432.43 362.48H1434.17ZM1432.45 359.532C1432.37 358.5 1432.05 357.699 1431.51 357.127C1430.96 356.541 1430.25 356.249 1429.35 356.249C1428.49 356.249 1427.77 356.541 1427.2 357.127C1426.62 357.712 1426.28 358.514 1426.17 359.532H1432.45Z" fill="white"/>
<path d="M1444.19 358.235H1442.41C1442.3 356.925 1441.42 356.27 1439.78 356.27C1439.09 356.27 1438.56 356.402 1438.17 356.667C1437.77 356.932 1437.58 357.287 1437.58 357.733C1437.58 357.859 1437.59 357.984 1437.62 358.11C1437.65 358.221 1437.7 358.326 1437.77 358.423C1437.85 358.507 1437.92 358.584 1437.98 358.654C1438.05 358.723 1438.15 358.793 1438.29 358.863C1438.44 358.918 1438.56 358.967 1438.63 359.009C1438.71 359.051 1438.85 359.1 1439.04 359.155C1439.25 359.197 1439.4 359.232 1439.48 359.26C1439.57 359.274 1439.73 359.309 1439.96 359.364C1440.22 359.42 1440.38 359.455 1440.45 359.469C1440.96 359.581 1441.35 359.671 1441.6 359.741C1441.86 359.811 1442.22 359.943 1442.66 360.138C1443.12 360.319 1443.47 360.515 1443.71 360.724C1443.95 360.919 1444.16 361.198 1444.34 361.56C1444.53 361.909 1444.63 362.306 1444.63 362.752C1444.63 363.798 1444.22 364.641 1443.4 365.282C1442.59 365.91 1441.51 366.223 1440.15 366.223C1438.69 366.223 1437.56 365.903 1436.76 365.261C1435.98 364.62 1435.56 363.693 1435.51 362.48H1437.27C1437.36 364 1438.34 364.76 1440.2 364.76C1440.99 364.76 1441.63 364.599 1442.1 364.279C1442.59 363.944 1442.83 363.505 1442.83 362.961C1442.83 362.599 1442.71 362.299 1442.46 362.062C1442.2 361.825 1441.93 361.658 1441.62 361.56C1441.31 361.449 1440.87 361.323 1440.3 361.184C1440.22 361.17 1440.15 361.156 1440.11 361.142C1439.99 361.114 1439.71 361.058 1439.3 360.975C1438.89 360.877 1438.6 360.8 1438.42 360.745C1438.23 360.689 1437.97 360.605 1437.62 360.494C1437.29 360.368 1437.04 360.243 1436.87 360.117C1436.7 359.978 1436.51 359.811 1436.3 359.615C1436.11 359.406 1435.97 359.169 1435.88 358.904C1435.8 358.626 1435.76 358.312 1435.76 357.963C1435.76 356.988 1436.13 356.214 1436.87 355.642C1437.62 355.071 1438.63 354.785 1439.88 354.785C1441.15 354.785 1442.18 355.085 1442.98 355.684C1443.79 356.284 1444.19 357.134 1444.19 358.235Z" fill="white"/>
<path d="M1448.52 351V353.175H1446.72V351H1448.52ZM1448.52 355.099V365.889H1446.72V355.099H1448.52Z" fill="white"/>
<path d="M1460.63 355.099V364.718C1460.63 365.652 1460.59 366.37 1460.49 366.872C1460.39 367.387 1460.21 367.868 1459.94 368.314C1459.15 369.625 1457.73 370.28 1455.67 370.28C1454.46 370.28 1453.44 370.029 1452.6 369.527C1451.76 369.039 1451.27 368.231 1451.13 367.102H1452.95C1453.16 368.301 1454.09 368.9 1455.74 368.9C1456.84 368.9 1457.63 368.621 1458.12 368.064C1458.63 367.506 1458.89 366.607 1458.92 365.366L1458.94 364.049C1458.26 365.359 1457.11 366.014 1455.51 366.014C1454.06 366.014 1452.9 365.519 1452.03 364.53C1451.18 363.54 1450.76 362.208 1450.76 360.536C1450.76 358.96 1451.18 357.615 1452.03 356.5C1452.88 355.37 1454.07 354.806 1455.59 354.806C1456.34 354.806 1457.01 354.966 1457.6 355.287C1458.2 355.607 1458.67 356.067 1459 356.667V355.099H1460.63ZM1455.67 356.353C1454.71 356.353 1453.95 356.73 1453.39 357.482C1452.85 358.221 1452.58 359.246 1452.58 360.556C1452.58 361.741 1452.86 362.696 1453.44 363.421C1454.01 364.132 1454.77 364.488 1455.72 364.488C1456.71 364.488 1457.48 364.111 1458.04 363.359C1458.61 362.606 1458.9 361.574 1458.9 360.264C1458.9 359.037 1458.61 358.082 1458.04 357.399C1457.48 356.702 1456.69 356.353 1455.67 356.353Z" fill="white"/>
<path d="M1464.97 355.099V356.771C1465.86 355.461 1467.09 354.806 1468.65 354.806C1469.92 354.806 1470.84 355.14 1471.4 355.81C1471.97 356.465 1472.25 357.434 1472.25 358.716V365.889H1470.48V359.532C1470.48 359.002 1470.45 358.591 1470.41 358.298C1470.38 357.991 1470.3 357.671 1470.16 357.336C1470.02 356.988 1469.78 356.737 1469.45 356.583C1469.11 356.43 1468.68 356.353 1468.15 356.353C1466.1 356.353 1465.08 357.65 1465.08 360.243V365.889H1463.3V355.099H1464.97Z" fill="white"/>
<path d="M1488.77 358.235H1486.99C1486.87 356.925 1486 356.27 1484.35 356.27C1483.67 356.27 1483.13 356.402 1482.74 356.667C1482.35 356.932 1482.15 357.287 1482.15 357.733C1482.15 357.859 1482.17 357.984 1482.19 358.11C1482.22 358.221 1482.27 358.326 1482.34 358.423C1482.42 358.507 1482.49 358.584 1482.55 358.654C1482.62 358.723 1482.72 358.793 1482.86 358.863C1483.02 358.918 1483.13 358.967 1483.2 359.009C1483.28 359.051 1483.42 359.1 1483.62 359.155C1483.83 359.197 1483.97 359.232 1484.06 359.26C1484.14 359.274 1484.3 359.309 1484.54 359.364C1484.79 359.42 1484.95 359.455 1485.02 359.469C1485.54 359.581 1485.92 359.671 1486.17 359.741C1486.44 359.811 1486.79 359.943 1487.24 360.138C1487.7 360.319 1488.05 360.515 1488.28 360.724C1488.52 360.919 1488.73 361.198 1488.91 361.56C1489.11 361.909 1489.2 362.306 1489.2 362.752C1489.2 363.798 1488.79 364.641 1487.97 365.282C1487.16 365.91 1486.08 366.223 1484.73 366.223C1483.26 366.223 1482.13 365.903 1481.34 365.261C1480.55 364.62 1480.14 363.693 1480.08 362.48H1481.84C1481.94 364 1482.91 364.76 1484.77 364.76C1485.56 364.76 1486.2 364.599 1486.67 364.279C1487.16 363.944 1487.4 363.505 1487.4 362.961C1487.4 362.599 1487.28 362.299 1487.03 362.062C1486.78 361.825 1486.5 361.658 1486.19 361.56C1485.88 361.449 1485.44 361.323 1484.87 361.184C1484.79 361.17 1484.73 361.156 1484.68 361.142C1484.56 361.114 1484.29 361.058 1483.87 360.975C1483.46 360.877 1483.17 360.8 1482.99 360.745C1482.81 360.689 1482.54 360.605 1482.19 360.494C1481.86 360.368 1481.61 360.243 1481.44 360.117C1481.27 359.978 1481.08 359.811 1480.88 359.615C1480.68 359.406 1480.54 359.169 1480.46 358.904C1480.37 358.626 1480.33 358.312 1480.33 357.963C1480.33 356.988 1480.7 356.214 1481.44 355.642C1482.19 355.071 1483.2 354.785 1484.45 354.785C1485.72 354.785 1486.76 355.085 1487.55 355.684C1488.36 356.284 1488.77 357.134 1488.77 358.235Z" fill="white"/>
<path d="M1500.51 361.957C1500.35 363.254 1499.86 364.286 1499.02 365.052C1498.2 365.819 1497.12 366.202 1495.8 366.202C1494.16 366.202 1492.9 365.701 1492.01 364.697C1491.12 363.679 1490.67 362.327 1490.67 360.64C1490.67 358.842 1491.14 357.42 1492.07 356.374C1493.01 355.315 1494.27 354.785 1495.86 354.785C1497.19 354.785 1498.25 355.12 1499.04 355.789C1499.84 356.444 1500.3 357.385 1500.44 358.612H1498.6C1498.28 357.05 1497.37 356.27 1495.88 356.27C1494.85 356.27 1494.03 356.653 1493.43 357.42C1492.83 358.173 1492.53 359.197 1492.53 360.494C1492.53 361.804 1492.82 362.836 1493.39 363.589C1493.96 364.341 1494.75 364.718 1495.76 364.718C1496.56 364.718 1497.22 364.481 1497.72 364.007C1498.24 363.533 1498.57 362.85 1498.71 361.957H1500.51Z" fill="white"/>
<path d="M1504.23 351V356.625C1505.03 355.426 1506.21 354.827 1507.77 354.827C1510.2 354.827 1511.41 356.054 1511.41 358.507V365.889H1509.63V358.925C1509.63 358.103 1509.46 357.476 1509.11 357.043C1508.77 356.597 1508.16 356.374 1507.27 356.374C1506.18 356.374 1505.4 356.723 1504.92 357.42C1504.46 358.117 1504.23 359.114 1504.23 360.41V365.889H1502.45V351H1504.23Z" fill="white"/>
<path d="M1514.94 356.332C1515.89 355.301 1517.18 354.785 1518.81 354.785C1520.44 354.785 1521.71 355.28 1522.62 356.27C1523.53 357.259 1523.98 358.647 1523.98 360.431C1523.98 362.257 1523.53 363.679 1522.62 364.697C1521.71 365.715 1520.44 366.223 1518.79 366.223C1517.15 366.223 1515.85 365.721 1514.92 364.718C1513.99 363.714 1513.52 362.32 1513.52 360.536C1513.52 358.765 1513.99 357.364 1514.94 356.332ZM1521.24 357.42C1520.64 356.653 1519.82 356.27 1518.77 356.27C1517.72 356.27 1516.89 356.653 1516.28 357.42C1515.67 358.186 1515.36 359.211 1515.36 360.494C1515.36 361.818 1515.66 362.857 1516.26 363.609C1516.87 364.348 1517.72 364.718 1518.81 364.718C1519.86 364.718 1520.67 364.341 1521.26 363.589C1521.86 362.836 1522.16 361.797 1522.16 360.473C1522.16 359.19 1521.85 358.173 1521.24 357.42Z" fill="white"/>
<path d="M1526.96 356.332C1527.91 355.301 1529.2 354.785 1530.83 354.785C1532.46 354.785 1533.73 355.28 1534.64 356.27C1535.54 357.259 1536 358.647 1536 360.431C1536 362.257 1535.54 363.679 1534.64 364.697C1533.73 365.715 1532.45 366.223 1530.81 366.223C1529.16 366.223 1527.87 365.721 1526.94 364.718C1526 363.714 1525.53 362.32 1525.53 360.536C1525.53 358.765 1526.01 357.364 1526.96 356.332ZM1533.26 357.42C1532.66 356.653 1531.83 356.27 1530.79 356.27C1529.74 356.27 1528.91 356.653 1528.3 357.42C1527.68 358.186 1527.38 359.211 1527.38 360.494C1527.38 361.818 1527.68 362.857 1528.28 363.609C1528.89 364.348 1529.74 364.718 1530.83 364.718C1531.88 364.718 1532.69 364.341 1533.28 363.589C1533.88 362.836 1534.18 361.797 1534.18 360.473C1534.18 359.19 1533.87 358.173 1533.26 357.42Z" fill="white"/>
<path d="M1540 351V365.889H1538.2V351H1540Z" fill="white"/>
<path d="M1300.08 377.72L1305.9 392.609H1303.7L1302.05 388.05H1295.79L1294.09 392.609H1292L1297.86 377.72H1300.08ZM1301.46 386.482L1298.93 379.602L1296.35 386.482H1301.46Z" fill="white"/>
<path d="M1308.96 377.72V392.609H1307.16V377.72H1308.96Z" fill="white"/>
<path d="M1320.67 381.818V392.609H1319.02V390.915C1318.1 392.239 1316.86 392.901 1315.29 392.901C1314.15 392.901 1313.26 392.588 1312.64 391.96C1312.01 391.333 1311.7 390.427 1311.7 389.242V381.818H1313.47V388.761C1313.47 389.611 1313.63 390.26 1313.96 390.706C1314.29 391.138 1314.88 391.354 1315.73 391.354C1317.84 391.354 1318.89 390.057 1318.89 387.464V381.818H1320.67Z" fill="white"/>
<path d="M1324.2 383.052C1325.15 382.021 1326.44 381.505 1328.07 381.505C1329.71 381.505 1330.98 382 1331.88 382.989C1332.79 383.979 1333.24 385.366 1333.24 387.151C1333.24 388.977 1332.79 390.399 1331.88 391.417C1330.98 392.434 1329.7 392.943 1328.05 392.943C1326.41 392.943 1325.12 392.441 1324.18 391.438C1323.25 390.434 1322.78 389.04 1322.78 387.255C1322.78 385.485 1323.25 384.084 1324.2 383.052ZM1330.5 384.14C1329.9 383.373 1329.08 382.989 1328.03 382.989C1326.99 382.989 1326.16 383.373 1325.54 384.14C1324.93 384.906 1324.62 385.931 1324.62 387.214C1324.62 388.538 1324.92 389.577 1325.52 390.329C1326.14 391.068 1326.99 391.438 1328.07 391.438C1329.12 391.438 1329.94 391.061 1330.52 390.308C1331.12 389.556 1331.42 388.517 1331.42 387.193C1331.42 385.91 1331.12 384.892 1330.5 384.14Z" fill="white"/>
<path d="M1337.04 381.818V383.491C1337.93 382.181 1339.16 381.526 1340.72 381.526C1341.99 381.526 1342.9 381.86 1343.46 382.529C1344.03 383.185 1344.32 384.154 1344.32 385.436V392.609H1342.54V386.252C1342.54 385.722 1342.52 385.311 1342.48 385.018C1342.45 384.711 1342.37 384.391 1342.23 384.056C1342.09 383.707 1341.85 383.457 1341.51 383.303C1341.18 383.15 1340.75 383.073 1340.22 383.073C1338.17 383.073 1337.14 384.37 1337.14 386.963V392.609H1335.36V381.818H1337.04Z" fill="white"/>
<path d="M1356.55 391.187V392.567C1356.19 392.706 1355.79 392.776 1355.34 392.776C1354.32 392.776 1353.8 392.246 1353.77 391.187C1352.75 392.33 1351.45 392.901 1349.86 392.901C1348.8 392.901 1347.95 392.63 1347.33 392.086C1346.71 391.542 1346.4 390.796 1346.4 389.848C1346.4 387.925 1347.68 386.802 1350.23 386.482C1350.4 386.454 1350.65 386.426 1350.97 386.398C1352.18 386.259 1352.93 386.098 1353.21 385.917C1353.53 385.694 1353.69 385.311 1353.69 384.767C1353.69 383.582 1352.87 382.989 1351.24 382.989C1350.4 382.989 1349.77 383.164 1349.33 383.512C1348.9 383.847 1348.64 384.404 1348.56 385.185H1346.82C1346.85 384.028 1347.26 383.129 1348.06 382.488C1348.85 381.846 1349.95 381.526 1351.34 381.526C1352.86 381.526 1353.99 381.874 1354.73 382.571C1354.97 382.794 1355.14 383.087 1355.26 383.45C1355.37 383.812 1355.43 384.112 1355.44 384.349C1355.46 384.572 1355.47 384.913 1355.47 385.373C1355.47 385.903 1355.45 386.705 1355.42 387.778C1355.4 388.852 1355.38 389.653 1355.38 390.183C1355.38 390.573 1355.43 390.852 1355.53 391.019C1355.64 391.173 1355.84 391.249 1356.11 391.249C1356.23 391.249 1356.37 391.229 1356.55 391.187ZM1353.69 387.004C1353.56 387.102 1353.43 387.186 1353.29 387.255C1353.15 387.325 1352.97 387.381 1352.75 387.423C1352.54 387.464 1352.39 387.499 1352.31 387.527C1352.24 387.541 1352.05 387.569 1351.76 387.611C1351.47 387.639 1351.32 387.653 1351.3 387.653C1350.87 387.708 1350.58 387.75 1350.44 387.778C1350.32 387.792 1350.07 387.848 1349.69 387.945C1349.33 388.043 1349.07 388.155 1348.92 388.28C1348.76 388.405 1348.61 388.594 1348.46 388.845C1348.32 389.082 1348.25 389.367 1348.25 389.702C1348.25 390.26 1348.43 390.699 1348.81 391.019C1349.2 391.34 1349.73 391.5 1350.4 391.5C1351.25 391.5 1352.01 391.249 1352.68 390.748C1353.35 390.246 1353.69 389.653 1353.69 388.97V387.004Z" fill="white"/>
<path d="M1374.92 382.09H1373.01C1372.8 380.069 1371.57 379.058 1369.31 379.058C1368.23 379.058 1367.4 379.274 1366.82 379.706C1366.23 380.139 1365.94 380.745 1365.94 381.526C1365.94 381.805 1365.98 382.048 1366.06 382.258C1366.15 382.467 1366.29 382.655 1366.48 382.822C1366.69 382.976 1366.89 383.108 1367.07 383.22C1367.25 383.331 1367.54 383.443 1367.93 383.554C1368.32 383.666 1368.63 383.749 1368.87 383.805C1369.11 383.847 1369.48 383.924 1369.98 384.035C1370.59 384.161 1371.1 384.279 1371.51 384.391C1371.91 384.488 1372.39 384.655 1372.95 384.892C1373.51 385.129 1373.95 385.394 1374.27 385.687C1374.6 385.966 1374.89 386.342 1375.13 386.816C1375.38 387.29 1375.5 387.827 1375.5 388.426C1375.5 389.472 1375.21 390.35 1374.62 391.061C1374.04 391.758 1373.33 392.246 1372.49 392.525C1371.65 392.804 1370.72 392.943 1369.71 392.943C1367.84 392.943 1366.34 392.504 1365.21 391.626C1364.09 390.734 1363.53 389.423 1363.53 387.695H1365.44C1365.48 388.963 1365.9 389.89 1366.71 390.476C1367.52 391.047 1368.58 391.333 1369.87 391.333C1370.89 391.333 1371.76 391.124 1372.49 390.706C1373.21 390.274 1373.58 389.577 1373.58 388.615C1373.58 388.168 1373.48 387.792 1373.28 387.485C1373.09 387.165 1372.78 386.907 1372.36 386.712C1371.94 386.503 1371.53 386.335 1371.11 386.21C1370.69 386.084 1370.14 385.945 1369.45 385.792C1369.36 385.778 1369.29 385.764 1369.25 385.75C1367.71 385.401 1366.71 385.122 1366.23 384.913C1364.78 384.286 1364.06 383.206 1364.06 381.672C1364.06 380.25 1364.58 379.191 1365.62 378.494C1366.68 377.783 1367.96 377.427 1369.45 377.427C1371.09 377.427 1372.39 377.817 1373.37 378.598C1374.34 379.379 1374.86 380.543 1374.92 382.09Z" fill="white"/>
<path d="M1386.85 389.2C1386.31 391.709 1384.74 392.964 1382.15 392.964C1380.56 392.964 1379.31 392.469 1378.4 391.479C1377.51 390.49 1377.06 389.116 1377.06 387.36C1377.06 385.617 1377.52 384.209 1378.44 383.136C1379.38 382.048 1380.59 381.505 1382.08 381.505C1383.74 381.505 1384.97 382.069 1385.77 383.199C1386.58 384.314 1386.98 385.729 1386.98 387.444V387.695H1378.86L1378.84 387.82C1378.84 388.963 1379.14 389.862 1379.74 390.518C1380.34 391.173 1381.16 391.5 1382.21 391.5C1382.99 391.5 1383.6 391.319 1384.05 390.957C1384.51 390.594 1384.87 390.009 1385.12 389.2H1386.85ZM1385.14 386.252C1385.05 385.22 1384.74 384.418 1384.2 383.847C1383.65 383.261 1382.93 382.969 1382.04 382.969C1381.18 382.969 1380.46 383.261 1379.89 383.847C1379.31 384.432 1378.97 385.234 1378.86 386.252H1385.14Z" fill="white"/>
<path d="M1398.22 381.818V391.438C1398.22 392.372 1398.17 393.09 1398.07 393.591C1397.98 394.107 1397.79 394.588 1397.53 395.034C1396.73 396.345 1395.31 397 1393.26 397C1392.05 397 1391.02 396.749 1390.18 396.247C1389.35 395.759 1388.86 394.951 1388.72 393.821H1390.54C1390.75 395.02 1391.68 395.62 1393.32 395.62C1394.43 395.62 1395.22 395.341 1395.71 394.783C1396.21 394.226 1396.48 393.327 1396.5 392.086L1396.52 390.768C1395.84 392.079 1394.7 392.734 1393.09 392.734C1391.64 392.734 1390.48 392.239 1389.62 391.249C1388.77 390.26 1388.34 388.928 1388.34 387.255C1388.34 385.68 1388.77 384.335 1389.62 383.22C1390.47 382.09 1391.66 381.526 1393.18 381.526C1393.93 381.526 1394.6 381.686 1395.19 382.007C1395.79 382.327 1396.25 382.787 1396.59 383.387V381.818H1398.22ZM1393.26 383.073C1392.3 383.073 1391.54 383.45 1390.98 384.202C1390.44 384.941 1390.16 385.966 1390.16 387.276C1390.16 388.461 1390.45 389.416 1391.02 390.141C1391.59 390.852 1392.35 391.208 1393.3 391.208C1394.29 391.208 1395.07 390.831 1395.63 390.078C1396.2 389.326 1396.48 388.294 1396.48 386.984C1396.48 385.757 1396.2 384.802 1395.63 384.119C1395.07 383.422 1394.28 383.073 1393.26 383.073Z" fill="white"/>
<path d="M1402.77 377.72V379.895H1400.97V377.72H1402.77ZM1402.77 381.818V392.609H1400.97V381.818H1402.77Z" fill="white"/>
<path d="M1407.2 381.818V383.387C1407.67 382.746 1408.18 382.279 1408.72 381.986C1409.27 381.693 1409.93 381.547 1410.71 381.547C1412.19 381.547 1413.19 382.167 1413.7 383.408C1414.64 382.153 1415.83 381.526 1417.28 381.526C1418.4 381.526 1419.24 381.839 1419.82 382.467C1420.4 383.08 1420.69 383.944 1420.69 385.06V392.609H1418.92V385.813C1418.92 384.92 1418.78 384.251 1418.5 383.805C1418.22 383.345 1417.64 383.115 1416.76 383.115C1414.92 383.115 1414 384.237 1414 386.482V392.609H1412.22V385.687C1412.22 384.865 1412.08 384.237 1411.8 383.805C1411.53 383.359 1411.01 383.136 1410.23 383.136C1409.13 383.136 1408.36 383.477 1407.93 384.161C1407.51 384.83 1407.3 385.743 1407.3 386.9V392.609H1405.52V381.818H1407.2Z" fill="white"/>
<path d="M1424.22 383.052C1425.17 382.021 1426.46 381.505 1428.09 381.505C1429.73 381.505 1430.99 382 1431.9 382.989C1432.81 383.979 1433.26 385.366 1433.26 387.151C1433.26 388.977 1432.81 390.399 1431.9 391.417C1430.99 392.434 1429.72 392.943 1428.07 392.943C1426.43 392.943 1425.13 392.441 1424.2 391.438C1423.27 390.434 1422.8 389.04 1422.8 387.255C1422.8 385.485 1423.27 384.084 1424.22 383.052ZM1430.52 384.14C1429.92 383.373 1429.1 382.989 1428.05 382.989C1427 382.989 1426.17 383.373 1425.56 384.14C1424.95 384.906 1424.64 385.931 1424.64 387.214C1424.64 388.538 1424.94 389.577 1425.54 390.329C1426.15 391.068 1427 391.438 1428.09 391.438C1429.14 391.438 1429.96 391.061 1430.54 390.308C1431.14 389.556 1431.44 388.517 1431.44 387.193C1431.44 385.91 1431.13 384.892 1430.52 384.14Z" fill="white"/>
<path d="M1434.33 381.818H1436.32L1439.38 390.873L1442.35 381.818H1444.21L1440.26 392.609H1438.35L1434.33 381.818Z" fill="white"/>
<path d="M1455.41 391.187V392.567C1455.04 392.706 1454.64 392.776 1454.19 392.776C1453.18 392.776 1452.65 392.246 1452.62 391.187C1451.61 392.33 1450.3 392.901 1448.71 392.901C1447.65 392.901 1446.81 392.63 1446.18 392.086C1445.56 391.542 1445.26 390.796 1445.26 389.848C1445.26 387.925 1446.53 386.802 1449.09 386.482C1449.25 386.454 1449.5 386.426 1449.82 386.398C1451.03 386.259 1451.78 386.098 1452.06 385.917C1452.38 385.694 1452.54 385.311 1452.54 384.767C1452.54 383.582 1451.72 382.989 1450.09 382.989C1449.25 382.989 1448.62 383.164 1448.19 383.512C1447.76 383.847 1447.5 384.404 1447.41 385.185H1445.68C1445.7 384.028 1446.12 383.129 1446.91 382.488C1447.71 381.846 1448.8 381.526 1450.2 381.526C1451.72 381.526 1452.85 381.874 1453.59 382.571C1453.82 382.794 1454 383.087 1454.11 383.45C1454.22 383.812 1454.28 384.112 1454.3 384.349C1454.31 384.572 1454.32 384.913 1454.32 385.373C1454.32 385.903 1454.31 386.705 1454.28 387.778C1454.25 388.852 1454.24 389.653 1454.24 390.183C1454.24 390.573 1454.28 390.852 1454.38 391.019C1454.49 391.173 1454.69 391.249 1454.97 391.249C1455.08 391.249 1455.23 391.229 1455.41 391.187ZM1452.54 387.004C1452.41 387.102 1452.28 387.186 1452.14 387.255C1452 387.325 1451.82 387.381 1451.6 387.423C1451.39 387.464 1451.24 387.499 1451.16 387.527C1451.09 387.541 1450.91 387.569 1450.62 387.611C1450.32 387.639 1450.17 387.653 1450.15 387.653C1449.72 387.708 1449.44 387.75 1449.3 387.778C1449.17 387.792 1448.92 387.848 1448.54 387.945C1448.18 388.043 1447.92 388.155 1447.77 388.28C1447.62 388.405 1447.46 388.594 1447.31 388.845C1447.17 389.082 1447.1 389.367 1447.1 389.702C1447.1 390.26 1447.29 390.699 1447.66 391.019C1448.06 391.34 1448.59 391.5 1449.25 391.5C1450.11 391.5 1450.87 391.249 1451.54 390.748C1452.21 390.246 1452.54 389.653 1452.54 388.97V387.004Z" fill="white"/>
<path d="M1471.76 390.998V392.609H1462.09C1462.13 391.786 1462.26 391.068 1462.47 390.455C1462.68 389.841 1463 389.291 1463.43 388.803C1463.88 388.301 1464.31 387.89 1464.73 387.569C1465.15 387.248 1465.74 386.851 1466.51 386.377C1467.71 385.624 1468.5 385.06 1468.87 384.683C1469.65 383.917 1470.04 383.066 1470.04 382.132C1470.04 381.31 1469.78 380.64 1469.25 380.125C1468.72 379.595 1468.03 379.33 1467.18 379.33C1466.16 379.33 1465.43 379.686 1464.98 380.397C1464.55 381.094 1464.32 381.979 1464.29 383.052H1462.49V382.655C1462.49 381.191 1462.92 380.013 1463.79 379.121C1464.67 378.229 1465.82 377.783 1467.26 377.783C1468.67 377.783 1469.79 378.173 1470.63 378.954C1471.47 379.734 1471.89 380.78 1471.89 382.09C1471.89 382.648 1471.79 383.178 1471.59 383.68C1471.41 384.167 1471.2 384.579 1470.97 384.913C1470.74 385.248 1470.39 385.603 1469.92 385.98C1469.46 386.356 1469.08 386.649 1468.77 386.858C1468.46 387.053 1468.02 387.325 1467.45 387.674C1466.31 388.357 1465.55 388.886 1465.17 389.263C1464.64 389.793 1464.3 390.371 1464.14 390.998H1471.76Z" fill="white"/>
<path d="M1478.99 377.783C1479.89 377.783 1480.65 377.95 1481.28 378.284C1481.92 378.605 1482.41 379.002 1482.74 379.476C1483.08 379.95 1483.34 380.571 1483.54 381.338C1483.73 382.09 1483.85 382.773 1483.89 383.387C1483.93 383.986 1483.95 384.711 1483.95 385.562C1483.95 386.342 1483.92 387.046 1483.85 387.674C1483.79 388.301 1483.66 388.956 1483.45 389.639C1483.26 390.322 1482.98 390.894 1482.64 391.354C1482.29 391.8 1481.81 392.17 1481.21 392.462C1480.61 392.755 1479.9 392.901 1479.08 392.901C1478.21 392.901 1477.46 392.755 1476.82 392.462C1476.19 392.156 1475.7 391.779 1475.35 391.333C1475 390.887 1474.73 390.322 1474.52 389.639C1474.32 388.942 1474.2 388.287 1474.14 387.674C1474.08 387.046 1474.06 386.328 1474.06 385.52C1474.06 384.823 1474.07 384.216 1474.1 383.7C1474.14 383.185 1474.21 382.606 1474.31 381.965C1474.42 381.31 1474.59 380.759 1474.81 380.313C1475.03 379.853 1475.32 379.421 1475.67 379.016C1476.02 378.612 1476.47 378.305 1477.03 378.096C1477.6 377.887 1478.26 377.783 1478.99 377.783ZM1480.15 379.623C1479.81 379.455 1479.43 379.372 1478.99 379.372C1478.56 379.372 1478.18 379.455 1477.84 379.623C1477.51 379.776 1477.24 379.957 1477.03 380.166C1476.82 380.376 1476.64 380.689 1476.48 381.107C1476.33 381.512 1476.22 381.853 1476.15 382.132C1476.09 382.411 1476.04 382.815 1476 383.345C1475.96 383.861 1475.94 384.23 1475.94 384.453C1475.94 384.662 1475.94 385.018 1475.94 385.52C1475.94 386.008 1475.95 386.412 1475.96 386.733C1475.97 387.053 1476.01 387.471 1476.06 387.987C1476.12 388.503 1476.22 388.935 1476.36 389.284C1476.5 389.618 1476.67 389.96 1476.88 390.308C1477.09 390.643 1477.38 390.901 1477.74 391.082C1478.12 391.249 1478.55 391.333 1479.04 391.333C1479.46 391.333 1479.82 391.256 1480.15 391.103C1480.48 390.95 1480.75 390.768 1480.96 390.559C1481.17 390.35 1481.35 390.057 1481.49 389.681C1481.64 389.291 1481.75 388.956 1481.82 388.677C1481.89 388.385 1481.94 388.001 1481.97 387.527C1482.01 387.039 1482.03 386.684 1482.03 386.461C1482.04 386.224 1482.05 385.882 1482.05 385.436C1482.05 384.948 1482.05 384.6 1482.05 384.391C1482.05 384.181 1482.03 383.819 1481.99 383.303C1481.95 382.787 1481.89 382.39 1481.82 382.111C1481.76 381.832 1481.66 381.491 1481.51 381.087C1481.35 380.682 1481.17 380.376 1480.96 380.166C1480.75 379.957 1480.48 379.776 1480.15 379.623Z" fill="white"/>
<path d="M1495.02 390.998V392.609H1485.35C1485.39 391.786 1485.52 391.068 1485.73 390.455C1485.94 389.841 1486.26 389.291 1486.69 388.803C1487.14 388.301 1487.57 387.89 1487.99 387.569C1488.41 387.248 1489 386.851 1489.77 386.377C1490.97 385.624 1491.75 385.06 1492.13 384.683C1492.91 383.917 1493.3 383.066 1493.3 382.132C1493.3 381.31 1493.04 380.64 1492.51 380.125C1491.98 379.595 1491.29 379.33 1490.44 379.33C1489.42 379.33 1488.68 379.686 1488.24 380.397C1487.81 381.094 1487.57 381.979 1487.55 383.052H1485.75V382.655C1485.75 381.191 1486.18 380.013 1487.04 379.121C1487.92 378.229 1489.08 377.783 1490.52 377.783C1491.93 377.783 1493.05 378.173 1493.89 378.954C1494.73 379.734 1495.14 380.78 1495.14 382.09C1495.14 382.648 1495.05 383.178 1494.85 383.68C1494.67 384.167 1494.46 384.579 1494.22 384.913C1494 385.248 1493.65 385.603 1493.18 385.98C1492.72 386.356 1492.33 386.649 1492.03 386.858C1491.72 387.053 1491.28 387.325 1490.71 387.674C1489.56 388.357 1488.8 388.886 1488.43 389.263C1487.9 389.793 1487.55 390.371 1487.4 390.998H1495.02Z" fill="white"/>
<path d="M1503.95 377.804V392.609H1502V381.881H1498.28V380.543C1499.48 380.543 1500.42 380.348 1501.12 379.957C1501.83 379.567 1502.31 378.849 1502.54 377.804H1503.95Z" fill="white"/>
<path d="M6.545 260.54V255.803H2V254.538H6.545V249.801H7.92101V254.538H12.466V255.803H7.92101V260.54H6.545Z" fill="white"/>
<path d="M23.9872 245.622V247.186C20.7626 250.973 18.8793 255.424 18.3372 260.54H16.3774C16.5442 258.196 17.1419 255.874 18.1704 253.574C19.2128 251.273 20.5471 249.201 22.1733 247.358H14.4385V245.622H23.9872Z" fill="white"/>
<path d="M30.6726 245C28.824 247.929 27.8997 251.223 27.8997 254.881C27.8997 258.368 28.824 261.611 30.6726 264.612H29.3174C28.1916 262.812 27.3646 261.19 26.8364 259.747C26.3222 258.289 26.065 256.674 26.065 254.903C26.065 251.287 27.1492 247.986 29.3174 245H30.6726Z" fill="white"/>
<path d="M31.5021 256.874H33.2534C33.3507 257.617 33.6356 258.203 34.1082 258.632C34.5947 259.046 35.2132 259.254 35.9637 259.254C37.8957 259.254 38.9937 257.603 39.2578 254.302C39.2856 254.002 39.2995 253.666 39.2995 253.295C38.4656 254.681 37.2633 255.374 35.6927 255.374C34.3445 255.374 33.2534 254.924 32.4195 254.024C31.5855 253.109 31.1685 251.916 31.1685 250.444C31.1685 248.93 31.6203 247.701 32.5237 246.758C33.4271 245.814 34.6016 245.343 36.0471 245.343C39.4385 245.343 41.1342 247.815 41.1342 252.759C41.1342 253.516 41.0855 254.245 40.9883 254.945C40.9049 255.631 40.745 256.346 40.5087 257.089C40.2724 257.818 39.9667 258.453 39.5914 258.996C39.2161 259.539 38.7088 259.982 38.0694 260.325C37.444 260.668 36.7212 260.84 35.9012 260.84C34.6503 260.84 33.6217 260.49 32.8156 259.789C32.0233 259.089 31.5855 258.118 31.5021 256.874ZM35.9637 246.972C35.0881 246.972 34.3792 247.286 33.8372 247.915C33.309 248.529 33.0449 249.351 33.0449 250.38C33.0449 251.352 33.2951 252.159 33.7955 252.802C34.3097 253.431 35.0325 253.745 35.9637 253.745C36.8672 253.745 37.5969 253.445 38.1528 252.845C38.7088 252.23 38.9868 251.423 38.9868 250.423C38.9868 249.38 38.7088 248.544 38.1528 247.915C37.5969 247.286 36.8672 246.972 35.9637 246.972Z" fill="white"/>
<path d="M52.1978 258.889V260.54H42.5657C42.6074 259.697 42.7325 258.961 42.941 258.332C43.1495 257.703 43.4692 257.139 43.9001 256.639C44.3448 256.124 44.7757 255.703 45.1927 255.374C45.6096 255.045 46.2004 254.638 46.9648 254.152C48.1601 253.381 48.9454 252.802 49.3207 252.416C50.0991 251.63 50.4882 250.759 50.4882 249.801C50.4882 248.958 50.2241 248.272 49.696 247.744C49.1678 247.201 48.4798 246.929 47.632 246.929C46.6173 246.929 45.8876 247.293 45.4429 248.022C45.012 248.737 44.7826 249.644 44.7549 250.744H42.9619V250.337C42.9619 248.837 43.3927 247.629 44.2545 246.715C45.1301 245.8 46.2838 245.343 47.7154 245.343C49.1192 245.343 50.238 245.743 51.072 246.543C51.9059 247.343 52.3229 248.415 52.3229 249.758C52.3229 250.33 52.2256 250.873 52.031 251.387C51.8503 251.887 51.6419 252.309 51.4056 252.652C51.1832 252.995 50.8357 253.359 50.3631 253.745C49.9045 254.131 49.5222 254.431 49.2165 254.645C48.9107 254.845 48.4729 255.124 47.903 255.481C46.7633 256.181 46.0058 256.724 45.6305 257.11C45.1023 257.653 44.7618 258.246 44.6089 258.889H52.1978Z" fill="white"/>
<path d="M63.7827 258.889V260.54H54.1506C54.1923 259.697 54.3174 258.961 54.5259 258.332C54.7343 257.703 55.054 257.139 55.4849 256.639C55.9297 256.124 56.3605 255.703 56.7775 255.374C57.1945 255.045 57.7852 254.638 58.5496 254.152C59.745 253.381 60.5303 252.802 60.9055 252.416C61.6839 251.63 62.0731 250.759 62.0731 249.801C62.0731 248.958 61.809 248.272 61.2808 247.744C60.7527 247.201 60.0647 246.929 59.2168 246.929C58.2022 246.929 57.4725 247.293 57.0277 248.022C56.5968 248.737 56.3675 249.644 56.3397 250.744H54.5467V250.337C54.5467 248.837 54.9776 247.629 55.8393 246.715C56.715 245.8 57.8686 245.343 59.3002 245.343C60.704 245.343 61.8229 245.743 62.6568 246.543C63.4908 247.343 63.9077 248.415 63.9077 249.758C63.9077 250.33 63.8105 250.873 63.6159 251.387C63.4352 251.887 63.2267 252.309 62.9904 252.652C62.768 252.995 62.4205 253.359 61.948 253.745C61.4893 254.131 61.1071 254.431 60.8013 254.645C60.4955 254.845 60.0577 255.124 59.4878 255.481C58.3481 256.181 57.5906 256.724 57.2153 257.11C56.6872 257.653 56.3466 258.246 56.1938 258.889H63.7827Z" fill="white"/>
<path d="M69.5716 254.903C69.5716 256.674 69.3075 258.289 68.7793 259.747C68.2651 261.19 67.445 262.812 66.3192 264.612H64.964C66.8126 261.611 67.7369 258.368 67.7369 254.881C67.7369 251.223 66.8126 247.929 64.964 245H66.3192C68.4874 247.986 69.5716 251.287 69.5716 254.903Z" fill="white"/>
<path d="M80.7629 258.889V260.54H71.1308C71.1725 259.697 71.2976 258.961 71.5061 258.332C71.7146 257.703 72.0343 257.139 72.4651 256.639C72.9099 256.124 73.3408 255.703 73.7578 255.374C74.1747 255.045 74.7654 254.638 75.5299 254.152C76.7252 253.381 77.5105 252.802 77.8858 252.416C78.6641 251.63 79.0533 250.759 79.0533 249.801C79.0533 248.958 78.7892 248.272 78.2611 247.744C77.7329 247.201 77.0449 246.929 76.197 246.929C75.1824 246.929 74.4527 247.293 74.0079 248.022C73.5771 248.737 73.3477 249.644 73.3199 250.744H71.5269V250.337C71.5269 248.837 71.9578 247.629 72.8196 246.715C73.6952 245.8 74.8488 245.343 76.2804 245.343C77.6842 245.343 78.8031 245.743 79.6371 246.543C80.471 247.343 80.888 248.415 80.888 249.758C80.888 250.33 80.7907 250.873 80.5961 251.387C80.4154 251.887 80.2069 252.309 79.9706 252.652C79.7483 252.995 79.4008 253.359 78.9282 253.745C78.4695 254.131 78.0873 254.431 77.7815 254.645C77.4758 254.845 77.0379 255.124 76.4681 255.481C75.3284 256.181 74.5708 256.724 74.1956 257.11C73.6674 257.653 73.3269 258.246 73.174 258.889H80.7629Z" fill="white"/>
<path d="M87.9695 245.343C88.8591 245.343 89.6166 245.514 90.242 245.857C90.8814 246.186 91.3679 246.593 91.7014 247.079C92.035 247.565 92.2991 248.201 92.4937 248.987C92.6883 249.758 92.8064 250.459 92.8481 251.087C92.8898 251.702 92.9106 252.445 92.9106 253.316C92.9106 254.117 92.8759 254.838 92.8064 255.481C92.7508 256.124 92.6188 256.796 92.4103 257.496C92.2157 258.196 91.9447 258.782 91.5972 259.254C91.2497 259.711 90.7771 260.09 90.1795 260.39C89.5818 260.69 88.873 260.84 88.0529 260.84C87.1912 260.84 86.4406 260.69 85.8013 260.39C85.1758 260.075 84.6893 259.689 84.3419 259.232C83.9944 258.775 83.7164 258.196 83.5079 257.496C83.3133 256.782 83.1882 256.11 83.1326 255.481C83.077 254.838 83.0492 254.102 83.0492 253.274C83.0492 252.559 83.0631 251.937 83.0909 251.409C83.1326 250.88 83.2021 250.287 83.2994 249.63C83.4106 248.958 83.5774 248.394 83.7998 247.936C84.0222 247.465 84.3071 247.022 84.6546 246.608C85.0021 246.193 85.4538 245.879 86.0098 245.664C86.5796 245.45 87.2329 245.343 87.9695 245.343ZM89.1162 247.229C88.7826 247.058 88.4004 246.972 87.9695 246.972C87.5387 246.972 87.1564 247.058 86.8228 247.229C86.4893 247.386 86.2182 247.572 86.0098 247.786C85.8013 248.001 85.6206 248.322 85.4677 248.751C85.3148 249.165 85.2036 249.515 85.1341 249.801C85.0785 250.087 85.0299 250.501 84.9882 251.044C84.9465 251.573 84.9256 251.952 84.9256 252.18C84.9256 252.395 84.9256 252.759 84.9256 253.274C84.9256 253.774 84.9326 254.188 84.9465 254.517C84.9604 254.845 84.9951 255.274 85.0507 255.803C85.1063 256.331 85.2036 256.774 85.3426 257.132C85.4816 257.475 85.6553 257.825 85.8638 258.182C86.0723 258.525 86.3572 258.789 86.7186 258.975C87.0939 259.146 87.5247 259.232 88.0112 259.232C88.4282 259.232 88.7965 259.154 89.1162 258.996C89.4498 258.839 89.7208 258.653 89.9293 258.439C90.1378 258.225 90.3115 257.925 90.4505 257.539C90.6034 257.139 90.7146 256.796 90.7841 256.51C90.8536 256.21 90.9022 255.817 90.93 255.331C90.9717 254.831 90.9926 254.467 90.9926 254.238C91.0065 253.995 91.0134 253.645 91.0134 253.188C91.0134 252.688 91.0134 252.33 91.0134 252.116C91.0134 251.902 90.9926 251.53 90.9509 251.002C90.9092 250.473 90.8536 250.066 90.7841 249.78C90.7285 249.494 90.6242 249.144 90.4714 248.73C90.3185 248.315 90.1378 248.001 89.9293 247.786C89.7208 247.572 89.4498 247.386 89.1162 247.229Z" fill="white"/>
<path d="M104.287 245.622V247.186C101.062 250.973 99.1791 255.424 98.637 260.54H96.6772C96.844 258.196 97.4417 255.874 98.4702 253.574C99.5127 251.273 100.847 249.201 102.473 247.358H94.7383V245.622H104.287Z" fill="white"/>
<path d="M112.453 253.681V255.481H106.386V253.681H112.453Z" fill="white"/>
<path d="M123.975 245.622V247.186C120.751 250.973 118.867 255.424 118.325 260.54H116.365C116.532 258.196 117.13 255.874 118.158 253.574C119.201 251.273 120.535 249.201 122.161 247.358H114.426V245.622H123.975Z" fill="white"/>
<path d="M134.872 245.622V247.229H128.888L128.013 251.752C128.736 250.952 129.729 250.551 130.994 250.551C132.384 250.551 133.51 251.016 134.372 251.945C135.233 252.859 135.664 254.052 135.664 255.524C135.664 257.067 135.192 258.339 134.246 259.339C133.301 260.34 132.071 260.84 130.556 260.84C129.152 260.84 128.013 260.44 127.137 259.639C126.275 258.839 125.824 257.775 125.782 256.446H127.575C127.644 257.289 127.957 257.975 128.513 258.503C129.069 259.032 129.757 259.296 130.577 259.296C131.494 259.296 132.259 258.954 132.87 258.268C133.482 257.582 133.788 256.732 133.788 255.717C133.788 254.66 133.489 253.802 132.891 253.145C132.294 252.473 131.515 252.138 130.556 252.138C129.333 252.138 128.388 252.631 127.721 253.616L126.199 253.509L127.575 245.622H134.872Z" fill="white"/>
<path d="M143.726 253.681V255.481H137.659V253.681H143.726Z" fill="white"/>
<path d="M154.56 245.622V247.229H148.577L147.701 251.752C148.424 250.952 149.417 250.551 150.682 250.551C152.072 250.551 153.198 251.016 154.06 251.945C154.921 252.859 155.352 254.052 155.352 255.524C155.352 257.067 154.88 258.339 153.935 259.339C152.989 260.34 151.759 260.84 150.244 260.84C148.841 260.84 147.701 260.44 146.825 259.639C145.963 258.839 145.512 257.775 145.47 256.446H147.263C147.333 257.289 147.645 257.975 148.201 258.503C148.757 259.032 149.445 259.296 150.265 259.296C151.183 259.296 151.947 258.954 152.559 258.268C153.17 257.582 153.476 256.732 153.476 255.717C153.476 254.66 153.177 253.802 152.579 253.145C151.982 252.473 151.203 252.138 150.244 252.138C149.021 252.138 148.076 252.631 147.409 253.616L145.887 253.509L147.263 245.622H154.56Z" fill="white"/>
<path d="M166.478 258.889V260.54H156.846C156.888 259.697 157.013 258.961 157.222 258.332C157.43 257.703 157.75 257.139 158.181 256.639C158.625 256.124 159.056 255.703 159.473 255.374C159.89 255.045 160.481 254.638 161.245 254.152C162.441 253.381 163.226 252.802 163.601 252.416C164.38 251.63 164.769 250.759 164.769 249.801C164.769 248.958 164.505 248.272 163.977 247.744C163.448 247.201 162.76 246.929 161.913 246.929C160.898 246.929 160.168 247.293 159.724 248.022C159.293 248.737 159.063 249.644 159.036 250.744H157.243V250.337C157.243 248.837 157.673 247.629 158.535 246.715C159.411 245.8 160.564 245.343 161.996 245.343C163.4 245.343 164.519 245.743 165.353 246.543C166.187 247.343 166.604 248.415 166.604 249.758C166.604 250.33 166.506 250.873 166.312 251.387C166.131 251.887 165.923 252.309 165.686 252.652C165.464 252.995 165.116 253.359 164.644 253.745C164.185 254.131 163.803 254.431 163.497 254.645C163.191 254.845 162.754 255.124 162.184 255.481C161.044 256.181 160.286 256.724 159.911 257.11C159.383 257.653 159.042 258.246 158.89 258.889H166.478Z" fill="white"/>
<path d="M6.545 287.928V283.191H2V281.926H6.545V277.189H7.92101V281.926H12.466V283.191H7.92101V287.928H6.545Z" fill="white"/>
<path d="M23.9872 273.009V274.574C20.7626 278.361 18.8793 282.812 18.3372 287.928H16.3774C16.5442 285.584 17.1419 283.262 18.1704 280.961C19.2128 278.661 20.5471 276.589 22.1733 274.746H14.4385V273.009H23.9872Z" fill="white"/>
<path d="M30.6726 272.388C28.824 275.317 27.8997 278.611 27.8997 282.269C27.8997 285.756 28.824 288.999 30.6726 292H29.3174C28.1916 290.2 27.3646 288.578 26.8364 287.134C26.3222 285.677 26.065 284.062 26.065 282.29C26.065 278.675 27.1492 275.374 29.3174 272.388H30.6726Z" fill="white"/>
<path d="M31.4187 277.661C31.4604 276.089 31.8843 274.874 32.6905 274.017C33.5105 273.16 34.6503 272.731 36.1097 272.731C37.4162 272.731 38.4656 273.095 39.2578 273.824C40.0501 274.553 40.4462 275.51 40.4462 276.696C40.4462 277.411 40.2655 278.054 39.9041 278.625C39.5566 279.182 39.0632 279.597 38.4239 279.868C39.2578 280.068 39.918 280.497 40.4045 281.154C40.891 281.812 41.1342 282.605 41.1342 283.534C41.1481 284.934 40.6755 286.07 39.7165 286.942C38.7714 287.799 37.5413 288.228 36.0263 288.228C34.5252 288.228 33.3229 287.806 32.4195 286.963C31.5299 286.106 31.0851 284.955 31.0851 283.512V283.233H32.8364C32.8781 284.319 33.177 285.155 33.7329 285.741C34.2889 286.327 35.0603 286.62 36.0471 286.62C36.9923 286.62 37.7567 286.349 38.3405 285.806C38.9381 285.248 39.237 284.534 39.237 283.662C39.237 282.776 38.9381 282.069 38.3405 281.54C37.7567 281.012 36.9645 280.747 35.9637 280.747C35.7136 280.747 35.3939 280.776 35.0047 280.833V279.29C35.1993 279.304 35.4008 279.311 35.6093 279.311C36.5266 279.311 37.2494 279.09 37.7776 278.647C38.3196 278.189 38.5907 277.575 38.5907 276.803C38.5907 276.06 38.3544 275.46 37.8818 275.003C37.4231 274.546 36.8046 274.317 36.0263 274.317C35.1367 274.317 34.4418 274.61 33.9414 275.196C33.441 275.767 33.177 276.589 33.1492 277.661H31.4187Z" fill="white"/>
<path d="M52.7816 282.719V284.262H50.7801V287.928H49.1122V284.262H42.6283V282.548L49.3416 272.731H50.7801V282.719H52.7816ZM49.1122 282.719V275.41L44.1919 282.719H49.1122Z" fill="white"/>
<path d="M54.5884 277.661C54.6301 276.089 55.054 274.874 55.8602 274.017C56.6802 273.16 57.8199 272.731 59.2794 272.731C60.5859 272.731 61.6352 273.095 62.4275 273.824C63.2197 274.553 63.6159 275.51 63.6159 276.696C63.6159 277.411 63.4352 278.054 63.0738 278.625C62.7263 279.182 62.2329 279.597 61.5935 279.868C62.4275 280.068 63.0877 280.497 63.5742 281.154C64.0606 281.812 64.3039 282.605 64.3039 283.534C64.3178 284.934 63.8452 286.07 62.8862 286.942C61.941 287.799 60.711 288.228 59.196 288.228C57.6949 288.228 56.4926 287.806 55.5891 286.963C54.6996 286.106 54.2548 284.955 54.2548 283.512V283.233H56.0061C56.0478 284.319 56.3466 285.155 56.9026 285.741C57.4586 286.327 58.23 286.62 59.2168 286.62C60.1619 286.62 60.9264 286.349 61.5102 285.806C62.1078 285.248 62.4066 284.534 62.4066 283.662C62.4066 282.776 62.1078 282.069 61.5102 281.54C60.9264 281.012 60.1341 280.747 59.1334 280.747C58.8832 280.747 58.5635 280.776 58.1744 280.833V279.29C58.369 279.304 58.5705 279.311 58.779 279.311C59.6963 279.311 60.4191 279.09 60.9472 278.647C61.4893 278.189 61.7603 277.575 61.7603 276.803C61.7603 276.06 61.5241 275.46 61.0515 275.003C60.5928 274.546 59.9743 274.317 59.196 274.317C58.3064 274.317 57.6115 274.61 57.1111 275.196C56.6107 275.767 56.3466 276.589 56.3188 277.661H54.5884Z" fill="white"/>
<path d="M69.5716 282.29C69.5716 284.062 69.3075 285.677 68.7793 287.134C68.2651 288.578 67.445 290.2 66.3192 292H64.964C66.8126 288.999 67.7369 285.756 67.7369 282.269C67.7369 278.611 66.8126 275.317 64.964 272.388H66.3192C68.4874 275.374 69.5716 278.675 69.5716 282.29Z" fill="white"/>
<path d="M71.5686 277.661C71.6103 276.089 72.0343 274.874 72.8404 274.017C73.6605 273.16 74.8002 272.731 76.2596 272.731C77.5661 272.731 78.6155 273.095 79.4077 273.824C80.2 274.553 80.5961 275.51 80.5961 276.696C80.5961 277.411 80.4154 278.054 80.054 278.625C79.7066 279.182 79.2132 279.597 78.5738 279.868C79.4077 280.068 80.0679 280.497 80.5544 281.154C81.0409 281.812 81.2841 282.605 81.2841 283.534C81.298 284.934 80.8254 286.07 79.8664 286.942C78.9213 287.799 77.6912 288.228 76.1762 288.228C74.6751 288.228 73.4728 287.806 72.5694 286.963C71.6798 286.106 71.2351 284.955 71.2351 283.512V283.233H72.9864C73.0281 284.319 73.3269 285.155 73.8828 285.741C74.4388 286.327 75.2102 286.62 76.197 286.62C77.1422 286.62 77.9066 286.349 78.4904 285.806C79.0881 285.248 79.3869 284.534 79.3869 283.662C79.3869 282.776 79.0881 282.069 78.4904 281.54C77.9066 281.012 77.1144 280.747 76.1136 280.747C75.8635 280.747 75.5438 280.776 75.1546 280.833V279.29C75.3492 279.304 75.5507 279.311 75.7592 279.311C76.6766 279.311 77.3993 279.09 77.9275 278.647C78.4695 278.189 78.7406 277.575 78.7406 276.803C78.7406 276.06 78.5043 275.46 78.0317 275.003C77.5731 274.546 76.9545 274.317 76.1762 274.317C75.2867 274.317 74.5917 274.61 74.0913 275.196C73.591 275.767 73.3269 276.589 73.2991 277.661H71.5686Z" fill="white"/>
<path d="M85.6345 279.804C84.9812 279.518 84.4739 279.104 84.1125 278.561C83.765 278.004 83.5913 277.353 83.5913 276.61C83.5913 275.467 84.0013 274.538 84.8214 273.824C85.6414 273.095 86.6978 272.731 87.9904 272.731C89.2691 272.731 90.3115 273.088 91.1177 273.803C91.9377 274.503 92.3477 275.41 92.3477 276.525C92.3477 278.068 91.6736 279.161 90.3254 279.804C92.0628 280.433 92.9315 281.669 92.9315 283.512C92.9315 284.955 92.4798 286.106 91.5763 286.963C90.6729 287.806 89.4567 288.228 87.9278 288.228C86.4545 288.228 85.2661 287.813 84.3627 286.984C83.4732 286.141 83.0284 285.027 83.0284 283.641C83.0284 282.726 83.2508 281.94 83.6955 281.283C84.1542 280.611 84.8005 280.118 85.6345 279.804ZM89.8459 275.003C89.3872 274.574 88.7687 274.36 87.9904 274.36C87.212 274.36 86.5866 274.581 86.114 275.024C85.6414 275.453 85.4051 276.025 85.4051 276.739C85.4051 277.453 85.6414 278.032 86.114 278.475C86.5866 278.904 87.212 279.118 87.9904 279.118C88.7548 279.118 89.3664 278.904 89.8251 278.475C90.2976 278.032 90.5339 277.453 90.5339 276.739C90.5339 276.01 90.3046 275.432 89.8459 275.003ZM87.9278 280.597C87.0383 280.597 86.3086 280.883 85.7387 281.454C85.1689 282.012 84.8839 282.726 84.8839 283.598C84.8839 284.498 85.1689 285.241 85.7387 285.827C86.3225 286.399 87.0661 286.684 87.9695 286.684C88.8869 286.684 89.6305 286.399 90.2003 285.827C90.7841 285.255 91.076 284.52 91.076 283.619C91.076 282.719 90.7841 281.99 90.2003 281.433C89.6166 280.876 88.8591 280.597 87.9278 280.597Z" fill="white"/>
<path d="M103.599 273.009V274.617H97.6154L96.7398 279.14C97.4625 278.339 98.4563 277.939 99.7211 277.939C101.111 277.939 102.237 278.404 103.099 279.333C103.96 280.247 104.391 281.44 104.391 282.912C104.391 284.455 103.919 285.727 102.974 286.727C102.028 287.727 100.798 288.228 99.2833 288.228C97.8795 288.228 96.7398 287.828 95.8641 287.027C95.0024 286.227 94.5507 285.163 94.509 283.834H96.302C96.3715 284.677 96.6842 285.363 97.2402 285.891C97.7961 286.42 98.4841 286.684 99.3042 286.684C100.222 286.684 100.986 286.341 101.598 285.656C102.209 284.97 102.515 284.119 102.515 283.105C102.515 282.047 102.216 281.19 101.618 280.533C101.021 279.861 100.242 279.525 99.2833 279.525C98.0602 279.525 97.1151 280.018 96.4479 281.004L94.926 280.897L96.302 273.009H103.599Z" fill="white"/>
<path d="M112.453 281.069V282.869H106.386V281.069H112.453Z" fill="white"/>
<path d="M123.621 286.277V287.928H113.989C114.03 287.084 114.155 286.349 114.364 285.72C114.572 285.091 114.892 284.527 115.323 284.027C115.768 283.512 116.199 283.091 116.616 282.762C117.033 282.433 117.623 282.026 118.388 281.54C119.583 280.769 120.368 280.19 120.744 279.804C121.522 279.018 121.911 278.146 121.911 277.189C121.911 276.346 121.647 275.66 121.119 275.131C120.591 274.588 119.903 274.317 119.055 274.317C118.04 274.317 117.311 274.681 116.866 275.41C116.435 276.125 116.206 277.032 116.178 278.132H114.385V277.725C114.385 276.225 114.816 275.017 115.677 274.103C116.553 273.188 117.707 272.731 119.138 272.731C120.542 272.731 121.661 273.131 122.495 273.931C123.329 274.731 123.746 275.803 123.746 277.146C123.746 277.718 123.648 278.261 123.454 278.775C123.273 279.275 123.065 279.697 122.828 280.04C122.606 280.383 122.259 280.747 121.786 281.133C121.327 281.519 120.945 281.819 120.639 282.033C120.334 282.233 119.896 282.512 119.326 282.869C118.186 283.569 117.429 284.112 117.053 284.498C116.525 285.041 116.185 285.634 116.032 286.277H123.621Z" fill="white"/>
<path d="M128.492 279.804C127.839 279.518 127.332 279.104 126.97 278.561C126.623 278.004 126.449 277.353 126.449 276.61C126.449 275.467 126.859 274.538 127.679 273.824C128.499 273.095 129.556 272.731 130.848 272.731C132.127 272.731 133.169 273.088 133.975 273.803C134.796 274.503 135.206 275.41 135.206 276.525C135.206 278.068 134.531 279.161 133.183 279.804C134.921 280.433 135.789 281.669 135.789 283.512C135.789 284.955 135.338 286.106 134.434 286.963C133.531 287.806 132.315 288.228 130.786 288.228C129.312 288.228 128.124 287.813 127.22 286.984C126.331 286.141 125.886 285.027 125.886 283.641C125.886 282.726 126.109 281.94 126.553 281.283C127.012 280.611 127.658 280.118 128.492 279.804ZM132.704 275.003C132.245 274.574 131.627 274.36 130.848 274.36C130.07 274.36 129.444 274.581 128.972 275.024C128.499 275.453 128.263 276.025 128.263 276.739C128.263 277.453 128.499 278.032 128.972 278.475C129.444 278.904 130.07 279.118 130.848 279.118C131.613 279.118 132.224 278.904 132.683 278.475C133.155 278.032 133.392 277.453 133.392 276.739C133.392 276.01 133.162 275.432 132.704 275.003ZM130.786 280.597C129.896 280.597 129.166 280.883 128.597 281.454C128.027 282.012 127.742 282.726 127.742 283.598C127.742 284.498 128.027 285.241 128.597 285.827C129.18 286.399 129.924 286.684 130.827 286.684C131.745 286.684 132.488 286.399 133.058 285.827C133.642 285.255 133.934 284.52 133.934 283.619C133.934 282.719 133.642 281.99 133.058 281.433C132.474 280.876 131.717 280.597 130.786 280.597Z" fill="white"/>
<path d="M143.726 281.069V282.869H137.659V281.069H143.726Z" fill="white"/>
<path d="M150.515 272.731C151.405 272.731 152.162 272.902 152.788 273.245C153.427 273.574 153.914 273.981 154.247 274.467C154.581 274.953 154.845 275.589 155.04 276.375C155.234 277.146 155.352 277.846 155.394 278.475C155.436 279.09 155.457 279.833 155.457 280.704C155.457 281.504 155.422 282.226 155.352 282.869C155.297 283.512 155.165 284.184 154.956 284.884C154.762 285.584 154.491 286.17 154.143 286.641C153.796 287.099 153.323 287.477 152.725 287.778C152.128 288.078 151.419 288.228 150.599 288.228C149.737 288.228 148.987 288.078 148.347 287.778C147.722 287.463 147.235 287.077 146.888 286.62C146.54 286.163 146.262 285.584 146.054 284.884C145.859 284.169 145.734 283.498 145.679 282.869C145.623 282.226 145.595 281.49 145.595 280.661C145.595 279.947 145.609 279.325 145.637 278.797C145.679 278.268 145.748 277.675 145.845 277.018C145.957 276.346 146.123 275.782 146.346 275.324C146.568 274.853 146.853 274.41 147.2 273.995C147.548 273.581 148 273.267 148.556 273.052C149.126 272.838 149.779 272.731 150.515 272.731ZM151.662 274.617C151.329 274.446 150.946 274.36 150.515 274.36C150.085 274.36 149.702 274.446 149.369 274.617C149.035 274.774 148.764 274.96 148.556 275.174C148.347 275.389 148.166 275.71 148.014 276.139C147.861 276.553 147.75 276.903 147.68 277.189C147.624 277.475 147.576 277.889 147.534 278.432C147.492 278.961 147.472 279.34 147.472 279.568C147.472 279.783 147.472 280.147 147.472 280.661C147.472 281.162 147.478 281.576 147.492 281.905C147.506 282.233 147.541 282.662 147.597 283.191C147.652 283.719 147.75 284.162 147.889 284.52C148.027 284.862 148.201 285.213 148.41 285.57C148.618 285.913 148.903 286.177 149.265 286.363C149.64 286.534 150.071 286.62 150.557 286.62C150.974 286.62 151.342 286.541 151.662 286.384C151.996 286.227 152.267 286.041 152.475 285.827C152.684 285.613 152.857 285.313 152.996 284.927C153.149 284.527 153.26 284.184 153.33 283.898C153.399 283.598 153.448 283.205 153.476 282.719C153.518 282.219 153.538 281.855 153.538 281.626C153.552 281.383 153.559 281.033 153.559 280.576C153.559 280.076 153.559 279.718 153.559 279.504C153.559 279.29 153.538 278.918 153.497 278.389C153.455 277.861 153.399 277.453 153.33 277.168C153.274 276.882 153.17 276.532 153.017 276.117C152.864 275.703 152.684 275.389 152.475 275.174C152.267 274.96 151.996 274.774 151.662 274.617Z" fill="white"/>
<path d="M157.284 277.661C157.326 276.089 157.75 274.874 158.556 274.017C159.376 273.16 160.516 272.731 161.975 272.731C163.282 272.731 164.331 273.095 165.123 273.824C165.916 274.553 166.312 275.51 166.312 276.696C166.312 277.411 166.131 278.054 165.77 278.625C165.422 279.182 164.929 279.597 164.289 279.868C165.123 280.068 165.784 280.497 166.27 281.154C166.756 281.812 167 282.605 167 283.534C167.014 284.934 166.541 286.07 165.582 286.942C164.637 287.799 163.407 288.228 161.892 288.228C160.391 288.228 159.188 287.806 158.285 286.963C157.395 286.106 156.951 284.955 156.951 283.512V283.233H158.702C158.744 284.319 159.042 285.155 159.598 285.741C160.154 286.327 160.926 286.62 161.913 286.62C162.858 286.62 163.622 286.349 164.206 285.806C164.804 285.248 165.102 284.534 165.102 283.662C165.102 282.776 164.804 282.069 164.206 281.54C163.622 281.012 162.83 280.747 161.829 280.747C161.579 280.747 161.259 280.776 160.87 280.833V279.29C161.065 279.304 161.266 279.311 161.475 279.311C162.392 279.311 163.115 279.09 163.643 278.647C164.185 278.189 164.456 277.575 164.456 276.803C164.456 276.06 164.22 275.46 163.747 275.003C163.289 274.546 162.67 274.317 161.892 274.317C161.002 274.317 160.307 274.61 159.807 275.196C159.307 275.767 159.042 276.589 159.015 277.661H157.284Z" fill="white"/>
<path d="M0 20.5214V0.478553H2.62745V18.2131H11.4601V0.478553H14.0876V18.2131H22.9203V0.478553H25.5477V20.5214H0Z" fill="#818181"/>
<path d="M38.3843 0C41.403 0 43.7509 0.957104 45.428 2.87131C47.1051 4.76676 47.9437 7.25335 47.9437 10.3311C47.9437 13.4276 47.1144 15.9799 45.456 17.9879C43.7975 19.996 41.4496 21 38.4122 21C36.8655 21 35.4773 20.7185 34.2474 20.1555C33.0176 19.5925 32.0113 18.8137 31.2287 17.819C30.4646 16.8244 29.8777 15.689 29.4677 14.4129C29.0764 13.1367 28.8807 11.7574 28.8807 10.2748C28.8807 7.14075 29.7379 4.64477 31.4523 2.78686C33.1853 0.928954 35.4959 0 38.3843 0ZM38.3843 2.30831C36.1668 2.30831 34.4617 3.09651 33.2691 4.67292C32.0951 6.23056 31.5082 8.16354 31.5082 10.4718C31.5082 12.9866 32.1324 14.9946 33.3809 16.496C34.6481 17.9786 36.3345 18.7198 38.4402 18.7198C40.5272 18.7198 42.195 17.9692 43.4435 16.4678C44.692 14.9665 45.3162 12.9678 45.3162 10.4718C45.3162 7.99464 44.6827 6.01475 43.4155 4.53217C42.167 3.0496 40.4899 2.30831 38.3843 2.30831Z" fill="#818181"/>
<path d="M67.3914 0.478553L59.0059 8.52949L67.7268 20.5214H64.3726L57.1611 10.3311L53.8629 13.4839V20.5214H51.2354V0.478553H53.8629V10.4155L63.9534 0.478553H67.3914Z" fill="#818181"/>
<path d="M94.5131 12.9491C94.2895 15.4826 93.4137 17.4625 91.8857 18.8887C90.3763 20.2962 88.3824 21 85.9041 21C83.0716 21 80.8262 20.0617 79.1677 18.185C77.5093 16.2895 76.6801 13.7373 76.6801 10.5281C76.6801 7.52547 77.5093 5.02949 79.1677 3.04021C80.8448 1.03217 83.1555 0.0281498 86.0997 0.0281498C88.2054 0.0281498 90.0595 0.600536 91.6621 1.74531C93.2646 2.89008 94.1591 4.47587 94.3454 6.50268H91.718C91.4198 5.18901 90.7676 4.16622 89.7614 3.43432C88.7551 2.68365 87.5159 2.30831 86.0438 2.30831C83.8263 2.30831 82.1492 3.09651 81.0125 4.67292C79.8945 6.24933 79.3355 8.19169 79.3355 10.5C79.3355 13.0523 79.9317 15.0603 81.1244 16.5241C82.3169 17.9879 83.9475 18.7198 86.0159 18.7198C87.7116 18.7198 89.0626 18.2319 90.0688 17.256C91.0751 16.2614 91.6807 14.8257 91.8857 12.9491H94.5131Z" fill="#818181"/>
<path d="M106.216 0C109.235 0 111.583 0.957104 113.26 2.87131C114.937 4.76676 115.775 7.25335 115.775 10.3311C115.775 13.4276 114.946 15.9799 113.288 17.9879C111.629 19.996 109.281 21 106.244 21C104.697 21 103.309 20.7185 102.079 20.1555C100.849 19.5925 99.8429 18.8137 99.0603 17.819C98.2963 16.8244 97.7093 15.689 97.2993 14.4129C96.908 13.1367 96.7124 11.7574 96.7124 10.2748C96.7124 7.14075 97.5695 4.64477 99.2839 2.78686C101.017 0.928954 103.328 0 106.216 0ZM106.216 2.30831C103.998 2.30831 102.293 3.09651 101.101 4.67292C99.9268 6.23056 99.3398 8.16354 99.3398 10.4718C99.3398 12.9866 99.9641 14.9946 101.213 16.496C102.48 17.9786 104.166 18.7198 106.272 18.7198C108.359 18.7198 110.027 17.9692 111.275 16.4678C112.524 14.9665 113.148 12.9678 113.148 10.4718C113.148 7.99464 112.514 6.01475 111.247 4.53217C109.999 3.0496 108.322 2.30831 106.216 2.30831Z" fill="#818181"/>
<path d="M121.694 8.58579H128.347C130.304 8.58579 131.813 9.11126 132.875 10.1622C133.937 11.2131 134.468 12.6863 134.468 14.5818C134.468 16.4584 133.928 17.9223 132.847 18.9732C131.785 20.0054 130.285 20.5214 128.347 20.5214H119.067V0.478553H132.707V2.78686H121.694V8.58579ZM131.841 14.5818C131.841 12.1233 130.387 10.8941 127.48 10.8941H121.694V18.2131H127.48C130.387 18.2131 131.841 17.0027 131.841 14.5818Z" fill="#818181"/>
<path d="M155.532 0.478553H158.159V20.5214H155.532V0.478553ZM153.044 14.5818C153.044 16.4584 152.504 17.9223 151.423 18.9732C150.361 20.0054 148.861 20.5214 146.923 20.5214H138.202V0.478553H140.829V8.61394H146.923C148.879 8.61394 150.389 9.13941 151.451 10.1903C152.513 11.2225 153.044 12.6863 153.044 14.5818ZM150.389 14.5818C150.389 12.1233 148.935 10.8941 146.028 10.8941H140.829V18.2131H146.028C148.935 18.2131 150.389 17.0027 150.389 14.5818Z" fill="#818181"/>
<path d="M176.358 0.478553V2.78686H169.678V20.5214H167.05V2.78686H160.37V0.478553H176.358Z" fill="#818181"/>
<path d="M178.601 20.5214V0.478553H181.228V17.4531H181.284L191.039 0.478553H194.365V20.5214H191.738V3.49062H191.682L181.899 20.5214H178.601Z" fill="#818181"/>
<path d="M206.264 11.9638L199.695 20.5214H196.453L203.105 11.8794C201.521 11.6729 200.301 11.0912 199.443 10.134C198.586 9.17694 198.158 7.87265 198.158 6.22118C198.158 4.36327 198.707 2.94638 199.807 1.97051C200.925 0.975872 202.472 0.478553 204.447 0.478553H213V20.5214H210.373V11.9638H206.264ZM210.373 9.7118V2.73056H205.341C202.322 2.73056 200.813 3.8941 200.813 6.22118C200.813 8.54826 202.322 9.7118 205.341 9.7118H210.373Z" fill="#818181"/>
<path d="M280 0.479195H283.668L290.129 17.4765L296.365 0.479195H300.061V20.549H297.55V3.80537L291.258 20.549H288.944L282.539 3.80537V20.549H280V0.479195Z" fill="#818181"/>
<path d="M312.986 0.479195L320.829 20.549H317.867L315.638 14.404H307.202L304.916 20.549H302.095L309.995 0.479195H312.986ZM314.848 12.2899L311.434 3.01611L307.963 12.2899H314.848Z" fill="#818181"/>
<path d="M325.497 20.549H322.845V0.479195H336.049V2.7906H325.497V20.549Z" fill="#818181"/>
<path d="M343.57 0.479195L351.414 20.549H348.451L346.222 14.404H337.786L335.501 20.549H332.679L340.579 0.479195H343.57ZM345.432 12.2899L342.018 3.01611L338.548 12.2899H345.432Z" fill="#818181"/>
<path d="M368.383 14.6859C368.383 15.3436 368.233 16.0295 367.932 16.7436C367.631 17.4389 367.189 18.1154 366.606 18.7732C366.023 19.4309 365.204 19.9664 364.151 20.3799C363.098 20.7933 361.903 21 360.568 21C358.047 21 356.025 20.4081 354.502 19.2242C352.997 18.0215 352.244 16.255 352.244 13.9248H354.812C354.868 15.6349 355.442 16.8846 356.533 17.6738C357.624 18.4443 359.044 18.8295 360.793 18.8295C362.204 18.8295 363.38 18.4443 364.32 17.6738C365.261 16.9034 365.731 15.8886 365.731 14.6295C365.731 13.9342 365.599 13.3423 365.336 12.8537C365.073 12.3651 364.687 11.9987 364.179 11.7544C363.671 11.5101 363.135 11.3409 362.571 11.247C362.025 11.153 361.386 11.106 360.652 11.106C360.013 11.106 359.411 11.1248 358.847 11.1624V8.96376C359.148 9.00134 359.749 9.02013 360.652 9.02013C363.568 9.02013 365.026 7.81745 365.026 5.41208C365.026 3.2698 363.587 2.19866 360.709 2.19866C357.662 2.19866 355.997 3.56107 355.715 6.28591H353.147C353.222 4.21879 353.956 2.65906 355.348 1.60671C356.74 0.53557 358.555 0 360.793 0C362.844 0 364.499 0.451006 365.759 1.35302C367.038 2.25503 367.678 3.60805 367.678 5.41208C367.678 6.42685 367.349 7.34765 366.69 8.1745C366.032 8.98255 365.251 9.51812 364.348 9.78121V9.86577C365.628 10.1101 366.615 10.6832 367.311 11.5852C368.026 12.4872 368.383 13.5208 368.383 14.6859Z" fill="#818181"/>
<path d="M371.725 20.549V0.479195H374.377V17.4765H374.433L384.28 0.479195H387.638V20.549H384.986V3.4953H384.929L375.054 20.549H371.725Z" fill="#818181"/>
<path d="M408 0.479195V20.549H405.348V11.1624H394.739V20.549H392.087V0.479195H394.739V8.85101H405.348V0.479195H408Z" fill="#818181"/>
<path d="M1423.38 1L1414.88 8.86795L1423.72 20.5873H1420.32L1413.01 10.6286L1409.66 13.7098V20.5873H1407V1H1409.66V10.7111L1419.89 1H1423.38Z" fill="#818181"/>
<path d="M1440.77 1V20.5873H1438.11V3.25584H1430.66L1430.26 14.2875C1430.18 16.3416 1429.75 17.9739 1428.96 19.1843C1428.18 20.3948 1427.06 21 1425.59 21C1424.98 21 1424.34 20.8716 1423.66 20.6149V18.414C1423.96 18.5974 1424.44 18.6891 1425.1 18.6891C1425.65 18.6891 1426.09 18.5699 1426.41 18.3315C1426.75 18.0747 1427.04 17.5062 1427.28 16.6259C1427.55 15.7455 1427.7 14.5167 1427.74 12.9395L1428.11 1H1440.77Z" fill="#818181"/>
<path d="M1445.29 20.5873V1H1447.95V17.5887H1448.01L1457.9 1H1461.27V20.5873H1458.61V3.9436H1458.55L1448.63 20.5873H1445.29Z" fill="#818181"/>
<path d="M1479.7 1V3.25584H1468.4V9.39065H1478.97V11.564H1468.4V18.3315H1479.85V20.5873H1465.74V1H1479.7Z" fill="#818181"/>
<path d="M1499.04 1V20.5873H1496.37V11.4264H1485.72V20.5873H1483.06V1H1485.72V9.17056H1496.37V1H1499.04Z" fill="#818181"/>
<path d="M1517.5 1V3.25584H1510.73V20.5873H1508.06V3.25584H1501.29V1H1517.5Z" fill="#818181"/>
<path d="M1537.34 1H1540V20.5873H1537.34V1ZM1534.82 14.7827C1534.82 16.6167 1534.27 18.0472 1533.17 19.0743C1532.1 20.083 1530.58 20.5873 1528.61 20.5873H1519.77V1H1522.43V8.95048H1528.61C1530.59 8.95048 1532.12 9.46401 1533.2 10.4911C1534.28 11.4998 1534.82 12.9303 1534.82 14.7827ZM1532.12 14.7827C1532.12 12.3801 1530.65 11.1788 1527.7 11.1788H1522.43V18.3315H1527.7C1530.65 18.3315 1532.12 17.1486 1532.12 14.7827Z" fill="#818181"/>
</svg>
