<svg width="73" height="87" viewBox="0 0 73 87" fill="none" xmlns="http://www.w3.org/2000/svg">
<path d="M59.6809 19.6593L49.5647 22.3386C45.6069 11.8869 37.625 8.25098 25.6189 11.4308C19.9123 12.9422 15.807 15.2588 13.3028 18.3807C10.7986 21.5025 10.0961 25.1386 11.1953 29.2888C11.5878 30.771 12.1537 32.0091 12.8928 33.003C13.6319 33.9969 14.638 34.8011 15.9111 35.4157C17.2387 35.9365 18.4627 36.3657 19.5832 36.7034C20.7036 37.0412 22.38 37.2317 24.6121 37.275C26.8443 37.3182 28.6295 37.3213 29.9679 37.284C31.2867 37.1727 33.3586 37.0601 36.1837 36.9464C39.6212 36.7497 42.4931 36.6632 44.7994 36.6869C47.086 36.6365 49.8784 36.8486 53.1765 37.3234C56.4747 37.7981 59.1821 38.5879 61.2989 39.6928C63.4701 40.7039 65.5194 42.3026 67.4467 44.4887C69.448 46.6551 70.8707 49.3318 71.7148 52.5186C73.1869 58.0769 72.8672 63.1581 70.7556 67.7622C68.6243 72.2922 65.5316 75.8871 61.4775 78.5471C57.4234 81.207 52.6913 83.2534 47.2811 84.6863C37.3502 87.3166 28.7649 87.0921 21.5253 84.013C14.3402 80.8402 9.53064 74.6588 7.0967 65.469L17.2129 62.7897C19.2214 69.475 22.7871 73.8047 27.91 75.7789C33.0132 77.679 39.011 77.7164 45.9034 75.8909C51.3135 74.458 55.651 72.1196 58.916 68.8755C62.1613 65.5574 63.1068 61.3415 61.7524 56.2278C61.1243 53.8563 60.0755 51.9926 58.6061 50.637C57.1171 49.2072 55.1235 48.268 52.6254 47.8193C50.1076 47.2965 47.6487 46.996 45.2487 46.9179C42.8487 46.8397 39.7251 46.8739 35.8777 47.0205C35.3393 47.0838 34.9491 47.1078 34.7071 47.0926C26.0642 47.399 20.3356 47.33 17.5214 46.8857C8.93049 45.592 3.55548 40.8691 1.39634 32.7168C-0.605776 25.1575 0.68163 18.7889 5.25856 13.6112C9.88996 8.33978 16.1706 4.65393 24.1005 2.55367C32.7716 0.25713 40.2506 0.496977 46.5376 3.27321C52.8246 6.04945 57.2057 11.5115 59.6809 19.6593Z" fill="black"/>
</svg>
