<svg width="976" height="45" viewBox="0 0 976 45" fill="none" xmlns="http://www.w3.org/2000/svg">
<path d="M12.276 10.158C12.132 11.778 11.568 13.044 10.584 13.956C9.612 14.856 8.328 15.306 6.732 15.306C4.908 15.306 3.462 14.706 2.394 13.506C1.326 12.294 0.792 10.662 0.792 8.61C0.792 6.69 1.326 5.094 2.394 3.822C3.474 2.538 4.962 1.896 6.858 1.896C8.214 1.896 9.408 2.262 10.44 2.994C11.472 3.726 12.048 4.74 12.168 6.036H10.476C10.284 5.196 9.864 4.542 9.216 4.074C8.568 3.594 7.77 3.354 6.822 3.354C5.394 3.354 4.314 3.858 3.582 4.866C2.862 5.874 2.502 7.116 2.502 8.592C2.502 10.224 2.886 11.508 3.654 12.444C4.422 13.38 5.472 13.848 6.804 13.848C7.896 13.848 8.766 13.536 9.414 12.912C10.062 12.276 10.452 11.358 10.584 10.158H12.276ZM17.6522 11.652L12.9722 2.184H14.8262L18.5702 9.996L22.2422 2.184H24.0602L19.0742 12.39C18.5582 13.446 18.0242 14.196 17.4722 14.64C16.9322 15.084 16.3322 15.306 15.6722 15.306C15.0962 15.306 14.5682 15.198 14.0882 14.982V13.542C14.4362 13.758 14.9162 13.866 15.5282 13.866C16.2362 13.866 16.8722 13.278 17.4362 12.102L17.6522 11.652ZM25.4341 2.184H27.7741L31.8961 13.038L35.8741 2.184H38.2321V15H36.6301V4.308L32.6161 15H31.1401L27.0541 4.308V15H25.4341V2.184ZM51.4998 2.184L46.0998 7.332L51.7158 15H49.5558L44.9118 8.484L42.7878 10.5V15H41.0958V2.184H42.7878V8.538L49.2858 2.184H51.4998ZM58.4837 2.184L63.4877 15H61.5977L60.1757 11.076H54.7937L53.3357 15H51.5357L56.5757 2.184H58.4837ZM59.6717 9.726L57.4937 3.804L55.2797 9.726H59.6717ZM74.7873 6.396H72.8433V4.938C72.8433 3.294 73.4913 2.286 74.7873 1.914V2.778C74.1633 3.042 73.8333 3.63 73.7973 4.542H74.7873V6.396ZM71.5113 6.396H69.5673V4.938C69.5673 3.294 70.2153 2.286 71.5113 1.914V2.778C70.8873 3.042 70.5573 3.63 70.5213 4.542H71.5113V6.396ZM85.8894 2.184V3.66H79.1574V7.656H85.0974V9.078H79.1574V15H77.4654V2.184H85.8894ZM89.5473 2.184V15H87.8553V2.184H89.5473ZM92.4415 2.184H98.0755C100.944 2.184 102.378 3.366 102.378 5.73C102.378 6.474 102.174 7.134 101.766 7.71C101.37 8.274 100.842 8.652 100.182 8.844C100.614 8.94 100.962 9.078 101.226 9.258C101.49 9.438 101.682 9.69 101.802 10.014C101.922 10.338 102 10.626 102.036 10.878C102.072 11.13 102.102 11.502 102.126 11.994C102.126 12.042 102.132 12.162 102.144 12.354C102.156 12.534 102.162 12.66 102.162 12.732C102.162 12.792 102.168 12.906 102.18 13.074C102.204 13.242 102.222 13.368 102.234 13.452C102.246 13.536 102.264 13.65 102.288 13.794C102.312 13.938 102.342 14.058 102.378 14.154C102.414 14.238 102.456 14.34 102.504 14.46C102.552 14.568 102.606 14.67 102.666 14.766C102.726 14.85 102.792 14.928 102.864 15H100.92C100.836 14.88 100.764 14.73 100.704 14.55C100.656 14.37 100.62 14.16 100.596 13.92C100.572 13.668 100.554 13.47 100.542 13.326C100.53 13.17 100.518 12.948 100.506 12.66C100.494 12.372 100.488 12.21 100.488 12.174C100.428 11.082 100.2 10.356 99.8035 9.996C99.4195 9.636 98.6515 9.456 97.4995 9.456H94.1335V15H92.4415V2.184ZM94.1335 3.624V8.106H97.3195C97.7155 8.106 98.0455 8.094 98.3095 8.07C98.5855 8.046 98.8855 7.992 99.2095 7.908C99.5335 7.824 99.7915 7.704 99.9835 7.548C100.188 7.392 100.356 7.17 100.488 6.882C100.62 6.594 100.686 6.246 100.686 5.838C100.686 4.974 100.422 4.392 99.8935 4.092C99.3775 3.78 98.6695 3.624 97.7695 3.624H94.1335ZM113.638 2.184V3.66H106.456V7.674H113.17V9.096H106.456V13.524H113.728V15H104.764V2.184H113.638ZM120.849 2.184H126.123C127.431 2.184 128.469 2.484 129.237 3.084C130.005 3.672 130.389 4.602 130.389 5.874C130.389 8.454 128.931 9.744 126.015 9.744H122.541V15H120.849V2.184ZM122.541 3.642V8.322H125.799C126.711 8.322 127.419 8.154 127.923 7.818C128.439 7.47 128.697 6.858 128.697 5.982C128.697 5.49 128.613 5.082 128.445 4.758C128.289 4.434 128.055 4.194 127.743 4.038C127.431 3.882 127.107 3.78 126.771 3.732C126.435 3.672 126.033 3.642 125.565 3.642H122.541ZM132.449 2.184H138.083C140.951 2.184 142.385 3.366 142.385 5.73C142.385 6.474 142.181 7.134 141.773 7.71C141.377 8.274 140.849 8.652 140.189 8.844C140.621 8.94 140.969 9.078 141.233 9.258C141.497 9.438 141.689 9.69 141.809 10.014C141.929 10.338 142.007 10.626 142.043 10.878C142.079 11.13 142.109 11.502 142.133 11.994C142.133 12.042 142.139 12.162 142.151 12.354C142.163 12.534 142.169 12.66 142.169 12.732C142.169 12.792 142.175 12.906 142.187 13.074C142.211 13.242 142.229 13.368 142.241 13.452C142.253 13.536 142.271 13.65 142.295 13.794C142.319 13.938 142.349 14.058 142.385 14.154C142.421 14.238 142.463 14.34 142.511 14.46C142.559 14.568 142.613 14.67 142.673 14.766C142.733 14.85 142.799 14.928 142.871 15H140.927C140.843 14.88 140.771 14.73 140.711 14.55C140.663 14.37 140.627 14.16 140.603 13.92C140.579 13.668 140.561 13.47 140.549 13.326C140.537 13.17 140.525 12.948 140.513 12.66C140.501 12.372 140.495 12.21 140.495 12.174C140.435 11.082 140.207 10.356 139.811 9.996C139.427 9.636 138.659 9.456 137.507 9.456H134.141V15H132.449V2.184ZM134.141 3.624V8.106H137.327C137.723 8.106 138.053 8.094 138.317 8.07C138.593 8.046 138.893 7.992 139.217 7.908C139.541 7.824 139.799 7.704 139.991 7.548C140.195 7.392 140.363 7.17 140.495 6.882C140.627 6.594 140.693 6.246 140.693 5.838C140.693 4.974 140.429 4.392 139.901 4.092C139.385 3.78 138.677 3.624 137.777 3.624H134.141ZM153.646 2.184V3.66H146.464V7.674H153.178V9.096H146.464V13.524H153.736V15H144.772V2.184H153.646ZM164.848 5.946H163.21C163.03 4.206 161.968 3.336 160.024 3.336C159.1 3.336 158.386 3.522 157.882 3.894C157.378 4.266 157.126 4.788 157.126 5.46C157.126 5.7 157.162 5.91 157.234 6.09C157.306 6.27 157.426 6.432 157.594 6.576C157.774 6.708 157.942 6.822 158.098 6.918C158.254 7.014 158.5 7.11 158.836 7.206C159.172 7.302 159.442 7.374 159.646 7.422C159.85 7.458 160.168 7.524 160.6 7.62C161.128 7.728 161.566 7.83 161.914 7.926C162.262 8.01 162.676 8.154 163.156 8.358C163.636 8.562 164.014 8.79 164.29 9.042C164.578 9.282 164.824 9.606 165.028 10.014C165.244 10.422 165.352 10.884 165.352 11.4C165.352 12.3 165.1 13.056 164.596 13.668C164.092 14.268 163.48 14.688 162.76 14.928C162.04 15.168 161.242 15.288 160.366 15.288C158.758 15.288 157.468 14.91 156.496 14.154C155.536 13.386 155.056 12.258 155.056 10.77H156.694C156.73 11.862 157.096 12.66 157.792 13.164C158.488 13.656 159.394 13.902 160.51 13.902C161.386 13.902 162.136 13.722 162.76 13.362C163.384 12.99 163.696 12.39 163.696 11.562C163.696 11.178 163.612 10.854 163.444 10.59C163.276 10.314 163.012 10.092 162.652 9.924C162.292 9.744 161.932 9.6 161.572 9.492C161.212 9.384 160.738 9.264 160.15 9.132C160.066 9.12 160.006 9.108 159.97 9.096C158.65 8.796 157.786 8.556 157.378 8.376C156.13 7.836 155.506 6.906 155.506 5.586C155.506 4.362 155.956 3.45 156.856 2.85C157.768 2.238 158.866 1.932 160.15 1.932C161.554 1.932 162.676 2.268 163.516 2.94C164.356 3.612 164.8 4.614 164.848 5.946ZM176.519 5.946H174.881C174.701 4.206 173.639 3.336 171.695 3.336C170.771 3.336 170.057 3.522 169.553 3.894C169.049 4.266 168.797 4.788 168.797 5.46C168.797 5.7 168.833 5.91 168.905 6.09C168.977 6.27 169.097 6.432 169.265 6.576C169.445 6.708 169.613 6.822 169.769 6.918C169.925 7.014 170.171 7.11 170.507 7.206C170.843 7.302 171.113 7.374 171.317 7.422C171.521 7.458 171.839 7.524 172.271 7.62C172.799 7.728 173.237 7.83 173.585 7.926C173.933 8.01 174.347 8.154 174.827 8.358C175.307 8.562 175.685 8.79 175.961 9.042C176.249 9.282 176.495 9.606 176.699 10.014C176.915 10.422 177.023 10.884 177.023 11.4C177.023 12.3 176.771 13.056 176.267 13.668C175.763 14.268 175.151 14.688 174.431 14.928C173.711 15.168 172.913 15.288 172.037 15.288C170.429 15.288 169.139 14.91 168.167 14.154C167.207 13.386 166.727 12.258 166.727 10.77H168.365C168.401 11.862 168.767 12.66 169.463 13.164C170.159 13.656 171.065 13.902 172.181 13.902C173.057 13.902 173.807 13.722 174.431 13.362C175.055 12.99 175.367 12.39 175.367 11.562C175.367 11.178 175.283 10.854 175.115 10.59C174.947 10.314 174.683 10.092 174.323 9.924C173.963 9.744 173.603 9.6 173.243 9.492C172.883 9.384 172.409 9.264 171.821 9.132C171.737 9.12 171.677 9.108 171.641 9.096C170.321 8.796 169.457 8.556 169.049 8.376C167.801 7.836 167.177 6.906 167.177 5.586C167.177 4.362 167.627 3.45 168.527 2.85C169.439 2.238 170.537 1.932 171.821 1.932C173.225 1.932 174.347 2.268 175.187 2.94C176.027 3.612 176.471 4.614 176.519 5.946ZM184.141 2.184V3.642C184.141 5.286 183.493 6.294 182.197 6.666V5.802C182.821 5.538 183.151 4.95 183.187 4.038H182.197V2.184H184.141ZM180.865 2.184V3.642C180.865 5.286 180.217 6.294 178.921 6.666V5.802C179.545 5.538 179.875 4.95 179.911 4.038H178.921V2.184H180.865Z" fill="black"/>
<rect x="866.5" y="2.5" width="109" height="42" stroke="black"/>
<path d="M903.766 28.614V30H895.45C895.486 29.292 895.594 28.674 895.774 28.146C895.954 27.618 896.23 27.144 896.602 26.724C896.986 26.292 897.358 25.938 897.718 25.662C898.078 25.386 898.588 25.044 899.248 24.636C900.28 23.988 900.958 23.502 901.282 23.178C901.954 22.518 902.29 21.786 902.29 20.982C902.29 20.274 902.062 19.698 901.606 19.254C901.15 18.798 900.556 18.57 899.824 18.57C898.948 18.57 898.318 18.876 897.934 19.488C897.562 20.088 897.364 20.85 897.34 21.774H895.792V21.432C895.792 20.172 896.164 19.158 896.908 18.39C897.664 17.622 898.66 17.238 899.896 17.238C901.108 17.238 902.074 17.574 902.794 18.246C903.514 18.918 903.874 19.818 903.874 20.946C903.874 21.426 903.79 21.882 903.622 22.314C903.466 22.734 903.286 23.088 903.082 23.376C902.89 23.664 902.59 23.97 902.182 24.294C901.786 24.618 901.456 24.87 901.192 25.05C900.928 25.218 900.55 25.452 900.058 25.752C899.074 26.34 898.42 26.796 898.096 27.12C897.64 27.576 897.346 28.074 897.214 28.614H903.766ZM909.988 17.238C910.756 17.238 911.41 17.382 911.95 17.67C912.502 17.946 912.922 18.288 913.21 18.696C913.498 19.104 913.726 19.638 913.894 20.298C914.062 20.946 914.164 21.534 914.2 22.062C914.236 22.578 914.254 23.202 914.254 23.934C914.254 24.606 914.224 25.212 914.164 25.752C914.116 26.292 914.002 26.856 913.822 27.444C913.654 28.032 913.42 28.524 913.12 28.92C912.82 29.304 912.412 29.622 911.896 29.874C911.38 30.126 910.768 30.252 910.06 30.252C909.316 30.252 908.668 30.126 908.116 29.874C907.576 29.61 907.156 29.286 906.856 28.902C906.556 28.518 906.316 28.032 906.136 27.444C905.968 26.844 905.86 26.28 905.812 25.752C905.764 25.212 905.74 24.594 905.74 23.898C905.74 23.298 905.752 22.776 905.776 22.332C905.812 21.888 905.872 21.39 905.956 20.838C906.052 20.274 906.196 19.8 906.388 19.416C906.58 19.02 906.826 18.648 907.126 18.3C907.426 17.952 907.816 17.688 908.296 17.508C908.788 17.328 909.352 17.238 909.988 17.238ZM910.978 18.822C910.69 18.678 910.36 18.606 909.988 18.606C909.616 18.606 909.286 18.678 908.998 18.822C908.71 18.954 908.476 19.11 908.296 19.29C908.116 19.47 907.96 19.74 907.828 20.1C907.696 20.448 907.6 20.742 907.54 20.982C907.492 21.222 907.45 21.57 907.414 22.026C907.378 22.47 907.36 22.788 907.36 22.98C907.36 23.16 907.36 23.466 907.36 23.898C907.36 24.318 907.366 24.666 907.378 24.942C907.39 25.218 907.42 25.578 907.468 26.022C907.516 26.466 907.6 26.838 907.72 27.138C907.84 27.426 907.99 27.72 908.17 28.02C908.35 28.308 908.596 28.53 908.908 28.686C909.232 28.83 909.604 28.902 910.024 28.902C910.384 28.902 910.702 28.836 910.978 28.704C911.266 28.572 911.5 28.416 911.68 28.236C911.86 28.056 912.01 27.804 912.13 27.48C912.262 27.144 912.358 26.856 912.418 26.616C912.478 26.364 912.52 26.034 912.544 25.626C912.58 25.206 912.598 24.9 912.598 24.708C912.61 24.504 912.616 24.21 912.616 23.826C912.616 23.406 912.616 23.106 912.616 22.926C912.616 22.746 912.598 22.434 912.562 21.99C912.526 21.546 912.478 21.204 912.418 20.964C912.37 20.724 912.28 20.43 912.148 20.082C912.016 19.734 911.86 19.47 911.68 19.29C911.5 19.11 911.266 18.954 910.978 18.822ZM919.99 17.238C920.758 17.238 921.412 17.382 921.952 17.67C922.504 17.946 922.924 18.288 923.212 18.696C923.5 19.104 923.728 19.638 923.896 20.298C924.064 20.946 924.166 21.534 924.202 22.062C924.238 22.578 924.256 23.202 924.256 23.934C924.256 24.606 924.226 25.212 924.166 25.752C924.118 26.292 924.004 26.856 923.824 27.444C923.656 28.032 923.422 28.524 923.122 28.92C922.822 29.304 922.414 29.622 921.898 29.874C921.382 30.126 920.77 30.252 920.062 30.252C919.318 30.252 918.67 30.126 918.118 29.874C917.578 29.61 917.158 29.286 916.858 28.902C916.558 28.518 916.318 28.032 916.138 27.444C915.97 26.844 915.862 26.28 915.814 25.752C915.766 25.212 915.742 24.594 915.742 23.898C915.742 23.298 915.754 22.776 915.778 22.332C915.814 21.888 915.874 21.39 915.958 20.838C916.054 20.274 916.198 19.8 916.39 19.416C916.582 19.02 916.828 18.648 917.128 18.3C917.428 17.952 917.818 17.688 918.298 17.508C918.79 17.328 919.354 17.238 919.99 17.238ZM920.98 18.822C920.692 18.678 920.362 18.606 919.99 18.606C919.618 18.606 919.288 18.678 919 18.822C918.712 18.954 918.478 19.11 918.298 19.29C918.118 19.47 917.962 19.74 917.83 20.1C917.698 20.448 917.602 20.742 917.542 20.982C917.494 21.222 917.452 21.57 917.416 22.026C917.38 22.47 917.362 22.788 917.362 22.98C917.362 23.16 917.362 23.466 917.362 23.898C917.362 24.318 917.368 24.666 917.38 24.942C917.392 25.218 917.422 25.578 917.47 26.022C917.518 26.466 917.602 26.838 917.722 27.138C917.842 27.426 917.992 27.72 918.172 28.02C918.352 28.308 918.598 28.53 918.91 28.686C919.234 28.83 919.606 28.902 920.026 28.902C920.386 28.902 920.704 28.836 920.98 28.704C921.268 28.572 921.502 28.416 921.682 28.236C921.862 28.056 922.012 27.804 922.132 27.48C922.264 27.144 922.36 26.856 922.42 26.616C922.48 26.364 922.522 26.034 922.546 25.626C922.582 25.206 922.6 24.9 922.6 24.708C922.612 24.504 922.618 24.21 922.618 23.826C922.618 23.406 922.618 23.106 922.618 22.926C922.618 22.746 922.6 22.434 922.564 21.99C922.528 21.546 922.48 21.204 922.42 20.964C922.372 20.724 922.282 20.43 922.15 20.082C922.018 19.734 921.862 19.47 921.682 19.29C921.502 19.11 921.268 18.954 920.98 18.822ZM929.992 17.238C930.76 17.238 931.414 17.382 931.954 17.67C932.506 17.946 932.926 18.288 933.214 18.696C933.502 19.104 933.73 19.638 933.898 20.298C934.066 20.946 934.168 21.534 934.204 22.062C934.24 22.578 934.258 23.202 934.258 23.934C934.258 24.606 934.228 25.212 934.168 25.752C934.12 26.292 934.006 26.856 933.826 27.444C933.658 28.032 933.424 28.524 933.124 28.92C932.824 29.304 932.416 29.622 931.9 29.874C931.384 30.126 930.772 30.252 930.064 30.252C929.32 30.252 928.672 30.126 928.12 29.874C927.58 29.61 927.16 29.286 926.86 28.902C926.56 28.518 926.32 28.032 926.14 27.444C925.972 26.844 925.864 26.28 925.816 25.752C925.768 25.212 925.744 24.594 925.744 23.898C925.744 23.298 925.756 22.776 925.78 22.332C925.816 21.888 925.876 21.39 925.96 20.838C926.056 20.274 926.2 19.8 926.392 19.416C926.584 19.02 926.83 18.648 927.13 18.3C927.43 17.952 927.82 17.688 928.3 17.508C928.792 17.328 929.356 17.238 929.992 17.238ZM930.982 18.822C930.694 18.678 930.364 18.606 929.992 18.606C929.62 18.606 929.29 18.678 929.002 18.822C928.714 18.954 928.48 19.11 928.3 19.29C928.12 19.47 927.964 19.74 927.832 20.1C927.7 20.448 927.604 20.742 927.544 20.982C927.496 21.222 927.454 21.57 927.418 22.026C927.382 22.47 927.364 22.788 927.364 22.98C927.364 23.16 927.364 23.466 927.364 23.898C927.364 24.318 927.37 24.666 927.382 24.942C927.394 25.218 927.424 25.578 927.472 26.022C927.52 26.466 927.604 26.838 927.724 27.138C927.844 27.426 927.994 27.72 928.174 28.02C928.354 28.308 928.6 28.53 928.912 28.686C929.236 28.83 929.608 28.902 930.028 28.902C930.388 28.902 930.706 28.836 930.982 28.704C931.27 28.572 931.504 28.416 931.684 28.236C931.864 28.056 932.014 27.804 932.134 27.48C932.266 27.144 932.362 26.856 932.422 26.616C932.482 26.364 932.524 26.034 932.548 25.626C932.584 25.206 932.602 24.9 932.602 24.708C932.614 24.504 932.62 24.21 932.62 23.826C932.62 23.406 932.62 23.106 932.62 22.926C932.62 22.746 932.602 22.434 932.566 21.99C932.53 21.546 932.482 21.204 932.422 20.964C932.374 20.724 932.284 20.43 932.152 20.082C932.02 19.734 931.864 19.47 931.684 19.29C931.504 19.11 931.27 18.954 930.982 18.822ZM942.61 20.712V22.026C943.282 20.958 944.326 20.424 945.742 20.424C947.038 20.424 948.064 20.862 948.82 21.738C949.588 22.614 949.972 23.802 949.972 25.302C949.972 26.802 949.594 28.002 948.838 28.902C948.094 29.79 947.086 30.234 945.814 30.234C944.482 30.234 943.444 29.724 942.7 28.704V33.582H941.17V20.712H942.61ZM945.508 21.702C944.62 21.702 943.918 22.026 943.402 22.674C942.898 23.31 942.646 24.192 942.646 25.32C942.646 26.448 942.904 27.336 943.42 27.984C943.948 28.62 944.662 28.938 945.562 28.938C946.438 28.938 947.128 28.614 947.632 27.966C948.136 27.318 948.388 26.436 948.388 25.32C948.388 24.192 948.13 23.31 947.614 22.674C947.11 22.026 946.408 21.702 945.508 21.702ZM954.18 28.002V30H952.182V28.002H954.18Z" fill="black"/>
</svg>
