<svg width="1030" height="100" viewBox="0 0 1030 100" fill="none" xmlns="http://www.w3.org/2000/svg">
<path d="M0 97.1043V2.26444H12.6138V86.1817H55.0175V2.26444H67.6313V86.1817H110.035V2.26444H122.649V97.1043H0Z" fill="black"/>
<path d="M164.63 100C160.351 100 156.656 99.2761 153.545 97.8282C150.53 96.4769 148.051 94.5464 146.106 92.0368C144.161 89.5272 142.703 86.5833 141.73 83.205C140.758 79.8266 140.272 76.1105 140.272 72.0565C140.272 67.1338 141.001 61.9216 142.46 56.4198C144.015 50.9179 146.155 45.5126 148.877 40.2039C151.6 34.8951 154.857 29.8276 158.65 25.0014C162.442 20.0788 166.575 15.7835 171.048 12.1156C175.618 8.44772 180.48 5.55202 185.633 3.42851C190.787 1.20847 196.087 0.0984555 201.532 0.0984555C205.713 0.0984555 209.36 0.822379 212.471 2.27023C215.583 3.62155 218.111 5.55202 220.056 8.06162C222.001 10.5712 223.459 13.5152 224.432 16.8935C225.404 20.2718 225.89 23.988 225.89 28.0419C225.89 32.9646 225.112 38.1769 223.556 43.6787C222.098 49.1805 220.007 54.5858 217.285 59.8946C214.562 65.2034 211.304 70.3191 207.512 75.2418C203.72 80.0679 199.539 84.315 194.968 87.9829C190.495 91.6507 185.682 94.5947 180.528 96.8147C175.375 98.9382 170.075 100 164.63 100ZM170.464 95.3669C174.84 95.3669 178.924 94.0638 182.716 91.4577C186.509 88.755 189.912 85.2802 192.926 81.0332C196.038 76.7862 198.761 72.0565 201.094 66.8443C203.525 61.5355 205.567 56.275 207.22 51.0627C208.873 45.7539 210.089 40.783 210.867 36.1499C211.742 31.4202 212.18 27.5593 212.18 24.5671C212.18 21.7679 211.888 19.1135 211.304 16.6039C210.818 14.0943 209.943 11.9226 208.679 10.0886C207.415 8.15814 205.665 6.66203 203.428 5.60028C201.289 4.442 198.566 3.86286 195.26 3.86286C190.982 3.86286 186.946 5.21418 183.154 7.91683C179.459 10.523 176.055 13.9495 172.944 18.1966C169.929 22.4436 167.207 27.2215 164.776 32.5303C162.442 37.7425 160.449 43.003 158.796 48.3118C157.24 53.5241 156.024 58.495 155.149 63.2246C154.371 67.8578 153.982 71.6704 153.982 74.6627C153.982 77.4618 154.225 80.1162 154.712 82.6258C155.295 85.1354 156.17 87.3555 157.337 89.2859C158.601 91.1199 160.303 92.616 162.442 93.7743C164.581 94.836 167.255 95.3669 170.464 95.3669Z" fill="black"/>
<path d="M316.158 2.26444L275.902 40.3602L317.769 97.1043H301.666L267.045 48.8852L251.211 63.8038V97.1043H238.597V2.26444H251.211V49.2848L299.653 2.26444H316.158Z" fill="black"/>
<path d="M363.123 54.4796V65.6686H324.074V54.4796H363.123Z" fill="black"/>
<path d="M461.172 61.2729C460.098 73.2611 455.893 82.6297 448.558 89.3786C441.312 96.0387 431.739 99.3687 419.841 99.3687C406.243 99.3687 395.464 94.9287 387.502 86.0485C379.54 77.0796 375.559 65.0026 375.559 49.8176C375.559 35.6093 379.54 23.7988 387.502 14.3858C395.553 4.88407 406.646 0.1332 420.781 0.1332C430.89 0.1332 439.791 2.84164 447.484 8.25852C455.178 13.6754 459.472 21.1791 460.366 30.7697H447.753C446.321 24.5536 443.19 19.7139 438.359 16.2506C433.529 12.6986 427.58 10.9226 420.512 10.9226C409.867 10.9226 401.815 14.6522 396.358 22.1115C390.991 29.5709 388.307 38.7618 388.307 49.6844C388.307 61.7614 391.17 71.2631 396.895 78.1896C402.62 85.1161 410.448 88.5794 420.378 88.5794C428.519 88.5794 435.005 86.2705 439.835 81.6529C444.666 76.9464 447.574 70.1531 448.558 61.2729H461.172Z" fill="black"/>
<path d="M517.354 0C531.846 0 543.118 4.52887 551.169 13.5866C559.221 22.5555 563.246 34.3217 563.246 48.8852C563.246 63.5374 559.265 75.6144 551.304 85.1161C543.342 94.6179 532.07 99.3687 517.488 99.3687C510.063 99.3687 503.398 98.0367 497.494 95.3727C491.589 92.7086 486.759 89.0234 483.001 84.3169C479.334 79.6104 476.516 74.2379 474.547 68.1995C472.669 62.161 471.729 55.6341 471.729 48.6188C471.729 33.7889 475.845 21.9783 484.075 13.187C492.395 4.39567 503.488 0 517.354 0ZM517.354 10.9226C506.708 10.9226 498.523 14.6522 492.797 22.1115C487.161 29.4821 484.343 38.6286 484.343 49.5512C484.343 61.4506 487.34 70.9523 493.334 78.0564C499.417 85.0717 507.513 88.5794 517.622 88.5794C527.642 88.5794 535.648 85.0273 541.642 77.9232C547.636 70.8191 550.633 61.3617 550.633 49.5512C550.633 37.8294 547.591 28.4608 541.508 21.4455C535.514 14.4302 527.463 10.9226 517.354 10.9226Z" fill="black"/>
<path d="M591.663 40.6266H623.6C632.993 40.6266 640.239 43.1131 645.339 48.0859C650.438 53.0588 652.987 60.0297 652.987 68.9987C652.987 77.8788 650.393 84.8053 645.204 89.7782C640.105 94.6623 632.904 97.1043 623.6 97.1043H579.049V2.26444H644.534V13.187H591.663V40.6266ZM640.374 68.9987C640.374 57.3657 633.396 51.5492 619.44 51.5492H591.663V86.1817H619.44C633.396 86.1817 640.374 80.454 640.374 68.9987Z" fill="black"/>
<path d="M754.108 2.26444H766.722V97.1043H754.108V2.26444ZM742.166 68.9987C742.166 77.8788 739.571 84.8053 734.383 89.7782C729.283 94.6623 722.082 97.1043 712.778 97.1043H670.911V2.26444H683.525V40.7598H712.778C722.171 40.7598 729.418 43.2463 734.517 48.2191C739.616 53.1032 742.166 60.0297 742.166 68.9987ZM729.418 68.9987C729.418 57.3657 722.44 51.5492 708.484 51.5492H683.525V86.1817H708.484C722.44 86.1817 729.418 80.454 729.418 68.9987Z" fill="black"/>
<path d="M854.092 2.26444V13.187H822.021V97.1043H809.407V13.187H777.336V2.26444H854.092Z" fill="black"/>
<path d="M864.856 97.1043V2.26444H877.47V82.5853H877.738L924.57 2.26444H940.539V97.1043H927.925V16.5171H927.657L880.691 97.1043H864.856Z" fill="black"/>
<path d="M997.66 56.6109L966.126 97.1043H950.56L982.497 56.2113C974.893 55.2345 969.033 52.4816 964.918 47.9527C960.803 43.4239 958.746 37.2522 958.746 29.4377C958.746 20.6463 961.385 13.9418 966.663 9.32414C972.03 4.61767 979.455 2.26444 988.938 2.26444H1030V97.1043H1017.39V56.6109H997.66ZM1017.39 45.9547V12.9206H993.232C978.74 12.9206 971.494 18.4263 971.494 29.4377C971.494 40.449 978.74 45.9547 993.232 45.9547H1017.39Z" fill="black"/>
</svg>
