<svg width="164" height="17" viewBox="0 0 164 17" fill="none" xmlns="http://www.w3.org/2000/svg">
<path d="M0.658203 16.0004V1.04841H2.6322V14.2784H9.2682V1.04841H11.2422V14.2784H17.8782V1.04841H19.8522V16.0004H0.658203Z" fill="black"/>
<path d="M29.4963 0.691406C31.7643 0.691406 33.5283 1.40541 34.7883 2.83341C36.0483 4.24741 36.6783 6.10241 36.6783 8.39841C36.6783 10.7084 36.0553 12.6124 34.8093 14.1104C33.5633 15.6084 31.7993 16.3574 29.5173 16.3574C28.3553 16.3574 27.3123 16.1474 26.3883 15.7274C25.4643 15.3074 24.7083 14.7264 24.1203 13.9844C23.5463 13.2424 23.1053 12.3954 22.7973 11.4434C22.5033 10.4914 22.3563 9.46241 22.3563 8.35641C22.3563 6.01841 23.0003 4.15641 24.2883 2.77041C25.5903 1.38441 27.3263 0.691406 29.4963 0.691406ZM29.4963 2.41341C27.8303 2.41341 26.5493 3.00141 25.6533 4.17741C24.7713 5.33941 24.3303 6.78141 24.3303 8.50341C24.3303 10.3794 24.7993 11.8774 25.7373 12.9974C26.6893 14.1034 27.9563 14.6564 29.5383 14.6564C31.1063 14.6564 32.3593 14.0964 33.2973 12.9764C34.2353 11.8564 34.7043 10.3654 34.7043 8.50341C34.7043 6.65541 34.2283 5.17841 33.2763 4.07241C32.3383 2.96641 31.0783 2.41341 29.4963 2.41341Z" fill="black"/>
<path d="M51.2894 1.04841L44.9894 7.05441L51.5414 16.0004H49.0214L43.6034 8.39841L41.1254 10.7504V16.0004H39.1514V1.04841H41.1254V8.46141L48.7064 1.04841H51.2894Z" fill="black"/>
<path d="M58.6392 9.28041V11.0444H52.5282V9.28041H58.6392Z" fill="black"/>
<path d="M73.9833 10.3514C73.8153 12.2414 73.1573 13.7184 72.0093 14.7824C70.8753 15.8324 69.3773 16.3574 67.5153 16.3574C65.3873 16.3574 63.7003 15.6574 62.4543 14.2574C61.2083 12.8434 60.5853 10.9394 60.5853 8.54541C60.5853 6.30541 61.2083 4.44341 62.4543 2.95941C63.7143 1.46141 65.4503 0.712406 67.6623 0.712406C69.2443 0.712406 70.6373 1.13941 71.8413 1.99341C73.0453 2.84741 73.7173 4.03041 73.8573 5.54241H71.8833C71.6593 4.56241 71.1693 3.79941 70.4133 3.25341C69.6573 2.69341 68.7263 2.41341 67.6203 2.41341C65.9543 2.41341 64.6943 3.00141 63.8403 4.17741C63.0003 5.35341 62.5803 6.80241 62.5803 8.52441C62.5803 10.4284 63.0283 11.9264 63.9243 13.0184C64.8203 14.1104 66.0453 14.6564 67.5993 14.6564C68.8733 14.6564 69.8883 14.2924 70.6443 13.5644C71.4003 12.8224 71.8553 11.7514 72.0093 10.3514H73.9833Z" fill="black"/>
<path d="M82.7756 0.691406C85.0436 0.691406 86.8076 1.40541 88.0676 2.83341C89.3276 4.24741 89.9576 6.10241 89.9576 8.39841C89.9576 10.7084 89.3346 12.6124 88.0886 14.1104C86.8426 15.6084 85.0786 16.3574 82.7966 16.3574C81.6346 16.3574 80.5916 16.1474 79.6676 15.7274C78.7436 15.3074 77.9876 14.7264 77.3996 13.9844C76.8256 13.2424 76.3846 12.3954 76.0766 11.4434C75.7826 10.4914 75.6356 9.46241 75.6356 8.35641C75.6356 6.01841 76.2796 4.15641 77.5676 2.77041C78.8696 1.38441 80.6056 0.691406 82.7756 0.691406ZM82.7756 2.41341C81.1096 2.41341 79.8286 3.00141 78.9326 4.17741C78.0506 5.33941 77.6096 6.78141 77.6096 8.50341C77.6096 10.3794 78.0786 11.8774 79.0166 12.9974C79.9686 14.1034 81.2356 14.6564 82.8176 14.6564C84.3856 14.6564 85.6386 14.0964 86.5766 12.9764C87.5146 11.8564 87.9836 10.3654 87.9836 8.50341C87.9836 6.65541 87.5076 5.17841 86.5556 4.07241C85.6176 2.96641 84.3576 2.41341 82.7756 2.41341Z" fill="black"/>
<path d="M94.4047 7.09641H99.4027C100.873 7.09641 102.007 7.48841 102.805 8.27241C103.603 9.05641 104.002 10.1554 104.002 11.5694C104.002 12.9694 103.596 14.0614 102.784 14.8454C101.986 15.6154 100.859 16.0004 99.4027 16.0004H92.4307V1.04841H102.679V2.77041H94.4047V7.09641ZM102.028 11.5694C102.028 9.73541 100.936 8.81841 98.7517 8.81841H94.4047V14.2784H98.7517C100.936 14.2784 102.028 13.3754 102.028 11.5694Z" fill="black"/>
<path d="M119.827 1.04841H121.801V16.0004H119.827V1.04841ZM117.958 11.5694C117.958 12.9694 117.552 14.0614 116.74 14.8454C115.942 15.6154 114.815 16.0004 113.359 16.0004H106.807V1.04841H108.781V7.11741H113.359C114.829 7.11741 115.963 7.50941 116.761 8.29341C117.559 9.06341 117.958 10.1554 117.958 11.5694ZM115.963 11.5694C115.963 9.73541 114.871 8.81841 112.687 8.81841H108.781V14.2784H112.687C114.871 14.2784 115.963 13.3754 115.963 11.5694Z" fill="black"/>
<path d="M135.474 1.04841V2.77041H130.455V16.0004H128.481V2.77041H123.462V1.04841H135.474Z" fill="black"/>
<path d="M137.158 16.0004V1.04841H139.132V13.7114H139.174L146.503 1.04841H149.002V16.0004H147.028V3.29541H146.986L139.636 16.0004H137.158Z" fill="black"/>
<path d="M157.941 9.61641L153.006 16.0004H150.57L155.568 9.55341C154.378 9.39941 153.461 8.96541 152.817 8.25141C152.173 7.53741 151.851 6.56441 151.851 5.33241C151.851 3.94641 152.264 2.88941 153.09 2.16141C153.93 1.41941 155.092 1.04841 156.576 1.04841H163.002V16.0004H161.028V9.61641H157.941ZM161.028 7.93641V2.72841H157.248C154.98 2.72841 153.846 3.59641 153.846 5.33241C153.846 7.06841 154.98 7.93641 157.248 7.93641H161.028Z" fill="black"/>
</svg>
