<svg width="314" height="275" viewBox="0 0 314 275" fill="none" xmlns="http://www.w3.org/2000/svg">
<path d="M2 24.067V0.561233H5.06719V21.3598H15.3782V0.561233H18.4454V21.3598H28.7564V0.561233H31.8236V24.067H2Z" fill="black"/>
<path d="M46.8085 0C50.3325 0 53.0734 1.12247 55.0312 3.36739C56.989 5.59032 57.9679 8.50652 57.9679 12.116C57.9679 15.7475 56.9998 18.7408 55.0638 21.0957C53.1278 23.4507 50.3869 24.6282 46.8411 24.6282C45.0356 24.6282 43.415 24.2981 41.9793 23.6378C40.5436 22.9775 39.3689 22.0641 38.4553 20.8977C37.5634 19.7312 36.8782 18.3996 36.3996 16.903C35.9428 15.4064 35.7144 13.7887 35.7144 12.05C35.7144 8.37447 36.715 5.44726 38.7163 3.26835C40.7394 1.08945 43.4368 0 46.8085 0ZM46.8085 2.70712C44.2199 2.70712 42.2295 3.6315 40.8373 5.48027C39.4668 7.30703 38.7816 9.57397 38.7816 12.2811C38.7816 15.2303 39.5103 17.5853 40.9678 19.346C42.447 21.0847 44.4157 21.9541 46.8738 21.9541C49.3101 21.9541 51.257 21.0737 52.7145 19.313C54.1719 17.5523 54.9007 15.2083 54.9007 12.2811C54.9007 9.37588 54.1611 7.05392 52.6818 5.3152C51.2244 3.57648 49.2666 2.70712 46.8085 2.70712Z" fill="black"/>
<path d="M80.6705 0.561233L70.8816 10.0031L81.062 24.067H77.1465L68.728 12.116L64.8777 15.8136V24.067H61.8105V0.561233H64.8777V12.2151L76.657 0.561233H80.6705Z" fill="black"/>
<path d="M111.516 0.561233L101.727 10.0031L111.907 24.067H107.992L99.5733 12.116L95.723 15.8136V24.067H92.6558V0.561233H95.723V12.2151L107.502 0.561233H111.516Z" fill="black"/>
<path d="M123.635 0C127.159 0 129.9 1.12247 131.858 3.36739C133.815 5.59032 134.794 8.50652 134.794 12.116C134.794 15.7475 133.826 18.7408 131.89 21.0957C129.954 23.4507 127.213 24.6282 123.668 24.6282C121.862 24.6282 120.241 24.2981 118.806 23.6378C117.37 22.9775 116.195 22.0641 115.282 20.8977C114.39 19.7312 113.705 18.3996 113.226 16.903C112.769 15.4064 112.541 13.7887 112.541 12.05C112.541 8.37447 113.541 5.44726 115.543 3.26835C117.566 1.08945 120.263 0 123.635 0ZM123.635 2.70712C121.046 2.70712 119.056 3.6315 117.664 5.48027C116.293 7.30703 115.608 9.57397 115.608 12.2811C115.608 15.2303 116.337 17.5853 117.794 19.346C119.273 21.0847 121.242 21.9541 123.7 21.9541C126.137 21.9541 128.083 21.0737 129.541 19.313C130.998 17.5523 131.727 15.2083 131.727 12.2811C131.727 9.37588 130.987 7.05392 129.508 5.3152C128.051 3.57648 126.093 2.70712 123.635 2.70712Z" fill="black"/>
<path d="M157.04 0.561233V24.067H153.973V13.0734H141.704V24.067H138.637V0.561233H141.704V10.3663H153.973V0.561233H157.04Z" fill="black"/>
<path d="M178.304 0.561233V3.26835H170.506V24.067H167.438V3.26835H159.64V0.561233H178.304Z" fill="black"/>
<path d="M197.008 0.561233V3.26835H183.989V10.6304H196.16V13.2385H183.989V21.3598H197.171V24.067H180.922V0.561233H197.008Z" fill="black"/>
<path d="M219.272 0.561233V24.067H216.205V13.0734H203.936V24.067H200.869V0.561233H203.936V10.3663H216.205V0.561233H219.272Z" fill="black"/>
<path d="M240.536 0.561233V3.26835H232.738V24.067H229.671V3.26835H221.872V0.561233H240.536Z" fill="black"/>
<path d="M246.352 0.561233V7.75821L245.536 18.2236H244.035L243.284 7.75821V0.561233H246.352ZM246.515 20.7326V24.067H243.089V20.7326H246.515Z" fill="black"/>
<path d="M254.796 0.561233V7.75821L253.98 18.2236H252.479L251.729 7.75821V0.561233H254.796ZM254.959 20.7326V24.067H251.533V20.7326H254.959Z" fill="black"/>
<path d="M263.24 0.561233V7.75821L262.424 18.2236H260.923L260.173 7.75821V0.561233H263.24ZM263.403 20.7326V24.067H259.977V20.7326H263.403Z" fill="black"/>
<path d="M20.4032 35.933V59.4388H17.336V48.4452H5.06719V59.4388H2V35.933H5.06719V45.7381H17.336V35.933H20.4032Z" fill="black"/>
<path d="M35.3045 35.933L44.3755 59.4388H40.9494L38.3717 52.2418H28.6154L25.9724 59.4388H22.7094L31.8457 35.933H35.3045ZM37.458 49.7658L33.5099 38.9043L29.4964 49.7658H37.458Z" fill="black"/>
<path d="M58.8552 59.4388H55.788V35.933H71.0587V38.6401H58.8552V59.4388Z" fill="black"/>
<path d="M73.7629 35.933H83.3234C85.6945 35.933 87.5762 36.4833 88.9684 37.5837C90.3606 38.6622 91.0567 40.3679 91.0567 42.7008C91.0567 47.4328 88.4137 49.7988 83.1277 49.7988H76.8301V59.4388H73.7629V35.933ZM76.8301 38.6071V47.1907H82.7361C84.3893 47.1907 85.6728 46.8826 86.5864 46.2663C87.5218 45.628 87.9895 44.5056 87.9895 42.8989C87.9895 41.9965 87.8372 41.2482 87.5327 40.654C87.2499 40.0597 86.8257 39.6196 86.2601 39.3334C85.6945 39.0473 85.1072 38.8602 84.4981 38.7722C83.889 38.6622 83.1603 38.6071 82.3119 38.6071H76.8301Z" fill="black"/>
<path d="M102.125 35.933L111.196 59.4388H107.77L105.192 52.2418H95.4362L92.7932 59.4388H89.5302L98.6665 35.933H102.125ZM104.279 49.7658L100.331 38.9043L96.3172 49.7658H104.279Z" fill="black"/>
<path d="M131.93 35.933V59.4388H128.863V48.4452H116.595V59.4388H113.527V35.933H116.595V45.7381H128.863V35.933H131.93Z" fill="black"/>
<path d="M137.076 59.4388V35.933H140.143V55.8403H140.208L151.596 35.933H155.479V59.4388H152.411V39.4655H152.346L140.926 59.4388H137.076Z" fill="black"/>
<path d="M189.381 50.5581C189.12 53.5293 188.098 55.8513 186.314 57.524C184.552 59.1747 182.224 60 179.331 60C176.025 60 173.403 58.8995 171.467 56.6986C169.531 54.4757 168.563 51.4825 168.563 47.7189C168.563 44.1975 169.531 41.2702 171.467 38.9373C173.425 36.5823 176.122 35.4048 179.559 35.4048C182.018 35.4048 184.182 36.0761 186.053 37.4186C187.924 38.7612 188.968 40.621 189.185 42.998H186.118C185.77 41.4573 185.009 40.2578 183.834 39.3995C182.659 38.5191 181.213 38.0789 179.494 38.0789C176.906 38.0789 174.948 39.0033 173.621 40.8521C172.316 42.7008 171.663 44.9788 171.663 47.6859C171.663 50.6791 172.359 53.0341 173.751 54.7508C175.144 56.4675 177.047 57.3259 179.462 57.3259C181.441 57.3259 183.018 56.7537 184.193 55.6092C185.368 54.4427 186.074 52.759 186.314 50.5581H189.381Z" fill="black"/>
<path d="M193.384 35.933H202.944C205.316 35.933 207.197 36.4833 208.589 37.5837C209.982 38.6622 210.678 40.3679 210.678 42.7008C210.678 47.4328 208.035 49.7988 202.749 49.7988H196.451V59.4388H193.384V35.933ZM196.451 38.6071V47.1907H202.357C204.01 47.1907 205.294 46.8826 206.207 46.2663C207.143 45.628 207.611 44.5056 207.611 42.8989C207.611 41.9965 207.458 41.2482 207.154 40.654C206.871 40.0597 206.447 39.6196 205.881 39.3334C205.316 39.0473 204.728 38.8602 204.119 38.7722C203.51 38.6622 202.781 38.6071 201.933 38.6071H196.451Z" fill="black"/>
<path d="M234.642 35.933H237.709V59.4388H234.642V35.933ZM231.738 52.4729C231.738 54.6738 231.107 56.3905 229.846 57.623C228.606 58.8335 226.855 59.4388 224.592 59.4388H214.412V35.933H217.479V45.474H224.592C226.876 45.474 228.638 46.0902 229.878 47.3228C231.118 48.5332 231.738 50.25 231.738 52.4729ZM228.638 52.4729C228.638 49.5897 226.942 48.1481 223.548 48.1481H217.479V56.7316H223.548C226.942 56.7316 228.638 55.3121 228.638 52.4729Z" fill="black"/>
<path d="M242.835 35.933H252.755C254.887 35.933 256.649 36.4062 258.041 37.3526C259.455 38.299 260.162 39.7846 260.162 41.8095C260.162 42.9759 259.846 44.0214 259.215 44.9458C258.606 45.8481 257.78 46.4864 256.736 46.8606C258.171 47.1907 259.27 47.873 260.031 48.9074C260.814 49.9418 261.206 51.2404 261.206 52.803C261.206 57.2268 258.269 59.4388 252.396 59.4388H242.835V35.933ZM245.837 38.5741V46.0022H251.352C251.983 46.0022 252.515 45.9912 252.951 45.9692C253.407 45.9252 253.919 45.8371 254.484 45.7051C255.05 45.573 255.496 45.3859 255.822 45.1438C256.17 44.8797 256.464 44.5056 256.703 44.0214C256.964 43.5372 257.095 42.9539 257.095 42.2717C257.095 41.5894 256.986 41.0171 256.768 40.5549C256.551 40.0707 256.29 39.7076 255.985 39.4655C255.681 39.2014 255.256 39.0033 254.713 38.8712C254.19 38.7392 253.712 38.6622 253.277 38.6401C252.864 38.5961 252.32 38.5741 251.645 38.5741H245.837ZM245.837 48.4452V56.8307H251.972C252.733 56.8307 253.353 56.8197 253.832 56.7977C254.31 56.7537 254.843 56.6546 255.43 56.5005C256.039 56.3465 256.518 56.1264 256.866 55.8403C257.214 55.5321 257.508 55.103 257.747 54.5527C257.986 53.9805 258.106 53.2982 258.106 52.5059C258.106 51.8456 258.019 51.2734 257.845 50.7892C257.693 50.305 257.421 49.9198 257.029 49.6337C256.659 49.3476 256.301 49.1165 255.952 48.9404C255.626 48.7643 255.148 48.6433 254.517 48.5773C253.886 48.5112 253.396 48.4782 253.048 48.4782C252.7 48.4562 252.167 48.4452 251.45 48.4452H245.837Z" fill="black"/>
<path d="M274.929 35.933L284 59.4388H280.574L277.996 52.2418H268.24L265.597 59.4388H262.334L271.47 35.933H274.929ZM277.082 49.7658L273.134 38.9043L269.121 49.7658H277.082Z" fill="black"/>
<path d="M14.1837 188.923C14.1837 191.296 13.5275 193.203 12.2149 194.643C10.9024 196.084 9.23001 196.804 7.19772 196.804C5.40534 196.804 3.93757 196.317 2.79441 195.343C1.66535 194.354 0.973809 192.977 0.719772 191.211H2.7309C2.95671 192.468 3.44361 193.429 4.19161 194.093C4.93961 194.756 5.91342 195.088 7.11304 195.088C8.55258 195.088 9.73103 194.58 10.6484 193.563C11.5799 192.532 12.0879 191.134 12.1726 189.368H4.84787V187.695H12.0879C11.9045 186.24 11.4034 185.053 10.5849 184.135C9.76631 183.203 8.62315 182.737 7.15538 182.737C6.05455 182.737 5.11602 183.006 4.3398 183.542C3.57769 184.079 3.07667 184.813 2.83675 185.746H0.82562C0.938526 184.757 1.31252 183.895 1.94762 183.161C2.59682 182.426 3.36599 181.89 4.25512 181.551C5.15836 181.198 6.111 181.021 7.11304 181.021C9.38526 181.021 11.1282 181.77 12.342 183.267C13.5698 184.75 14.1837 186.635 14.1837 188.923Z" fill="black"/>
<path d="M26.2437 196.444H23.9574L19.9775 191.063L18.2627 192.737V196.444H16.4633V185.513H18.2627V190.724L23.2588 185.513H25.6721L21.2688 189.813L26.2437 196.444Z" fill="black"/>
<path d="M28.3089 186.762C29.2686 185.717 30.5741 185.195 32.2253 185.195C33.8766 185.195 35.1609 185.696 36.0782 186.699C36.9956 187.702 37.4543 189.107 37.4543 190.915C37.4543 192.765 36.9956 194.206 36.0782 195.237C35.1609 196.268 33.8695 196.783 32.2042 196.783C30.5388 196.783 29.2333 196.275 28.2877 195.258C27.3422 194.241 26.8694 192.829 26.8694 191.021C26.8694 189.227 27.3492 187.808 28.3089 186.762ZM34.681 187.864C34.0741 187.087 33.2415 186.699 32.183 186.699C31.1245 186.699 30.2848 187.087 29.6638 187.864C29.0428 188.641 28.7323 189.679 28.7323 190.978C28.7323 192.32 29.0357 193.372 29.6426 194.135C30.2636 194.884 31.1245 195.258 32.2253 195.258C33.2838 195.258 34.1094 194.876 34.7022 194.114C35.309 193.351 35.6125 192.299 35.6125 190.957C35.6125 189.658 35.302 188.627 34.681 187.864Z" fill="black"/>
<path d="M48.1832 185.513V196.444H46.3837V187.101H42.4885L42.3403 191.932C42.298 193.598 41.9946 194.806 41.43 195.554C40.8655 196.303 40.1598 196.677 39.3131 196.677C38.7909 196.677 38.3604 196.6 38.0217 196.444V194.982C38.2052 195.081 38.5227 195.131 38.9743 195.131C39.3977 195.131 39.7576 194.905 40.054 194.453C40.3645 193.987 40.5338 193.21 40.5621 192.122L40.7526 185.513H48.1832Z" fill="black"/>
<path d="M51.7114 186.762C52.6711 185.717 53.9766 185.195 55.6278 185.195C57.2791 185.195 58.5634 185.696 59.4807 186.699C60.3981 187.702 60.8567 189.107 60.8567 190.915C60.8567 192.765 60.3981 194.206 59.4807 195.237C58.5634 196.268 57.272 196.783 55.6066 196.783C53.9413 196.783 52.6358 196.275 51.6902 195.258C50.7447 194.241 50.2719 192.829 50.2719 191.021C50.2719 189.227 50.7517 187.808 51.7114 186.762ZM58.0835 187.864C57.4766 187.087 56.644 186.699 55.5855 186.699C54.527 186.699 53.6873 187.087 53.0663 187.864C52.4453 188.641 52.1348 189.679 52.1348 190.978C52.1348 192.32 52.4382 193.372 53.0451 194.135C53.6661 194.884 54.527 195.258 55.6278 195.258C56.6863 195.258 57.5119 194.876 58.1047 194.114C58.7115 193.351 59.015 192.299 59.015 190.957C59.015 189.658 58.7045 188.627 58.0835 187.864Z" fill="black"/>
<path d="M70.536 187.101H64.8413V196.444H63.0419V185.513H70.536V187.101Z" fill="black"/>
<path d="M74.1967 196.444H71.8892V185.513H73.6886V194.432H73.7309L78.6423 185.513H80.9498V196.444H79.1504V187.525H79.1081L74.1967 196.444Z" fill="black"/>
<path d="M90.5606 183.987C91.0404 183.239 91.619 182.688 92.2965 182.335C92.9739 181.967 93.8348 181.749 94.8792 181.678C96.0506 181.593 96.7633 181.48 97.0173 181.339C97.1867 181.254 97.3137 181.141 97.3984 181H99.1978C99.1555 181.226 99.092 181.431 99.0073 181.614C98.9367 181.798 98.852 181.96 98.7532 182.102C98.6686 182.229 98.5416 182.349 98.3722 182.462C98.2169 182.575 98.0829 182.674 97.97 182.758C97.8571 182.829 97.6877 182.9 97.4619 182.97C97.2502 183.027 97.0808 183.076 96.9538 183.119C96.8268 183.147 96.6292 183.175 96.3611 183.203C96.107 183.232 95.9236 183.253 95.8107 183.267C95.6977 183.281 95.4931 183.295 95.1967 183.309C94.9004 183.323 94.7098 183.337 94.6252 183.352C93.4679 183.436 92.5646 183.888 91.9154 184.707C91.2662 185.513 90.8569 186.593 90.6876 187.949H90.7511C91.0616 187.2 91.5555 186.6 92.233 186.148C92.9104 185.696 93.6937 185.47 94.5828 185.47C96.1353 185.47 97.349 185.964 98.224 186.953C99.1131 187.928 99.5577 189.298 99.5577 191.063C99.5577 192.885 99.1061 194.297 98.2028 195.3C97.3137 196.303 96.0576 196.804 94.4346 196.804C93.108 196.804 91.986 196.416 91.0686 195.639C90.1513 194.848 89.5867 193.718 89.375 192.249C89.2904 191.656 89.248 190.992 89.248 190.258C89.248 187.419 89.6855 185.329 90.5606 183.987ZM91.0898 191.127C91.0898 192.37 91.3862 193.372 91.9789 194.135C92.5858 194.898 93.4114 195.279 94.4558 195.279C95.4719 195.279 96.2693 194.912 96.848 194.177C97.4266 193.443 97.7159 192.419 97.7159 191.105C97.7159 189.82 97.4196 188.81 96.8268 188.076C96.234 187.342 95.4296 186.974 94.4135 186.974C93.3973 186.974 92.5858 187.349 91.9789 188.097C91.3862 188.832 91.0898 189.841 91.0898 191.127Z" fill="black"/>
<path d="M109.914 190.597C110.564 191.19 110.888 192.002 110.888 193.033C110.888 194.064 110.571 194.891 109.936 195.512C109.315 196.133 108.475 196.444 107.416 196.444H101.637V185.513H103.436V189.686H107.332C108.404 189.686 109.265 189.99 109.914 190.597ZM106.76 191.233H103.436V194.855H106.76C107.494 194.855 108.051 194.7 108.432 194.389C108.828 194.064 109.025 193.612 109.025 193.033C109.025 191.833 108.27 191.233 106.76 191.233Z" fill="black"/>
<path d="M121.739 185.195C123.334 185.195 124.568 185.696 125.444 186.699C126.319 187.702 126.756 189.107 126.756 190.915C126.756 192.765 126.311 194.206 125.422 195.237C124.547 196.268 123.312 196.783 121.718 196.783C120.179 196.783 118.959 196.317 118.055 195.385C117.152 194.439 116.665 193.125 116.595 191.444H114.478V196.444H112.678V185.513H114.478V189.856H116.679C116.877 188.401 117.42 187.264 118.309 186.445C119.198 185.611 120.342 185.195 121.739 185.195ZM124.046 187.864C123.468 187.087 122.684 186.699 121.696 186.699C120.709 186.699 119.918 187.087 119.325 187.864C118.747 188.641 118.457 189.679 118.457 190.978C118.457 192.32 118.747 193.372 119.325 194.135C119.904 194.884 120.709 195.258 121.739 195.258C122.727 195.258 123.503 194.876 124.067 194.114C124.632 193.351 124.914 192.299 124.914 190.957C124.914 189.658 124.625 188.627 124.046 187.864Z" fill="black"/>
<path d="M136.876 187.101H132.96V196.444H131.16V187.101H127.244V185.513H136.876V187.101Z" fill="black"/>
<path d="M152.567 187.101H148.651V196.444H146.852V187.101H142.935V185.513H152.567V187.101Z" fill="black"/>
<path d="M155.698 185.513V187.059C156.489 185.802 157.716 185.174 159.382 185.174C160.906 185.174 162.113 185.689 163.002 186.72C163.905 187.751 164.357 189.149 164.357 190.915C164.357 192.68 163.912 194.093 163.023 195.152C162.148 196.197 160.962 196.72 159.466 196.72C157.9 196.72 156.679 196.119 155.804 194.919V200.66H154.005V185.513H155.698ZM159.107 186.678C158.062 186.678 157.237 187.059 156.63 187.822C156.037 188.57 155.741 189.608 155.741 190.936C155.741 192.264 156.044 193.309 156.651 194.071C157.272 194.82 158.112 195.194 159.17 195.194C160.2 195.194 161.012 194.813 161.605 194.05C162.197 193.288 162.494 192.249 162.494 190.936C162.494 189.608 162.19 188.57 161.583 187.822C160.991 187.059 160.165 186.678 159.107 186.678Z" fill="black"/>
<path d="M175.889 192.991C175.339 195.533 173.751 196.804 171.126 196.804C169.517 196.804 168.254 196.303 167.337 195.3C166.434 194.297 165.982 192.906 165.982 191.127C165.982 189.361 166.448 187.935 167.379 186.847C168.325 185.746 169.553 185.195 171.063 185.195C172.742 185.195 173.984 185.767 174.789 186.911C175.607 188.041 176.016 189.474 176.016 191.211V191.466H167.803L167.781 191.593C167.781 192.751 168.085 193.662 168.692 194.326C169.299 194.989 170.131 195.321 171.19 195.321C171.98 195.321 172.601 195.138 173.053 194.771C173.518 194.403 173.878 193.81 174.132 192.991H175.889ZM174.153 190.004C174.069 188.959 173.751 188.147 173.201 187.568C172.65 186.974 171.924 186.678 171.02 186.678C170.145 186.678 169.418 186.974 168.84 187.568C168.261 188.161 167.915 188.973 167.803 190.004H174.153Z" fill="black"/>
<path d="M177.882 196.444V185.513H182.941C183.661 185.513 184.275 185.576 184.783 185.703C185.291 185.816 185.736 186.077 186.117 186.487C186.498 186.897 186.688 187.455 186.688 188.161C186.688 189.234 186.152 190.018 185.079 190.512V190.533C185.729 190.661 186.237 190.964 186.604 191.444C186.971 191.911 187.154 192.504 187.154 193.224C187.154 194.156 186.843 194.926 186.223 195.533C185.602 196.141 184.804 196.444 183.83 196.444H177.882ZM182.751 189.919C183.499 189.919 184.028 189.799 184.338 189.559C184.663 189.305 184.825 188.937 184.825 188.457C184.825 187.977 184.67 187.624 184.36 187.398C184.049 187.172 183.513 187.059 182.751 187.059H179.639V189.919H182.751ZM179.639 191.444V194.898H183.492C184.056 194.898 184.494 194.728 184.804 194.389C185.129 194.05 185.291 193.612 185.291 193.076C185.291 191.988 184.585 191.444 183.174 191.444H179.639Z" fill="black"/>
<path d="M190.162 186.762C191.122 185.717 192.428 185.195 194.079 185.195C195.73 185.195 197.014 185.696 197.932 186.699C198.849 187.702 199.308 189.107 199.308 190.915C199.308 192.765 198.849 194.206 197.932 195.237C197.014 196.268 195.723 196.783 194.058 196.783C192.392 196.783 191.087 196.275 190.141 195.258C189.196 194.241 188.723 192.829 188.723 191.021C188.723 189.227 189.203 187.808 190.162 186.762ZM196.535 187.864C195.928 187.087 195.095 186.699 194.036 186.699C192.978 186.699 192.138 187.087 191.517 187.864C190.896 188.641 190.586 189.679 190.586 190.978C190.586 192.32 190.889 193.372 191.496 194.135C192.117 194.884 192.978 195.258 194.079 195.258C195.137 195.258 195.963 194.876 196.556 194.114C197.163 193.351 197.466 192.299 197.466 190.957C197.466 189.658 197.155 188.627 196.535 187.864Z" fill="black"/>
<path d="M208.987 187.101H203.292V196.444H201.493V185.513H208.987V187.101Z" fill="black"/>
<path d="M219.38 185.513L214.701 197.842C214.518 198.337 214.355 198.718 214.214 198.986C214.087 199.269 213.897 199.573 213.643 199.897C213.403 200.236 213.106 200.477 212.754 200.618C212.415 200.773 212.013 200.851 211.547 200.851C211.194 200.851 210.749 200.787 210.213 200.66V199.05C210.735 199.205 211.123 199.283 211.377 199.283C211.97 199.283 212.394 198.979 212.648 198.372L213.494 196.381L209.155 185.513H211.187L214.426 194.22L217.496 185.513H219.38Z" fill="black"/>
<path d="M223.677 194.093V196.444H221.327V194.093H223.677ZM223.677 185.513V187.864H221.327V185.513H223.677Z" fill="black"/>
<path d="M10.5849 217.178C10.4296 218.491 9.92861 219.536 9.08182 220.313C8.24915 221.09 7.16243 221.478 5.82168 221.478C4.17044 221.478 2.8932 220.97 1.98996 219.953C1.08671 218.922 0.635093 217.552 0.635093 215.843C0.635093 214.021 1.10788 212.58 2.05347 211.521C2.99905 210.448 4.27629 209.911 5.88519 209.911C7.22594 209.911 8.29854 210.25 9.10299 210.928C9.90744 211.592 10.3802 212.545 10.5214 213.788H8.65843C8.33383 212.206 7.41647 211.415 5.90636 211.415C4.86199 211.415 4.03637 211.804 3.4295 212.58C2.82263 213.343 2.5192 214.381 2.5192 215.695C2.5192 217.022 2.80852 218.068 3.38716 218.83C3.9658 219.593 4.76319 219.974 5.77934 219.974C6.59791 219.974 7.26122 219.734 7.7693 219.254C8.29149 218.774 8.62315 218.082 8.76428 217.178H10.5849Z" fill="black"/>
<path d="M20.918 211.818H17.0016V221.161H15.2022V211.818H11.2858V210.229H20.918V211.818Z" fill="black"/>
<path d="M24.0488 210.229V211.775C24.8392 210.518 26.067 209.89 27.7324 209.89C29.2566 209.89 30.4633 210.405 31.3524 211.436C32.2556 212.468 32.7073 213.866 32.7073 215.631C32.7073 217.397 32.2627 218.809 31.3736 219.868C30.4986 220.913 29.313 221.436 27.8171 221.436C26.2505 221.436 25.0297 220.836 24.1547 219.635V225.377H22.3553V210.229H24.0488ZM27.4572 211.394C26.4128 211.394 25.5872 211.775 24.9803 212.538C24.3876 213.287 24.0912 214.325 24.0912 215.652C24.0912 216.98 24.3946 218.025 25.0015 218.788C25.6225 219.536 26.4622 219.911 27.5207 219.911C28.5509 219.911 29.3624 219.529 29.9552 218.767C30.548 218.004 30.8443 216.966 30.8443 215.652C30.8443 214.325 30.5409 213.287 29.934 212.538C29.3413 211.775 28.5157 211.394 27.4572 211.394Z" fill="black"/>
<path d="M35.7721 211.479C36.7318 210.434 38.0372 209.911 39.6885 209.911C41.3397 209.911 42.624 210.413 43.5414 211.415C44.4587 212.418 44.9174 213.823 44.9174 215.631C44.9174 217.481 44.4587 218.922 43.5414 219.953C42.624 220.984 41.3327 221.5 39.6673 221.5C38.002 221.5 36.6965 220.991 35.7509 219.974C34.8053 218.957 34.3325 217.545 34.3325 215.737C34.3325 213.943 34.8124 212.524 35.7721 211.479ZM42.1442 212.58C41.5373 211.804 40.7046 211.415 39.6461 211.415C38.5877 211.415 37.7479 211.804 37.1269 212.58C36.506 213.357 36.1955 214.395 36.1955 215.695C36.1955 217.037 36.4989 218.089 37.1058 218.851C37.7268 219.6 38.5877 219.974 39.6885 219.974C40.747 219.974 41.5726 219.593 42.1653 218.83C42.7722 218.068 43.0756 217.015 43.0756 215.674C43.0756 214.374 42.7652 213.343 42.1442 212.58Z" fill="black"/>
<path d="M49.3677 221.161H47.0602V210.229H48.8596V219.148H48.902L53.8133 210.229H56.1208V221.161H54.3214V212.242H54.2791L49.3677 221.161Z" fill="black"/>
<path d="M67.1855 211.818H63.2691V221.161H61.4697V211.818H57.5533V210.229H67.1855V211.818Z" fill="black"/>
<path d="M77.5865 217.707C77.0361 220.25 75.4483 221.521 72.8233 221.521C71.2144 221.521 69.9513 221.019 69.0339 220.017C68.1307 219.014 67.679 217.623 67.679 215.843C67.679 214.078 68.1448 212.651 69.0762 211.564C70.0218 210.462 71.2497 209.911 72.7598 209.911C74.4392 209.911 75.6812 210.483 76.4857 211.627C77.3042 212.757 77.7135 214.191 77.7135 215.928V216.182H69.4996L69.4785 216.309C69.4785 217.467 69.7819 218.378 70.3888 219.042C70.9956 219.706 71.8283 220.038 72.8868 220.038C73.6771 220.038 74.2981 219.854 74.7497 219.487C75.2155 219.12 75.5754 218.527 75.8294 217.707H77.5865ZM75.8506 214.72C75.7659 213.675 75.4483 212.863 74.8979 212.284C74.3475 211.691 73.6207 211.394 72.7174 211.394C71.8424 211.394 71.1156 211.691 70.5369 212.284C69.9583 212.877 69.6125 213.689 69.4996 214.72H75.8506Z" fill="black"/>
<path d="M88.352 210.229V221.161H86.5525V211.818H82.6573L82.5091 216.648C82.4668 218.315 82.1633 219.522 81.5988 220.271C81.0343 221.019 80.3286 221.394 79.4818 221.394C78.9596 221.394 78.5292 221.316 78.1905 221.161V219.699C78.3739 219.798 78.6915 219.847 79.1431 219.847C79.5665 219.847 79.9264 219.621 80.2228 219.169C80.5333 218.703 80.7026 217.926 80.7308 216.839L80.9214 210.229H88.352Z" fill="black"/>
<path d="M99.2261 215.313C99.8753 215.907 100.2 216.719 100.2 217.75C100.2 218.781 99.8824 219.607 99.2473 220.228C98.6263 220.85 97.7866 221.161 96.7281 221.161H90.9487V210.229H92.7482V214.402H96.6434C97.716 214.402 98.5769 214.706 99.2261 215.313ZM96.0718 215.949H92.7482V219.572H96.0718C96.8057 219.572 97.3632 219.416 97.7442 219.106C98.1394 218.781 98.337 218.329 98.337 217.75C98.337 216.549 97.5819 215.949 96.0718 215.949Z" fill="black"/>
<path d="M111.389 217.178C111.234 218.491 110.733 219.536 109.886 220.313C109.054 221.09 107.967 221.478 106.626 221.478C104.975 221.478 103.698 220.97 102.794 219.953C101.891 218.922 101.439 217.552 101.439 215.843C101.439 214.021 101.912 212.58 102.858 211.521C103.803 210.448 105.081 209.911 106.69 209.911C108.03 209.911 109.103 210.25 109.907 210.928C110.712 211.592 111.185 212.545 111.326 213.788H109.463C109.138 212.206 108.221 211.415 106.711 211.415C105.666 211.415 104.841 211.804 104.234 212.58C103.627 213.343 103.324 214.381 103.324 215.695C103.324 217.022 103.613 218.068 104.192 218.83C104.77 219.593 105.568 219.974 106.584 219.974C107.402 219.974 108.066 219.734 108.574 219.254C109.096 218.774 109.428 218.082 109.569 217.178H111.389Z" fill="black"/>
<path d="M121.722 211.818H117.806V221.161H116.007V211.818H112.09V210.229H121.722V211.818Z" fill="black"/>
<path d="M123.117 221.161V210.229H128.177C128.897 210.229 129.511 210.292 130.019 210.42C130.527 210.533 130.971 210.794 131.352 211.203C131.733 211.613 131.924 212.171 131.924 212.877C131.924 213.95 131.388 214.734 130.315 215.229V215.25C130.964 215.377 131.472 215.681 131.839 216.161C132.206 216.627 132.39 217.22 132.39 217.94C132.39 218.873 132.079 219.642 131.458 220.25C130.837 220.857 130.04 221.161 129.066 221.161H123.117ZM127.986 214.635C128.734 214.635 129.264 214.515 129.574 214.275C129.899 214.021 130.061 213.654 130.061 213.174C130.061 212.693 129.906 212.34 129.595 212.114C129.285 211.888 128.748 211.775 127.986 211.775H124.874V214.635H127.986ZM124.874 216.161V219.614H128.727C129.292 219.614 129.729 219.445 130.04 219.106C130.364 218.767 130.527 218.329 130.527 217.792C130.527 216.705 129.821 216.161 128.41 216.161H124.874Z" fill="black"/>
<path d="M135.398 211.479C136.358 210.434 137.663 209.911 139.314 209.911C140.966 209.911 142.25 210.413 143.167 211.415C144.085 212.418 144.543 213.823 144.543 215.631C144.543 217.481 144.085 218.922 143.167 219.953C142.25 220.984 140.959 221.5 139.293 221.5C137.628 221.5 136.322 220.991 135.377 219.974C134.431 218.957 133.959 217.545 133.959 215.737C133.959 213.943 134.438 212.524 135.398 211.479ZM141.77 212.58C141.163 211.804 140.331 211.415 139.272 211.415C138.214 211.415 137.374 211.804 136.753 212.58C136.132 213.357 135.821 214.395 135.821 215.695C135.821 217.037 136.125 218.089 136.732 218.851C137.353 219.6 138.214 219.974 139.314 219.974C140.373 219.974 141.199 219.593 141.791 218.83C142.398 218.068 142.702 217.015 142.702 215.674C142.702 214.374 142.391 213.343 141.77 212.58Z" fill="black"/>
<path d="M159.67 212.114V213.958L157.553 215.568L159.67 217.22V219.021L156.452 216.479V214.635L159.67 212.114ZM155.563 212.114V213.915L153.383 215.546L155.563 217.199V219.042L152.282 216.436V214.635L155.563 212.114Z" fill="black"/>
<path d="M175.46 215.462C175.291 217.368 174.628 218.858 173.47 219.932C172.327 220.991 170.817 221.521 168.94 221.521C166.795 221.521 165.094 220.815 163.838 219.402C162.582 217.976 161.954 216.055 161.954 213.64C161.954 211.38 162.582 209.502 163.838 208.004C165.108 206.493 166.858 205.738 169.088 205.738C170.683 205.738 172.087 206.168 173.301 207.03C174.515 207.891 175.192 209.085 175.333 210.61H173.343C173.118 209.622 172.624 208.852 171.862 208.301C171.099 207.736 170.161 207.454 169.046 207.454C167.366 207.454 166.096 208.047 165.235 209.233C164.389 210.42 163.965 211.881 163.965 213.619C163.965 215.539 164.417 217.051 165.32 218.152C166.223 219.254 167.458 219.805 169.025 219.805C170.309 219.805 171.332 219.438 172.094 218.703C172.856 217.955 173.315 216.874 173.47 215.462H175.46Z" fill="black"/>
<path d="M186.991 217.707C186.441 220.25 184.853 221.521 182.228 221.521C180.619 221.521 179.356 221.019 178.439 220.017C177.535 219.014 177.084 217.623 177.084 215.843C177.084 214.078 177.549 212.651 178.481 211.564C179.426 210.462 180.654 209.911 182.164 209.911C183.844 209.911 185.086 210.483 185.89 211.627C186.709 212.757 187.118 214.191 187.118 215.928V216.182H178.904L178.883 216.309C178.883 217.467 179.187 218.378 179.793 219.042C180.4 219.706 181.233 220.038 182.291 220.038C183.082 220.038 183.703 219.854 184.154 219.487C184.62 219.12 184.98 218.527 185.234 217.707H186.991ZM185.255 214.72C185.17 213.675 184.853 212.863 184.303 212.284C183.752 211.691 183.025 211.394 182.122 211.394C181.247 211.394 180.52 211.691 179.942 212.284C179.363 212.877 179.017 213.689 178.904 214.72H185.255Z" fill="black"/>
<path d="M188.983 221.161V210.229H194.043C194.763 210.229 195.377 210.292 195.885 210.42C196.393 210.533 196.837 210.794 197.218 211.203C197.599 211.613 197.79 212.171 197.79 212.877C197.79 213.95 197.254 214.734 196.181 215.229V215.25C196.83 215.377 197.338 215.681 197.705 216.161C198.072 216.627 198.256 217.22 198.256 217.94C198.256 218.873 197.945 219.642 197.324 220.25C196.703 220.857 195.906 221.161 194.932 221.161H188.983ZM193.852 214.635C194.6 214.635 195.13 214.515 195.44 214.275C195.765 214.021 195.927 213.654 195.927 213.174C195.927 212.693 195.772 212.34 195.461 212.114C195.151 211.888 194.615 211.775 193.852 211.775H190.74V214.635H193.852ZM190.74 216.161V219.614H194.593C195.158 219.614 195.595 219.445 195.906 219.106C196.23 218.767 196.393 218.329 196.393 217.792C196.393 216.705 195.687 216.161 194.276 216.161H190.74Z" fill="black"/>
<path d="M209.732 217.707C209.182 220.25 207.594 221.521 204.969 221.521C203.36 221.521 202.097 221.019 201.179 220.017C200.276 219.014 199.825 217.623 199.825 215.843C199.825 214.078 200.29 212.651 201.222 211.564C202.167 210.462 203.395 209.911 204.905 209.911C206.585 209.911 207.827 210.483 208.631 211.627C209.45 212.757 209.859 214.191 209.859 215.928V216.182H201.645L201.624 216.309C201.624 217.467 201.927 218.378 202.534 219.042C203.141 219.706 203.974 220.038 205.032 220.038C205.823 220.038 206.444 219.854 206.895 219.487C207.361 219.12 207.721 218.527 207.975 217.707H209.732ZM207.996 214.72C207.911 213.675 207.594 212.863 207.043 212.284C206.493 211.691 205.766 211.394 204.863 211.394C203.988 211.394 203.261 211.691 202.682 212.284C202.104 212.877 201.758 213.689 201.645 214.72H207.996Z" fill="black"/>
<path d="M213.46 210.229V211.775C214.251 210.518 215.478 209.89 217.144 209.89C218.668 209.89 219.875 210.405 220.764 211.436C221.667 212.468 222.119 213.866 222.119 215.631C222.119 217.397 221.674 218.809 220.785 219.868C219.91 220.913 218.724 221.436 217.228 221.436C215.662 221.436 214.441 220.836 213.566 219.635V225.377H211.767V210.229H213.46ZM216.869 211.394C215.824 211.394 214.999 211.775 214.392 212.538C213.799 213.287 213.503 214.325 213.503 215.652C213.503 216.98 213.806 218.025 214.413 218.788C215.034 219.536 215.874 219.911 216.932 219.911C217.962 219.911 218.774 219.529 219.367 218.767C219.959 218.004 220.256 216.966 220.256 215.652C220.256 214.325 219.952 213.287 219.345 212.538C218.753 211.775 217.927 211.394 216.869 211.394Z" fill="black"/>
<path d="M226.115 221.161H224.316V210.229H226.115V214.572H231.577V210.229H233.376V221.161H231.577V216.161H226.115V221.161Z" fill="black"/>
<path d="M236.947 211.479C237.906 210.434 239.212 209.911 240.863 209.911C242.514 209.911 243.799 210.413 244.716 211.415C245.633 212.418 246.092 213.823 246.092 215.631C246.092 217.481 245.633 218.922 244.716 219.953C243.799 220.984 242.507 221.5 240.842 221.5C239.177 221.5 237.871 220.991 236.926 219.974C235.98 218.957 235.507 217.545 235.507 215.737C235.507 213.943 235.987 212.524 236.947 211.479ZM243.319 212.58C242.712 211.804 241.879 211.415 240.821 211.415C239.762 211.415 238.923 211.804 238.302 212.58C237.681 213.357 237.37 214.395 237.37 215.695C237.37 217.037 237.674 218.089 238.28 218.851C238.901 219.6 239.762 219.974 240.863 219.974C241.922 219.974 242.747 219.593 243.34 218.83C243.947 218.068 244.25 217.015 244.25 215.674C244.25 214.374 243.94 213.343 243.319 212.58Z" fill="black"/>
<path d="M255.771 211.818H250.077V221.161H248.277V210.229H255.771V211.818Z" fill="black"/>
<path d="M257.476 211.479C258.435 210.434 259.741 209.911 261.392 209.911C263.043 209.911 264.328 210.413 265.245 211.415C266.162 212.418 266.621 213.823 266.621 215.631C266.621 217.481 266.162 218.922 265.245 219.953C264.328 220.984 263.036 221.5 261.371 221.5C259.705 221.5 258.4 220.991 257.454 219.974C256.509 218.957 256.036 217.545 256.036 215.737C256.036 213.943 256.516 212.524 257.476 211.479ZM263.848 212.58C263.241 211.804 262.408 211.415 261.35 211.415C260.291 211.415 259.451 211.804 258.83 212.58C258.209 213.357 257.899 214.395 257.899 215.695C257.899 217.037 258.202 218.089 258.809 218.851C259.43 219.6 260.291 219.974 261.392 219.974C262.451 219.974 263.276 219.593 263.869 218.83C264.476 218.068 264.779 217.015 264.779 215.674C264.779 214.374 264.469 213.343 263.848 212.58Z" fill="black"/>
<path d="M2.98494 245.877H1.18551V234.945H10.2462V245.877H8.44673V236.534H2.98494V245.877Z" fill="black"/>
<path d="M13.8167 236.195C14.7764 235.15 16.0819 234.628 17.7331 234.628C19.3844 234.628 20.6687 235.129 21.586 236.132C22.5034 237.134 22.9621 238.54 22.9621 240.348C22.9621 242.198 22.5034 243.638 21.586 244.669C20.6687 245.7 19.3773 246.216 17.712 246.216C16.0466 246.216 14.7411 245.708 13.7956 244.691C12.85 243.674 12.3772 242.261 12.3772 240.454C12.3772 238.66 12.857 237.24 13.8167 236.195ZM20.1888 237.297C19.582 236.52 18.7493 236.132 17.6908 236.132C16.6323 236.132 15.7926 236.52 15.1716 237.297C14.5506 238.074 14.2401 239.112 14.2401 240.411C14.2401 241.753 14.5436 242.805 15.1504 243.568C15.7714 244.316 16.6323 244.691 17.7331 244.691C18.7916 244.691 19.6172 244.309 20.21 243.547C20.8169 242.784 21.1203 241.732 21.1203 240.39C21.1203 239.091 20.8098 238.06 20.1888 237.297Z" fill="black"/>
<path d="M33.0948 236.534H29.1784V245.877H27.3789V236.534H23.4625V234.945H33.0948V236.534Z" fill="black"/>
<path d="M35.0278 236.195C35.9875 235.15 37.293 234.628 38.9442 234.628C40.5955 234.628 41.8798 235.129 42.7971 236.132C43.7145 237.134 44.1732 238.54 44.1732 240.348C44.1732 242.198 43.7145 243.638 42.7971 244.669C41.8798 245.7 40.5884 246.216 38.9231 246.216C37.2577 246.216 35.9522 245.708 35.0067 244.691C34.0611 243.674 33.5883 242.261 33.5883 240.454C33.5883 238.66 34.0681 237.24 35.0278 236.195ZM41.3999 237.297C40.7931 236.52 39.9604 236.132 38.9019 236.132C37.8434 236.132 37.0037 236.52 36.3827 237.297C35.7617 238.074 35.4512 239.112 35.4512 240.411C35.4512 241.753 35.7547 242.805 36.3615 243.568C36.9825 244.316 37.8434 244.691 38.9442 244.691C40.0027 244.691 40.8283 244.309 41.4211 243.547C42.028 242.784 42.3314 241.732 42.3314 240.39C42.3314 239.091 42.0209 238.06 41.3999 237.297Z" fill="black"/>
<path d="M56.0964 245.877H53.81L49.8301 240.496L48.1154 242.17V245.877H46.3159V234.945H48.1154V240.157L53.1114 234.945H55.5248L51.1215 239.246L56.0964 245.877Z" fill="black"/>
<path d="M66.9682 244.436V245.835C66.6013 245.976 66.192 246.047 65.7403 246.047C64.7101 246.047 64.1808 245.51 64.1526 244.436C63.1224 245.595 61.8028 246.174 60.1939 246.174C59.1213 246.174 58.2674 245.898 57.6323 245.347C57.0114 244.797 56.7009 244.041 56.7009 243.081C56.7009 241.131 57.9922 239.995 60.5749 239.67C60.7443 239.641 60.9913 239.613 61.3159 239.585C62.5437 239.444 63.2988 239.281 63.581 239.098C63.9056 238.872 64.0679 238.483 64.0679 237.932C64.0679 236.732 63.2423 236.132 61.5911 236.132C60.7443 236.132 60.1021 236.308 59.6646 236.661C59.2271 237 58.966 237.565 58.8813 238.356H57.1243C57.1525 237.184 57.5688 236.273 58.3733 235.623C59.1777 234.974 60.2856 234.649 61.6969 234.649C63.2353 234.649 64.3784 235.002 65.1264 235.708C65.3663 235.934 65.5428 236.231 65.6557 236.598C65.7686 236.965 65.8321 237.269 65.8462 237.509C65.8603 237.735 65.8674 238.081 65.8674 238.547C65.8674 239.084 65.8533 239.896 65.825 240.983C65.7968 242.071 65.7827 242.883 65.7827 243.42C65.7827 243.815 65.8321 244.097 65.9309 244.267C66.0438 244.422 66.2414 244.5 66.5236 244.5C66.6365 244.5 66.7847 244.479 66.9682 244.436ZM64.0679 240.199C63.9409 240.298 63.8068 240.383 63.6657 240.454C63.5246 240.524 63.3411 240.581 63.1153 240.623C62.9036 240.665 62.7554 240.701 62.6707 240.729C62.6002 240.743 62.4167 240.771 62.1203 240.814C61.8239 240.842 61.6687 240.856 61.6546 240.856C61.2171 240.913 60.9278 240.955 60.7866 240.983C60.6596 240.997 60.4056 241.054 60.0245 241.153C59.6576 241.252 59.3965 241.365 59.2412 241.492C59.086 241.619 58.9307 241.809 58.7755 242.064C58.6344 242.304 58.5638 242.593 58.5638 242.932C58.5638 243.497 58.7543 243.942 59.1354 244.267C59.5306 244.592 60.0669 244.754 60.7443 244.754C61.6052 244.754 62.3744 244.5 63.0518 243.992C63.7292 243.483 64.0679 242.883 64.0679 242.191V240.199Z" fill="black"/>
<path d="M74.5069 239.098V240.877H68.3465V239.098H74.5069Z" fill="black"/>
<path d="M85.847 244.246V245.877H76.0666C76.1089 245.044 76.2359 244.316 76.4476 243.695C76.6593 243.073 76.9839 242.516 77.4214 242.021C77.873 241.513 78.3105 241.096 78.7339 240.771C79.1573 240.446 79.7572 240.044 80.5334 239.564C81.7471 238.801 82.5445 238.229 82.9256 237.848C83.7159 237.071 84.1111 236.209 84.1111 235.263C84.1111 234.43 83.8429 233.752 83.3066 233.229C82.7703 232.693 82.0717 232.424 81.2108 232.424C80.1805 232.424 79.4396 232.784 78.988 233.505C78.5505 234.211 78.3176 235.108 78.2894 236.195H76.4688V235.793C76.4688 234.31 76.9063 233.116 77.7813 232.212C78.6704 231.308 79.8418 230.857 81.2955 230.857C82.7209 230.857 83.857 231.252 84.7038 232.043C85.5506 232.834 85.974 233.893 85.974 235.221C85.974 235.786 85.8752 236.322 85.6776 236.831C85.4941 237.325 85.2825 237.742 85.0425 238.081C84.8167 238.42 84.4639 238.78 83.984 239.161C83.5183 239.543 83.1302 239.839 82.8197 240.051C82.5092 240.249 82.0647 240.524 81.486 240.877C80.3287 241.569 79.5596 242.106 79.1785 242.487C78.6422 243.024 78.2964 243.61 78.1412 244.246H85.847Z" fill="black"/>
<path d="M92.7624 236.788L96.0437 239.415V241.216L92.7624 243.737V241.937L94.9217 240.326L92.7624 238.653V236.788ZM88.6343 236.831L91.8521 239.394V241.195L88.6343 243.695V241.894L90.7513 240.305L88.6343 238.653V236.831Z" fill="black"/>
<path d="M113.386 234.945L108.708 247.275C108.524 247.77 108.362 248.151 108.221 248.419C108.094 248.702 107.903 249.005 107.649 249.33C107.409 249.669 107.113 249.909 106.76 250.051C106.421 250.206 106.019 250.284 105.553 250.284C105.201 250.284 104.756 250.22 104.22 250.093V248.483C104.742 248.638 105.13 248.716 105.384 248.716C105.977 248.716 106.4 248.412 106.654 247.805L107.501 245.813L103.161 234.945H105.193L108.432 243.653L111.502 234.945H113.386Z" fill="black"/>
<path d="M114.889 245.877V234.945H119.949C120.669 234.945 121.283 235.009 121.791 235.136C122.299 235.249 122.743 235.51 123.124 235.92C123.505 236.329 123.696 236.887 123.696 237.593C123.696 238.667 123.16 239.451 122.087 239.945V239.966C122.736 240.093 123.244 240.397 123.611 240.877C123.978 241.343 124.162 241.937 124.162 242.657C124.162 243.589 123.851 244.359 123.23 244.966C122.609 245.573 121.812 245.877 120.838 245.877H114.889ZM119.758 239.352C120.506 239.352 121.036 239.232 121.346 238.992C121.671 238.738 121.833 238.37 121.833 237.89C121.833 237.41 121.678 237.057 121.367 236.831C121.057 236.605 120.52 236.492 119.758 236.492H116.646V239.352H119.758ZM116.646 240.877V244.33H120.499C121.064 244.33 121.501 244.161 121.812 243.822C122.136 243.483 122.299 243.045 122.299 242.509C122.299 241.421 121.593 240.877 120.182 240.877H116.646Z" fill="black"/>
<path d="M135.638 242.424C135.087 244.966 133.5 246.237 130.875 246.237C129.266 246.237 128.003 245.736 127.085 244.733C126.182 243.73 125.73 242.339 125.73 240.559C125.73 238.794 126.196 237.368 127.128 236.28C128.073 235.178 129.301 234.628 130.811 234.628C132.491 234.628 133.733 235.2 134.537 236.344C135.356 237.473 135.765 238.907 135.765 240.644V240.898H127.551L127.53 241.026C127.53 242.184 127.833 243.095 128.44 243.758C129.047 244.422 129.88 244.754 130.938 244.754C131.729 244.754 132.35 244.571 132.801 244.203C133.267 243.836 133.627 243.243 133.881 242.424H135.638ZM133.902 239.437C133.817 238.391 133.5 237.579 132.949 237C132.399 236.407 131.672 236.111 130.769 236.111C129.894 236.111 129.167 236.407 128.588 237C128.01 237.593 127.664 238.406 127.551 239.437H133.902Z" fill="black"/>
<path d="M146.403 234.945V245.877H144.604V236.534H140.709L140.561 241.365C140.518 243.031 140.215 244.239 139.65 244.987C139.086 245.736 138.38 246.11 137.533 246.11C137.011 246.11 136.581 246.032 136.242 245.877V244.415C136.425 244.514 136.743 244.564 137.195 244.564C137.618 244.564 137.978 244.338 138.274 243.886C138.585 243.42 138.754 242.643 138.782 241.555L138.973 234.945H146.403Z" fill="black"/>
<path d="M151.371 245.877H149.064V234.945H150.863V243.864H150.905L155.817 234.945H158.124V245.877H156.325V236.958H156.283L151.371 245.877Z" fill="black"/>
<path d="M169.274 245.877H167.474V241.047C167.178 241.131 166.656 241.237 165.908 241.365C165.174 241.478 164.567 241.534 164.087 241.534C162.972 241.534 162.097 241.273 161.462 240.75C160.841 240.213 160.531 239.43 160.531 238.399V234.945H162.33V238.102C162.33 239.373 163.029 240.009 164.426 240.009C165.428 240.009 166.444 239.846 167.474 239.521V234.945H169.274V245.877Z" fill="black"/>
<path d="M174.298 245.877H171.991V234.945H173.79V243.864H173.832L178.744 234.945H181.051V245.877H179.252V236.958H179.21L174.298 245.877Z" fill="black"/>
<path d="M192.857 234.945V245.877H191.058V236.534H187.162L187.014 241.365C186.972 243.031 186.668 244.239 186.104 244.987C185.539 245.736 184.834 246.11 183.987 246.11C183.465 246.11 183.034 246.032 182.695 245.877V244.415C182.879 244.514 183.196 244.564 183.648 244.564C184.071 244.564 184.431 244.338 184.728 243.886C185.038 243.42 185.208 242.643 185.236 241.555L185.426 234.945H192.857Z" fill="black"/>
<path d="M196.385 236.195C197.345 235.15 198.65 234.628 200.302 234.628C201.953 234.628 203.237 235.129 204.154 236.132C205.072 237.134 205.53 238.54 205.53 240.348C205.53 242.198 205.072 243.638 204.154 244.669C203.237 245.7 201.946 246.216 200.28 246.216C198.615 246.216 197.31 245.708 196.364 244.691C195.418 243.674 194.946 242.261 194.946 240.454C194.946 238.66 195.425 237.24 196.385 236.195ZM202.757 237.297C202.15 236.52 201.318 236.132 200.259 236.132C199.201 236.132 198.361 236.52 197.74 237.297C197.119 238.074 196.809 239.112 196.809 240.411C196.809 241.753 197.112 242.805 197.719 243.568C198.34 244.316 199.201 244.691 200.302 244.691C201.36 244.691 202.186 244.309 202.778 243.547C203.385 242.784 203.689 241.732 203.689 240.39C203.689 239.091 203.378 238.06 202.757 237.297Z" fill="black"/>
<path d="M222.965 241.894C222.809 243.208 222.308 244.253 221.462 245.03C220.629 245.806 219.542 246.195 218.201 246.195C216.55 246.195 215.273 245.686 214.37 244.669C213.466 243.638 213.015 242.268 213.015 240.559C213.015 238.738 213.488 237.297 214.433 236.238C215.379 235.164 216.656 234.628 218.265 234.628C219.606 234.628 220.678 234.966 221.483 235.644C222.287 236.308 222.76 237.262 222.901 238.504H221.038C220.714 236.923 219.796 236.132 218.286 236.132C217.242 236.132 216.416 236.52 215.809 237.297C215.202 238.06 214.899 239.098 214.899 240.411C214.899 241.739 215.188 242.784 215.767 243.547C216.346 244.309 217.143 244.691 218.159 244.691C218.978 244.691 219.641 244.451 220.149 243.97C220.671 243.49 221.003 242.798 221.144 241.894H222.965Z" fill="black"/>
<path d="M233.667 234.945V245.877H231.867V236.534H227.972L227.824 241.365C227.781 243.031 227.478 244.239 226.913 244.987C226.349 245.736 225.643 246.11 224.796 246.11C224.274 246.11 223.844 246.032 223.505 245.877V244.415C223.689 244.514 224.006 244.564 224.458 244.564C224.881 244.564 225.241 244.338 225.537 243.886C225.848 243.42 226.017 242.643 226.045 241.555L226.236 234.945H233.667Z" fill="black"/>
<path d="M245.366 234.945L240.688 247.275C240.504 247.77 240.342 248.151 240.201 248.419C240.074 248.702 239.883 249.005 239.629 249.33C239.389 249.669 239.093 249.909 238.74 250.051C238.401 250.206 237.999 250.284 237.534 250.284C237.181 250.284 236.736 250.22 236.2 250.093V248.483C236.722 248.638 237.11 248.716 237.364 248.716C237.957 248.716 238.38 248.412 238.634 247.805L239.481 245.813L235.141 234.945H237.174L240.413 243.653L243.482 234.945H245.366Z" fill="black"/>
<path d="M255.358 245.877H253.559V241.047C253.263 241.131 252.74 241.237 251.992 241.365C251.259 241.478 250.652 241.534 250.172 241.534C249.057 241.534 248.182 241.273 247.547 240.75C246.926 240.213 246.615 239.43 246.615 238.399V234.945H248.415V238.102C248.415 239.373 249.113 240.009 250.511 240.009C251.513 240.009 252.529 239.846 253.559 239.521V234.945H255.358V245.877Z" fill="black"/>
<path d="M267.75 244.436V245.835C267.383 245.976 266.974 246.047 266.522 246.047C265.492 246.047 264.963 245.51 264.934 244.436C263.904 245.595 262.585 246.174 260.976 246.174C259.903 246.174 259.049 245.898 258.414 245.347C257.793 244.797 257.483 244.041 257.483 243.081C257.483 241.131 258.774 239.995 261.357 239.67C261.526 239.641 261.773 239.613 262.098 239.585C263.326 239.444 264.081 239.281 264.363 239.098C264.687 238.872 264.85 238.483 264.85 237.932C264.85 236.732 264.024 236.132 262.373 236.132C261.526 236.132 260.884 236.308 260.446 236.661C260.009 237 259.748 237.565 259.663 238.356H257.906C257.934 237.184 258.351 236.273 259.155 235.623C259.96 234.974 261.067 234.649 262.479 234.649C264.017 234.649 265.16 235.002 265.908 235.708C266.148 235.934 266.325 236.231 266.438 236.598C266.55 236.965 266.614 237.269 266.628 237.509C266.642 237.735 266.649 238.081 266.649 238.547C266.649 239.084 266.635 239.896 266.607 240.983C266.579 242.071 266.565 242.883 266.565 243.42C266.565 243.815 266.614 244.097 266.713 244.267C266.826 244.422 267.023 244.5 267.305 244.5C267.418 244.5 267.567 244.479 267.75 244.436ZM264.85 240.199C264.723 240.298 264.589 240.383 264.448 240.454C264.306 240.524 264.123 240.581 263.897 240.623C263.685 240.665 263.537 240.701 263.453 240.729C263.382 240.743 263.199 240.771 262.902 240.814C262.606 240.842 262.451 240.856 262.436 240.856C261.999 240.913 261.71 240.955 261.568 240.983C261.441 240.997 261.187 241.054 260.806 241.153C260.439 241.252 260.178 241.365 260.023 241.492C259.868 241.619 259.713 241.809 259.557 242.064C259.416 242.304 259.346 242.593 259.346 242.932C259.346 243.497 259.536 243.942 259.917 244.267C260.312 244.592 260.849 244.754 261.526 244.754C262.387 244.754 263.156 244.5 263.834 243.992C264.511 243.483 264.85 242.883 264.85 242.191V240.199Z" fill="black"/>
<path d="M271.753 245.877H269.446V234.945H271.245V243.864H271.288L276.199 234.945H278.507V245.877H276.707V236.958H276.665L271.753 245.877Z" fill="black"/>
<path d="M11.7704 274.068H10.0556V270.593H1.71475V274.068H0V269.005H1.18551C1.52422 268.355 1.83471 267.352 2.11698 265.996C2.41335 264.626 2.56154 263.291 2.56154 261.992V259.662H10.352V269.005H11.7704V274.068ZM8.55258 269.005V261.251H4.31863V262.162C4.31863 263.447 4.18455 264.753 3.9164 266.081C3.66237 267.394 3.37305 268.369 3.04844 269.005H8.55258Z" fill="black"/>
<path d="M22.6774 267.14C22.127 269.682 20.5393 270.954 17.9142 270.954C16.3053 270.954 15.0422 270.452 14.1249 269.449C13.2216 268.447 12.77 267.055 12.77 265.276C12.77 263.51 13.2357 262.084 14.1672 260.996C15.1128 259.895 16.3406 259.344 17.8507 259.344C19.5302 259.344 20.7722 259.916 21.5766 261.06C22.3952 262.19 22.8045 263.623 22.8045 265.361V265.615H14.5906L14.5694 265.742C14.5694 266.9 14.8729 267.811 15.4797 268.475C16.0866 269.139 16.9193 269.471 17.9778 269.471C18.7681 269.471 19.3891 269.287 19.8407 268.92C20.3064 268.553 20.6663 267.959 20.9203 267.14H22.6774ZM20.9415 264.153C20.8568 263.108 20.5393 262.296 19.9889 261.717C19.4385 261.124 18.7116 260.827 17.8084 260.827C16.9334 260.827 16.2065 261.124 15.6279 261.717C15.0493 262.31 14.7035 263.122 14.5906 264.153H20.9415Z" fill="black"/>
<path d="M26.5115 270.593H24.712V259.662H33.7727V270.593H31.9733V261.251H26.5115V270.593Z" fill="black"/>
<path d="M38.1689 259.662V261.208C38.9592 259.951 40.1871 259.323 41.8524 259.323C43.3767 259.323 44.5833 259.838 45.4725 260.869C46.3757 261.9 46.8273 263.299 46.8273 265.064C46.8273 266.829 46.3828 268.242 45.4936 269.301C44.6186 270.346 43.4331 270.869 41.9371 270.869C40.3705 270.869 39.1498 270.269 38.2747 269.068V274.809H36.4753V259.662H38.1689ZM41.5772 260.827C40.5329 260.827 39.7072 261.208 39.1004 261.971C38.5076 262.719 38.2112 263.758 38.2112 265.085C38.2112 266.413 38.5147 267.458 39.1215 268.221C39.7425 268.969 40.5822 269.343 41.6407 269.343C42.671 269.343 43.4825 268.962 44.0753 268.199C44.668 267.437 44.9644 266.399 44.9644 265.085C44.9644 263.758 44.661 262.719 44.0541 261.971C43.4613 261.208 42.6357 260.827 41.5772 260.827Z" fill="black"/>
<path d="M58.36 267.14C57.8096 269.682 56.2219 270.954 53.5968 270.954C51.9879 270.954 50.7248 270.452 49.8075 269.449C48.9042 268.447 48.4526 267.055 48.4526 265.276C48.4526 263.51 48.9183 262.084 49.8498 260.996C50.7954 259.895 52.0232 259.344 53.5333 259.344C55.2128 259.344 56.4548 259.916 57.2592 261.06C58.0778 262.19 58.4871 263.623 58.4871 265.361V265.615H50.2732L50.252 265.742C50.252 266.9 50.5555 267.811 51.1623 268.475C51.7692 269.139 52.6019 269.471 53.6604 269.471C54.4507 269.471 55.0717 269.287 55.5233 268.92C55.989 268.553 56.3489 267.959 56.603 267.14H58.36ZM56.6241 264.153C56.5394 263.108 56.2219 262.296 55.6715 261.717C55.1211 261.124 54.3942 260.827 53.491 260.827C52.616 260.827 51.8892 261.124 51.3105 261.717C50.7319 262.31 50.3861 263.122 50.2732 264.153H56.6241Z" fill="black"/>
<path d="M69.794 266.611C69.6388 267.924 69.1378 268.969 68.291 269.746C67.4583 270.523 66.3716 270.911 65.0308 270.911C63.3796 270.911 62.1023 270.403 61.1991 269.386C60.2959 268.355 59.8442 266.985 59.8442 265.276C59.8442 263.454 60.317 262.013 61.2626 260.954C62.2082 259.881 63.4854 259.344 65.0943 259.344C66.4351 259.344 67.5077 259.683 68.3121 260.361C69.1166 261.025 69.5894 261.978 69.7305 263.221H67.8676C67.543 261.639 66.6256 260.848 65.1155 260.848C64.0711 260.848 63.2455 261.236 62.6386 262.013C62.0318 262.776 61.7283 263.814 61.7283 265.128C61.7283 266.455 62.0177 267.5 62.5963 268.263C63.1749 269.026 63.9723 269.407 64.9885 269.407C65.8071 269.407 66.4704 269.167 66.9784 268.687C67.5006 268.207 67.8323 267.514 67.9734 266.611H69.794Z" fill="black"/>
<path d="M81.1645 266.611C81.0092 267.924 80.5082 268.969 79.6614 269.746C78.8288 270.523 77.742 270.911 76.4013 270.911C74.7501 270.911 73.4728 270.403 72.5696 269.386C71.6663 268.355 71.2147 266.985 71.2147 265.276C71.2147 263.454 71.6875 262.013 72.6331 260.954C73.5787 259.881 74.8559 259.344 76.4648 259.344C77.8056 259.344 78.8782 259.683 79.6826 260.361C80.4871 261.025 80.9599 261.978 81.101 263.221H79.238C78.9134 261.639 77.9961 260.848 76.486 260.848C75.4416 260.848 74.616 261.236 74.0091 262.013C73.4023 262.776 73.0988 263.814 73.0988 265.128C73.0988 266.455 73.3881 267.5 73.9668 268.263C74.5454 269.026 75.3428 269.407 76.359 269.407C77.1775 269.407 77.8408 269.167 78.3489 268.687C78.8711 268.207 79.2028 267.514 79.3439 266.611H81.1645Z" fill="black"/>
<path d="M85.4431 270.593H83.1356V259.662H84.935V268.581H84.9774L89.8887 259.662H92.1962V270.593H90.3968V261.674H90.3545L85.4431 270.593Z" fill="black"/>
<path d="M97.2064 270.593H94.8989V259.662H96.6983V268.581H96.7406L101.652 259.662H103.96V270.593H102.16V261.674H102.118L97.2064 270.593Z" fill="black"/>
<path d="M121.594 259.662L116.915 271.992C116.732 272.486 116.569 272.867 116.428 273.136C116.301 273.418 116.111 273.722 115.857 274.047C115.617 274.386 115.32 274.626 114.967 274.767C114.629 274.922 114.227 275 113.761 275C113.408 275 112.963 274.936 112.427 274.809V273.199C112.949 273.355 113.337 273.432 113.591 273.432C114.184 273.432 114.608 273.129 114.862 272.521L115.708 270.53L111.369 259.662H113.401L116.64 268.369L119.709 259.662H121.594Z" fill="black"/>
<path d="M130.83 270.593H129.031V259.662H138.092V270.593H136.292V261.251H130.83V270.593Z" fill="black"/>
<path d="M143.102 270.593H140.794V259.662H142.594V268.581H142.636L147.547 259.662H149.855V270.593H148.055V261.674H148.013L143.102 270.593Z" fill="black"/>
<path d="M154.357 270.593H152.557V259.662H154.357V264.005H159.819V259.662H161.618V270.593H159.819V265.594H154.357V270.593Z" fill="black"/>
<path d="M171.857 261.251H166.163V270.593H164.363V259.662H171.857V261.251Z" fill="black"/>
<path d="M173.168 270.593V259.662H178.228C178.947 259.662 179.561 259.725 180.069 259.852C180.577 259.965 181.022 260.227 181.403 260.636C181.784 261.046 181.975 261.604 181.975 262.31C181.975 263.383 181.438 264.167 180.366 264.661V264.683C181.015 264.81 181.523 265.113 181.89 265.594C182.257 266.06 182.44 266.653 182.44 267.373C182.44 268.305 182.13 269.075 181.509 269.682C180.888 270.29 180.091 270.593 179.117 270.593H173.168ZM178.037 264.068C178.785 264.068 179.314 263.948 179.625 263.708C179.949 263.454 180.112 263.087 180.112 262.606C180.112 262.126 179.956 261.773 179.646 261.547C179.336 261.321 178.799 261.208 178.037 261.208H174.925V264.068H178.037ZM174.925 265.594V269.047H178.778C179.343 269.047 179.78 268.877 180.091 268.538C180.415 268.199 180.577 267.762 180.577 267.225C180.577 266.137 179.872 265.594 178.461 265.594H174.925Z" fill="black"/>
<path d="M186.888 270.593H184.581V259.662H186.38V268.581H186.423L191.334 259.662H193.642V270.593H191.842V261.674H191.8L186.888 270.593Z" fill="black"/>
<path d="M198.144 270.593H196.344V259.662H198.144V264.005H203.605V259.662H205.405V270.593H203.605V265.594H198.144V270.593Z" fill="black"/>
<path d="M208.975 260.912C209.935 259.867 211.241 259.344 212.892 259.344C214.543 259.344 215.827 259.845 216.745 260.848C217.662 261.851 218.121 263.256 218.121 265.064C218.121 266.914 217.662 268.355 216.745 269.386C215.827 270.417 214.536 270.932 212.871 270.932C211.205 270.932 209.9 270.424 208.954 269.407C208.009 268.39 207.536 266.978 207.536 265.17C207.536 263.376 208.016 261.957 208.975 260.912ZM215.347 262.013C214.741 261.236 213.908 260.848 212.849 260.848C211.791 260.848 210.951 261.236 210.33 262.013C209.709 262.79 209.399 263.828 209.399 265.128C209.399 266.469 209.702 267.522 210.309 268.284C210.93 269.033 211.791 269.407 212.892 269.407C213.95 269.407 214.776 269.026 215.369 268.263C215.976 267.5 216.279 266.448 216.279 265.106C216.279 263.807 215.968 262.776 215.347 262.013Z" fill="black"/>
<path d="M220.221 270.593V259.662H225.281C226 259.662 226.614 259.725 227.122 259.852C227.631 259.965 228.075 260.227 228.456 260.636C228.837 261.046 229.028 261.604 229.028 262.31C229.028 263.383 228.491 264.167 227.419 264.661V264.683C228.068 264.81 228.576 265.113 228.943 265.594C229.31 266.06 229.493 266.653 229.493 267.373C229.493 268.305 229.183 269.075 228.562 269.682C227.941 270.29 227.144 270.593 226.17 270.593H220.221ZM225.09 264.068C225.838 264.068 226.367 263.948 226.678 263.708C227.003 263.454 227.165 263.087 227.165 262.606C227.165 262.126 227.01 261.773 226.699 261.547C226.389 261.321 225.852 261.208 225.09 261.208H221.978V264.068H225.09ZM221.978 265.594V269.047H225.831C226.396 269.047 226.833 268.877 227.144 268.538C227.468 268.199 227.631 267.762 227.631 267.225C227.631 266.137 226.925 265.594 225.514 265.594H221.978Z" fill="black"/>
<path d="M239.325 270.593H237.526V259.662H239.325V264.005H244.787V259.662H246.587V270.593H244.787V265.594H239.325V270.593Z" fill="black"/>
<path d="M258.964 269.153V270.551C258.597 270.692 258.188 270.763 257.736 270.763C256.706 270.763 256.176 270.226 256.148 269.153C255.118 270.311 253.798 270.89 252.189 270.89C251.117 270.89 250.263 270.615 249.628 270.064C249.007 269.513 248.696 268.757 248.696 267.797C248.696 265.848 249.988 264.711 252.571 264.386C252.74 264.358 252.987 264.33 253.311 264.301C254.539 264.16 255.294 263.998 255.577 263.814C255.901 263.588 256.064 263.2 256.064 262.649C256.064 261.448 255.238 260.848 253.587 260.848C252.74 260.848 252.098 261.025 251.66 261.378C251.223 261.717 250.962 262.282 250.877 263.073H249.12C249.148 261.9 249.564 260.989 250.369 260.34C251.173 259.69 252.281 259.365 253.693 259.365C255.231 259.365 256.374 259.718 257.122 260.424C257.362 260.65 257.538 260.947 257.651 261.314C257.764 261.681 257.828 261.985 257.842 262.225C257.856 262.451 257.863 262.797 257.863 263.263C257.863 263.8 257.849 264.612 257.821 265.7C257.792 266.787 257.778 267.599 257.778 268.136C257.778 268.531 257.828 268.814 257.926 268.983C258.039 269.139 258.237 269.216 258.519 269.216C258.632 269.216 258.78 269.195 258.964 269.153ZM256.064 264.916C255.937 265.015 255.802 265.099 255.661 265.17C255.52 265.241 255.337 265.297 255.111 265.339C254.899 265.382 254.751 265.417 254.666 265.445C254.596 265.459 254.412 265.488 254.116 265.53C253.82 265.558 253.664 265.572 253.65 265.572C253.213 265.629 252.923 265.671 252.782 265.7C252.655 265.714 252.401 265.77 252.02 265.869C251.653 265.968 251.392 266.081 251.237 266.208C251.082 266.335 250.926 266.526 250.771 266.78C250.63 267.02 250.559 267.31 250.559 267.649C250.559 268.214 250.75 268.658 251.131 268.983C251.526 269.308 252.062 269.471 252.74 269.471C253.601 269.471 254.37 269.216 255.047 268.708C255.725 268.199 256.064 267.599 256.064 266.907V264.916Z" fill="black"/>
<path d="M275.866 255.848V257.395C272.592 261.138 270.68 265.537 270.129 270.593H268.139C268.309 268.277 268.916 265.982 269.96 263.708C271.018 261.434 272.373 259.386 274.025 257.564H266.171V255.848H275.866Z" fill="black"/>
<path d="M282.824 255.573C283.727 255.573 284.496 255.742 285.132 256.081C285.781 256.406 286.275 256.809 286.613 257.289C286.952 257.769 287.22 258.398 287.418 259.174C287.615 259.937 287.735 260.629 287.778 261.251C287.82 261.858 287.841 262.592 287.841 263.454C287.841 264.245 287.806 264.958 287.735 265.594C287.679 266.229 287.545 266.893 287.333 267.585C287.136 268.277 286.86 268.856 286.508 269.322C286.155 269.774 285.675 270.149 285.068 270.445C284.461 270.742 283.741 270.89 282.909 270.89C282.034 270.89 281.272 270.742 280.622 270.445C279.987 270.134 279.493 269.753 279.141 269.301C278.788 268.849 278.505 268.277 278.294 267.585C278.096 266.879 277.969 266.215 277.913 265.594C277.856 264.958 277.828 264.231 277.828 263.412C277.828 262.705 277.842 262.091 277.87 261.568C277.913 261.046 277.983 260.46 278.082 259.81C278.195 259.146 278.364 258.588 278.59 258.136C278.816 257.67 279.105 257.232 279.458 256.823C279.811 256.413 280.27 256.103 280.834 255.891C281.413 255.679 282.076 255.573 282.824 255.573ZM283.988 257.437C283.65 257.268 283.262 257.183 282.824 257.183C282.387 257.183 281.998 257.268 281.66 257.437C281.321 257.593 281.046 257.776 280.834 257.988C280.622 258.2 280.439 258.518 280.284 258.941C280.128 259.351 280.016 259.697 279.945 259.979C279.889 260.262 279.839 260.672 279.797 261.208C279.754 261.731 279.733 262.105 279.733 262.331C279.733 262.543 279.733 262.903 279.733 263.412C279.733 263.906 279.74 264.315 279.754 264.64C279.769 264.965 279.804 265.389 279.86 265.911C279.917 266.434 280.016 266.872 280.157 267.225C280.298 267.564 280.474 267.91 280.686 268.263C280.898 268.602 281.187 268.863 281.554 269.047C281.935 269.216 282.372 269.301 282.866 269.301C283.29 269.301 283.664 269.223 283.988 269.068C284.327 268.913 284.602 268.729 284.814 268.517C285.026 268.305 285.202 268.009 285.343 267.627C285.499 267.232 285.611 266.893 285.682 266.611C285.753 266.314 285.802 265.926 285.83 265.445C285.873 264.951 285.894 264.591 285.894 264.365C285.908 264.125 285.915 263.779 285.915 263.327C285.915 262.832 285.915 262.479 285.915 262.268C285.915 262.056 285.894 261.688 285.851 261.166C285.809 260.643 285.753 260.241 285.682 259.958C285.626 259.676 285.52 259.33 285.364 258.92C285.209 258.511 285.026 258.2 284.814 257.988C284.602 257.776 284.327 257.593 283.988 257.437Z" fill="black"/>
<path d="M304.114 255.107L295.667 271.314H294.227L302.717 255.107H304.114ZM294.185 255.531C295.258 255.531 296.076 255.877 296.641 256.569C297.219 257.261 297.509 258.263 297.509 259.577C297.509 261.018 297.219 262.119 296.641 262.882C296.062 263.645 295.215 264.026 294.1 264.026C291.828 264.026 290.692 262.599 290.692 259.746C290.692 258.405 290.996 257.367 291.602 256.632C292.209 255.898 293.07 255.531 294.185 255.531ZM295.921 259.662C295.921 257.727 295.314 256.759 294.1 256.759C292.887 256.759 292.28 257.79 292.28 259.852C292.28 261.83 292.887 262.818 294.1 262.818C295.314 262.818 295.921 261.766 295.921 259.662ZM304.728 262.416C305.8 262.416 306.619 262.762 307.183 263.454C307.762 264.146 308.051 265.149 308.051 266.462C308.051 267.903 307.762 269.005 307.183 269.767C306.605 270.53 305.758 270.911 304.643 270.911C302.371 270.911 301.235 269.485 301.235 266.632C301.235 265.29 301.538 264.252 302.145 263.517C302.752 262.783 303.613 262.416 304.728 262.416ZM306.464 266.547C306.464 264.612 305.857 263.645 304.643 263.645C303.429 263.645 302.822 264.676 302.822 266.738C302.822 268.715 303.429 269.704 304.643 269.704C305.857 269.704 306.464 268.651 306.464 266.547Z" fill="black"/>
<path d="M314 268.242V270.593H311.65V268.242H314Z" fill="black"/>
</svg>
