<svg width="1261" height="123" viewBox="0 0 1261 123" fill="none" xmlns="http://www.w3.org/2000/svg">
<path d="M0 120.096V24.981H12.6083V109.142H54.9937V24.981H67.602V109.142H109.987V24.981H122.596V120.096H0Z" fill="black"/>
<path d="M164.559 123C160.282 123 156.589 122.274 153.478 120.822C150.465 119.467 147.987 117.531 146.043 115.014C144.099 112.497 142.641 109.544 141.669 106.156C140.697 102.768 140.211 99.0412 140.211 94.9755C140.211 90.0385 140.94 84.8112 142.398 79.2934C143.953 73.7756 146.091 68.3546 148.813 63.0305C151.534 57.7063 154.79 52.6241 158.581 47.784C162.372 42.847 166.503 38.5393 170.974 34.8607C175.542 31.1822 180.402 28.2781 185.553 26.1485C190.704 23.922 196.002 22.8088 201.445 22.8088C205.624 22.8088 209.269 23.5348 212.379 24.9868C215.489 26.3421 218.017 28.2781 219.96 30.795C221.904 33.3119 223.362 36.2644 224.334 39.6525C225.306 43.0406 225.792 46.7675 225.792 50.8333C225.792 55.7702 225.015 60.9976 223.46 66.5154C222.002 72.0331 219.912 77.4541 217.19 82.7783C214.469 88.1025 211.213 93.233 207.422 98.17C203.632 103.01 199.452 107.269 194.884 110.948C190.413 114.627 185.602 117.579 180.45 119.805C175.299 121.935 170.002 123 164.559 123ZM170.39 118.353C174.764 118.353 178.846 117.047 182.637 114.433C186.428 111.722 189.83 108.238 192.843 103.978C195.953 99.7188 198.674 94.9755 201.007 89.7481C203.437 84.4239 205.478 79.1482 207.131 73.9208C208.783 68.5966 209.998 63.6113 210.775 58.9647C211.65 54.2214 212.088 50.3492 212.088 47.3483C212.088 44.5411 211.796 41.879 211.213 39.3621C210.727 36.8452 209.852 34.6671 208.589 32.8279C207.325 30.8918 205.575 29.3914 203.34 28.3265C201.202 27.1649 198.48 26.5841 195.175 26.5841C190.899 26.5841 186.865 27.9393 183.074 30.6498C179.381 33.2635 175.979 36.7 172.869 40.9593C169.856 45.2187 167.134 50.0104 164.704 55.3346C162.372 60.562 160.379 65.8377 158.727 71.1619C157.172 76.3893 155.957 81.3746 155.082 86.118C154.304 90.7646 153.916 94.5883 153.916 97.5892C153.916 100.396 154.159 103.059 154.645 105.575C155.228 108.092 156.103 110.319 157.269 112.255C158.532 114.094 160.233 115.595 162.372 116.756C164.51 117.821 167.183 118.353 170.39 118.353Z" fill="black"/>
<path d="M314.143 24.981V120.096H301.535V35.9353H251.102V120.096H238.494V24.981H314.143Z" fill="black"/>
<path d="M416.174 84.1606C415.101 96.1836 410.898 105.579 403.566 112.348C396.323 119.027 386.755 122.367 374.862 122.367C361.27 122.367 350.495 117.914 342.536 109.008C334.578 100.013 330.598 87.9011 330.598 72.6721C330.598 58.4226 334.578 46.5778 342.536 37.1376C350.584 27.6083 361.672 22.8436 375.801 22.8436C385.905 22.8436 394.802 25.5599 402.493 30.9925C410.183 36.4251 414.475 43.9506 415.369 53.5689H402.761C401.33 47.3348 398.2 42.4811 393.372 39.0078C388.543 35.4454 382.597 33.6643 375.532 33.6643C364.891 33.6643 356.843 37.4047 351.389 44.8857C346.023 52.3666 343.341 61.5842 343.341 72.5385C343.341 84.6505 346.202 94.1798 351.925 101.126C357.648 108.073 365.472 111.546 375.398 111.546C383.535 111.546 390.018 109.231 394.847 104.6C399.676 99.8795 402.582 93.0665 403.566 84.1606H416.174Z" fill="black"/>
<path d="M509.62 24.981L469.381 63.1873L511.23 120.096H495.134L460.528 71.7369L444.701 86.6988V120.096H432.093V24.981H444.701V72.1377L493.122 24.981H509.62Z" fill="black"/>
<path d="M521.557 120.096V24.981H534.165V105.535H534.433L581.245 24.981H597.207V120.096H584.598V39.275H584.33L537.384 120.096H521.557Z" fill="black"/>
<path d="M676.301 0C675.407 5.61071 673.216 10.1082 669.728 13.4924C666.33 16.7876 661.815 18.4352 656.181 18.4352C650.727 18.4352 646.121 16.7431 642.366 13.3588C638.7 9.88554 636.509 5.43259 635.793 0H642.634C644.691 6.94659 649.162 10.4199 656.047 10.4199C662.664 10.4199 667.135 6.94659 669.46 0H676.301ZM618.356 120.096V24.981H630.965V105.535H631.233L678.045 24.981H694.006V120.096H681.398V39.275H681.13L634.184 120.096H618.356Z" fill="black"/>
<path d="M752.487 120.096V24.981H765.096V109.142H807.481V24.981H820.089V109.142H862.475V24.981H875.083V120.096H752.487Z" fill="black"/>
<path d="M936.681 22.71C951.168 22.71 962.435 27.252 970.482 36.336C978.53 45.331 982.554 57.1313 982.554 71.7369C982.554 86.4316 978.575 98.5437 970.617 108.073C962.658 117.602 951.391 122.367 936.816 122.367C929.394 122.367 922.732 121.031 916.83 118.359C910.928 115.687 906.1 111.992 902.344 107.271C898.678 102.551 895.861 97.1632 893.894 91.1072C892.016 85.0512 891.077 78.5054 891.077 71.4698C891.077 56.5969 895.19 44.7521 903.417 35.9353C911.733 27.1184 922.821 22.71 936.681 22.71ZM936.681 33.6643C926.04 33.6643 917.858 37.4047 912.135 44.8857C906.502 52.2776 903.685 61.4506 903.685 72.4049C903.685 84.3388 906.681 93.8681 912.672 100.993C918.753 108.028 926.845 111.546 936.95 111.546C946.965 111.546 954.968 107.984 960.959 100.859C966.95 93.7345 969.946 84.2497 969.946 72.4049C969.946 60.6491 966.906 51.2534 960.825 44.2177C954.834 37.1821 946.786 33.6643 936.681 33.6643Z" fill="black"/>
<path d="M1074 24.981V120.096H1061.39V35.9353H1010.96V120.096H998.35V24.981H1074Z" fill="black"/>
<path d="M1152.23 69.2322C1151.26 70.2085 1151.26 71.7914 1152.23 72.7678L1168.14 88.6777C1169.12 89.654 1170.7 89.654 1171.68 88.6777C1172.65 87.7014 1172.65 86.1184 1171.68 85.1421L1157.54 71L1171.68 56.8579C1172.65 55.8815 1172.65 54.2986 1171.68 53.3223C1170.7 52.346 1169.12 52.346 1168.14 53.3223L1152.23 69.2322ZM1261 68.5L1154 68.5L1154 73.5L1261 73.5L1261 68.5Z" fill="black"/>
</svg>
