<svg width="1543" height="291" viewBox="0 0 1543 291" fill="none" xmlns="http://www.w3.org/2000/svg">
<path d="M850.05 222.169C851.029 221.195 851.034 219.612 850.061 218.633L834.198 202.676C833.225 201.696 831.642 201.692 830.663 202.665C829.684 203.638 829.679 205.221 830.652 206.201L844.752 220.385L830.568 234.485C829.588 235.458 829.584 237.041 830.557 238.02C831.53 239 833.113 239.004 834.092 238.031L850.05 222.169ZM739.714 222.57L848.28 222.896L848.295 217.896L739.729 217.57L739.714 222.57Z" fill="black"/>
<path d="M665.603 222.169C666.583 221.195 666.587 219.612 665.614 218.633L649.752 202.676C648.778 201.696 647.196 201.692 646.216 202.665C645.237 203.638 645.232 205.221 646.206 206.201L660.305 220.385L646.121 234.485C645.142 235.458 645.137 237.041 646.11 238.02C647.084 239 648.667 239.004 649.646 238.031L665.603 222.169ZM555.267 222.57L663.833 222.896L663.848 217.896L555.282 217.57L555.267 222.57Z" fill="black"/>
<path d="M75.7996 2.30161V98.6984H63.1663V13.4035H12.6333V98.6984H0V2.30161H75.7996Z" fill="black"/>
<path d="M137.31 0C151.825 0 163.114 4.60322 171.178 13.8097C179.242 22.9258 183.274 34.8852 183.274 49.6877C183.274 64.5804 179.287 76.8557 171.312 86.5134C163.338 96.1711 152.049 101 137.445 101C130.008 101 123.333 99.6461 117.419 96.9383C111.506 94.2306 106.668 90.4848 102.905 85.7011C99.2311 80.9173 96.4088 75.4567 94.4376 69.319C92.5561 63.1814 91.6153 56.5474 91.6153 49.4169C91.6153 34.3436 95.7368 22.3391 103.98 13.4035C112.312 4.46783 123.422 0 137.31 0ZM137.31 11.1019C126.648 11.1019 118.45 14.8928 112.716 22.4745C107.071 29.966 104.249 39.2627 104.249 50.3646C104.249 62.4593 107.25 72.1171 113.253 79.3378C119.346 86.4683 127.454 90.0335 137.579 90.0335C147.614 90.0335 155.633 86.4232 161.636 79.2024C167.639 71.9817 170.64 62.3691 170.64 50.3646C170.64 38.4504 167.594 28.9281 161.501 21.7976C155.498 14.6671 147.435 11.1019 137.31 11.1019Z" fill="black"/>
<path d="M269.659 2.30161V98.6984H257.026V13.4035H221.68L219.798 67.6944C219.44 77.8034 217.379 85.8365 213.616 91.7936C209.942 97.7507 204.611 100.729 197.623 100.729C194.755 100.729 191.709 100.097 188.484 98.8338V88.0027C189.917 88.9053 192.202 89.3566 195.338 89.3566C197.936 89.3566 199.997 88.7699 201.52 87.5965C203.133 86.3329 204.522 83.5349 205.686 79.2024C206.941 74.87 207.658 68.8226 207.837 61.0603L209.584 2.30161H269.659Z" fill="black"/>
<path d="M315.296 73.5161L280.353 2.30161H294.196L322.15 61.0603L349.567 2.30161H363.141L325.913 79.067C322.061 87.0098 318.074 92.651 313.952 95.9906C309.92 99.3302 305.44 101 300.512 101C296.212 101 292.27 100.188 288.686 98.563V87.7319C291.284 89.3566 294.868 90.1689 299.437 90.1689C304.724 90.1689 309.472 85.7462 313.683 76.9008L315.296 73.5161Z" fill="black"/>
<path d="M441.807 98.6984H429.174V55.7802C419.408 58.0366 410.538 59.1649 402.564 59.1649C397.008 59.1649 392.081 58.4879 387.78 57.1341C383.569 55.6899 380.298 53.975 377.969 51.9893C375.729 49.9133 373.892 47.4763 372.459 44.6783C371.025 41.8803 370.084 39.353 369.636 37.0965C369.188 34.7498 368.964 32.3128 368.964 29.7855V2.30161H381.598V28.7024C381.598 30.5979 381.687 32.3128 381.866 33.8472C382.135 35.2913 382.673 36.9611 383.479 38.8566C384.286 40.6618 385.406 42.1962 386.839 43.4598C388.273 44.7234 390.333 45.8065 393.021 46.7091C395.709 47.5215 398.89 47.9276 402.564 47.9276C410.627 47.9276 419.497 46.8445 429.174 44.6783V2.30161H441.807V98.6984Z" fill="black"/>
<path d="M462.906 98.6984V2.30161H475.54V83.941H475.809L522.713 2.30161H538.706V98.6984H526.073V16.7882H525.804L478.765 98.6984H462.906Z" fill="black"/>
<path d="M626.289 2.30161V13.4035H594.169V98.6984H581.535V13.4035H549.415V2.30161H626.289Z" fill="black"/>
<path d="M703.328 2.30161V13.4035H649.704V43.5952H699.834V54.2909H649.704V87.5965H704V98.6984H637.071V2.30161H703.328Z" fill="black"/>
<path d="M1035.74 231.369C1034.66 243.402 1030.45 252.806 1023.1 259.58C1015.85 266.265 1006.26 269.608 994.346 269.608C980.729 269.608 969.933 265.151 961.96 256.238C953.987 247.235 950 235.113 950 219.871C950 205.609 953.987 193.754 961.96 184.306C970.023 174.769 981.132 170 995.287 170C1005.41 170 1014.32 172.719 1022.03 178.156C1029.73 183.593 1034.03 191.125 1034.93 200.751H1022.3C1020.86 194.512 1017.73 189.654 1012.89 186.178C1008.05 182.613 1002.1 180.83 995.018 180.83C984.357 180.83 976.294 184.573 970.829 192.061C965.454 199.548 962.766 208.773 962.766 219.737C962.766 231.859 965.633 241.397 971.367 248.349C977.1 255.302 984.939 258.778 994.884 258.778C1003.04 258.778 1009.53 256.46 1014.37 251.825C1019.21 247.101 1022.12 240.283 1023.1 231.369H1035.74Z" fill="black"/>
<path d="M1129.36 172.139L1089.04 210.378L1130.97 267.335H1114.84L1080.17 218.935L1064.32 233.909V267.335H1051.68V172.139H1064.32V219.336L1112.83 172.139H1129.36Z" fill="black"/>
<path d="M1135.05 265.591C1137.78 265.106 1139.97 264.67 1141.63 264.283C1143.28 263.895 1144.6 263.411 1145.57 262.83C1146.64 262.248 1147.47 261.473 1148.05 260.504C1148.73 259.439 1149.46 258.034 1150.24 256.29C1150.73 255.224 1151.7 252.754 1153.17 248.878C1154.63 244.906 1156.33 240.255 1158.28 234.927C1160.23 229.501 1162.27 223.785 1164.41 217.778C1166.55 211.674 1168.5 206.006 1170.26 200.775C1172.01 195.446 1173.47 190.892 1174.64 187.114C1175.81 183.335 1176.39 181.01 1176.39 180.138C1176.39 178.2 1175.32 176.892 1173.18 176.214C1171.03 175.536 1168.36 174.906 1165.14 174.325V172.29C1168.45 172.484 1171.72 172.629 1174.93 172.726C1178.24 172.823 1181.55 172.872 1184.86 172.872C1188.37 172.872 1191.82 172.823 1195.23 172.726C1198.74 172.629 1202.24 172.484 1205.75 172.29V174.325C1203.51 174.616 1201.51 175.003 1199.76 175.488C1198.11 175.875 1196.6 176.505 1195.23 177.377C1193.97 178.249 1192.8 179.411 1191.73 180.865C1190.66 182.221 1189.68 183.965 1188.81 186.097C1186.66 191.328 1184.42 196.948 1182.09 202.955C1179.85 208.865 1177.95 214.484 1176.39 219.813C1176.1 220.878 1175.56 222.477 1174.78 224.608C1174 226.74 1173.13 229.162 1172.15 231.875C1171.18 234.588 1170.16 237.446 1169.09 240.449C1168.02 243.453 1167.04 246.262 1166.17 248.878L1232.19 181.446C1232.29 181.252 1232.33 181.01 1232.33 180.719C1232.33 179.46 1231.9 178.443 1231.02 177.667C1230.14 176.892 1229.07 176.311 1227.81 175.924C1226.64 175.439 1225.37 175.1 1224.01 174.906C1222.74 174.713 1221.62 174.519 1220.65 174.325V172.29C1224.15 172.484 1227.66 172.629 1231.17 172.726C1234.67 172.823 1238.18 172.872 1241.68 172.872C1244.99 172.872 1248.3 172.823 1251.62 172.726C1254.93 172.533 1258.24 172.387 1261.55 172.29V174.325C1259.02 174.712 1256.78 175.294 1254.83 176.069C1252.88 176.747 1250.79 177.813 1248.55 179.266C1248.06 179.654 1247.23 181.058 1246.06 183.481C1244.99 185.903 1243.73 189.003 1242.27 192.782C1240.81 196.463 1239.2 200.629 1237.45 205.28C1235.79 209.93 1234.09 214.678 1232.33 219.522C1230.58 224.269 1228.93 228.968 1227.37 233.619C1225.81 238.172 1224.4 242.338 1223.13 246.117C1221.96 249.799 1220.99 252.85 1220.21 255.273C1219.53 257.598 1219.19 258.954 1219.19 259.342C1219.19 260.408 1219.72 261.376 1220.79 262.248C1221.96 263.023 1223.28 263.702 1224.74 264.283C1226.2 264.767 1227.66 265.155 1229.12 265.446C1230.58 265.736 1231.7 265.882 1232.48 265.882V267.916C1229.27 267.722 1226.05 267.577 1222.84 267.48C1219.72 267.383 1216.56 267.335 1213.35 267.335C1209.64 267.335 1205.9 267.383 1202.1 267.48C1198.3 267.577 1194.55 267.722 1190.85 267.916V265.882C1193.67 265.494 1195.91 265.106 1197.57 264.719C1199.32 264.234 1200.78 263.508 1201.95 262.539C1203.12 261.473 1204.14 260.068 1205.02 258.324C1205.9 256.484 1206.92 254.013 1208.09 250.913L1219.33 219.813C1219.63 218.844 1220.16 217.197 1220.94 214.871C1221.82 212.449 1222.79 209.785 1223.86 206.878C1224.93 203.875 1226 200.823 1227.08 197.723C1228.24 194.526 1229.27 191.619 1230.14 189.003L1163.83 256.581C1163.24 258.518 1162.95 259.826 1162.95 260.504C1162.95 261.376 1163.39 262.151 1164.27 262.83C1165.24 263.508 1166.31 264.089 1167.48 264.574C1168.65 264.961 1169.82 265.3 1170.99 265.591C1172.15 265.785 1173.03 265.882 1173.61 265.882V267.916C1170.5 267.722 1167.33 267.577 1164.12 267.48C1160.91 267.383 1157.74 267.335 1154.63 267.335C1151.41 267.335 1148.15 267.383 1144.84 267.48C1141.63 267.577 1138.36 267.722 1135.05 267.916V265.591Z" fill="black"/>
<path d="M1344.65 291H1332.42V267.335H1263.22V291H1250.99V256.371H1260.39C1264.07 249.864 1267.07 240.55 1269.4 228.428C1271.73 216.216 1272.89 203.604 1272.89 190.59V172.139H1334.04V256.371H1344.65V291ZM1321.4 256.371V183.103H1285.25V196.072C1285.25 207.57 1284.18 218.979 1282.03 230.299C1279.97 241.53 1277.42 250.221 1274.37 256.371H1321.4Z" fill="black"/>
<path d="M1435.05 172.139L1394.73 210.378L1436.66 267.335H1420.53L1385.86 218.935L1370.01 233.909V267.335H1357.37V172.139H1370.01V219.336L1418.52 172.139H1435.05Z" fill="black"/>
<path d="M1471.2 242.466L1436.26 172.139H1450.1L1478.05 230.166L1505.46 172.139H1519.04L1481.81 247.948C1477.96 255.792 1473.97 261.363 1469.85 264.661C1465.82 267.959 1461.34 269.608 1456.41 269.608C1452.11 269.608 1448.17 268.806 1444.59 267.201V256.505C1447.19 258.109 1450.77 258.912 1455.34 258.912C1460.62 258.912 1465.37 254.544 1469.58 245.809L1471.2 242.466Z" fill="black"/>
<path d="M1542.33 172.139V201.286L1538.97 243.67H1532.79L1529.7 201.286V172.139H1542.33ZM1543 253.831V267.335H1528.89V253.831H1543Z" fill="black"/>
</svg>
