<svg width="342" height="333" viewBox="0 0 342 333" fill="none" xmlns="http://www.w3.org/2000/svg">
<path d="M219.172 50.6309L217.555 113.51L281.519 102.421L241.793 151.208L301.498 178.676L238.836 194.736L271.478 250.27L209.816 227.469L202.925 289.857L165.815 236.903L122.025 282.314L123.642 219.435L59.6785 230.525L99.4048 181.737L39.6996 154.269L102.361 138.209L69.7197 82.6751L131.382 105.476L138.272 43.0888L175.382 96.0424L219.172 50.6309Z" fill="#EBFC1D"/>
<path d="M107.634 160.806L107.019 160.921L107.023 161.548L107.257 197.831L107.263 198.729L108.146 198.563L147.169 191.232L147.784 191.117L147.781 190.491L147.57 154.203L147.565 153.305L146.682 153.471L139.822 154.759L139.206 154.875L139.21 155.502L139.416 184.886L131.658 186.343L131.477 157.226L131.471 156.328L130.588 156.494L123.728 157.783L123.112 157.898L123.117 158.525L123.322 187.909L115.587 189.362L115.383 160.249L115.377 159.351L114.494 159.517L107.634 160.806ZM154.177 158.545L154.175 158.551C153.394 160.161 152.805 161.847 152.408 163.606C152.012 165.362 151.808 167.149 151.795 168.967C151.779 170.763 151.933 172.522 152.256 174.242C152.477 175.416 152.811 176.607 153.258 177.814L153.258 177.814L153.262 177.825C153.727 179.026 154.32 180.184 155.04 181.298L155.04 181.298L155.045 181.305C155.787 182.425 156.667 183.457 157.682 184.401L157.682 184.401L157.691 184.409C158.738 185.35 159.932 186.119 161.27 186.718L161.274 186.72C162.638 187.32 164.151 187.709 165.806 187.896C167.486 188.085 169.33 187.984 171.333 187.608C173.506 187.199 175.452 186.519 177.162 185.559C178.859 184.624 180.332 183.487 181.574 182.149C182.809 180.818 183.822 179.339 184.609 177.714C185.407 176.1 186.004 174.412 186.401 172.652C186.797 170.897 187.003 169.118 187.019 167.315L187.019 167.314C187.031 165.502 186.876 163.736 186.553 162.016C186.332 160.839 185.989 159.648 185.526 158.443C185.072 157.219 184.476 156.056 183.74 154.956C182.996 153.834 182.108 152.811 181.08 151.885C180.045 150.924 178.855 150.144 177.516 149.545C176.164 148.94 174.649 148.55 172.978 148.367C171.299 148.178 169.463 148.277 167.476 148.65C165.303 149.058 163.357 149.738 161.647 150.699C159.95 151.634 158.477 152.77 157.235 154.109C156 155.439 154.981 156.919 154.177 158.545ZM177.383 173.202L177.381 173.21C177.067 174.32 176.6 175.339 175.98 176.271C175.369 177.187 174.59 177.98 173.635 178.649C172.711 179.297 171.558 179.762 170.154 180.026C169.145 180.216 168.155 180.235 167.182 180.086C166.24 179.922 165.366 179.57 164.554 179.024C163.757 178.488 163.048 177.731 162.433 176.73C161.827 175.731 161.37 174.471 161.08 172.93C160.913 172.041 160.788 171.041 160.707 169.928C160.64 168.812 160.655 167.67 160.752 166.502C160.865 165.342 161.082 164.192 161.404 163.054C161.731 161.925 162.205 160.906 162.825 159.993L162.825 159.993L162.829 159.987C163.44 159.071 164.219 158.278 165.174 157.609C166.098 156.961 167.251 156.496 168.655 156.232C169.663 156.043 170.643 156.033 171.601 156.199L171.608 156.2L171.616 156.201C172.568 156.347 173.446 156.69 174.255 157.234C175.052 157.77 175.762 158.527 176.377 159.529C176.978 160.51 177.436 161.769 177.729 163.328C177.895 164.214 178.014 165.222 178.082 166.354L178.083 166.363C178.162 167.456 178.146 168.587 178.033 169.755L178.033 169.755L178.032 169.765C177.936 170.918 177.719 172.064 177.383 173.202ZM191.806 144.994L191.189 145.11L191.194 145.737L191.476 182.011L191.483 182.908L192.365 182.743L199.604 181.383L200.224 181.266L200.216 180.636L200.084 170.221L202.939 166.021L212.251 178.577L212.531 178.954L212.992 178.868L221.11 177.343L222.314 177.117L221.565 176.147L207.893 158.443L219.322 141.119L220.296 139.642L218.557 139.969L209.514 141.668L209.197 141.727L209.022 141.998L199.804 156.252L199.839 144.391L199.842 143.485L198.951 143.652L191.806 144.994ZM229.457 137.946L228.86 138.058L228.846 138.665L228.625 147.949L228.624 147.994L228.628 148.038L230.22 164.741L230.298 165.559L231.105 165.407L234.642 164.743L235.176 164.643L235.247 164.104L237.548 146.67L237.553 146.63L237.554 146.589L237.775 137.305L237.797 136.38L236.887 136.551L229.457 137.946ZM228.96 167.2L228.361 167.313L228.349 167.921L228.197 175.092L228.178 176.015L229.086 175.845L236.159 174.516L236.758 174.403L236.771 173.794L236.922 166.624L236.941 165.701L236.034 165.871L228.96 167.2Z" fill="#FF8BDD" stroke="black" stroke-width="1.5"/>
</svg>
