<svg width="1587" height="968" viewBox="0 0 1587 968" fill="none" xmlns="http://www.w3.org/2000/svg">
<path d="M793.5 1.86011L936.894 226.763L937.334 227.454L938.098 227.158L1281.41 94.2838L1170.22 324.251L1169.54 325.65L1171.09 325.686L1581.85 335.334L1259.84 483.091L1257.86 484L1259.84 484.909L1581.85 632.666L1171.09 642.314L1169.54 642.35L1170.22 643.749L1281.41 873.716L938.098 740.842L937.334 740.546L936.894 741.237L793.5 966.14L650.106 741.237L649.666 740.546L648.902 740.842L305.585 873.716L416.784 643.749L417.46 642.35L415.907 642.314L5.14908 632.666L327.157 484.909L329.138 484L327.157 483.091L5.14915 335.334L415.907 325.686L417.46 325.65L416.784 324.251L305.585 94.2838L648.902 227.158L649.666 227.454L650.106 226.763L793.5 1.86011Z" fill="#D597C3" stroke="black" stroke-width="2"/>
</svg>
