<svg width="588" height="588" viewBox="0 0 588 588" fill="none" xmlns="http://www.w3.org/2000/svg">
<path d="M373.925 225.839L373.28 227.52L375.048 227.179L481.581 206.643L397.283 274.942L395.884 276.075L397.585 276.664L500.113 312.146L392.959 329.146L391.181 329.428L392.36 330.788L463.412 412.78L362.113 373.926L360.433 373.281L360.773 375.049L381.309 481.582L313.01 397.283L311.877 395.885L311.288 397.586L275.806 500.114L258.806 392.96L258.524 391.182L257.164 392.361L175.172 463.412L214.026 362.114L214.671 360.433L212.904 360.774L106.371 381.31L190.669 313.011L192.068 311.878L190.366 311.289L87.838 275.807L194.992 258.807L196.77 258.525L195.591 257.165L124.54 175.173L225.838 214.027L227.519 214.672L227.178 212.904L206.642 106.371L274.941 190.67L276.075 192.068L276.663 190.367L312.145 87.8388L329.145 194.993L329.427 196.771L330.787 195.592L412.78 124.541L373.925 225.839Z" fill="white" stroke="black" stroke-width="2"/>
</svg>
