<svg width="479" height="479" viewBox="0 0 479 479" fill="none" xmlns="http://www.w3.org/2000/svg">
<path d="M304.287 183.706L303.642 185.387L305.41 185.046L391.327 168.484L323.342 223.566L321.943 224.699L323.644 225.288L406.332 253.903L319.914 267.613L318.136 267.895L319.315 269.256L376.616 335.381L294.921 304.045L293.241 303.401L293.581 305.168L310.143 391.085L255.061 323.1L253.928 321.702L253.339 323.403L224.724 406.09L211.014 319.672L210.732 317.894L209.371 319.073L143.246 376.375L174.582 294.68L175.226 292.999L173.459 293.34L87.5421 309.902L155.527 254.819L156.926 253.686L155.224 253.097L72.5374 224.482L158.955 210.772L160.733 210.49L159.554 209.13L102.253 143.005L183.948 174.34L185.628 174.985L185.288 173.217L168.726 87.3004L223.808 155.285L224.941 156.684L225.53 154.983L254.145 72.2957L267.855 158.713L268.137 160.491L269.498 159.312L335.623 102.011L304.287 183.706Z" fill="white" stroke="black" stroke-width="2"/>
</svg>
