<svg width="565" height="479" viewBox="0 0 565 479" fill="none" xmlns="http://www.w3.org/2000/svg">
<path d="M336.948 165.609L438.72 125.279L381.55 201.301L380.443 202.774L382.281 202.9L503.958 211.234L401.077 248.277L398.873 249.071L400.97 250.114L510.06 304.357L388.763 292.953L386.432 292.734L387.886 294.57L455.79 380.277L347.995 323.225L346.366 322.363L346.531 324.199L355.044 418.936L289.815 331.021L288.981 329.897L288.188 331.05L234.304 409.385L229.802 314.414L229.736 313.016L228.435 313.531L126.664 353.861L183.833 277.839L184.941 276.366L183.102 276.24L61.4252 267.906L164.306 230.863L166.51 230.069L164.413 229.026L55.3234 174.783L176.62 186.186L178.952 186.406L177.497 184.57L109.593 98.8625L217.388 155.915L219.017 156.777L218.852 154.941L210.339 60.2036L275.568 148.119L276.402 149.243L277.195 148.09L331.079 69.7553L335.581 164.726L335.647 166.124L336.948 165.609Z" fill="#EBFF00" stroke="black" stroke-width="2"/>
</svg>
