<svg width="347" height="346" viewBox="0 0 347 346" fill="none" xmlns="http://www.w3.org/2000/svg">
<path d="M219.941 132.676L219.297 134.357L221.064 134.017L282.028 122.265L233.788 161.349L232.39 162.482L234.091 163.071L292.763 183.376L231.444 193.104L229.666 193.386L230.845 194.746L271.504 241.667L213.536 219.432L211.855 218.787L212.196 220.555L223.948 281.519L184.863 233.279L183.73 231.88L183.141 233.581L162.837 292.253L153.108 230.934L152.826 229.156L151.466 230.335L104.546 270.995L126.78 213.026L127.425 211.346L125.657 211.686L64.6935 223.438L112.933 184.354L114.332 183.22L112.631 182.632L53.9588 162.327L115.278 152.599L117.056 152.317L115.877 150.956L75.2178 104.036L133.186 126.271L134.867 126.916L134.526 125.148L122.774 64.1841L161.859 112.424L162.992 113.823L163.581 112.121L183.885 53.4493L193.613 114.769L193.895 116.547L195.256 115.368L242.176 74.7083L219.941 132.676Z" fill="#EBFF00" stroke="black" stroke-width="2"/>
</svg>
