<svg width="987" height="842" viewBox="0 0 987 842" fill="none" xmlns="http://www.w3.org/2000/svg">
<path d="M575.16 110.146L630.18 251.045L630.452 251.742L631.198 251.677L812.307 235.952L751.326 360.908L750.853 361.875L751.854 362.275L927.321 432.347L774.191 493.988L772.943 494.491L773.785 495.541L877.016 624.349L689.731 599.379L688.664 599.237L688.601 600.312L680.475 739.116L530.345 636.604L529.727 636.182L529.147 636.656L412.107 732.474L357.087 591.575L356.815 590.878L356.069 590.943L174.96 606.669L235.941 481.713L236.414 480.745L235.413 480.345L59.9458 410.273L213.076 348.632L214.324 348.13L213.483 347.079L110.251 218.271L297.536 243.241L298.603 243.384L298.666 242.308L306.792 103.504L456.922 206.016L457.54 206.438L458.12 205.964L575.16 110.146Z" fill="#D597C3" stroke="black" stroke-width="2"/>
</svg>
