<svg width="211" height="282" viewBox="0 0 211 282" fill="none" xmlns="http://www.w3.org/2000/svg">
<path d="M13.5304 9.62008C13.3621 11.5023 12.7027 12.9732 11.5524 14.0328C10.4161 15.0784 8.91507 15.6013 7.04929 15.6013C4.91696 15.6013 3.22654 14.9041 1.97801 13.5099C0.729478 12.1018 0.105213 10.2056 0.105213 7.82154C0.105213 5.5908 0.729478 3.73649 1.97801 2.25863C3.24057 0.766817 4.98009 0.0209129 7.19658 0.0209129C8.7818 0.0209129 10.1776 0.446148 11.3841 1.29662C12.5905 2.14709 13.2639 3.3252 13.4042 4.83095H11.4262C11.2017 3.855 10.7107 3.09516 9.95317 2.55141C9.19564 1.99373 8.26274 1.71488 7.1545 1.71488C5.48512 1.71488 4.22256 2.30045 3.36682 3.47159C2.52512 4.64273 2.10426 6.08574 2.10426 7.80063C2.10426 9.69676 2.55317 11.1886 3.45099 12.2761C4.34881 13.3635 5.5763 13.9073 7.13346 13.9073C8.41004 13.9073 9.4271 13.5448 10.1846 12.8198C10.9422 12.0809 11.3981 11.0143 11.5524 9.62008H13.5304Z" fill="black"/>
<path d="M22.3405 0C24.6132 0 26.3807 0.711049 27.6433 2.13315C28.9058 3.5413 29.5371 5.38864 29.5371 7.67515C29.5371 9.9756 28.9129 11.8717 27.6643 13.3635C26.4158 14.8554 24.6482 15.6013 22.3616 15.6013C21.1972 15.6013 20.1521 15.3921 19.2262 14.9739C18.3004 14.5556 17.5428 13.977 16.9536 13.2381C16.3785 12.4991 15.9366 11.6556 15.6279 10.7076C15.3333 9.7595 15.186 8.73475 15.186 7.63332C15.186 5.30498 15.8314 3.45068 17.122 2.07041C18.4266 0.690136 20.1661 0 22.3405 0ZM22.3405 1.71488C20.6712 1.71488 19.3876 2.30045 18.4897 3.47159C17.606 4.62879 17.1641 6.06483 17.1641 7.77971C17.1641 9.64796 17.634 11.1398 18.5739 12.2551C19.5278 13.3566 20.7974 13.9073 22.3826 13.9073C23.9538 13.9073 25.2094 13.3496 26.1493 12.2342C27.0892 11.1189 27.5591 9.63402 27.5591 7.77971C27.5591 5.93935 27.0822 4.46846 26.1282 3.36703C25.1883 2.2656 23.9258 1.71488 22.3405 1.71488Z" fill="black"/>
<path d="M43.0626 0.355525V15.2457H41.0846V2.07041H35.5504L35.2558 10.4566C35.1997 12.0181 34.877 13.259 34.2878 14.1792C33.7127 15.0993 32.878 15.5594 31.7838 15.5594C31.3349 15.5594 30.8579 15.4618 30.3529 15.2666V13.5936C30.5773 13.733 30.935 13.8027 31.426 13.8027C31.8329 13.8027 32.1555 13.7121 32.394 13.5308C32.6465 13.3357 32.8639 12.9035 33.0463 12.2342C33.2427 11.565 33.3549 10.6309 33.383 9.43186L33.6566 0.355525H43.0626Z" fill="black"/>
<path d="M58.2884 0.355525V15.2457H56.3104V8.28163H48.3984V15.2457H46.4204V0.355525H48.3984V6.56675H56.3104V0.355525H58.2884Z" fill="black"/>
<path d="M72.9063 18.9474V15.2457H61.4802V0.355525H63.4582V13.5308H71.2019V0.355525H73.1799V13.5308H74.8212V18.9474H72.9063Z" fill="black"/>
<path d="M87.1665 0.355525V2.07041H78.7705V6.73405H86.6194V8.3862H78.7705V13.5308H87.2717V15.2457H76.7925V0.355525H87.1665Z" fill="black"/>
<path d="M100.809 10.8958C100.809 11.3838 100.697 11.8926 100.472 12.4224C100.248 12.9383 99.9182 13.4402 99.4834 13.9282C99.0485 14.4162 98.4382 14.8135 97.6526 15.1203C96.8671 15.427 95.9763 15.5803 94.9802 15.5803C93.1004 15.5803 91.5924 15.1412 90.4561 14.2628C89.3338 13.3705 88.7727 12.06 88.7727 10.3311H90.6875C90.7296 11.5999 91.1575 12.527 91.9711 13.1126C92.7848 13.6842 93.8439 13.97 95.1486 13.97C96.2007 13.97 97.0775 13.6842 97.7789 13.1126C98.4803 12.541 98.831 11.7881 98.831 10.854C98.831 10.3381 98.7328 9.89892 98.5364 9.53642C98.34 9.17393 98.0525 8.90206 97.6737 8.72081C97.2949 8.53956 96.8951 8.41408 96.4743 8.34437C96.0674 8.27466 95.5905 8.23981 95.0434 8.23981C94.5664 8.23981 94.1175 8.25375 93.6966 8.28163V6.6504C93.9211 6.67829 94.37 6.69223 95.0434 6.69223C97.2178 6.69223 98.305 5.79993 98.305 4.01534C98.305 2.42593 97.2318 1.63123 95.0854 1.63123C92.8128 1.63123 91.5713 2.64204 91.3609 4.66365H89.446C89.5021 3.13001 90.0492 1.97281 91.0873 1.19205C92.1255 0.397351 93.4792 0 95.1486 0C96.6777 0 97.9122 0.334611 98.8521 1.00383C99.806 1.67306 100.283 2.67689 100.283 4.01534C100.283 4.76821 100.037 5.45138 99.5465 6.06483C99.0555 6.66434 98.4733 7.06169 97.7999 7.25688V7.31962C98.7539 7.50087 99.4904 7.92611 100.009 8.59533C100.543 9.26455 100.809 10.0314 100.809 10.8958Z" fill="black"/>
<path d="M109.593 0.355525L115.443 15.2457H113.233L111.571 10.6867H105.279L103.575 15.2457H101.471L107.363 0.355525H109.593ZM110.982 9.11816L108.436 2.23771L105.847 9.11816H110.982Z" fill="black"/>
<path d="M135.821 15.2457H116.82V0.355525H118.798V13.5308H125.447V0.355525H127.425V13.5308H134.075V0.355525H136.053V13.5308H137.757V18.9474H135.821V15.2457Z" fill="black"/>
<path d="M139.735 15.2457V0.355525H141.713V12.9662H141.756L149.099 0.355525H151.604V15.2457H149.626V2.59324H149.583L142.219 15.2457H139.735Z" fill="black"/>
<path d="M165.317 0.355525V2.07041H160.287V15.2457H158.309V2.07041H153.28V0.355525H165.317Z" fill="black"/>
<path d="M178.873 0.355525V15.2457H176.895V8.28163H168.983V15.2457H167.005V0.355525H168.983V6.56675H176.895V0.355525H178.873Z" fill="black"/>
<path d="M195.237 0.355525H197.215V15.2457H195.237V0.355525ZM193.364 10.833C193.364 12.2273 192.957 13.3147 192.144 14.0955C191.344 14.8623 190.215 15.2457 188.756 15.2457H182.191V0.355525H184.169V6.39944H188.756C190.229 6.39944 191.365 6.78982 192.165 7.57058C192.964 8.3374 193.364 9.42489 193.364 10.833ZM191.365 10.833C191.365 9.00662 190.271 8.09341 188.083 8.09341H184.169V13.5308H188.083C190.271 13.5308 191.365 12.6316 191.365 10.833Z" fill="black"/>
<path d="M210.895 0.355525V2.07041H202.499V6.73405H210.348V8.3862H202.499V13.5308H211V15.2457H200.521V0.355525H210.895Z" fill="black"/>
<path d="M7.1545 24.3987C9.4271 24.3987 11.1947 25.1098 12.4572 26.5319C13.7198 27.94 14.3511 29.7874 14.3511 32.0739C14.3511 34.3743 13.7268 36.2705 12.4783 37.7623C11.2298 39.2541 9.46218 40 7.17554 40C6.01118 40 4.96606 39.7909 4.04019 39.3726C3.11431 38.9543 2.35678 38.3757 1.76758 37.6368C1.19242 36.8979 0.750521 36.0544 0.441896 35.1063C0.147299 34.1582 0 33.1335 0 32.0321C0 29.7037 0.645308 27.8494 1.93592 26.4692C3.24057 25.0889 4.98009 24.3987 7.1545 24.3987ZM7.1545 26.1136C5.48512 26.1136 4.20151 26.6992 3.30369 27.8703C2.4199 29.0275 1.97801 30.4636 1.97801 32.1785C1.97801 34.0467 2.44796 35.5385 3.38787 36.6539C4.3418 37.7553 5.61137 38.306 7.19658 38.306C8.76777 38.306 10.0233 37.7483 10.9632 36.633C11.9031 35.5176 12.3731 34.0328 12.3731 32.1785C12.3731 30.3381 11.8961 28.8672 10.9422 27.7658C10.0023 26.6643 8.73971 26.1136 7.1545 26.1136Z" fill="black"/>
<path d="M27.5609 39.6445H25.5829V33.015C24.0538 33.3635 22.665 33.5378 21.4165 33.5378C20.5467 33.5378 19.7752 33.4333 19.1018 33.2241C18.4424 33.001 17.9304 32.7361 17.5657 32.4294C17.215 32.1087 16.9274 31.7323 16.7029 31.3001C16.4785 30.8679 16.3312 30.4775 16.261 30.129C16.1909 29.7665 16.1558 29.39 16.1558 28.9997V24.7543H18.1338V28.8323C18.1338 29.1251 18.1479 29.39 18.1759 29.627C18.218 29.8501 18.3022 30.1081 18.4284 30.4008C18.5547 30.6797 18.73 30.9167 18.9545 31.1119C19.1789 31.3071 19.5016 31.4744 19.9225 31.6138C20.3433 31.7393 20.8413 31.802 21.4165 31.802C22.679 31.802 24.0679 31.6347 25.5829 31.3001V24.7543H27.5609V39.6445Z" fill="black"/>
<path d="M43.0271 24.7543L36.7143 30.7354L43.2796 39.6445H40.7545L35.3255 32.0739L32.8425 34.4162V39.6445H30.8645V24.7543H32.8425V32.1366L40.4389 24.7543H43.0271Z" fill="black"/>
<path d="M44.8997 39.6445V24.7543H46.8777V37.3649H46.9198L54.2637 24.7543H56.7678V39.6445H54.7898V26.992H54.7477L47.3828 39.6445H44.8997Z" fill="black"/>
<rect x="0.5" y="239.5" width="85" height="42" stroke="black"/>
<path d="M18.3321 264.258H20.0755C20.1724 264.983 20.4561 265.555 20.9265 265.974C21.4108 266.378 22.0266 266.58 22.7738 266.58C24.6971 266.58 25.7902 264.969 26.0531 261.747C26.0808 261.454 26.0946 261.126 26.0946 260.763C25.2644 262.116 24.0675 262.793 22.5039 262.793C21.1617 262.793 20.0755 262.354 19.2453 261.475C18.4151 260.582 18 259.417 18 257.98C18 256.501 18.4497 255.302 19.3491 254.381C20.2485 253.46 21.4177 253 22.8568 253C26.233 253 27.9211 255.413 27.9211 260.24C27.9211 260.979 27.8727 261.691 27.7758 262.374C27.6928 263.044 27.5337 263.742 27.2984 264.467C27.0632 265.178 26.7588 265.799 26.3852 266.329C26.0116 266.859 25.5066 267.292 24.8701 267.627C24.2474 267.961 23.5279 268.129 22.7115 268.129C21.4662 268.129 20.4422 267.787 19.6397 267.104C18.851 266.42 18.4151 265.471 18.3321 264.258ZM22.7738 254.59C21.902 254.59 21.1963 254.897 20.6567 255.511C20.1309 256.111 19.868 256.913 19.868 257.917C19.868 258.866 20.1171 259.654 20.6152 260.282C21.1272 260.896 21.8467 261.203 22.7738 261.203C23.6732 261.203 24.3996 260.91 24.9531 260.324C25.5066 259.724 25.7833 258.936 25.7833 257.959C25.7833 256.941 25.5066 256.125 24.9531 255.511C24.3996 254.897 23.6732 254.59 22.7738 254.59Z" fill="black"/>
<path d="M34.5766 253C35.4622 253 36.2163 253.167 36.839 253.502C37.4755 253.823 37.9598 254.221 38.2919 254.695C38.624 255.169 38.8869 255.79 39.0806 256.557C39.2743 257.311 39.3919 257.994 39.4334 258.608C39.4749 259.208 39.4957 259.933 39.4957 260.784C39.4957 261.565 39.4611 262.27 39.3919 262.898C39.3366 263.525 39.2051 264.181 38.9975 264.865C38.8038 265.548 38.534 266.12 38.1881 266.58C37.8422 267.027 37.3717 267.396 36.7767 267.689C36.1817 267.982 35.476 268.129 34.6597 268.129C33.8018 268.129 33.0546 267.982 32.4181 267.689C31.7954 267.383 31.3111 267.006 30.9652 266.559C30.6193 266.113 30.3425 265.548 30.135 264.865C29.9413 264.167 29.8167 263.511 29.7614 262.898C29.706 262.27 29.6783 261.551 29.6783 260.742C29.6783 260.045 29.6922 259.438 29.7199 258.922C29.7614 258.406 29.8306 257.827 29.9274 257.185C30.0381 256.529 30.2042 255.978 30.4255 255.532C30.6469 255.072 30.9306 254.639 31.2765 254.235C31.6224 253.83 32.0721 253.523 32.6256 253.314C33.1929 253.105 33.8433 253 34.5766 253ZM35.7182 254.841C35.3861 254.674 35.0056 254.59 34.5766 254.59C34.1477 254.59 33.7672 254.674 33.4351 254.841C33.103 254.995 32.8332 255.176 32.6256 255.385C32.4181 255.595 32.2382 255.909 32.086 256.327C31.9338 256.732 31.8231 257.073 31.7539 257.352C31.6985 257.631 31.6501 258.036 31.6086 258.566C31.5671 259.082 31.5463 259.452 31.5463 259.675C31.5463 259.884 31.5463 260.24 31.5463 260.742C31.5463 261.231 31.5533 261.635 31.5671 261.956C31.5809 262.277 31.6155 262.695 31.6709 263.211C31.7262 263.728 31.8231 264.16 31.9614 264.509C32.0998 264.844 32.2728 265.185 32.4803 265.534C32.6879 265.869 32.9715 266.127 33.3313 266.308C33.7049 266.476 34.1339 266.559 34.6181 266.559C35.0333 266.559 35.3999 266.483 35.7182 266.329C36.0503 266.176 36.3201 265.994 36.5276 265.785C36.7352 265.576 36.9082 265.283 37.0465 264.906C37.1987 264.516 37.3094 264.181 37.3786 263.902C37.4478 263.609 37.4962 263.225 37.5239 262.751C37.5654 262.263 37.5862 261.907 37.5862 261.684C37.6 261.447 37.6069 261.105 37.6069 260.659C37.6069 260.17 37.6069 259.822 37.6069 259.612C37.6069 259.403 37.5862 259.04 37.5447 258.524C37.5032 258.008 37.4478 257.61 37.3786 257.331C37.3233 257.052 37.2195 256.711 37.0673 256.306C36.9151 255.902 36.7352 255.595 36.5276 255.385C36.3201 255.176 36.0503 254.995 35.7182 254.841Z" fill="black"/>
<path d="M46.1097 253C46.9953 253 47.7494 253.167 48.372 253.502C49.0085 253.823 49.4928 254.221 49.8249 254.695C50.157 255.169 50.4199 255.79 50.6136 256.557C50.8073 257.311 50.925 257.994 50.9665 258.608C51.008 259.208 51.0287 259.933 51.0287 260.784C51.0287 261.565 50.9941 262.27 50.925 262.898C50.8696 263.525 50.7382 264.181 50.5306 264.865C50.3369 265.548 50.0671 266.12 49.7211 266.58C49.3752 267.027 48.9048 267.396 48.3098 267.689C47.7148 267.982 47.0091 268.129 46.1927 268.129C45.3348 268.129 44.5876 267.982 43.9511 267.689C43.3285 267.383 42.8442 267.006 42.4982 266.559C42.1523 266.113 41.8756 265.548 41.668 264.865C41.4743 264.167 41.3498 263.511 41.2944 262.898C41.2391 262.27 41.2114 261.551 41.2114 260.742C41.2114 260.045 41.2252 259.438 41.2529 258.922C41.2944 258.406 41.3636 257.827 41.4605 257.185C41.5712 256.529 41.7372 255.978 41.9586 255.532C42.18 255.072 42.4637 254.639 42.8096 254.235C43.1555 253.83 43.6052 253.523 44.1587 253.314C44.726 253.105 45.3763 253 46.1097 253ZM47.2512 254.841C46.9192 254.674 46.5386 254.59 46.1097 254.59C45.6807 254.59 45.3002 254.674 44.9681 254.841C44.6361 254.995 44.3662 255.176 44.1587 255.385C43.9511 255.595 43.7712 255.909 43.619 256.327C43.4668 256.732 43.3561 257.073 43.287 257.352C43.2316 257.631 43.1832 258.036 43.1417 258.566C43.1002 259.082 43.0794 259.452 43.0794 259.675C43.0794 259.884 43.0794 260.24 43.0794 260.742C43.0794 261.231 43.0863 261.635 43.1002 261.956C43.114 262.277 43.1486 262.695 43.2039 263.211C43.2593 263.728 43.3561 264.16 43.4945 264.509C43.6329 264.844 43.8058 265.185 44.0134 265.534C44.2209 265.869 44.5046 266.127 44.8644 266.308C45.238 266.476 45.6669 266.559 46.1512 266.559C46.5663 266.559 46.933 266.483 47.2512 266.329C47.5833 266.176 47.8532 265.994 48.0607 265.785C48.2683 265.576 48.4412 265.283 48.5796 264.906C48.7318 264.516 48.8425 264.181 48.9117 263.902C48.9809 263.609 49.0293 263.225 49.057 262.751C49.0985 262.263 49.1192 261.907 49.1192 261.684C49.1331 261.447 49.14 261.105 49.14 260.659C49.14 260.17 49.14 259.822 49.14 259.612C49.14 259.403 49.1192 259.04 49.0777 258.524C49.0362 258.008 48.9809 257.61 48.9117 257.331C48.8563 257.052 48.7526 256.711 48.6004 256.306C48.4481 255.902 48.2683 255.595 48.0607 255.385C47.8532 255.176 47.5833 254.995 47.2512 254.841Z" fill="black"/>
<path d="M60.6589 257.039V258.566C61.4338 257.325 62.6376 256.704 64.2704 256.704C65.7648 256.704 66.9478 257.213 67.8196 258.231C68.7051 259.25 69.1479 260.631 69.1479 262.374C69.1479 264.118 68.7121 265.513 67.8403 266.559C66.9824 267.592 65.8201 268.108 64.3534 268.108C62.8175 268.108 61.6206 267.515 60.7627 266.329V272H58.9985V257.039H60.6589ZM64.0006 258.189C62.9766 258.189 62.1672 258.566 61.5722 259.319C60.991 260.059 60.7005 261.084 60.7005 262.395C60.7005 263.707 60.998 264.739 61.5929 265.492C62.2018 266.232 63.0251 266.601 64.0628 266.601C65.0729 266.601 65.8686 266.225 66.4497 265.471C67.0309 264.718 67.3214 263.693 67.3214 262.395C67.3214 261.084 67.024 260.059 66.429 259.319C65.8478 258.566 65.0383 258.189 64.0006 258.189Z" fill="black"/>
<path d="M74 265.513V267.836H71.6961V265.513H74Z" fill="black"/>
</svg>
