<svg width="952" height="62" viewBox="0 0 952 62" fill="none" xmlns="http://www.w3.org/2000/svg">
<path d="M15.7748 29.2844C15.5785 31.4923 14.8098 33.2177 13.4687 34.4606C12.1439 35.6871 10.3939 36.3004 8.2186 36.3004C5.73257 36.3004 3.76175 35.4827 2.30611 33.8473C0.850482 32.1955 0.122666 29.9713 0.122666 27.1747C0.122666 24.5581 0.850482 22.3829 2.30611 20.6494C3.7781 18.8995 5.80617 18.0245 8.39033 18.0245C10.2385 18.0245 11.8659 18.5233 13.2724 19.5209C14.679 20.5186 15.464 21.9005 15.6276 23.6668H13.3215C13.0598 22.522 12.4874 21.6306 11.6042 20.9928C10.721 20.3387 9.63334 20.0116 8.34126 20.0116C6.39497 20.0116 4.92298 20.6985 3.9253 22.0722C2.94398 23.446 2.45331 25.1386 2.45331 27.1502C2.45331 29.3744 2.97669 31.1243 4.02343 32.3999C5.07018 33.6756 6.50128 34.3134 8.31673 34.3134C9.80507 34.3134 10.9908 33.8882 11.874 33.0378C12.7572 32.171 13.2888 30.9199 13.4687 29.2844H15.7748Z" fill="black"/>
<path d="M26.0463 18C28.6959 18 30.7567 18.8341 32.2287 20.5022C33.7007 22.154 34.4367 24.3209 34.4367 27.003C34.4367 29.7015 33.7088 31.9257 32.2532 33.6756C30.7976 35.4255 28.7368 36.3004 26.0709 36.3004C24.7134 36.3004 23.4949 36.0551 22.4154 35.5645C21.336 35.0739 20.4528 34.3952 19.7658 33.5284C19.0953 32.6616 18.5801 31.6722 18.2203 30.5601C17.8768 29.448 17.7051 28.246 17.7051 26.954C17.7051 24.2228 18.4574 22.0477 19.9621 20.4286C21.4832 18.8095 23.5112 18 26.0463 18ZM26.0463 20.0116C24.1 20.0116 22.6035 20.6985 21.5568 22.0722C20.5264 23.4296 20.0112 25.1141 20.0112 27.1257C20.0112 29.3172 20.5591 31.0671 21.6549 32.3754C22.7671 33.6674 24.2472 34.3134 26.0954 34.3134C27.9272 34.3134 29.391 33.6592 30.4868 32.3509C31.5826 31.0425 32.1305 29.3008 32.1305 27.1257C32.1305 24.9669 31.5745 23.2415 30.4623 21.9496C29.3665 20.6576 27.8945 20.0116 26.0463 20.0116Z" fill="black"/>
<path d="M50.2057 18.417V35.8834H47.8996V20.4286H41.4474L41.1039 30.2657C41.0385 32.0974 40.6623 33.5529 39.9754 34.6323C39.3048 35.7117 38.3317 36.2514 37.0559 36.2514C36.5326 36.2514 35.9765 36.1369 35.3877 35.9079V33.9454C35.6494 34.109 36.0664 34.1907 36.6389 34.1907C37.1132 34.1907 37.4894 34.0844 37.7674 33.8718C38.0618 33.6429 38.3153 33.1359 38.5279 32.3509C38.7569 31.5659 38.8878 30.4701 38.9205 29.0637L39.2394 18.417H50.2057Z" fill="black"/>
<path d="M67.9571 18.417V35.8834H65.651V27.7144H56.4266V35.8834H54.1205V18.417H56.4266V25.7029H65.651V18.417H67.9571Z" fill="black"/>
<path d="M84.9998 40.2255V35.8834H71.6783V18.417H73.9844V33.8718H83.0126V18.417H85.3187V33.8718H87.2323V40.2255H84.9998Z" fill="black"/>
<path d="M101.625 18.417V20.4286H91.8367V25.8991H100.988V27.8371H91.8367V33.8718H101.748V35.8834H89.5306V18.417H101.625Z" fill="black"/>
<path d="M117.531 30.7809C117.531 31.3533 117.4 31.9502 117.138 32.5717C116.877 33.1768 116.492 33.7655 115.985 34.3379C115.478 34.9103 114.767 35.3764 113.851 35.7362C112.935 36.096 111.896 36.2759 110.735 36.2759C108.544 36.2759 106.785 35.7607 105.461 34.7304C104.152 33.6837 103.498 32.1464 103.498 30.1185H105.73C105.78 31.6068 106.278 32.6943 107.227 33.3812C108.176 34.0517 109.41 34.387 110.932 34.387C112.158 34.387 113.18 34.0517 113.998 33.3812C114.816 32.7107 115.225 31.8275 115.225 30.7318C115.225 30.1267 115.11 29.6115 114.881 29.1863C114.652 28.7611 114.317 28.4422 113.875 28.2296C113.434 28.017 112.968 27.8698 112.477 27.788C112.003 27.7063 111.447 27.6654 110.809 27.6654C110.253 27.6654 109.729 27.6817 109.239 27.7144V25.801C109.5 25.8337 110.024 25.8501 110.809 25.8501C113.344 25.8501 114.611 24.8034 114.611 22.71C114.611 20.8456 113.36 19.9135 110.858 19.9135C108.208 19.9135 106.761 21.0991 106.516 23.4705H104.283C104.348 21.6715 104.986 20.3141 106.197 19.3983C107.407 18.4661 108.985 18 110.932 18C112.714 18 114.154 18.3925 115.249 19.1775C116.362 19.9625 116.918 21.14 116.918 22.71C116.918 23.5932 116.631 24.3945 116.059 25.1141C115.486 25.8173 114.808 26.2834 114.023 26.5124V26.586C115.135 26.7986 115.994 27.2974 116.599 28.0824C117.22 28.8674 117.531 29.7669 117.531 30.7809Z" fill="black"/>
<path d="M127.772 18.417L134.592 35.8834H132.016L130.078 30.5356H122.743L120.756 35.8834H118.302L125.171 18.417H127.772ZM129.391 28.6957L126.423 20.6249L123.405 28.6957H129.391Z" fill="black"/>
<path d="M158.351 35.8834H136.198V18.417H138.504V33.8718H146.256V18.417H148.562V33.8718H156.315V18.417H158.621V33.8718H160.608V40.2255H158.351V35.8834Z" fill="black"/>
<path d="M162.914 35.8834V18.417H165.22V33.2095H165.27L173.832 18.417H176.751V35.8834H174.445V21.0419H174.396L165.809 35.8834H162.914Z" fill="black"/>
<path d="M192.739 18.417V20.4286H186.875V35.8834H184.569V20.4286H178.706V18.417H192.739Z" fill="black"/>
<path d="M208.543 18.417V35.8834H206.237V27.7144H197.013V35.8834H194.707V18.417H197.013V25.7029H206.237V18.417H208.543Z" fill="black"/>
<path d="M227.622 18.417H229.928V35.8834H227.622V18.417ZM225.439 30.7073C225.439 32.3427 224.965 33.6183 224.016 34.5342C223.084 35.4337 221.767 35.8834 220.066 35.8834H212.412V18.417H214.718V25.5066H220.066C221.783 25.5066 223.108 25.9645 224.041 26.8804C224.973 27.7799 225.439 29.0555 225.439 30.7073ZM223.108 30.7073C223.108 28.5649 221.833 27.4937 219.281 27.4937H214.718V33.8718H219.281C221.833 33.8718 223.108 32.817 223.108 30.7073Z" fill="black"/>
<path d="M245.877 18.417V20.4286H236.089V25.8991H245.239V27.8371H236.089V33.8718H246V35.8834H233.782V18.417H245.877Z" fill="black"/>
<path d="M8.34126 43.6996C10.9908 43.6996 13.0516 44.5336 14.5236 46.2018C15.9956 47.8536 16.7316 50.0205 16.7316 52.7026C16.7316 55.4011 16.0038 57.6252 14.5481 59.3751C13.0925 61.125 11.0317 62 8.3658 62C7.0083 62 5.78982 61.7547 4.71036 61.2641C3.6309 60.7734 2.74771 60.0947 2.06078 59.2279C1.39021 58.3612 0.875015 57.3717 0.515196 56.2596C0.171732 55.1476 0 53.9455 0 52.6535C0 49.9224 0.752349 47.7472 2.25705 46.1282C3.7781 44.5091 5.80617 43.6996 8.34126 43.6996ZM8.34126 45.7111C6.39497 45.7111 4.89845 46.398 3.8517 47.7718C2.82131 49.1292 2.30611 50.8137 2.30611 52.8253C2.30611 55.0167 2.85402 56.7666 3.94983 58.075C5.062 59.367 6.54217 60.013 8.39033 60.013C10.2221 60.013 11.6859 59.3588 12.7818 58.0504C13.8776 56.7421 14.4255 55.0004 14.4255 52.8253C14.4255 50.6665 13.8694 48.9411 12.7572 47.6491C11.6614 46.3571 10.1894 45.7111 8.34126 45.7111Z" fill="black"/>
<path d="M32.1326 61.583H29.8265V53.8065C28.0438 54.2154 26.4246 54.4198 24.969 54.4198C23.9549 54.4198 23.0554 54.2971 22.2703 54.0518C21.5016 53.7902 20.9047 53.4794 20.4794 53.1196C20.0705 52.7435 19.7352 52.3019 19.4736 51.7949C19.2119 51.288 19.0401 50.83 18.9584 50.4212C18.8766 49.996 18.8357 49.5544 18.8357 49.0965V44.1166H21.1418V48.9002C21.1418 49.2437 21.1582 49.5544 21.1909 49.8324C21.2399 50.0941 21.3381 50.3966 21.4853 50.7401C21.6325 51.0672 21.8369 51.3452 22.0986 51.5742C22.3603 51.8031 22.7365 51.9994 23.2271 52.1629C23.7178 52.3101 24.2984 52.3837 24.969 52.3837C26.441 52.3837 28.0601 52.1874 29.8265 51.7949V44.1166H32.1326V61.583Z" fill="black"/>
<path d="M50.1643 44.1166L42.8044 51.1326L50.4587 61.583H47.5147L41.1852 52.7026L38.2903 55.4501V61.583H35.9842V44.1166H38.2903V52.7762L47.1467 44.1166H50.1643Z" fill="black"/>
<path d="M52.3476 61.583V44.1166H54.6537V58.909H54.7027L63.2648 44.1166H66.1842V61.583H63.8781V46.7415H63.8291L55.2425 61.583H52.3476Z" fill="black"/>
<rect x="826.5" y="0.5" width="125" height="60" stroke="black"/>
<path d="M846.552 36.3678H849.447C849.608 37.5514 850.079 38.4846 850.86 39.1674C851.664 39.8275 852.687 40.1575 853.928 40.1575C857.122 40.1575 858.937 37.5286 859.374 32.2709C859.42 31.793 859.443 31.2581 859.443 30.6663C858.064 32.8741 856.076 33.978 853.48 33.978C851.251 33.978 849.447 33.261 848.068 31.8271C846.689 30.3704 846 28.4699 846 26.1256C846 23.7129 846.747 21.7555 848.24 20.2533C849.734 18.7511 851.676 18 854.066 18C859.673 18 862.476 21.9376 862.476 29.8128C862.476 31.0191 862.396 32.1799 862.235 33.2952C862.097 34.3877 861.833 35.5257 861.442 36.7092C861.051 37.87 860.546 38.8829 859.925 39.7478C859.305 40.6127 858.466 41.3183 857.409 41.8645C856.375 42.4108 855.18 42.6839 853.824 42.6839C851.756 42.6839 850.056 42.1263 848.723 41.011C847.413 39.8957 846.689 38.348 846.552 36.3678ZM853.928 20.5947C852.48 20.5947 851.308 21.0954 850.412 22.0969C849.539 23.0756 849.102 24.3844 849.102 26.0231C849.102 27.5709 849.516 28.8568 850.343 29.8811C851.193 30.8825 852.388 31.3833 853.928 31.3833C855.421 31.3833 856.628 30.9053 857.547 29.9493C858.466 28.9706 858.926 27.6847 858.926 26.0914C858.926 24.4299 858.466 23.0984 857.547 22.0969C856.628 21.0954 855.421 20.5947 853.928 20.5947Z" fill="black"/>
<path d="M873.529 18C875 18 876.252 18.2731 877.286 18.8194C878.343 19.3429 879.147 19.9916 879.699 20.7654C880.25 21.5393 880.687 22.5521 881.009 23.804C881.331 25.033 881.526 26.1483 881.595 27.1498C881.664 28.1285 881.698 29.312 881.698 30.7004C881.698 31.975 881.641 33.1244 881.526 34.1487C881.434 35.1729 881.216 36.2427 880.871 37.3579C880.549 38.4732 880.101 39.4064 879.527 40.1575C878.952 40.8858 878.171 41.489 877.183 41.967C876.195 42.4449 875.023 42.6839 873.667 42.6839C872.242 42.6839 871.001 42.4449 869.944 41.967C868.91 41.4662 868.106 40.8517 867.531 40.1233C866.957 39.395 866.497 38.4732 866.153 37.3579C865.831 36.2199 865.624 35.1501 865.532 34.1487C865.44 33.1244 865.394 31.9523 865.394 30.6322C865.394 29.4941 865.417 28.504 865.463 27.6619C865.532 26.8198 865.647 25.8752 865.808 24.8282C865.992 23.7584 866.268 22.8594 866.635 22.1311C867.003 21.38 867.474 20.6744 868.049 20.0143C868.623 19.3543 869.37 18.8535 870.289 18.5121C871.231 18.1707 872.311 18 873.529 18ZM875.425 21.0044C874.873 20.7313 874.241 20.5947 873.529 20.5947C872.817 20.5947 872.185 20.7313 871.633 21.0044C871.082 21.2548 870.634 21.5507 870.289 21.8921C869.944 22.2335 869.646 22.7456 869.393 23.4284C869.14 24.0885 868.956 24.6461 868.841 25.1013C868.749 25.5565 868.669 26.2166 868.6 27.0815C868.531 27.9236 868.497 28.5268 868.497 28.891C868.497 29.2324 868.497 29.8128 868.497 30.6322C868.497 31.4288 868.508 32.0888 868.531 32.6123C868.554 33.1358 868.611 33.8186 868.703 34.6608C868.795 35.5029 868.956 36.2085 869.186 36.7775C869.416 37.3238 869.703 37.8814 870.048 38.4504C870.392 38.9967 870.863 39.4178 871.461 39.7137C872.081 39.9868 872.794 40.1233 873.598 40.1233C874.287 40.1233 874.896 39.9982 875.425 39.7478C875.976 39.4974 876.424 39.2015 876.769 38.8601C877.114 38.5187 877.401 38.0407 877.631 37.4262C877.884 36.7889 878.067 36.2427 878.182 35.7874C878.297 35.3095 878.378 34.6836 878.424 33.9097C878.493 33.1131 878.527 32.5327 878.527 32.1685C878.55 31.7816 878.562 31.2239 878.562 30.4956C878.562 29.699 878.562 29.13 878.562 28.7885C878.562 28.4471 878.527 27.8554 878.458 27.0132C878.389 26.1711 878.297 25.5224 878.182 25.0672C878.09 24.612 877.918 24.0543 877.665 23.3943C877.413 22.7342 877.114 22.2335 876.769 21.8921C876.424 21.5507 875.976 21.2548 875.425 21.0044Z" fill="black"/>
<path d="M892.682 18C894.153 18 895.405 18.2731 896.439 18.8194C897.496 19.3429 898.301 19.9916 898.852 20.7654C899.404 21.5393 899.84 22.5521 900.162 23.804C900.484 25.033 900.679 26.1483 900.748 27.1498C900.817 28.1285 900.851 29.312 900.851 30.7004C900.851 31.975 900.794 33.1244 900.679 34.1487C900.587 35.1729 900.369 36.2427 900.024 37.3579C899.702 38.4732 899.254 39.4064 898.68 40.1575C898.105 40.8858 897.324 41.489 896.336 41.967C895.348 42.4449 894.176 42.6839 892.82 42.6839C891.395 42.6839 890.154 42.4449 889.097 41.967C888.063 41.4662 887.259 40.8517 886.685 40.1233C886.11 39.395 885.651 38.4732 885.306 37.3579C884.984 36.2199 884.777 35.1501 884.685 34.1487C884.593 33.1244 884.548 31.9523 884.548 30.6322C884.548 29.4941 884.57 28.504 884.616 27.6619C884.685 26.8198 884.8 25.8752 884.961 24.8282C885.145 23.7584 885.421 22.8594 885.788 22.1311C886.156 21.38 886.627 20.6744 887.202 20.0143C887.776 19.3543 888.523 18.8535 889.442 18.5121C890.384 18.1707 891.464 18 892.682 18ZM894.578 21.0044C894.026 20.7313 893.395 20.5947 892.682 20.5947C891.97 20.5947 891.338 20.7313 890.786 21.0044C890.235 21.2548 889.787 21.5507 889.442 21.8921C889.097 22.2335 888.799 22.7456 888.546 23.4284C888.293 24.0885 888.109 24.6461 887.994 25.1013C887.902 25.5565 887.822 26.2166 887.753 27.0815C887.684 27.9236 887.65 28.5268 887.65 28.891C887.65 29.2324 887.65 29.8128 887.65 30.6322C887.65 31.4288 887.661 32.0888 887.684 32.6123C887.707 33.1358 887.765 33.8186 887.857 34.6608C887.948 35.5029 888.109 36.2085 888.339 36.7775C888.569 37.3238 888.856 37.8814 889.201 38.4504C889.546 38.9967 890.017 39.4178 890.614 39.7137C891.234 39.9868 891.947 40.1233 892.751 40.1233C893.44 40.1233 894.049 39.9982 894.578 39.7478C895.129 39.4974 895.578 39.2015 895.922 38.8601C896.267 38.5187 896.554 38.0407 896.784 37.4262C897.037 36.7889 897.221 36.2427 897.335 35.7874C897.45 35.3095 897.531 34.6836 897.577 33.9097C897.646 33.1131 897.68 32.5327 897.68 32.1685C897.703 31.7816 897.715 31.2239 897.715 30.4956C897.715 29.699 897.715 29.13 897.715 28.7885C897.715 28.4471 897.68 27.8554 897.611 27.0132C897.542 26.1711 897.45 25.5224 897.335 25.0672C897.244 24.612 897.071 24.0543 896.818 23.3943C896.566 22.7342 896.267 22.2335 895.922 21.8921C895.578 21.5507 895.129 21.2548 894.578 21.0044Z" fill="black"/>
<path d="M916.844 24.5892V27.0815C918.131 25.0558 920.13 24.043 922.842 24.043C925.324 24.043 927.288 24.8737 928.736 26.5352C930.207 28.1968 930.942 30.4501 930.942 33.2952C930.942 36.1402 930.218 38.4163 928.771 40.1233C927.346 41.8076 925.416 42.6498 922.98 42.6498C920.429 42.6498 918.441 41.6825 917.017 39.7478V49H914.087V24.5892H916.844ZM922.394 26.467C920.693 26.467 919.349 27.0815 918.361 28.3106C917.396 29.5169 916.913 31.1898 916.913 33.3293C916.913 35.4688 917.407 37.1531 918.395 38.3822C919.407 39.5885 920.774 40.1916 922.497 40.1916C924.175 40.1916 925.496 39.5771 926.461 38.348C927.426 37.1189 927.909 35.446 927.909 33.3293C927.909 31.1898 927.415 29.5169 926.427 28.3106C925.462 27.0815 924.117 26.467 922.394 26.467Z" fill="black"/>
<path d="M939 38.4163V42.2059H935.174V38.4163H939Z" fill="black"/>
</svg>
