<svg width="127" height="53" viewBox="0 0 127 53" fill="none" xmlns="http://www.w3.org/2000/svg">
<path d="M16.0863 13.6405L16.1388 13.8206H16.3263H52.3184C52.7986 13.8206 53.1741 14.0181 53.4651 14.4349C53.7552 14.8505 53.8239 15.2946 53.6707 15.7911L45.5616 39.8304L45.5611 39.8318C45.4733 40.0972 45.3052 40.3221 45.0439 40.508C44.784 40.693 44.5073 40.7823 44.2082 40.7823H21.309C21.099 40.7823 20.9081 40.7372 20.7324 40.6487C20.5539 40.5587 20.3956 40.4305 20.2574 40.2603C20.1168 40.0871 20.0185 39.9108 19.9582 39.7312L10.5781 5.01166C10.5781 5.01147 10.578 5.01127 10.578 5.01107C10.4327 4.46195 10.2448 4.02373 10.0022 3.71807C9.89144 3.57852 9.78688 3.46231 9.6889 3.37395C9.59503 3.2893 9.48822 3.21259 9.372 3.17912C9.22373 3.13642 9.06774 3.11593 8.90526 3.11593H1.64323C1.40449 3.11593 1.17105 3.05623 0.939987 2.93202C0.718842 2.81314 0.551266 2.64438 0.433002 2.42088C0.30952 2.18752 0.25 1.95139 0.25 1.70968C0.25 1.26944 0.388006 0.92557 0.65454 0.656925C0.924739 0.384585 1.24918 0.25 1.64323 0.25H8.90526C9.23741 0.25 9.57028 0.29182 9.90432 0.375991C10.232 0.458568 10.6282 0.618568 11.0953 0.862695C11.5261 1.08786 11.9488 1.48247 12.358 2.0668C12.7634 2.64573 13.0885 3.34977 13.3298 4.1834L13.3299 4.18387L16.0863 13.6405ZM43.0421 37.8629H43.2226L43.2794 37.6916L50.1173 17.0686L50.2263 16.7399H49.88H17.2274H16.9034L16.9856 17.0533L22.3924 37.6763L22.4413 37.8629H22.6342H43.0421ZM36.8852 45.8832C37.6693 45.0929 38.6039 44.7016 39.7026 44.7016C40.8013 44.7016 41.736 45.0929 42.5201 45.8832C43.3042 46.6736 43.6932 47.6166 43.6932 48.7258C43.6932 49.835 43.3042 50.778 42.5201 51.5684C41.736 52.3587 40.8013 52.75 39.7026 52.75C38.6039 52.75 37.6693 52.3587 36.8852 51.5684C36.101 50.778 35.712 49.835 35.712 48.7258C35.712 47.6166 36.101 46.6736 36.8852 45.8832ZM22.4182 45.2538C23.0323 44.8857 23.7033 44.7016 24.4364 44.7016C24.7033 44.7016 24.9705 44.7268 25.2381 44.7774C25.504 44.8276 25.7512 44.9026 25.9805 45.0017C26.2119 45.1016 26.4358 45.2269 26.6522 45.3779C26.8698 45.5297 27.0703 45.6982 27.2539 45.8832C27.4375 46.0683 27.6047 46.2704 27.7554 46.4898C27.9053 46.7081 28.0297 46.9339 28.1289 47.1674C28.2274 47.3988 28.3018 47.6484 28.3518 47.9167C28.402 48.1868 28.427 48.4565 28.427 48.7258C28.427 49.835 28.0381 50.778 27.2539 51.5684C26.4698 52.3587 25.5351 52.75 24.4364 52.75C23.3378 52.75 22.4031 52.3587 21.619 51.5684C20.8348 50.778 20.4459 49.835 20.4459 48.7258C20.4459 47.9835 20.6211 47.3148 20.9688 46.7139C21.318 46.1106 21.7997 45.6244 22.4182 45.2538Z" fill="black" stroke="#EBFF00" stroke-width="0.5"/>
<path d="M101.258 15.3194L102.087 16.5548L102.918 15.3201C106.994 9.25992 112.744 8.00726 117.438 9.74595C122.183 11.5037 126 16.3719 126 22.9097C126 25.2154 124.733 27.9992 122.596 31.0099C120.483 33.9886 117.623 37.0459 114.665 39.8716C111.712 42.6929 108.687 45.2593 106.258 47.2588C105.386 47.9771 104.593 48.6195 103.907 49.1758C103.638 49.3946 103.384 49.6001 103.149 49.7917C102.744 50.1209 102.382 50.4171 102.082 50.6697C101.769 50.4127 101.39 50.1125 100.967 49.7805C100.627 49.5142 100.254 49.2234 99.8493 48.9083C99.2147 48.4139 98.503 47.8595 97.7234 47.2453C95.1841 45.2447 92.0116 42.6775 88.9108 39.8551C85.805 37.0283 82.7983 33.97 80.5754 30.9906C78.3262 27.9761 77 25.1994 77 22.9097C77 16.3581 81.0752 11.4737 86.1373 9.71291C91.1617 7.96527 97.2034 9.28097 101.258 15.3194Z" stroke="black" stroke-width="2"/>
</svg>
