<svg width="46" height="45" viewBox="0 0 46 45" fill="none" xmlns="http://www.w3.org/2000/svg">
<path d="M13.6676 11.5923L13.7202 11.7722H13.9076H44.5675C44.9643 11.7722 45.2731 11.9338 45.5142 12.278C45.7543 12.6209 45.8111 12.9854 45.6843 13.3956L38.7767 33.8059L38.7762 33.8074C38.7043 34.0242 38.5664 34.2089 38.3496 34.3626C38.1341 34.5154 37.9058 34.5887 37.6589 34.5887H18.1521C17.9787 34.5887 17.8216 34.5517 17.6773 34.4792C17.5301 34.4053 17.3994 34.2998 17.2848 34.1592C17.1679 34.0156 17.0866 33.8701 17.0369 33.7229L9.04676 4.24534C9.04671 4.24514 9.04666 4.24495 9.04661 4.24475C8.92218 3.7762 8.76045 3.39842 8.54915 3.13308C8.45409 3.01369 8.36357 2.91329 8.27801 2.83638C8.19653 2.76314 8.10054 2.69363 7.99359 2.66293C7.86372 2.62565 7.72743 2.60786 7.58596 2.60786H1.39979C1.20278 2.60786 1.0098 2.55883 0.817964 2.45605C0.636032 2.35857 0.498648 2.22064 0.401431 2.03751C0.298972 1.84452 0.25 1.65016 0.25 1.45161C0.25 1.0869 0.364276 0.804945 0.583574 0.584635C0.806592 0.360588 1.07353 0.25 1.39979 0.25H7.58596C7.86583 0.25 8.14641 0.285117 8.42815 0.355877C8.70358 0.425051 9.03824 0.559564 9.43468 0.766076C9.79488 0.953707 10.1507 1.28389 10.4971 1.77679C10.8396 2.26431 11.1149 2.8581 11.3195 3.56265L11.3196 3.56311L13.6676 11.5923ZM36.6655 32.1855H36.8458L36.9027 32.0144L42.7276 14.5043L42.837 14.1754H42.4904H14.6752H14.351L14.4334 14.489L19.0392 31.9991L19.0882 32.1855H19.281H36.6655ZM31.4467 38.9843C32.1077 38.3203 32.8945 37.9919 33.8207 37.9919C34.7469 37.9919 35.5338 38.3203 36.1948 38.9843C36.8558 39.6484 37.1831 40.4394 37.1831 41.371C37.1831 42.3025 36.8558 43.0935 36.1948 43.7576C35.5338 44.4217 34.7469 44.75 33.8207 44.75C32.8945 44.75 32.1077 44.4217 31.4467 43.7576C30.7857 43.0935 30.4584 42.3025 30.4584 41.371C30.4584 40.4394 30.7857 39.6484 31.4467 38.9843ZM19.1157 38.4556C19.633 38.1465 20.1981 37.9919 20.8162 37.9919C21.0413 37.9919 21.2666 38.0131 21.4924 38.0557C21.7164 38.0979 21.9244 38.1608 22.1172 38.2437C22.3119 38.3276 22.5004 38.4327 22.6829 38.5596C22.8664 38.6872 23.0355 38.8288 23.1903 38.9843C23.3451 39.1399 23.486 39.3097 23.6132 39.4942C23.7395 39.6775 23.8442 39.867 23.9277 40.0628C24.0104 40.2566 24.0731 40.4658 24.1151 40.691C24.1575 40.9181 24.1786 41.1447 24.1786 41.371C24.1786 42.3025 23.8513 43.0935 23.1903 43.7576C22.5293 44.4217 21.7424 44.75 20.8162 44.75C19.89 44.75 19.1032 44.4217 18.4422 43.7576C17.7812 43.0935 17.4539 42.3025 17.4539 41.371C17.4539 40.7471 17.6015 40.186 17.8942 39.682C18.1883 39.1755 18.594 38.7672 19.1157 38.4556Z" fill="black" stroke="white" stroke-width="0.5"/>
<path d="M13 13H44L38 33H18L13 13Z" fill="black"/>
</svg>
