<svg width="1525" height="267" viewBox="0 0 1525 267" fill="none" xmlns="http://www.w3.org/2000/svg">
<path d="M0 0H40.3392C49.0085 0 56.174 1.88752 61.8357 5.66255C67.5858 9.43758 70.4608 15.3635 70.4608 23.4403C70.4608 28.0933 69.1781 32.2634 66.6127 35.9506C64.1357 39.5501 60.7741 42.096 56.5279 43.5885C62.3664 44.9053 66.8338 47.6269 69.93 51.7531C73.1147 55.8793 74.707 61.059 74.707 67.2922C74.707 84.9383 62.7645 93.7613 38.8795 93.7613H0V0ZM12.2079 10.535V40.1646H34.6333C37.1987 40.1646 39.3661 40.1207 41.1353 40.0329C42.993 39.8573 45.0719 39.5062 47.372 38.9794C49.672 38.4527 51.4855 37.7064 52.8124 36.7407C54.2279 35.6872 55.4221 34.1948 56.3952 32.2634C57.4568 30.332 57.9875 28.0055 57.9875 25.2839C57.9875 22.5624 57.5452 20.2798 56.6606 18.4362C55.776 16.5048 54.7144 15.0562 53.4759 14.0905C52.2374 13.037 50.5124 12.2469 48.3008 11.7202C46.1777 11.1934 44.2315 10.8861 42.4623 10.7983C40.7815 10.6228 38.5699 10.535 35.8275 10.535H12.2079ZM12.2079 49.9095V83.358H37.1545C40.2507 83.358 42.7719 83.3141 44.7181 83.2263C46.6643 83.0508 48.8316 82.6557 51.2201 82.0412C53.6971 81.4266 55.6433 80.5487 57.0587 79.4074C58.4741 78.1783 59.6683 76.4664 60.6414 74.2716C61.6145 71.989 62.1011 69.2675 62.1011 66.107C62.1011 63.4732 61.7472 61.1907 61.0395 59.2593C60.4203 57.3278 59.3145 55.7915 57.7221 54.6502C56.2183 53.5089 54.7586 52.5871 53.3432 51.8848C52.0163 51.1824 50.0701 50.6996 47.5047 50.4362C44.9392 50.1728 42.9488 50.0412 41.5334 50.0412C40.118 49.9534 37.9506 49.9095 35.0314 49.9095H12.2079Z" fill="black"/>
<path d="M90.8388 93.7613V0H103.312V79.4074H103.577L149.888 0H165.678V93.7613H153.205V14.0905H152.94L106.497 93.7613H90.8388Z" fill="black"/>
<path d="M187.133 0H226.012C235.654 0 243.307 2.19478 248.968 6.58436C254.63 10.8861 257.461 17.69 257.461 26.9959C257.461 45.8711 246.712 55.3086 225.216 55.3086H199.606V93.7613H187.133V0ZM199.606 10.6667V44.9053H223.624C230.347 44.9053 235.566 43.6763 239.281 41.2181C243.085 38.6722 244.987 34.1948 244.987 27.786C244.987 24.1866 244.368 21.2016 243.13 18.8313C241.98 16.4609 240.255 14.7051 237.955 13.5638C235.655 12.4225 233.266 11.6763 230.789 11.3251C228.312 10.8861 225.349 10.6667 221.898 10.6667H199.606Z" fill="black"/>
<path d="M338.197 0V10.7983H306.483V93.7613H294.01V10.7983H262.296V0H338.197Z" fill="black"/>
<path d="M372.727 69.2675L338.226 0H351.894L379.494 57.1523L406.564 0H419.966L383.209 74.6667C379.406 82.3923 375.469 87.8793 371.4 91.1276C367.419 94.3759 362.996 96 358.13 96C353.884 96 349.992 95.2099 346.453 93.6296V83.0947C349.018 84.6749 352.557 85.465 357.069 85.465C362.288 85.465 366.977 81.1632 371.134 72.5597L372.727 69.2675Z" fill="black"/>
<path d="M459.4 0L496.289 93.7613H482.356L471.873 65.0535H432.198L421.449 93.7613H408.18L445.334 0H459.4ZM468.158 55.177L452.102 11.8518L435.78 55.177H468.158Z" fill="black"/>
<path d="M575.433 0V93.7613H562.96V10.7983H528.061L526.203 63.6049C525.85 73.4376 523.815 81.251 520.099 87.0453C516.473 92.8395 511.209 95.7366 504.309 95.7366C501.478 95.7366 498.47 95.1221 495.286 93.893V83.358C496.701 84.2359 498.957 84.6749 502.053 84.6749C504.618 84.6749 506.653 84.1043 508.157 82.963C509.749 81.7339 511.12 79.0123 512.271 74.7984C513.509 70.5844 514.217 64.7023 514.394 57.1523L516.119 0H575.433Z" fill="black"/>
<path d="M667.068 65.9753C667.068 74.7545 664.503 81.6022 659.372 86.5185C654.329 91.347 647.208 93.7613 638.008 93.7613H596.607V0H609.081V38.0576H638.008C647.297 38.0576 654.462 40.5158 659.504 45.4321C664.547 50.2606 667.068 57.1084 667.068 65.9753ZM654.462 65.9753C654.462 54.4746 647.562 48.7243 633.762 48.7243H609.081V82.963H633.762C647.562 82.963 654.462 77.3004 654.462 65.9753Z" fill="black"/>
<path d="M757.491 0V93.7613H745.018V49.9095H695.125V93.7613H682.651V0H695.125V39.1111H745.018V0H757.491Z" fill="black"/>
<path d="M818.09 0L854.979 93.7613H841.046L830.563 65.0535H790.888L780.139 93.7613H766.87L804.024 0H818.09ZM826.848 55.177L810.792 11.8518L794.47 55.177H826.848Z" fill="black"/>
<path d="M900.021 53.7284L868.837 93.7613H853.445L885.026 53.3333C877.507 52.3676 871.712 49.6461 867.643 45.1687C863.574 40.6914 861.539 34.5898 861.539 26.8642C861.539 18.1728 864.149 11.5446 869.368 6.97942C874.676 2.32647 882.018 0 891.395 0H932V93.7613H919.527V53.7284H900.021ZM919.527 43.1934V10.535H895.642C881.311 10.535 874.145 15.978 874.145 26.8642C874.145 37.7503 881.311 43.1934 895.642 43.1934H919.527Z" fill="black"/>
<path d="M888.033 164.279V259.721H875.527V175.271H825.505V259.721H813V164.279H888.033Z" fill="black"/>
<path d="M909.542 164.279H948.522C958.19 164.279 965.861 166.513 971.538 170.981C977.214 175.36 980.052 182.286 980.052 191.759C980.052 210.972 969.276 220.579 947.724 220.579H922.048V259.721H909.542V164.279ZM922.048 175.137V209.989H946.128C952.868 209.989 958.101 208.738 961.826 206.236C965.64 203.644 967.547 199.087 967.547 192.563C967.547 188.899 966.926 185.861 965.684 183.448C964.531 181.035 962.802 179.248 960.496 178.086C958.19 176.924 955.795 176.164 953.312 175.807C950.828 175.36 947.857 175.137 944.398 175.137H922.048Z" fill="black"/>
<path d="M1035.19 162C1049.56 162 1060.73 166.558 1068.71 175.673C1076.7 184.699 1080.69 196.54 1080.69 211.196C1080.69 225.941 1076.74 238.095 1068.85 247.657C1060.95 257.219 1049.78 262 1035.32 262C1027.96 262 1021.35 260.66 1015.5 257.979C1009.64 255.298 1004.86 251.589 1001.13 246.853C997.494 242.116 994.7 236.71 992.749 230.633C990.886 224.556 989.955 217.987 989.955 210.928C989.955 196.004 994.035 184.118 1002.19 175.271C1010.44 166.424 1021.44 162 1035.19 162ZM1035.19 172.992C1024.63 172.992 1016.52 176.745 1010.84 184.252C1005.25 191.669 1002.46 200.874 1002.46 211.866C1002.46 223.841 1005.43 233.403 1011.37 240.552C1017.41 247.612 1025.43 251.142 1035.45 251.142C1045.39 251.142 1053.33 247.567 1059.27 240.418C1065.21 233.269 1068.18 223.752 1068.18 211.866C1068.18 200.07 1065.17 190.642 1059.13 183.582C1053.19 176.522 1045.21 172.992 1035.19 172.992Z" fill="black"/>
<path d="M1108.86 259.721H1096.35V164.279H1158.62V175.271H1108.86V259.721Z" fill="black"/>
<path d="M1338.27 164.279V259.721H1325.77V175.271H1290.78L1288.92 229.024C1288.56 239.033 1286.52 246.987 1282.8 252.885C1279.16 258.783 1273.88 261.732 1266.97 261.732C1264.13 261.732 1261.11 261.106 1257.92 259.855V249.131C1259.34 250.025 1261.6 250.472 1264.7 250.472C1267.28 250.472 1269.32 249.891 1270.82 248.729C1272.42 247.478 1273.8 244.708 1274.95 240.418C1276.19 236.129 1276.9 230.141 1277.08 222.456L1278.81 164.279H1338.27Z" fill="black"/>
<path d="M1436.4 164.279L1396.49 202.617L1437.99 259.721H1422.03L1387.71 211.196L1372.01 226.209V259.721H1359.5V164.279H1372.01V211.598L1420.03 164.279H1436.4Z" fill="black"/>
<path d="M1488.02 164.279L1525 259.721H1511.03L1500.52 230.499H1460.74L1449.97 259.721H1436.66L1473.91 164.279H1488.02ZM1496.8 220.445L1480.7 176.343L1464.34 220.445H1496.8Z" fill="black"/>
<path d="M1169.92 267C1166.52 267 1163.68 266.015 1161.41 264.044C1159.14 261.969 1158 259.324 1158 256.109C1158 254.034 1158.77 252.219 1160.32 250.663C1161.87 249.004 1163.94 248.174 1166.52 248.174C1168.58 248.174 1170.39 248.952 1171.93 250.508C1173.59 252.063 1174.41 254.345 1174.41 257.353C1174.41 258.391 1174.36 259.169 1174.26 259.687C1175.19 259.687 1176.17 259.584 1177.2 259.376C1178.33 259.065 1179.62 258.494 1181.07 257.665C1182.62 256.835 1184.37 255.642 1186.33 254.086C1188.29 252.53 1190.57 250.456 1193.15 247.863C1193.77 247.24 1194.18 246.255 1194.38 244.906C1194.59 243.454 1194.69 241.846 1194.69 240.083C1194.69 237.179 1194.54 234.637 1194.23 232.459L1186.64 173.647C1186.44 172.298 1185.87 171.209 1184.94 170.379C1184.01 169.549 1182.88 168.875 1181.53 168.356C1180.19 167.838 1178.8 167.423 1177.35 167.112C1176.01 166.801 1174.77 166.489 1173.64 166.178V164C1177.56 164.207 1181.43 164.363 1185.25 164.467C1189.17 164.57 1193.09 164.622 1197.02 164.622C1199.91 164.622 1202.8 164.57 1205.69 164.467C1208.58 164.259 1211.52 164.104 1214.51 164V166.178C1212.45 166.489 1210.54 166.852 1208.78 167.267C1207.13 167.682 1205.64 168.305 1204.29 169.134C1202.95 169.964 1201.92 171.105 1201.2 172.557C1200.47 173.906 1200.11 175.669 1200.11 177.847C1200.11 178.262 1200.11 178.729 1200.11 179.248C1200.11 179.663 1200.17 180.129 1200.27 180.648L1206.77 232.304C1208.42 230.229 1210.13 227.999 1211.88 225.613C1213.64 223.124 1215.54 220.479 1217.61 217.678C1221.74 211.87 1225.76 206.372 1229.69 201.186C1233.61 195.896 1237.12 191.228 1240.21 187.183C1243.31 183.137 1245.79 179.818 1247.65 177.225C1249.61 174.632 1250.59 173.076 1250.59 172.557C1250.59 171.935 1250.02 171.313 1248.88 170.69C1247.85 169.964 1246.46 169.342 1244.7 168.823C1243.05 168.201 1241.2 167.682 1239.13 167.267C1237.07 166.749 1235.11 166.386 1233.25 166.178V164C1236.45 164.104 1239.6 164.259 1242.69 164.467C1245.79 164.57 1248.94 164.622 1252.14 164.622C1254.61 164.622 1257.09 164.57 1259.57 164.467C1262.05 164.259 1264.52 164.104 1267 164V166.178C1265.55 167.63 1263.18 170.172 1259.88 173.802C1256.57 177.329 1252.76 181.582 1248.42 186.56C1244.09 191.539 1239.49 197.037 1234.64 203.053C1229.79 208.965 1225.14 214.93 1220.71 220.946C1212.96 231.422 1206.36 239.72 1200.89 245.84C1195.52 251.96 1190.88 256.576 1186.95 259.687C1183.13 262.799 1179.88 264.822 1177.2 265.755C1174.62 266.585 1172.19 267 1169.92 267Z" fill="black"/>
<path d="M674.768 230.768C675.744 229.791 675.744 228.209 674.768 227.232L658.858 211.322C657.882 210.346 656.299 210.346 655.322 211.322C654.346 212.299 654.346 213.882 655.322 214.858L669.464 229L655.322 243.142C654.346 244.118 654.346 245.701 655.322 246.678C656.299 247.654 657.882 247.654 658.858 246.678L674.768 230.768ZM566 231.5H673V226.5H566V231.5Z" fill="black"/>
<path d="M1471.99 0V94H1459.64V25.8898H1436V17.3927C1443.61 17.3927 1449.63 16.1535 1454.06 13.6751C1458.58 11.1968 1461.59 6.63842 1463.09 0H1471.99Z" fill="black"/>
<path d="M1524 79.2627V94H1509.26V79.2627H1524Z" fill="black"/>
</svg>
