<svg width="415" height="83" viewBox="0 0 415 83" fill="none" xmlns="http://www.w3.org/2000/svg">
<path d="M0.475037 20.4084V0H3.10172V17.2841H3.1576L12.9098 0H16.2351V20.4084H13.6084V3.067H13.5525L3.77236 20.4084H0.475037Z" fill="black"/>
<path d="M32.6289 15.0197C32.424 16.7968 31.7627 18.2109 30.6449 19.2619C29.5458 20.3129 28.1114 20.8384 26.3417 20.8384C24.1621 20.8384 22.4762 20.1505 21.2839 18.7746C20.0917 17.3796 19.4955 15.5261 19.4955 13.2139C19.4955 10.7488 20.1196 8.7997 21.3677 7.36652C22.6159 5.91424 24.3018 5.1881 26.4255 5.1881C28.1952 5.1881 29.611 5.64671 30.6729 6.56395C31.7347 7.46207 32.3588 8.75193 32.5451 10.4335H30.0861C29.6576 8.29331 28.4467 7.22321 26.4534 7.22321C25.0749 7.22321 23.9851 7.7487 23.1841 8.7997C22.383 9.83159 21.9825 11.2361 21.9825 13.0132C21.9825 14.8095 22.3644 16.2236 23.1282 17.2554C23.892 18.2873 24.9445 18.8033 26.2858 18.8033C27.3662 18.8033 28.2418 18.4784 28.9124 17.8287C29.6017 17.179 30.0395 16.2427 30.2258 15.0197H32.6289Z" fill="black"/>
<path d="M37.6059 20.4084H35.2307V5.61805H47.1905V20.4084H44.8153V7.76781H37.6059V20.4084Z" fill="black"/>
<path d="M51.9035 7.3092C53.1703 5.89513 54.8935 5.1881 57.073 5.1881C59.2526 5.1881 60.9479 5.86647 62.1587 7.22321C63.3696 8.57995 63.9751 10.4813 63.9751 12.9272C63.9751 15.4305 63.3696 17.3796 62.1587 18.7746C60.9479 20.1696 59.2433 20.867 57.0451 20.867C54.8469 20.867 53.1237 20.1791 51.8756 18.8033C50.6274 17.4274 50.0034 15.5165 50.0034 13.0706C50.0034 10.6437 50.6368 8.72326 51.9035 7.3092ZM60.3145 8.7997C59.5134 7.7487 58.4143 7.22321 57.0172 7.22321C55.62 7.22321 54.5116 7.7487 53.6919 8.7997C52.8722 9.8507 52.4624 11.2552 52.4624 13.0132C52.4624 14.8286 52.8629 16.2522 53.6639 17.2841C54.4836 18.2969 55.62 18.8033 57.073 18.8033C58.4702 18.8033 59.56 18.2873 60.3424 17.2554C61.1435 16.2236 61.544 14.7999 61.544 12.9846C61.544 11.2265 61.1341 9.83159 60.3145 8.7997Z" fill="black"/>
<path d="M69.0389 5.61805V7.71049C70.0821 6.00978 71.7029 5.15943 73.9011 5.15943C75.913 5.15943 77.5058 5.85691 78.6794 7.25187C79.8716 8.64683 80.4678 10.5386 80.4678 12.9272C80.4678 15.3159 79.881 17.2268 78.7073 18.66C77.5523 20.074 75.9875 20.7811 74.0128 20.7811C71.945 20.7811 70.3336 19.9689 69.1786 18.3447V26.1125H66.8035V5.61805H69.0389ZM73.5378 7.19454C72.1593 7.19454 71.0695 7.71049 70.2684 8.74237C69.486 9.75515 69.0948 11.1597 69.0948 12.9559C69.0948 14.7522 69.4953 16.1662 70.2964 17.1981C71.116 18.2109 72.2245 18.7173 73.6216 18.7173C74.9815 18.7173 76.0527 18.2013 76.8351 17.1694C77.6175 16.1376 78.0087 14.733 78.0087 12.9559C78.0087 11.1597 77.6082 9.75515 76.8072 8.74237C76.0248 7.71049 74.935 7.19454 73.5378 7.19454Z" fill="black"/>
<path d="M94.517 20.4084H92.1418V13.8731C91.7506 13.9878 91.0613 14.1311 90.074 14.3031C89.1052 14.456 88.3042 14.5324 87.6708 14.5324C86.1991 14.5324 85.0441 14.1789 84.2058 13.4719C83.3862 12.7457 82.9763 11.6852 82.9763 10.2902V5.61805H85.3515V9.88891C85.3515 11.6087 86.2737 12.4686 88.1179 12.4686C89.4406 12.4686 90.7819 12.2489 92.1418 11.8094V5.61805H94.517V20.4084Z" fill="black"/>
<path d="M110.426 15.7363C109.7 19.1759 107.604 20.8957 104.139 20.8957C102.015 20.8957 100.348 20.2173 99.1372 18.8606C97.945 17.5039 97.3488 15.6216 97.3488 13.2139C97.3488 10.8253 97.9636 8.89525 99.1931 7.42385C100.441 5.93335 102.062 5.1881 104.055 5.1881C106.272 5.1881 107.911 5.96201 108.973 7.50984C110.054 9.03856 110.594 10.9781 110.594 13.3285V13.6725H99.752L99.724 13.8445C99.724 15.4114 100.125 16.644 100.926 17.5421C101.727 18.4402 102.826 18.8893 104.223 18.8893C105.266 18.8893 106.086 18.6408 106.682 18.144C107.297 17.6472 107.772 16.8446 108.107 15.7363H110.426ZM108.135 11.6947C108.023 10.2806 107.604 9.18188 106.878 8.39841C106.151 7.59583 105.192 7.19454 103.999 7.19454C102.844 7.19454 101.885 7.59583 101.121 8.39841C100.357 9.20099 99.901 10.2998 99.752 11.6947H108.135Z" fill="black"/>
<path d="M115.487 20.4084H113.112V5.61805H115.487V11.4941H122.697V5.61805H125.072V20.4084H122.697V13.6438H115.487V20.4084Z" fill="black"/>
<path d="M131.014 20.4084H128.639V5.61805H131.014V11.4941H138.224V5.61805H140.599V20.4084H138.224V13.6438H131.014V20.4084Z" fill="black"/>
<path d="M157.914 5.61805H160.29V20.4084H157.914V5.61805ZM154.338 12.4973C155.195 13.2999 155.623 14.3986 155.623 15.7936C155.623 17.1886 155.204 18.3064 154.366 19.1472C153.546 19.988 152.437 20.4084 151.04 20.4084H144.082V5.61805H146.458V11.2648H150.929C152.344 11.2648 153.481 11.6756 154.338 12.4973ZM150.174 13.3572H146.458V18.2587H150.174C151.143 18.2587 151.879 18.0485 152.382 17.6281C152.903 17.1886 153.164 16.5771 153.164 15.7936C153.164 14.1693 152.167 13.3572 150.174 13.3572Z" fill="black"/>
<path d="M176.164 15.7363C175.438 19.1759 173.342 20.8957 169.877 20.8957C167.753 20.8957 166.086 20.2173 164.875 18.8606C163.683 17.5039 163.087 15.6216 163.087 13.2139C163.087 10.8253 163.701 8.89525 164.931 7.42385C166.179 5.93335 167.8 5.1881 169.793 5.1881C172.01 5.1881 173.649 5.96201 174.711 7.50984C175.792 9.03856 176.332 10.9781 176.332 13.3285V13.6725H165.49L165.462 13.8445C165.462 15.4114 165.862 16.644 166.663 17.5421C167.465 18.4402 168.564 18.8893 169.961 18.8893C171.004 18.8893 171.824 18.6408 172.42 18.144C173.035 17.6472 173.51 16.8446 173.845 15.7363H176.164ZM173.873 11.6947C173.761 10.2806 173.342 9.18188 172.615 8.39841C171.889 7.59583 170.93 7.19454 169.737 7.19454C168.582 7.19454 167.623 7.59583 166.859 8.39841C166.095 9.20099 165.639 10.2998 165.49 11.6947H173.873Z" fill="black"/>
<path d="M186.571 20.4084V5.61805H193.25C194.2 5.61805 195.01 5.70404 195.681 5.87602C196.351 6.02889 196.938 6.38241 197.441 6.93657C197.944 7.49073 198.196 8.24554 198.196 9.20099C198.196 10.6533 197.488 11.7138 196.072 12.3826V12.4113C196.929 12.5833 197.6 12.9941 198.084 13.6438C198.568 14.2744 198.81 15.077 198.81 16.0516C198.81 17.3128 198.401 18.3542 197.581 19.1759C196.761 19.9976 195.709 20.4084 194.423 20.4084H186.571ZM192.998 11.5801C193.985 11.5801 194.684 11.4176 195.094 11.0928C195.522 10.7488 195.737 10.252 195.737 9.60228C195.737 8.95257 195.532 8.47485 195.122 8.1691C194.712 7.86336 194.004 7.71049 192.998 7.71049H188.89V11.5801H192.998ZM188.89 13.6438V18.316H193.976C194.721 18.316 195.299 18.0867 195.709 17.6281C196.137 17.1694 196.351 16.5771 196.351 15.8509C196.351 14.3795 195.42 13.6438 193.557 13.6438H188.89Z" fill="black"/>
<path d="M221.82 15.0197C221.615 16.7968 220.954 18.2109 219.836 19.2619C218.737 20.3129 217.302 20.8384 215.533 20.8384C213.353 20.8384 211.667 20.1505 210.475 18.7746C209.283 17.3796 208.686 15.5261 208.686 13.2139C208.686 10.7488 209.31 8.7997 210.559 7.36652C211.807 5.91424 213.493 5.1881 215.616 5.1881C217.386 5.1881 218.802 5.64671 219.864 6.56395C220.926 7.46207 221.55 8.75193 221.736 10.4335H219.277C218.848 8.29331 217.638 7.22321 215.644 7.22321C214.266 7.22321 213.176 7.7487 212.375 8.7997C211.574 9.83159 211.173 11.2361 211.173 13.0132C211.173 14.8095 211.555 16.2236 212.319 17.2554C213.083 18.2873 214.135 18.8033 215.477 18.8033C216.557 18.8033 217.433 18.4784 218.103 17.8287C218.793 17.179 219.23 16.2427 219.417 15.0197H221.82Z" fill="black"/>
<path d="M237.192 18.4593V20.3511C236.707 20.5422 236.167 20.6377 235.571 20.6377C234.211 20.6377 233.512 19.9116 233.475 18.4593C232.115 20.0262 230.374 20.8097 228.25 20.8097C226.834 20.8097 225.707 20.4371 224.869 19.6918C224.049 18.9466 223.639 17.9243 223.639 16.6248C223.639 13.9878 225.344 12.4495 228.753 12.01C228.976 11.9718 229.302 11.9336 229.731 11.8954C231.352 11.7043 232.348 11.4845 232.721 11.2361C233.149 10.9304 233.363 10.4049 233.363 9.65961C233.363 8.03534 232.274 7.22321 230.094 7.22321C228.976 7.22321 228.129 7.46207 227.551 7.93979C226.974 8.39841 226.629 9.16277 226.517 10.2329H224.198C224.235 8.64683 224.785 7.4143 225.847 6.53528C226.909 5.65627 228.371 5.21676 230.234 5.21676C232.264 5.21676 233.773 5.69449 234.761 6.64994C235.077 6.95568 235.31 7.35697 235.459 7.8538C235.608 8.35064 235.692 8.76148 235.711 9.08634C235.729 9.39208 235.739 9.86025 235.739 10.4908C235.739 11.217 235.72 12.3158 235.683 13.7872C235.646 15.2585 235.627 16.3573 235.627 17.0835C235.627 17.6185 235.692 18.0007 235.822 18.23C235.971 18.4402 236.232 18.5453 236.605 18.5453C236.754 18.5453 236.95 18.5166 237.192 18.4593ZM233.363 12.7266C233.196 12.8604 233.019 12.975 232.833 13.0706C232.646 13.1661 232.404 13.2425 232.106 13.2999C231.827 13.3572 231.631 13.405 231.519 13.4432C231.426 13.4623 231.184 13.5005 230.793 13.5578C230.401 13.5961 230.197 13.6152 230.178 13.6152C229.6 13.6916 229.219 13.7489 229.032 13.7872C228.865 13.8063 228.529 13.8827 228.026 14.0165C227.542 14.1502 227.197 14.3031 226.992 14.4751C226.787 14.6471 226.583 14.905 226.378 15.249C226.191 15.5738 226.098 15.9656 226.098 16.4242C226.098 17.1886 226.35 17.7905 226.853 18.23C227.374 18.6695 228.082 18.8893 228.976 18.8893C230.113 18.8893 231.128 18.5453 232.022 17.8574C232.916 17.1694 233.363 16.3573 233.363 15.421V12.7266Z" fill="black"/>
<path d="M251.446 5.61805V20.4084H249.071V7.76781H243.929L243.734 14.3031C243.678 16.558 243.277 18.1918 242.532 19.2046C241.787 20.2173 240.855 20.7237 239.738 20.7237C239.048 20.7237 238.48 20.6186 238.033 20.4084V18.4306C238.275 18.5644 238.694 18.6313 239.29 18.6313C239.849 18.6313 240.324 18.3255 240.716 17.7141C241.125 17.0835 241.349 16.0325 241.386 14.5611L241.638 5.61805H251.446Z" fill="black"/>
<path d="M256.103 7.3092C257.37 5.89513 259.093 5.1881 261.273 5.1881C263.452 5.1881 265.147 5.86647 266.358 7.22321C267.569 8.57995 268.175 10.4813 268.175 12.9272C268.175 15.4305 267.569 17.3796 266.358 18.7746C265.147 20.1696 263.443 20.867 261.245 20.867C259.046 20.867 257.323 20.1791 256.075 18.8033C254.827 17.4274 254.203 15.5165 254.203 13.0706C254.203 10.6437 254.836 8.72326 256.103 7.3092ZM264.514 8.7997C263.713 7.7487 262.614 7.22321 261.217 7.22321C259.819 7.22321 258.711 7.7487 257.891 8.7997C257.072 9.8507 256.662 11.2552 256.662 13.0132C256.662 14.8286 257.062 16.2522 257.863 17.2841C258.683 18.2969 259.82 18.8033 261.273 18.8033C262.67 18.8033 263.76 18.2873 264.542 17.2554C265.343 16.2236 265.743 14.7999 265.743 12.9846C265.743 11.2265 265.334 9.83159 264.514 8.7997Z" fill="black"/>
<path d="M273.378 20.4084H271.003V5.61805H273.378V11.4941H280.588V5.61805H282.963V20.4084H280.588V13.6438H273.378V20.4084Z" fill="black"/>
<path d="M298.853 15.7363C298.127 19.1759 296.031 20.8957 292.566 20.8957C290.442 20.8957 288.775 20.2173 287.564 18.8606C286.372 17.5039 285.776 15.6216 285.776 13.2139C285.776 10.8253 286.39 8.89525 287.62 7.42385C288.868 5.93335 290.489 5.1881 292.482 5.1881C294.699 5.1881 296.338 5.96201 297.4 7.50984C298.481 9.03856 299.021 10.9781 299.021 13.3285V13.6725H288.179L288.151 13.8445C288.151 15.4114 288.551 16.644 289.352 17.5421C290.153 18.4402 291.253 18.8893 292.65 18.8893C293.693 18.8893 294.513 18.6408 295.109 18.144C295.723 17.6472 296.199 16.8446 296.534 15.7363H298.853ZM296.562 11.6947C296.45 10.2806 296.031 9.18188 295.304 8.39841C294.578 7.59583 293.618 7.19454 292.426 7.19454C291.271 7.19454 290.312 7.59583 289.548 8.39841C288.784 9.20099 288.328 10.2998 288.179 11.6947H296.562Z" fill="black"/>
<path d="M322.226 20.4084H319.208L313.955 13.1279L311.691 15.3923V20.4084H309.316V5.61805H311.691V12.6693L318.286 5.61805H321.471L315.659 11.4367L322.226 20.4084Z" fill="black"/>
<path d="M326.042 5.61805V7.71049C327.085 6.00978 328.706 5.15943 330.904 5.15943C332.916 5.15943 334.508 5.85691 335.682 7.25187C336.874 8.64683 337.47 10.5386 337.47 12.9272C337.47 15.3159 336.884 17.2268 335.71 18.66C334.555 20.074 332.99 20.7811 331.016 20.7811C328.948 20.7811 327.336 19.9689 326.181 18.3447V26.1125H323.806V5.61805H326.042ZM330.54 7.19454C329.162 7.19454 328.072 7.71049 327.271 8.74237C326.489 9.75515 326.097 11.1597 326.097 12.9559C326.097 14.7522 326.498 16.1662 327.299 17.1981C328.119 18.2109 329.227 18.7173 330.624 18.7173C331.984 18.7173 333.055 18.2013 333.838 17.1694C334.62 16.1376 335.011 14.733 335.011 12.9559C335.011 11.1597 334.611 9.75515 333.81 8.74237C333.027 7.71049 331.938 7.19454 330.54 7.19454Z" fill="black"/>
<path d="M353.14 18.4593V20.3511C352.656 20.5422 352.116 20.6377 351.52 20.6377C350.16 20.6377 349.461 19.9116 349.424 18.4593C348.064 20.0262 346.322 20.8097 344.198 20.8097C342.783 20.8097 341.656 20.4371 340.817 19.6918C339.998 18.9466 339.588 17.9243 339.588 16.6248C339.588 13.9878 341.292 12.4495 344.701 12.01C344.925 11.9718 345.251 11.9336 345.679 11.8954C347.3 11.7043 348.297 11.4845 348.669 11.2361C349.098 10.9304 349.312 10.4049 349.312 9.65961C349.312 8.03534 348.222 7.22321 346.043 7.22321C344.925 7.22321 344.077 7.46207 343.5 7.93979C342.922 8.39841 342.578 9.16277 342.466 10.2329H340.147C340.184 8.64683 340.733 7.4143 341.795 6.53528C342.857 5.65627 344.32 5.21676 346.182 5.21676C348.213 5.21676 349.722 5.69449 350.709 6.64994C351.026 6.95568 351.259 7.35697 351.408 7.8538C351.557 8.35064 351.641 8.76148 351.659 9.08634C351.678 9.39208 351.687 9.86025 351.687 10.4908C351.687 11.217 351.669 12.3158 351.631 13.7872C351.594 15.2585 351.576 16.3573 351.576 17.0835C351.576 17.6185 351.641 18.0007 351.771 18.23C351.92 18.4402 352.181 18.5453 352.554 18.5453C352.703 18.5453 352.898 18.5166 353.14 18.4593ZM349.312 12.7266C349.144 12.8604 348.967 12.975 348.781 13.0706C348.595 13.1661 348.353 13.2425 348.055 13.2999C347.775 13.3572 347.58 13.405 347.468 13.4432C347.375 13.4623 347.133 13.5005 346.741 13.5578C346.35 13.5961 346.145 13.6152 346.127 13.6152C345.549 13.6916 345.167 13.7489 344.981 13.7872C344.813 13.8063 344.478 13.8827 343.975 14.0165C343.491 14.1502 343.146 14.3031 342.941 14.4751C342.736 14.6471 342.531 14.905 342.326 15.249C342.14 15.5738 342.047 15.9656 342.047 16.4242C342.047 17.1886 342.298 17.7905 342.801 18.23C343.323 18.6695 344.031 18.8893 344.925 18.8893C346.061 18.8893 347.077 18.5453 347.971 17.8574C348.865 17.1694 349.312 16.3573 349.312 15.421V12.7266Z" fill="black"/>
<path d="M367.786 15.0197C367.581 16.7968 366.919 18.2109 365.802 19.2619C364.703 20.3129 363.268 20.8384 361.498 20.8384C359.319 20.8384 357.633 20.1505 356.441 18.7746C355.248 17.3796 354.652 15.5261 354.652 13.2139C354.652 10.7488 355.276 8.7997 356.525 7.36652C357.773 5.91424 359.459 5.1881 361.582 5.1881C363.352 5.1881 364.768 5.64671 365.83 6.56395C366.892 7.46207 367.516 8.75193 367.702 10.4335H365.243C364.814 8.29331 363.604 7.22321 361.61 7.22321C360.232 7.22321 359.142 7.7487 358.341 8.7997C357.54 9.83159 357.139 11.2361 357.139 13.0132C357.139 14.8095 357.521 16.2236 358.285 17.2554C359.049 18.2873 360.101 18.8033 361.443 18.8033C362.523 18.8033 363.399 18.4784 364.069 17.8287C364.759 17.179 365.196 16.2427 365.383 15.0197H367.786Z" fill="black"/>
<path d="M371.533 7.3092C372.8 5.89513 374.523 5.1881 376.703 5.1881C378.882 5.1881 380.578 5.86647 381.788 7.22321C382.999 8.57995 383.605 10.4813 383.605 12.9272C383.605 15.4305 382.999 17.3796 381.788 18.7746C380.578 20.1696 378.873 20.867 376.675 20.867C374.477 20.867 372.753 20.1791 371.505 18.8033C370.257 17.4274 369.633 15.5165 369.633 13.0706C369.633 10.6437 370.266 8.72326 371.533 7.3092ZM379.944 8.7997C379.143 7.7487 378.044 7.22321 376.647 7.22321C375.25 7.22321 374.141 7.7487 373.322 8.7997C372.502 9.8507 372.092 11.2552 372.092 13.0132C372.092 14.8286 372.493 16.2522 373.294 17.2841C374.113 18.2969 375.25 18.8033 376.703 18.8033C378.1 18.8033 379.19 18.2873 379.972 17.2554C380.773 16.2236 381.174 14.7999 381.174 12.9846C381.174 11.2265 380.764 9.83159 379.944 8.7997Z" fill="black"/>
<path d="M396.98 7.76781H391.81V20.4084H389.435V7.76781H384.265V5.61805H396.98V7.76781Z" fill="black"/>
<path d="M412.625 5.61805H415V20.4084H412.625V5.61805ZM409.048 12.4973C409.905 13.2999 410.333 14.3986 410.333 15.7936C410.333 17.1886 409.914 18.3064 409.076 19.1472C408.256 19.988 407.148 20.4084 405.751 20.4084H398.793V5.61805H401.168V11.2648H405.639C407.055 11.2648 408.191 11.6756 409.048 12.4973ZM404.885 13.3572H401.168V18.2587H404.885C405.853 18.2587 406.589 18.0485 407.092 17.6281C407.614 17.1886 407.874 16.5771 407.874 15.7936C407.874 14.1693 406.878 13.3572 404.885 13.3572Z" fill="black"/>
<path d="M0 51.4606V36.6702H6.67847C7.62854 36.6702 8.4389 36.7562 9.10954 36.9282C9.78018 37.081 10.367 37.4346 10.87 37.9887C11.373 38.5429 11.6244 39.2977 11.6244 40.2531C11.6244 41.7054 10.9165 42.766 9.50075 43.4348V43.4634C10.3577 43.6354 11.0283 44.0463 11.5127 44.696C11.997 45.3266 12.2392 46.1292 12.2392 47.1037C12.2392 48.3649 11.8294 49.4064 11.0097 50.228C10.19 51.0497 9.13749 51.4606 7.85209 51.4606H0ZM6.42698 42.6322C7.41431 42.6322 8.1129 42.4698 8.52273 42.1449C8.9512 41.801 9.16543 41.3041 9.16543 40.6544C9.16543 40.0047 8.96051 39.527 8.55068 39.2212C8.14084 38.9155 7.43294 38.7626 6.42698 38.7626H2.3193V42.6322H6.42698ZM2.3193 44.696V49.3681H7.405C8.15015 49.3681 8.72765 49.1388 9.13749 48.6802C9.56595 48.2216 9.78018 47.6292 9.78018 46.9031C9.78018 45.4317 8.84874 44.696 6.98584 44.696H2.3193Z" fill="black"/>
<path d="M16.2102 38.3613C17.477 36.9473 19.2002 36.2402 21.3797 36.2402C23.5593 36.2402 25.2546 36.9186 26.4654 38.2754C27.6763 39.6321 28.2818 41.5334 28.2818 43.9794C28.2818 46.4827 27.6763 48.4318 26.4654 49.8268C25.2546 51.2217 23.55 51.9192 21.3518 51.9192C19.1536 51.9192 17.4304 51.2313 16.1823 49.8554C14.9341 48.4796 14.3101 46.5687 14.3101 44.1227C14.3101 41.6959 14.9434 39.7754 16.2102 38.3613ZM24.6212 39.8518C23.8201 38.8008 22.721 38.2754 21.3239 38.2754C19.9267 38.2754 18.8183 38.8008 17.9986 39.8518C17.1789 40.9028 16.7691 42.3074 16.7691 44.0654C16.7691 45.8807 17.1696 47.3044 17.9706 48.3362C18.7903 49.349 19.9267 49.8554 21.3797 49.8554C22.7769 49.8554 23.8667 49.3395 24.6491 48.3076C25.4502 47.2757 25.8507 45.8521 25.8507 44.0367C25.8507 42.2787 25.4408 40.8837 24.6212 39.8518Z" fill="black"/>
<path d="M42.4436 36.6702V51.4606H40.0684V38.82H34.9268L34.7312 45.3552C34.6753 47.6101 34.2748 49.2439 33.5297 50.2567C32.7845 51.2695 31.8531 51.7759 30.7353 51.7759C30.046 51.7759 29.4779 51.6708 29.0308 51.4606V49.4828C29.2729 49.6166 29.6921 49.6834 30.2882 49.6834C30.8471 49.6834 31.3221 49.3777 31.7133 48.7662C32.1232 48.1356 32.3467 47.0846 32.384 45.6132L32.6355 36.6702H42.4436Z" fill="black"/>
<path d="M47.1007 38.3613C48.3675 36.9473 50.0907 36.2402 52.2703 36.2402C54.4499 36.2402 56.1451 36.9186 57.356 38.2754C58.5668 39.6321 59.1723 41.5334 59.1723 43.9794C59.1723 46.4827 58.5668 48.4318 57.356 49.8268C56.1451 51.2217 54.4405 51.9192 52.2423 51.9192C50.0441 51.9192 48.3209 51.2313 47.0728 49.8554C45.8247 48.4796 45.2006 46.5687 45.2006 44.1227C45.2006 41.6959 45.834 39.7754 47.1007 38.3613ZM55.5117 39.8518C54.7107 38.8008 53.6116 38.2754 52.2144 38.2754C50.8172 38.2754 49.7088 38.8008 48.8891 39.8518C48.0695 40.9028 47.6596 42.3074 47.6596 44.0654C47.6596 45.8807 48.0601 47.3044 48.8612 48.3362C49.6809 49.349 50.8172 49.8554 52.2703 49.8554C53.6674 49.8554 54.7572 49.3395 55.5396 48.3076C56.3407 47.2757 56.7412 45.8521 56.7412 44.0367C56.7412 42.2787 56.3314 40.8837 55.5117 39.8518Z" fill="black"/>
<path d="M74.4075 46.0718C74.2026 47.849 73.5413 49.263 72.4236 50.314C71.3245 51.365 69.89 51.8905 68.1203 51.8905C65.9407 51.8905 64.2548 51.2026 63.0625 49.8268C61.8703 48.4318 61.2742 46.5782 61.2742 44.266C61.2742 41.801 61.8982 39.8518 63.1464 38.4187C64.3945 36.9664 66.0804 36.2402 68.2041 36.2402C69.9739 36.2402 71.3897 36.6989 72.4515 37.6161C73.5134 38.5142 74.1374 39.8041 74.3237 41.4857H71.8647C71.4362 39.3455 70.2253 38.2754 68.2321 38.2754C66.8535 38.2754 65.7637 38.8008 64.9627 39.8518C64.1616 40.8837 63.7611 42.2882 63.7611 44.0654C63.7611 45.8616 64.143 47.2757 64.9068 48.3076C65.6706 49.3395 66.7231 49.8554 68.0644 49.8554C69.1449 49.8554 70.0204 49.5306 70.6911 48.8809C71.3803 48.2311 71.8181 47.2948 72.0044 46.0718H74.4075Z" fill="black"/>
<path d="M90.7575 36.6702H93.1327V51.4606H90.7575V36.6702ZM87.1807 43.5494C88.0377 44.352 88.4661 45.4508 88.4661 46.8457C88.4661 48.2407 88.047 49.3586 87.2087 50.1994C86.389 51.0402 85.2806 51.4606 83.8834 51.4606H76.9255V36.6702H79.3007V42.3169H83.7716C85.1874 42.3169 86.3238 42.7278 87.1807 43.5494ZM83.0172 44.4093H79.3007V49.3108H83.0172C83.9859 49.3108 84.7217 49.1006 85.2247 48.6802C85.7463 48.2407 86.0071 47.6292 86.0071 46.8457C86.0071 45.2215 85.0105 44.4093 83.0172 44.4093Z" fill="black"/>
<path d="M106.837 51.4606H104.462V36.6702H116.421V51.4606H114.046V38.82H106.837V51.4606Z" fill="black"/>
<path d="M122.224 36.6702V38.7626C123.267 37.0619 124.888 36.2116 127.086 36.2116C129.098 36.2116 130.691 36.9091 131.865 38.304C133.057 39.699 133.653 41.5908 133.653 43.9794C133.653 46.368 133.066 48.2789 131.893 49.7121C130.738 51.1262 129.173 51.8332 127.198 51.8332C125.13 51.8332 123.519 51.0211 122.364 49.3968V57.1646H119.989V36.6702H122.224ZM126.723 38.2467C125.344 38.2467 124.255 38.7626 123.454 39.7945C122.671 40.8073 122.28 42.2118 122.28 44.0081C122.28 45.8043 122.681 47.2184 123.482 48.2503C124.301 49.263 125.41 49.7694 126.807 49.7694C128.167 49.7694 129.238 49.2535 130.02 48.2216C130.803 47.1897 131.194 45.7852 131.194 44.0081C131.194 42.2118 130.793 40.8073 129.992 39.7945C129.21 38.7626 128.12 38.2467 126.723 38.2467Z" fill="black"/>
<path d="M137.698 38.3613C138.965 36.9473 140.688 36.2402 142.868 36.2402C145.048 36.2402 146.743 36.9186 147.954 38.2754C149.165 39.6321 149.77 41.5334 149.77 43.9794C149.77 46.4827 149.165 48.4318 147.954 49.8268C146.743 51.2217 145.038 51.9192 142.84 51.9192C140.642 51.9192 138.919 51.2313 137.67 49.8554C136.422 48.4796 135.798 46.5687 135.798 44.1227C135.798 41.6959 136.432 39.7754 137.698 38.3613ZM146.109 39.8518C145.308 38.8008 144.209 38.2754 142.812 38.2754C141.415 38.2754 140.306 38.8008 139.487 39.8518C138.667 40.9028 138.257 42.3074 138.257 44.0654C138.257 45.8807 138.658 47.3044 139.459 48.3362C140.279 49.349 141.415 49.8554 142.868 49.8554C144.265 49.8554 145.355 49.3395 146.137 48.3076C146.938 47.2757 147.339 45.8521 147.339 44.0367C147.339 42.2787 146.929 40.8837 146.109 39.8518Z" fill="black"/>
<path d="M165.005 46.0718C164.8 47.849 164.139 49.263 163.021 50.314C161.922 51.365 160.488 51.8905 158.718 51.8905C156.538 51.8905 154.852 51.2026 153.66 49.8268C152.468 48.4318 151.872 46.5782 151.872 44.266C151.872 41.801 152.496 39.8518 153.744 38.4187C154.992 36.9664 156.678 36.2402 158.802 36.2402C160.572 36.2402 161.987 36.6989 163.049 37.6161C164.111 38.5142 164.735 39.8041 164.921 41.4857H162.462C162.034 39.3455 160.823 38.2754 158.83 38.2754C157.451 38.2754 156.361 38.8008 155.56 39.8518C154.759 40.8837 154.359 42.2882 154.359 44.0654C154.359 45.8616 154.741 47.2757 155.504 48.3076C156.268 49.3395 157.321 49.8554 158.662 49.8554C159.743 49.8554 160.618 49.5306 161.289 48.8809C161.978 48.2311 162.416 47.2948 162.602 46.0718H165.005Z" fill="black"/>
<path d="M179.131 36.6702V51.4606H176.756V38.82H171.615L171.419 45.3552C171.363 47.6101 170.963 49.2439 170.218 50.2567C169.472 51.2695 168.541 51.7759 167.423 51.7759C166.734 51.7759 166.166 51.6708 165.719 51.4606V49.4828C165.961 49.6166 166.38 49.6834 166.976 49.6834C167.535 49.6834 168.01 49.3777 168.401 48.7662C168.811 48.1356 169.035 47.0846 169.072 45.6132L169.323 36.6702H179.131Z" fill="black"/>
<path d="M195.413 49.5115V51.4032C194.929 51.5943 194.388 51.6899 193.792 51.6899C192.432 51.6899 191.734 50.9637 191.697 49.5115C190.337 51.0784 188.595 51.8619 186.471 51.8619C185.055 51.8619 183.928 51.4892 183.09 50.744C182.27 49.9987 181.861 48.9764 181.861 47.677C181.861 45.0399 183.565 43.5017 186.974 43.0622C187.198 43.0239 187.524 42.9857 187.952 42.9475C189.573 42.7564 190.57 42.5367 190.942 42.2882C191.371 41.9825 191.585 41.457 191.585 40.7118C191.585 39.0875 190.495 38.2754 188.315 38.2754C187.198 38.2754 186.35 38.5142 185.773 38.9919C185.195 39.4506 184.85 40.2149 184.739 41.285H182.419C182.457 39.699 183.006 38.4664 184.068 37.5874C185.13 36.7084 186.592 36.2689 188.455 36.2689C190.486 36.2689 191.995 36.7466 192.982 37.7021C193.299 38.0078 193.532 38.4091 193.681 38.9059C193.83 39.4028 193.913 39.8136 193.932 40.1385C193.951 40.4442 193.96 40.9124 193.96 41.543C193.96 42.2691 193.941 43.3679 193.904 44.8393C193.867 46.3107 193.848 47.4095 193.848 48.1356C193.848 48.6707 193.913 49.0528 194.044 49.2821C194.193 49.4923 194.454 49.5974 194.826 49.5974C194.975 49.5974 195.171 49.5688 195.413 49.5115ZM191.585 43.7787C191.417 43.9125 191.24 44.0272 191.054 44.1227C190.868 44.2183 190.625 44.2947 190.327 44.352C190.048 44.4093 189.852 44.4571 189.741 44.4953C189.647 44.5144 189.405 44.5527 189.014 44.61C188.623 44.6482 188.418 44.6673 188.399 44.6673C187.822 44.7438 187.44 44.8011 187.254 44.8393C187.086 44.8584 186.751 44.9348 186.248 45.0686C185.763 45.2024 185.419 45.3552 185.214 45.5272C185.009 45.6992 184.804 45.9572 184.599 46.3011C184.413 46.626 184.32 47.0177 184.32 47.4763C184.32 48.2407 184.571 48.8426 185.074 49.2821C185.596 49.7216 186.304 49.9414 187.198 49.9414C188.334 49.9414 189.349 49.5974 190.244 48.9095C191.138 48.2216 191.585 47.4095 191.585 46.4731V43.7787Z" fill="black"/>
<path d="M197.596 51.4606V36.6702H204.274C205.224 36.6702 206.035 36.7562 206.705 36.9282C207.376 37.081 207.963 37.4346 208.466 37.9887C208.969 38.5429 209.22 39.2977 209.22 40.2531C209.22 41.7054 208.512 42.766 207.096 43.4348V43.4634C207.953 43.6354 208.624 44.0463 209.108 44.696C209.593 45.3266 209.835 46.1292 209.835 47.1037C209.835 48.3649 209.425 49.4064 208.605 50.228C207.786 51.0497 206.733 51.4606 205.448 51.4606H197.596ZM204.023 42.6322C205.01 42.6322 205.709 42.4698 206.118 42.1449C206.547 41.801 206.761 41.3041 206.761 40.6544C206.761 40.0047 206.556 39.527 206.146 39.2212C205.737 38.9155 205.029 38.7626 204.023 38.7626H199.915V42.6322H204.023ZM199.915 44.696V49.3681H205.001C205.746 49.3681 206.323 49.1388 206.733 48.6802C207.162 48.2216 207.376 47.6292 207.376 46.9031C207.376 45.4317 206.444 44.696 204.582 44.696H199.915Z" fill="black"/>
<path d="M215.706 51.4606H212.66V36.6702H215.035V48.7375H215.091L221.574 36.6702H224.62V51.4606H222.245V39.3932H222.189L215.706 51.4606Z" fill="black"/>
<path d="M240.203 36.6702V51.4606H237.828V38.82H232.686L232.491 45.3552C232.435 47.6101 232.034 49.2439 231.289 50.2567C230.544 51.2695 229.612 51.7759 228.495 51.7759C227.805 51.7759 227.237 51.6708 226.79 51.4606V49.4828C227.032 49.6166 227.452 49.6834 228.048 49.6834C228.607 49.6834 229.082 49.3777 229.473 48.7662C229.883 48.1356 230.106 47.0846 230.143 45.6132L230.395 36.6702H240.203Z" fill="black"/>
<path d="M246.76 51.4606H243.715V36.6702H246.09V48.7375H246.146L252.628 36.6702H255.674V51.4606H253.299V39.3932H253.243L246.76 51.4606Z" fill="black"/>
<path d="M280.991 56.1614H278.727V51.4606H267.717V56.1614H265.454V49.3108H267.019C267.466 48.4318 267.876 47.0751 268.248 45.2406C268.64 43.387 268.835 41.5812 268.835 39.8232V36.6702H279.118V49.3108H280.991V56.1614ZM276.743 49.3108V38.82H271.154V40.0525C271.154 41.7914 270.978 43.559 270.624 45.3552C270.288 47.1324 269.906 48.4509 269.478 49.3108H276.743Z" fill="black"/>
<path d="M295.388 46.7884C294.661 50.228 292.565 51.9479 289.1 51.9479C286.977 51.9479 285.309 51.2695 284.098 49.9127C282.906 48.556 282.31 46.6738 282.31 44.266C282.31 41.8774 282.925 39.9474 284.154 38.476C285.402 36.9855 287.023 36.2402 289.016 36.2402C291.233 36.2402 292.873 37.0142 293.934 38.562C295.015 40.0907 295.555 42.0303 295.555 44.3807V44.7246H284.713L284.685 44.8966C284.685 46.4636 285.086 47.6961 285.887 48.5942C286.688 49.4923 287.787 49.9414 289.184 49.9414C290.227 49.9414 291.047 49.693 291.643 49.1962C292.258 48.6993 292.733 47.8967 293.068 46.7884H295.388ZM293.096 42.7469C292.984 41.3328 292.565 40.234 291.839 39.4506C291.112 38.648 290.153 38.2467 288.961 38.2467C287.806 38.2467 286.846 38.648 286.082 39.4506C285.319 40.2531 284.862 41.3519 284.713 42.7469H293.096Z" fill="black"/>
<path d="M298.017 51.4606V36.6702H304.696C305.646 36.6702 306.456 36.7562 307.127 36.9282C307.797 37.081 308.384 37.4346 308.887 37.9887C309.39 38.5429 309.642 39.2977 309.642 40.2531C309.642 41.7054 308.934 42.766 307.518 43.4348V43.4634C308.375 43.6354 309.046 44.0463 309.53 44.696C310.014 45.3266 310.256 46.1292 310.256 47.1037C310.256 48.3649 309.847 49.4064 309.027 50.228C308.207 51.0497 307.155 51.4606 305.869 51.4606H298.017ZM304.444 42.6322C305.432 42.6322 306.13 42.4698 306.54 42.1449C306.968 41.801 307.183 41.3041 307.183 40.6544C307.183 40.0047 306.978 39.527 306.568 39.2212C306.158 38.9155 305.45 38.7626 304.444 38.7626H300.337V42.6322H304.444ZM300.337 44.696V49.3681H305.422C306.167 49.3681 306.745 49.1388 307.155 48.6802C307.583 48.2216 307.797 47.6292 307.797 46.9031C307.797 45.4317 306.866 44.696 305.003 44.696H300.337Z" fill="black"/>
<path d="M325.014 36.6702L318.838 53.3524C318.596 54.0212 318.382 54.5371 318.195 54.9002C318.028 55.2824 317.776 55.6932 317.441 56.1327C317.124 56.5913 316.733 56.9162 316.267 57.1073C315.82 57.3175 315.289 57.4226 314.675 57.4226C314.209 57.4226 313.622 57.3366 312.914 57.1646V54.9862C313.603 55.1964 314.116 55.3015 314.451 55.3015C315.233 55.3015 315.792 54.8906 316.128 54.069L317.245 51.3746L311.517 36.6702H314.199L318.475 48.4509L322.527 36.6702H325.014Z" fill="black"/>
<path d="M327.053 51.4606V36.6702H329.429V49.3108H335.381V36.6702H337.756V49.3108H343.708V36.6702H346.083V51.4606H327.053Z" fill="black"/>
<path d="M362.558 51.4606H359.54L354.287 44.18L352.023 46.4445V51.4606H349.648V36.6702H352.023V43.7214L358.618 36.6702H361.804L355.991 42.4889L362.558 51.4606Z" fill="black"/>
<path d="M376.07 36.6702L369.895 53.3524C369.653 54.0212 369.438 54.5371 369.252 54.9002C369.084 55.2824 368.833 55.6932 368.498 56.1327C368.181 56.5913 367.79 56.9162 367.324 57.1073C366.877 57.3175 366.346 57.4226 365.731 57.4226C365.266 57.4226 364.679 57.3366 363.971 57.1646V54.9862C364.66 55.1964 365.172 55.3015 365.508 55.3015C366.29 55.3015 366.849 54.8906 367.184 54.069L368.302 51.3746L362.574 36.6702H365.256L369.532 48.4509L373.583 36.6702H376.07Z" fill="black"/>
<path d="M0 82.5127V67.7223H6.67847C7.62854 67.7223 8.4389 67.8083 9.10954 67.9803C9.78018 68.1332 10.367 68.4867 10.87 69.0409C11.373 69.595 11.6244 70.3498 11.6244 71.3053C11.6244 72.7576 10.9165 73.8181 9.50075 74.4869V74.5156C10.3577 74.6876 11.0283 75.0984 11.5127 75.7481C11.997 76.3787 12.2392 77.1813 12.2392 78.1559C12.2392 79.4171 11.8294 80.4585 11.0097 81.2802C10.19 82.1019 9.13749 82.5127 7.85209 82.5127H0ZM6.42698 73.6843C7.41431 73.6843 8.1129 73.5219 8.52273 73.1971C8.9512 72.8531 9.16543 72.3563 9.16543 71.7066C9.16543 71.0569 8.96051 70.5791 8.55068 70.2734C8.14084 69.9677 7.43294 69.8148 6.42698 69.8148H2.3193V73.6843H6.42698ZM2.3193 75.7481V80.4203H7.405C8.15015 80.4203 8.72765 80.191 9.13749 79.7324C9.56595 79.2737 9.78018 78.6814 9.78018 77.9552C9.78018 76.4838 8.84874 75.7481 6.98584 75.7481H2.3193Z" fill="black"/>
<path d="M35.2486 77.124C35.0437 78.9011 34.3824 80.3152 33.2646 81.3662C32.1655 82.4172 30.7311 82.9427 28.9613 82.9427C26.7818 82.9427 25.0958 82.2547 23.9036 80.8789C22.7113 79.4839 22.1152 77.6304 22.1152 75.3182C22.1152 72.8531 22.7393 70.904 23.9874 69.4708C25.2356 68.0185 26.9215 67.2924 29.0452 67.2924C30.8149 67.2924 32.2307 67.751 33.2926 68.6682C34.3544 69.5664 34.9785 70.8562 35.1648 72.5378H32.7058C32.2773 70.3976 31.0664 69.3275 29.0731 69.3275C27.6946 69.3275 26.6048 69.853 25.8037 70.904C25.0027 71.9359 24.6022 73.3404 24.6022 75.1175C24.6022 76.9138 24.9841 78.3278 25.7479 79.3597C26.5116 80.3916 27.5642 80.9076 28.9055 80.9076C29.9859 80.9076 30.8615 80.5827 31.5321 79.933C32.2214 79.2833 32.6592 78.3469 32.8455 77.124H35.2486Z" fill="black"/>
<path d="M50.1734 77.8406C49.4469 81.2802 47.3511 83 43.8862 83C41.7625 83 40.0952 82.3216 38.8843 80.9649C37.6921 79.6081 37.0959 77.7259 37.0959 75.3182C37.0959 72.9295 37.7107 70.9995 38.9402 69.5281C40.1883 68.0376 41.809 67.2924 43.8023 67.2924C46.0192 67.2924 47.6585 68.0663 48.7204 69.6141C49.8008 71.1429 50.3411 73.0824 50.3411 75.4328V75.7768H39.4991L39.4711 75.9488C39.4711 77.5157 39.8716 78.7482 40.6727 79.6464C41.4737 80.5445 42.5728 80.9936 43.97 80.9936C45.0132 80.9936 45.8329 80.7451 46.429 80.2483C47.0438 79.7515 47.5188 78.9489 47.8541 77.8406H50.1734ZM47.8821 73.799C47.7703 72.3849 47.3511 71.2862 46.6246 70.5027C45.8981 69.7001 44.9387 69.2988 43.7465 69.2988C42.5915 69.2988 41.6321 69.7001 40.8683 70.5027C40.1045 71.3053 39.6481 72.404 39.4991 73.799H47.8821Z" fill="black"/>
<path d="M63.4055 69.8721H58.236V82.5127H55.8608V69.8721H50.6913V67.7223H63.4055V69.8721Z" fill="black"/>
<path d="M68.3484 82.5127H65.3026V67.7223H67.6778V79.7897H67.7337L74.2165 67.7223H77.2624V82.5127H74.8872V70.4454H74.8313L68.3484 82.5127Z" fill="black"/>
<path d="M84.4624 79.3311V82.5127H81.3606V79.3311H84.4624Z" fill="black"/>
</svg>
