<svg width="108" height="18" viewBox="0 0 108 18" fill="none" xmlns="http://www.w3.org/2000/svg">
<path d="M14.1362 0.410188L6.79906 7.31099L14.4297 17.5898H11.4948L5.18489 8.85523L2.29896 11.5576V17.5898H0V0.410188H2.29896V8.92761L11.128 0.410188H14.1362Z" fill="black"/>
<path d="M28.3944 0.410188V2.38874H22.5492V17.5898H20.2502V2.38874H14.405V0.410188H28.3944Z" fill="black"/>
<path d="M37.2635 0C39.9049 0 41.9593 0.820375 43.4267 2.46113C44.8941 4.08579 45.6279 6.21716 45.6279 8.85523C45.6279 11.5094 44.9023 13.6971 43.4512 15.4182C42.0001 17.1394 39.9457 18 37.288 18C35.9347 18 34.72 17.7587 33.6439 17.2761C32.5678 16.7936 31.6873 16.126 31.0025 15.2735C30.3341 14.4209 29.8205 13.4477 29.4618 12.3539C29.1194 11.2601 28.9482 10.0777 28.9482 8.80697C28.9482 6.12064 29.6982 3.98123 31.1982 2.38874C32.7145 0.796246 34.7363 0 37.2635 0ZM37.2635 1.97855C35.3233 1.97855 33.8314 2.65416 32.7879 4.00536C31.7607 5.34048 31.2471 6.99732 31.2471 8.97587C31.2471 11.1314 31.7933 12.8525 32.8857 14.1394C33.9945 15.4102 35.47 16.0456 37.3125 16.0456C39.1386 16.0456 40.5979 15.4021 41.6903 14.1153C42.7827 12.8284 43.3289 11.1153 43.3289 8.97587C43.3289 6.85255 42.7745 5.1555 41.6658 3.88472C40.5734 2.61394 39.106 1.97855 37.2635 1.97855Z" fill="black"/>
<path d="M55.3394 0.410188H58.5188L64.1195 14.9598L69.5245 0.410188H72.7284V17.5898H70.5517V3.25737L65.0978 17.5898H63.0923L57.5405 3.25737V17.5898H55.3394V0.410188Z" fill="black"/>
<path d="M91.7827 0.410188H94.0817V17.5898H91.7827V0.410188ZM89.606 12.4987C89.606 14.1072 89.1332 15.3619 88.1875 16.2627C87.2581 17.1475 85.9456 17.5898 84.2499 17.5898H76.6193V0.410188H78.9183V7.38338H84.2499C85.9619 7.38338 87.2826 7.83378 88.212 8.73458C89.1413 9.6193 89.606 10.874 89.606 12.4987ZM87.2826 12.4987C87.2826 10.3914 86.0108 9.3378 83.4673 9.3378H78.9183V15.6113H83.4673C86.0108 15.6113 87.2826 14.5737 87.2826 12.4987Z" fill="black"/>
<path d="M97.3367 5.79088C97.3367 4.11796 97.8014 2.75067 98.7308 1.68901C99.6765 0.627346 101.046 0.0965149 102.84 0.0965149C104.405 0.0965149 105.652 0.514745 106.581 1.35121C107.527 2.18767 108 3.31367 108 4.72922C108 5.58177 107.845 6.32172 107.535 6.94906C107.226 7.56032 106.745 8.16354 106.092 8.75871C106.011 8.83914 105.799 9.03217 105.456 9.3378C105.13 9.62735 104.943 9.80429 104.894 9.86863C104.845 9.93298 104.706 10.0858 104.478 10.3271C104.266 10.5684 104.144 10.7614 104.111 10.9062C104.079 11.0349 104.013 11.2359 103.916 11.5094C103.818 11.7828 103.761 12.0724 103.744 12.378C103.728 12.6676 103.72 13.0134 103.72 13.4156H101.715V13.2708C101.715 12.5469 101.747 11.9517 101.812 11.4853C101.894 11.0188 102.065 10.5684 102.326 10.134C102.603 9.68365 102.856 9.32976 103.084 9.07239C103.329 8.81501 103.769 8.37265 104.405 7.74531C104.927 7.23056 105.285 6.77212 105.481 6.36997C105.693 5.95174 105.799 5.48525 105.799 4.97051C105.799 4.03753 105.53 3.29759 104.992 2.75067C104.454 2.20375 103.728 1.93029 102.815 1.93029C100.679 1.93029 99.5379 3.21716 99.3911 5.79088H97.3367ZM103.965 15.1528V17.5898H101.397V15.1528H103.965Z" fill="black"/>
</svg>
