<svg width="1586" height="639" viewBox="0 0 1586 639" fill="none" xmlns="http://www.w3.org/2000/svg">
<path d="M1583.9 244.622C1587.89 286.855 1569.83 329.317 1533.42 369.993C1497.01 410.67 1442.33 449.441 1373.41 484.207C1235.56 553.734 1040.99 607.103 822.374 627.767C603.761 648.43 402.636 632.464 254.202 589.996C179.98 568.76 119.011 540.921 75.6208 507.786C32.2323 474.653 6.54139 436.326 2.54946 394.093C-1.44246 351.86 16.6122 309.399 53.0242 268.723C89.4377 228.045 144.111 189.275 213.039 154.509C350.887 84.981 545.459 31.6122 764.071 10.9486C982.684 -9.715 1183.81 6.25184 1332.24 48.7199C1406.47 69.9553 1467.43 97.7947 1510.82 130.929C1554.21 164.062 1579.9 202.389 1583.9 244.622Z" fill="#EBFF00" stroke="black" stroke-width="3"/>
</svg>
