<svg width="429" height="481" viewBox="0 0 429 481" fill="none" xmlns="http://www.w3.org/2000/svg">
<path d="M135.258 186.433C136.92 167.449 144.094 149.442 151.196 131.748C156.001 119.752 161.031 107.451 170.082 98.2467C184.487 83.6152 207.175 79.4474 227.317 83.4922C247.459 87.5371 265.423 98.7129 281.7 111.226C323.096 143.131 356.193 184.543 378.188 231.954C391.944 261.702 401.243 294.465 397.877 327.069C394.512 359.673 376.74 391.966 347.473 406.702C326.841 417.087 302.699 418.029 279.702 415.759C258.604 413.789 237.871 408.965 218.071 401.419C208.865 397.852 199.6 393.388 193.328 385.759C187.298 378.446 184.593 368.811 178.857 361.228C173.122 353.646 164.601 348.476 158.309 341.248C150.852 332.482 145.217 322.319 141.733 311.35C138.523 300.827 138.027 289.663 140.29 278.896C141.977 270.325 147.503 262.755 147.523 253.799C147.572 230.817 133.113 210.954 135.258 186.433Z" fill="#EBFF00"/>
<path d="M79.8452 248.944C74.8488 249.989 70.1795 252.228 66.2357 255.469C57.0351 263.608 56.344 278.521 62.0484 289.395C66.577 298.008 74.2554 304.472 81.73 310.701L112.512 336.337C123.455 345.461 134.544 354.676 147.331 360.951C151.1 362.809 157.204 363.362 158.047 359.251C158.203 358.008 157.99 356.747 157.435 355.624C154.25 347.792 147.564 341.99 142.825 334.976C135.965 324.791 133.697 312.649 133.464 300.564C133.263 289.465 139.012 274.6 133.487 265.418C123.908 249.545 96.0297 244.99 79.8452 248.944Z" fill="black"/>
<path d="M350.155 196.414C348.385 182.399 324.616 173.858 297.064 177.337C269.513 180.816 248.612 194.997 250.382 209.011C252.151 223.026 275.921 231.567 303.472 228.088C331.024 224.609 351.924 210.428 350.155 196.414Z" fill="black"/>
<path d="M332.197 198.683C331.065 189.713 315.852 184.246 298.22 186.472C280.587 188.699 267.211 197.776 268.344 206.746C269.476 215.716 284.689 221.183 302.321 218.957C319.954 216.731 333.33 207.654 332.197 198.683Z" fill="white"/>
<path d="M284.384 217.025C288.964 215.536 291.469 210.615 289.98 206.035C288.49 201.455 283.57 198.95 278.99 200.44C274.41 201.929 271.905 206.849 273.394 211.429C274.884 216.009 279.804 218.515 284.384 217.025Z" fill="black"/>
<path d="M257.1 168.109C263.001 162.121 270.336 156.942 278.692 156.079C285.426 155.396 292.201 157.586 298.559 160.132C299.723 160.72 301.013 161.017 302.318 160.996C302.969 160.961 303.585 160.689 304.049 160.23C304.513 159.772 304.793 159.159 304.836 158.508C304.702 157.709 304.305 156.977 303.707 156.429C299.47 151.647 293.999 148.123 287.893 146.243C281.786 144.364 275.28 144.2 269.087 145.772C262.895 147.343 257.253 150.588 252.782 155.151C248.31 159.715 245.181 165.421 243.736 171.645C241.08 183.012 254.607 170.636 257.1 168.109Z" fill="#D597C3"/>
<path d="M249.465 148.762C255.362 142.763 262.707 137.581 271.056 136.732C277.786 136.038 284.562 138.228 290.92 140.774C292.084 141.362 293.374 141.659 294.678 141.639C295.33 141.603 295.946 141.331 296.41 140.872C296.873 140.414 297.153 139.801 297.196 139.15C297.061 138.353 296.669 137.621 296.078 137.068C291.84 132.29 286.368 128.769 280.263 126.892C274.157 125.014 267.653 124.852 261.462 126.423C255.27 127.994 249.63 131.237 245.159 135.798C240.687 140.359 237.555 146.062 236.107 152.283C233.441 163.654 246.971 151.289 249.465 148.762Z" fill="#D597C3"/>
<path d="M166.502 171.426C172.399 165.427 179.744 160.245 188.093 159.396C194.823 158.702 201.599 160.892 207.957 163.438C209.121 164.027 210.411 164.323 211.716 164.303C212.367 164.267 212.983 163.995 213.447 163.536C213.911 163.078 214.19 162.465 214.233 161.814C214.098 161.017 213.706 160.285 213.116 159.732C208.877 154.954 203.405 151.433 197.3 149.556C191.194 147.678 184.69 147.516 178.499 149.087C172.308 150.658 166.667 153.901 162.196 158.462C157.724 163.023 154.592 168.726 153.144 174.947C150.478 186.318 164.008 173.953 166.502 171.426Z" fill="#D597C3"/>
<path d="M273.853 250.768C274.397 251.815 274.654 252.987 274.599 254.165C274.563 254.753 274.365 255.319 274.026 255.8C273.687 256.281 273.22 256.658 272.679 256.888C272.136 257.02 271.572 257.039 271.022 256.942C270.472 256.846 269.948 256.637 269.482 256.328C266.249 254.55 264.122 251.254 262.732 247.835C261.236 244.377 260.068 240.786 259.244 237.11C261.69 238.749 264.252 240.639 266.634 242.438C269.692 244.576 272.172 247.437 273.853 250.768Z" fill="black"/>
<path d="M96.2793 301.008C90.8563 294.564 86.0557 287.396 85.3056 279.351C84.7127 273.179 87.7275 265.661 94.9166 263.705C98.3523 262.929 101.941 263.186 105.231 264.443C113.744 267.378 119.92 274.284 120.975 282.056C121.761 288.037 119.768 294.134 119.292 300.19C118.549 309.705 122.102 317.314 126.826 325.388C118.29 327.944 100.548 306.042 96.2793 301.008Z" fill="white"/>
<path d="M172.233 327.696C185.008 334.682 199.953 336.186 214.436 337.55C215.084 337.617 216.091 337.684 217.241 337.727C218.163 337.761 219.082 337.59 219.931 337.228C220.78 336.866 221.538 336.321 222.152 335.632C222.767 334.943 223.221 334.126 223.483 333.242C223.746 332.357 223.81 331.425 223.67 330.512C223.038 326.429 222.359 321.525 222.278 319.28C222.036 311.8 222.637 308.729 219.104 304.569C217.175 302.318 214.76 300.534 212.041 299.354L179.508 284.871C175.318 282.96 170.743 282.044 166.14 282.193C136.215 283.429 158.468 320.163 172.233 327.696Z" fill="#ED603C"/>
<path d="M312.002 367.388C343.772 357.055 363.148 329.063 355.278 304.866C347.408 280.669 315.274 269.431 283.504 279.763C251.733 290.096 232.358 318.088 240.228 342.285C248.098 366.482 280.232 377.721 312.002 367.388Z" fill="#D597C3"/>
<path d="M282.036 263.024C293.465 259.666 305.099 258.723 316.596 262.067C318.402 262.557 320.169 263.142 321.907 263.817C331.14 267.385 339.285 273.295 345.54 280.966C351.796 288.637 355.946 297.805 357.582 307.567C359.219 317.328 358.286 327.348 354.874 336.64C351.463 345.932 345.691 354.175 338.127 360.559C336.994 361.992 335.777 363.356 334.482 364.643C333.22 365.924 331.887 367.132 330.488 368.26C326.891 371.494 322.623 373.891 317.99 375.281C316.451 375.768 314.885 376.165 313.299 376.471C305.763 377.623 298.402 379.721 291.391 382.715C275.443 389.606 264.119 370.544 252.922 361.422C251.575 360.098 250.316 358.792 249.095 357.357C239.104 345.625 234.179 330.406 235.403 315.044C235.556 313.199 235.802 311.362 236.141 309.541C236.734 303.807 238.492 296.987 243.871 294.101C246.282 292.564 249.064 291.707 251.922 291.622C263.543 293.384 265.861 279.553 269.778 271.671C271.364 268.891 273.664 266.586 276.44 264.995L282.036 263.024ZM314.199 355.392C319.824 349.482 322.283 341.286 329.1 336.797C330.97 335.667 332.743 334.453 334.428 333.255C347.881 323.431 355.133 310.975 351.73 300.512C349.626 294.044 343.685 289.357 335.465 286.755C333.761 286.218 332.028 285.779 330.273 285.441C327.306 285.05 324.403 284.858 322.002 286.207C317.197 289.145 311.909 291.206 306.384 292.295C304.624 292.659 302.858 292.932 301.089 293.159C285.298 300.996 270.868 309.098 253.224 309.956C251.914 310.732 250.669 311.613 249.503 312.592C248.314 313.69 247.21 314.822 246.19 315.988C244.465 318.339 243.131 320.953 242.239 323.73C241.357 326.503 241.099 329.437 241.486 332.322C241.969 336.038 243.397 339.568 245.634 342.575C247.87 345.583 250.84 347.966 254.26 349.498C255.611 350.149 256.995 350.728 258.407 351.233C272.929 359.065 290.193 356.29 305.939 358.867C307.601 358.792 309.231 358.391 310.738 357.689C311.972 357.05 313.132 356.28 314.199 355.392Z" fill="black"/>
<path d="M274.603 319.233C274.702 319.707 274.936 320.142 275.277 320.486C275.568 320.665 275.892 320.784 276.23 320.838C276.567 320.891 276.912 320.877 277.244 320.797C283.616 320.08 289.92 318.855 296.097 317.135C293.893 310.571 291.423 304.083 288.712 297.707C288.571 297.102 288.215 296.567 287.711 296.203C287.207 295.839 286.589 295.669 285.969 295.724C282.391 295.416 278.337 295.25 275.594 297.615C269.405 302.932 272.572 312.776 274.603 319.233Z" fill="white"/>
<path d="M315.659 305.88C315.849 306.325 315.912 306.814 315.84 307.293C315.711 307.609 315.519 307.897 315.278 308.139C315.036 308.38 314.748 308.572 314.432 308.702C308.858 311.87 303.039 314.588 297.032 316.83C294.953 310.226 293.134 303.526 291.586 296.772C291.393 296.185 291.365 295.556 291.505 294.955C291.746 294.392 292.138 293.908 292.638 293.555C295.35 291.2 298.52 288.685 302.13 288.984C310.273 289.639 313.492 299.466 315.659 305.88Z" fill="white"/>
<path d="M313.235 297.499C312.218 296.012 311.359 294.422 310.673 292.756C310.339 291.917 310.249 291 310.414 290.112C310.578 289.224 310.99 288.4 311.602 287.735C312.553 286.981 313.753 286.612 314.963 286.7C316.569 286.802 318.136 287.232 319.57 287.962C321.003 288.692 322.272 289.707 323.299 290.945C325.333 293.438 326.95 296.243 328.088 299.253C328.332 299.703 328.445 300.212 328.416 300.723C328.326 301.12 328.133 301.486 327.857 301.786C326.528 303.173 324.865 304.197 323.028 304.759C321.699 305.272 319.468 306.647 318.04 306.532C316.343 306.377 316.173 304.82 315.734 303.433C315.112 301.373 314.274 299.384 313.235 297.499Z" fill="white"/>
<path d="M261.084 308.491C261.287 306.914 261.836 305.401 262.692 304.061C263.129 303.399 263.705 302.839 264.379 302.42C265.053 302 265.809 301.731 266.597 301.632C266.981 301.586 267.371 301.619 267.742 301.73C268.113 301.84 268.457 302.026 268.754 302.275C269.23 302.817 269.556 303.474 269.698 304.182C271.096 309.048 272.2 313.976 273.328 318.907C273.426 319.236 273.456 319.581 273.415 319.922C273.276 320.299 273.044 320.635 272.741 320.9C272.439 321.165 272.074 321.349 271.682 321.436C269.558 322.364 267.176 322.52 264.95 321.875C260.113 320.191 260.416 312.603 261.084 308.491Z" fill="white"/>
<path d="M277.606 343.924C277.256 342.821 277.243 341.639 277.568 340.528C278.204 338.919 279.935 338.112 281.554 337.528C283.191 336.941 284.858 336.438 286.547 336.02C287.488 335.703 288.497 335.652 289.466 335.87C290.962 336.335 291.801 337.882 292.432 339.323C294.596 344.251 296.153 349.424 297.071 354.728C297.217 355.267 297.2 355.836 297.024 356.366C296.545 357.495 295.011 357.589 293.777 357.503C289.983 357.242 285.757 357.793 282.919 355.343C280.082 352.892 278.448 347.476 277.606 343.924Z" fill="white"/>
<path d="M293.339 338.241C293.157 337.703 293.057 337.142 293.041 336.575C293.113 335.908 293.363 335.271 293.765 334.733C294.167 334.194 294.706 333.773 295.326 333.514C296.574 333.018 297.903 332.755 299.247 332.737C299.9 332.627 300.571 332.702 301.183 332.953C301.918 333.468 302.433 334.239 302.628 335.115L308.832 352.515C309.323 354.025 309.879 355.734 309.075 357.074C308.27 358.413 306.094 358.959 304.318 358.737C303.001 358.574 300.02 358.639 299.078 357.705C297.967 356.606 297.684 353.417 297.29 351.957L293.339 338.241Z" fill="white"/>
<path d="M314.287 332.712C314.131 332.207 313.89 331.733 313.575 331.308C313.113 330.848 312.537 330.516 311.907 330.347C311.276 330.178 310.612 330.177 309.981 330.344C308.687 330.682 307.461 331.238 306.354 331.988C305.767 332.272 305.264 332.703 304.894 333.239C304.588 334.024 304.602 334.898 304.932 335.673L309.732 352.069C310.185 353.464 310.7 355.047 312.115 355.618C313.53 356.19 314.793 354.55 316.116 353.378C317.255 352.011 318.171 350.473 318.83 348.82C319.088 348.243 319.218 347.617 319.213 346.985C319.207 346.352 319.066 345.729 318.798 345.156L314.287 332.712Z" fill="white"/>
<path d="M317.846 339.02L315.385 332.238C315.185 331.792 315.079 331.309 315.075 330.82C315.228 329.991 315.692 329.251 316.373 328.752C317.165 328.055 318.017 327.429 318.918 326.881C320.294 326.051 322.059 325.419 323.466 326.179C324.418 326.835 325.132 327.782 325.503 328.878C326.625 331.295 327.73 333.73 328.8 336.164C328.938 336.39 329.02 336.645 329.042 336.908C329.006 337.546 328.338 337.914 327.774 338.214C325.069 339.662 323.698 342.078 321.986 344.478C320.943 345.977 320.399 344.623 319.735 343.402C318.994 341.991 318.363 340.526 317.846 339.02Z" fill="white"/>
<path d="M290.964 45.0953L240.808 94.5869L270.639 104.755L290.964 45.0953Z" fill="black"/>
<path d="M231.456 24.8114L240.949 94.6316L211.117 84.4638L231.456 24.8114Z" fill="black"/>
<path d="M231.411 227.89C220.751 217.643 197.174 197.476 188.185 189.619L169.849 199.257C166.988 211.132 164.129 223.005 161.274 234.877C172.601 246.465 184.729 257.241 197.569 267.126L231.411 227.89Z" fill="black"/>
<path d="M163.373 254.405C156.307 245.553 152.527 234.524 152.679 223.198C152.992 216.619 154.243 210.119 156.393 203.893C159.434 194.245 163.759 184.375 171.849 180.376C174.852 178.983 178.121 178.26 181.431 178.257C194.528 177.927 207.991 185.28 218.223 196.246C228.456 207.212 235.714 221.51 240.592 236.328C242.699 242.807 244.493 249.643 243.905 256.21C242.743 269.248 232.265 278.058 221.08 279.562C204.396 281.801 175.944 269.816 163.373 254.405Z" stroke="#1D1D1B" stroke-width="2" stroke-miterlimit="10"/>
</svg>
