<svg width="1533" height="269" viewBox="0 0 1533 269" fill="none" xmlns="http://www.w3.org/2000/svg">
<path d="M76.772 69.8391C76.772 72.9669 76.0561 76.2288 74.6245 79.6247C73.1928 82.9312 71.0901 86.1484 68.3163 89.2761C65.5425 92.4039 61.6502 94.9509 56.6394 96.9169C51.6287 98.8829 45.9469 99.866 39.5939 99.866C27.6039 99.866 17.985 97.0509 10.7373 91.4209C3.57911 85.7015 0 77.3012 0 66.2198H12.2137C12.4822 74.3521 15.2112 80.2949 20.4009 84.0483C25.5906 87.7122 32.3462 89.5442 40.6677 89.5442C47.3785 89.5442 52.9709 87.7122 57.4447 84.0483C61.9186 80.3843 64.1556 75.5585 64.1556 69.571C64.1556 66.2645 63.5292 63.4495 62.2765 61.126C61.0239 58.8025 59.1896 57.0599 56.7737 55.8981C54.3578 54.7364 51.8076 53.9321 49.1233 53.4853C46.5285 53.0384 43.4862 52.815 39.9966 52.815C36.9543 52.815 34.091 52.9044 31.4067 53.0831V42.6273C32.8384 42.8061 35.7016 42.8954 39.9966 42.8954C53.8656 42.8954 60.8002 37.1761 60.8002 25.7373C60.8002 15.5496 53.9551 10.4558 40.265 10.4558C25.7696 10.4558 17.8508 16.9348 16.5087 29.8928H4.29493C4.65285 20.0626 8.14248 12.6452 14.7638 7.64075C21.3852 2.54692 30.0198 0 40.6677 0C50.4207 0 58.2948 2.14477 64.2898 6.43431C70.3743 10.7239 73.4165 17.1582 73.4165 25.7373C73.4165 30.563 71.8507 34.9419 68.7189 38.874C65.5872 42.7167 61.8739 45.2636 57.579 46.5147V46.9169C63.6635 48.0786 68.361 50.8043 71.6717 55.0938C75.0719 59.3834 76.772 64.2985 76.772 69.8391Z" fill="black"/>
<path d="M68.3517 96.2641C70.9776 95.6813 73.2146 94.9528 75.0625 94.0786C76.8132 93.2043 78.5152 91.9901 80.1686 90.436C81.822 88.8818 83.524 86.8905 85.2746 84.4621C87.0253 82.0337 89.1164 79.0224 91.5478 75.4284C93.104 73 95.0978 69.9402 97.5292 66.249C100.058 62.4607 102.83 58.3324 105.845 53.8641C108.957 49.2987 112.264 44.539 115.765 39.585C119.364 34.6311 123.011 29.7743 126.707 25.0146C130.403 20.2549 134.05 15.738 137.648 11.464C141.344 7.19004 144.894 3.40172 148.298 0.099081L151.654 0.973306V88.2504C151.654 89.7074 151.945 90.8731 152.529 91.7473C153.21 92.5244 154.036 93.2043 155.009 93.7872C155.982 94.2728 157.051 94.71 158.218 95.0985C159.483 95.3899 160.65 95.7785 161.72 96.2641V98.304C158.899 98.0126 156.03 97.8183 153.112 97.7212C150.292 97.7212 147.471 97.7212 144.651 97.7212C141.15 97.7212 137.648 97.7212 134.147 97.7212C130.646 97.8183 127.144 98.0126 123.643 98.304V96.2641C126.755 95.487 129.284 94.7585 131.229 94.0786C133.272 93.3986 134.876 92.6215 136.044 91.7473C137.211 90.8731 137.989 89.8531 138.378 88.6875C138.864 87.4247 139.107 85.8705 139.107 84.025V56.9239H108.908C108.325 57.701 107.498 58.9638 106.428 60.7122C105.456 62.3635 104.337 64.2577 103.073 66.3947C101.809 68.5317 100.496 70.8144 99.134 73.2428C97.8696 75.6712 96.7025 78.0025 95.6327 80.2366C94.5628 82.4708 93.6875 84.4621 93.0067 86.2105C92.3259 87.959 91.9855 89.2703 91.9855 90.1445C91.9855 91.4073 92.3745 92.3787 93.1526 93.0586C93.9307 93.7386 94.8546 94.2728 95.9245 94.6614C97.0916 95.0499 98.2587 95.3413 99.4258 95.5356C100.69 95.7299 101.76 95.9727 102.635 96.2641V98.304C99.6203 98.0126 96.6539 97.8183 93.7361 97.7212C90.8184 97.7212 87.852 97.7212 84.837 97.7212C82.0165 97.7212 79.2933 97.7698 76.6673 97.8669C73.944 97.964 71.1722 98.1097 68.3517 98.304V96.2641ZM139.107 52.8442V14.2324C133.855 20.1578 128.944 26.3745 124.373 32.8826C119.899 39.3908 115.473 46.0446 111.097 52.8442H139.107Z" fill="black"/>
<path d="M254.845 2.27882V97.7212H242.228V13.2708H191.763V97.7212H179.147V2.27882H254.845Z" fill="black"/>
<path d="M276.008 97.7212V2.27882H288.624V83.1099H288.893L335.734 2.27882H351.706V97.7212H339.09V16.622H338.821L291.846 97.7212H276.008Z" fill="black"/>
<path d="M453.802 61.6622C452.728 73.7265 448.523 83.1546 441.186 89.9464C433.938 96.6488 424.364 100 412.463 100C398.863 100 388.081 95.5317 380.117 86.5952C372.154 77.5693 368.172 65.4156 368.172 50.1341C368.172 35.8356 372.154 23.95 380.117 14.4772C388.17 4.9151 399.265 0.134047 413.403 0.134047C423.514 0.134047 432.417 2.85969 440.112 8.31099C447.807 13.7623 452.102 21.3137 452.997 30.9651H440.38C438.949 24.7096 435.817 19.8391 430.985 16.3539C426.154 12.7793 420.203 10.992 413.134 10.992C402.487 10.992 394.434 14.7453 388.976 22.252C383.607 29.7587 380.923 39.008 380.923 50C380.923 62.1537 383.786 71.7158 389.512 78.6863C395.239 85.6568 403.068 89.1421 413 89.1421C421.143 89.1421 427.63 86.8186 432.462 82.1716C437.294 77.4352 440.202 70.5988 441.186 61.6622H453.802Z" fill="black"/>
<path d="M541 69.437C541 78.3736 538.405 85.3441 533.215 90.3485C528.115 95.2636 520.912 97.7212 511.607 97.7212H469.731V2.27882H482.347V41.0188H511.607C521.002 41.0188 528.249 43.521 533.35 48.5255C538.45 53.4406 541 60.4111 541 69.437ZM528.249 69.437C528.249 57.7301 521.27 51.8767 507.312 51.8767H482.347V86.7292H507.312C521.27 86.7292 528.249 80.9652 528.249 69.437Z" fill="black"/>
<path d="M541.606 170.287V266.075H529.005V221.275H478.601V266.075H466V170.287H478.601V210.244H529.005V170.287H541.606Z" fill="black"/>
<path d="M602.826 170.287L640.093 266.075H626.017L615.427 236.747H575.345L564.487 266.075H551.081L588.616 170.287H602.826ZM611.674 226.657L595.453 182.395L578.964 226.657H611.674Z" fill="black"/>
<path d="M703.783 269C699.12 269 695.186 268.366 691.98 267.099C688.775 265.832 686.2 264.174 684.258 262.127C682.315 260.08 680.906 257.838 680.032 255.4C679.158 252.866 678.721 250.38 678.721 247.942C678.721 243.848 679.789 240.631 681.926 238.291C684.16 235.854 686.977 234.635 690.377 234.635C692.612 234.635 694.214 235.366 695.186 236.829C696.254 238.291 696.789 239.802 696.789 241.362C696.789 243.994 695.769 246.139 693.729 247.796C691.689 249.356 689.503 250.136 687.172 250.136C687.172 251.598 687.415 253.256 687.9 255.108C688.386 256.863 689.26 258.52 690.523 260.08C691.883 261.64 693.632 262.956 695.769 264.028C697.906 265.003 700.674 265.49 704.074 265.49C709.611 265.49 714.76 264.126 719.52 261.396C724.279 258.569 728.554 254.913 732.342 250.428C736.228 245.944 739.579 240.923 742.396 235.366C745.213 229.712 747.447 224.058 749.099 218.403H712.817L714.274 214.309H750.119C750.702 211.774 751.139 209.288 751.43 206.851C751.819 204.316 752.013 201.928 752.013 199.686C752.013 195.786 751.624 192.13 750.847 188.718C750.07 185.306 748.856 182.381 747.205 179.944C745.553 177.41 743.465 175.46 740.939 174.095C738.51 172.633 735.596 171.901 732.196 171.901C728.894 171.901 725.834 172.584 723.017 173.949C720.2 175.216 717.431 177.117 714.711 179.652C712.088 182.089 709.465 185.062 706.843 188.572C704.317 192.082 701.646 196.03 698.829 200.417L696.934 199.978C698.489 194.714 699.606 190.083 700.286 186.086C700.966 182.089 701.694 178.092 702.471 174.095C705.191 173.997 707.62 173.656 709.757 173.071C711.991 172.389 714.225 171.707 716.46 171.024C718.791 170.244 721.268 169.562 723.891 168.977C726.611 168.392 729.768 168.099 733.362 168.099C737.539 168.099 741.57 168.831 745.456 170.293C749.342 171.755 752.79 173.949 755.801 176.873C758.813 179.701 761.193 183.21 762.941 187.402C764.787 191.497 765.71 196.225 765.71 201.587C765.71 210.946 763.816 219.72 760.027 227.909C756.336 236.098 751.527 243.263 745.602 249.405C739.676 255.449 733.022 260.226 725.639 263.736C718.354 267.245 711.068 269 703.783 269Z" fill="black"/>
<path d="M856.67 170.287L816.454 208.764L858.279 266.075H842.192L807.606 217.374L791.788 232.442V266.075H779.187V170.287H791.788V217.778L840.181 170.287H856.67Z" fill="black"/>
<path d="M947.078 229.886C946.005 241.994 941.805 251.456 934.477 258.272C927.238 264.999 917.675 268.362 905.789 268.362C892.205 268.362 881.436 263.878 873.482 254.909C865.528 245.85 861.552 233.653 861.552 218.316C861.552 203.965 865.528 192.037 873.482 182.53C881.526 172.933 892.607 168.135 906.728 168.135C916.826 168.135 925.719 170.87 933.404 176.341C941.09 181.812 945.38 189.391 946.274 199.077H933.672C932.243 192.799 929.115 187.911 924.289 184.413C919.463 180.826 913.52 179.032 906.46 179.032C895.825 179.032 887.781 182.799 882.33 190.333C876.968 197.867 874.287 207.149 874.287 218.181C874.287 230.379 877.146 239.976 882.866 246.972C888.586 253.967 896.406 257.465 906.326 257.465C914.458 257.465 920.937 255.133 925.763 250.469C930.589 245.716 933.494 238.855 934.477 229.886H947.078Z" fill="black"/>
<path d="M1040.47 170.287L1000.25 208.764L1042.08 266.075H1025.99L991.407 217.374L975.588 232.442V266.075H962.987V170.287H975.588V217.778L1023.98 170.287H1040.47Z" fill="black"/>
<path d="M1076.53 241.052L1041.68 170.287H1055.48L1083.37 228.675L1110.71 170.287H1124.25L1087.12 246.568C1083.28 254.461 1079.3 260.066 1075.19 263.385C1071.17 266.703 1066.7 268.362 1061.78 268.362C1057.49 268.362 1053.56 267.555 1049.99 265.941V255.178C1052.58 256.792 1056.15 257.6 1060.71 257.6C1065.98 257.6 1070.72 253.205 1074.92 244.415L1076.53 241.052Z" fill="black"/>
<path d="M1134.89 170.287H1174.17C1183.91 170.287 1191.64 172.529 1197.36 177.014C1203.08 181.409 1205.94 188.359 1205.94 197.867C1205.94 217.15 1195.08 226.791 1173.36 226.791H1147.49V266.075H1134.89V170.287ZM1147.49 181.184V216.163H1171.75C1178.54 216.163 1183.82 214.908 1187.57 212.396C1191.41 209.795 1193.33 205.221 1193.33 198.674C1193.33 194.996 1192.71 191.947 1191.46 189.525C1190.3 187.104 1188.55 185.31 1186.23 184.144C1183.91 182.978 1181.49 182.216 1178.99 181.857C1176.49 181.409 1173.49 181.184 1170.01 181.184H1147.49Z" fill="black"/>
<path d="M1302.11 229.886C1301.04 241.994 1296.84 251.456 1289.51 258.272C1282.27 264.999 1272.71 268.362 1260.82 268.362C1247.24 268.362 1236.47 263.878 1228.52 254.909C1220.56 245.85 1216.58 233.653 1216.58 218.316C1216.58 203.965 1220.56 192.037 1228.52 182.53C1236.56 172.933 1247.64 168.135 1261.76 168.135C1271.86 168.135 1280.75 170.87 1288.44 176.341C1296.12 181.812 1300.41 189.391 1301.31 199.077H1288.71C1287.28 192.799 1284.15 187.911 1279.32 184.413C1274.5 180.826 1268.55 179.032 1261.49 179.032C1250.86 179.032 1242.81 182.799 1237.36 190.333C1232 197.867 1229.32 207.149 1229.32 218.181C1229.32 230.379 1232.18 239.976 1237.9 246.972C1243.62 253.967 1251.44 257.465 1261.36 257.465C1269.49 257.465 1275.97 255.133 1280.8 250.469C1285.62 245.716 1288.53 238.855 1289.51 229.886H1302.11Z" fill="black"/>
<path d="M1318.02 266.075V170.287H1330.62V251.411H1330.89L1377.67 170.287H1393.63V266.075H1381.03V184.682H1380.76L1333.84 266.075H1318.02Z" fill="black"/>
<path d="M1445.33 221.275H1427.37V266.075H1414.76V170.287H1427.37V210.244H1445.6C1446.85 197.239 1451.32 186.969 1459 179.435C1466.78 171.812 1476.79 168 1489.03 168C1502.88 168 1513.65 172.574 1521.34 181.722C1529.11 190.781 1533 202.665 1533 217.374C1533 232.173 1529.16 244.371 1521.47 253.967C1513.87 263.564 1503.11 268.362 1489.16 268.362C1475.85 268.362 1465.39 263.968 1457.8 255.178C1450.29 246.299 1446.13 234.998 1445.33 221.275ZM1520.4 218.047C1520.4 206.208 1517.54 196.745 1511.82 189.66C1506.19 182.575 1498.59 179.032 1489.03 179.032C1479.02 179.032 1471.34 182.799 1465.97 190.333C1460.61 197.777 1457.93 207.015 1457.93 218.047C1457.93 229.975 1460.75 239.527 1466.38 246.702C1472.09 253.878 1479.74 257.465 1489.3 257.465C1498.68 257.465 1506.19 253.878 1511.82 246.702C1517.54 239.527 1520.4 229.975 1520.4 218.047Z" fill="black"/>
<path d="M621.232 49.2322C620.256 50.2085 620.256 51.7914 621.232 52.7678L637.142 68.6777C638.118 69.654 639.701 69.654 640.678 68.6777C641.654 67.7014 641.654 66.1184 640.678 65.1421L626.536 51L640.678 36.8579C641.654 35.8815 641.654 34.2986 640.678 33.3223C639.701 32.346 638.118 32.346 637.142 33.3223L621.232 49.2322ZM731 48.5L623 48.5L623 53.5L731 53.5L731 48.5Z" fill="black"/>
</svg>
